<?xml version="1.0" encoding="UTF-8"?>
<svg id="Capa_2" data-name="Capa 2" xmlns="http://www.w3.org/2000/svg" viewBox="0 0 83.3 75.4">
  <defs>
    <style>
      .cls-1 {
        fill: #dedcdb;
      }

      .cls-2 {
        fill: #efefee;
      }

      .cls-3 {
        fill: #ecebeb;
      }

      .cls-4 {
        fill: #5dbedc;
      }

      .cls-5 {
        fill: #384249;
      }

      .cls-6 {
        fill: #cacaca;
      }

      .cls-7 {
        fill: #c6c3c3;
      }

      .cls-8 {
        fill: #d99195;
      }

      .cls-9 {
        fill: #2f1e1f;
      }

      .cls-10 {
        fill: #1ba9cf;
      }

      .cls-11 {
        fill: #878686;
      }

      .cls-12 {
        fill: #eae9eb;
      }

      .cls-13 {
        fill: #cbc8c8;
      }

      .cls-14 {
        fill: #ddd3d3;
      }

      .cls-15 {
        fill: #2f4248;
      }

      .cls-16 {
        fill: #221918;
      }

      .cls-17 {
        fill: #c4c3c3;
      }

      .cls-18 {
        fill: #a1a2a2;
      }

      .cls-19 {
        fill: #251e1d;
      }

      .cls-20 {
        fill: #eb939c;
      }

      .cls-21 {
        fill: #cbcacb;
      }

      .cls-22 {
        fill: #c1bfbf;
      }

      .cls-23 {
        fill: #29b7c8;
      }

      .cls-24 {
        fill: #0d2528;
      }

      .cls-25 {
        fill: #c9c7c8;
      }

      .cls-26 {
        fill: #f7f0f1;
      }

      .cls-27 {
        fill: #efefef;
      }

      .cls-28 {
        fill: #efeeee;
      }

      .cls-29 {
        fill: #c2c0c0;
      }

      .cls-30 {
        fill: #b8b6b9;
      }

      .cls-31 {
        fill: #9b4746;
      }

      .cls-32 {
        fill: #ca4960;
      }

      .cls-33 {
        fill: #2494af;
      }

      .cls-34 {
        fill: #eee;
      }

      .cls-35 {
        fill: #241c1c;
      }
    </style>
  </defs>
  <g id="Capa_1-2" data-name="Capa 1">
    <g>
      <path class="cls-16" d="M13.1,17C14.3,7,24.7,2,33.8,.6c9.8-1.6,19.2-.3,27.4,5.9,1.6,1.2,3.2,1.1,5,1.1,3.9,0,7.7-.2,11.6-.2,1.8,0,4.5-.6,4.8,1.6,.3,2.3-2.5,2.3-4.2,2.9-3.1,1.2-6.4,2.1-9.6,3.1-.5,1.5,1.1,.7,1.5,1.2,3.4,.3,6.7,.5,10.1,.9,1.2,.1,2.8,.3,2.9,1.8,.1,1.5-1.3,1.9-2.6,2.1-2.7,.4-5.4,1.1-8.1,1.3-2.4,.2-2.5,1-1.8,3,3.3,9.3,6.3,18.6,8.8,28.1,.3,1.2,1.1,2.4,0,3.5-1.2,1.1-2.4,0-3.3-.6-1.7-1.2-2.6-.8-3.8,.9-2.1,2.9-3.9,6.1-7.3,7.8-2.8-.9-3.5-4-5.9-5.4,.3,2.6,4,2.8,4.3,5.4,.1,3-2,4.4-4.2,5.7-4.7,2.6-9.9,3.9-15.3,4.6-2.3,.3-4.2-.6-5.9-1.9-6.9-5.4-13.8-10.7-20.6-16.2-4.2-3.3-7.3-7.5-8.3-13.2-1.9,1.3-3.6,2.5-5.4,3.7-.9,.6-1.9,1.5-3.1,.7-1.1-.7-.9-1.9-.7-3.1,.4-3.3,1.5-6.3,2.7-9.3,.4-1,1.3-1.9-.6-2.5-3.1-.9-2.1-3-1-4.7,3-4.5,6.6-8.4,11.2-11.3,.7,.3,1.1,.9,1.1,1.7-.2,.9-.9,1.6-1.5,2.2-2.2,2.2-4.4,4.3-6.5,6.6-.6,.6-1.3,1.3-.9,2.3,.4,.9,1.5,.8,2.3,.8,2.4,0,4.6-.9,6.9-1.5,1-.2,1.9-.5,2.8,.3,.3,.5,.5,1,.6,1.6,.6,6.8,1.1,13.6,2.6,20.2,.6,2.6,1.4,5,3.8,6.5,4.5,3.9,9.5,7.3,14,11.1,3.1,2.6,6.2,3.4,10,2.2,1.7-.5,3.4-.8,5.1-1.2,1-.3,1.9-.6,2.8-1.1,.3-.2,.6-.3,.9-.5,3.2-2.1,3.2-2.1,.2-4.2-3.2-2.2-2.3-5.4-2.4-8.4,.2-.3,.5-.5,.8-.7,4.4-1.4,5.7-1.1,8.1,1.9,2.7,3.4,2.8,3.4,5.4,0,.4-.5,.7-1,1-1.5,.6-.9,1.2-1.9,.2-2.9-1.2-1.2-2.5-.2-3.7,0-4.6-.4-5.7-1.3-6.8-5.3,0-3.7-.9-4.7-5.3-5.2-.5-.1-.9-.4-1.1-1,.8-1.4,0-2.3-1.1-3.1-1.4-1.1-2.6-4.1-4.6-.6-3.3,1.5-3.7,1.3-4.8-2.1,.4-2.4-1.1-5.2,1.6-7,2.7-.3,4.3,1.7,6.1,3.2,5.9,5.2,11.9,10.2,18.3,14.9,2.2,1.6,4.3,3.4,7.2,5.1-.5-3.1-1.5-5.5-2.3-8-2.4-8-5.1-15.9-7.9-23.8-.8-2.3-2.1-3.2-4.5-2.4-5.3,1.7-11.1,1.9-15.4,6.2-1.6,1.5-3.8,.9-5.7,0-5-2.7-7.3-7.1-6.9-12.6,.2-3.6,3.2-6.2,6-5,5.3,2.3,10.5,1.4,15.6,.8C46,1,27.8,3.2,19.4,11.3c-1.1,1-1.9,2.3-2.8,3.4-1.2,.7-.9,3.8-3.5,2.3Z"/>
      <path class="cls-9" d="M44.9,29c-3.3,1.6-.8,4.7-1.8,6.9-2.2-.7-1.2-2.6-1.6-4.1-.4-1.7-.2-4-3.1-3.2-.4,.3-.8,.6-1.3,.7-.4,0-.7-.1-.9-.4-2.7-2.1-6.1-1.4-7.8,1.7q-1,5,3.5,7.2c.6,.3,1.2,.5,1.6,1,2.3,3.2,5.3,5.1,9.3,5.3,1.9,.1,2.6,1.8,2.8,3.5,.2,2.4,1.4,2.8,3.6,2.4,4.7-.8,6.3,.8,6.4,5.9-.4,0-.9,.2-1.3,.3-.2,2.6-.4,5.1-1.4,7.5-.8,2-.6,3.3,1.9,3.6,1.1,.2,2.2,.7,1.3,2.3h0c-1.5,.7-3.2,.7-4.8,.9-5.6-1-9.1-4.2-10-10-.2-1.2,0-2.6-1.9-2.6-8.3,.2-11.3-5.9-14.2-12-.6-1.2-.8-2.6-.8-4-.3-4.3-.3-8.6,1-12.9-3.6-1-5.6,3.2-9,2.5,0-.5,0-1,0-1.5,.1-.8,.7-1.2,1.2-1.6,1.8-1.1,.7-1.8-.3-2.7-1.9-1.7-3.9-3.5-3.9-6.3-.3-.6-.6-1.1-.9-1.7,.2-.2,.4-.4,.6-.5,2.4,.5,1.1-3,3.2-2.9,.5,.5,.5,1.1,.6,1.7,.5,6.2,2.6,8.3,8.9,8.5,2.3,0,4.7,.5,7-.6,2.3-1,4.6-1,7-.3,2.3,1.4,4.9,2.5,5.3,5.6Z"/>
      <path class="cls-12" d="M63.5,65.1c-1.2-1.2-2.7-2.2-4.3-2.8-1.6-.6-1.5-1.8-1.5-3,0-.7,.3-1.3,.9-1.4,1.4-.3,1.9,.9,2.6,1.8,1.3,1.8,2.6,3.6,3.9,5.5-.5,0-1.1,0-1.6,0Z"/>
      <path class="cls-30" d="M70.3,16.2c-1,0-2.2,.7-2.7-.6-.3-.6,.6-.8,1.2-.7,.5,.4,1,.8,1.5,1.2Z"/>
      <path class="cls-27" d="M44.9,29c-1.1-2.1-3.9-2.8-4.6-5.3v-.3c2.7,.5,5.3,.6,6.5-2.6,.4-.9,1.2-.8,1.9-.9,4.6-1.2,9.1-2.4,13.6-3.7,1.7-.5,2.5,0,3.1,1.6,4.4,11.7,8.2,23.6,11.9,36.5-12.1-7.5-21.9-16.8-32.3-25.2Z"/>
      <path class="cls-2" d="M55.6,55.9c-.3-.6-.6-1.1-.7-1.7-.8-3.6-2.8-4.8-6.3-3.1-2.6,1.3-3.9,.3-3.8-2.6,.1-2.8-1.2-3.9-4.1-3.8-2.6,.1-5.1-.4-6.3-3.4-.7-1.7-2.3-3.3-4.3-3.2-3.6,.2-3.8-1.7-3.2-4.3,.3-1.3,.6-2.7,.9-4,2-1.6,4.4-1.3,6.7-1.3,2.1,0,2.2,1.9,2.6,3.5,.2,.5,.3,1.1,.5,1.6,.3,1.5,1,2.8,1.9,4.1,.7,.9,1.6,1.7,2.6,2.3,3.5,2.6,7.6,2.3,11.7,2.2,2.9,.6,5.1,2.1,6.3,4.9,.7,3.7,3,5.2,6.6,5,2,.7,4.4,1,3.9,4.1-1.3,2.3-2.9,4.2-5,6-2.4-3.5-4-8.2-9.8-6.2Z"/>
      <path class="cls-2" d="M40.3,23.5s0,.3,0,.3c-2.5,.3-5.1-.6-7.4,.9-8.5,.8-13.4-3.5-14.7-8.3-.5-1.8-.7-3.6,.2-5.4,3.8-5,9.3-6.7,15.1-7.8,8.7-1.6,17-.7,24.5,4.6-6.1,0-12.1,2.5-18.2-.4-3.6-1.7-6.7,.6-6.5,4.8,.2,5,2.9,8.5,6.9,11.3Z"/>
      <path class="cls-2" d="M25.2,41.8c.5,3.1,1.4,6,3.3,8.6,3.4,4.6,7.1,8.8,14.2,6-1.9,7.7,2.2,11.1,8.1,13.3,.8,.8,2.5-.7,2.9,1.2-3,.8-5.9,1.6-8.9,2.3-1.6,.4-3.2,.2-4.6-.8-5.5-4.3-11.4-8.3-16.5-13.1-2.2-2.7-1.5-5.8-1.5-8.9,0-2.2,.4-4.4,.7-6.6,.2-1.1,.3-2.7,2.2-1.9Z"/>
      <path class="cls-28" d="M38.8,10.5c12.7-.3,25.4-1.2,38.2-.6-10.1,3.4-20.2,6.7-30.6,8.8-5.4,.7-8.8-3-7.6-8.2Z"/>
      <path class="cls-21" d="M25.2,41.8c-.9,0-1.3,.6-1.3,1.4-.3,5.3-1.3,10.6-.1,16-2.7-1.2-4-3.3-4.7-6.2-1.6-7.1-2.5-14.4-2.7-21.7,1.6-.9,3.3-1.7,4.8-2.8,1.7-1.2,3.3-1.6,5.2-.7-1.4,4.6-1.4,9.2-1.2,13.9Z"/>
      <path class="cls-34" d="M17.7,28.9c-.5,.3-1,.7-1.4,1-3.8,1.1-7.4,2.6-11.5,2.1-2.1-.2-2.7-.9-1.3-2.8,2.4-3.2,5.1-6,8.2-8.5,3.2,1.4,6.5,5.8,6.1,8.2Z"/>
      <path class="cls-4" d="M38,28.3c0-1,.8-2.2,1.1-2,1.3,1.2,3.2,1.9,3.4,4.1,.1,1.8-.5,3.7,.6,5.5,.8,2.9,1.5,3.1,4,.6,3.2-.6,4,2,5.5,3.9,0,.4,0,.8-.2,1.1-3.8,2.1-7.2,.3-10.6-1.3-1.4-.7-2.4-1.9-3.4-3-.3-1.2-1.1-2.3-1.2-3.6-.3-1.8,0-3.6,.7-5.3Z"/>
      <path class="cls-6" d="M18.5,11c.4,9,3.1,11.6,14.4,13.7-3.3,1.3-6.7,1.1-9.9,.4-6-1.2-8.1-4.8-6.8-11,.7-1,1-2.4,2.3-3.1Z"/>
      <path class="cls-11" d="M14.7,33.3c.4,6.6,1.5,13.3,2.6,20.6-7.4-6.5-7-13.4-2.6-20.6Z"/>
      <path class="cls-3" d="M11.8,35.8c-1.6,4.8-5.1,7.7-9.7,10.5,.4-4.3,1.7-7.9,3.6-11.3,1.4-1,3-1,4.6-1.2,1.3-.2,2.1,.4,1.5,1.9Z"/>
      <path class="cls-28" d="M56,69.6c-.1-1.9-1.4-1.6-2.7-1.4-2.1,.3-3.2-.1-2-2.5,1.5-3,1.2-6.5,3-9.4,.4,.6,1.2,1.3,1.1,1.8-.5,4,1.2,6.3,5.1,7.3,1.2,.3,.7,1.3,0,2-1.3,1.2-2.5,2.3-4.4,2.3Z"/>
      <path class="cls-25" d="M38.8,10.5c1.2,6.2,2.9,8.1,7.6,8.2-1.9,1.2-4,1-6.1,1.5-2,.5-2.8-1.1-3.6-2.5-1.2-1.9-2.3-4-1.5-6.3,.6-1.5,2.4-.7,3.6-.8Z"/>
      <path class="cls-29" d="M17.7,28.9c-.9-3.6-4.3-5.3-6.1-8.2,.5-.5,1.1-1,1.6-1.5,2,2.9,3.4,6.3,7.3,7.3-.7,1.4-1.7,2-2.9,2.4Z"/>
      <path class="cls-22" d="M59.8,47.1c-2-1.5-4.1-3-6.1-4.5-.4-.4-.3-.6,.2-.6,3.9-1,6.7,1.4,5.9,5.1Z"/>
      <path class="cls-15" d="M54,41.9c0,.2-.1,.4-.2,.6-4.5,.9-9,1.2-12.8-2.2,.1-.3,.4-.5,.7-.6,3.4,1.5,6.7,3.1,10.6,1.5,.3-.3,.5-.3,.8,0,.3,.2,.6,.5,.9,.7Z"/>
      <path class="cls-1" d="M74.7,20c-1.7,.2-3.4,.5-5.1,.7-1,0-1.7-.5-1.7-1.6,0-1,.9-1,1.6-1,2,.1,3.9,.3,5.9,.5,.4,.8-.3,1-.7,1.3Z"/>
      <path class="cls-13" d="M70.3,56.2c-.3-2.3-2.9-2.4-3.9-4.1,1.8-2,3.3-.7,4.7,.5,1.8,1.5,0,2.5-.8,3.6Z"/>
      <path class="cls-10" d="M52.3,40.3c-2-.8-2.7-3.4-5.1-3.7,.3-1.5,.7-2.9,2.5-1.2,.9,.8,1.7,1.7,2.6,2.6,.5,.8,.7,1.6,0,2.3Z"/>
      <path class="cls-7" d="M11.8,35.8c-.2-1.5-1.2-1.6-2.4-1.4-1.2,.2-2.4,.4-3.6,.6,1.4-2.8,4.2-1.6,6.4-1.9,.6,0,.4,1.8-.4,2.7Z"/>
      <path class="cls-26" d="M44.3,31.3c1.3,.5,2.4,1,1.6,2.5-.2,.3-.7,.8-.8,.7-1.2-.6-1.1-1.7-.8-3.2Z"/>
      <path class="cls-23" d="M52.3,40.3c0-.8,0-1.6,0-2.3,.8,1,4.1,1.3,.8,3.2-.3,0-.5,0-.8,0,0-.3,0-.6,0-.9Z"/>
      <path class="cls-14" d="M53.7,70.8c-.8-.8-2.2,0-2.9-1.2,1.8,0,3.5-.1,5.3-.2-.3,1.3-1.5,1-2.4,1.3Z"/>
      <path class="cls-18" d="M74.7,20c.2-.4,.5-.9,.7-1.3,.7-.1,1.5-.3,2.1,.3-.6,1.3-1.8,1.1-2.9,1.1Z"/>
      <path class="cls-32" d="M38.9,55.4c-1.2,.8-2.1,.5-3.3-.3-4.3-2.9-7-6.9-8.5-11.7-.6-2-1-4.5,2.7-3.7,.7,.6,1.6,.9,2.3,1.4,1.8,3.6,4.3,5.9,8.7,5.4,2-.3,2.3,1.3,2.5,2.9,.4,4.6,.5,4.7,5.1,3.6,2.9-.7,4.9-.7,3.8,3.2-2.9,1-5.5-.7-8.2-.9-.7,0-1.4,0-2.1,0-1-.1-2-.6-3,.2Z"/>
      <path class="cls-20" d="M43.9,55.2c3-1.6,5.5,.6,8.2,.9,.2,2.9-1.1,5.5-1.7,8.2-.5,2.6-1.8,2.8-3.9,1.3-2.2-1.5-2.7-3.7-2.7-6.1,0-1.5,0-2.9,0-4.4Z"/>
      <path class="cls-17" d="M36.4,32.9c-.4-3-1.9-4.2-5-3.1-1.1,.4-2.4,.1-3.7,.1,.6-4.2,4.2-2.2,6.4-3.1,2.6-1.1,3,.2,2.6,2.3,.7,1.3,1,2.6-.3,3.8Z"/>
      <path class="cls-33" d="M38,28.3c.6,1.8-.3,3.6-.1,5.4-.5,.1-.8,0-.9-.5,0-1.4-.3-2.8,.2-4.2,.3-.2,.5-.5,.8-.7Z"/>
      <path class="cls-35" d="M37.2,29.1c0,1.5,0,3,0,4.5,.4,.7,0,.8-.6,.7-.1-.5-.2-.9-.3-1.4,0-1.3,.2-2.5,.3-3.8,.2,0,.4,0,.6,0Z"/>
      <path class="cls-31" d="M32.1,41c-1.1,0-2.2,.1-2.3-1.4,1.1,0,1.8,.4,2.3,1.4Z"/>
      <path class="cls-8" d="M38.9,55.4c.9-1.4,1.9-1,3-.2-1,0-2,.2-3,.2Z"/>
      <path class="cls-5" d="M36.7,34.3c.2-.2,.4-.5,.6-.7,.2,0,.4,.1,.6,.2,.3,1.1,.6,2.1,.9,3.2,.3,.4,.3,.8,0,1.2-1.3-1-1.7-2.4-2-3.9Z"/>
      <path class="cls-24" d="M38.8,38.1c0-.4,0-.8,0-1.2,1,.9,1.9,1.9,2.9,2.8-.2,.2-.5,.4-.7,.6-1.2-.3-1.8-1.2-2.2-2.2Z"/>
      <path class="cls-19" d="M24.9,19.4c-2.6-.3-3.9-1.9-3.8-4.2,0-2.4,1.7-4,4.1-3.8,2.2,.2,4,1.6,3.8,4.2-.2,2.5-1.7,3.7-4.1,3.9Z"/>
    </g>
  </g>
</svg>