<?xml version="1.0" encoding="UTF-8"?>
<svg id="Capa_2" data-name="Capa 2" xmlns="http://www.w3.org/2000/svg" viewBox="0 0 77.5 74.6">
  <defs>
    <style>
      .cls-1 {
        fill: #413325;
      }

      .cls-2 {
        fill: #372813;
      }

      .cls-3 {
        fill: #cba40f;
      }

      .cls-4 {
        fill: #cba20a;
      }

      .cls-5 {
        fill: #e7bf05;
      }

      .cls-6 {
        fill: #efecec;
      }

      .cls-7 {
        fill: #919122;
      }

      .cls-8 {
        fill: #684e15;
      }

      .cls-9 {
        fill: #483a22;
      }

      .cls-10 {
        fill: #362011;
      }

      .cls-11 {
        fill: #c3a03b;
      }

      .cls-12 {
        fill: #b98068;
      }

      .cls-13 {
        fill: #312011;
      }

      .cls-14 {
        fill: #f5b73a;
      }

      .cls-15 {
        fill: #c6a627;
      }

      .cls-16 {
        fill: #422a0f;
      }

      .cls-17 {
        fill: #cda30d;
      }

      .cls-18 {
        fill: #d5b912;
      }

      .cls-19 {
        fill: #faf9f8;
      }

      .cls-20 {
        fill: #dfbd11;
      }

      .cls-21 {
        fill: #cca209;
      }

      .cls-22 {
        fill: #e8bf04;
      }

      .cls-23 {
        fill: #504117;
      }

      .cls-24 {
        fill: #e6be06;
      }

      .cls-25 {
        fill: #caa30f;
      }

      .cls-26 {
        fill: #e1be0e;
      }

      .cls-27 {
        fill: #251914;
      }

      .cls-28 {
        fill: #523a15;
      }
    </style>
  </defs>
  <g id="Capa_1-2" data-name="Capa 1">
    <path class="cls-27" d="M69.7,18.6c1.1-1.9,1.8-3.1,2.6-4.4,.5-.9,1.2-1.6,2.4-1.3,1,.3,1.3,1.1,1.4,2,1.3,12.2,2.4,24.4,.3,36.5-1,5.8-4.6,10.7-10.6,12.9-1.7,.6-2.1,2.1-2.8,3.3-3,5.4-7.1,7.9-13.5,6.5-4-.9-8.2,.1-12.3-.8-15.7-3.4-26.8-17.1-26.3-33.1,0-2-.3-3.2-2.2-4.1-2.2-1.1-4.2-2.7-6.4-3.9-2.8-1.6-3.1-3.4-.6-5.5,1.8-1.5,3-2.9,1.3-5.2-.6-.8-.5-2.1,.4-2.2,3.2-.2,2.6-2.5,3-4.5,.3-1.6,.5-3.8,3.2-2.7,1.6,.7,1.1-.8,1.4-1.4,.7-1.3,.4-3.6,2.6-3.6,2.2,0,1.8,2.4,2.3,3.8,2.1,6.2,5.6,11.7,8.7,17.3,.4,.8,.6,3.1,2.4,1.6,1.2-1,3.3-1.9,1.7-4.4-3.2-5.2-6.2-10.5-9.1-15.8-1.1-1.9-2.1-4-2.7-6.1-.8-2.8,.5-4,3.4-3.3,2.2,.5,4.1,1.7,6.1,2.8,5.5,3.2,10.7,6.9,15.8,10.7,5.4,4,13.3,3,17.5-2.1,1.1-1.4,2.2-2.7,3.4-4,.8-.9,1.7-2.1,3.1-1.7,1.4,.4,1.6,1.7,1.8,3,.5,2.9,1.1,5.9,1.8,9.7Z"/>
    <path class="cls-22" d="M22.8,4.2c7,3.7,13.4,8.3,19.7,13.1,4.2,3.2,15,1,18.2-3.2,1.3-1.6,2.7-3.2,4.3-5.2,1.9,5.7,1.9,11.3,2.6,16.7,.3,2.7,0,5.5,.6,8.2,1,4.6-1.5,7.2-4.9,9.5-4.4,2.7-4.9,7.2-5.3,11.7-.1,1.3-.5,2.7-1.7,3.5-2.7,.9-3.5-.7-3.8-3-.3-2.7,.5-5.5-.6-8.1-.3-.2-.6-.5-.9-.7-1.7-2-4.4-2.7-6.3-4.4-2.7-3.5-4.4-7.4-4.7-11.8,0,0-.1-.2-.2-.3-.2-.3-.4-.3-.5,0-.5,1.4-.6,2.9-.7,4.4-.1,3.1-.9,6.2-1.4,9.2-.5,2.9,.3,4.9,3.7,5.1,1.2,0,2.5,.5,3.6,.9,3.6,1.3,4.5,4.1,2.7,7.7-3.2-1.6-6.7-1.5-10.2-1.5-1.9,0-3.8,.1-5-1.8-.8-1.5-.2-3.4-1.4-4.8-.2-.3-.3-.7-.4-1-.2-.8,0-1.7,.4-2.4,1.1-1.6-.1-2.1-1.2-2.7-1.4-1.7-1.4-3.9-1.7-5.9-.2-2.1,1.2-3.3,2.6-4.7,3.6-3.5,3.7-4.3,1.4-8.6-3-5.5-6.3-10.9-9-16.6-.5-1-2-2.3,0-3.5Z"/>
    <path class="cls-5" d="M5.5,26.4c1.8-1.5,1-3.2-.3-5.3,3.1,.8,3.7-.3,3.3-2.7-.3-1.7-1-4.4,2.6-3.1,.2,0,.6,0,.7,0,3.8-5.5,3.6,.8,4.2,1.7,3.2,5.7,6,11.7,9.6,17.2,2.7,1.5,2.6,4.4,3.1,6.9,.6,3.2,1.3,6.3,1.7,9.5,.3,1.9,1.2,3.5,2.3,5.1,0,2-2.1,1.8-3.1,2.7-2.6,.5-2.8-1.7-3.4-3.2-1.4-3.5-2.6-7-4.1-10.4-3.5-7.8-10.1-12-18.1-14.4-1.4-.4-2.3-1-.6-2.3,.6-.7,1.7-.7,2-1.7Z"/>
    <path class="cls-12" d="M13.2,39c3.9,2.1,5.9,5.3,7.4,8.9,1.4,3.4,2.9,6.9,4.1,10.4,1.1,3,3,3.9,6.1,3.4,8.8-1.3,8.8-1.2,12.1,7.4,.8,2,.8,2.9-1.8,2.7-10.1-1-17.9-5.8-23.4-14.2-3.6-5.5-5.3-11.6-4.5-18.6Z"/>
    <path class="cls-26" d="M52,46.2c1.8,.2,1.5,1.6,1.5,2.8,0,2.2,.1,4.4,0,6.6-.1,2.2,1,2.8,2.9,2.6,1.3,1.7-.2,3.1-.2,4.5,1.1-3,1.2-6.5,2-9.9,2.5-.6,5.1-1,6.9-3.2,.6-.5,1.2-.8,1.9-.9,.6,0,1.1,.2,1.5,.6,1,6.8-3,9.1-9.8,9.5,5.5,2,7.1,1.2,11.3-4.3,.9-.1,1.8,0,2.4,.8-.4,1.3-1.1,2.3-2.2,3.1-.9,.3-1,1.4-1.7,2-1,1.4-2.3,2-4.1,1.7-1.7-.3-3.6-.5-5.4,.2,.6,2,2.3,.7,3.2,1.6-1.3,2.6-3,4.9-5.1,7-2,.8-3.8,.3-5.4-1.1-.7-1.4-1.6-2.7-1.8-4.3,0-1.3,1-2.2,1-3.5,.1-3.9,0-7.7,0-11.6,0-1.5-.1-3,1-4.3Z"/>
    <path class="cls-24" d="M72.4,55.2c-.9,0-1.8,.1-2.4-.8,.5-9.6-.3-19.2-.8-28.7-.1-2.1-.7-3.9,2.1-5,1-.4,1.4-2.5,2.6-3.8,.7,5.1,1.6,10,1.2,15.1-.2,3.7-.3,7.4,0,11.1-.3,4.2,.2,8.5-2.7,12Z"/>
    <path class="cls-21" d="M51.9,63.2c-.2,1-1.5,1.4-1.4,2.5-.3,1.5,1.2,2.3,1.3,3.6,1.7,.9,3.3,1.9,5.4,1.6-6.9,3.6-13.5-.1-14.1-8,1.5-.4,1.7,2.8,3.6,1.3,1-.8,.5-1.9,.6-2.9,.7-1.2-.3-2.5,.2-3.7,0-6-.4-6.4-6.6-7.6-4.4-.8-5.1-1.6-4.5-5.9,.7-5.1,1.5-10.2,2.2-15.3,0-.6,.3-1.2,1-1.5,1.2,.8,1.3,2,1.3,3.2,.5,1-.5,1.4-.8,2.1-.7,1-.5,2.2-.4,3.3,.3,2.2-.2,4.4-.6,6.6-.3,1.9-.8,4,1.7,5,1.5,.4,2.9,.9,4.5,.8,2,.2,4.4-.6,5.9,1.6,.4,2.1,.1,4.2,.2,6.3,0,2.1,0,4.1,0,6.2,.1,.3,.3,.7,.5,.9Z"/>
    <path class="cls-25" d="M4.1,30.5c.5-.9,1.2-.5,1.9-.3,10.1,3,16,9.8,19,19.7,.5,1.8,1.1,3.6,1.7,5.3,.5,1.4,.9,2.9,2.9,3,2.9-.8,5.8-1.3,8.7-1,1.3,.1,2.8-.3,3.3,1.6-3.7,.4-7.4,.6-11.1,1.2-2.2,.4-3.3-.2-3.9-2.3-.2-.7-.7-1.3-.9-2-2.8-11.5-10.2-19.1-20.4-24.3-.4-.2-.7-.6-1.1-.9Z"/>
    <path class="cls-3" d="M22.8,4.2c1.2,5.6,5,10,7.3,15.1,.3,.6,.7,1,1,1.6,4.3,9,5.8,7.7-1.7,14.2-.7,.6-.5,1.3-.6,2.1-2.2-.5-2-2.1-1.6-3.7,5.6-5.5,5.7-5.5,1.6-12.5-3.4-5.8-6.8-11.5-9.6-17.9,1.6-.5,2.6,.3,3.6,1.2Z"/>
    <path class="cls-2" d="M27.2,33.4c.5,1.2,1.1,2.5,1.6,3.7,.4,2,.8,4.1,1.3,6.1,2.1,1.5-.2,3.7,.9,5.4,0,.2,0,.4,0,.5,1.1,1.4,.7,3.2,1.4,4.8,2.5,1.8,5.5,1.1,8.2,1,2.8,0,5.1,.4,6.9,2.6q1.5,2.9,0,3.6c-3.4-3.5-7.6-4.2-12.2-3.7-1.1,.1-2.2-.1-2.9-1.2-2.2-1-2.5-3.1-3-5.1-1.3-5.6-1.1-11.5-3.9-16.7,.5-.3,1-.5,1.6-.8Z"/>
    <path class="cls-9" d="M59,52.2c-1,3.7-.9,7.7-2.7,12.2-1-2.7,.6-4.5,.1-6.2,.4-2.4,1.1-4.9,1.1-7.3,0-4.1,2.2-6.3,5.8-7.5,.4,.2,.9,.4,1.3,.6,1.6,2.8-.4,3.2-2.2,3.7,1.8,.8,2.9-1.4,4.5-1.5,.2,.5,.4,1,.5,1.6,1,.9-.2,1.1-.6,1.5-.5,.3-.9,.5-1.4,.8-1.9,1.5-4.8,.5-6.6,2.3Z"/>
    <path class="cls-20" d="M32.5,56.1c2.3,.2,4.7,.7,7,.4,4-.4,6.7,.8,8.1,4.6,1.3,1.5,2,2.7-.8,3-1.1-2.4-2.8-4.3-5.2-5.4-3-1.2-6-.7-9-.2-1.1,.2-2.1,.7-3-.4,0-2.1,2.1-1.1,2.9-2.1Z"/>
    <path class="cls-19" d="M67,46.1c-1.2,3.6-4.4,2.2-6.8,2.6-.4,0-.9-.4-.7-1.1,.3-.9,1-1.7,1.9-1.3,2.9,1.4,3.1-.4,3.3-2.5,.6-.5,1.5-1.6,2-1.2,.9,.8,.1,2.2,.3,3.4Z"/>
    <path class="cls-14" d="M75.1,43.1c-1-3.7-.9-7.4,0-11.1,.4,3.7,.3,7.4,0,11.1Z"/>
    <path class="cls-15" d="M67,49.1c.2-.5,.4-1,.6-1.5,.2-.6,.3-1.1,.6-1.9,.8,1.3,.5,2.4,.4,3.5-.5,0-1,0-1.5,0Z"/>
    <path class="cls-11" d="M5.5,26.4c.2,1.5-.8,1.8-2,1.7,.3-1,1.1-1.5,2-1.7Z"/>
    <path class="cls-7" d="M68.5,60.2c0-1.1,.2-2.1,1.7-2-.2,1-.7,1.7-1.7,2Z"/>
    <path class="cls-1" d="M50.6,49.9c-1.9-1.4-4.1-.2-6.1-.9-.7-.4-1.3-.8-.6-1.6,1.1-.9,2.6-.3,3.9-.9-2-2.7-6.5,1.8-7.7-2.9-.2,1.4,.8,2.4,.9,3.6,0,.7-.5,.9-1,1.1-3.2-1-2.4-3.6-2-5.8,.3-2.3,.9-4.5,.6-6.8,.6-.7-.2-1.8,.8-2.4,.5,.1,1,.4,1.1,.9,.1,3.6,2.6,5.7,4.8,8,2,1.3,4.5,1.6,6,3.7,0,1.4,1.3,3-.8,4Z"/>
    <path class="cls-17" d="M45.4,42.2c-4.3-1.3-5.2-5-6.1-8.7-.4-.5-.4-1.1,0-1.6l1.5-1.5c.6,4.3,2.5,8.1,4.6,11.8Z"/>
    <path class="cls-23" d="M50.6,49.9c1.2-1.1,.4-2.7,.8-4,.2,0,.4,.2,.6,.3,0,5.7,0,11.3-.1,17,0,0-.3,0-.3,0h-.3c-.8-2.1,.2-4.4-.6-6.5,0-2.3,0-4.6,0-6.9Z"/>
    <path class="cls-18" d="M31,48.6c-1-1.7-.6-3.6-.9-5.4,2.3-.2,3.1,.7,1.8,2.7-.6,.9-.8,1.7-.9,2.7Z"/>
    <path class="cls-18" d="M32.5,53.9c-1.2-1.4-1.6-3-1.4-4.8,2.7,.9,1,3.1,1.4,4.8Z"/>
    <path class="cls-4" d="M59,52.2c-.2-1.4,0-2.4,1.8-2.3,1.6,0,3.2,0,4.8,0-1.7,2.1-3.5,4.2-6.6,2.3Z"/>
    <path class="cls-8" d="M56.5,65.7c.1,2.1-.7,2.8-1.9,3.5-.7-1.8,.7-2.4,1.9-3.5Z"/>
    <path class="cls-28" d="M51.8,69.3c-1.1-1-2.6-1.8-1.3-3.6,.6,1.2,2,2,1.3,3.6Z"/>
    <path class="cls-13" d="M50.7,56.7c1.2,2.1,.3,4.3,.6,6.4-1.5-2-.5-4.3-.6-6.4Z"/>
    <path class="cls-16" d="M40.1,48.3c.3-.2,.6-.5,.9-.7,1-.7,2-.8,2.8,.2,.2,.4,.5,.8,.7,1.2-1.5-.2-3-.5-4.4-.7Z"/>
    <path class="cls-10" d="M39.3,31.9c0,.5,0,1.1,0,1.6,0,.8,.1,1.6-.6,2.1,0-1.3-1.2-2.8,.6-3.7Z"/>
    <path class="cls-6" d="M43.8,47.8c-.9,0-1.9-.2-2.8-.2-3.5-1.9-.9-4.7-1.7-7.1,2,.1,1.5,1.2,1.6,1.9,.3,2.3,.5,4.6,3.7,2.1,.9-.8,5.7,1.2,5.9,2.2,.1,1-.6,1.3-1.4,1.2-1.7,0-3.5,0-5.2-.1Z"/>
  </g>
</svg>