<?xml version="1.0" encoding="UTF-8"?>
<svg id="Capa_2" data-name="Capa 2" xmlns="http://www.w3.org/2000/svg" viewBox="0 0 295.5 241.9">
  <defs>
    <style>
      .cls-1 {
        fill: #b71a18;
      }

      .cls-2 {
        fill: #b52226;
      }

      .cls-3 {
        fill: #dac4c6;
      }

      .cls-4 {
        fill: #b72023;
      }

      .cls-5 {
        fill: #b62024;
      }

      .cls-6 {
        fill: #ab2326;
      }

      .cls-7 {
        fill: #b31e25;
      }

      .cls-8 {
        fill: #b61c1d;
      }

      .cls-9 {
        fill: #b02124;
      }

      .cls-10 {
        fill: #fae9ea;
      }

      .cls-11 {
        fill: #b32529;
      }

      .cls-12 {
        fill: #b12025;
      }

      .cls-13 {
        fill: #b52023;
      }

      .cls-14 {
        fill: #b32026;
      }

      .cls-15 {
        fill: #b81f22;
      }

      .cls-16 {
        fill: #ad2425;
      }

      .cls-17 {
        fill: #bd1a19;
      }

      .cls-18 {
        fill: #9d1b19;
      }

      .cls-19 {
        fill: #b32428;
      }

      .cls-20 {
        fill: #b34b4f;
      }

      .cls-21 {
        fill: #ad2d2f;
      }

      .cls-22 {
        fill: #af2225;
      }

      .cls-23 {
        fill: #b62226;
      }

      .cls-24 {
        fill: #ad272b;
      }

      .cls-25 {
        fill: #141413;
      }

      .cls-26 {
        fill: #9c1a17;
      }

      .cls-27 {
        fill: #9f1a19;
      }

      .cls-28 {
        fill: #0b572a;
      }

      .cls-29 {
        fill: #b52223;
      }

      .cls-30 {
        fill: #f2f8f4;
      }

      .cls-31 {
        fill: #c92021;
      }

      .cls-32 {
        fill: #efefef;
      }

      .cls-33 {
        fill: #b52529;
      }

      .cls-34 {
        fill: #b32024;
      }

      .cls-35 {
        fill: #205a2f;
      }

      .cls-36 {
        fill: #d02124;
      }

      .cls-37 {
        fill: #d02225;
      }

      .cls-38 {
        fill: #a35a5b;
      }

      .cls-39 {
        fill: #cd2328;
      }

      .cls-40 {
        fill: #9e1b17;
      }

      .cls-41 {
        fill: #b41f22;
      }

      .cls-42 {
        fill: #b4262b;
      }
    </style>
  </defs>
  <g id="Capa_1-2" data-name="Capa 1">
    <path class="cls-32" d="M226.3,43c1.4,1,2.9,2,2.9,4,1.9,4.1,2,8.5,2.3,12.8,.1,2.1,.7,4.1,1,6.2-.6,8.2,1.8,16.2,.9,24.4-.8,3.1-3,3.2-5.4,2.2-3.9-1.6-7.2-4-10.4-6.7-1.8-2.3-4.4-3.2-7-4.1-4.1-2.2-7.4-5.7-12.1-7.1-10.5-4.1-21.3-5.7-32.6-5.5-13.8,.2-27.5,.2-41.1,2.6-1.3,.4-2.7,.4-4.1,.5-8.6,.9-16.8,3.3-24.6,7.1-1.5,.7-3,1.3-4.4,2.1-1.6,.7-2.8,1.9-4.2,3-1.6,1-3.2,2-4.7,3.1-1.2,.9-2.2,2-3.3,2.9-1.6,1.2-2.5,2.9-4.1,4.1-3.4,2.3-6,5.5-8.9,8.3-.3,.3-.6,.6-.9,1-2,1.8-3.8,3.7-5.6,5.6-1.1,1.1-2.2,2.2-3,3.6-2,2.4-3.7,5.3-7.2,5.7-3.7-1.2-3.1-4.9-4.3-7.6-.7-3-1.3-6.1-2.1-9.1-.2-.5-.3-1.1-.3-1.7,0-8.1-1.4-16.2-1.2-24.4,.2-6.8,.3-13.6,1.4-20.4,.6-2,1-4,2.1-5.8,2.2-7.1,8.7-10.4,13.7-14.7,11.8-10.2,24.9-18.6,38.8-25.9C117.3-1,137.8-2.4,158.9,3.5c15.5,4.4,30.4,10.2,43.9,19.2,3.3,2.2,6.8,4.4,10.4,6.4,.7,1.4,2.1,2.3,2.5,3.8,3.5,3.4,6.7,7,10.6,10.1Z"/>
    <path class="cls-36" d="M75.1,93.9c1.2-1.4,2-3.1,3.8-3.9,1.5-.5,2.6-1.5,3.5-2.9,1.2-1.4,2.6-2.6,4.4-3.2,2-.4,3.2-2.2,5.1-2.9,1.1-.7,2.4-.9,3.2-2.1,7.8-4.5,16.2-6.9,25.2-7.6,2.2,.8,4.2,0,6.2-.7,14.5-1.5,29.1-2.2,43.7-2.1,8.9,0,17.4,1.8,25.7,4.7,1.4,.5,2.8,1.1,4.3,1.2,4.3,1.3,7.8,3.9,11.1,6.7,2.2,1.5,4.7,2.3,6.9,3.8,3.8,2.7,7.5,5.6,11.9,7.4,1.1,.5,1.4,0,2-.7,1.4-4.2,.7-8.4,.4-12.6-.3-4.3-.9-8.6-.7-12.9-.5-4.6-.8-9.2-1.7-13.7-.5-2.5,0-3.3,2.3-1.5,1.6,1,2.1,2.7,2.9,4.3,1.6,3.6,3.3,7.2,5.2,10.6,.2,.4,.3,.8,.5,1.2-.3,2.2,.3,4.1,1.6,5.8h0c.5,2.3,.1,4.9,1.9,6.8,.7,.7,.7,1.5,.6,2.4-.7,2.5,.3,4.9,.7,7.3-.2,2.3,1.1,4.4,1.1,6.6-.1,2.8,.2,5.5,1.6,8,.6,1.6,1.3,3.2,1.9,4.8,.8,.5,1.4,1.2,1.8,2-.8,2.8,1.8,1.3,2.6,2.1,2.4,1.8,7.6,1.6,4.7,6.9-.7,1.6-2.1,2.4-3.6,3.1-.8,.3-1.7,.4-2.5,.5-11.3,2.5-22.7,3.3-34.2,3.1-16.1-.3-32.2,.4-48.4-.8-16.3-1.1-32.5,.9-48.6,4-23.7,4.6-47.4,9.1-71.6,9.7-3.2,0-6.4,.1-9.2-1.6-1.6-1.2-1.5-3.2-2.2-4.8,2.1-5.6,6.7-9.4,10.2-13.9,.4-.3,.8-.5,1.1-.8,2.1-2.1,4.2-4.2,6.3-6.3,1-.8,1.9-1.7,2.9-2.6,1.8-2.2,4.4-3.8,5.7-6.6h0c4-2.3,6.5-6.2,10-9Z"/>
    <path class="cls-25" d="M52.5,143.1c-1.9,7.3-4,14.5,.7,23.1-2.1-1.3-2.9-1.8-3.7-2.3-3.7-2-5.6-1.1-6.1,3.1-.6,5,.4,9.9,1.7,14.8,2.4,8.7,6,16.9,12.1,23.8,2.2,2.4,4.5,5.1,8.5,3.6,1.5-.6,1.6,.3,1.8,1.4,2.4,13.4,11.4,20.9,23.3,25.6,1.2,.5,3,.6,3.6,2.6-9.4,1.1-18.7,2.1-28.7,3.2,2-3,3.6-5.3,5.5-8.1-8.3-2-16.2-4.1-24.3-5.8-3.8-.8-4.8-2.1-2.5-5.4,.6-.8,.8-1.8,1.3-2.7,1.8-2.6,.8-3.4-2-4.2-13.7-4.1-27.3-8.5-40.9-12.7-.8-.2-1.5-.6-2.9-1.1,8.6-13.6,17-27,26-41.2-5.4,.8-9.8,1.4-15,2.2,8-8.5,15.7-16.6,23.3-24.6,.5-1.2,.9-2.4,2.4-2.7,.8-.1,1.5,0,2.1,.5,2.3,3.3,6,3.8,9.5,4.7,1.6,.4,3.9-.2,4.3,2.4Z"/>
    <path class="cls-25" d="M256,121.9c.8-1.1,1.6-2.2,3.2-2.1,7.7,5.5,15.4,11,23.4,16.7-4.2,2.3-7.9,4.3-12.4,6.8,8.4,7.9,16.4,15.4,25.4,23.8-11.9,4-22.2,7.4-33.3,11.2,6.1,2.7,11.4,5.1,17.5,7.8-15.2,7.9-29.6,15.4-44.5,23.1,.4-4.6,.6-8.4,1-12.1,.5-4.9,1.1-9.2,6.7-12,5.9-3,7-9.8,7.9-15.9,1.1-7.9,1.2-15.9-.7-23.8-.6-2.5-1.1-5.7-4.1-6.3-3.2-.6-4.2,2.6-5.7,4.7-.5,.8-.9,1.6-2.2,3.8v-17.5c.4-2.5,2.6-2.6,4.4-3,2-.5,4.2-.7,6.1-1.6,2.6-.9,5.3-1.8,7.6-3.5Z"/>
    <path class="cls-1" d="M249.2,126.2c-3.2,2.9-8,1-11.2,3.9-1,0-1.9-.2-2.8-.2-7.4-.5-14.7,1-22.1,1.2-18,.2-35.9-.2-53.8-1.4-4.7-.3-9.6,.6-14.4,.9-.4,0-.7,0-1.1-.1,.5,.4,1.3,.2,1.8,.8-2.4,.8-4.8,.8-7.3,.7-2.7-.5-5.3,0-7.7,1.3-17.6,4.3-35.5,6.9-53.5,8.9-8.1,.9-16.2,1-24.4,1-3.1-1.9-7-.8-10.2-2.8-1.8-1.1-3.7-1.9-4.2-4.2,.7-.6,1.4-.6,2.1,0,6.4,3.7,13.4,2.2,19.9,1.7,15.8-1.4,31.5-3.9,47.1-6.7,9.9-1.8,19.8-4.1,29.8-5.3,13-1.6,26-2.8,39.1-.9,1.5,.2,3,.2,4.5,.2,8.2,0,16.3,0,24.5,0,16.4,.2,32.8,0,49.1-3-.2,3.1-3.4,2.6-5,4.1Z"/>
    <path class="cls-37" d="M40.2,136c-.7,0-1.4,0-2.1,0-.6,0-1.1,0-1.7,0-3.4,1.4-2.2-1.9-3.1-3-1.6-13.4-3-26.8-1.3-40.4,1.1,2.4,.8,4.9,.2,7.4,.1,0,.2,0,.5,0,0-2.7,0-5.3,0-7.9-.6-4.4,1.5-8.7,.7-13.2,.4-3.8,1-7.6,2.7-11.1,1.4-1.3,1.5-3.1,1.4-4.8,.7-2,1.3-4,2-5.9,1.2-.5,1.8-2,4-2.4-.2,5.8-1.2,11.4-.9,17.1-.6,2.9-.6,5.9,0,8.8,0,7.1,.4,14.2,1.6,21.2h0c1.1,2.9-.3,6.3,2,8.9,1.7,2.3,.6,6,3.9,7.4,0,.3,0,.5-.1,.8-4.2,4.2-8.8,8.1-10.8,13.9,1.1,.8,2.8,1.3,1,3Z"/>
    <path class="cls-18" d="M145.4,131.2c-1.7-.5-3.6,.4-5.6-.9,24.7-2.9,49,1,73.3-.2,.3,.7,0,1.2-.7,1.4-10.6-.1-21.2,.5-31.8-.4-11.7,0-23.5,0-35.2,0Z"/>
    <path class="cls-22" d="M42.2,72.1c.4-5.3-.8-10.6,1.1-15.9-1.6-.3-2,2.6-3.7,1.1,.2-2.1,1.9-3.4,2.9-5,2.3,0,2.5,1.2,1.9,3-2,15.6-.8,31.2-.1,46.8-3-7.1-1.7-14.6-2.1-22-.7-2.6-.7-5.3,0-7.9Z"/>
    <path class="cls-1" d="M180.6,131.1c10.8,0,21.7-.2,32.5-.3,1.4-.3,2.9-.7,4.2,.4-12.3,1.2-24.5,1.1-36.8,0Z"/>
    <path class="cls-19" d="M232.3,51c-1.3-.3-1.9-.7-1.6,1.4,.7,4.5,1.9,9,1.4,13.6-.3,.5-.6,.4-1,0-1-6.3-2.2-12.6-2-19,1.7,.8,2.9,2,3.1,4Z"/>
    <path class="cls-26" d="M217.4,131.2c-1.4-.1-2.8-.2-4.2-.4,0-.2,0-.5,0-.7,5.7-.3,11.5-.7,17.2-1,1.6,0,3.3-.5,4.7,.7-5.9,1-11.7,1.7-17.7,1.4Z"/>
    <path class="cls-10" d="M226.3,43c-.4,.6-1.1,1-1.6,.5-3.2-3.5-6.3-7-9.5-10.6,.4-.4,.7-.3,.9,.1,4,2.6,7.9,5.4,10.1,10Z"/>
    <path class="cls-12" d="M33.5,79.1c2.2,4.4-.7,8.6-.3,13-.4,.5-.7,.4-1.1,0-.4-4.4,.4-8.7,1.3-13Z"/>
    <path class="cls-21" d="M240.3,65.9c-2.9-3-4.5-6.6-5.2-10.6,2.7,3.1,4.1,6.8,5.2,10.6Z"/>
    <path class="cls-2" d="M246.2,96.1c-.6-2.3-1.3-4.6-1.1-7-.6-1.4-.8-2.8,.1-4.2,1.2,3.6,1.6,7.4,1.8,11.1-.3,.5-.6,.4-.9,0Z"/>
    <path class="cls-40" d="M130.4,133.1c-.4-.2-1.5-.8-1.1-.8,2.9-.5,5.8-2.5,8.8-.5-2.6,.4-5.2,.9-7.7,1.3Z"/>
    <path class="cls-9" d="M246.2,96.1c.3,0,.6,0,.9,0,.4,2.6,.8,5.3,1.2,7.9-2.8-2.1-1.9-5.1-2-7.9Z"/>
    <path class="cls-41" d="M32.2,92c.4,0,.7,0,1.1,0,0,2.9,0,5.8,0,8.7-.2,0-.5,0-.7,0-.1-2.7-.3-5.4-.4-8.1-.2-.3-.2-.5,0-.7Z"/>
    <path class="cls-34" d="M244.3,79.7c-2.9-1.7-2.1-4.3-1.9-6.9,1.3,2.1,1.9,4.4,1.9,6.9Z"/>
    <path class="cls-39" d="M254.5,112.9c-2.3-.5-1,2.4-2.6,2.7-1.4-1.3-.5-3.1-.8-4.6,1.3-.6,2,.6,3,1,.2,.2,.4,.5,.4,.9Z"/>
    <path class="cls-20" d="M44.4,55.2c-.3-1.2-.7-2.4-1.9-3,.3-1.6,1.8-1.6,2.8-2.3,.2,1.8,0,3.6-.9,5.3Z"/>
    <path class="cls-13" d="M37.6,63.2c.9,2,1.2,3.9-1.4,4.8-.1-1.8,.6-3.3,1.4-4.8Z"/>
    <path class="cls-15" d="M242.5,72.9c-2.3-1.4-3-3.3-1.6-5.8,1,1.8,1.8,3.6,1.6,5.8Z"/>
    <path class="cls-5" d="M245.2,84.9c0,1.4,0,2.8-.1,4.2-1.5-2.3-1.3-4.6-.2-7,.1,.9,.2,1.9,.3,2.8Z"/>
    <path class="cls-38" d="M33.3,133.1c1,1,1,3.2,3.1,3-.7,.7-1.5,1.4-2.2,2.1-.9-1.6-1.2-3.3-.9-5.1Z"/>
    <path class="cls-29" d="M254.1,112c-1-.3-2-.7-3-1-.4-.8-.7-1.5-1.1-2.3,2.1,.2,3.2,1.5,4.1,3.3Z"/>
    <path class="cls-3" d="M216.1,33.1c-.3,0-.6,0-.9-.1-.6-1.3-2.2-2.1-2-3.8,1.5,.9,3,1.8,2.9,3.9Z"/>
    <path class="cls-28" d="M151.2,50.2c1.2,0,2.5-.2,3.7-.2,1.9-1.2,4.1-1.1,6.2-1.7,1.3-.2,2.7-.1,4-.1,1.1,0,2.2,.1,3.1,.8,2.1-.7,2,1.4,3,2.3-.7,3.2-3.6,.4-5,1.8-1.9,0-3.8,.2-5.7,.2-3,1-6.3-.3-9.3,.8-1.8,0-3.7,.1-5.5,.2-3.1,1-6.4-.3-9.5,.8-10.9,.9-21.8,1.7-34.2,2.7,2.6-2.8,4.1-4.6,5.8-6.3,9.7-10.1,19.1-20.4,29.8-29.4,2.3-1.9,4.6-4.4,7.9-2.5,3.6,2,6.7,4.8,7.8,9,.3,1,.3,2-.7,2.7-1.3,1-2.8,.5-3.7-.4-3.3-3.4-5.2-1.7-7.8,1.1-4.3,4.6-9.6,8.2-13.6,13.1-1,1.2-2.8,2.6-2.1,4.3,.8,1.9,3.1,1.6,4.9,1.7,4.5,0,9,0,13.4,0,2.4-.9,5,.2,7.3-.8Z"/>
    <path class="cls-11" d="M200.1,74.4c-1.5,1.3-2.8,0-4.1-.5-8-2.9-16.1-4.8-24.7-5-15.5-.5-30.8,1.2-46.2,2.2-.5,.3-.8,.2-1.1-.3,21.6-3.4,43.3-5.4,65-.6,3.9,.8,7.7,2,11.1,4.2Z"/>
    <path class="cls-42" d="M231.1,66.1c.3,0,.6,0,1,0,.4,8.5,1.6,17.1,1,25.7,0,.1-.2,.3-.3,.3-.3,0-.5-.2-.8-.3-.3-8.6-.6-17.1-.8-25.7Z"/>
    <path class="cls-30" d="M168.2,48.9c-1.1,.2-2.3,.5-3.3-.3-2.1,0-4.1,0-6,1-1.2,0-2.3,.3-3.4-.3-1.1-.2-2.2-.3-4.7-.7,5.6-.8,9.6-1.9,13.9-1.5,1.4,.1,3.1-.3,3.5,1.8Z"/>
    <path class="cls-4" d="M75.1,93.9c-2.8,3.6-5.3,7.6-10,9,3-3.4,5.6-7.2,10-9Z"/>
    <path class="cls-33" d="M46.3,110.9q-2.2-1.7-2-8.9c1.5,2.8,1.7,5.9,2,8.9Z"/>
    <path class="cls-23" d="M65.1,102.9c-.4,3.6-3.5,5.1-5.8,7.2-.3-.2-.5-.4-.4-.7,0-.2,.2-.4,.3-.4,1.6-2.4,3.4-4.6,5.9-6.2Z"/>
    <path class="cls-7" d="M218.1,85c-2.7-.6-5.2-1.5-6.9-3.8,3,0,5.1,1.7,6.9,3.8Z"/>
    <path class="cls-35" d="M151.2,54c3-1.7,6.2-.7,9.3-.8-3,.9-6.2,.9-9.3,.8Z"/>
    <path class="cls-35" d="M136.2,55c3-1.8,6.3-.7,9.5-.8-3.1,1-6.3,1-9.5,.8Z"/>
    <path class="cls-35" d="M151.2,50.2c-2.3,1.7-4.9,.7-7.3,.8,2.4-.8,4.9-.9,7.3-.8Z"/>
    <path class="cls-35" d="M166.2,53c1.2-1.7,3.8,0,5-1.8,1.4,.6,1.3,1.4,0,1.7-1.6,.3-3.2,.1-4.9,.2Z"/>
    <path class="cls-16" d="M92.1,81.1c-1.5,1.4-2.9,3-5.3,2.8,1.2-1.4,2.6-2.4,4.3-2.9,.4-.3,.7-.3,1,.1Z"/>
    <path class="cls-35" d="M155.4,49.3c1.3-.1,2.5-.2,3.8-.4,.7-.3,1.4-.4,1.9,.3-1.9,1.6-4.2,.7-6.3,.8,.2-.2,.4-.4,.6-.7Z"/>
    <path class="cls-6" d="M82.4,87.1c0,2.3-1.6,2.8-3.5,2.9,.8-1.4,2.1-2.2,3.5-2.9Z"/>
    <path class="cls-14" d="M59.2,109.1c0,.3,0,.7,0,1-.6,1.1-1.4,1.9-2.7,2,.4-1.4,1.5-2.3,2.7-3Z"/>
    <path class="cls-8" d="M124,70.9c.4,0,.7,.2,1.1,.3-1.6,1.5-3.2,1.2-4.8,.1,1.2-.1,2.5-.3,3.7-.4Z"/>
    <path class="cls-24" d="M92.1,81.1c-.3,0-.7,0-1-.1,1.1-1.2,2.4-1.9,4-2.1-.3,1.7-1.5,2.1-3,2.2Z"/>
    <path class="cls-17" d="M39.2,133c-.8,.2-2.6,.8-1.4-.8,3.5-4.8,6.6-10.2,12.3-13-3.6,4.6-7.2,9.3-10.8,13.9Z"/>
    <path class="cls-27" d="M249.2,126.2c1.7-1.4,3.3-2.8,5-4.1,.6,0,1.2,0,1.8-.1-1.3,3-3.8,4-6.8,4.3Z"/>
    <path class="cls-31" d="M42.2,72.1c0,2.6,0,5.3,0,7.9-1.5-2.6-1.5-5.3,0-7.9Z"/>
    <path class="cls-32" d="M161.2,49.2c-.6-.1-1.3-.2-1.9-.3,1.8-1.3,3.7-1,5.6-.4-1.2,.2-2.5,.5-3.7,.7Z"/>
  </g>
</svg>