<?xml version="1.0" encoding="UTF-8"?>
<svg id="Capa_2" data-name="Capa 2" xmlns="http://www.w3.org/2000/svg" viewBox="0 0 84 77">
  <defs>
    <style>
      .cls-1 {
        fill: #b1b0a8;
      }

      .cls-2 {
        fill: #b3b3b0;
      }

      .cls-3 {
        fill: #1e2726;
      }

      .cls-4 {
        fill: #dbdbdb;
      }

      .cls-5 {
        fill: #020303;
      }

      .cls-6 {
        fill: #aeaea8;
      }

      .cls-7 {
        fill: #654a23;
      }

      .cls-8 {
        fill: #989898;
      }

      .cls-9 {
        fill: #558294;
      }

      .cls-10 {
        fill: #ebeaeb;
      }

      .cls-11 {
        fill: #6298b8;
      }

      .cls-12 {
        fill: #0d0d0c;
      }

      .cls-13 {
        fill: #0d1e2a;
      }

      .cls-14 {
        fill: #8d8d8d;
      }

      .cls-15 {
        fill: #483b1f;
      }

      .cls-16 {
        fill: #649dc6;
      }

      .cls-17 {
        fill: #cdcbc7;
      }

      .cls-18 {
        fill: #09090b;
      }

      .cls-19 {
        fill: #132a3c;
      }

      .cls-20 {
        fill: #142b3e;
      }

      .cls-21 {
        fill: #b8b584;
      }

      .cls-22 {
        fill: #afaba8;
      }

      .cls-23 {
        fill: #dad8d6;
      }

      .cls-24 {
        fill: #cfcdc7;
      }

      .cls-25 {
        fill: #5483a4;
      }

      .cls-26 {
        fill: #939396;
      }

      .cls-27 {
        fill: #6099b7;
      }

      .cls-28 {
        fill: #dfded8;
      }

      .cls-29 {
        fill: #322f2e;
      }

      .cls-30 {
        fill: #5a95b7;
      }

      .cls-31 {
        fill: #242925;
      }

      .cls-32 {
        fill: #bbb9b7;
      }

      .cls-33 {
        fill: #ccc8c4;
      }

      .cls-34 {
        fill: #d6d39f;
      }

      .cls-35 {
        fill: #639cbe;
      }

      .cls-36 {
        fill: #bfbbb6;
      }

      .cls-37 {
        fill: #010509;
      }

      .cls-38 {
        fill: #c8c7c2;
      }

      .cls-39 {
        fill: #629cc3;
      }

      .cls-40 {
        fill: #191a19;
      }

      .cls-41 {
        fill: #6499b7;
      }

      .cls-42 {
        fill: #0f1c2b;
      }

      .cls-43 {
        fill: #fcfcfc;
      }
    </style>
  </defs>
  <g id="Capa_1-2" data-name="Capa 1">
    <path class="cls-5" d="M31.6,77c-11.3-.4-20.9-3.6-28-12.1-4.1-4.9-4.7-10.4-1.6-16,2.1-3.9,2-7.8,.4-11.4-1.8-4.1-1.1-7.2,1.8-10.1,1.4-1.4,1.8-3.1,2.1-5,.6-4.2-.1-9.2,5.4-11.3,.6-.2,.5-2.1,1-3C14.7,3.6,25.5-1.1,30.3,.2c2.3,.7,2.7,2.7,3.4,4.5,2.4,6.3,2.4,6.3,9,6.4,5.3,0,10.4,1.3,15,3.9,1.9,1.1,2.8,1.3,3.5-1.3,1.5-5.2,2.7-5.9,8.1-5.4,4.4,.4,8.5,1.9,12,4.7,2.7,2.1,3.6,4.6,1.6,7.8-1.3,2.1-2.3,4.4-3.6,6.5-3.1,5.4-5,10.8-5,17.4,0,16.4-13.5,29.5-31,31.1-4.1,.4-8.2,.8-11.8,1.1Z"/>
    <path class="cls-16" d="M6.3,28.7c1-1,1.9-2.1,2.9-3.1,3.8-4.5,8.7-7,14.3-8.1,2.2-.5,4.4-.9,6.6-1.4,1.3-.3,.5,2.9,2.5,1.4,.5,0,.9,0,1.4,0,1.6-1.3,3.8,1.8,5.3-.7,3.3-.2,6.3,.5,9.1,2.2,.8,1.7,2.2,2,4,2,5.7,.1,6,.5,6,6.3,0,2.1-.7,4-1.1,6.1-.7,3.5-.4,3.7,3.2,2.9,2.2-.4,3.7,.9,5.1,2.3,.3,1,.6,2,.9,3-.3,4.9-1.1,9.6-5.2,13-.7,.3-1.5,.1-2.2,0-2.3-.3-4.1-.3-3.9,3,0,1.8-1.2,3.3-2.4,4.5-4.3,4.2-9,7.5-15.4,7.5-4-.1-8,.3-12-.3-.4-.1-.8-.4-1.1-.6-.8-1.3-.8-2.7-.6-4.1,.1-.7,.6-1.3,1-1.8-.6,.3-1,.7-1.5,1.1-.5,.3-1.1,.5-1.7,.5-1-.6-2.1-.9-3.3-.8-2.7-.7-6-.2-7.7-3.2,1.2,1.8,1.2,1.8,3.2,2.4,1.1,.3,2.2,.5,2.4,1.9,0,.9-.1,1.7-.9,2.2-2.3,1-4.4,.7-6.6-.4-6.9-5.4-8.1-11.4-3.4-17.7,1.7,1.7,3.5,3.2,5.7,4,2,.7,3.4,.3,2.9-2.4-.5-2.3-.6-4.6-1-7-1.2,1.3-.3,2.9-1.1,4.6-2.6-3.8-5.3-7.2-7-11.3-.2-1.5-1.7-2.9-.7-4.6,.2-.3,.4-.6,.6-.9,1-.4,1.1-1.5,1.7-2.2Z"/>
    <path class="cls-21" d="M61.8,61.7c-12.9,12.6-30.6,16.4-45.7,9.7-2.1-.9-4.3-1.9-5.9-3.7,4.6-2,9-.5,13.3,1.2,8.4,1.3,16.7,1.7,24.3-3.2,2.2-1.4,3.9-3.4,5.8-5.1,2.6-1.2,3.2-4.8,6.4-5.2,2.8,1.5,2.8,3.8,1.8,6.3Z"/>
    <path class="cls-28" d="M69.4,48.2c0-4.3-.8-8.4-2.8-12.2-1.7-3.3-.1-6.8-.8-10.4,3.9,2.8,6.8,10.5,6.4,17.3-.9,1.8,.2,4.6-2.8,5.2Z"/>
    <path class="cls-39" d="M8.5,23.5c1.1-12.3,2.1-10.2,11.8-8,.8,.2,2,.2,2.5,1.2-3.9,2.9-8.7,4.3-12.5,7.4-.5,.4-1.7,1-1.8-.6Z"/>
    <path class="cls-3" d="M54.2,60.9c-8.4,9.3-18.8,11.3-30.6,8.9,0-.8,.5-1,1.2-1,4.4,0,8.9,.3,13.3-.3,6.4-.7,11.2-3.8,15.1-8.8,1.7-2.2,1.3-4.3,0-7.2,2.7,1.5,5.6-.4,7.8,1.8,.5,0,.9,.1,1.2,.5,.5,.8,.9,1.6,1.4,2.4,.1,.3,.3,.5,.5,.8-.2,1.6-1.4,2.5-2.3,3.6,0-2.3-.2-4.5-2.1-6.1-1.7-.7-2.5,.1-3,1.7-.5,1.4-1.1,2.8-2.4,3.6Z"/>
    <path class="cls-2" d="M73.8,19.6c2.1,.2,4.1,.5,6.6,.8-2.4,4.5-4.6,8.8-7,13.3-1.5-1.7-2-3.7-2.7-5.6,0-3.2,.4-6.3,3.1-8.5Z"/>
    <path class="cls-24" d="M73.8,19.6c-1,2.8-2.1,5.7-3.1,8.5-3.2-3.2-4.4-7.8-7.6-11-.4-.4,.2-1.8,.4-3.2,3.3,2.5,6.7,4.3,10.4,5.7Z"/>
    <path class="cls-17" d="M30.2,6.2c3,.6,2.2,3.4,3,5.2,.8,1.7-1.2,1.3-2.1,1.8-4.3,2.4-8.5,1.6-12.6-.7,1-.4,2.2-.8,3.3-1.2,2.3-2.5,5.3-3.7,8.2-5.1Z"/>
    <path class="cls-33" d="M77.6,14.6c2.4-.7,3.8,1.1,3.8,2.8,0,2.3-2.4,1.6-3.8,1.5-4-.3-7.6-1.8-10.9-4.2-1.1-.8-2.6-1.5-1.9-3.2,.6-1.4,2.2-.8,3.3-.9,.9,0,1.7,.1,2.6,.2,.2,.8-.8,1.2-.7,1.9,2.3,1.8,4.4,4.1,7.6,1.8Z"/>
    <path class="cls-35" d="M57.4,28.2c0-.5-.2-1,0-1.5,.7-3.9-1-5.3-4.8-4.8-2.1,.3-4.7,.6-4.2-3,3,1.3,6,.9,9,.4,2-.3,4.4-1.4,5.9,1.2,.3,.6,0,1-.4,1.4-2.4,1.6-2.7,5-5.5,6.3Z"/>
    <path class="cls-32" d="M69.4,48.2c1.5-1.4,1.7-3.6,2.8-5.2,.3,10.6-4.1,18.7-12.6,24.8-.4,.3-.8,.3-1.1-.1,5.9-5.2,10.3-11.3,10.9-19.4Z"/>
    <path class="cls-25" d="M64.1,58.1c-.3,0-.5,0-.8,0-.6-1-.3-2.5-1.8-3-.2-.2-.4-.4-.5-.6,3-3.8,3.6-8.7,5.4-13,2.1,6,.8,11.4-2.3,16.6Z"/>
    <path class="cls-38" d="M23.3,3.9c1.5-.9,3.1-1.4,4.8-1.4,2.4,0,2.8,1.1,1.5,3-2,3.1-4.9,4.6-8.5,5.1-.2,0-.5,0-.7,.1-1.9,.3-4.5,1.7-5.4-.3-.8-1.8,1.8-3.1,3.4-4.2,.3-.3,.6-.3,.9,0,.4,3,2.3,1.4,3.5,.9,.7-.3,3.7-.3,1.2-2.4-.3-.2-.5-.4-.7-.7Z"/>
    <path class="cls-23" d="M36.3,13.8c7-.7,13.8-.4,20.4,3.2-3.2,1.4-6,.8-8.8-.7-3.6-1.9-7.6-2.1-11.6-1.9-.2-.2-.2-.3-.2-.5,0-.1,.1-.2,.2-.2Z"/>
    <path class="cls-12" d="M77.6,14.6c.4,.7,1.3,1.4,0,2-2.3,1.1-8.3-1.9-9.1-4.5,1.4-.5,2.7-.4,4.1-.3,1.5,.9,3.3,1,4.9,1.8,0,.3,0,.6,0,.9Z"/>
    <path class="cls-19" d="M8.5,23.5c1.3,1.4,1.9-.3,2.6-.7,3.7-2.3,7.4-4.7,11.7-6.1,.3,.3,.5,.5,.8,.8-5,2.3-9.8,5-14.3,8.1-.3-.7-2-.9-.8-2.1Z"/>
    <path class="cls-31" d="M24.6,69c-.3,.3-.7,.5-1,.8-4.4-1.4-8.7-2.9-13.4-2.1-.8-.3-1.3-.8-1.6-1.5,2.2,0,4.5-.1,6.7-.2,3.4-.8,6.3,.5,9,2.4h0c.3,.1,.3,.3,.3,.6Z"/>
    <path class="cls-30" d="M62.7,21.2c.2-.2,.4-.4,.6-.7,1.4,2.5,.7,5.3,.7,7.9,0,3.4-.2,6.8,1.5,10-1.9,.2-3-2.2-5-1.5,3.1-4.9,1-10.6,2.2-15.8Z"/>
    <path class="cls-29" d="M21.1,10.6c3-1.4,6.1-2.7,8.5-5.1,.2,.2,.4,.5,.7,.7-2.1,2.7-5,4.1-8.2,5.1-.3-.3-.6-.5-.9-.8Z"/>
    <path class="cls-27" d="M39.3,16.6c.1,2-.8,2.9-2.6,1.8-.9-.5-1.7-1-2.7-1,1.7-.9,3.4-.9,5.3-.7Z"/>
    <path class="cls-42" d="M32.6,17.5c-.7,1.5-2,1.8-3.2,2.1-1.1-1.7,3-1.6,.7-3.5,1.1,0,2.7-.9,2.5,1.4Z"/>
    <path class="cls-10" d="M7.3,48.1c-.7-1.7-2.1-3.3-.6-6.3,.3,2.8,.5,4.5,.6,6.3Z"/>
    <path class="cls-8" d="M58.5,67.6c.4,0,.7,0,1.1,.1-1.1,1.1-2.4,2-4.4,1.9,1.1-.7,2.2-1.3,3.2-2Z"/>
    <path class="cls-36" d="M72.8,12.3c-1.4,0-2.9-.1-4.3-.2,.7-.4,1.5-.8,2.2-1.2,1,.7,2.5,0,3.3,1.2-.3,.4-.7,.5-1.2,.2Z"/>
    <path class="cls-15" d="M9.5,48.4c.7,.8,1.3,1.6,2.2,2.7-1.7,0-2.3-.9-2.2-2.7Z"/>
    <path class="cls-22" d="M72.8,12.3c.4,0,.8-.1,1.2-.2,1.4,0,2.6,.5,3.5,1.6-1.9,.6-3.2-.7-4.7-1.4Z"/>
    <path class="cls-11" d="M4.1,31.8c.2,1.5,.5,3.1,.7,4.6-.6-1.5-2.3-2.8-.7-4.6Z"/>
    <path class="cls-1" d="M19.2,6.3c-.3,0-.6,0-.9,0,1-.7,2-1.4,3-2.1,.5,.4,.5,.9,.2,1.5-.6,.8-1.3,1.3-2.3,.6Z"/>
    <path class="cls-11" d="M6.3,28.7c0,1.2,0,2.3-1.7,2.2,.3-.9,.8-1.7,1.7-2.2Z"/>
    <path class="cls-14" d="M36.3,13.8c0,.2,0,.5,0,.7-.5,.5-1.4,1.2-1.7,.2-.2-.7,.9-1,1.7-.9Z"/>
    <path class="cls-6" d="M21.3,5.3c0-.4,0-.8,0-1.2,.7,0,1.3-.2,2-.3,.4,0,.7,0,1.1,.1-.4,1.9-1.6,1.9-3,1.3Z"/>
    <path class="cls-18" d="M23.4,44.5c1.8,2.6,.3,4.6,1.4,6.6,7.6-4.5,15-8.9,24-11.3-2.2,2.5-2.9,7.9-.8,9.2,2.2,1.4,1,1.4-.1,1.9-7.1,3.1-14.7,3.1-22.2,2.6-1.6,0-2-1.4-2.2-2.6-.2-1.8,0-3.6,0-6.3Z"/>
    <path class="cls-37" d="M62.7,21.2c1,4.1,.4,8.3,.6,12.4,.1,2.2-2,2.2-2.9,3.4-1.5,.3-2.8,2.5-4.2,1-1.2-1.1-.5-3-.2-4.6,.4-1.8,.9-3.5,1.4-5.3,2-2.1,2-5.8,5.3-7Z"/>
    <path class="cls-41" d="M24.3,68.4c-3-.8-6-1.6-9-2.4,0-.8,0-1.6,0-2.4,.8-.6,1.7-.5,2.6-.4,2,1,4.1,1.3,6.3,.6,0,1.5,0,3,0,4.5Z"/>
    <path class="cls-20" d="M18.4,63.7c-1,0-2,0-3,0-3.8-.3-6.2-2-6.4-6.3,1.9,3.8,5.2,5,9.1,5.1,.3,0,.5,.2,.6,.4,0,.3,0,.5-.3,.7Z"/>
    <path class="cls-13" d="M18.4,63.7v-.2c1.1-1.5,2,0,3,.3,1.2-.8,2.3-1.7,3.5-2.5,.7-.5,1.7-1,2.2-.2,.6,1.1-.8,1.2-1.3,1.7-.4,.4-.9,.7-1.4,1-2,1.6-4,1.9-5.9-.2Z"/>
    <path class="cls-41" d="M24.6,69c0-.2-.2-.4-.3-.6,4.6,0,9.2,0,13.8,.1-4.5,1.5-9,1-13.5,.5Z"/>
    <path class="cls-41" d="M21.3,63.8c-1,.2-1.9-.9-3-.3,0-.3-.2-.6-.3-.9,1.2,0,2.8-.8,3.3,1.2Z"/>
    <path class="cls-34" d="M54.2,60.9c.6-1.5,1.4-2.8,1.6-4.5,.5-3.2,2-2.9,3.8-.8-2,1.5-2.8,4.3-5.5,5.3Z"/>
    <path class="cls-9" d="M61.5,55c2.3,0,1.7,1.7,1.8,3-1.2-.6-1.3-1.9-1.8-3Z"/>
    <path class="cls-40" d="M21.3,5.3c1.1-.3,2.2-.5,3-1.3,.8,.1,1.9-.5,2.3,.5,.5,1.1-.5,1.8-1.4,2.3-1.4,.7-2.9,1.4-4.3,2-1,.4-2.3,1-3,0-.7-1.1,1-1.5,1.2-2.4,.9,.2,1.4-.6,2.1-1Z"/>
    <path class="cls-43" d="M26.7,51.9c1.7-1.1,2.5-1.7,3.4-2.3q4.4-2.6,6.7,2.3h-10.2Z"/>
    <path class="cls-7" d="M37.6,45.7c1.5,0,.8,1.2,.9,1.8,.3,1.1,.6,2.4,1.9,2.3,1,0,1.7-1,1.6-2.1,0-.6,0-1,.7-1,.3,0,.8,.3,.8,.5,.3,1.6-.5,2.9-1.8,3.8-2,1.4-3.3,.1-4.3-1.4-.7-1.1-1.9-2.2-.6-3.6,.2-.2,.4-.2,.7-.4Z"/>
    <path class="cls-26" d="M45.7,44.8c.4,1.8,1.5,3.6,.2,5.4-.1,.2-1,.2-1,.1-.7-2,.2-3.7,.8-5.5Z"/>
    <path class="cls-4" d="M43.8,44.2c0,.8-.4,1.1-1.1,1.1-.6,0-1.2-.4-1.2-1.1,0-.7,.6-1,1.2-1.1,.8-.1,.9,.5,1,1.1Z"/>
  </g>
</svg>