<?xml version="1.0" encoding="UTF-8"?>
<svg id="Capa_2" data-name="Capa 2" xmlns="http://www.w3.org/2000/svg" viewBox="0 0 81.9 74.7">
  <defs>
    <style>
      .cls-1 {
        fill: #bb4618;
      }

      .cls-2 {
        fill: #de5916;
      }

      .cls-3 {
        fill: #483019;
      }

      .cls-4 {
        fill: #0d6fb2;
      }

      .cls-5 {
        fill: #e95910;
      }

      .cls-6 {
        fill: #fef7e2;
      }

      .cls-7 {
        fill: #924017;
      }

      .cls-8 {
        fill: #341f17;
      }

      .cls-9 {
        fill: #3d471f;
      }

      .cls-10 {
        fill: #4d331e;
      }

      .cls-11 {
        fill: #0b5b9b;
      }

      .cls-12 {
        fill: #d9d3c2;
      }

      .cls-13 {
        fill: #f8f1e1;
      }

      .cls-14 {
        fill: #e55911;
      }

      .cls-15 {
        fill: #b94618;
      }

      .cls-16 {
        fill: #fbf6e8;
      }

      .cls-17 {
        fill: #944217;
      }

      .cls-18 {
        fill: #182b46;
      }

      .cls-19 {
        fill: #a64a18;
      }

      .cls-20 {
        fill: #fff8e1;
      }

      .cls-21 {
        fill: #241917;
      }

      .cls-22 {
        fill: #69300f;
      }

      .cls-23 {
        fill: #ddb31a;
      }

      .cls-24 {
        fill: #ab4d18;
      }

      .cls-25 {
        fill: #534b42;
      }

      .cls-26 {
        fill: #0e3440;
      }

      .cls-27 {
        fill: #d65516;
      }

      .cls-28 {
        fill: #523515;
      }

      .cls-29 {
        fill: #dbd3c2;
      }

      .cls-30 {
        fill: #49140f;
      }

      .cls-31 {
        fill: #d2551c;
      }

      .cls-32 {
        fill: #0b5888;
      }

      .cls-33 {
        fill: #36241c;
      }

      .cls-34 {
        fill: #4c4138;
      }

      .cls-35 {
        fill: #512d12;
      }

      .cls-36 {
        fill: #fac81a;
      }
    </style>
  </defs>
  <g id="Capa_1-2" data-name="Capa 1">
    <path class="cls-21" d="M30.4,7.4c8.9-.9,16.8,.8,23.9,5.6,5.2,3.5,9.2,8.1,11.8,13.7,5.1,11.2,9.9,22.6,14.8,33.8,.9,2.1,1.8,4.3-.1,6.2-2,2.1-4.5,2.6-7.2,1.8-3.5-1-6.7-2.7-9.5-5-1.5-1.2-2.4-1.3-3.9,.3-13,13.5-33,14.3-47.2,2.2-1.2-1-2-2.2-3.3,0-.8,1.3-2.1,.4-2.7-.5C3,60.4-.7,55.5,.1,48.4,1.6,35.1,2.7,21.8,4,8.6c0-.6,0-1.3,.2-1.9,.5-2,2-2.9,3.9-2.7,1.8,.2,2.2,1.7,2.1,3.4,0,3.2,0,6.4,0,10.1,5.5-4.6,12.2-7.3,14.8-14.4,.3-.9,1.1-1.7,1.9-2.2C28.4,0,30.1-.5,31.5,.7c1.3,1.1,.5,2.5,0,3.8-.3,.8-.6,1.6-1.1,2.9Z"/>
    <path class="cls-1" d="M40.9,43.3c3.9-4,6.3-8.5,4.9-14.3-.3-1.4,.8-1.7,1.6-2.1,1.9-.9,3.9-1.5,5.7-2.4,.9-.5,1.9-1,2.8-.5,1.3,.7-.1,1.7,0,2.6,0,.5,0,1-.1,1.5-.6,3.1-2.4,6-1.7,9.3,0,.4-.1,.7-.1,1.1,0,2-1.1,4.2-.5,5.8,.7,2,3.5,1.1,5.3,2,.6,.3,1.1,.6,1.1,1.3-1.8,2.8-4.6,1.6-7.1,1.7-1.8,.1-2.8,.4-2.4,2.5-.9,1.4-1.2,2.6,.8,3.4,.9,.4,1.8,1.1,.3,2.1-2.4,.7-4.9,.5-7.3,.2-4.6-.5-4.6-.6-6,3.6-.8,.8-1.8,.9-2.9,.6-1.7-.7-3.1-1.6-4-3.3-.3-2.2-1.7-2.6-3.6-2.3-6.2,.8-12.3,1.8-17.8,4.9-.2,0-.3,0-.5,.1-1,.8-2,.8-3.1,0-5.4-6.4-5.2-13.7-3.2-21.2,1.7,1.3,1.1,3.2,1.1,4.8,0,1.6-.7,3.2,0,4.8,1.6,1.9,1.8-.2,2.5-.8,2.2-3.2,5.2-5.8,6.9-9.4,1.7-.4,3.4-2,5.3-.5,1.1,1.3,2.1,2.8,3,4.3,.5,2.5,2.5,2,4.2,2.1,.7,0,1.4,.1,2.1,.3,2.1,.6,4.2,.6,6.3,.1,1.1-.3,2.3-.5,3.2-1.3,1-.7,2.2-.7,3.3-1.2Z"/>
    <path class="cls-20" d="M53.7,22.4c-3.3,1.5-6.6,2.9-9.9,4.4-2.7,2.6-6.4,3.1-9.6,4.7-4.7,2.3-9.7,3.8-14.5,5.8-.9,.4-1.9,.8-2.8,0-.7-.7-.4-1.7-.1-2.5,2.6-6.2,5.2-12.4,8.1-18.4,.3-.7,.9-1.2,1.5-1.6,.9-4.5,4.1-5.1,7.9-5.2,5.9,0,11.5,1,16.5,4.4,2.5,2.3,3.8,5,3,8.4Z"/>
    <path class="cls-6" d="M64.6,54c-1.7,2.2-3.4,4.4-5.1,6.6-4.7,2.8-9.4,5.4-14.8,6.7-1.3,.3-2.8,1.2-3.8-.1-.8-1.1,.4-2.3,1.1-3.3,1.3-1.9,2.3-4.1,3.9-5.8,2.6-1,5.4,0,8.3-.6,0-1.7-1.5-2.5-2.1-3.7-.6-1.2-2.1-2.1-1.3-3.6,.7-1.3,2.2-.7,3.4-.8,3.4,0,6.9,0,10.6-.8-2.2-4-5.5-6.7-8.4-9.7-3.5-3.7-3.6-5.1,0-9.1,1.1-2.6,2.3-5.2,3.5-8,1.7,1.7,2.9,3.7,3.8,5.8,4.8,10.8,9.6,21.6,14.3,32.5,.6,1.3,1.4,2.7,1.1,4.2-1.8,1.1-2.5-.4-3.2-1.4-1.2-1.7-2.6-3.4-3.8-5-1.5-3.1-4-4.4-7.4-3.9Z"/>
    <path class="cls-5" d="M4.2,50.9c-2.5-.5-1.6-2.5-1.3-3.8,.5-2.3,.5-4.6,.3-6.9,.6-11.3,1.7-22.6,3.3-33.8,.5,0,.9,0,1.4,0v26.7l1.1,.3c3.8-6.2,7.6-12.5,11.4-18.7,2.5-1.1,3.2,.4,3.4,2.5-.4,3.7-2.3,6.8-4.1,10-2.2,.7-1.9,2.6-2,4.3-.9,2.8-1.3,5.9-3.8,8-.6,4.5-4.2,6.9-6.9,9.9-.9,.7-1.5,2-2.9,1.5Z"/>
    <path class="cls-29" d="M46.1,58.4c-.7,3.2-3.4,5.4-4.9,8.6,5.6-.7,10.3-3.1,15-5.5,1-.5,1.8-1.9,3.3-.9-6.4,9.3-22.6,15.3-36.8,9,0-2.7,2.3-3.7,3.8-5.2,1.1-1.1,2.5-2,3.8-3,1.7-1,3-.3,4.4,.7,1.2,.8,2,2.3,3.7,2.3,1.2-2-1.4-5.3,1.7-6.5,1.9-.8,4.1-.8,5.9,.6Z"/>
    <path class="cls-8" d="M46.1,58.4c-.5,0-1-.1-1.5-.2-6.3-.5-5.7-.5-4.8,5,.2,1,.8,2.5-.3,3.1-1.1,.6-1.8-1-2.8-1.4-2.1-.9-3-4.8-6.4-2.8-.7,.3-1-.1-1.2-.7-.5-2.9-2.1-4.1-5-3.2-4.1,1.3-8.3,2.2-12.6,3-.6,0-1.2,0-1.8-.1,.4-1.9,1.5-2.8,3.6-3,5-.5,9.5-3.2,14.7-2.9,1.4,.8,3.1,1.2,3.7,3.1,.5,1.6,2.6,1.4,3.1,2.9,.9,.9,1.9,1.1,2.8,0,0-5.5,0-5.4,5.8-4.7,2.8,.3,5.7,.1,8.5,.2,0-1.8-2.4-2.5-2.2-4.5-1.9-3.6-1.9-3.5,2.1-3.7,2.5-.2,5.2,.6,7.6-.7,1.1-.7,1.7-1.1,.5-2.6-2.2-2.6-5.1-4.6-6.5-7.9-2.1-3.7,.7-6.3,2.1-9.2,.2,.6,.4,1.1,.6,1.7-2.5,3.7-1.6,6.6,1.6,9.5,3.2,2.8,6,6.2,9.3,9.8-5.8,1.1-10.9,.7-16.5,1.2,2.1,2.8,3.9,5.2,6,7.9-3.9,.9-7.3-.3-10.7,.2Z"/>
    <path class="cls-15" d="M11.7,61.3c.1-1.4,1.2-1.3,2.2-1.5,3.5-.6,6.9-1.5,10.3-2.7,1.9-.7,3.6-.4,5,1.2,.9,1,1.9,1.8,.5,3-2.1,3.2-5.3,5.2-8.4,7.3-3.6-1.9-7.1-4.1-9.6-7.4Z"/>
    <path class="cls-33" d="M19.2,26.9c1.4-2.9,3.1-5.6,3.8-8.8,.9-1.6-.2-4.5,2.8-4.9,.2,.5,.4,1,.6,1.6-3.2,7.4-6.4,14.7-9.9,22.7,9.5-3.7,18.4-7.2,27.3-10.7,0,.5,0,1,0,1.4-2.3,2.7-6,2.9-8.7,4.9-2,1.1-5,.7-5.3,4-.3,.5-.8,.6-1.3,.6-.3,0-.6-.2-.9-.4-3.1-1.4-5.2,1-7.7,1.9-.4,.3-.9,.5-1.4,.3-1.5-1.5-3,1.4-4.5,0,.5-2.8,2.6-5.1,2.9-8,.9-1.5,.5-3.5,2.2-4.6Z"/>
    <path class="cls-4" d="M44.5,34.2c-1.8,7.1-2.6,7.8-9.7,7.6-1.8-.7-3.9-.9-4.9-3-.2-.5-.2-1.1,0-1.6,.6-2.4,2.8-2.7,4.7-3.3,.4,0,.7,0,1.1,0,.8,.2,1.2,1.1,2.1,1.3,1-1,.3-2.5,1.1-3.6,1.5-1.5,3.3-1.6,5.1-.7,1.3,.7,1.1,2,.4,3.2Z"/>
    <path class="cls-12" d="M64.6,54c3.3-2,6.1-.8,7.9,3.5-.1,0-.2,.2-.3,.3-.5,1.7,.9,2.5,1.6,3.7,.8,1.4,2.1,2.7,2.3,4.4-2.3,1.9-3-1.1-4.6-1.5-1.6-.4-2.6-1.6-3.6-2.9,.2,.8,1.3,1.2,.8,2.2-2.1,.2-3.3-1.5-4.7-2.6-2.5-1.9,.4-3.1,.9-4.6,.4-1.1,.6-1.8-.4-2.6Z"/>
    <path class="cls-36" d="M33.1,41.9c.3,.7,.9,.7,1.6,.7,1,.5,2.1,.1,3.1,.3,1,.2,1.1,.7,.4,1.4-1.4,1.2-3.2,1.5-4.9,1.9-1.4,0-2.8,0-4.2,0-2.4-.8-5.3-.6-6.7-3.5,.2-3.6,1.4-4.8,5.7-5.4h.2c.9,.6,1.5,1.5,2.4,2.3,.8,.8,1.9,1.2,2.4,2.2Z"/>
    <path class="cls-2" d="M25.8,13.2c-1.9,1.1-1.2,3.6-2.8,4.9,0-1.7,0-3.5-2.6-3.3,2.9-4.3,4.6-9.5,9.5-12.3-1.4,3.6-2.8,7.2-4.1,10.7Z"/>
    <path class="cls-13" d="M17.9,15.7c-2.8,4.6-5.3,8.8-8,13.3-1.1-5.9,2.2-11.5,8-13.3Z"/>
    <path class="cls-16" d="M53.7,22.4c-.8-.5-.9-1.4-.9-2.3,0-1.8,.3-3.6-2.3-4.1-1-.2-.6-1.4,.2-2,3.2,1.3,5.6,3.7,8.2,6.5-1.9,.7-3.6,1.3-5.2,1.8Z"/>
    <path class="cls-32" d="M44.5,34.2c-.2-1.1,.4-2.7-1.4-2.8-1.4,0-3.3-.8-3.8,1.5-1,1.1-2.6,.8-3.8,1.5-.2,0-.5,0-.7,0-.4-.6-.4-1.1,0-1.7,2.6-2.3,6-3.1,9.1-4.4,1.3,1.8,2.2,3.7,.7,5.9Z"/>
    <path class="cls-10" d="M21.3,68.7c2.2-3.1,5.7-4.8,8.4-7.3,.3,.2,.5,.5,.8,.7-2.2,2.9-5.7,4.3-7.7,7.4-.5-.3-1-.6-1.5-.8Z"/>
    <path class="cls-12" d="M72.5,57.4c1.8,1.2,2.8,3,4,4.7,.7,1,1.1,2.2,2.6,2.1,0,2.4-1.1,2.1-2.4,.8-2-2.2-4.6-3.9-4.5-7.4,.1,0,.2-.2,.3-.3Z"/>
    <path class="cls-34" d="M72.2,57.7c1.5,2.5,3,4.9,4.5,7.4-.2,.2-.4,.5-.6,.7-2.5-2.8-4.8-5.8-6.1-9.4,1.4-.3,1.4,1,2.2,1.3Z"/>
    <path class="cls-25" d="M68.8,63.6c-.7-1.5-2.8-2-2.9-4.5,2.5,1.4,3.9,3.5,5.6,5.2-1.5,2.1-1.8-.7-2.7-.7Z"/>
    <path class="cls-3" d="M37.9,44.2c-.3-2.1-2.5-.2-3.2-1.5,2.1,0,4.3-.6,6.2,.7-.6,1.3-1.7,1.5-2.9,1.7-.2-.2-.3-.3-.3-.5,0-.2,.1-.3,.2-.3Z"/>
    <path class="cls-7" d="M6.4,61.3c1,0,2,0,3.1,0,0,1,0,2.3-1,2.4-1.3,.1-1.9-1.1-2.1-2.4Z"/>
    <path class="cls-18" d="M33.1,41.9c-1.3,0-1.9-.9-2.7-1.7-.5-.5-.5-1,.1-1.5,1.4,1,2.9,2,4.3,3-.6,0-1.2,0-1.8,.1Z"/>
    <path class="cls-14" d="M53.6,37.3c3.5,3,6.5,6.5,9.7,10.2-1.4,.8-2.6,.4-3.7,.4-.3-.2-.6-.5-.9-.6-7.8-1.6-8-2.1-5.1-9.9Z"/>
    <path class="cls-35" d="M22.9,42.6c1.6,1.8,3.9,2.2,6,3.1,0,.7,0,1.1-.9,.7-.7,0-1.5,0-2.2,0-1.6-.8-3.7-.9-4.5-3-1.5-.9-2.1-2.4-2.9-3.9,.2-.3,.5-.5,.7-.8,2.3,.2,2.6,2.4,3.7,3.9Z"/>
    <path class="cls-27" d="M50,52.3c1,1.4,3.2,2.1,2.2,4.5-.8-.3-1.5-.6-2.3-1-.7-.4-2-.1-1.9-1.3,0-1.1,.7-2.1,2-2.1Z"/>
    <path class="cls-22" d="M28,46.4c.3-.2,.6-.5,.9-.7,1.5,0,3,0,4.5,0,.4,.4,1.3,0,1.6,.7-2.3,1.1-4.6,1.3-7,0Z"/>
    <path class="cls-24" d="M21.4,43.4c1.5,1,3,2,4.5,3-2-.2-4.9,.9-4.5-3Z"/>
    <path class="cls-19" d="M31.9,58.4c-1.3-.9-2.8-1.6-3.7-3.1,2.2-.1,4.2-.1,3.7,3.1Z"/>
    <path class="cls-28" d="M35,46.4c-.5-.2-1.1-.5-1.6-.7,1.5-.5,3-1,4.5-1.5,0,.3,0,.6,0,.8-.4,1.7-1.8,1.2-3,1.4Z"/>
    <path class="cls-30" d="M4.2,50.9c.9-.7,1.5-1.9,2.9-1.5,0,1.5-.9,2.3-2.1,2.7-.9,.3-.8-.6-.9-1.2Z"/>
    <path class="cls-17" d="M37.8,61.3c0,.6,.1,1.3-.7,1.4-1.1,.2-1.8-.5-2.2-1.4,.9,0,1.9,0,2.8,0Z"/>
    <path class="cls-31" d="M19.2,26.9c-.5,1.7-.7,3.4-2.2,4.6,.4-1.7-1.6-4.5,2.2-4.6Z"/>
    <path class="cls-23" d="M22.9,42.6c-1.7-.8-2.4-2.6-3.7-3.9,2-1.6,4.4-2.1,6.7-3.1,2-.9,2,.4,2.2,1.7-1.6,1.9-5.5,1.5-5.2,5.3Z"/>
    <path class="cls-11" d="M34.8,32.6c0,.6,0,1.1,0,1.7-1.3,1.3-3.7,1-4.5,3-.2,.3-.5,.3-.7,0-.9-3.1,.2-4.1,5.2-4.7Z"/>
    <path class="cls-9" d="M29.6,37.3c.2,0,.5,0,.7,0,0,.5,.1,.9,.2,1.4,0,.5,0,1-.1,1.5-1.3-.5-1.6-1.8-2.1-3,.4,0,.9,0,1.3,0Z"/>
    <path class="cls-26" d="M35.6,34.4c.7-2,2.3-1.6,3.8-1.5,0,1.4,.9,3.3-.8,3.9-1.8,.7-2.2-1.4-3-2.5Z"/>
  </g>
</svg>