<?xml version="1.0" encoding="UTF-8"?>
<svg id="Capa_2" data-name="Capa 2" xmlns="http://www.w3.org/2000/svg" viewBox="0 0 80.8 76.1">
  <defs>
    <style>
      .cls-1 {
        fill: #9d1838;
      }

      .cls-2 {
        fill: #54a234;
      }

      .cls-3 {
        fill: #224443;
      }

      .cls-4 {
        fill: #082121;
      }

      .cls-5 {
        fill: #76b5b2;
      }

      .cls-6 {
        fill: #4a8933;
      }

      .cls-7 {
        fill: #4d8531;
      }

      .cls-8 {
        fill: #fbe5ed;
      }

      .cls-9 {
        fill: #77b4b2;
      }

      .cls-10 {
        fill: #ec8898;
      }

      .cls-11 {
        fill: #72bcb3;
      }

      .cls-12 {
        fill: #c07381;
      }

      .cls-13 {
        fill: #0b2525;
      }

      .cls-14 {
        fill: #1c4b42;
      }

      .cls-15 {
        fill: #0c5e66;
      }

      .cls-16 {
        fill: #528a34;
      }

      .cls-17 {
        fill: #076167;
      }

      .cls-18 {
        fill: #c61644;
      }

      .cls-19 {
        fill: #0d5b5e;
      }

      .cls-20 {
        fill: #fbfbfb;
      }

      .cls-21 {
        fill: #74b3b2;
      }

      .cls-22 {
        fill: #679b94;
      }

      .cls-23 {
        fill: #75b8b2;
      }

      .cls-24 {
        fill: #193531;
      }

      .cls-25 {
        fill: #0e312a;
      }

      .cls-26 {
        fill: #589838;
      }

      .cls-27 {
        fill: #181817;
      }

      .cls-28 {
        fill: #75b4af;
      }

      .cls-29 {
        fill: #76b1af;
      }

      .cls-30 {
        fill: #234747;
      }

      .cls-31 {
        fill: #010303;
      }

      .cls-32 {
        fill: #bf717f;
      }

      .cls-33 {
        fill: #163115;
      }

      .cls-34 {
        fill: #163e3c;
      }

      .cls-35 {
        fill: #55a133;
      }

      .cls-36 {
        fill: #c61744;
      }

      .cls-37 {
        fill: #1d1817;
      }

      .cls-38 {
        fill: #75b2aa;
      }

      .cls-39 {
        fill: #569c35;
      }

      .cls-40 {
        fill: #021c1b;
      }

      .cls-41 {
        fill: #1d1615;
      }

      .cls-42 {
        fill: #0c302b;
      }

      .cls-43 {
        fill: #fdf6f9;
      }

      .cls-44 {
        fill: #6b9e95;
      }

      .cls-45 {
        fill: #f8f9f9;
      }

      .cls-46 {
        fill: #649790;
      }
    </style>
  </defs>
  <g id="Capa_1-2" data-name="Capa 1">
    <g>
      <path class="cls-31" d="M.1,50.4c.2-2.5,.1-5,.9-7.4,1.1-3.5,1-6.9,.3-10.6-.9-4.5-.8-9.1,.3-13.7,.7-3,2.5-4.1,5.4-4.1,.2,0,.5,0,.7,0,12.5,3.1,20.2-5,28.1-12.2,1.7-1.6,3.1-2.1,5.4-2.3,5.6-.6,9.6,.9,12.8,5.8,2.1,3.3,5.8,5.4,9.2,7.5,1.2,.8,2.3,1.3,3.8,1.2,3.4-.3,5.6,1.2,5.9,4.7,.2,2.3,1.6,3.9,2.9,5.5,5.6,7.6,7.8,19.2-.5,26.5-.5,.4-.9,1.3-1,1.9-.6,8.5-6.1,13.5-12.7,17.3-14.9,8.5-40.7,7-53.3-3C2.9,63.2-.7,57.8,.1,50.4Z"/>
      <path class="cls-11" d="M68.5,35.1c0,.6,.2,1.2,.3,1.8,1.1,4.2,1.7,8.4,1.8,12.7,0,3.7-1,6.5-4.4,8.2-2.2,1.7-4.8,2.7-7.5,3.2-5.5,.9-10.9,2.1-16.6,1.9-3.4,0-6.7,0-10.1,0-5.5,.2-10.9-1-16.3-1.8-1.7-.3-3.4-.8-4.5-2.4-.8-2.7,.6-3.7,3-3.8,2.9-.2,5.7,0,8.6,0,1-.1,2.7,.3,2.7-1.2-.2-3.7,1.7-7.7-1.7-10.9-.4-.4-.5-.9-.4-1.4,.9-2.5-.3-4.2-3.4-4.5-.5,.9-1.2,1.7-2.4,1.6-2.4-.5-4.5-1.7-6.4-3.2-2.4-1.3-3.9-3.7-6.1-5.2-1-2.5-1-5-1-7.6-.1-1.2,.3-2.2,.7-3.3,.5-1.6,1.2-2.7,2.8-1.2,1,.9,2.1,.7,3.2,.8,1.9,.1,3.7,.2,4.9,2.1,.9,1.4,1.9,.7,2.7-.3,.3-.3,.5-.5,.8-.7,9-3.2,18.1-3.9,27.5-2.3,3.6,.6,6.9,1.9,10.8,3.8-1.5-2.2-1.3-3.1,1.1-3.2,2.8-.1,5.6-.8,8.5-1.1,1.8-.2,3.3,.3,3.1,2.6,.6,3.8,0,7.6-.9,11.3-1.4,1.1-1.4,2.6-.9,4.1Z"/>
      <path class="cls-23" d="M5.8,30.3c3.2-.1,3.7,3.3,5.9,4.4-.4,1.8-.9,3.6-2,5.1-.7,1-1.2,2.2-1.6,3.4-2,6-1,7.8,5,9.7,3.5,1.1,7.1,.7,10.6,1.9,.3,.3,.3,.7,0,1-3.1,0-6.2,.1-9.3,0-2.2-.1-2.9,.9-2.7,2.9-.7,.7-1.3,0-1.7,0,3.2,2.3,5.6,6,9.8,7.8,4.4,1.8,8.7,3.6,13.4,4.2,1,.1,2.6-.2,2.4,1.8-3.8,.9-7.5,0-11.1-.7-1.3-.3-2.6-.4-3.9-.8-6.4-1.4-11.3-5-15.2-10.1-3.9-5-3-10.6-2.2-16.1,.6-3.7,1.9-7.2,3.4-10.6,1.1-1.4-.2-1.8-1-2.5-.1-.5,0-1,.4-1.3Z"/>
      <path class="cls-22" d="M20.5,70.9c3.4-.5,6.5,1.2,9.8,1.3,1.8,0,3.7,.6,5.4-.5,2.4-2.2,5.5-.7,8.2-1.4,8.1,.7,18.4-4.6,22-11.5,.2-.6,.2-1.2-.2-1.7,6.7-4,3.1-10.4,3.5-15.9,0-1.4-.5-2.9-.3-4.4,6.4,15.8,3.7,26.4-11.2,32.9-12,5.2-24.6,5.3-37.1,1.2Z"/>
      <path class="cls-6" d="M74.4,48.4c-2.8-7.1-2.7-14.4-.7-21.8,6.2,7,6.4,15.9,.7,21.8Z"/>
      <path class="cls-2" d="M43.9,4.5c2.4-.2,3.5,.6,4.3,2.6,1.5,4,5.4,6,8.5,8.9-2.8,1.7-5.2,.7-7.6-.2-1.9-.7-4.5,.5-5.6-1.2-1.1-1.6,.4-3.8,.4-5.8,0-1.4,0-2.7,0-4.2Z"/>
      <path class="cls-35" d="M41,4.6c.6,.4,2.7-1.7,1.9,1.1-.2,.6-.2,1.2-.2,1.8-.5,7.7-1.9,8.8-9.3,7.4-2.5-.5-.5-1.4,0-2.1,1.6-2.7,4.1-4.7,5.4-7.6,.4-.8,1.2-1.2,2.2-.8Z"/>
      <path class="cls-39" d="M32.6,12.3c-3.3,2.7-7.2,4.2-11.6,4.2,5.2-3.5,11-6.4,15.4-11,.7-.3,1,.2,1.2,.7-.4,3-2.4,4.7-5,6Z"/>
      <path class="cls-21" d="M19.1,20.4c0,1.2,0,2.3-1.6,2.3-1,0-2.4,.4-2.6-.8-.5-2.6-2.3-2.1-4-2.1-1.8,0-3.7,.3-4.5-2.3-1.1,1.6-1.6,3-1.6,4.5-1.8-.3-.9-1.4-.8-2.4-.2-1.7,.6-2.8,2.2-2.6,3.9,.4,7.9,0,11.5,2,0,.8,.6,1.1,1.3,1.4Z"/>
      <path class="cls-46" d="M68.6,31.9c-.1-4.2,1.2-8.2,1.7-12.3,2,5,1.2,10-.2,15,0,0-.2,.2-.2,.2-.2-.2-.5-.4-.7-.7-.8-.6-1.3-1.3-.6-2.3Z"/>
      <path class="cls-44" d="M4.1,19.7c.2,.8-.1,1.8,.8,2.4,.3,2.8,.6,5.5,.9,8.3,0,.5,0,1,0,1.5,.2,.2,.3,.3,.3,.5,0,.2,0,.3-.2,.3-.3,.6-.7,1.2-1.4,2.5-1.3-5.6-1.9-10.5-.3-15.5Z"/>
      <path class="cls-26" d="M57.4,14.6c-3.8-2.8-8-5.2-8.8-10.6,2.8,3.4,6,6.4,9.5,9.2,.5,.8,.7,1.5-.7,1.4Z"/>
      <path class="cls-33" d="M32.6,12.3c1.5-2,3.7-3.4,4.7-5.8,.2-1.1,.6-2.2,1.4-3.1,1.4-.8,2.3-.7,2.3,1.2-1.8,0-1.7,1.5-2.3,2.5-1.4,2.3-2.8,4.6-5.4,5.8-.3-.2-.5-.4-.8-.6Z"/>
      <path class="cls-24" d="M68.6,31.9c.2,.8,.4,1.5,.6,2.3-.2,.3-.5,.6-.7,.9-.5-.8-1-1.6-1.4-2.5-.3-.7-1.4-1.5-.2-2.1,1-.5,1,1.2,1.8,1.4Z"/>
      <path class="cls-7" d="M57.4,14.6c.6-.3,.7-.8,.7-1.4,.1,0,.3,0,.3,.1,.6,.8,2.8,.9,1.9,2.3-.9,1.3-2.1,0-2.9-1Z"/>
      <path class="cls-3" d="M5.8,32.6c0-.3,0-.5-.1-.8,.6-.2,1.4-1.3,1.8-.7,.9,1.2-.5,2-1.1,2.9-.2-.5-.4-1-.6-1.4Z"/>
      <path class="cls-16" d="M38.7,3.4c0,1.2-.5,2.2-1.4,3.1-.3-.3-.6-.6-.9-.9,.6-.9,1.1-1.8,2.3-2.2Z"/>
      <path class="cls-34" d="M19.1,20.4c-.7,0-1.3,1-1.9,.4-.8-.8,.6-1.1,.7-1.8,.5,.3,.9,.5,1.4,.8,0,.2,0,.4-.1,.6Z"/>
      <path class="cls-27" d="M65.6,57.1c.6-.1,1.5-.5,1.6-.3,.5,1-.8,1.1-1,1.8-5.4,7.2-12.3,11.7-21.4,12.3-3,.3-6.1,.5-9.1,.8-11.9-.5-21.2-6.1-28.9-15.1,2-.2,3.1,1.9,4.9,2,6.5,2.4,13.2,2.8,20,3.2,3.7,1.6,7.3,1.6,11,0,6.3-.2,12.6-1,18.7-2.7,1.6-.4,3.1-1,4.3-2.1Z"/>
      <path class="cls-37" d="M52.3,42.4c.2-.3,.4-.5,.7-.8,.8-1.7,1.8-3.2,3.9-3.6,1.7-.9,3.4-2,5.3-2.8,.7-.3,3-1.9,1.9,1.3-.1,.4,.7,1.2,1.2,1.8,2.5,3.3,3,7.3,3.3,11.3,0,1.3-.3,2.2-1.9,2.8-4.8,1.8-9.8,2.9-15,2.9-1.8,0-2.7-.7-3.1-2.3-.4-4.1,0-7.9,3.8-10.4Z"/>
      <path class="cls-41" d="M23.7,55.2c-5,0-9.8-1-14.6-2.4-2-.6-3-1.6-2.9-4,.2-4,.7-8.1,3.7-11,1.1-1-1.1-3.7,1.8-3.1,2,1,4,2.1,5.9,3.1,5.5,2.9,8.2,7.7,8.6,13.7,.1,1.8-.1,3.6-2.6,3.6Z"/>
      <path class="cls-40" d="M35.7,32.8c-.4-.4-.9-.8-1.3-1.1h0c.3-3.1,4.4-6.1,9.1-6.3,2.6,0,5.2,.3,7.8,.5,2.1,.2,2.1,1.5,1.1,2.9-1.9,2.8-4,5.4-6.6,7.5-2.8,2.3-4.7-1.1-7.1-1.4-1.1-.5-2.3-.9-3-2Z"/>
      <path class="cls-9" d="M23.7,55.2c3.8-2.4,1.7-5.5,.8-8.3-1.1-3.8-4.3-6.2-6.9-9.1,1.6,0,1.5-1.3,1.6-2.4,3.3,1.4,4.6,2.9,4.9,5.4,3.8,3.4,2.2,7.9,2.6,12.1,.2,2.3-.8,3.2-3,2.9,0-.2,0-.4,0-.6Z"/>
      <path class="cls-13" d="M43.2,46.2c.1,2.1,0,3.8-2.2,3.3-2.1-.5-5.1,.4-5.7-2.9-.2-1.2,4.6-6,5.5-5.6,2.6,1,2,3.6,2.4,5.2Z"/>
      <path class="cls-4" d="M33.4,37.8c-.6,.4-1.2,.9-1.9,1.2-1.9,.9-3.7,1-4.7-1.2-1-2.3,.6-3.4,2.5-4.2,1.1-.4,2.2-.5,3.3-.1,1.4,1.2,1.4,2.7,.8,4.3Z"/>
      <path class="cls-5" d="M52.3,42.4c-2.1,3.2-3.3,6.7-3.8,10.4-1.7-3-.9-6.2-.6-9.2,.3-2.3,2.8-.9,4.3-1.2Z"/>
      <path class="cls-5" d="M56.8,37.9c-1.3,1.2-2.6,2.4-3.9,3.6-.7-1-1.7-.7-2.7-.7-.9-3.1,2.4-3.5,3.5-5.3,3-1.7,2.9,.4,3.1,2.4Z"/>
      <path class="cls-29" d="M42.7,61.9c-3.7,3.1-7.3,3.1-11,0,3.7,0,7.3,0,11,0Z"/>
      <path class="cls-42" d="M24.1,40.8c-.9-2.5-2.9-3.9-4.9-5.4,2.2-.5,7,3.5,6.5,5.6-.3,1.1-1.1,.2-1.7-.2Z"/>
      <path class="cls-25" d="M53.7,35.6c-.4,2.2-3.1,3-3.5,5.3-.6,.7-1.3,1.3-1.9,0-.3-1.5,.7-2.2,1.7-2.9,1.3-.6,1.8-2.6,3.7-2.3Z"/>
      <path class="cls-29" d="M41.6,58.6c0,1-.3,1.7-1.5,1.6-.9,0-1.4-.6-1.3-1.4,0-.9-.5-2,.7-2.6,0,0,.5,.7,.7,1.1,.3,.6,.9,.9,1.4,1.3Z"/>
      <path class="cls-28" d="M33.4,37.8c.4-1.6-.3-2.9-.8-4.3,0-1.1,.7-1.6,1.7-1.8,0,0,0,0,0,0-.6,2,.7,4.3-.9,6.2Z"/>
      <path class="cls-5" d="M50,37.9c-.6,1-1.1,2-1.7,2.9-1.4-2.1-.7-3,1.7-2.9Z"/>
      <path class="cls-30" d="M32.3,56.9c1.7,.2,2.5,.9,2.7,2.1,0,.2-.5,.6-.7,.5-1.1-.3-1.7-1.1-2-2.6Z"/>
      <path class="cls-14" d="M41.6,58.6c-.7,0-1.2,1.2-1.9,.6-.8-.7,.4-1.3,.5-1.9,.5,0,1-.7,1.6-.2,.7,.6,0,1-.2,1.5Z"/>
      <path class="cls-28" d="M35.7,32.8c1,.7,2,1.4,3,2-1.4,0-3.1,.3-3-2Z"/>
      <path class="cls-38" d="M44.7,71c7.2-2.1,14.4-4.1,18.9-11,.5-.7,1.7-.9,2.5-1.4,1.2,2.7-1.5,3.5-2.7,4.9-3.9,4.3-9.4,5.9-14.5,7.9-1.2,.5-2.9,.7-4.2-.4Z"/>
      <path class="cls-10" d="M27.6,63.2c6.4,2.2,12.8,2.2,19.2,0,1.7-.6,3.5-.3,5.1,.2,1.4,.4,2.6,1.1,1.7,2.9-11,5.7-22,5.6-33,0-.8-1.9,.6-2.4,1.8-2.8,1.6-.6,3.3-.8,5-.2Z"/>
      <path class="cls-32" d="M53.6,66.3c-1.1-3.8-4.4-2.5-6.9-3.1,3.2-.5,6.5-1,9.7-1.4,.7-.1,1.5-.2,1.9,.7,.4,.9-.3,1.4-.8,1.8-1.2,.9-2.4,1.7-3.9,2Z"/>
      <path class="cls-12" d="M27.6,63.2c-2.6,.4-5.6-.2-6.9,3-.4-.1-.8-.1-1-.3-1.3-1-4.4-1.1-3.3-3.5,.8-1.8,3.1-.5,4.6,0,2.2,.6,4.5-.3,6.6,.9Z"/>
      <path class="cls-18" d="M56.5,40.7c1.5-2.3,2.8-2.5,4.1,.3,1.4,3.2,1.5,6.4,1.3,9.8-.1,1.4-.8,2-2.1,2.1-2,.2-3.9,.6-5.9,.8-3.7,.3-4.2-.5-3.4-3.9,.7-2.8,2.1-5.2,4-7.3,.6-.6,1.7-.7,2.1-1.6Z"/>
      <path class="cls-20" d="M63.4,52c0-5,.1-9.6-2.8-13.6-.3-.4-.5-1,.1-1.2,.5-.2,1.3-.2,1.7,0,2.5,1.3,5.6,10.3,4.5,12.9-.7,1.6-2.3,1-3.6,1.9Z"/>
      <path class="cls-1" d="M56.5,40.7c.2,1.7-1,1.6-2.1,1.6,.4-1,1.1-1.5,2.1-1.6Z"/>
      <path class="cls-36" d="M20.1,53.6c-7.9-.5-9.1-2.1-7.2-9.9,.4-1.8,.9-4.2,2.4-4.7,1.8-.7,3.1,1.7,4.3,2.9,1.9,2,3.4,4.5,4.2,7.3,1,3.9,.5,4.6-3.6,4.4Z"/>
      <path class="cls-45" d="M7.2,48.8c.4-4.4,1.4-7.9,4-10.9,.6-.7,1.4-1.2,2.3-.7,1.3,.8,0,1.5-.3,2.1-1.5,2.9-2.1,6-2.3,9.3,0,1,1.6,3-.9,3-2,0-3.2-1.2-2.7-2.8Z"/>
      <path class="cls-17" d="M45.6,26.7c1.3,0,4.4-.2,5,1.2,.8,1.7-1.9,3.1-3.2,4.5-1.2,1.4-2.3,3.6-4.3,2.8-2.5-1-4.7-2.7-6.9-4.3-.6-.4-.1-1,.4-1.5,1.4-1.2,6.1-2.9,9-2.9Z"/>
      <path class="cls-15" d="M40.4,42.2c1.3,2.4,2.2,4.3,.4,5.8-.8,.7-3.3,0-3.5-1.1-.6-2.3,2.2-2.7,3.1-4.8Z"/>
      <path class="cls-19" d="M31.9,36.1c-.3,1.3-1.1,1.7-2.2,1.7-.8,0-1.5-.3-1.3-1.3,.2-1.1,1.2-1.4,2.2-1.6,.9-.1,1.3,.5,1.3,1.2Z"/>
      <path class="cls-8" d="M57.2,47.6c-.3,1.1-.2,2.5-1.6,2.6-1.6,0-1.9-1.3-1.9-2.6,0-1.2,.1-2.8,1.7-2.8,1.6,0,1.6,1.6,1.8,2.7Z"/>
      <path class="cls-43" d="M20.7,47.5c0,1.3-.2,2.6-1.6,2.7-1.7,0-1.8-1.6-1.7-2.7,0-1.1,.2-2.6,1.6-2.6,1.7,0,1.6,1.5,1.7,2.7Z"/>
    </g>
  </g>
</svg>