<?xml version="1.0" encoding="UTF-8"?>
<svg id="Capa_2" data-name="Capa 2" xmlns="http://www.w3.org/2000/svg" viewBox="0 0 66.9 69.6">
  <defs>
    <style>
      .cls-1 {
        fill: #c66a1c;
      }

      .cls-2 {
        fill: #f6f6f6;
      }

      .cls-3 {
        fill: #050301;
      }

      .cls-4 {
        fill: #391005;
      }

      .cls-5 {
        fill: #065454;
      }

      .cls-6 {
        fill: #ef7918;
      }

      .cls-7 {
        fill: #af631c;
      }

      .cls-8 {
        fill: #471607;
      }

      .cls-9 {
        fill: #25110a;
      }

      .cls-10 {
        fill: #6e6d6d;
      }

      .cls-11 {
        fill: #c66718;
      }

      .cls-12 {
        fill: #b8661a;
      }

      .cls-13 {
        fill: #6a2613;
      }

      .cls-14 {
        fill: #e2ddda;
      }

      .cls-15 {
        fill: #b76a1e;
      }

      .cls-16 {
        fill: #b06b79;
      }

      .cls-17 {
        fill: #fdfdfd;
      }

      .cls-18 {
        fill: #d77d8e;
      }

      .cls-19 {
        fill: #fbfbfb;
      }

      .cls-20 {
        fill: #371318;
      }

      .cls-21 {
        fill: #090603;
      }

      .cls-22 {
        fill: #442109;
      }

      .cls-23 {
        fill: #a86b74;
      }

      .cls-24 {
        fill: #0f616d;
      }

      .cls-25 {
        fill: #bbb;
      }

      .cls-26 {
        fill: #c86617;
      }

      .cls-27 {
        fill: #0a6e74;
      }

      .cls-28 {
        fill: #d6cacc;
      }
    </style>
  </defs>
  <g id="Capa_1-2" data-name="Capa 1">
    <g>
      <path class="cls-3" d="M66.9,38.8c.2,13.4-8.7,24.7-23.3,29.3C26.5,73.5,6.7,64.1,.8,47.8c-.9-2.4-1.3-4.8,0-6.9,2.9-4.6,2.8-9.7,3.2-14.7C5.5,11.5,15.6,1.3,30.1,.2c20.4-1.6,32.4,7.9,35.6,28.2,.5,3.4,.8,6.9,1.2,10.4Z"/>
      <path class="cls-6" d="M3.4,41.5c.7-3.7,2.3-4,5.5-2.1,4.5,2.7,6.4,1.7,7-3.3,.5-4.5,.5-9-.7-13.4-.8-3.1-2.3-5.6-6.4-5.3C12.7,8.3,19.9,3.9,29,2.7c10.6-1.4,20.7-.2,27.7,9.5,.3,1.2,1.1,2.2,1.5,3.3,.8,1.7,1.6,3.8-1.1,4.9-.9,0-1.7-.4-2.4-.8-5.1-3-8.3-2.1-10.2,3.5-1.5,4.3-2.3,8.9-1.4,13.6,.8,3.7,1.6,4.2,5.4,3.6,2.1-.3,4.1-1.3,6.2-.5,2.2,2.3,1.4,4.7,.3,7.1-1.8,2.3-4.6,2.8-7.1,3.8-5.8,2.2-12,3.6-18.2,3.8-8,.3-15.4-2.1-22.2-6.5-1.2-.8-1.5-2.3-2.5-3.2-1.1-.7-2-1.6-1.6-3.1Z"/>
      <path class="cls-26" d="M54.4,46.7c.5-2.3,1.7-4.6,0-6.8,0-.1,0-.3,0-.4,4.8-2.1,4.5-6.4,4.4-10.5,.5-2.3,1.8-3,3.9-1.7,1.7,8.1,3.8,16.3-1.2,24.1-2.6,1.1-3.3,3.8-4.7,5.9-8,8.4-21.7,12.5-33,8.1-.7-1-.7-1.8,.4-2.5,.4-.1,.8-.1,1.2,0,2.8,1.3,5.7,.9,8.6,.5,.9-.3,1.8-.5,2.6-.8,3.1-.5,5.7-2.3,8.6-3.2,1.5-.2,3.2,0,3.3-2.2,3.3-3.9,5.4-8.7,9.3-11.5-.7,.4-1.7,1.7-3.4,1Z"/>
      <path class="cls-11" d="M3.4,41.5c.6,.9,.7,2.2,2.2,2.2,.5,2.3,1.3,4.1,3.7,5,1.1,.4,1.7,1.4,2.3,2.4,2.2,3.4,5.1,6.1,8.4,8.4,1.1,.8,2.5,1.3,2.5,3-1,2.3-2.7,1.1-4.2,.8-7.5-3.3-12.5-8.9-15.3-16.5-.7-1.8-.9-3.6,.4-5.3Z"/>
      <path class="cls-19" d="M8.5,24c0-.9,0-1.8,.2-2.6,.3-1.1,.8-2.2,2.1-2.3,1.2-.1,1.8,.9,2.2,1.8,.8,2,2,4,1.1,6.4-.5,1.3-.9,2.8-2.6,2.8-1.9,0-2.4-1.6-2.8-3-.3-.9-.2-2-.2-3Z"/>
      <path class="cls-1" d="M62.6,27.3c-1.8-.2-3.2,.2-3.1,2.4-2.9-2.7-2.7-6.3-3.1-9.8,2.7-.8,2-2.9,1.1-4.4-.7-1.2-.9-2.2-.9-3.4,3.3,4.5,5.3,9.5,5.9,15.1Z"/>
      <path class="cls-12" d="M56.6,57.3c.5-2.8,.4-6.2,4.7-5.9-1.1,2.4-2.5,4.5-4.7,5.9Z"/>
      <path class="cls-24" d="M13.6,34.1c.4,1.8,1.7,3.4,.2,4.7-1.2,1.1-2.4,.1-3.6-.6,1.1-1.3,2.1-2.5,3.4-4.1Z"/>
      <path class="cls-7" d="M18.3,63.3c1.3-.4,3.2,.9,3.8-1.4,1.4-.7,2.1-.2,2.4,1.3-.9,.5-.9,1.4-.9,2.3-2-.3-3.8-.9-5.3-2.2Z"/>
      <path class="cls-5" d="M6.3,33.5c.8,.7,1.1,1.5,.5,2.4,0,.1-.5,.1-.6,0-.6-.8-.8-1.6,.2-2.5Z"/>
      <path class="cls-21" d="M56.4,19.9c1,3.3,2.1,6.5,3.1,9.8,0,.5,0,1,0,1.5q.3,6.3-5.3,8.7c-2.7,.4-5.3,1.1-8,1.3-2.4,.2-3.8-.7-4.1-3.5-.5-4.8-.2-9.4,1-14,.8-3.1,2.2-5.8,5.5-6.8,3.3-1,5.7,.6,7.7,3.1Z"/>
      <path class="cls-9" d="M24.5,63.2c-.8-.4-1.6-.9-2.4-1.3-4.7-2.7-8.7-6.2-11.6-10.8-.5-.8-.9-1.7-2-2.1-2.6-.8-3.3-2.8-2.9-5.3,.6-.6,1.6-1,1.3,.2-.7,2.7,1.1,3.2,2.7,4.1,12.9,7.5,26.1,5.9,39.3,1,1.8-.7,3.6-1.6,5.4-2.3,2.1-.8,4.1-1.6,4-4.9,1.6,1.7,1.5,3,.4,3.9-4,3.2-5.8,8.2-9.6,11.5-.6,1.9-2.3,2.4-3.9,3-2.9,1.1-5.4,3.2-8.6,3.2-.7,.4-1,0-1.1-.7,.5-1.4,1.8-1.6,2.9-2,2.2-.6,3.7-1.9,4.2-4.2,.7-1.6,1.9-2.2,3.6-2,.8,0,2,.3,1.8-1.1-.2-1.1-1.4-1-2.2-.7-2.5,.8-5.2,.9-7.6,1.8-5.3,1.3-10.6,1.6-15.9,.8-1.6,0-2.9-1.3-5.1-.6,1.5,.7,2.8,.1,3.8,.9,1.2,3.3,4,5.1,6.7,6.9,.1,.7-.2,1.1-.8,1.3-.6,.1-1.1,0-1.6-.4-.2,0-.4-.1-.6-.2Z"/>
      <path class="cls-4" d="M18,23.3c-.9-3.1-2.4-5.9-4.6-8.6,3.7,1.3,5.1,4,4.6,8.6Z"/>
      <path class="cls-22" d="M40.5,23.3c-.5-4.4,.9-7.1,4.8-8.9-2.4,3-3.7,5.8-4.8,8.9Z"/>
      <path class="cls-8" d="M31.1,49.6c.8-2,1.7-2.3,3.2-2.4-.5,1.6-1.4,2.2-3.2,2.4Z"/>
      <path class="cls-13" d="M19.9,46.9c2.3-.4,2.3,.9,2.5,2.2-1.2-.3-1.9-1-2.5-2.2Z"/>
      <path class="cls-20" d="M35.6,62.6c.3,.2,.6,.5,.9,.7-.6,.8-1.6,.6-2.4,.8-2.5-.1-5.3,1.2-7.6-.9,.3-.2,.6-.5,.9-.7,2.8-1,5.5-1.4,8.3,0Z"/>
      <path class="cls-7" d="M26.5,63.3c2.4,1.4,5.1,.4,7.6,.9-3.1,.5-6.2,2-9-.8,.5,0,.9,0,1.4,0Z"/>
      <path class="cls-15" d="M45.2,60.1c1.3-1,2.6-2,3.9-3,.5,3.4-1.7,3.2-3.9,3Z"/>
      <path class="cls-17" d="M52.2,24.7c-.3,2-.4,5-4.1,4.8-3.2-.1-3.5-2.8-3.7-5.1-.2-2.6,2.7-6.2,4.5-6.1,2.1,0,3.4,2.4,3.3,6.4Z"/>
      <path class="cls-27" d="M45.8,34c4.3,4.6,5.1,4.6,8.5,.2,.6-.7,.9-1.2,1.7-.5,.9,.9,.9,2.1,.3,3.1-1.1,2-9.8,3.9-11.8,2.7-1-.6-1.2-1.2-.6-2.1,.6-1.1,1.2-2.1,2-3.4Z"/>
      <path class="cls-25" d="M58.1,28.8c-.4,2.2,1.2,4.4-.6,6.6v-6.6c.2-.4,.4-.4,.6,0Z"/>
      <path class="cls-10" d="M58.1,28.8s-.3,0-.3,0c0,0-.3,0-.3,0-.6-1.2-1.3-2.4-.4-4.3,.4,1.7,.7,3,1,4.3Z"/>
      <path class="cls-18" d="M35.6,62.6c-2.8,.2-5.5,.6-8.3,0-3.4-1.1-6.7-2.4-6.8-6.8-.5-.9,.2-1.2,.8-1.6,5.8,.7,11.5,.2,17.2-.7,4.5-.7,4.8-.4,4.5,3.1,.6,2.6-1,3.7-3.1,4.4-1.5,.5-2.9,1.1-4.4,1.6Z"/>
      <path class="cls-16" d="M43.2,56.6c.2-3.6-2.5-2.9-4.5-3.1,2.6-.7,5.2-1.5,7.8-2.2,1.2-.3,2.1-.2,2.8,1,.5,.8,.7,1.4,0,2.3-.8,1.1-1.7,1.4-2.9,.8-1.6-.9-2.5,0-3.3,1.2Z"/>
      <path class="cls-23" d="M21.4,54.2c-.3,.5-.5,1.1-.8,1.6-.7,0-1.5-.2-2.2,0-1,.3-1.8,.8-2.5-.4-.4-.7-.2-1.1,.2-1.6,.7-.8,1.4-1.3,2.5-.7,.8,.5,1.8,.7,2.7,1.1Z"/>
      <path class="cls-2" d="M53.2,49.1c-.6,1.2-.4,3.2-2.4,2.8-.4,0-1-.7-.9-1,.4-1.8,2.2-1.1,3.3-1.8Z"/>
      <path class="cls-14" d="M12.5,51.4c1.6-.5,2.2,.6,3.3,.7-1.8,2.3-2.5,.8-3.3-.7Z"/>
      <path class="cls-28" d="M45.5,56.3c.2,.2,.9,.4,.9,.7,0,.6-.5,1.1-1.2,1.2-.8,.2-.7-.6-.7-1,0-.4,0-1.1,.9-1Z"/>
    </g>
  </g>
</svg>