<?xml version="1.0" encoding="UTF-8"?>
<svg id="Capa_2" data-name="Capa 2" xmlns="http://www.w3.org/2000/svg" viewBox="0 0 74.8 72.9">
  <defs>
    <style>
      .cls-1 {
        fill: #450e00;
      }

      .cls-2 {
        fill: #0b0303;
      }

      .cls-3 {
        fill: #fdfcfd;
      }

      .cls-4 {
        fill: #1b0300;
      }

      .cls-5 {
        fill: #240500;
      }

      .cls-6 {
        fill: #e23e2c;
      }

      .cls-7 {
        fill: #060201;
      }

      .cls-8 {
        fill: #cc3c2d;
      }

      .cls-9 {
        fill: #bc3027;
      }

      .cls-10 {
        fill: #b53327;
      }

      .cls-11 {
        fill: #3f58a0;
      }

      .cls-12 {
        fill: #4d130a;
      }

      .cls-13 {
        fill: #3e120d;
      }

      .cls-14 {
        fill: #f7f7f7;
      }

      .cls-15 {
        fill: #bb3226;
      }

      .cls-16 {
        fill: #dc3c2d;
      }

      .cls-17 {
        fill: #b93227;
      }

      .cls-18 {
        fill: #a42e29;
      }
    </style>
  </defs>
  <g id="Capa_1-2" data-name="Capa 1">
    <g>
      <path class="cls-7" d="M71.2,31.4c-.4,3.1-1,6.1-1.4,9.2-.3,2.6,0,4.3,2.1,6.2,3.8,3.4,4,11.3,0,15.7-3.2,3.5-6.7,7.3-12.4,5.5-1.5-.5-2.6,.8-3.8,1.3-18.1,8.9-40.8,.9-48.4-16.9-2.3-5.5-1-10.7-.1-16.1,.4-2.2,.5-4.6,1.4-6.6,3-6.8-.6-11.2-5.1-15.5C-.3,10.6-.9,7.2,1.1,3.5,2.9,.2,5.5-.9,8.9,.8c11.2,5.4,22.9,8.4,35.4,7.9,6.4-.2,11.6,2.4,15.3,7.8,2.3,3.4,5.7,5.6,8.5,8.4,1.9,1.8,3.2,3.8,3,6.6Z"/>
      <path class="cls-6" d="M52.8,60.3c-3.2,0-6.5,0-9.7,.1-1.8,1.4-3.9,.7-5.8,.9-2.7,0-5.4,0-8.1,0-2,0-3.9-.6-5.3-2.2-.5-.5-1-1.2-1.7-.3-.7,.6-1.6,.7-2.5,.5-7.1-4.9-11.3-11.2-10.4-20.2,1.1-5.4,2.1-10.7,3.2-16.1,.5-2.3,.9-4.7,.7-7-4.1-2.5-8-5.4-10.4-9.8,1.8-4.2,2.8-4.6,6.6-2.8,9.9,4.6,20.1,7.8,31.2,7.3,7.7-.3,14.1,1.6,18.5,8.7,1.4,2.3,4.1,3.9,6.2,5.8,4.2,3.8,4.6,6,1.8,11-.8,.7-1.8,.9-2.8,.4q-.9-2-.9-5.3c-.2,2.6,.2,5.3,.2,8,0,1.1,.5,2,1.2,2.9,.8,3,3.8,4,5.5,6.2,.5,.6,1.5,.8,1.4,1.9,.4,1.1,.5,2.1-.1,3.2-2,.5-1,2.7-2.2,3.7-1.8,5-5.8,6.9-10.6,5-2-.8-4.1-1.1-6-2Z"/>
      <path class="cls-9" d="M9.2,39.2c.3,8.3,4.3,14.6,10.6,19.7,3.4,1.3,6.2,3.9,9.9,4.5,6.5,1.5,12.9,1.6,19.4,0,1.4-.4,2.9-.6,4.4-.6,1.2,.8,2.4,1.6,3.6,2.5-9,6.8-24.2,6.8-35.1,.3-6-3.7-10.5-8.6-12.8-15.4-1.2-3.7-1.1-7.2,0-10.9Z"/>
      <path class="cls-16" d="M53.5,62.7c-5.8,2.9-11.9,3.4-18.1,2.5-2.2-.3-4.5,.2-6.5-1.2,.4-2.1,2.1-1.6,3.4-1.7,1.7-.1,3.4,0,4.9-1.1,3-.8,6,.7,8.9-.2,2.5,.4,5.3-.6,7.4,1.6Z"/>
      <path class="cls-17" d="M52.8,60.3c2.4-.1,4.5,0,6.8,1.3,3.3,1.8,5.8,.5,9.8-4.3,1.3,.6,2.4,1,1.3,2.9-3.2,5.3-8.7,6.7-13.6,3.2-1.4-1-2.8-2.1-4.2-3.1Z"/>
      <path class="cls-15" d="M2.7,6.4c3.5,3.3,6.9,6.5,10.4,9.8-1.4,.4-.4,2.2-1.9,2.8-2.6-2.8-5.4-5.7-8.1-8.6-1-1.1-.5-2.6-.5-3.9Z"/>
      <path class="cls-4" d="M46.1,61.1c-2.9,1.1-6,.4-9,.9-3.4,1-6.8,.9-10.2,.2-.8-1.4,.3-1.3,1.1-1.4,3-.2,6.1,.4,9.1-.4,2,0,4,0,5.9,0,.8,.9,2,.5,3,.6Z"/>
      <path class="cls-10" d="M64.7,42.4c-1.7,.1-2.3-.8-2.1-2.3,.8-1.1,0-2.9,1.6-3.7,1,0,1.9,0,2.9,0-.3,2.2-1.2,4.2-2.3,6Z"/>
      <path class="cls-18" d="M71.5,53.7c0-1.1,0-2.1,.1-3.2,1.3,1.7,.5,3.5,.6,5.5-1.1-.6-.5-1.6-.7-2.3Z"/>
      <path class="cls-2" d="M23.8,28.2c8.5,3.5,15.7,8.3,22.7,13.6,.4,.3,1.4,.9,.9,1.4-.8,.8-1.4,2.1-2.8,2.1-6.6-.2-13.1,1.4-19.7,.9-2-.2-2.9-.9-2.9-3-.1-4,0-8.1,2.3-11.5,1.1-1.6,.5-2.3-.5-3.5Z"/>
      <path class="cls-8" d="M26.6,61.6c3.5,.1,7,.2,10.4,.3-.4,1.8-1.8,1.2-3,1.4-1.8,.2-3.7-.7-5.3,.7-3.5-.9-6.6-2.5-9-5.2,.9,0,1.8,0,2.3-.9,2.2,.3,3,2.4,4.5,3.6Z"/>
      <path class="cls-13" d="M64.2,36.3c-.5,1.2-.2,2.8-1.6,3.7-.4-3.9,.5-7.8-.6-11.7,2.7,2.2,1.8,5.2,2.2,7.9Z"/>
      <path class="cls-12" d="M48.9,29.4c2.7,3.1,4.1,6.5,2.5,10.5-.4-3.6-1.2-7.1-2.5-10.5Z"/>
      <path class="cls-1" d="M55.6,55.3c3-.4,3.7,1.6,5.1,3.8-2.7-.6-3.8-2.1-5.1-3.8Z"/>
      <path class="cls-5" d="M26.6,61.6c-2.1-.4-2.8-2.7-4.5-3.6-.2-.3-.6-.8-.5-.9,.6-1,1.2-.4,1.7,0,1.4,1.3,2,3.6,4.5,3.3,.4,0,.5,.3,.3,.6-.5,.2-1,.4-1.5,.6Z"/>
      <path class="cls-16" d="M28.2,61c-.1-.2-.2-.4-.3-.6,3.1,0,6.2,0,9.3,0-2.9,1-6,.4-9,.7Z"/>
      <path class="cls-11" d="M28.5,45.4c-1.9-.3-3.8,.6-4.8-1.1-.7-1,0-2.2,.7-3.1,.7-.8,1.2-1.7,2.4,0,2.6,3.7,4.3,3.6,7.1,0,.5-.6,.6-1.4,1.6-.8,1.1,.6,1.6,1.5,1.7,2.7,0,1-.4,1.3-1.3,1.3-.4,0-.7,0-1.1,0-2.2,.3-4.4,.6-6.3,.8Z"/>
      <path class="cls-14" d="M25.5,33.3c.3-.9,.1-2.8,1.4-2.4,1.8,.5,4.5,.8,4.6,3.4,0,1.3-.9,2.8-2.8,2.8-2.5,0-2.8-1.9-3.2-3.8Z"/>
      <path class="cls-3" d="M38.5,37.7c2.3,1.6,4.2,2.9,6.1,4.2,.5,.4,.9,1,.5,1.6-.2,.3-.8,.4-1.2,.5-5.1,.9-5.2,.8-5.3-6.3Z"/>
    </g>
  </g>
</svg>