<?xml version="1.0" encoding="UTF-8"?>
<svg id="Capa_2" data-name="Capa 2" xmlns="http://www.w3.org/2000/svg" viewBox="0 0 67.9 80.3">
  <defs>
    <style>
      .cls-1 {
        fill: #351f08;
      }

      .cls-2 {
        fill: #e4e0df;
      }

      .cls-3 {
        fill: #53220e;
      }

      .cls-4 {
        fill: #3a1810;
      }

      .cls-5 {
        fill: #d57b2a;
      }

      .cls-6 {
        fill: #f5f5f5;
      }

      .cls-7 {
        fill: #ebeaea;
      }

      .cls-8 {
        fill: #59200d;
      }

      .cls-9 {
        fill: #d18d0c;
      }

      .cls-10 {
        fill: #ec8015;
      }

      .cls-11 {
        fill: #130803;
      }

      .cls-12 {
        fill: #b26a78;
      }

      .cls-13 {
        fill: #692e21;
      }

      .cls-14 {
        fill: #240d0a;
      }

      .cls-15 {
        fill: #165a6b;
      }

      .cls-16 {
        fill: #733113;
      }

      .cls-17 {
        fill: #412714;
      }

      .cls-18 {
        fill: #803221;
      }

      .cls-19 {
        fill: #ee7f14;
      }

      .cls-20 {
        fill: #c26e17;
      }

      .cls-21 {
        fill: #f4f3f4;
      }

      .cls-22 {
        fill: #3b1200;
      }

      .cls-23 {
        fill: #0b404c;
      }

      .cls-24 {
        fill: #412d14;
      }

      .cls-25 {
        fill: #7f3322;
      }

      .cls-26 {
        fill: #271007;
      }

      .cls-27 {
        fill: #4d240d;
      }

      .cls-28 {
        fill: #0d0704;
      }

      .cls-29 {
        fill: #d98424;
      }

      .cls-30 {
        fill: #f08134;
      }

      .cls-31 {
        fill: #5a260a;
      }

      .cls-32 {
        fill: #623322;
      }

      .cls-33 {
        fill: #3f2a17;
      }

      .cls-34 {
        fill: #4b3217;
      }

      .cls-35 {
        fill: #e3dfe0;
      }

      .cls-36 {
        fill: #561f08;
      }

      .cls-37 {
        fill: #cd8813;
      }

      .cls-38 {
        fill: #060302;
      }

      .cls-39 {
        fill: #45190a;
      }

      .cls-40 {
        fill: #2f0e00;
      }

      .cls-41 {
        fill: #f0800b;
      }

      .cls-42 {
        fill: #7a3525;
      }

      .cls-43 {
        fill: #65250c;
      }

      .cls-44 {
        fill: #e2e1e1;
      }

      .cls-45 {
        fill: #481f0f;
      }

      .cls-46 {
        fill: #5a1605;
      }

      .cls-47 {
        fill: #d87d8e;
      }

      .cls-48 {
        fill: #f0800c;
      }

      .cls-49 {
        fill: #67270a;
      }

      .cls-50 {
        fill: #eb763b;
      }

      .cls-51 {
        fill: #4d1e0b;
      }

      .cls-52 {
        fill: #bb691b;
      }

      .cls-53 {
        fill: #0d4a58;
      }

      .cls-54 {
        fill: #fcfcfc;
      }

      .cls-55 {
        fill: #75382c;
      }
    </style>
  </defs>
  <g id="Capa_1-2" data-name="Capa 1">
    <g>
      <path class="cls-38" d="M34,80.1c-.5,0-1,0-1.5,0-10.4,.7-12.7-.7-15.4-10.8-1.7-6.4-4.9-11.5-9.8-15.9C.5,47.4-.2,43.9,3.4,35.6c1.2-2.8,1.2-5.2,.2-7.9-1.3-3.4-1.5-6.9,.4-10.1,.8-1.4,.3-2.3-.4-3.4-1-1.6-1.9-3.2-2.8-4.8C-.9,6.3,.3,3.8,2.6,1.7,4.7-.3,7.2-.5,9.8,1c3.2,1.8,6.2,4,8.4,6.8,4.2,5.4,10,6.3,16,6.3,5.9,0,11.6-1,15.6-6.3,2.1-2.7,5.1-4.8,8-6.6,2.8-1.7,5.5-1.6,7.8,.7,2.3,2.2,2.9,4.9,1.3,7.8-.3,.6-.5,1.2-.9,1.6-2.2,2.6-3.1,5.3-1.2,8.7,1.4,2.6,.3,5.4-.6,8-1,2.6-.8,5,.3,7.5,3.4,8.1,2.7,11.6-3.6,17.7-4.2,4-7.8,8-9.5,13.9-3.6,12.8-4.1,13-17.5,12.9Z"/>
      <path class="cls-48" d="M5.3,37.6c1.8-3.7,1.8-7.4,.3-11.3-1.9-5,.5-8.8,4.3-11.9,1.5-2.3,3.3-3.6,6.1-2.2,1.8,.1,3.3,.8,4.6,2.1,.1,1.8,1.8,1.8,3,2.5,.2,0,.4,0,.6,0,1,.6,2.1,1.1,2.7,2.2,.1,.3,.3,.6,.3,.9,0,1.2,.8,2,1.9,2.4,1,.8,1.4,1.9,1.4,3.1,.2-2.8-2.6-4.1-3.4-6.4-.5-.8-1.4-1.4-1.7-2.4-.5-.8-.4-1.6,.7-1.3,5.6,1.6,11.2,1.2,17.6-.3-2,2.5-3.6,4.4-5.1,6.3-.8,1.9-.9,3.9-1.2,5.9,.5-1.8-.3-4,1.8-5.2,3.8-3.9,7-8.5,12.8-9.9,2.1-.6,4.1-.7,5.3,1.6,.2,.3,.5,.6,.7,.9,.5,1,1.2,1.8,2.3,2.2,2.8,2.5,3.4,5.4,2.3,9-.7,2.5-1.7,4.9-1.7,7.5-.2,0-.3,.2-.5,.3-2.7-.6-1.5-3.1-2.4-4.7-.3-1.6-.7-3.2-.6-4.8,.2-1.2,1.7-1.5,1.8-2.7-3.6-1.8-5.6,1.4-8.2,2.6-.6,.3-1.1,.6-1.8,.7-1,0-1,1-1.2,1.6-2.4,3.8-4.1,8.3-8.7,10.3-3.1,1.5-6.3,1.9-9.5,.5-1.5-.7-3.1-1.4-4.3-2.5-2.6-4.3-5.4-8.6-9.8-11.3-1.7-1.5-3.5-2.6-5.9-2.6-.4-.3-.4,.1-.4,.1,3.4,1.2,1.1,3.5,1.2,5.4-1,2.9-.9,6-2,8.9-.6,1.8-.6,3.7-.4,5.6,.2,2.3,1,4.4,3.5,5.3,1.9,.6,2.6,1.8,1.7,3.8-1.5,1.3-2.7-.1-4-.5-4.6-3-5.3-4.9-3.9-11.6Z"/>
      <path class="cls-41" d="M12.9,49.7c-.1-1,.3-2.2-1.1-2.8-5.1-2.2-6.6-7-3.9-12.2,1.2-1.1,2.6-.8,4-.9,1.5,0,3,.4,4.4,1.2,1.5,1.4,.4,2.5-.3,3.7,0,0,.1,.2,.2,.2,.2-.1,.4-.3,.6-.4,2.3-.5,2.4-2.9,3.8-4.2,1.3-.6,2.6-.5,3.9-.2,1.5,.8,3,1.6,4.5,2.4,3.8,1.8,7.5,1.4,11.1-.7,3.1-1.7,6.2-3.4,9.6-.5,.8,.7,1.3,1.7,2,2.6-.4-1-1.2-1.9-.3-3,1.2-1,2.7-1.2,4.2-1.2,1.8-.3,3.7,.6,5.4-.6,0,0,0,0,0,0,1.7,2.8,3.1,5.6,3,9-.8,2.8-1.9,5.3-5,6.2-.3,0-.6,0-.9,0-.9,0-1.1,.9-1.5,1.4-2.5,2-5.1,1.8-7.6,.3-2.1-1.2-3.9-1-5.9,.3-2.3,1.5-4.8,2.6-7.5,3-4.5,.5-8-1.7-11.6-3.8-1.9-1.1-3.5-.1-5.2,.6-2,.9-4.2,1.9-5.7-.8Z"/>
      <path class="cls-20" d="M57.9,48.3c3.1-.9,4.3-3.7,6-6,.8,3-.4,5.6-2.6,7.4-7.2,5.8-11.4,13.2-13.7,22-1.6,6-3.8,6.9-10,6.6-3.2-.2-6.5,0-9.7,0-3.2,0-5.9-1.2-6.7-4.3-2.5-10.2-7.8-18.5-15.6-25.6-3.1-2.8-2.3-7.1-.3-10.7,.1,2.2,0,4.5,.5,6.6,.5,2,1.9,3.8,4.3,4.2,.4,.8,.9,1.6,1.8,1.9,6.2,1.9,7.6,7.4,9.4,12.5,.5,1.5,.8,3.1,1.2,4.7,1.8,6,1.9,6.1,8.3,6.1,2.5,0,5,0,7.5,0q5.6,0,7-5.5c1.4-4.1,2.1-8.4,4.5-12.1,1.4-2.2,2.5-4.6,5.5-5.1,1.3-.2,1.7-1.7,2.7-2.4Z"/>
      <path class="cls-10" d="M5.6,11.6c-.4,.5-.7,.6-1,0-1-.7,.9-2.9-1.5-2.9-1.5-2.1-.6-3.8,.9-5.3,1.6-1.5,3.4-1.2,5.1,0,2.7,1.8,5.1,3.9,7.4,6.2,1.4,1.4,0,1.2-.7,1.4-2.4,.6-4.6,1.8-6.8,2.9-1.1,.4-2.7,2.6-2.9-.7,.4-.7,.4-1.4,.1-2.2-.2,.3-.5,.5-.8,.7Z"/>
      <path class="cls-19" d="M61.5,12.3c-.2,5.4-2.5,.3-3.7,.7-1.6-.5-3.2-1.1-4.6-2.1-.9,0-1.7-.2-2.8-.3,2.4-3.3,5.5-5.5,8.7-7.5,1.6-1,3.3-1,4.8,.4,1.2,1.1,1.8,2.4,1.4,4-.3,1.1-.9,1-1.6,.3-.6-.4-1.2-.5-1.9-.3-.6,.3-1,.8-1.2,1.4,.2,1.2,.8,2.2,.9,3.4Z"/>
      <path class="cls-3" d="M9.1,13.8c1.8-2,4-3.1,6.8-2.9,0,.4,0,.8,0,1.2-2.3,0-4.2,1.3-6.1,2.2-.2-.2-.5-.4-.7-.6Z"/>
      <path class="cls-5" d="M59.5,8.7c.7-.8,1.4-1.6,2.2-2.4,.7,.6,1.1,1.4,1.5,2.3,1.1,2.6,1.1,2.7-.8,3-1.2-.8-1.7-2.1-2.8-2.9Z"/>
      <path class="cls-1" d="M39.1,22c-.6,2.2-1.3,4.4-2.1,7.4-.4-3.4-.7-6,1.4-8,.2,.2,.5,.4,.7,.6Z"/>
      <path class="cls-27" d="M53.3,10.9c1.8,0,3.2,.9,4.6,2.1-.2,.2-.5,.4-.7,.7-1.7-.7-3.4-1.6-5.3-1.6,.5-.4,1-.8,1.4-1.2Z"/>
      <path class="cls-8" d="M3.2,8.6c1.1-.4,1.1-2.3,2.9-2.1-.1,1.8-2.1,3-1.5,5-.5-1-1-1.9-1.5-2.9Z"/>
      <path class="cls-43" d="M59.5,8.7c2,0,2.2,1.7,2.8,2.9-.3,.3-.5,.5-.8,.8-.7-1.2-2.1-2-2.1-3.7Z"/>
      <path class="cls-51" d="M5.6,11.6c.5-1.2,1.1-2.3,3.2-3-1,1.9-1.8,3.2-2.5,4.5-.2-.5-.4-1-.7-1.5Z"/>
      <path class="cls-30" d="M23.5,16.7c-1.8,.1-3.5,.1-3-2.5,1.1,.8,2.3,1.3,3,2.5Z"/>
      <path class="cls-49" d="M25.3,16.7c1,0,1.5,.8,1.8,1.6,0,.5-.3,.8-.8,.8-.7-.8-1.5-1.5-2.2-2.3,.4,0,.8,0,1.2-.1Z"/>
      <path class="cls-50" d="M60.2,16.7c-1.7,.2-2.5-.5-2.3-2.2,1.1,.4,1.9,1.1,2.3,2.2Z"/>
      <path class="cls-16" d="M63.1,8.6c-.8-.6-1.6-1.1-1.5-2.3,1.1,0,1.9,.4,2.1,1.5-.2,.3-.5,.5-.7,.8Z"/>
      <path class="cls-14" d="M46,67.9c-.9,6-1.7,6.7-7.5,6.6-3.5,0-7-.2-10.4,0-3.4,.3-5-1.4-5.9-4.4-.9-3.3-1.7-6.7-2.9-10-1.5-4-3-8.2-7.8-9.6-1-.3-1.6-1.2-1.4-2.4,1,.4,1.9,.9,2.9,1.3,2.1,1.5,4.2,1.1,6-.4,1.8-1.5,3.4-1.4,5.3-.4,.2,.2,.3,.4,.2,.6,0,.2,0,.3-.1,.3-2.9,3.4-4.3,7.2-2.2,11.5,.4,.8,.6,1.6,.7,2.5,.4,2.2,.5,4.4,3.8,3.9,.5,0,.9,.8,1.2,1.3,.2,.2,.3,.4,.4,.6,.1,.5,.2,1,.4,1.4,0-.4-.2-.8-.3-1.2,0-.5-.5-.8-.7-1.3-1.8-2.5-4.5-4.2-5.4-7.4-1.4-4.8,1-8.2,6.1-8.4,1.2,.3,2.4,.8,3.6,1.1,1.1,.1,2.3,.2,3.4,0,.6,0,1.1-.5,1.7-.8,.9-.4,1.8,.1,2.7-.3,5.9,.2,8.4,4.8,5.6,10-.8,1.5-3.1,2.3-2.3,4.6,.6,.7,1.2,.7,1.7-.2,.2-.3,.5-.4,.8-.4,.5,.2,.8,.6,.5,1.1Z"/>
      <path class="cls-11" d="M49.6,36.3c-3.2-3-6.4-.8-9.6,.1-.8,.4-.9,0-.9-.7,4.6-1.7,5.1-6.9,8.3-9.8,.4-.6,.6-1.4,1.4-1.5,.5-.3,1-.5,1.5-.8,.6-.3,1,0,1.4,.5,2.2,2.6,2.3,5.8,3,8.9,.4,.5,1,.9,.8,1.7-1.5,.3-2.9,.6-4.4,.9-.4,.5-.8,1.1-1.6,.7Z"/>
      <path class="cls-28" d="M16.6,35.6c-1.5-.3-2.9-.7-4.4-1-.2-.8,.4-1.2,.8-1.7,.5-3.3,1.9-6.4,2.5-9.7,0-.3,.3-.6,.5-.9,4.5,2.8,7.5,6.9,9.6,11.6,.1,.8,0,1.2-.9,.9h-4.2c-.7,.7-1.2,1.5-2.3,1.6-.8,0-1.1-.6-1.6-.9Z"/>
      <path class="cls-17" d="M51.2,24.3c-.3-.3-.5-.5-.8-.8,2-1.7,3.9-3.5,6.6-3.7,1.4-.1,3.1-.5,3.8,1.4-.9,.8-2.5,.9-2.8,2.4,0,1.7,1.1,3.3,.7,5,.3,.7,.5,1.4-.4,1.8-1.2-.3-1.2-1.4-1.5-2.3q-1.4-4.5-5.6-3.8Z"/>
      <path class="cls-33" d="M16,22.4c0,.3,0,.7,0,1-2.9-.7-3.9,1.9-5.5,3.3-.6-.2-.9-.5-.6-1.1-.2-1.8,2-5-2.9-4.4,3.8-2.4,6.5-1.3,9.1,1.2Z"/>
      <path class="cls-34" d="M9.8,25.6c.2,.3,.5,.6,.7,.9,.2,.1,.5,.3,.4,.5-.4,2.8,.6,5,2.7,6.9-.5,.2-1,.5-1.5,.7-1.4,0-2.9,0-4.3,0,.8-3,.5-6.2,1.9-9Z"/>
      <path class="cls-36" d="M39.2,35.6c.3,.2,.6,.5,.9,.7-3.7,2.4-7.5,2.5-11.4,.5,0-.7,0-1.1,.9-.7,3.3,1.1,6.5,1,9.7-.6Z"/>
      <path class="cls-39" d="M26.3,19.1c.3-.3,.5-.6,.8-.8,2.9,2.8,4.9,6,3.6,10.3-1.1-1.8-.4-4.3-2-5.9-1.3-.6-1.7-1.9-2.3-2.9,0-.2,0-.4-.1-.6Z"/>
      <path class="cls-24" d="M58,30.3c.2-.6,.5-1.1,.7-1.7,1.8,1.1-1,4.3,2.2,4.6-1.4,2-3.4,1.5-5.3,1.4-.5-.2-1-.4-1.5-.7,.5-2.1,3-2,3.9-3.7Z"/>
      <path class="cls-52" d="M58,23.6c-1.9-4.2,2.1-1.3,2.8-2.4-.4,1.4-1.5,2.1-2.8,2.4Z"/>
      <path class="cls-46" d="M29.5,36.2c-.3,.2-.6,.5-.9,.7-1.3-.7-2.7-1.3-4-2,.3-.3,.6-.6,.9-.9,1.3,.7,2.6,1.4,3.9,2.2Z"/>
      <path class="cls-37" d="M26.4,19.7c1.1,.7,2,1.6,2.3,2.9-2.6,.5-2.4-1.3-2.3-2.9Z"/>
      <path class="cls-9" d="M48.9,24.3c-.2,.8-.7,1.2-1.4,1.5,0-.9-.5-2.1,.5-2.6,.8-.4,.8,.5,1,1.1Z"/>
      <path class="cls-26" d="M39.1,53.6c-.8,.8-1.5-.3-2.2,0-.8,.5-1.4,.5-1.5-.6,2.7-.9,5.4-1.7,7.7-3.6,1.7-1.4,3.7-1.7,5.8,0,2.4,1.8,5,1.9,7.5-.2,.4-.4,.6-1.3,1.4-.8,0,0,0,0,0,0,.2,1-.3,1.9-1.1,2.2-6.6,2.7-8,8.9-9.7,14.8-.3,.9-.7,1.8-1.1,2.7-.2-.3-.5-.6-.7-1-1-2.2,.2-4.1,.9-6,.5-1.5,1.2-3,.8-4.7-1-4.7-1.7-4.9-7.8-2.7Z"/>
      <path class="cls-4" d="M35.4,52.9c.5,.2,1,.4,1.5,.6,0,.6-.2,1.2-.8,1.5-1.4-.6-2.9-.6-4.3,0-1-.6-2.3-.4-3.1-1.5-1.7-.9-4.5-.5-4.5-3.6,0-.3,0-.6,0-.9,3.4,2.2,6.9,4.2,11.2,3.9Z"/>
      <path class="cls-22" d="M40.5,44.6c.7-2.9,2-4.5,4.2-5.4,.8-.3,1.8-.5,2.2,.5,.3,.8-.4,1.6-1.1,1.6-2.3,0-2.7,2.7-5.3,3.3Z"/>
      <path class="cls-40" d="M27.2,44.6c-2.4-.8-3.1-3.4-5.5-3.4-.5,0-.8-1-.4-1.6,.3-.6,1.1-.6,1.7-.4,2.4,.8,3.7,2.6,4.3,5.5Z"/>
      <path class="cls-29" d="M18.1,36.2c.6-.8,1.5-1.1,2.4-1.3,0,2.6-.9,4.3-3.9,4.3-.8-1.7,.7-2.1,1.5-2.9Z"/>
      <path class="cls-45" d="M18.1,36.2c0,1.2-1.7,1.6-1.5,2.9-.4,.4-.9,1.1-1.2,1.1-.8-.2-.5-.9-.3-1.5,.4-1.1,1.7-1.8,1.5-3.2,.5,.2,1,.4,1.5,.6Z"/>
      <path class="cls-31" d="M49.6,36.3c.5-.2,1.1-.4,1.6-.7,.3,1.5,2.1,2.6,1.7,5.3-1.4-2-2.3-3.3-3.3-4.6Z"/>
      <path class="cls-20" d="M57.9,48.3c-.5,.3-1,.5-1.4,.8,0-.7-.3-1.6,.5-1.9,.9-.3,.8,.6,.9,1.1Z"/>
      <path class="cls-47" d="M40.7,62.6c-.5,1.6-1,3.3-1.6,4.9-.9,2.3-2.3,4.1-5.1,4.2-3,.2-4.1-2-5.1-4.1-.5-1.1-.7-2.3-1-3.5-.6-1.7-1.4-3.5-.3-5.3,1.4-2.2,11.5-2,12.8,.2,.6,1.1,.7,2.3,.3,3.6Z"/>
      <path class="cls-12" d="M40.7,62.6c-.9-3.3-1.9-6.2-6.2-3.5-.3,.2-.7,.1-1.1,0q-5.5-.8-5.6,4.9c-.7-1.1-1.6-1.4-2.8-1.8-1.3-.4-1.7-2.8-1.1-4.6,.5-1.8,1.8-3.1,3.4-2.6,4.4,1.2,8.7,.9,13.1,0,2.8-.6,3.5,2,3.7,4.1,.2,2.3-1.1,3.5-3.5,3.5Z"/>
      <path class="cls-18" d="M24.1,49.9c.9,1.9,3.2,2.2,4.5,3.6-2.6,0-4.8,.6-5.7,3.3-.9,2.6-.5,5.2,1.6,7.3,1.5,1.5,3.1,2.9,3.3,5.2h0c-1.4-1.5-2.7-1.2-4,.6-2.2-4-2.3-8.3-3.9-12.1-.8-1.9,2.4-7.4,4.1-7.8Z"/>
      <path class="cls-25" d="M39.1,53.6c.1-.2,.3-.5,.4-.6,2.2-.6,4.7-4.1,5.8-2.5,1.5,2.5,4.2,5.5,2.1,9.4-1.2,2.1-1.5,4.7-2.2,7.1,0,.2-.2,.5-.2,.7-.7,.7-1.5,.6-2.3,0-.9,0-3,.9-1.4-1.5,.8-1.1,1.8-2.1,2.6-3.2,1.7-2.1,2-4.6,.8-7-1.1-2.2-3.3-2.9-5.7-2.6Z"/>
      <path class="cls-7" d="M20.2,50.4c.7,2.1-.5,3.2-1.1,4.7q-3-2.9,1.1-4.7Z"/>
      <path class="cls-2" d="M26.9,73.6c-2.9-.7-2.9-2-1-4.1,.7,1.3,1.6,2.4,1,4.1Z"/>
      <path class="cls-35" d="M41.4,68.8c2.9,3,2.2,4.1-.3,4.8-.6-1.6,.6-2.6,.3-4.8Z"/>
      <path class="cls-55" d="M27.9,69.2c.9,1.1,1.8,2.2,3,3.6-3.4,.1-2.9-1.9-3-3.6,0,0,0,0,0,0Z"/>
      <path class="cls-42" d="M37.4,72.8c.3-1.3,1.1-2,2.4-2.3,.4,2-.3,2.8-2.4,2.3Z"/>
      <path class="cls-32" d="M42.8,67.8c.8,0,1.5,0,2.3,0,0,.7,0,1.6-.9,1.8-1.1,.2-1.2-.9-1.4-1.7Z"/>
      <path class="cls-13" d="M31.7,55c1.5-1.1,2.9-1.1,4.3,0-1.4,0-2.9,0-4.3,0Z"/>
      <path class="cls-54" d="M58,30.3c1,3.6-2.4,2.6-3.9,3.7-1.2-3.2-.7-6.8-3-9.7,.8-.5,1.7-1,2.5-1.6,1.6-1.2,2.3-.6,2.8,1.1,.7,2.1,1.2,4.3,1.5,6.5Z"/>
      <path class="cls-44" d="M50.5,27.9c0,1.2-.3,2.1-1.2,2.2-1.1,.1-1.9-.7-1.9-1.8,0-.8,.5-1.7,1.5-1.8,1.1,0,1.4,.7,1.6,1.4Z"/>
      <path class="cls-23" d="M51.8,33.9c-.4,.8-1.3,1-1.9,.7-1.2-.7-3.9,0-3.5-1.7,.4-1.8,2,1.1,3.3,.3,.6,.5,1.6-.1,2.1,.7Z"/>
      <path class="cls-15" d="M51.8,33.9c-.8,0-1.6,.2-2.1-.7,.9-.4,2.1-1.6,2.1,.7Z"/>
      <path class="cls-54" d="M13.7,34q-4.3-1.4-3.2-7.4c.1-.3,.3-.7,.3-1,.6-3.4,2.2-4.3,5-2.1,.2,.3,.7,.8,.6,.9-1.8,3-1.7,6.5-2.8,9.6Z"/>
      <path class="cls-6" d="M20.4,27.8c0,1.3-.4,2.1-1.3,2.3-.9,.1-1.7-.4-1.7-1.5,0-1,.3-1.8,1.3-1.9,1-.1,1.6,.5,1.7,1.2Z"/>
      <path class="cls-53" d="M21.9,32.9c-1.1,1.5-2.5,1.3-3.7,1.7-.5,.2-1.4-.4-1.9-.8-.4-.3-.2-.9,.2-1.3,.9-.8,1.2,.4,1.7,.6,1.2,.5,2.3-.6,3.7-.3Z"/>
      <path class="cls-21" d="M47.4,50.3c3,1,5.3,1.9,1.8,4.8-1.3-1.2-1.9-2.7-1.8-4.8Z"/>
    </g>
  </g>
</svg>