<?xml version="1.0" encoding="UTF-8"?>
<svg id="Capa_2" data-name="Capa 2" xmlns="http://www.w3.org/2000/svg" viewBox="0 0 66.7 48.9">
  <defs>
    <style>
      .cls-1 {
        fill: #fff;
      }

      .cls-2 {
        fill: #f4e600;
      }

      .cls-3 {
        fill: #626262;
      }

      .cls-4 {
        fill: #434342;
      }

      .cls-5 {
        fill: #e52521;
      }

      .cls-6 {
        fill: #d3312f;
      }

      .cls-7 {
        fill: #e77e22;
      }

      .cls-8 {
        fill: #010101;
      }
    </style>
  </defs>
  <g id="Capa_1-2" data-name="Capa 1">
    <g>
      <path class="cls-8" d="M2.2,26.7c-.7,0-1.3,0-2,0C0,26.7,0,26.6,0,26.5,0,22.2,0,17.9,0,13.6c0-.2,0-.2,.2-.2,.7,0,1.3,0,2,0,0,0,0,0,0,0,0,.2,0,.3,0,.5,0,1.1,0,2.3,0,3.4,0,.4,0,.4,.4,.4,.4,0,.9,0,1.3,0,.1,0,.3,0,.4,0,0,0,0,.1,0,.2,0,.7,0,1.3,0,2,0,0,0,0,0,0-.2,0-.4,0-.7,0-.4,0-.8,0-1.1,0-.2,0-.3,0-.3,.3,0,.5,0,1,0,1.5,0,.2,.2,.3,.3,.3,.6,0,1.2,0,1.8,0,2.1,0,4.2,0,6.3,0,.4,0,.5,0,.5,.5,0,.5,0,1,0,1.5,0,.1,0,.2,0,.4-.2,.1-.4,.1-.6,.1-2.6,0-5.1,0-7.7,0q-.6,0-.6,.6c0,.4,0,.7,0,1.1,0,.1,0,.3,0,.4,0,0,0,0,0,0Z"/>
      <path class="cls-8" d="M37.8,37.8c.7,0,1.3,0,2,0,.2,0,.3,0,.2,.3,0,1.3,0,2.6,0,3.9,0,.2,0,.3-.3,.3-4.4,0-8.7,0-13.1,0,0,0,0,0,0,0,0-.1,0-.3,0-.4,0-.4,0-.8,0-1.2,0-.7,0-.7,.7-.7,1,0,1.9,0,2.9,0,.2,0,.4,0,.6,0,.2,0,.3,0,.3-.3,0-.5,0-.9,0-1.4,0-.2,0-.3,0-.4,0,0,.2,0,.3,0,1.3,0,2.6,0,3.9,0,0,0,.1,0,.2,0,0,0,0,0,0,0,0,.2,0,.3,0,.5,0,.4,0,.9,0,1.3,0,.2,0,.3,.3,.3,.5,0,.9,0,1.4,0,.2,0,.3,0,.3-.3,0-.5,0-.9,0-1.4,0-.1,0-.3,0-.4,0,0,0,0,0,0Z"/>
      <path class="cls-8" d="M24.5,4.4c.7,0,1.3,0,2,0,.2,0,.2,0,.2,.2,0,.6,0,1.2,0,1.7,0,.2,0,.3,.3,.3,2.1,0,4.3,0,6.4,0,0,0,0,0,0,0,.1,.3,0,.6,0,.9,0,.3,0,.6,0,.9,0,.4,0,.5-.5,.5-.8,0-1.6,0-2.4,0-.4,0-.8,0-1.2,0-.3,0-.4,0-.4,.4,0,.6,0,1.2,0,1.8,0,.6,0,1.2,0,1.9,0,.4,0,.4-.4,.4-.5,0-1,0-1.6,0-.1,0-.2,0-.3,0-.1-.1,0-.3,0-.5,0-1.1,0-2.2,0-3.4q0-.5-.5-.5c-1.8,0-3.7,0-5.5,0-.2,0-.4,0-.5,0,0-.1,0-.2,0-.4,0-.5,0-1,0-1.5,0-.4,0-.5,.5-.5,1.2,0,2.3,0,3.5,0,.5,0,.5,0,.5-.5,0-.4,0-.8,0-1.2,0-.1,0-.3,0-.4,0,0,0,0,0,0Z"/>
      <path class="cls-8" d="M46.7,15.6c1.4,0,2.8,0,4.2,0,.2,0,.3,0,.3-.3,0-1.4,0-2.8,0-4.2,0,0,0,0,0,0,.2,0,.5,0,.7,0,.5,0,1,0,1.4,0,0,0,0,0,0,0,0,.1,0,.3,0,.5,0,1.1,0,2.2,0,3.3q0,.5,.5,.5c.4,0,.8,0,1.2,0,.1,0,.3,0,.4,0,0,0,0,0,0,0,.1,.7,0,1.3,0,2,0,.2-.2,.3-.4,.3-.6,0-1.3,0-1.9,0-.6,0-1.1,0-1.7,0-.4,0-.5,0-.5,.4,0,.4,0,.9,0,1.3,0,.1,0,.3,0,.4,0,0-.2,0-.3,0-.5,0-1,0-1.6,0-.4,0-.4,0-.4-.4,0-.5,0-.9,0-1.4,0-.4,0-.4-.4-.4-.4,0-.9,0-1.3,0-.1,0-.3,0-.4,0,0,0,0-.2,0-.3,0-.6,0-1.2,0-1.8,0,0,0,0,0-.1,0,0,0,0,0,0Z"/>
      <path class="cls-8" d="M40,6.7c.7,0,1.3,0,2,0,.2,0,.3,0,.3,.3,0,1.4,0,2.8,0,4.2,0,0,0,0,0,0-.3,.1-.5,0-.8,0-.3,0-.6,0-.9,0-.4,0-.4,0-.4,.4,0,.6,0,1.1,0,1.7,0,.6,0,1.2,0,1.9,0,.1,0,.2,0,.3,0,0-.1,0-.2,0-.6,0-1.3,0-1.9,0-.2,0-.3-.2-.3-.4,0-.5,0-.9,0-1.4,0-.4,0-.4-.4-.4-.4,0-.9,0-1.3,0-.1,0-.3,0-.4,0,0,0,0,0,0,0,0-.7-.1-1.5,0-2.2,.1-.1,.3,0,.4,0,.5,0,.9,0,1.4,0,.3,0,.4,0,.4-.4,0-.5,0-.9,0-1.4,0-.4,0-.4,.5-.5,.4,0,.9,0,1.3,0,.4,0,.4,0,.4-.4,0-.4,0-.8,0-1.3,0-.1,0-.3,0-.4,0,0,0,0,0,0Z"/>
      <path class="cls-8" d="M26.7,42.2c0,.6,0,1.3,0,1.9,0,.2,0,.3-.3,.3-.6,0-1.1,0-1.7,0-.2,0-.2,0-.2,.2,0,.6,0,1.2,0,1.8,0,.2,0,.2-.2,.2-.7,0-1.3,0-2,0,0,0,0,0,0,0-.1-.4,0-.9,0-1.3,0-.8,0-.7-.7-.7-.3,0-.7,0-1,0-.1,0-.3,0-.4,0,0,0,0-.2,0-.3,0-.5,0-1.1,0-1.6,0-.1,0-.2,0-.3,.1-.1,.3,0,.4,0,.4,0,.8,0,1.2,0q.6,0,.6-.5c0-1.1,0-2.2,0-3.3,0-.2,0-.3,0-.5,0,0,0,0,0,0,.7-.1,1.5-.1,2.2,0,.1,.1,0,.3,0,.5,0,1.1,0,2.3,0,3.4,0,.4,0,.4,.5,.4,.4,0,.8,0,1.3,0,.1,0,.3,0,.4,0h0Z"/>
      <path class="cls-8" d="M8.9,2.2c0-.7,0-1.3,0-2C8.9,0,8.9,0,9.1,0,12.7,0,16.2,0,19.8,0c.2,0,.2,0,.2,.2,0,.7,0,1.3,0,2,0,0,0,0,0,0-.1,0-.3,0-.5,0-3.4,0-6.7,0-10.1,0-.2,0-.3,0-.5,0,0,0,0,0,0,0Z"/>
      <path class="cls-8" d="M8.9,37.8c-.7,0-1.3,0-2,0-.2,0-.3,0-.3-.3,0-1.3,0-2.6,0-3.9,0-.2,0-.3-.3-.3-.6,0-1.2,0-1.7,0-.2,0-.2,0-.2-.2,0-.7,0-1.3,0-2,0,0,0,0,0,0,.1,0,.3,0,.4,0,1.2,0,2.3,0,3.5,0,.2,0,.3,0,.5,0,.1,.1,0,.3,0,.4,0,2,0,3.9,0,5.9,0,.1,0,.2,0,.4,0,0,0,0,0,0Z"/>
      <path class="cls-8" d="M22.2,46.7c0,.7,0,1.3,0,2,0,.2,0,.2-.2,.2-2.8,0-5.6,0-8.4,0-.2,0-.3,0-.2-.3,0-.7,0-1.3,0-2,0,0,0,0,0,0,.2,0,.4,0,.6,0,.5,0,1.1,0,1.6,0,.7,0,1.5,0,2.2,0,.7,0,1.5,0,2.2,0,.6,0,1.3,0,1.9,0,.1,0,.2,0,.3,.1h0Z"/>
      <path class="cls-8" d="M51.2,11.1c-.7,0-1.3,0-2,0-.2,0-.2,0-.2-.2,0-2.1,0-4.2,0-6.2,0-.2,0-.2,.2-.2,1.3,0,2.7,0,4,0,.2,0,.2,0,.2,.2,0,.7,0,1.3,0,2,0,0,0,0,0,0-.4,.1-.7,0-1.1,0-.2,0-.4,0-.6,0-.3,0-.4,0-.4,.4,0,.7,0,1.5,0,2.2,0,.5,0,.9,0,1.4,0,.1,0,.3,0,.4h0Z"/>
      <path class="cls-8" d="M33.4,6.7c0-.7,0-1.3,0-2,0-.2,0-.2,.2-.2,2.1,0,4.2,0,6.2,0,.2,0,.2,0,.2,.2,0,.7,0,1.3,0,2h0c-.1,.1-.3,0-.4,0-2,0-3.9,0-5.9,0-.1,0-.3,0-.4,0h0Z"/>
      <path class="cls-8" d="M60,20c.6,0,1.3,0,1.9,0,.2,0,.3,0,.3,.3,0,2.1,0,4.3,0,6.4,0,0,0,0,0,0-.3,.1-.5,0-.8,0-.4,0-.7,0-1.1,0-.1,0-.2,0-.3,0,0-.1,0-.3,0-.4,0-1.9,0-3.9,0-5.8,0-.1,0-.3,0-.4,0,0,0,0,0,0Z"/>
      <path class="cls-8" d="M44.5,28.9c-.7,0-1.3,0-2,0-.2,0-.2,0-.2-.2,0-.6,0-1.2,0-1.8,0-.2,0-.2-.2-.2-.7,0-1.3,0-2,0,0,0,0,0,0,0,0,0,0-.2,0-.3,0-.5,0-1.1,0-1.6,0-.3,0-.4,.4-.4,1.3,0,2.6,0,3.9,0,.2,0,.4,.1,.4,.4,0,1.3,0,2.6,0,4,0,0,0,.1,0,.2,0,0,0,0,0,0Z"/>
      <path class="cls-8" d="M62.3,35.6c0,.7,0,1.3,0,2,0,.2,0,.2-.2,.2-2.1,0-4.2,0-6.2,0-.2,0-.2,0-.2-.2,0-.7,0-1.3,0-2,0,0,0,0,0,0,.2,0,.4,0,.6,0,.5,0,1.1,0,1.6,0,.7,0,1.5,0,2.2,0,.6,0,1.2,0,1.9,0,.1,0,.2,0,.3,0,0,0,0,0,0,0Z"/>
      <path class="cls-8" d="M57.8,15.6c.7,0,1.3,0,2,0,.2,0,.3,0,.3,.3,0,1.4,0,2.8,0,4.2h0c0,0-.2,0-.3,0-.5,0-1,0-1.5,0-.3,0-.4,0-.4-.4,0-1.3,0-2.5,0-3.8,0,0,0-.2,0-.3,0,0,0,0,0,0Z"/>
      <path class="cls-8" d="M4.4,31.1c-.7,0-1.3,0-2,0-.2,0-.3,0-.3-.3,0-1.4,0-2.8,0-4.2h0c0,0,.2,0,.3,0,.5,0,1.1,0,1.6,0,.3,0,.4,0,.4,.4,0,1.3,0,2.5,0,3.8,0,.1,0,.2,0,.3,0,0,0,0,0,0Z"/>
      <path class="cls-8" d="M55.6,11.1c.7,0,1.3,0,2,0,.2,0,.3,0,.3,.3,0,1.4,0,2.8,0,4.2h0c0,0-.2,0-.3,0-.5,0-1.1,0-1.6,0-.1,0-.2,0-.3,0h0c0-.1,0-.2,0-.4,0-1.2,0-2.5,0-3.7,0-.1,0-.2,0-.3,0,0,0,0,0,0Z"/>
      <path class="cls-8" d="M20,2.2c1.4,0,2.8,0,4.2,0,.2,0,.3,0,.3,.3,0,.6,0,1.3,0,1.9,0,0,0,0,0,0-.1,.1-.3,0-.4,0-1.2,0-2.4,0-3.6,0-.4,0-.5,0-.5-.5,0-.5,0-1,0-1.4,0-.1,0-.3,0-.4h0Z"/>
      <path class="cls-8" d="M64.5,28.9c.7,0,1.3,0,2,0,.2,0,.2,0,.2,.2,0,1.3,0,2.7,0,4,0,.2,0,.2-.2,.2-.7,0-1.3,0-2,0,0,0,0,0,0,0,0-.1,0-.2,0-.4,0-1.2,0-2.4,0-3.6,0-.1,0-.2,0-.4,0,0,0,0,0,0Z"/>
      <path class="cls-8" d="M4.5,8.9c0-1.4,0-2.8,0-4.2,0-.2,0-.3,.3-.3,.6,0,1.3,0,1.9,0,0,0,0,0,0,0,0,.2,0,.4,0,.6,0,.5,0,1.1,0,1.6,0,.6,0,1.3,0,1.9,0,.1,0,.2,0,.3,0,0,0,0-.1,0-.7,0-1.4,0-2.1,0,0,0,0,0,0,0Z"/>
      <path class="cls-8" d="M37.8,31.1c.7,0,1.3,0,2,0,.2,0,.2,0,.2,.2,0,1.3,0,2.7,0,4,0,.2,0,.2-.2,.2-.7,0-1.3,0-2,0,0,0,0,0,0,0,0-.1,0-.2,0-.4,0-1.2,0-2.4,0-3.6,0-.1,0-.2,0-.4,0,0,0,0,0,0Z"/>
      <path class="cls-8" d="M51.1,33.4c-1.4,0-2.8,0-4.2,0-.2,0-.3,0-.3-.3,0-.6,0-1.3,0-1.9,0,0,0,0,0,0,.2,0,.4,0,.6,0,.5,0,1.1,0,1.6,0,.6,0,1.2,0,1.9,0,.1,0,.2,0,.4,0,0,0,0,.2,0,.3,0,.6,0,1.2,0,1.8,0,0,0,.1,0,.2,0,0,0,0,0,0Z"/>
      <path class="cls-8" d="M55.6,35.6c-1.4,0-2.8,0-4.2,0-.2,0-.3,0-.3-.3,0-.6,0-1.3,0-1.9h0c.1-.1,.3-.1,.4-.1,1.2,0,2.4,0,3.6,0,.5,0,.5,0,.5,.5,0,.5,0,.9,0,1.4,0,.1,0,.3,0,.4h0Z"/>
      <path class="cls-8" d="M53.4,6.7c.7,0,1.3,0,2,0,.2,0,.3,0,.3,.3,0,1.4,0,2.8,0,4.2h0c0,0-.2,0-.3,0-.5,0-1.1,0-1.6,0-.1,0-.2,0-.3,0h0c-.1-.1-.1-.3-.1-.4,0-1.2,0-2.4,0-3.6,0-.1,0-.3,0-.4h0Z"/>
      <path class="cls-8" d="M2.2,13.3c0-1.4,0-2.8,0-4.2,0-.2,0-.3,.3-.3,.6,0,1.3,0,1.9,0h0c0,.1,0,.2,0,.3,0,.6,0,1.3,0,1.9,0,.6,0,1.2,0,1.9,0,.4,0,.4-.4,.4-.5,0-1,0-1.5,0-.1,0-.2,0-.3,0h0Z"/>
      <path class="cls-8" d="M11.1,42.2c-.7,0-1.3,0-2,0-.2,0-.3,0-.3-.3,0-1.4,0-2.8,0-4.2h0c0,0,.2,0,.3,0,.5,0,1.1,0,1.6,0,.3,0,.4,0,.4,.4,0,1.3,0,2.6,0,3.9,0,0,0,.2,0,.2,0,0,0,0,0,0Z"/>
      <path class="cls-8" d="M13.3,46.7c-.7,0-1.3,0-2,0-.2,0-.3,0-.3-.3,0-1.4,0-2.8,0-4.2h0c0,0,.2,0,.3,0,.5,0,1.1,0,1.6,0,.3,0,.4,0,.4,.4,0,1.3,0,2.5,0,3.8,0,.1,0,.2,0,.3h0Z"/>
      <path class="cls-8" d="M40,26.7c0,.7,0,1.3,0,2,0,.2,0,.2-.2,.2-.7,0-1.3,0-2,0,0,0,0,0,0,0-.1-.3,0-.6,0-.9,0-.3,0-.7,0-1,0-.2,0-.3,.3-.3,.6,0,1.2,0,1.9,0,0,0,.1,0,.2,0h0Z"/>
      <path class="cls-8" d="M6.7,4.4c0-.7,0-1.3,0-2,0-.2,0-.2,.2-.2,.7,0,1.3,0,2,0h0s0,.1,0,.2c0,.7,0,1.3,0,2,0,0,0,0,0,0-.5,.1-1,0-1.5,0-.2,0-.4,0-.6,0h0Z"/>
      <path class="cls-8" d="M62.3,26.7c.7,0,1.3,0,2,0,.2,0,.2,0,.2,.2,0,.7,0,1.3,0,2h0c0,0-.2,0-.3,0-.6,0-1.1,0-1.7,0,0,0-.2,0-.3,0,0,0,0,0,0,0,0-.7,0-1.4,0-2.1,0,0,0,0,0-.1h0Z"/>
      <path class="cls-8" d="M37.8,28.9c0,.7,0,1.5,0,2.2h0c0,0-.2,0-.3,0-.6,0-1.1,0-1.7,0-.1,0-.2,0-.3,0,0,0,0-.1,0-.2,0-.6,0-1.2,0-1.8,0-.2,0-.3,.3-.3,.6,0,1.2,0,1.9,0,0,0,.1,0,.2,0h0Z"/>
      <path class="cls-8" d="M46.7,31.1c-.7,0-1.3,0-2,0-.2,0-.2,0-.2-.2,0-.7,0-1.3,0-2h0c0,0,.2,0,.3,0,.5,0,1.1,0,1.6,0,.3,0,.4,0,.4,.4,0,.5,0,1,0,1.6,0,.1,0,.2,0,.3h0Z"/>
      <path class="cls-8" d="M42.3,11.1c.7,0,1.3,0,2,0,.2,0,.2,0,.2,.2,0,.7,0,1.3,0,2,0,0,0,0,0,0-.2,0-.5,0-.7,0-.5,0-1,0-1.4,0,0,0,0,0,0,0,0-.7,0-1.3,0-2,0,0,0-.1,0-.2h0Z"/>
      <path class="cls-8" d="M64.5,33.4c0,.7,0,1.3,0,2,0,.2,0,.2-.2,.2-.7,0-1.3,0-2,0,0,0,0,0,0,0,0,0,0-.2,0-.3,0-.6,0-1.1,0-1.7,0,0,0-.2,0-.3,0,0,0,0,0,0,.7,0,1.4,0,2.1,0,0,0,0,0,.1,0h0Z"/>
      <path class="cls-8" d="M37.8,35.6c0,.7,0,1.5,0,2.2h0c0,0-.2,0-.3,0-.5,0-1.1,0-1.6,0-.1,0-.2,0-.3,0h0c0,0,0-.2,0-.3,0-.6,0-1.1,0-1.7,0-.2,.1-.3,.3-.3,.6,0,1.1,0,1.7,0,0,0,.2,0,.3,0h0Z"/>
      <path class="cls-8" d="M44.5,13.3c.7,0,1.3,0,2,0,.2,0,.2,0,.2,.2,0,.7,0,1.3,0,2h0c0,0-.2,0-.3,0-.6,0-1.1,0-1.7,0-.1,0-.2,0-.3,0-.1-.7-.2-1.5,0-2.2h0Z"/>
      <path class="cls-6" d="M11.1,24.5c0-.6,0-1.3,0-1.9,0-.2,0-.3-.3-.3-2.1,0-4.3,0-6.4,0,0,0,0-.2-.1-.3,0-.5,0-1.1,0-1.6,0-.1,0-.2,0-.3h0c.1-.1,.3,0,.4,0,.5,0,.9,0,1.4,0,.3,0,.3,0,.3-.3,0-.5,0-.9,0-1.4,0-.2,0-.3,0-.4,.2-.1,.3,0,.5,0,1.1,0,2.3,0,3.4,0,.4,0,.5,0,.5-.4,0-.4,0-.8,0-1.3,0-.1,0-.3,0-.4,.1,0,.2,0,.3,0,.6,0,1.2,0,1.9,0,.6,0,1.1,0,1.7,0q.5,0,.5-.5c0-.4,0-.8,0-1.2,0-.1,0-.3,0-.4,.2-.1,.3,0,.5,0,1.1,0,2.3,0,3.4,0,.4,0,.4,0,.4-.4,0-.4,0-.9,0-1.3,0-.1,0-.3,0-.4,.1,0,.3,0,.4,0,1.2,0,2.4,0,3.6,0,.5,0,.5,0,.5,.5,0,.6,0,1.2,0,1.8,0,.6,0,1.3,0,1.9,0,.4,0,.4-.5,.5-.5,0-.9,0-1.4,0-.3,0-.3,0-.3,.3,0,.5,0,.9,0,1.4,0,.4,0,.4-.5,.5-.5,0-.9,0-1.4,0-.2,0-.4,0-.3,.3,0,.5,0,.9,0,1.4,0,.1,0,.3,0,.4-.1,.1-.3,.1-.4,.1-.5,0-.9,0-1.4,0-.3,0-.4,0-.4,.4,0,.5,0,.9,0,1.4,0,.2,0,.3,.3,.3,.5,0,.9,0,1.4,0,.2,0,.3,0,.3-.3,0-.5,0-.9,0-1.4,0-.2,0-.3,.1-.4,0,0,.1,0,.2,0,.6,0,1.2,0,1.8,0,.3,0,.3,.2,.3,.4,0,.6,0,1.3,0,1.9,0,.6,0,1.3,0,1.9,0,.4,0,.4-.4,.4-.6,0-1.3,0-1.9,0-.7,0-1.5,0-2.2,0-.7,0-1.5,0-2.2,0-1.4,0-2.7,0-4.1,0-.1,0-.2,0-.3,0,0,0,0,0,0,0Z"/>
      <path class="cls-4" d="M4.5,31.1c0-1.4,0-2.7,0-4.1,0-.2,0-.3-.3-.3-.6,0-1.3,0-1.9,0,0-.6,0-1.3,0-1.9,0-.3,.1-.3,.4-.3,2.7,0,5.4,0,8.1,0,.1,0,.3,0,.4,0,0,0,0,0,0,0,0,0,0,.1,0,.2,0,.7,0,1.3,0,2,0,0,0,0,0,0-.4,.1-.7,0-1.1,0-.2,0-.4,0-.6,0-.4,0-.4,0-.4,.4,0,1.1,0,2.3,0,3.4,0,.2,0,.3,0,.5,0,0,0,0,0,0-1.5,0-3,0-4.4,0Z"/>
      <path class="cls-4" d="M2.2,13.3c.6,0,1.3,0,1.9,0,.2,0,.3,0,.3-.3,0-.6,0-1.3,0-1.9,0,0,.2,0,.3,0,.6,0,1.2,0,1.7,0,0,0,.2,0,.2,0,0,0,0,.2,0,.3,0,1.3,0,2.6,0,3.8,0,0,0,.2,0,.2,0,0,0,0,0,0-.3,.1-.6,0-.9,0-.3,0-.6,0-.9,0-.2,0-.3,0-.3,.3,0,.5,0,.9,0,1.4,0,.1,0,.3,0,.4,0,0,0,0,0,0-.6,0-1.3,0-1.9,0-.2,0-.3,0-.3-.3,0-1.4,0-2.8,0-4.2Z"/>
      <path class="cls-4" d="M6.7,17.8c0,.7,0,1.3,0,2,0,.2,0,.3-.3,.3-.7,0-1.3,0-2,0,0-.7,0-1.5,0-2.2,0,0,0,0,0,0,0,0,.2,0,.3,0,.6,0,1.2,0,1.8,0,0,0,.1,0,.2,0,0,0,0,0,0,0Z"/>
      <path class="cls-4" d="M4.5,20c0,.7,0,1.5,0,2.2-.7,0-1.3,0-2,0-.2,0-.3,0-.3-.2,0-.6,0-1.2,0-1.8,0-.2,0-.2,.3-.2,.7,0,1.3,0,2,0Z"/>
      <path class="cls-4" d="M37.8,35.6c-.7,0-1.3,0-2,0-.2,0-.3,0-.3,.3,0,.7,0,1.3,0,2-1.5,0-3,0-4.5,0,0,0,0,0,0,0-.1-.5,0-1,0-1.6,0-.2,0-.4,0-.6,.1-.1,.3,0,.4,0,.5,0,.9,0,1.4,0,.3,0,.3,0,.3-.3,0-.5,0-.9,0-1.4,0-.4,0-.5,.5-.5,.5,0,.9,0,1.4,0,.4,0,.4,0,.4-.4,0-.4,0-.9,0-1.3,0-.1,0-.3,0-.4,0,0,0,0,0,0,.7,0,1.5,0,2.2,0,0,1.5,0,3,0,4.4Z"/>
      <path class="cls-6" d="M26.7,42.2c-.7,0-1.3,0-2,0-.2,0-.3,0-.3-.3,0-1.4,0-2.8,0-4.2,0,0,0,0,0,0,.1,0,.3,0,.5,0,1.9,0,3.8,0,5.7,0,.2,0,.4,0,.5,.1,0,0,0,0,0,0,0,.7,0,1.3,0,2,0,.2,0,.3-.3,.3-1.3,0-2.6,0-3.9,0-.3,0-.3,0-.3,.3,0,.6,0,1.3,0,1.9Z"/>
      <path class="cls-4" d="M35.6,37.8c.7,0,1.5,0,2.2,0,0,.6,0,1.3,0,1.9,0,.2,0,.3-.3,.3-.5,0-1.1,0-1.6,0-.2,0-.3,0-.3-.3,0-.6,0-1.3,0-1.9Z"/>
      <path class="cls-5" d="M8.9,4.5c0-.7,0-1.5,0-2.2h11.1c0,.7,0,1.3,0,2,0,.2,0,.3,.3,.3,1.4,0,2.8,0,4.2,0,0,.7,0,1.3,0,2,0,.2,0,.3-.3,.3-1.3,0-2.6,0-3.9,0-.3,0-.3,0-.3,.3,0,.6,0,1.3,0,1.9,0,0,0,0,0,0-.1,0-.3,0-.4,0-1.2,0-2.3,0-3.5,0-.2,0-.3,0-.5,0,0-.1,0-.2,0-.3,0-.5,0-1,0-1.5,0-.4,0-.4,.4-.4,.5,0,.9,0,1.4,0,.3,0,.4,0,.4-.4,0-.4,0-.9,0-1.3,0-.3,0-.4-.4-.4-1.2,0-2.5,0-3.7,0,0,0-.2,0-.3,0-1.4,0-2.7,0-4.1,0-.1,0-.2,0-.3,0Z"/>
      <path class="cls-3" d="M33.4,6.7h6.7c0,.6,0,1.3,0,1.9,0,.3,0,.4-.3,.3-.5,0-1.1,0-1.6,0-.2,0-.3,0-.3,.3,0,.6,0,1.2,0,1.7,0,.2,0,.2-.2,.2-.7,0-1.3,0-2,0-.1,0-.3,0-.4,0-2,0-3.9,0-5.9,0-.1,0-.3,0-.4-.1,0-.7,0-1.3,0-2,0-.2,0-.3,.3-.2,1.3,0,2.5,0,3.8,0,.3,0,.4,0,.4-.3,0-.6,0-1.3,0-1.9Z"/>
      <path class="cls-4" d="M28.9,11.1c2.2,0,4.4,0,6.7,0,0,.7,0,1.5,0,2.2,0,0,0,0,0,0-.5,.1-.9,0-1.4,0-.8,0-.7,0-.7,.7,0,.5,0,.9,0,1.4,0,0,0,0,0,0-.5,.1-1,0-1.4,0-.7,0-.7,0-.7,.7,0,.4,0,.8,0,1.2,0,.2,0,.4-.3,.4-.7,0-1.3,0-2,0,0,0,0,0,0,0,0-.2,0-.5,0-.8,0-.3,0-.7,0-1,0-.2,0-.3-.3-.3-.5,0-.9,0-1.4,0-.4,0-.5,0-.5-.5,0-.5,0-1,0-1.4,0-.1,0-.2,0-.3,0,0,0,0,0,0,.7,0,1.3,0,2,0,.2,0,.3,0,.3-.3,0-.7,0-1.3,0-2Z"/>
      <path class="cls-3" d="M24.5,13.3c0-.7,0-1.3,0-2,0-.2,0-.3-.3-.3-1.4,0-2.8,0-4.2,0,0,0,0,0,0,0-.1-.2,0-.5,0-.7,0-.4,0-.7,0-1.1,0-.1,0-.3,0-.4,0,0,0,0,0,0,2.1,0,4.2,0,6.4,0,.3,0,.3,0,.3,.3,0,1.4,0,2.8,0,4.1,0,0,0,0,0,0,0,0-.2,0-.3,0-.5,0-1.1,0-1.6,0-.1,0-.2,0-.3,0Z"/>
      <path class="cls-3" d="M55.6,15.6c.7,0,1.5,0,2.2,0,0,1.4,0,2.8,0,4.2,0,.2,0,.3,.3,.3,.6,0,1.3,0,1.9,0,0,2.2,0,4.4,0,6.7-.1,.1-.3,0-.4,0-.4,0-.9,0-1.3,0-.4,0-.4,0-.4,.4,0,.4,0,.9,0,1.3,0,.4,0,.5-.5,.5-.6,0-1.2,0-1.8,0-.6,0-1.3,0-1.9,0-.4,0-.4,0-.4-.4,0-.4,0-.8,0-1.3,0-.5,0-.5-.5-.5-.5,0-1,0-1.6,0,0,0,0,0,0,0-.1-.3,0-.7,0-1,0-.2,0-.5,0-.7,0-.3-.1-.3-.3-.3-.5,0-.9,0-1.4,0-.1,0-.3,0-.4,0,0-.1,0-.3,0-.4,0-.5,0-.9,0-1.4,0-.2,0-.3-.3-.3-.5,0-.9,0-1.4,0-.2,0-.3,0-.4,0,0,0,0-.2,0-.3,0-.6,0-1.3,0-1.9,0-.6,0-1.2,0-1.9,0-.1,0-.2,0-.3,0,0,0,0,0,0,.6,0,1.3,0,1.9,0,.2,0,.3,0,.3,.3,0,.6,0,1.1,0,1.7,0,.2,0,.3,.3,.3,.6,0,1.3,0,1.9,0,.1,0,.3,0,.4,0,.5,0,.9,0,1.4,0,.2,0,.4,0,.3-.3,0-.5,0-.9,0-1.4,0-.1,0-.3,.1-.4,.6,0,1.3,0,1.9,0,.2,0,.3,0,.3-.3,0-.6,0-1.3,0-1.9Z"/>
      <path class="cls-3" d="M53.4,11.1c.7,0,1.5,0,2.2,0,0,1.5,0,3,0,4.4-.6,0-1.3,0-1.9,0-.2,0-.3,0-.3-.3,0-1.4,0-2.8,0-4.2Z"/>
      <path class="cls-3" d="M53.4,6.7c0,1.5,0,3,0,4.4-.7,0-1.5,0-2.2,0,0-1.4,0-2.8,0-4.2,0-.2,0-.3,.3-.3,.6,0,1.3,0,1.9,0Z"/>
      <path class="cls-3" d="M44.5,15.6c.7,0,1.5,0,2.2,0,0,.7,0,1.5,0,2.2,0,0,0,0,0,0,0,0-.2,0-.3,0-.6,0-1.1,0-1.7,0,0,0-.2,0-.3,0,0,0,0-.2,0-.3,0-.6,0-1.2,0-1.8,0,0,0,0,0-.1,0,0,0,0,0,0Z"/>
      <path class="cls-4" d="M53.4,17.8c0,.6,0,1.3,0,1.9,0,.2,0,.3-.3,.3-.7,0-1.3,0-2,0,0-.6,0-1.3,0-1.9,0-.2,0-.3,.3-.3,.7,0,1.3,0,2,0Z"/>
      <path class="cls-3" d="M42.3,11.1v2.2c0,0-.2,0-.3,0-.5,0-1.1,0-1.6,0-.1,0-.2,0-.3-.1,0-.7,0-1.3,0-2,0-.2,0-.3,.3-.3,.7,0,1.3,0,2,0Z"/>
      <path class="cls-4" d="M40,13.3c.7,0,1.5,0,2.2,0,0,0,0,0,0,0,0,0,0,.1,0,.2,0,.7,0,1.3,0,2,0,0,0,0,0,0-.5,.1-1,0-1.6,0-.2,0-.5,0-.7,0h0c0-.7,0-1.5,0-2.2Z"/>
      <path class="cls-4" d="M15.6,24.5c.7,0,1.5,0,2.2,0,.1,.1,0,.3,0,.5,0,1.8,0,3.7,0,5.5q0,.6,.6,.6c.4,0,.7,0,1.1,0,.1,0,.3,0,.4,0,.1,.1,0,.3,0,.4,0,.5,0,.9,0,1.4,0,.2,0,.3,.3,.3,.5,0,.9,0,1.4,0,.1,0,.3,0,.4,0,0,0,0,.1,0,.2,0,.7,0,1.4,0,2,0,0,0,0,0,0-.2,0-.5,0-.8,0-.5,0-1,0-1.4,0-1.3,0-2.6,0-3.9,0-.5,0-.5,0-.5,.5,0,1.1,0,2.3,0,3.4,0,.4,0,.4,.4,.4,.5,0,.9,0,1.4,0,.4,0,.4,0,.5,.5,0,.5,0,.9,0,1.4,0,.2,0,.4,.3,.3,.5,0,.9,0,1.4,0,.1,0,.3,0,.4,.1,0,.7,0,1.5,0,2.2,0,0,0,.2,0,.3,0,.5,0,1.1,0,1.6,0,.1,0,.2,0,.3h-2.2c-.1-.1,0-.3,0-.4,0-.5,0-.9,0-1.4,0-.2,0-.3-.3-.3-.5,0-.9,0-1.4,0-.2,0-.3,0-.3,.3,0,.5,0,.9,0,1.4,0,.1,0,.3,0,.4-.7,0-1.5,0-2.2,0,0-1.4,0-2.7,0-4.1,0-.2,0-.3-.3-.3-.6,0-1.3,0-1.9,0,0-1.4,0-2.7,0-4.1,0-.2,0-.3-.3-.3-.6,0-1.3,0-1.9,0,0-2.2,0-4.4,0-6.7,0,0,0,0,0,0,.1-.1,.3,0,.4,0,.4,0,.9,0,1.3,0,.4,0,.4,0,.4-.4,0-1.2,0-2.3,0-3.5,0-.2,0-.3,0-.5h0c.1-.1,.3,0,.5,0,1.1,0,2.2,0,3.2,0,.7,0,.6,0,.6-.6,0-.4,0-.7,0-1.1,0-.1,0-.3,0-.4Z"/>
      <path class="cls-3" d="M20,42.2c-.6,0-1.3,0-1.9,0-.3,0-.4,0-.4-.4,0-.5,0-1.1,0-1.6,0-.2,0-.3-.3-.3-.6,0-1.1,0-1.7,0-.2,0-.3,0-.3-.3,0-1.3,0-2.6,0-3.9,0-.2,0-.3,.3-.3,1.4,0,2.8,0,4.2,0,.1,.1,0,.3,0,.4,0,.5,0,.9,0,1.4,0,.3,0,.3,.3,.3,.4,0,.9,0,1.3,0,.1,0,.3,0,.4,0,0,0,0,0,0,0,0,1.4,0,2.8,0,4.2,0,.2,0,.3-.3,.3-.6,0-1.3,0-1.9,0Z"/>
      <path class="cls-4" d="M24.5,37.8c-.7,0-1.5,0-2.2,0,0,0,0,0,0,0,0,0,0-.2,0-.3,0-.5,0-1.1,0-1.6,0-.1,0-.2,0-.3h0c0,0,.2,0,.3,0,.6,0,1.1,0,1.7,0,.1,0,.2,0,.3,0,.1,.7,.2,1.5,0,2.2,0,0,0,0,0,0Z"/>
      <path class="cls-1" d="M20,46.7c0-.7,0-1.5,0-2.2,.7,0,1.4,0,2,0,.2,0,.2,0,.2,.2,0,.7,0,1.3,0,2-.7,0-1.5,0-2.2,0Z"/>
      <path class="cls-1" d="M15.6,46.7c0-.7,0-1.4,0-2,0-.1,0-.2,.2-.2,.6,0,1.2,0,1.8,0,.1,0,.2,0,.2,.2,0,.7,0,1.4,0,2-.7,0-1.5,0-2.2,0Z"/>
      <path class="cls-4" d="M55.6,28.9c.7,0,1.3,0,2,0,.2,0,.3,0,.3-.3,0-.5,0-1.1,0-1.6,0-.3,0-.4,.4-.4,.6,0,1.3,0,1.9,0,.7,0,1.5,0,2.2,0,0,.7,0,1.5,0,2.2-.1,.1-.3,.1-.4,.1-.5,0-.9,0-1.4,0-.3,0-.3,0-.3,.3,0,.4,0,.9,0,1.3,0,.5,0,.6-.6,.6-.4,0-.9,0-1.3,0-.3,0-.4,0-.4,.4,0,1.2,0,2.3,0,3.5,0,.2,0,.3,0,.5-.7,0-1.5,0-2.2,0,0-.6,0-1.3,0-1.9,0-.3,0-.3-.3-.3-1.4,0-2.7,0-4.1,0,0-.7,0-1.5,0-2.2,0,0,0,0,0,0,.1,0,.3,0,.5,0,1.1,0,2.3,0,3.4,0,.4,0,.4,0,.4-.4,0-.4,0-.9,0-1.3,0-.1,0-.3,0-.4Z"/>
      <path class="cls-4" d="M46.7,22.2c.7,0,1.3,0,2,0,.2,0,.3,0,.3,.3,0,.7,0,1.3,0,2,0,0,0,.2,0,.3,0,.6,0,1.3,0,1.9,0,1.4,0,2.7,0,4.1,0,.1,0,.2,0,.3-.7,0-1.5,0-2.2,0,0-.7,0-1.3,0-2,0-.2,0-.3-.3-.3-.7,0-1.3,0-2,0,0-1.4,0-2.7,0-4.1,0-.3,0-.4-.4-.4-1.3,0-2.5,0-3.8,0-.3,0-.3,0-.3,.3,0,.6,0,1.3,0,1.9-.7,0-1.3,0-2,0-.2,0-.3,0-.3,.3,0,.7,0,1.3,0,2-.7,0-1.3,0-2,0-.2,0-.3,0-.3,.3,0,.7,0,1.3,0,2,0,0,0,0,0,0-.1,.1-.3,0-.4,.1-1.2,0-2.4,0-3.6,0-.1,0-.3,0-.4,0,0,0,0-.2,0-.3,0-.6,0-1.1,0-1.7,0,0,0-.2,0-.3,.1-.1,.3,0,.4,0,.5,0,.9,0,1.4,0,.2,0,.4,0,.3-.3,0-.5,0-.9,0-1.4,0-.5,0-.5,.5-.5,.4,0,.9,0,1.3,0,.3,0,.4,0,.4-.4,0-.4,0-.8,0-1.3,0-.4,0-.4-.4-.4-1.1,0-2.3,0-3.4,0-.6,0-.7,0-.7-.7,0-.4,0-.7,0-1.1,0-.4,0-.4-.4-.4-1,0-1.9,0-2.9,0-.9,0-1.9,0-2.8,0-.2,0-.3,0-.5,0,0-.1,0-.3,0-.4,0-1.2,0-2.4,0-3.6,0-.5,0-.5,.5-.5,1.2,0,2.4,0,3.6,0,.2,0,.3,0,.4,.1h0c.1,.1,0,.3,0,.4,0,.4,0,.8,0,1.2,0,.5,0,.5,.5,.5,1.1,0,2.3,0,3.4,0,.2,0,.3,0,.5,0h0c0,.1,0,.3,0,.4,0,.5,0,.9,0,1.4,0,.3,0,.4,.3,.4,1.2,0,2.4,0,3.6,0,.3,0,.3,0,.3-.4,0-.5,0-.9,0-1.4,0-.1,0-.3,0-.4h0c.1,0,.3,0,.4,0,2,0,3.9,0,5.9,0,.1,0,.2,0,.3,0,0,0,0,0,0,0,.1,.3,0,.6,0,.9,0,.3,0,.6,0,.9,0,.2,0,.4,.3,.3,.5,0,.9,0,1.4,0,.1,0,.3,0,.4,0Z"/>
      <path class="cls-3" d="M57.8,35.6c0-1.4,0-2.8,0-4.2,0-.2,0-.3,.3-.3,.6,0,1.1,0,1.7,0,.2,0,.3,0,.3-.3,0-.5,0-1.1,0-1.6,0-.2,0-.3,.3-.3,.6,0,1.3,0,1.9,0,.7,0,1.5,0,2.2,0v4.4c-.7,0-1.5,0-2.2,0-.1,0-.3,0-.4,0-.5,0-.9,0-1.4,0-.2,0-.4,0-.3,.3,0,.5,0,.9,0,1.4,0,.1,0,.3-.1,.4-.7,0-1.5,0-2.2,0Z"/>
      <path class="cls-4" d="M60,35.6c0-.6,0-1.3,0-1.9,0-.2,0-.3,.3-.3,.7,0,1.3,0,2,0,0,.7,0,1.5,0,2.2-.7,0-1.5,0-2.2,0Z"/>
      <path class="cls-2" d="M8.9,4.5c1.5,0,3,0,4.4,0,0,0,.1,.2,.1,.3,0,.5,0,1,0,1.5,0,.4,0,.5-.5,.5-.5,0-.9,0-1.4,0-.4,0-.4,0-.4,.4,0,.5,0,.9,0,1.4,0,.1,0,.2,0,.4-.1,0-.2,0-.4,0-.6,0-1.3,0-1.9,0-.6,0-1.3,0-1.9,0-.1,0-.3,0-.3-.1,0-.7,0-1.5,0-2.2,.1-.1,.3,0,.4,0,.4,0,.9,0,1.3,0,.4,0,.4,0,.4-.4,0-.4,0-.9,0-1.3,0-.1,0-.3,0-.4,0,0,0,0,0,0Z"/>
      <path class="cls-3" d="M6.7,8.9c.7,0,1.5,0,2.2,0,0,0,0,.2,0,.3,0,.5,0,1.1,0,1.6,0,.1,0,.2,0,.3-.7,.2-1.5,.2-2.2,0-.7,0-1.5,0-2.2,0,0-.7,0-1.5,0-2.2,.7,0,1.5,0,2.2,0Z"/>
      <path class="cls-5" d="M8.9,4.4c0,.6,0,1.3,0,1.9,0,.2,0,.3-.3,.3-.6,0-1.3,0-1.9,0,0-.7,0-1.5,0-2.2h2.2Z"/>
      <path class="cls-1" d="M48.9,31.1c0-1.5,0-3,0-4.4,0,0,.2,0,.3-.1,.5,0,1.1,0,1.6,0,.1,0,.2,0,.3,.1h0c.1,.1,.1,.3,.1,.4,0,1.2,0,2.4,0,3.6,0,.1,0,.3-.1,.4h0c-.7,0-1.5,0-2.2,0Z"/>
      <path class="cls-3" d="M42.3,15.6c0-.7,0-1.5,0-2.2,.7,0,1.5,0,2.2,0,0,.7,0,1.5,0,2.2,0,0,0,0,0,0,0,0-.2,0-.3,0-.5,0-1.1,0-1.6,0-.1,0-.2,0-.3-.1Z"/>
      <path class="cls-3" d="M24.5,22.2c2.1,0,4.2,0,6.3,0,.3,0,.4,0,.4,.4,0,.5,0,1,0,1.5,0,.3,0,.4,.4,.4,1.2,0,2.5,0,3.7,0,.3,0,.4,0,.3,.3,0,.5,0,1,0,1.5,0,.3,0,.4-.4,.4-.5,0-1.1,0-1.6,0-.2,0-.3,0-.3,.3,0,.5,0,1.1,0,1.6,0,.3,0,.3-.3,.3-.6,0-1.3,0-1.9,0,0,0-.1,0-.2,0-.6,0-1.3,0-1.9,0,0,0,0,0-.1,0-.1-.1,0-.3-.1-.4,0-.5,0-.9,0-1.4,0-.2,0-.4-.3-.4-.5,0-.9,0-1.4,0-.2,0-.3,0-.3,.3,0,.5,0,.9,0,1.4,0,.2,0,.3,0,.4,0,0,0,0-.1,0-.7,0-1.4,0-2,0,0,0,0,0,0,0-.1-.1-.1-.3-.1-.4,0-.5,0-.9,0-1.4,0-.3,0-.3-.4-.4-.5,0-.9,0-1.4,0-.2,0-.3,0-.3,.3,0,.5,0,.9,0,1.4,0,.2,0,.3,0,.4,0,0-.1,0-.2,0-.6,0-1.2,0-1.8,0,0,0-.2,0-.2,0-.1-.1,0-.3,0-.4,0-1.2,0-2.4,0-3.6,0-.2,0-.3,0-.4,.7,0,1.3,0,2,0,.2,0,.3,0,.3-.3,0-.7,0-1.3,0-2,0,0,.2,0,.3,0,.5,0,1.1,0,1.6,0,.1,0,.2,0,.3,0Z"/>
      <path class="cls-8" d="M24.5,22.2c-.7,0-1.5,0-2.2,0,0-.7,0-1.3,0-2,0-.2,0-.3-.3-.3-.7,0-1.3,0-2,0h0c0-.7,0-1.3,0-2,0-.2,0-.2,.2-.2,.6,0,1.1,0,1.7,0,.2,0,.3,0,.3-.3,0-.6,0-1.1,0-1.7,0-.2,0-.2,.2-.2,.6,0,1.2,0,1.7,0,.2,0,.3,0,.3-.3,0-.7,0-1.3,0-2,.7,0,1.5,0,2.2,0,0,.6,0,1.3,0,1.9,0,.2,0,.3,.3,.3,.5,0,1.1,0,1.6,0,.2,0,.3,0,.3,.3,0,.6,0,1.3,0,1.9-1.4,0-2.7,0-4.1,0-.3,0-.3,0-.3,.3,0,1.4,0,2.7,0,4.1Z"/>
      <path class="cls-8" d="M20,24.5c0,1.5,0,3,0,4.4,0,0,0,0,0,.1,0,.7,0,1.4,0,2.1,0,0,0,0,0,0-.6,0-1.3,0-1.9,0-.2,0-.3,0-.3-.3,0-2.1,0-4.2,0-6.4,.7,0,1.5,0,2.2,0Z"/>
      <path class="cls-3" d="M20,11.1c0,.6,0,1.3,0,1.9,0,.2,0,.3-.3,.3-1.4,0-2.8,0-4.2,0,0,0,0,0,0,0,0-.2,0-.4,0-.7,0-.4,0-.8,0-1.2,0-.1,0-.3,0-.4,.1,0,.3,0,.4,0,1.2,0,2.4,0,3.6,0,.2,0,.3,0,.4,0h0Z"/>
      <path class="cls-8" d="M15.6,24.5c0,.6,0,1.3,0,1.9,0,.3,0,.3-.3,.3-1.4,0-2.8,0-4.1,0,0-.7,0-1.5,0-2.2,1.5,0,3,0,4.4,0Z"/>
      <path class="cls-4" d="M11.1,15.6c0,.6,0,1.3,0,1.9,0,.2,0,.3-.3,.3-1.4,0-2.8,0-4.2,0,0,0,0,0,0,0-.2-.7-.1-1.5,0-2.2,0,0,0,0,0,0h0c.1,0,.2,0,.4,0,1.2,0,2.5,0,3.7,0,.1,0,.2,0,.3,0,0,0,0,0,0,0Z"/>
      <path class="cls-4" d="M13.3,15.6c-.7,0-1.5,0-2.2,0,0,0,0,0,0,0,0,0,0-.1,0-.2,0-.6,0-1.2,0-1.8,0,0,0-.2,0-.2,0,0,0,0,0,0,.7-.1,1.5-.1,2.2,0,0,0,0,0,0,0,0,.7,0,1.4,0,2.1,0,0,0,0,0,.1Z"/>
      <path class="cls-3" d="M13.3,15.6c0-.7,0-1.5,0-2.2,0,0,.2,0,.3-.1,.6,0,1.1,0,1.7,0,.1,0,.2,0,.3,0,0,0,0,0,0,0,0,.7,0,1.3,0,2,0,.2,0,.3-.2,.3-.7,0-1.3,0-2,0Z"/>
      <path class="cls-8" d="M20,20c0,.7,0,1.3,0,2,0,.2,0,.3-.3,.3-.6,0-1.2,0-1.7,0-.2,0-.2,0-.2-.2,0-.6,0-1.2,0-1.7,0-.2,0-.3,.3-.3,.7,0,1.3,0,2,0,0,0,0,0,0,0Z"/>
      <path class="cls-8" d="M11.1,26.7c0,1.4,0,2.8,0,4.2,0,.2,0,.3-.3,.3-.6,0-1.3,0-1.9,0,0-1.4,0-2.8,0-4.2,0-.2,0-.3,.3-.3,.6,0,1.3,0,1.9,0Z"/>
      <path class="cls-8" d="M11.1,13.3c0,.7,0,1.5,0,2.2-1.5,0-3,0-4.4,0,0-1.5,0-3,0-4.4,.7,0,1.5,0,2.2,0,0,0,0,0,0,0,.1,.4,0,.7,0,1.1,0,.2,0,.5,0,.7,0,.2,0,.3,.3,.3,.5,0,.9,0,1.4,0,.1,0,.3,0,.4,0,0,0,0,0,0,0Z"/>
      <path class="cls-8" d="M6.7,15.6c0,.7,0,1.5,0,2.2-.7,0-1.5,0-2.2,0,0-.7,0-1.3,0-2,0-.2,0-.3,.3-.3,.7,0,1.3,0,2,0Z"/>
      <path class="cls-8" d="M31.1,31.1c1.5,0,3,0,4.4,0,0,.6,0,1.2,0,1.8q0,.4-.4,.4c-.5,0-1,0-1.5,0-.2,0-.3,0-.3,.3,0,.6,0,1.1,0,1.7,0,.3,0,.3-.3,.3-.6,0-1.3,0-1.9,0,0,0,0,0,0,0,0-.2,0-.4,0-.6,0-.5,0-1,0-1.6,0-.6,0-1.3,0-1.9,0-.1,0-.2,0-.3,0,0,0,0,0,0Z"/>
      <path class="cls-8" d="M24.5,37.8c0-.7,0-1.5,0-2.2,0,0,0,0,0,0,0,0,.2,0,.3,0,1.4,0,2.7,0,4.1,0,.6,0,1.3,0,1.9,0,.1,0,.2,0,.3,0h0c0,.7,0,1.5,0,2.2-2.2,0-4.4,0-6.7,0Z"/>
      <path class="cls-7" d="M11.1,8.9c0-.6,0-1.3,0-1.9,0-.3,0-.3,.3-.3,.5,0,1.1,0,1.6,0,.2,0,.3,0,.3-.2,0-.7,0-1.3,0-2,1.4,0,2.8,0,4.2,0,.2,0,.3,0,.3,.3,0,.6,0,1.1,0,1.7,0,.2,0,.3-.3,.3-.5,0-1.1,0-1.6,0-.2,0-.3,0-.3,.3,0,.6,0,1.3,0,1.9,0,0,0,0,0,0,0,0-.2,0-.3,0-1.3,0-2.6,0-3.9,0,0,0-.1,0-.2,0,0,0,0,0,0,0Z"/>
      <path class="cls-8" d="M20,11.1c-1.5,0-3,0-4.4,0,0,0,0,0,0,0-.1-.3,0-.6,0-.9,0-.3,0-.6,0-.9,0-.1,0-.2,.1-.3,0,0,0,0,0,0,1.5,0,3,0,4.4,0,0,.7,0,1.5,0,2.2Z"/>
      <path class="cls-8" d="M33.4,20c-1.4,0-2.8,0-4.2,0-.2,0-.3,0-.3-.3,0-.6,0-1.3,0-1.9,.6,0,1.3,0,1.9,0,.3,0,.3,0,.3-.3,0-.5,0-1.1,0-1.6,0-.2,0-.3,.3-.3,.7,0,1.3,0,2,0,0,1.5,0,3,0,4.4Z"/>
      <path class="cls-8" d="M35.6,13.3c0,.7,0,1.3,0,2,0,.2,0,.2-.2,.2-.7,0-1.3,0-2,0,0-.7,0-1.3,0-2,0-.2,0-.3,.3-.3,.7,0,1.3,0,2,0Z"/>
      <path class="cls-8" d="M51.1,31.1c0-1.5,0-3,0-4.4,.7,0,1.3,0,2,0,.2,0,.3,0,.3,.3,0,.6,0,1.2,0,1.7,0,.2,0,.2,.2,.2,.7,0,1.3,0,2,0,0,.6,0,1.3,0,1.9,0,.2,0,.3-.3,.3-1.4,0-2.8,0-4.2,0Z"/>
      <path class="cls-8" d="M51.1,26.7c-.7,0-1.5,0-2.2,0,0-.7,0-1.5,0-2.2,.6,0,1.3,0,1.9,0,.2,0,.3,0,.3,.3,0,.6,0,1.3,0,1.9Z"/>
      <path class="cls-4" d="M44.5,17.8c.7,0,1.5,0,2.2,0,0,.7,0,1.5,0,2.2-.7,.2-1.5,.1-2.2,0,0,0,0,0,0,0h0c0,0,0-.2,0-.3,0-.6,0-1.2,0-1.8,0,0,0-.1,0-.2,0,0,0,0,0,0Z"/>
      <path class="cls-8" d="M44.5,20c.7,0,1.5,0,2.2,0,0,.7,0,1.5,0,2.2-.7,0-1.3,0-2,0-.2,0-.3,0-.3-.3,0-.7,0-1.3,0-2Z"/>
      <path class="cls-4" d="M42.3,15.6c.7,0,1.5,0,2.2,0,0,.7,0,1.5,0,2.2,0,0,0,0,0,0,0,0,0,0-.1,0-.7,0-1.3,0-2,0-.1,0-.2,0-.2-.2,0-.7,0-1.3,0-2,0,0,0,0,0-.1h0Z"/>
      <path class="cls-8" d="M42.2,15.6c0,.6,0,1.3,0,1.9,0,.2,0,.3,.3,.3,.6,0,1.3,0,1.9,0,0,.7,0,1.5,0,2.2-2.2,0-4.5,0-6.7,0,0-.7,0-1.3,0-2,0-.2,0-.2,.2-.2,.6,0,1.2,0,1.8,0,.2,0,.2,0,.2-.2,0-.7,0-1.3,0-2,.7,0,1.5,0,2.2,0Z"/>
      <path class="cls-8" d="M37.8,20c0,.7,0,1.3,0,2,0,.2,0,.3-.3,.3-1.3,0-2.6,0-3.9,0-.2,0-.3,0-.3-.3,0-.7,0-1.3,0-2,1.5,0,3,0,4.4,0Z"/>
      <path class="cls-8" d="M22.2,33.3c-.7,0-1.3,0-2,0-.2,0-.3,0-.3-.3,0-.7,0-1.3,0-2,0,0,0,0,0,0,0,0,.2,0,.3,0,.6,0,1.1,0,1.7,0,0,0,.2,0,.3,0,0,0,0,.2,0,.3,0,.6,0,1.2,0,1.8,0,0,0,0,0,.1,0,0,0,0,0,0Z"/>
      <path class="cls-8" d="M24.5,35.6c-.7,0-1.5,0-2.2,0,0-.7,0-1.5,0-2.2,0,0,0,0,0,0,0,0,.1,0,.2,0,.7,0,1.3,0,2,0,0,0,0,0,0,0,.1,.5,0,1.1,0,1.6,0,.2,0,.4,0,.6h0Z"/>
      <path class="cls-8" d="M22.2,35.6c0,.7,0,1.5,0,2.2-.7,0-1.3,0-2,0-.2,0-.3,0-.3-.3,0-.7,0-1.3,0-2,.7,0,1.5,0,2.2,0Z"/>
      <path class="cls-8" d="M28.9,28.9c.7,0,1.5,0,2.2,0,0,.7,0,1.5,0,2.2h0c0,0-.2,0-.3,0-.6,0-1.2,0-1.8,0,0,0-.1,0-.2,0,0,0,0-.2,0-.3,0-.6,0-1.2,0-1.8,0,0,0-.1,0-.2,0,0,0,0,0,0Z"/>
      <path class="cls-8" d="M8.9,11.1c0-.7,0-1.5,0-2.2,.7,0,1.5,0,2.2,0,0,0,0,0,0,0,0,0,0,.1,0,.2,0,.7,0,1.3,0,2,0,0,0,0,0,0-.6,.1-1.2,0-1.8,0-.2,0-.3,0-.4,0,0,0,0,0,0,0Z"/>
      <path class="cls-8" d="M22.2,28.9c0-.6,0-1.3,0-1.9,0-.2,0-.3,.3-.3,.6,0,1.1,0,1.7,0,.2,0,.3,0,.3,.3,0,.6,0,1.3,0,1.9,0,0,0,0,0,0-.5,.1-.9,0-1.4,0-.2,0-.5,0-.7,0,0,0,0,0,0,0Z"/>
      <path class="cls-8" d="M26.7,28.9c0-.6,0-1.3,0-1.9,0-.2,0-.3,.3-.3,.6,0,1.1,0,1.7,0,.2,0,.3,0,.3,.3,0,.6,0,1.3,0,1.9,0,0,0,0,0,0,0,0-.2,0-.3,0-.6,0-1.2,0-1.7,0,0,0-.1,0-.2,0,0,0,0,0,0,0Z"/>
      <path class="cls-4" d="M22.2,31.1c-.7,0-1.5,0-2.2,0,0-.7,0-1.5,0-2.2,.7,0,1.5,0,2.2,0,0,0,0,0,0,0,0,0,0,.2,0,.3,0,.6,0,1.2,0,1.8,0,0,0,.1,0,.2,0,0,0,0,0,0Z"/>
      <path class="cls-8" d="M24.5,28.9c.7,0,1.5,0,2.2,0,0,0,0,0,0,0,0,0,0,.2,0,.3,0,.6,0,1.2,0,1.8,0,0,0,.1,0,.2,0,0-.1,0-.2,0-.7,0-1.4,0-2,0,0,0,0,0,0,0-.1-.5,0-1,0-1.5,0-.2,0-.5,0-.7h0Z"/>
      <path class="cls-8" d="M15.6,13.3c-.7,0-1.5,0-2.2,0-.7,0-1.5,0-2.2,0h0c0,0,0-.2,0-.3,0-.5,0-1.1,0-1.6,0-.1,0-.2,0-.3h0c.1-.1,.3,0,.4,0,1.2,0,2.4,0,3.6,0,.1,0,.3,0,.4,0h0c0,.7,0,1.5,0,2.2Z"/>
      <path class="cls-3" d="M24.5,31.1c.7,0,1.5,0,2.2,0,0,0,.2,0,.3,0,.5,0,1.1,0,1.6,0,.1,0,.2,0,.3,0,.7,0,1.5,0,2.2,0,0,.7,0,1.5,0,2.2-.1,0-.2,0-.3,0-.6,0-1.2,0-1.9,0-1.4,0-2.7,0-4.1,0-.1,0-.2,0-.3,0h0c0,0,0-.2,0-.3,0-.5,0-1.1,0-1.6,0-.1,0-.2,0-.3Z"/>
      <path class="cls-1" d="M28.9,33.4c.7,0,1.5,0,2.2,0,0,.7,0,1.5,0,2.2-.7,0-1.5,0-2.2,0,0,0-.1-.2-.1-.3,0-.5,0-1.1,0-1.6,0-.1,0-.2,.1-.3Z"/>
      <path class="cls-4" d="M28.9,33.4c0,.7,0,1.5,0,2.2-1.5,0-3,0-4.5,0,0-.7,0-1.5,0-2.2,1.5,0,3,0,4.5,0Z"/>
      <path class="cls-5" d="M15.6,11.1h-4.4c0-.7,0-1.5,0-2.2,1.5,0,3,0,4.4,0,0,.7,0,1.5,0,2.2Z"/>
      <path class="cls-4" d="M24.5,31.1c0,.7,0,1.5,0,2.2-.7,0-1.5,0-2.2,0,0-.7,0-1.5,0-2.2,0,0,0,0,0,0,.7-.1,1.5-.2,2.2,0h0Z"/>
      <path class="cls-1" d="M28.9,31.1c-.7,0-1.5,0-2.2,0,0-.7,0-1.5,0-2.2h2.2c0,.7,0,1.5,0,2.2Z"/>
      <path class="cls-3" d="M24.5,31.1c-.7,0-1.5,0-2.2,0,0-.7,0-1.5,0-2.2,.7,0,1.5,0,2.2,0,0,.7,0,1.5,0,2.2Z"/>
    </g>
  </g>
</svg>