<?xml version="1.0" encoding="UTF-8"?>
<svg id="Capa_2" data-name="Capa 2" xmlns="http://www.w3.org/2000/svg" viewBox="0 0 74.1 73.7">
  <defs>
    <style>
      .cls-1 {
        fill: #c7c6c6;
      }

      .cls-2 {
        fill: #bcb4b4;
      }

      .cls-3 {
        fill: #634620;
      }

      .cls-4 {
        fill: #c9c8c7;
      }

      .cls-5 {
        fill: #463d3d;
      }

      .cls-6 {
        fill: #413838;
      }

      .cls-7 {
        fill: #cccbcb;
      }

      .cls-8 {
        fill: #2d1d1c;
      }

      .cls-9 {
        fill: #403a3a;
      }

      .cls-10 {
        fill: #5e4a31;
      }

      .cls-11 {
        fill: #231919;
      }

      .cls-12 {
        fill: #3f3939;
      }

      .cls-13 {
        fill: #e6e5e5;
      }

      .cls-14 {
        fill: #c4c3c3;
      }

      .cls-15 {
        fill: #f6f5f3;
      }

      .cls-16 {
        fill: #3b342f;
      }

      .cls-17 {
        fill: #261d1a;
      }

      .cls-18 {
        fill: #aaa4a3;
      }

      .cls-19 {
        fill: #cfcece;
      }

      .cls-20 {
        fill: #ececeb;
      }

      .cls-21 {
        fill: #c9c7c7;
      }

      .cls-22 {
        fill: #c0b9b8;
      }

      .cls-23 {
        fill: #251c18;
      }

      .cls-24 {
        fill: #202020;
      }

      .cls-25 {
        fill: #493217;
      }

      .cls-26 {
        fill: #f7f4f4;
      }

      .cls-27 {
        fill: #5a453a;
      }

      .cls-28 {
        fill: #aa6e17;
      }

      .cls-29 {
        fill: #f0e9e7;
      }

      .cls-30 {
        fill: #efefef;
      }

      .cls-31 {
        fill: #433b3c;
      }

      .cls-32 {
        fill: #211818;
      }

      .cls-33 {
        fill: #cccccb;
      }

      .cls-34 {
        fill: #474645;
      }

      .cls-35 {
        fill: #edecec;
      }

      .cls-36 {
        fill: #eeecec;
      }

      .cls-37 {
        fill: #c68f19;
      }

      .cls-38 {
        fill: #5c5453;
      }

      .cls-39 {
        fill: #b8b5b4;
      }

      .cls-40 {
        fill: #454141;
      }

      .cls-41 {
        fill: #4d331d;
      }

      .cls-42 {
        fill: #cbc9c9;
      }

      .cls-43 {
        fill: #4f4d4a;
      }
    </style>
  </defs>
  <g id="Capa_1-2" data-name="Capa 1">
    <g>
      <path class="cls-36" d="M14.5,12.5c-.9,.8-1.8,1.6-3,2.7-1.3-3.3-2.4-6.4-3.6-9.4-.4-1.1,.1-1.9,1.1-2.4,4.3,1,6.7,5,5.4,9.1Z"/>
      <path class="cls-1" d="M14.5,12.5c0-4.2-2.2-6.9-5.4-9.1,1-2,2.2-.8,3.2,0,3.1,2.3,6.1,4.6,9.1,6.9-1.5,.2-2.9,.3-3.9,1.6-1.3-1.1-2,.4-3,.7Z"/>
      <g>
        <path class="cls-11" d="M64.5,59.1c-2.5-.6-3.6,1.5-4.8,2.8-1.9,2.1-3.8,3.1-6.8,2.2-3.6-1-7.1,.9-9.1,4.3-.7,1.3-1.4,2.7-2.3,3.8-1.4,1.7-3.5,2.1-4.8,.3-3.1-4.6-7.5-2.9-11.5-2.7-1.9,0-4,.7-5.7,1.5-3.6,1.8-6.5,.7-9.3-1.5-1.8-1.5-3.5-3.2-5.3-4.7-2.4-2.1-3.9-4.4-2.8-7.8,.6-2-.2-4-1.2-5.7-1.3-2.2-.9-3.9,.5-5.8,4.9-6.8,6.4-14.3,4.9-22.4-.3-1.6,.8-2.9,1.7-4,1.6-1.9,1.7-3.7,.7-5.8-.9-2-1.4-4.3-2.4-6.3-1.3-2.7,0-4.5,1.9-6.2,1.9-1.8,3.8-1,5.3,.5,4.7,4.4,9.5,5.9,16.3,3.7,6.7-2.2,13.9-.9,20.3,2.3,1.8,.9,3,.6,4.4-.5,1.6-1.3,3.3-2.6,5-3.9,2.8-2.1,5.5-2,7.9,.5,2.5,2.6,2.7,5,.5,7.9-.6,.8-1.2,1.6-1.7,2.4-4.6,6.9-3,14.2,4.5,17.9,3.2,1.6,4,3.3,3.4,6.7-1.1,6-2.7,11.9-4.7,17.6-.8,2.3-2,3.7-4.7,3Z"/>
        <path class="cls-30" d="M7.7,64.2c-2.4-1.9-4.4-3.8-3.1-7.4,.4-1.1,0-2.9-.6-3.9-2.3-3.5-.7-6.1,1.5-8.8,1.4-1.7,2.6-3.6,3.9-5.4,.5-.5,1.1-.6,1.7-.3,3.7,1.7,6.4-.2,9-2.5,2.5-2.2,2.4-2.6-.7-3.7-2.8-1-5.8-1.6-7.8-4-3.1-7-3-7.3,2.6-12.7,1.2-1.2,3.1-1.7,3.3-3.7,.4-2.6,2.1-2.2,3.9-1.6,9.5-4.2,19-4.7,28.6,0-1.1,1.6-3.3,1.3-4.1,3.2,1.8,.7,3-.3,4.2-1,3.5-2,6.6-4.4,9.7-6.9,3.6-2.9,4.9-2.6,7.3,1.8-.5,1.6-1.7,2.7-2.5,4-2.4,3.8-6.1,6.9-6.1,11.9,0,.8-.9,1.1-1.7,1.1-1.3,0-2.2-1-3.5-1.2-1.8-.8-3.7-.2-5.5,0-1.9,0-3.5,1-5.2,1.8-3.2,1.6-5.8,4.1-8,6.9-3.7,6.4-2.9,12.4,2.3,16.5,1.1,.7,2.4,.7,3.6,1.1,3,.3,6,1,9.1,.9,4.5-.2,6.8,1.6,7.9,6.3,0,.8-.2,1.6-.7,2.3-.9,.8-1.9,.6-2.8,.3-3.5-1.2-6.8-.5-10.1,.6-.2,3-1.4,5.8-2.6,8.5-1.6,3.5-2.3,3.4-4.5,.3-.4-.5-.8-.9-1.2-1.4,0-2.6-2.4-3.8-3.4-5.8,0-1.3,1.3-2.3,.6-3.7-.1-.3-.2-.6-.3-.9-.3-1.1-.6-2.3-1.3-3.2-.7-.7-1.6-1.1-2.4-1.5-.8-.3-1.7-.5-2.5,0-.6,.4-1.1,1.1-1.5,1.7-1.3,2-2.4,4.1-3.4,6.2-.6,1.2-1.3,2.5-.3,3.8,1.3,1,1.3,2-.1,2.9-1.5,1-3.3,1.7-4.9,.8-2.6-1.5-5.6-2.1-8.3-3.3Z"/>
        <path class="cls-20" d="M66.2,43.8c3.1,1.3,3.9,3.4,2.2,6.3,0,.1,0,.2,0,.4q-1.9,6.1-8.1,5.4c-1-.8-2.2-.2-3.3-1.2-3.6-3.4-3.7-3.3,1.1-8.1,.9-1.1,1.7-2.2,2.1-3.5,2.2-3.7,3.4-3.5,6.1,.7Z"/>
        <path class="cls-13" d="M59.5,25.2c1.8,.7,3.1,1.8,3.9,3.7,1,2.2,3.2,3.4,5.1,4.8,1,.8,2.9,.6,3,2.4,.1,2.5-.3,5-1.3,7.3-.8,1.7-2.1,0-3.2-.2-3.1-1.2-5.3-3.2-6-6.5-.5-2.1-1.5-4-2.1-6-.3-1.8-1.7-3.4-1.4-5.3,.6-1.4,1.3-1,2.1,0Z"/>
        <path class="cls-33" d="M11.6,28.2c3.5,1.2,6.8,3,10.4,3.8,2,.5,1.8,1.7,.6,2.9-4.4,4.9-7.4,5.8-13.3,3.8,1.7-3.3,2.6-6.8,2.3-10.5Z"/>
        <path class="cls-42" d="M7.7,64.2c2.4-.2,4.8-.1,6.7,1.5,2.5,2.1,4.7,1.6,7-.2-.5-.4-1-.9-1.6-1.3,2.4-1.4,5.2-1.7,7.8-2.4,4.1,.8,4.4,1.2,3.2,5.3-3.1-.2-6.4-.4-9.2,1-5.9,2.9-10.2,.7-13.9-3.8Z"/>
        <path class="cls-16" d="M58.7,47c-.9,1.9-2.8,2.7-4.4,4,1.8,1.9,3.5,3.8,5.9,4.9-.6,0-1.2,0-1.7,.1,0,.8,.2,1.7-.5,2.3-1.3,.2-1-1.1-1.4-1.7-1.1-3.3-2.6-5.8-6.9-5.6-3.3,.2-6.7,.2-9.9-1,.1-.6,.5-1,1-1.3,4.2,.3,8.1-.3,11.6-2.8,.8,0,1.2,.6,1.4,1.3,0,.8,.4,.9,1.1,.6,1.2-.5,2-1.7,3.4-1.9,.6,.2,1,.4,.6,1.1Z"/>
        <path class="cls-7" d="M43.8,59.8c3.9-3.8,8.3-2.2,12.6-.9,.8,.7,.5,1.5,.3,2.3-.5,.8-1.2,.9-1.9,.6-3.1-1.2-6-.5-8.8,.9-1.3-.7,1.3-3.9-2.1-3Z"/>
        <path class="cls-21" d="M59.5,25.2c-.6,0-1.2-.7-1.6,.1-1.1,0-1.7-.4-1.5-1.6,.3-.1,1-.3,1-.4-.3-6.1,4.3-9.4,7.5-13.6,.7-.9,1.4-1.7,2.1-2.5,.6,1.1,0,1.8-.6,2.6-3.7,4.5-6,9.6-6.8,15.3Z"/>
        <path class="cls-40" d="M59.6,30.2c.7,1.6,1.8,3.1,1.9,4.7,.4,3.9,2.7,6.1,5.5,8.2-.2,.2-.5,.4-.7,.6-.6-.4-1.4-.6-1.9-1.1-2.3-2.8-2.9-.8-3.5,1.2-.7,0-1-.4-1.2-.9,.9-4-.8-7.7-1.3-11.6,.2-.6,.6-1,1.2-1.2Z"/>
        <path class="cls-5" d="M30.8,67.1c1-3.3-.5-4.6-3.6-4.5-.9-1.4-.3-2.2,1-2.8,2.2,.1,3.3-2.1,5.1-2.7,1.3,1.7,.5,3-.9,4.1-.7,1.3,1.8,2.6,0,3.8-.8,.5-.3,2-1.6,2.1Z"/>
        <path class="cls-19" d="M32.4,64.9c.3-1,0-1.8-.7-2.6-.8-1,.1-1.1,.8-1.3,1.2,1.9,5.2,2.4,3,6-1.7,.2-3.3,.2-3.1-2.2Z"/>
        <path class="cls-14" d="M8.5,33.4c0-1.4-.1-2.8,.8-4.6,1.1,2.2,.2,3.7-.2,5.3-.6,0-1.1,0-.6-.8Z"/>
        <path class="cls-39" d="M57.8,58.1c.1-.7,0-1.6,.7-2.1,.2,.9,2.1,.4,1.6,1.5-.3,.7-.7,2.3-2.3,1.4-.2-.3-.2-.6,0-.9Z"/>
        <path class="cls-38" d="M57.8,58.1c0,.3,0,.6,0,.9-.4,.7-.8,1.5-1.2,2.2,0-.8-.2-1.5-.3-2.3,0-.7,.2-1.5,.3-2.2,.4,.5,.8,1,1.2,1.4Z"/>
        <path class="cls-2" d="M8.5,33.4c.2,.3,.4,.5,.6,.8-.3,.7-.3,1.6-1.1,2.1-.3-1.1,0-2,.5-2.8Z"/>
        <path class="cls-8" d="M36.2,49.1c-5.7-4-6.6-11.4-2.2-17.9,.2-.3,.5-.4,.8-.3,2-.3,3.1-1.9,4.6-2.9,2.2-1.5,4.8-2.2,7.4-2.5,4.9-.6,8.4,1.4,9.9,6.1,1.2,3.8,3.4,7.6,1.3,11.9-.2,.3-.6,.5-.9,.7-1.8-.7-1.3-2.5-1.9-3.8-.3-1.2-.5-2.4-1-3.6-3.1-6.3-5.8-7.5-12.1-4.4-3.6,1.7-7.6,3.3-8.5,7.9,.1,.8,.7,1.4,1,2.1,.2,1,1,.7,1.6,.5,.5,0,.9,.3,1.1,.8,.2,1.6-.8,3.1-.6,4.7,0,.3-.2,.6-.5,.8Z"/>
        <path class="cls-23" d="M36.2,49.1c0-.3,0-.6,0-1,3.4-1,2.2-3.1,1.3-5.2-.2-.7-.4-1.4-.4-2.1,.4-2.1,1.5-3.7,3.5-4.6,.6,0,1,.3,1.3,.7,.5,.6,.5,1.9,1.5,1.8,1.1-.1,.7-1.3,.7-2.1,0-.7-.2-1.4-.5-2-.2-.5-.3-1,0-1.6,1.8-1.8,3.7-2.7,6-.8,.5,.7,.2,1.4,0,2.1,.4,3.6-.3,7.1-.2,10.6,.3,.4,.5,.9,.2,1.4-2.6,2.4-6.2,1.4-9,2.9-.3,.3-.6,.5-.9,.8-1.3,0-2.5,0-3.6-.9Z"/>
        <path class="cls-17" d="M28.8,60.4c-1.6,0-1.5,1.1-1.5,2.1-2.4,.9-4.7,2.3-7.5,1.6-1.2-1.5-.2-2.7,.5-4,1.4-2.4,2.8-4.8,4.1-7.2,1.4-.5,2.7-.3,4.1,.1,3.5,2.8,3.6,4.6,.3,7.3Z"/>
        <path class="cls-22" d="M28.8,60.4c2.2-2.5,2.3-4.8-.6-6.8-.2-1-3.4,.9-1.8-1.9,.5-.2,1.1-.3,1.6-.2,1.2,.3,2.4,.7,3.3,1.6,.8,1.1,.8,2.6,1.9,3.5l.2,.2s0,.2,0,.2c-1,1.9-1.9,3.9-4.6,3.4Z"/>
        <path class="cls-9" d="M59.6,30.2c-.2,.3-.5,.6-.7,.9-2.5-2.3-3.2-6-6.3-7.8,0-.7,.4-.9,.9-1.1,1.3-.2,2,.9,3,1.4,.5,.5,1,1.1,1.5,1.6,.6,1.6,1.1,3.3,1.7,4.9Z"/>
        <path class="cls-12" d="M35.1,31.3c-.4,0-.7,0-1.1,0,2-3.1,4.6-5.5,8.1-6.8,.7-.4,.9,0,1.1,.6-.8,2-3,2.2-4.4,3.6-1.2,.9-2.2,2.2-3.7,2.7Z"/>
        <path class="cls-31" d="M43,25l-.8-.6c1.6-1.1,3.2-2.4,5.4-2.1,.5,.2,1,.5,.8,1.2-1.5,1.4-3.2,2.4-5.4,1.5Z"/>
        <path class="cls-32" d="M48.4,23.1c-.3-.2-.6-.5-.9-.7,2-.5,3.9-.9,5.9,0-.3,.2-.5,.4-.8,.6-1.4,1.2-2.8,1.1-4.3,0Z"/>
        <path class="cls-6" d="M26.5,52.2c-.5,1.6,1.6,.4,1.6,1.5-1.3,.2-2.6,.1-3.8-.6,.2-.8,.6-1.3,1.3-1.6,.8-.3,.9,0,.8,.8Z"/>
        <path class="cls-34" d="M33.2,56.7c-2.1,0-1.5-2-2.1-3,.2-.4,.3-.8,.7-.9,1,1.1,1.2,2.5,1.4,3.9Z"/>
        <path class="cls-24" d="M20.2,49.3c-1.2-1.1-1.8-1.9-1.7-3.4,1.3,.9,2.2,1.7,1.7,3.4Z"/>
        <path class="cls-6" d="M31.8,52.8c-.2,.3-.5,.6-.7,.9-1-.5-2.1-1.1-3.1-1.6,0-.8,.3-1.1,1-.8,.9,.5,1.9,1,2.8,1.4Z"/>
        <path class="cls-34" d="M29,51.3l-1,.8c-.5,0-1,0-1.5,0-.3-.3-.5-.5-.8-.8,1.1-1,2.2-1,3.3,0Z"/>
        <path class="cls-43" d="M60,42.9c.3,.3,.6,.7,.8,1-.4,1.2-1.1,2.3-2.1,3.1-.2-.3-.4-.5-.6-.8-.6-.6-.2-1.2,.1-1.8,.5-.7,.9-1.4,1.8-1.5Z"/>
        <path class="cls-37" d="M40.7,49.3c2.5-2.3,6.1-1.8,8.9-3.3,2.2-1.5,4-3.2,1.8-6-.3-.9-.4-1.8-.3-2.8,0-.6,.3-1.2,.7-1.6,1.4-.8,2.4-.4,3.1,.9l1,3.7c.2,2.7,.7,5.5-3.2,6.1-3.3,3.7-7.5,3.8-12,3Z"/>
        <path class="cls-29" d="M58.8,44.8c-.2,.5-.4,1-.7,1.4-1.5,2-3.4,3.4-6.1,3.3-.2-1.2,1-1.3,1.4-1.9,.7-1.7,1.9-2.9,3.6-3.7h.2c.9-.4,1.6-.6,1.5,.9Z"/>
        <path class="cls-3" d="M57.1,43.9c-.7,1.7-2,2.8-3.6,3.7-.3-.4-.5-.9-.8-1.3,2.5-1.3,3-3.6,3.2-6.1,1.2,1,0,2.7,1.2,3.7Z"/>
        <path class="cls-4" d="M58.8,44.8c-.3-.7-.8-.8-1.5-.8,1.2-5-.3-9.6-2.4-14-1.6-3.4-6.2-4.5-11.2-2.9-1.5,.5-2.9,1.3-4.4,2-.8,.2-1-.1-.9-.8,1.5-1.1,3-2.1,4.5-3.2,1.8-.7,3.6-1.3,5.4-2,1.4,0,2.9,0,4.3,0,3.8,1.5,4.7,5,6.2,8.2,.9,3.9,3.5,7.5,1.2,11.7-.4,.6-.8,1.2-1.3,1.9Z"/>
        <path class="cls-28" d="M54.9,36.5c-.9-.5-1.8-.9-2.9-.7-1.5-.4-1.8-1.8-2.4-2.9-2.2-1.8-4-.5-5.9,.6-.5,1.4-1.5,2.4-2.9,3-1.3,1.3-2.4,2.8-3.2,4.5-.3,.8-.3,1.9-1.4,2.1-1.1,.3-.4,2.3-1.5,2-1.4-.3-.6-1.8-.7-2.8,.5-1.6,1.6-3,2.2-4.5-1.2,.9-.6,4-3.6,2.9-.5-2,.2-3.4,1.8-4.8,2.8-2.4,5.6-4.3,9.1-5.4,5.9-1.9,9-.3,11.3,5.8Z"/>
        <path class="cls-35" d="M38.4,42.6c0,1.8,2,2.7,2.4,4.8-1.4,.4-2.8,1.2-4.4,.8-1.2-1.6,.2-2.8,.7-4.1,.5-.4-.2-2,1.3-1.4Z"/>
        <path class="cls-27" d="M32.6,40.8c3.1-.6,2.6-4.6,5.7-5.4-1.4,2.3-2.1,5-4.2,6.9-.5-.5-1-1-1.5-1.6Z"/>
        <path class="cls-18" d="M38.5,28.2c.3,.3,.6,.6,.9,.8-1.3,1.1-2.5,2.5-3.9,3.2-1,.5-.3-.6-.3-1,1.1-1,2.2-2.1,3.3-3.1Z"/>
        <path class="cls-27" d="M38.4,42.6c-.4,.5-.9,1-1.3,1.4-.3-.3-.5-.6-.8-.9,.5-.7,1-1.4,1.4-2.1,.2,.5,.5,1.1,.7,1.6Z"/>
        <path class="cls-15" d="M51.8,37.2c0,.9,0,1.8,.1,2.7,1.2,4,.8,4.7-3.2,5.4-.4-.2-1.4,.2-1-.4,1.9-3.5,1-7.2,1.2-10.8,2.3-.2,2,2,2.9,3.2Z"/>
        <path class="cls-26" d="M44.6,34.3c.7,.6,.7,1.5,.7,2.4,0,1.5,.5,3.8-1.5,4-2.1,.3-2-1.9-2.3-3.4,.4-1.6,1.4-2.7,3.1-3Z"/>
        <path class="cls-41" d="M48.8,45.3c2.9-.7,3.9-2.5,3.2-5.4,2.4,.6,1.6,2.6,1.4,3.9-.3,2-2.2,1.8-3.7,2.1-.3-.2-.6-.4-.9-.7Z"/>
        <path class="cls-25" d="M51.8,37.2c-1.8-.3-1.3-2.7-2.9-3.2,.2-.4,.5-.8,.7-1.2,1.5,.4,1.7,1.9,2.4,2.9,0,.5-.1,1-.2,1.5Z"/>
        <path class="cls-10" d="M44.6,34.3c-1,1-2.1,2-3.1,3-.2-.3-.5-.6-.7-.8,.5-1.4,1.5-2.4,2.9-3,.3,.3,.6,.6,.9,.8Z"/>
      </g>
    </g>
  </g>
</svg>