<?xml version="1.0" encoding="UTF-8"?>
<svg id="Capa_2" data-name="Capa 2" xmlns="http://www.w3.org/2000/svg" viewBox="0 0 78.3 75.6">
  <defs>
    <style>
      .cls-1 {
        fill: #715b18;
      }

      .cls-2 {
        fill: #cdb40d;
      }

      .cls-3 {
        fill: #f9e31b;
      }

      .cls-4 {
        fill: #231914;
      }

      .cls-5 {
        fill: #33221b;
      }

      .cls-6 {
        fill: #dddcdb;
      }

      .cls-7 {
        fill: #ddddd8;
      }

      .cls-8 {
        fill: #5f5119;
      }

      .cls-9 {
        fill: #f5f4f4;
      }

      .cls-10 {
        fill: #473c25;
      }

      .cls-11 {
        fill: #433a1a;
      }

      .cls-12 {
        fill: #493f2b;
      }

      .cls-13 {
        fill: #ded5d4;
      }

      .cls-14 {
        fill: #d0b612;
      }

      .cls-15 {
        fill: #fce71a;
      }

      .cls-16 {
        fill: #fbfafa;
      }

      .cls-17 {
        fill: #3b3125;
      }

      .cls-18 {
        fill: #ffe917;
      }

      .cls-19 {
        fill: #f0db26;
      }

      .cls-20 {
        fill: #6a726a;
      }

      .cls-21 {
        fill: #ceb508;
      }

      .cls-22 {
        fill: #cbb416;
      }

      .cls-23 {
        fill: #605f57;
      }

      .cls-24 {
        fill: #3c3320;
      }

      .cls-25 {
        fill: #4e4623;
      }

      .cls-26 {
        fill: #d7d4d2;
      }

      .cls-27 {
        fill: #e0dddb;
      }

      .cls-28 {
        fill: #48401e;
      }

      .cls-29 {
        fill: #dfdfdd;
      }

      .cls-30 {
        fill: #d4ceca;
      }

      .cls-31 {
        fill: #322b1a;
      }

      .cls-32 {
        fill: #baba0e;
      }

      .cls-33 {
        fill: #fafaf9;
      }

      .cls-34 {
        fill: #cbb40c;
      }
    </style>
  </defs>
  <g id="Capa_1-2" data-name="Capa 1">
    <g>
      <path class="cls-4" d="M39.1,75.6c-6.7-.2-12.8-2-18.4-5.6-2-1.3-3.5-3.9-6.7-3.2-1.2,.2-1.5-1.6-1.4-2.7,.3-2-.9-3.2-2.2-4.4-2.8-2.7-5.5-5.4-8-8.4-3.5-4.1-3.3-7.8,.8-11.4,2-1.8,3-3.6,3.5-6.2,.5-2.5,1.7-4.9,2.7-7.3,1.8-3.9,.6-6.5-3.5-7.5-.1,0-.2,0-.4,0-2.9-.9-4.3-3.9-3.3-6.9,1.4-4.1,6.8-7.3,10.4-6,2.9,1,4.2,3.8,3.2,6.9-.4,1.2-1.9,2.4-.1,3.6,1.7,1.1,2.4-.7,3.4-1.4,3.9-2.8,8.1-5,12.9-5.7,3-.4,4.4-1.5,4.7-4.5,.1-1.1,.2-2.8,1.7-3.1,1.6-.3,1.9,1.4,2.4,2.4,.8,1.8,1.3,1.1,2.3,0,1.5-1.5,2.3-5,4.7-4,2.3,.9,1.2,4.2,1.2,6.5,0,2.3,.6,3.6,3,4.3,3,.9,5.6,2.7,8,4.7,.7,.6,1.4,1.6,2.6,.7,1-.8,.8-1.6,.2-2.6-1.3-2.6-1.2-5.1,1.2-7,2.5-2,5.2-1.3,7.7,.2,2.6,1.5,4.5,3.7,4.6,6.8,0,2.9-1.6,4.6-4.4,5.2-3.2,.7-5,3.7-3.6,6.5,1.7,3.5,3.2,7,3.7,10.9,.2,1.6,1.5,2.2,2.5,3.1,4.5,4,4.9,7.7,1.1,12.3-2,2.4-4.3,4.5-6.4,6.8-1.8,1.8-4.1,3.3-3.5,6.5,.1,.8-.4,2.1-1.3,1.9-3-.7-4.5,1.7-6.4,3-5.8,3.9-12.1,5.7-18.9,5.8Z"/>
      <path class="cls-18" d="M44.1,15.1c.2-.1,.3-.1,.5-.1,2-2.3,4.4-2.3,7-1.4,3.8,1.7,7.8,3.2,8.7,8.1,.3,1.7,1.7,3.3,3.2,4,4.7,2,5.2,6.3,6,10.3,.4,1.9,1.2,3.2,2.8,4.4,2.1,1.6,5,3.4,3.3,7-1.4,1.3-3.3,1.9-5.1,2-9.3,.4-17.2,4.2-24.2,10-5.4,4.1-10.6,2.6-15.9-.4-3.8-2.1-7.1-4.9-11.2-6.5-5.6-.4-11.1-1.2-16.3-3.7-2.5-3.8,.1-6.2,2.7-8.1,1.8-1.4,2.7-2.8,3.2-5,.8-4,1.6-8,6-10,1.6-.7,3.2-2.5,3.4-4.3,.2-3.4,2.5-4.6,4.9-6,3.5-2.2,7.4-3.6,11.5-4.1,1.4-.2,1.2,.8,1.5,1.6,.4,1.2-.3,2.8,1.7,3.8,.2-3.4-.4-6.5,.5-9.6,.2-.6,.4-2.3,1.2-.2,.7,1.7,.9,3.6,.9,5.5,0,2.4,1.2,3.4,3.5,2.8Z"/>
      <path class="cls-21" d="M25.4,57.8c.1,0,.3,0,.3,.1,9,7.2,18.1,6.8,27.1,0,3.3,1.3,6.7,2.5,7.7,6.6-13.3,11.5-29.4,11.5-42.7,0,.9-4.1,4.4-5.1,7.5-6.7Z"/>
      <path class="cls-2" d="M46.4,59.4c5.6-6,12.4-9.6,20.6-10.6,2.9-.3,5.8-.9,8.8-1.4-2.2,5.1-6.8,8-10.5,12.1-1.6-1.5-1.5-3.5-2.3-5,.7-1,2,.2,2.7-.9-.2-.3-.3-.7-.6-.8-3.3-1.1-6.3-.5-9.3,1.3-3.1,1.9-5.8,4.3-9.3,5.3Z"/>
      <path class="cls-15" d="M13.1,24.8c-.6-1.9-1.1-3.6-1.6-5.2-.5-1.7-1.5-2.8-3.5-2.7-1.7,0-3.2-.3-3.8-2.3-.5-1.8,.4-3.1,1.5-4.3,.7-.8,1.7-1.4,2.7-2,1.6-1,3.3-1.3,4.8,.2,1.5,1.5,1.3,3.3,.1,4.7-1.6,1.9-.5,3.1,.7,4.5,.9,1.1,2.8,1.2,3,2.9,0,.7-1.9,2.6-3.9,4.1Z"/>
      <path class="cls-3" d="M64.8,24.8c-.8-.9-1.7-1.7-2.5-2.7-1-1.2-1.1-2.1,.6-3.2,2.4-1.5,4.4-3.3,1.8-6.5-.9-1.1-.5-2.6,.5-3.8,.9-1.1,2.2-1.3,3.4-.9,2.2,.6,4.2,1.8,5.1,3.9,.9,2.1,1,4.9-1.9,4.8-4.3-.1-4.6,2.6-5.6,5.4-.3,.9,.2,2.3-1.3,2.9Z"/>
      <path class="cls-34" d="M3.1,48.8c5.6,.2,10.8,2.8,16.3,3.7-2.2,.2-4.6-.7-6.7,1,.8,1.2,2,.1,2.9,1-.5,1.3-1,2.7-1.5,4-.4,1.1-1,.9-1.5,0-.6-1.5-1.5-2.5-3.1-3-2.5-1.9-4.5-4.3-6.4-6.8Z"/>
      <path class="cls-6" d="M15.5,64.5c-2.3-.6-1.1-1.9-.7-3,1.9-2.3,3.6-4.7,6-6.4,1.2,.5,2.3,1,3.2,2.1-1.9,3.5-5.2,5.5-8.5,7.4Z"/>
      <path class="cls-9" d="M57.3,55.4c2.5-2.4,4.2-1.8,5.1,1.5,.6,2,1.2,4,1.7,6,.2,.8,.3,1.8-1.1,1.6-.3-.2-.6-.4-.8-.6-1.1-3.1-3.7-5.3-4.9-8.4Z"/>
      <path class="cls-29" d="M57.3,55.4c2.6,2.3,4.6,5,5.5,8.4-3.5-.9-5.8-3.5-8.3-5.8-.4-.4-.5-1.1,.3-1.5,.8-.3,1.7-.7,2.5-1Z"/>
      <path class="cls-22" d="M51.6,13.6c-2.5-.3-4.7,.8-7,1.4,.6-1.7-.8-2.9-1.1-4.4,1.1-1.5,1.1-4,3.5-4.5,0,.1,0,.3,0,.4-.9,3.9,.7,6.2,4.5,7.1Z"/>
      <path class="cls-33" d="M20.8,55c-1.4,2.7-3.2,5.1-6,6.4-.1-1.8,.9-3.2,1.3-4.8,.8-2.9,2.4-3.3,4.7-1.6Z"/>
      <path class="cls-14" d="M44.1,15.1c-1,1-2.1,1.9-3.5,1.1-1.3-.7-.9-2.2-1-3.4,0-2,0-4,0-6,1.5,2.7,3,5.5,4.5,8.2Z"/>
      <path class="cls-19" d="M47,6.1c-1.6,1.2-1.1,3.9-3.5,4.5-2.3-4,2.3-4.7,3.5-7v2.6Z"/>
      <path class="cls-12" d="M54.8,56.4c-.3,2.3,2,2.4,3.1,3.5,1.5,1.4,3.3,2.6,4.9,3.8,0,.2,.1,.4,.2,.7-.8,0-1.6,0-2.4,0-1.8-3.1-5.4-4.1-7.7-6.6,.7-.5,1.3-1,2-1.5Z"/>
      <path class="cls-10" d="M15.5,64.5c2.8-2.5,5.7-4.9,8.5-7.4,.5,.3,.9,.5,1.4,.8-2.3,2.5-5.7,3.7-7.5,6.7-.8,0-1.6,0-2.4,0Z"/>
      <path class="cls-32" d="M9.5,55.6c2.4-.4,3.4,.6,3.1,3-1.2-.8-2.3-1.7-3.1-3Z"/>
      <path class="cls-31" d="M39.2,30.9c3.7-5.3,7.1-10.2,10.7-15.3,1.4,1.1,.9,2.5,1.3,3.6,1.5,0,2.4-1.5,4.2-1.3-.9,3.7-3.3,6.6-5.1,9.6-2.5,4-5.2,7.8-8,11.7-2.7,3.8-3.5,3.7-6.2-.1-4.6-6.2-8.8-12.6-12.4-19.4-.3-.6-.7-1-.3-1.8,1.5-.4,2.4,1.4,4,1.4,.2-1.1,.3-2.1,.7-4.2,4,5.6,7.5,10.6,11.2,15.9Z"/>
      <path class="cls-24" d="M24.7,36c3.7,2,7.1,4.4,10.4,7,.7,.5,1.4,1.1,.9,2.2-.4,.9-1.3,.6-2,.7-3.9,.2-7.9,.3-11.8,.4-3.5,.2-4.9-1.5-4.4-5,.1-.7,.1-1.5,.2-2.2,1.6,.2,1.3,1.6,1.7,2.6,1.9,4.1,5.7,2.2,8.7,2.7,1.1,.2,2.4-.3,3.7-.5-.5-.8-1.3-.7-1.9-.4-5,1.8-5.8,1.3-6.6-4.1,0-.9-.2-1.8-.1-2.7,.2-.6,.5-1,1.2-.6Z"/>
      <path class="cls-28" d="M60.4,42.8c.5,2.3-.6,3.1-2.7,3.4-4.6,.5-9.2,0-13.8-.3-2.4-.1-2-1.4-.8-2.6,1.4-1.4,2.8-2.7,4.7-3.4,1.3,.1,2.1,.6,1.7,2.1-.9,.8-2.4,.6-3.1,1.8,1.1,.7,2.3,.2,3.4,.3,3.2-.2,6.6,.7,9.5-1.6,.4,0,.8,0,1.1,.3Z"/>
      <path class="cls-17" d="M49.3,42.1c.2-1.2-.9-1.5-1.4-2.2,2.6-2,5.2-3.9,8.2-5.3,.7-.4,.9,0,1,.6-.4,1.5-1.7,2-2.8,2.8-.5,.4-1,.7-1.6,1-.2,0-.5,.2-.5,.3,0,.5,.7,.2,1,.5,.7,.7,.8,1.6,.7,2.5-.4,2-1.8,2.5-3.6,2.2-1-.6-1.6-1.3-.9-2.5Z"/>
      <path class="cls-25" d="M18.8,42.3c-.4-1,.2-2.3-.8-3.2-.6-2.1,1.9-4.5-.9-6.5,3.1,.4,5.6,1.4,7.7,3.4-.3,.2-.6,.5-.9,.7-1,1.3-2.7-1.6-3.5,.6-.3,1.7,.7,3.9-1.6,4.9Z"/>
      <path class="cls-11" d="M56.8,35.2c-.2-.2-.5-.4-.7-.6,1.4-1.2,3.1-1.9,5.7-2.3-2.9,2.3-.8,4.7-1.3,6.9-.4,.5,0,1.6-1,1.6-1.2-.6-1.1-1.7-1.2-2.7,.1-1.2-.5-2-1.4-2.8Z"/>
      <path class="cls-1" d="M36.2,57c-2.3,0-3.1-1.5-3.9-2.8,0,0,.3-.5,.4-.5,1.7,.3,2.6,1.5,3.5,3.3Z"/>
      <path class="cls-8" d="M42.2,56.9c1.1-1.6,1.8-3,4.4-3-1.5,1.4-1.6,3.5-4.4,3Z"/>
      <path class="cls-5" d="M59.7,40.8c.2-.6,.5-1.1,.7-1.7,0,1.2,0,2.5,0,3.7-.3,0-.6,0-1,0-.4-.7-.3-1.4,.2-2Z"/>
      <path class="cls-20" d="M52,21.8c-.3,.7-.5,1.3-.9,1.8-3.3,5.2-6.5,10.5-10.3,15.4-1.1,1.5-2,1.5-3.2,0-4-5.1-7.4-10.6-10.8-16.1-1.4-2.3,1.9-1.6,1.8-3.2,0-.5,1.3,.7,1.8,1.4,2.4,3.4,4.8,6.9,7.2,10.3,1.4,2,2.3,1.1,3.3-.4,2.3-3.4,4.6-6.8,6.9-10.2,.4-.6,1.3-1.6,1.7-1,.6,1,2,.9,2.5,1.8Z"/>
      <path class="cls-9" d="M18.8,42.3c.3-2,.6-4.1,.8-6.1,1.7,1,3.6,1.4,4.9,2.9,.2,1.2,.3,2.5,.7,3.6,.6,1.9,2.5,2.4,3.3,.9,2.6-4.7,3.6,0,5.3,.6-4.4,1-8.8,.8-13.2,.7-2,0-.9-2-1.9-2.7Z"/>
      <path class="cls-27" d="M24.5,39.1c-1.8-.7-4.3-.3-4.9-2.9,0-.6-.1-1.7,1.1-1.2,1.1,.5,2.1,1.1,3.2,1.7,.8,.6,1,1.4,.7,2.4Z"/>
      <path class="cls-30" d="M28.2,40.3c-.3,.2-.7,.7-1,.8-1,0-1.1-.8-1.1-1.5,0-.4,0-1.1,.7-.9,.7,.2,1.4,.6,1.5,1.6Z"/>
      <path class="cls-16" d="M59.7,40.8c0,.7-.1,1.3-.2,2-.4,1.4-1,2.3-2.7,2.3-2.5-.1-4.9,0-7.4-.1,0-.6,0-1,.8-.7,1.6,.2,3,0,3.1-2,.5-1.1-.1-2.3,.4-3.4,1.6-1.1,3.1-2.7,5.3-1.3,.2,1.1,.5,2.1,.7,3.2Z"/>
      <path class="cls-26" d="M50.2,44.3c-.3,.2-.5,.4-.8,.7-1.7,0-3.5,.7-5.3-.9,2-.4,2.5-3.8,5.2-1.9-.2,.9,.5,1.5,.9,2.2Z"/>
      <path class="cls-7" d="M59,37.6c-1.9-.3-3.3,1.3-5,1.5-.6-.4-.5-1-.2-1.5,1-.8,2-1.6,3-2.4,2.8-1.1,2.2,.9,2.2,2.4Z"/>
      <path class="cls-23" d="M53.8,37.6c0,.5,.1,1,.2,1.5-.3,1,0,2.2-.7,3.2-.2-.8-.4-1.6-.7-2.4-.7-.4-.6-.9-.3-1.5,.5-.3,1-.5,1.5-.8Z"/>
      <path class="cls-13" d="M52.3,38.4c0,.5,.2,1,.3,1.5-.4,.7-.7,2-1.7,.9-1.4-1.7,.8-1.7,1.4-2.4Z"/>
    </g>
  </g>
</svg>