<?xml version="1.0" encoding="UTF-8"?>
<svg id="Capa_2" data-name="Capa 2" xmlns="http://www.w3.org/2000/svg" viewBox="0 0 79.8 85.9">
  <defs>
    <style>
      .cls-1 {
        fill: #603a11;
      }

      .cls-2 {
        fill: #b9c985;
      }

      .cls-3 {
        fill: #251915;
      }

      .cls-4 {
        fill: #312114;
      }

      .cls-5 {
        fill: #ba8b45;
      }

      .cls-6 {
        fill: #a46c17;
      }

      .cls-7 {
        fill: #3c8e37;
      }

      .cls-8 {
        fill: #c0904c;
      }

      .cls-9 {
        fill: #312722;
      }

      .cls-10 {
        fill: #ffd974;
      }

      .cls-11 {
        fill: #74b95a;
      }

      .cls-12 {
        fill: #e8dfd6;
      }

      .cls-13 {
        fill: #3e2612;
      }

      .cls-14 {
        fill: #2f2322;
      }

      .cls-15 {
        fill: #e8ecc6;
      }

      .cls-16 {
        fill: #f5f5d4;
      }

      .cls-17 {
        fill: #3e9336;
      }

      .cls-18 {
        fill: #90611e;
      }

      .cls-19 {
        fill: #21110e;
      }

      .cls-20 {
        fill: #ca9045;
      }

      .cls-21 {
        fill: #bbd286;
      }

      .cls-22 {
        fill: #524949;
      }

      .cls-23 {
        fill: #9a6a18;
      }

      .cls-24 {
        fill: #9a6b1a;
      }

      .cls-25 {
        fill: #fdfdfd;
      }

      .cls-26 {
        fill: #533b22;
      }

      .cls-27 {
        fill: #523726;
      }

      .cls-28 {
        fill: #e7edc6;
      }

      .cls-29 {
        fill: #4d3e22;
      }

      .cls-30 {
        fill: #635021;
      }

      .cls-31 {
        fill: #523d2a;
      }

      .cls-32 {
        fill: #372011;
      }

      .cls-33 {
        fill: #996b17;
      }

      .cls-34 {
        fill: #c89046;
      }

      .cls-35 {
        fill: #e8e5da;
      }

      .cls-36 {
        fill: #162c1a;
      }

      .cls-37 {
        fill: #f5f1f1;
      }

      .cls-38 {
        fill: #c89e11;
      }

      .cls-39 {
        fill: #b89043;
      }

      .cls-40 {
        fill: #f2eff0;
      }

      .cls-41 {
        fill: #e1d78f;
      }

      .cls-42 {
        fill: #503c2f;
      }

      .cls-43 {
        fill: #a8874c;
      }

      .cls-44 {
        fill: #9d6b1a;
      }

      .cls-45 {
        fill: #c0904a;
      }

      .cls-46 {
        fill: #c99046;
      }
    </style>
  </defs>
  <g id="Capa_1-2" data-name="Capa 1">
    <path class="cls-3" d="M24.3,6.4c.1-.2,.3-.3,.2-.4C22.8,.6,23,.2,29.2,.2c2.6,0,5.6-1,7.4,2.1,.3,.6,.6,.2,.9,0,4.7-1.6,8.3,.5,8.5,5.4,.1,2.3,1.1,2.9,3,3.4,6,1.8,10.7,5.4,13.2,11.3,1,2.4,1.9,2.2,3.7,.8,1.7-1.3,3.5-2.3,5.4-3.3,2-1,4.1-2.4,6.2-.4,2.1,2.1,2.7,4.7,2.1,7.6-.1,.6-.8,1.3-.7,1.7,2.6,4.5-.8,6.1-3.7,8.2-2.5,1.8-4.9,3.8-7,6.4,4.8,3.1,4.7,7.8,3.1,12.2-4,11.2-12.6,17.6-23.7,20.9-1.5,.5-3.2,.6-4.4,1.7-.9,.8-2.3,1.2-3.2,.6-4.3-2.8-5.1,1-6.2,3.3-.8,1.8-1.3,3.6-3.5,3.8-2.3,.2-3.3-1.7-4-3.4-1.2-3-5.1-5.3-2.3-9.4,.7-1-.8-1.3-1.4-1.8-1.7-1.5-3.9-2.6-5.1-4.3-3.9-5.5-8.9-4.8-14.1-2.9-2.5,.9-3.3,0-3.3-2.3-.1-4.8,1.6-9,5.9-11.3,5.2-2.8,6.3-6.2,4.8-12.2-2-8,1.5-15.2,7.6-20.7,1.8-1.7,3-2.6,.4-4.7-2.3-1.8-1.4-4.6-.9-7,.3-1.3,1.5-1.1,2.5-.8,1.4,.4,2.7,.9,4,1.4Z"/>
    <path class="cls-46" d="M52.9,45.7c-.7,.6-1.4,1.1-2.1,1.7-2,2.5-5,3-7.8,3.8-1.4,0-2.8,.2-4.1-.6-2.1-4.3-1.6-5.3,2.7-6.7,2.2-.7,4.7-.9,6.1-3.1,1-1.8,.5-3.7,.6-5.5,.1-2.1-.3-4.3-.3-6.4,.2-1.1,.4-2.2,.3-3.4,0-2-1.6-1.9-2.9-2-2.1-.3-3.1-1.4-2.8-3.5,.2-.9,.7-1.6,1.6-2.1-3.6,.1-6.6,2.4-10.1,2.6-1.9,.2-3.9-.6-5.3,1.6-.8,1.3-1.9,.7-2.6-.4-1.2-1.8-1.6-3.8-2.1-5.9,0-.3-.1-.5-.2-.8-.4-.5-.4-1-.2-1.5,1.3-.6,2.3,.2,3.3,.9,.9,.6,1.7,1.3,2.9,.8,.9-2.9-.8-5.2-1.6-7.7-.4-1.4-1.1-2.7-1.9-4.7,3.3,.9,6.9-2,8.8,2.5,.2,2.9,.1,5.8,2.3,8.2,1.4,.4,2.1-.1,2.2-1.6,0-1.4,.2-2.7,.5-4,.3-1.1-.8-3,1-3,1.9,0,2.5,1.7,2.3,3.5,0,.2,0,.5,0,.7-.1,1.4-3.6,3.4,.8,3.9,11.9,.7,18.8,10.3,15.6,21.6-.2,3.9-2,6.9-5.3,9-.2,0-.4,0-.6,0-.7,.6-1.2,1.2-1,2.2Z"/>
    <path class="cls-20" d="M52.3,68.9l3.7-3.8c.7-.9,1.1-1.7-.7-1.5-1.8,1.7-3.6,3.5-5.5,5.2-2.1,2.2-4.6,3.8-7.2,5.1-1.4,.7-2.9,1.5-4.5,.2-1.6-1.9-1.1-3.5,.4-5.2,1.7-1.9,3.3-3.9,4.9-5.9,.7-2.7,3.5-3.7,4.6-5.7-2,1.8-3.6,4.4-6.5,5.6-1.7,1.3-3.4,2.7-5.1,4,.2,.2,.4,.4,.6,.6,0-1.5,.2-3,.2-4.4,.9-8.2,5.4-13,13.4-14.4,4.7-1.6,9.3-3.2,14.3-3.1,3.2,0,4.5,1.5,4.6,4.5,.2,5.6-2,10.1-6.2,13.7-2.3,1.8-4.7,3.7-7.2,5.1-1.1,.7-2.7,2.6-4.1,0Z"/>
    <path class="cls-10" d="M9.4,59.8c-2.5,.4-4.8,1.2-7.2,2.2,0-3.6,.7-6.5,3.8-8.8,5.8-4.4,11.4-9.1,17.1-13.7,1.3-1,2.8-.7,3.8,.3,2.6,2.4,5.4,4.3,8.8,5.4,1.2,.4,2.2,1.4,2.1,2.8,0,1.5-1.3,2-2.5,2.3-6.7,1.6-12.9,4.3-19,7.4-2.1,1-4.3,2-6.7,2.1Z"/>
    <path class="cls-4" d="M9.4,59.8c8.3-4.1,16.5-8.5,25.7-10.5,.8-.2,1.9-.2,1.9-1.3,0-.5-.5-1.3-.9-1.5-4.4-1.4-7.9-4-11.3-6.9-.4-.3-1.2,0-1.8-.1-1.3-2.1-.6-4.4-.7-6.6,2.1,.3,1.1,2.6,2.4,3.5,3.6,1.7,5.6,5.6,9.7,6.5,3.7,1.5,7-.5,10.4-1.4,1.1-.3,1.9-1.1,3-1.3,.6,.1,1.1,.3,.7,1-1,2.4-3.4,2.7-5.5,3.1-3.5,.6-5.4,2-4.3,5.8,.2,1.4-.8,2.2-1.5,3.2-.5,.6-1.7,1.4-.7,2.1,1.1,.8,1.8-.4,2.2-1.2,1-2,2.6-3.3,4.7-4,2.5-1,4.9-2,7.4-3,0,.5,0,.9,0,1.4-7.1,2.3-11.3,7.4-13.4,14.4-.2-.5-.5-1.1-.7-1.6-2.7-3.1-4.7-3.5-8.4-1.9-1.3,.6-2.6,1.6-4.2,.6-.9,0-1.7-.1-2.6-.2,.1-1.8,1.8-1.8,2.9-2.4,2.5-1.4,5.2-2.4,7.8-4.4-7.1,1-12.4,5.5-18.4,7,.7-.1,1.8-.4,2.6,.7-2.5,1-4.9,1.2-6.9-1Z"/>
    <path class="cls-11" d="M61.1,34.4c1.7-6.4,5.8-10.5,11.9-13,2.2-.9,3.5-.6,4.1,1.7,.8,1.8-.5,2.8-1.6,3.7-3.7,2.7-7.2,5.6-9.7,9.6-.7,1.1-1.7,1.7-3.1,1.9-3.7-.7-3.8-.9-1.6-3.9Z"/>
    <path class="cls-16" d="M24,60c1.9-.1,3.6-1,5.1-2,2.8-2,4.8,.6,7.2,.8,1.3,.1,.1,1.7,.4,2.5-.9,2.9-2,5.7-4.7,7.5-3.7,0-8.3-4.2-8.8-8.1,.3-.3,.6-.5,.9-.8Z"/>
    <path class="cls-45" d="M23.8,37.5c-1.7-1.2-.2-3.3-1.5-4.6,.2-1.5-.3-3-.9-4.4-2.1-1.5-4.4-1.1-6.7-.7,.6-4.3,3.5-7,6.6-9.6,.9-.8,2.3-1,2.7-2.4,1.8,1.7,1.9,4.4,3.7,6.5,1.1-4.1,4.3-2.6,6.8-2.7-3.2,4.5-6.8,5.3-11,2.2-.6,3.7,2.4,6.6,2.1,10-1,1.8-.3,4.1-1.7,5.8Z"/>
    <path class="cls-41" d="M23.1,60.8c2,3.7,5,6.3,8.8,8.1-1.7,3.2-4,3-6.6,1.2-3.1-2.1-6-4.3-8.5-7.6,2.2-.6,4.3-1.2,6.3-1.7Z"/>
    <path class="cls-38" d="M16.3,60.8c-1.2,0-2.5-.1-4.4-.2,6.9-3.8,13.4-6.8,20.3-8.8,.6-.2,1.6-.5,1.9,.5,.3,.9-.6,1.3-1.1,1.7-3.6,2.5-7.6,4.2-11.5,6-1.7,.3-3.4,.6-5.1,.9Z"/>
    <path class="cls-17" d="M62.8,37.7c1-.2,1.8-.8,2.3-1.8,2.2-4.2,5.8-7,9.6-9.7,1.2-.8,2.2-1.6,2.4-3.1,1.4,1.8,.6,3.2-.8,4.4-1.5,3.3-4.5,5.2-6.8,7.8-.4,.5-1.5,1.2,.3,1,.5,.2,.8,.5,.6,1.1-1,1.1-2.1,2.3-3.1,3.4-2.5,.3-3.5-1.4-4.4-3.2Z"/>
    <path class="cls-21" d="M35.1,70.3c1.2,2.8,1.2,5.4-1.4,7.6-.9,.8-1.3,2.1-2,3.1-.6,.9,0,2.6-1.5,2.7-1.4,.1-2.1-1.5-2.4-2.5-.7-2.1-3.8-3.6-2-6.4,.4-.2,1-.6,1.4-.4,4.3,1.8,6.2-.8,7.8-4.1Z"/>
    <path class="cls-5" d="M52.3,68.9c3.7,.8,5.6-2.6,8.5-3.8,.9-.4,1.5-1.6,2.8-1.4-4.1,4.8-9.2,8-16.1,10.7,2.1-2.4,3.5-4,4.8-5.5Z"/>
    <path class="cls-15" d="M35.1,70.3c-.7,5.4-2.3,6.5-7.4,4.8-.6-.2-1.2-.2-1.8-.3,2.8-2,6.6-2.6,8.6-6,.2-.3,.4,1,.6,1.5Z"/>
    <path class="cls-4" d="M62.8,37.7c1.5,1.1,2.9,2.1,4.4,3.2-.7,.8-1.3,1.7-2,2.5-1.4-.8-1-3.1-2.9-3.4-1.5-.3-2.5,.4-3.4,1.6-.7,.9-1.2,2.2-2.8,1.8-.5,0-1.1,0-1.6,0,2.2-2.7,3.6-5.9,5.3-9,.5,0,.9,0,1.4,0-.3,1.6-1.6,3.6,1.7,3.3Z"/>
    <path class="cls-35" d="M16.9,35.9c.2,.7,.3,1.5,.5,2.2,.7,.6,1.1,1.4,1.1,2.3q-1.6,1.9-3.6-1.5c-.3-.3-.6-.6-.8-1-.5-2.1-.3-4.2-.1-6.3,2-4.9,2.9-5.4,6.2-3.4,.5,1.5-1.5,1.3-1.7,2.3-.2,.3-.4,.5-.6,.8-1.3,1.3-1.4,2.8-1,4.5Z"/>
    <path class="cls-28" d="M56,43.4c2.3-1.4,2.5-5.8,6.6-4.3,1.4,1.9-.3,3.3-.8,4.9-1.5,1.1-3.4,.7-5.1,1.1-2,.5-1.2-.8-.8-1.7Z"/>
    <path class="cls-24" d="M38.1,74c4.6,0,7.8-3.6,11.7-5.3-1.8,3.2-5,5.1-7.7,7.4-2.2,1.9-3-.6-4-2.1Z"/>
    <path class="cls-7" d="M70.3,37.5c-.2-.3-.4-.5-.6-.8,.6-3.3,4.4-6.8,7.3-6.8,.5,1.2,1.1,2.4-.3,3.3-2.1,1.5-4.3,2.8-6.4,4.2Z"/>
    <path class="cls-36" d="M77,29.9c-3.4,1.2-5.3,4.1-7.3,6.8-.6,.8-1.5,1.2-3.2,1.4,2.8-4.4,6.3-7.4,9.7-10.5,.3,.8,.5,1.6,.8,2.3Z"/>
    <path class="cls-18" d="M14.7,38.5c0,.2,0,.4,.1,.6,0,1.3,0,2.6,0,3.8-1.8-4.5-4-9-.8-13.7,.7,.7,.4,1.6,.4,2.4,.1,2.3-.3,4.6,.3,6.9Z"/>
    <path class="cls-13" d="M41.6,62.8l7.8-8.3c.3,.3,.6,.5,.9,.8-1.5,3.2-4.4,5.2-6.9,7.6-.6,0-1.2,0-1.8-.1Z"/>
    <path class="cls-39" d="M23.8,13.3c0,.5,0,1.1,0,1.6-1.3-2.3-4.6-3.5-3.6-7.1,1.5,0,2.6,.8,3.6,1.9,.5,1.2,.4,2.4,0,3.7Z"/>
    <path class="cls-44" d="M23.8,13.3c-.9-1.2-.7-2.4,0-3.7,2.6,1.2,2.9,4.9,6,5.4-2.7,1.8-4-1.2-6-1.7Z"/>
    <path class="cls-26" d="M14.1,31.4c0-.8,0-1.5,0-2.3,.2-.4,.4-.9,.7-1.3,2.5-2.2,4.8-2.4,6.7,.7-.2,.3-.5,.5-.7,.8-.3,.2-.5,.2-.6-.1-2.7-2.6-3-2.4-5.3,2.2-.2,.4-.4,.4-.6,0Z"/>
    <path class="cls-2" d="M61.9,44c-1.4-1.9,1.5-3.1,.8-4.9,2.1,.7,2.5,2.4,2.5,4.3-1,.9-2.1,.6-3.3,.6Z"/>
    <path class="cls-29" d="M18.4,40.5c-.9-.5-1.1-1.4-1.1-2.3,.9-1.7,2.8-.6,4-1.9,.4,2.8-.9,3.9-3,4.2Z"/>
    <path class="cls-23" d="M37.4,13.3c-3.8-1.9-3-5-2.3-8.2,1.1,2.6,2.1,5.3,2.3,8.2Z"/>
    <path class="cls-6" d="M44.1,12.8c-.6,.9-1.2,1.7-2.4,1.1-1.1-.6-.8-1.7-.6-2.6,.3-1.1,1.1-1.9,2.2-2.3,.3,1.3-.5,2.8,.8,3.9Z"/>
    <path class="cls-40" d="M19.2,30.7c1.3,1.1,1.2,2.3,.1,3.3-.9,.8-1.5,.1-1.6-.9-.6-.8-.5-1.6,0-2.4h0c.5-.5,.9-.5,1.3,0Z"/>
    <path class="cls-12" d="M17.8,30.7c0,.8,0,1.6,0,2.4-1.6,.5-.5,1.9-.8,2.8-.6-1.9-1.7-3.8,.9-5.1Z"/>
    <path class="cls-5" d="M55.3,63.6c.8-.9,2.1-1.1,2.5-.2,.5,1.2-1,1.3-1.8,1.7,.2-.7,.1-1.3-.7-1.5Z"/>
    <path class="cls-12" d="M19.2,30.7c-.4,0-.9,0-1.3,0,0-1.6,1.2-1.5,2.2-1.5,.2,0,.4,0,.6,.1,0,1-1.8,.1-1.5,1.4Z"/>
    <path class="cls-43" d="M52.9,45.7c-1-1.3-.7-2.1,1-2.2-.3,.7-.7,1.5-1,2.2Z"/>
    <path class="cls-25" d="M47.9,40.4c-3.6,3.4-10.5,4.9-13.8,2.9-.2-.3-.4-.6-.5-1-.4-1.7,.5-3.4,.5-5.1,0-1,.1-1.9,.3-2.9,.8-2.8,.7-6,3.5-8,1.4-.8,2.8-1.5,4.3-2,4.4-1.3,5.8-.5,6.5,4,.1,2.3,.3,4.6,.4,6.8-.2,.4-.4,.8-.5,1.2-.2,1.1,0,2.1-.2,3.2-.1,.3-.3,.6-.5,.8Z"/>
    <path class="cls-32" d="M25.3,31.4c-1.6-3.7-3.5-7.4-2.8-11.8,2.7,0,2.6,4.8,5.8,3.4,2.1-1,4.1-2.3,6.1-3.4,4-1,7.7-3.2,12.3-3.2-.5,2-2.7,1.6-3.5,2.9-2.2,2.6-5.4,3.9-8.1,6-2.5,1.9-4.8,4-6.6,6.5-1.2,.9-2.4,1.3-3.3-.4Z"/>
    <path class="cls-8" d="M28.2,31.4c3.6-5.8,9.2-9.1,15.1-12.1-.2,2.3,.6,3.5,3.1,3.1,2.5-.3,3.3,.8,2.9,3.2-4.4-3.4-8.1-.7-11.8,1.5-1.9,.5-.9,3.5-3.2,3.7-.9-.7-1.7-.6-2.5,.3-1,1.1-2.3,1.5-3.5,.3Z"/>
    <path class="cls-33" d="M43.4,50.3c-1.8,1.7-3.8,3.2-4.6,5.7-.9,2.7-2.6,.7-3.5,.4-1.1-.5-.8-1.7,.3-2.7,1.2-1.1,2.1-2.4,3.2-3.6,1.5,0,3.1,.1,4.6,.2Z"/>
    <path class="cls-31" d="M37.1,26.8c2.4-2.3,5.5-2.9,8.5-3.6,2.1-.5,2.7,1.2,3.6,2.4-.1,.9,.4,1.9-.4,2.8-2.7-4.7-3.1-4.7-10.3-1.3-.5,.3-1,.2-1.4-.2Z"/>
    <path class="cls-14" d="M48.2,36.4c.3-.4,.6-.8,.9-1.2,0,2,.7,4.1-.6,6-.2-.3-.4-.5-.6-.8v-1.2c.5-.9,0-1.9,.3-2.8Z"/>
    <path class="cls-34" d="M28.2,31.4c1.1,0,2.6,.5,3.1-1.2,.3-1.1,.7-1.9,1.9-1.6,1.3,.3,1.1,1.5,1.3,2.4,.7,.8,.6,1.7,.5,2.7-.2,.7-.3,1.4-.3,2.1-.1,2.3-1.3,4.6-.4,7,.1,.2,0,.4,0,.6-2.3,.2-3.7-1.2-5.1-2.6-1.5-1.5-3-2.9-5.2-3.3,.6-2-1.5-4.6,1.5-6,1,1,1.9,.8,2.9,0Z"/>
    <path class="cls-12" d="M14.1,31.4c.2,.1,.4,.1,.6,0,0,2.4,0,4.8,0,7.1-1.4-2.3-.9-4.7-.6-7.1Z"/>
    <path class="cls-9" d="M44.6,28.5c2,3.8,1.2,7.6,.1,11.4-.4,1.5-1.6,1.7-3,1.1-.3-.7,.9-1.3,.3-1.9-.2-.2-.9,.7-1.6,.5-.8-3.7-1.1-7.3,.7-10.8,.8,.4,.5,1.8,1.5,1.9,.6,0,.6-1,.8-1.5,.3-.5,.6-.9,1.2-.7Z"/>
    <path class="cls-37" d="M44,29.3c0,.5,0,1,0,1.5,0,1.1-.2,2.2-1.5,2.1-1.3,0-1.4-1.2-1.4-2.2,0-.6,0-1.2,0-1.9,0-.2,0-.3,.2-.3,1.1-.5,2.1-.4,2.6,.8Z"/>
    <path class="cls-42" d="M34.4,33.7c0-.9,0-1.9,0-2.8,1-1.3,.7-3.4,2.6-4.1,.5,0,.9,.2,1.4,.2-2.8,1.8-2.1,5.1-3.2,7.6-.5,0-.5-.6-.8-.9Z"/>
    <path class="cls-30" d="M40.5,39.6c.8-.8,.6-2.6,2.4-2.1,.4,.1,.9,.5,1,.9,.3,1.6-1.3,1.8-2.1,2.6-.8-.2-1.2-.6-1.3-1.4Z"/>
    <path class="cls-27" d="M34.2,42.8c-1.6-2.3-.5-4.7,0-7,.7,.3,.3,1.2,.7,1.6,.3,1.9-.5,3.6-.8,5.4Z"/>
    <path class="cls-22" d="M44,29.3c-.8-.7-1.7-.7-2.6-.8,1.1-1.2,2.2-1.2,3.3,0-.2,.3-.4,.5-.6,.8Z"/>
    <path class="cls-19" d="M34.9,37.4c-.2-.5-.5-1.1-.7-1.6,0-.7,.2-1.4,.2-2.1,.3,.3,.5,.6,.8,.9,0,.9-.2,1.8-.3,2.8Z"/>
    <path class="cls-46" d="M48.2,36.4c.3,1,.6,2-.2,2.8,0-1-.3-1.9,.2-2.8Z"/>
    <path class="cls-1" d="M24.2,22.3c2.2,3.4,4.1,2.6,6.4,1,2-1.4,4.3-2.2,6.7-2.9-3.4,2.5-6.1,5.5-9,8.4-1.3,1.3-2.1,1-2.7-.5-.7-1.7-2.1-3.1-1.4-6Z"/>
  </g>
</svg>