<?xml version="1.0" encoding="UTF-8"?>
<svg id="Capa_2" data-name="Capa 2" xmlns="http://www.w3.org/2000/svg" viewBox="0 0 84.1 73.7">
  <defs>
    <style>
      .cls-1 {
        fill: #bf1919;
      }

      .cls-2 {
        fill: #22181a;
      }

      .cls-3 {
        fill: #3d1d3d;
      }

      .cls-4 {
        fill: #a189b5;
      }

      .cls-5 {
        fill: #fff;
      }

      .cls-6 {
        fill: #39313f;
      }

      .cls-7 {
        fill: #9b8ab7;
      }

      .cls-8 {
        fill: #9b89af;
      }

      .cls-9 {
        fill: #7e5f99;
      }

      .cls-10 {
        fill: #f8f7f8;
      }

      .cls-11 {
        fill: #f6f6f6;
      }

      .cls-12 {
        fill: #f6f4f6;
      }

      .cls-13 {
        fill: #3b2845;
      }

      .cls-14 {
        fill: #db0f17;
      }

      .cls-15 {
        fill: #a38fbf;
      }

      .cls-16 {
        fill: #3e233f;
      }

      .cls-17 {
        fill: #dc0f17;
      }

      .cls-18 {
        fill: #413141;
      }

      .cls-19 {
        fill: #5a1718;
      }

      .cls-20 {
        fill: #3a1d19;
      }

      .cls-21 {
        fill: #432125;
      }

      .cls-22 {
        fill: #3f353d;
      }

      .cls-23 {
        fill: #897994;
      }

      .cls-24 {
        fill: #9a84ac;
      }

      .cls-25 {
        fill: #381b27;
      }

      .cls-26 {
        fill: #412c3b;
      }

      .cls-27 {
        fill: #746385;
      }

      .cls-28 {
        fill: #2f2424;
      }

      .cls-29 {
        fill: #897896;
      }

      .cls-30 {
        fill: #3f2f40;
      }

      .cls-31 {
        fill: #421f32;
      }

      .cls-32 {
        fill: #745a8d;
      }

      .cls-33 {
        fill: #9783ad;
      }

      .cls-34 {
        fill: #2c1a32;
      }

      .cls-35 {
        fill: #5e5252;
      }

      .cls-36 {
        fill: #9684ac;
      }

      .cls-37 {
        fill: #a085b4;
      }

      .cls-38 {
        fill: #6b5a7c;
      }

      .cls-39 {
        fill: #9784ac;
      }

      .cls-40 {
        fill: #3e3041;
      }

      .cls-41 {
        fill: #3c243b;
      }

      .cls-42 {
        fill: #42191b;
      }

      .cls-43 {
        fill: #3a223b;
      }

      .cls-44 {
        fill: #a390c3;
      }

      .cls-45 {
        fill: #5c5555;
      }

      .cls-46 {
        fill: #463b40;
      }

      .cls-47 {
        fill: #79659a;
      }

      .cls-48 {
        fill: #f8f7f7;
      }

      .cls-49 {
        fill: #7d64a7;
      }

      .cls-50 {
        fill: #331e3e;
      }

      .cls-51 {
        fill: #341c41;
      }

      .cls-52 {
        fill: #a08fbb;
      }

      .cls-53 {
        fill: #947dac;
      }

      .cls-54 {
        fill: #433344;
      }

      .cls-55 {
        fill: #3e233b;
      }

      .cls-56 {
        fill: #3a2e41;
      }

      .cls-57 {
        fill: #322c3c;
      }

      .cls-58 {
        fill: #3c1b3c;
      }

      .cls-59 {
        fill: #fefefe;
      }

      .cls-60 {
        fill: #412e43;
      }
    </style>
  </defs>
  <g id="Capa_1-2" data-name="Capa 1">
    <g>
      <path class="cls-2" d="M30.4,5.5c.6-.8,1-1.4,1.4-2,1.1-2.1,2.5-2.2,3.5-.2,1.4,2.9,3.1,2.6,5.2,1,1.4-1,3-1.8,4.6-2.5,1.6-.7,3.5-3,4.3,.9,.2,1.2,1.4,.5,2.2,.2,2.3-.9,4.7-1.8,7-2.6,.8-.3,1.8-.7,2.4,.2,.5,.8,0,1.6-.3,2.4-.5,1.2-2.8,3.1-1.3,3.5,2.2,.7,3.3,4.4,6.9,2,4.3-2.9,9.3-4.7,14-7,1-.5,2-1.3,3.1-.5,1.3,1,.3,2.3-.1,3.4-2.2,5.6-4.3,11.1-6.6,16.6-.9,2.2-.9,3.5,1.8,3.9,2.6,.4,2.8,1.8,.9,3.5-1.6,1.4-1.5,2.4,.3,3.4,2.7,1.5,3,3.2,.5,5.1-2,1.5-1.7,3-.3,4.7,1.3,1.6,1.4,3.2-.7,4.2-.7,.3-1.6,.6-1.4,1.5,1,3.5-1.7,4.6-3.7,6.1-1.4,1.1-2.4,2.5-3.3,4-8.5,14-25.4,19.8-40.7,14-14.9-5.6-23.7-21.3-20.6-37.3,.6-3.2,.5-6.1-.7-9.1C6,18.2,3.4,11.3,.8,4.5c-.4-1.1-1.4-2.3-.1-3.4,1.1-.9,2.1,0,3.1,.5,5.6,2.6,11.3,5.2,16.9,8,2.5,1.3,3.3,.4,3.6-1.9,0-.2,0-.5,.1-.7,.5-1.5,0-3.7,1.7-4.3,2.1-.7,2.6,1.9,4.3,2.9Z"/>
      <path class="cls-49" d="M72.4,44.6c-1,3.4-2.1,6.9-3.1,10.3-.7,1.1-.8,2.6-2.2,3.2-3.5,4.4-7.5,8-12.6,10.4-1.3,1.3-3.2,.6-4.6,1.5-4.9,1.1-9.8,2.1-14.8,0-3.9-1.3-7.5-3.2-10.8-5.6-1.2-1.1-2.5-2.2-3.6-3.6-6.9-7.9-9.5-17-7.6-27.3,.8-4.1,.2-7.8-1.3-11.6-1.4-3.6-3-7.1-4.4-10.7-.6-1.7-1-3.6,2-3.4,1.9,.7,3.7,1.6,5.6,2,3.3,.4,5.9,2.6,9.1,3.5,1.8,.5,3.2,0,4.4-.9,1.7-1.4,.9-2.2-1-2.5-1-.8-1-1.4,0-1.9,1-.5,1.8,.6,2.8,.2,.3,0,.5,0,.8,0,.4-.3,.9-.4,1.4-.4,1.2,.1,2,1.3,3.3,.9,.4,0,.9,0,1.3-.4l1.9-.7c2.9-1.5,5.9-2.9,9.2-1.1,.8,0,1.4-.5,2.1-.7q4.1-1.3,4.9,2.6c1.5,.1,3-.3,4.3,.7-.2,.7-.3,1.5-.8,2.2-.5,0-.9,0-1.4,0-.5-.5-.9-1.3-1.7-.7-.9,.7-.5,1.4,.2,2,3.8,2.5,6.7-.8,10-1.7,1-.3,1.9-1.3,3.1-1.1,2-.6,4-.9,5.8-2,2.1-.2,2.7,.6,2.1,2.6-.5,1.9-1.4,3.7-1.6,5.7,0,2.9-1.7,5.3-2.6,7.9-1.5,4.3-1,8.5-.2,12.7,.3,2.5,.5,5,0,7.5Z"/>
      <path class="cls-15" d="M9.4,8.6c-3.2-.1-1.5,1.9-1.1,2.9,1.9,4.1,3.3,8.3,5.1,12.4,1.8,4,.7,7.8,.2,11.7-1,8.1,1,15.4,5.4,22.1,.7,1.1,1.5,2.2,2.3,3.4-.6,.5-1.2,.4-1.8,.1-6.8-6.6-9.9-15-8.2-23.9,1.4-7.2-.3-13.2-2.6-19.4-1.6-4.3-3.4-8.4-5.2-12.9,2.3,0,3.9,1.4,5.7,2.3,.4,.4,.5,.9,0,1.3Z"/>
      <path class="cls-44" d="M75.4,16.4c-.3-2,.5-3.9,1-5.7,.5-1.8-.1-2.2-1.7-2.1-.8,0-1.1-.2-.9-1,1.9-1,3.9-1.9,6.9-3.4-2,4.7-3.6,8.5-5.2,12.2Z"/>
      <path class="cls-9" d="M78.3,35.7c-.5,1.4-2.5,1.9-2.3,3.8-.2,.9,.4,1.9-.3,2.8-.3,.2-.5,.3-.8,0-.3-3.2-.6-6.4-.9-9.6,2.1,0,3.4,1.3,4.3,3.1Z"/>
      <path class="cls-8" d="M48.4,7.1c-3.2-.7-6.2,0-9.3,.8,1.1-1.5,2.9-1.7,4.3-2.7,2.2-1.6,4.1-2.2,5,1.2,.3,.1,.4,.3,.3,.5,0,.2-.2,.2-.3,.2Z"/>
      <path class="cls-33" d="M24.5,64.1c3.5,2,7,4.1,10.5,6.1-4.8-.5-8.8-2.8-12.3-6,.5-.6,1.1-.5,1.7,0Z"/>
      <path class="cls-23" d="M74.9,42.2c.2,0,.4,0,.5,0,1.6,.4,1.3,1.3,.7,2.3-.8,.9-.9,2-.7,3.1,.4,1.9-.6,2.8-2.7,3.5,1.9-3,.2-6.3,2.1-9Z"/>
      <path class="cls-36" d="M48.4,7.1c0-.2,0-.5,0-.7,2.8-1.1,5.6-2.1,8.7-3.3,.3,2.4-1.8,3.6-1.8,5.5-1.3-4.7-4.4-1.7-6.9-1.5Z"/>
      <path class="cls-53" d="M78.3,35.7c-1.4-1-2.9-2-4.3-3.1-.5-1.5-.4-3,0-4.5,1.6-.5,1.9,.1,1.4,1.5-.4,1.6,.5,2.4,1.8,3.1,1.2,.6,2.5,1.4,1,3Z"/>
      <path class="cls-39" d="M30.3,8.6c-.5,1-1.2,.3-1.9,.2-1,0-1.7,.2-.8,1.4-.4,.6-.8,1.2-2,1.2,.1-1.9,.2-3.8,1.4-5.8,1.1,1,2.2,2,3.2,3Z"/>
      <path class="cls-39" d="M37.2,8.6l-.8,.8c-1.4,.7-2.3-1.2-3.7-.8-.5,0-1.1,0-1.6-.1,.8-1.2,1.6-2.4,2.5-3.7,1.5,1.1,1.8,3.2,3.6,3.8Z"/>
      <path class="cls-7" d="M76.1,44.6c0-.8,0-1.7-.7-2.3,0-1-.3-2,.6-2.8,.5,.8,1,1.7,1.6,2.5,1.4,1.9,.6,2.6-1.4,2.7Z"/>
      <path class="cls-29" d="M75.5,29.6c0-.9-.5-1.5-1.4-1.5,0-.9-.3-2.1,.9-2,.8,0,2.3,0,2.5,1.1,.2,1.2-1.1,1.7-1.9,2.4Z"/>
      <path class="cls-4" d="M24.5,64.1h-1.7c-1.5-.4-2.1-1.8-3.1-2.9,.6,0,1.2,0,1.8-.1,1.3,.7,2.2,1.8,3,3Z"/>
      <path class="cls-24" d="M73.8,7.7c.3,.3,.6,.7,.9,1-1.4,2.3-3.7,1.2-5.6,1.4,1.3-1.3,3.1-1.7,4.7-2.4Z"/>
      <path class="cls-37" d="M9.4,8.6c0-.4,0-.9,0-1.3,1.9,.8,3.9,1.4,5.6,2.7-2,.2-3.8-.7-5.6-1.4Z"/>
      <path class="cls-30" d="M56,12.9c-1.4-.2-2.1-1.2-1.2-2.2,1-1.1,2.2-.6,2.7,.9-1.4-.6-1.7,0-1.5,1.3Z"/>
      <path class="cls-3" d="M49.8,70.1c1.4-1.1,2.8-1.9,4.6-1.5-.8,2.7-3,1.2-4.6,1.5Z"/>
      <path class="cls-60" d="M72.4,44.6c0-2.5,0-5,0-7.5,1,2.5,1.2,5,0,7.5Z"/>
      <path class="cls-58" d="M67.1,58.1c1-.9,.2-3,2.2-3.2,0,1.6,.4,3.5-2.2,3.2Z"/>
      <path class="cls-52" d="M58.8,11.5c-.4-1-1.1-2,.8-2.2,1,1.2,1.2,2.1-.8,2.2Z"/>
      <path class="cls-17" d="M21.3,27.3c0-.2,.1-.4,.2-.6,.8-.8,1.7-.9,2.7-.7,.3,.1,.7,.3,1,.5,4.2,2.3,2.7,6.7,3.5,10.4,1.8-1.2,1.1-3,2.2-4.1,1.7-.6,2.1,.9,2.9,1.7,.4,1,1,1.8,2.1,2.2,1.3,.9,1.6,2.1,.8,3.5-4.8,3.4-9,3.5-13.4,.4-3.6-3.9-3.4-8.5-2-13.2Z"/>
      <path class="cls-48" d="M58.1,58.4c-.3,0-.4,.1-.4,.4-1.7,1.1-3.4,3.3-5.4,2.2-2-1-1.1-3.6-1.1-5.5,0-1.8-.3-3.7,.6-5.5,.5-.6,1.1-.8,1.8-1,1.7-.2,3.5-1.5,5.1,.3,.7,3,1.2,6.1-.5,9Z"/>
      <path class="cls-22" d="M20.1,44.5c5.4,3.6,11.5,4.3,17.8,4.7-.7,2.3-2.9,1.2-4.3,1.9-.6,.1-1.1,.1-1.7,0-4.9-1.1-5.5-.5-4.9,4.5,.1,1.1,.6,2.1,.8,3.2,0,.4-.2,.7-.5,.9-3.5-.5-4.5-3.5-5.9-6-.2-.3-.2-.7,0-1,.8-.4,1.4,.2,2.2,.7,0-1.8,.3-3.5-1-4.9-1.4-1.5-2.2-1.1-2.7,.7-.4,.1-.7,0-1-.2-.7-.6-.4-1.5-.5-2.2-.3-1.4-1-3.1,1.7-2.4Z"/>
      <path class="cls-46" d="M33.4,50.3c1.3-1,3.2,.2,4.5-1,3.5,0,7.1,0,10.6,0,.5,.8,2.7-.6,2.1,1.6-.5,.4-1.1,.5-1.7,.7-1.6,.4-4.1-.7-4.4,1.6-.5,2.8-1.1,5.9,.6,8.6,.2,.4,.9,.5,1.3,.7,.7,.3,1.4,.6,1.3,1.6-3.7,.3-7.5,.5-11.2,0-.4-.5-.4-1,0-1.6,1.1-1.1,3.4,.2,3.9-1.6,.7-2.5,.5-5.2,.1-7.8-.2-1.2-1.3-1.3-2.4-1.4-1.4-.1-2.8,0-4.1-.5-.4-.2-.6-.5-.6-.9Z"/>
      <path class="cls-21" d="M48.4,35.6c2.4-2.8,4.8-5.6,8-7.5,.3-.2,.7-.2,1.1,0,1.8,3.5,.6,6.8-.8,10-.7,1.6-2.5,2.5-3.4,.6-1.3-3-3.2-1.6-5-1.3-.4-.5-.3-1.1,0-1.6Z"/>
      <path class="cls-20" d="M31.4,32.7c0,.2,0,.5-.1,.7-.6,1.8,.3,5.3-2.4,5-2.5-.2-1.5-3.5-1.6-5.5-.2-2.4,.1-4.7-2.3-6.2,.3-.5,.7-.6,1.2-.4,.9,.8,1.9,1.6,2.8,2.4,.3,.6,.2,1.3,.2,1.9,0,.6-.2,1.4,.7,1.7,.5,0,1.1-.2,1.5,.3Z"/>
      <path class="cls-41" d="M28.3,30.6c.2-.6,.5-1.2,.7-1.7,2.9,2.8,5.8,5.6,8.8,8.4,.5,.3,.8,.8,.8,1.5,0,.6-.2,1.1-.7,1.6-.5,.3-.9,.5-1.4,.8-.4-.3-.5-.6-.1-1,.2-1.3,.3-2.6-1.4-3-.9-.5-.9-1.5-1.6-2.2-.7-.7-1.4-1.4-2.1-2.2-.5,.2-1,.4-1.5,.7-1.3-.5-.8-2-1.6-2.8Z"/>
      <path class="cls-16" d="M48.4,35.6c0,.5,0,1,0,1.6-.2,2.4,1.8,3.2,3.2,4.4,.2,.5,.2,1-.1,1.4-2.5,.3-4.1-3.4-7.3-1.3,.7-2.9,2.1-4.8,4.2-6.2Z"/>
      <path class="cls-25" d="M36.4,40c0,.3,0,.7,.1,1-5.3,3.3-9.9,3.1-14.5-.9,.5-.6,1.1-.5,1.6,0,4.3,3.1,8.5,2.2,12.8,0Z"/>
      <path class="cls-55" d="M63.5,27.9c2.1,6.1,1.1,10.5-3.1,13.6-.4-.5-.5-1.1-.3-1.7,1.8-3.3,2.6-6.8,2.5-10.5,.1-.6,.4-1.1,.9-1.5Z"/>
      <path class="cls-54" d="M52.2,49.9c-.6,3.6-.3,7.3-.2,11,2.4,.4,3.5-2.4,5.8-2-.6,2.7-3.2,2.5-4.9,3.6-.8-.3-1.8-.4-2-1.4-.6-3.6-1.1-7.3,.4-10.8,.2-.5,.6-.3,.9-.3Z"/>
      <path class="cls-42" d="M23.6,40.1c-.5,0-1.1,0-1.6,0-2.7-4.2-3.3-8.5-.7-12.9,.6,2.9-1,5.7,0,8.7,.6,1.5,1.2,2.9,2.2,4.2Z"/>
      <path class="cls-28" d="M52.2,49.9c-1.1,4.2-2,8.5,.6,12.5-.4,0-.9,.2-1.3,.2-1.1,.6-1.7,.2-2-.9,.4-3.7-.9-7.6,1.2-11.1-.3-1.2-1.7-.5-2.2-1.4,1.2,0,2.4-.1,3.6-.2,.7-.3,1.5-.6,1.7,.6-.5,0-1,.2-1.5,.2Z"/>
      <path class="cls-40" d="M36.4,62.7c0,.4,0,.8,0,1.2-3.4-.7-6.7-1.4-9.2-4.1,0-.3,0-.6,.1-.9,1.9-.7,3,1.2,4.6,1.4,.6,.2,1.3,.4,1.9,.7,1,.4,2,.6,2.5,1.7Z"/>
      <path class="cls-45" d="M58.1,58.4c0-3.1,0-6.3,.1-9.4,.2-.3,.4-.5,.6-.7h0c.4-.2,.8-.2,1.1,.2,1.1,2.2,.7,4.6,.4,6.9-.4,.9-.8,1.9-1.5,2.7-.3,.1-.5,.2-.8,.3Z"/>
      <path class="cls-19" d="M60.4,40.2c0,.4,0,.8,0,1.3-2.7,2.2-5.8,1.7-8.9,1.5,0-.4,0-.8-.1-1.3,3.1-.3,6-1.6,9.1-1.4Z"/>
      <path class="cls-18" d="M65.7,48.4c-1.1,2.4-1.6,5.1-3.7,6.8-.6-.1-.9-.5-1.1-1.1,.9-2.4,1.7-4.9,3.7-6.7,.6,0,.9,.5,1.1,1Z"/>
      <path class="cls-13" d="M59.6,48.4c-.3,0-.5,0-.8,0,1-2.8,4.5-2.4,5.9-4.7,.5,.4,.6,.9,.6,1.6-1.3,2.2-3,3.5-5.7,3.2Z"/>
      <path class="cls-31" d="M63.5,27.9c0,.7-.2,1.3-.3,2-2.3-.7-1.9-3.2-3.1-4.6,0-.4,0-.7,.2-1,0-.2,0-.4,.1-.6,.7-.7,1.5-.7,2.3-.3,.2,1.5,.5,3,.7,4.5Z"/>
      <path class="cls-26" d="M64.9,45.5c0-.6,0-1.2-.1-1.8,.5-.4,1-1.1,1.4-1.1,.9,0,.5,.9,.5,1.5-.1,1.5-.2,3-1,4.3-.3-.3-.6-.6-.8-.9-.6-.7-.5-1.4,0-2Z"/>
      <path class="cls-34" d="M26.2,26.4c-.4,.1-.8,.2-1.2,.4-.2,0-.4-.1-.6-.2-.8-.9-2.2-.6-3-1.4,.3-1.2-1.2-1.7-1.2-3.2,2.6,1,4.4,2.5,6,4.4Z"/>
      <path class="cls-50" d="M58.8,48.3c-.2,.2-.4,.5-.6,.7-1.5,.2-3,.4-4.5,.6-.6-.2-1.1-.4-1.7-.6,2.2-1.2,4.5-1.6,6.9-.7Z"/>
      <path class="cls-56" d="M20.1,44.5c-1.6,0-1.7,1.2-1.7,2.4-1.2-1.3-1.4-2.8-1.3-4.5,.4-.6,.8-.6,1.3-.1,.6,.7,1.1,1.5,1.7,2.2Z"/>
      <path class="cls-43" d="M60.4,24.3c0,.4,.1,.7,.2,1.1,.1,2.2-1.2,2.7-3,2.7-.4,0-.7,0-1.1-.1,1-1.6,2.5-2.6,4-3.7Z"/>
      <path class="cls-57" d="M61.3,54.3c.2,.3,.5,.6,.7,.9-1.1,.9-1.1,2.9-3.1,2.9,0-.9,0-1.9,.9-2.3,.3-.6,.6-1.3,1.4-1.4Z"/>
      <path class="cls-54" d="M49.9,62.1c.5,.2,1,.4,1.6,.6-1,1.2-2.5,1-3.9,1.3-.6-.3-1.2-.5-1.8-.8,1-1.7,2.4-2,4.1-1.1Z"/>
      <path class="cls-47" d="M32.7,8.6c1.6-1.5,2.4,.5,3.7,.8-1.6,1.7-2.6,.1-3.7-.8Z"/>
      <path class="cls-6" d="M21.6,52.6c0,.4-.2,.8-.2,1.2-1.4-1.2-1.8-3-2.5-4.6,.3,0,.7,0,1-.1,1.6,.7,2.2,1.8,1.7,3.5Z"/>
      <path class="cls-1" d="M21.4,25.2c1.3-.2,2.5-.1,3,1.4-1,0-1.9,0-2.9,0,0-.5,0-1,0-1.4Z"/>
      <path class="cls-32" d="M18.4,42.4c-.4,0-.9,0-1.3,.1,0-.8-.5-1.9,.7-1.9,.8,0,.6,1.1,.6,1.8Z"/>
      <path class="cls-51" d="M37.9,40.3c0-.6,.1-1.3,.2-1.9,.7,0,1,.5,1.3,1,0,.7,.8,1.4,0,1.9-.2,.1-.9-.6-1.4-1Z"/>
      <path class="cls-38" d="M62.8,23.4c-.8,0-1.5,.2-2.3,.3,0-.8,.2-1.5,1.2-1.5,.8,0,1,.6,1.1,1.2Z"/>
      <path class="cls-27" d="M39.4,39.4c-.4-.3-.9-.7-1.3-1-.1-.4-.2-.8-.3-1.1,1.7-.1,1.7,1,1.6,2.1Z"/>
      <path class="cls-1" d="M33.4,34.8c1.1,.3,1.5,1.1,1.6,2.2-1.6,0-1.6-1.1-1.6-2.2Z"/>
      <path class="cls-59" d="M31.8,61c-1.5-.7-2.9-1.4-4.4-2.1-3.1-2.5-1.4-5.9-1.7-8.9-.1-1.1,.9-1,1.6-.9,1.6,.4,3.4,.2,4.8,1.4,1.3,3.5,1.7,7-.3,10.5Z"/>
      <path class="cls-10" d="M21.6,52.6c-.2-1.3-.9-2.4-1.7-3.5,.3-1.1-1-2-.5-3.2q5.3,2.8,4.9,9.4c-1.4-.4-1.5-2.1-2.7-2.7Z"/>
      <path class="cls-35" d="M31.8,61c0-3.5,.2-7,.3-10.5,.4-.1,.9-.2,1.3-.3,0,0,0,.3,0,.3,1.8,3.7,1.7,7.4,.1,11.2-.6-.3-1.2-.5-1.7-.8Z"/>
      <path class="cls-59" d="M33.5,61.8c0-3.7,0-7.5-.1-11.2q8.2-.2,8.2,7.8c0,.6,0,1.2,0,1.9,.3,2.4-.5,3.5-3,2.6-.7-.2-1.5-.1-2.2-.1-1-.3-1.9-.6-2.9-.9Z"/>
      <path class="cls-59" d="M49.9,62.1c-1.4,.4-2.7,.7-4.1,1.1-2.1,0-3.5-.5-3-3.1,.1-.7,0-1.5,0-2.2q0-7.6,7.8-7.2c-.5,3.8,.9,7.7-.7,11.5Z"/>
      <path class="cls-14" d="M57.5,28.1c.8-1.1,2.7-1,3-2.7,2.4,.6,1.2,3.4,2.7,4.5,.2,3.8-.1,7.4-2.8,10.4-2.9,1.5-5.8,2.3-9.1,1.4-1.5-1.2-5.6-.7-2.9-4.6,.8-.4,1.2-1.1,1.7-1.9,.4-.8,1.2-1.4,2.2-1.1,.9,.3,.6,1.2,.8,1.9,.3,1.2,.5,3.1,1.7,3,1.7,0,1.9-2,2-3.5,.2-2.5,.5-4.9,.7-7.4Z"/>
      <path class="cls-5" d="M54.7,34.3c-.5-1.5-1.1-2.8,.7-3.6,.7,1.4,.3,2.4-.7,3.6Z"/>
      <path class="cls-11" d="M28.3,30.6c1.4,.4,1.7,1.5,1.6,2.8-2.4,.1-1.3-1.7-1.6-2.8Z"/>
      <path class="cls-12" d="M61.3,54.3c-.5,.5-1,.9-1.4,1.4,0-2.5-.1-4.9-.2-7.4,1.8-1,3.5-1.9,5.3-2.9,0,.7,0,1.4,0,2-1.2,2.3-2.4,4.6-3.6,6.9Z"/>
    </g>
  </g>
</svg>