<?xml version="1.0" encoding="UTF-8"?>
<svg id="Capa_2" data-name="Capa 2" xmlns="http://www.w3.org/2000/svg" viewBox="0 0 79.2 76.9">
  <defs>
    <style>
      .cls-1 {
        fill: #e4981f;
      }

      .cls-2 {
        fill: #3c393c;
      }

      .cls-3 {
        fill: #4a6b8c;
      }

      .cls-4 {
        fill: #cc8989;
      }

      .cls-5 {
        fill: #ab6b6b;
      }

      .cls-6 {
        fill: #c69689;
      }

      .cls-7 {
        fill: #402c36;
      }

      .cls-8 {
        fill: #3d7799;
      }

      .cls-9 {
        fill: #23455a;
      }

      .cls-10 {
        fill: #f2b9bb;
      }

      .cls-11 {
        fill: #fcfdfd;
      }

      .cls-12 {
        fill: #efd5cf;
      }

      .cls-13 {
        fill: #fce1e0;
      }

      .cls-14 {
        fill: #397797;
      }

      .cls-15 {
        fill: #a46161;
      }

      .cls-16 {
        fill: #2f1414;
      }

      .cls-17 {
        fill: #283447;
      }

      .cls-18 {
        fill: #cd8889;
      }

      .cls-19 {
        fill: #ca8619;
      }

      .cls-20 {
        fill: #427b9c;
      }

      .cls-21 {
        fill: #d9931d;
      }

      .cls-22 {
        fill: #3d7590;
      }

      .cls-23 {
        fill: #f9dbdc;
      }

      .cls-24 {
        fill: #4e8ab9;
      }

      .cls-25 {
        fill: #343046;
      }

      .cls-26 {
        fill: #fbe0dd;
      }

      .cls-27 {
        fill: #652122;
      }

      .cls-28 {
        fill: #3a7797;
      }

      .cls-29 {
        fill: #dbb5b5;
      }

      .cls-30 {
        fill: #b3921d;
      }

      .cls-31 {
        fill: #39445f;
      }

      .cls-32 {
        fill: #f9dedb;
      }

      .cls-33 {
        fill: #3e2c32;
      }

      .cls-34 {
        fill: #4683a2;
      }

      .cls-35 {
        fill: #e0a123;
      }

      .cls-36 {
        fill: #38697a;
      }

      .cls-37 {
        fill: #f6d4d4;
      }

      .cls-38 {
        fill: #376482;
      }

      .cls-39 {
        fill: #28364b;
      }

      .cls-40 {
        fill: #cf8787;
      }

      .cls-41 {
        fill: #bd8322;
      }

      .cls-42 {
        fill: #8e6862;
      }

      .cls-43 {
        fill: #102739;
      }

      .cls-44 {
        fill: #ec9f1f;
      }

      .cls-45 {
        fill: #a36968;
      }

      .cls-46 {
        fill: #4b3836;
      }

      .cls-47 {
        fill: #cb8989;
      }

      .cls-48 {
        fill: #548cba;
      }

      .cls-49 {
        fill: #467ea9;
      }

      .cls-50 {
        fill: #31374a;
      }

      .cls-51 {
        fill: #32364a;
      }

      .cls-52 {
        fill: #383849;
      }

      .cls-53 {
        fill: #d29d27;
      }

      .cls-54 {
        fill: #d0871b;
      }

      .cls-55 {
        fill: #271729;
      }

      .cls-56 {
        fill: #ada9c9;
      }

      .cls-57 {
        fill: #538dc6;
      }

      .cls-58 {
        fill: #3a455f;
      }

      .cls-59 {
        fill: #371d19;
      }

      .cls-60 {
        fill: #367188;
      }

      .cls-61 {
        fill: #ed9f1f;
      }

      .cls-62 {
        fill: #f6d9d3;
      }

      .cls-63 {
        fill: #283242;
      }

      .cls-64 {
        fill: #cd8619;
      }

      .cls-65 {
        fill: #353546;
      }

      .cls-66 {
        fill: #231817;
      }

      .cls-67 {
        fill: #57819f;
      }

      .cls-68 {
        fill: #ab6a6a;
      }
    </style>
  </defs>
  <g id="Capa_1-2" data-name="Capa 1">
    <g>
      <path class="cls-66" d="M69.4,24.2c4.2,4.3,6.6,9.4,6.7,15.4,0,1.8,.3,3.9-1.8,4.9-1.1,.5-.7,1.4-.7,2.2,.3,14.5-9.3,26.2-24.1,29.4-15,3.2-30.7-4-36.5-17-.9-2-1.4-4.2-2-6.4-.8-3.4,.2-7-2.4-10.3-1.7-2.2-.2-5.7,.4-9.1-3,1-5.8,2-7.8-.7-2.1-2.7-1.4-5.7-.1-8.5,2.9-6.5,8.2-10.2,15.1-11.5,2.1-.4,3.4-1.1,4.5-3.1,2.7-4.6,6.8-7.2,12.4-6.6,1.4,.2,2.4-.1,3.5-.9,1.9-1.4,4.1-2.3,6.3-1.9,6.1,.9,12,2.5,17.4,5.6,1.6,.9,2.8,2.5,3.6,4.2,1.9,3.8,5,4.4,8.3,1.6,.9-.8,1.6-1.9,2.3-2.9,.7-1,.9-2.6,2.6-2.2,1.5,.4,1.4,1.9,1.7,3,1.5,7.1-1.2,11.4-9.4,14.8Z"/>
      <path class="cls-57" d="M15.7,58.3c-3-5.3-2.9-10.8-1.5-16.5,.9-.8,.9-2.1,1.4-3.1h0c3.4-3.8,7.1-7.2,11.8-9.4,.3-.2,.7-.3,1.1-.4,1-.2,1.9-.2,2.8,.1,1.4,.4,2,1.8,3.1,2.6,4.4,2.7,8.8,2.8,13.3,.2,1.9-1.1,3.4-2.9,5.9-3,3.8,.5,6.7,3,9.9,4.7,.9,.9,2.1,1.3,3,2.1h0c.8,.8,.8,2.2,1.7,3,.7,.9,.2,2.3,1.4,3h0c.8,4.8,1.4,9.6-.9,14.2-.5,1.7-2,2.7-3,4-.7,.7-1.3,1.6-1.9,2.4-.9,1-2.3,1.4-3.2,2.5-1,.9-2.1,1.4-3.3,1.7-2.3,0-4.7,.1-5.9,2.7-8.1,3.9-16.1,2.3-24-.6-.8-.3-1.6-.8-2.3-1.1-2.2-1-3.7-3-5.7-4.3-1.3-1.6-2.4-3.3-3.7-4.9Z"/>
      <path class="cls-59" d="M62.8,11.8c1,4,4.3,2.7,7,3-.5,2-2.3,1.3-3.5,1.8-2.5,1.1-1.2,3-1.1,4.7,0,.6,0,1.1,0,1.7-.7,.3-1.3,0-2-.3-1.8-.8-3.1,.5-4.5,1-1.3,.4-2.6,.7-4,.6,4,.9,7.2,3.3,10.3,5.8,.7,.6,1.5,1.4,1.2,2.5-.6,0-1.1,0-1.7,.1-.3,.2-.6,.2-1,.1-2.7-1.4-4.9-3.8-7.9-4.8-1.3-.4-2.7-1.6-4.2-.4-3.2,6.9-14,7.8-18.8,1.9-1.1-1.3-2.4-2-4.2-1.1-.8,.4-1.8,1-2.8,.3-.3-.2-.7-.5-1-.7q1.1-1.9,3.7-3.5c-1.7-1-3.8-1.1-5-2.7-.2-.3-.2-.7,0-1,0-.5,0-1.1,0-1.6,2-.6,3.5,2.1,5.5,.9,1.7-1,1.4-3.3,2.7-4.7,.3-.3,.6-.8,1-1.1,3.1-2,4.8-4.7,3.4-8.5,.3-.3,.7-.7,1-1,1.2-.2,1.8,.6,2.5,1.3,.6,.6,1.3,.7,2,.5,1.3-.4,2.8,.4,4-.6,1-.9,1.8-2,3.1-2.4,1.7,1.1,3.8,0,5.5,1.3-.2,.3-.4,.7-.8,.7-5.7,.9-5.4,3.7-3.5,8,.6,1.2,1.5,2.3,2,3.6,.8,2.2,2.1,3.6,4.7,3.3,2.8-.3,4.5-1.9,5.4-4.5,.5-1.4,0-3,1.2-4.2Z"/>
      <path class="cls-14" d="M57.6,65.7c1-.5,2-1,3-1.5,1.7-2.1,2,0,2.7,.9,0,.2,0,.3,.1,.5-8.9,9.5-25.3,11.4-35.9,4.8-.6-1.3-2-1-2.9-1.7h0c-.6-.8-.7-1.6,0-2.3,8.7,4,17.6,5.4,26.9,2.3,1.8-1.5,3.9-2.2,6-2.9Z"/>
      <path class="cls-4" d="M35.7,5.9q2.6,4.2-2.7,8.9c-1.6,.5-2.3,2.2-3.8,2.9-2.2,1-4.4,1.6-6.7,0-1.3-2.6-1.7-5.1,.7-7.4,1,.6,.7,2.1,2.1,2.7,.5-2-1.6-1.7-2.1-2.7,2.9-5,6.7-6.3,12.5-4.4Z"/>
      <path class="cls-18" d="M48.6,14c-.2-.6-.4-1.2-.5-1.8-1.2-5.7-.3-6.9,5.7-7.4,2.5,.8,5,1.7,6.7,4,1.9,5.3,.4,7.6-4.6,7.2-.4-.6-.3-1.4-.5-2.1-1.1,.3-.9,1.6-1.8,2-2.2,.8-3.4-1-5-1.9Z"/>
      <path class="cls-19" d="M66,32.7c-3.8-4.4-8.8-6.8-14.2-9.2,3.9,.6,7.2-.5,10.4-2.2,.3-.1,1,.6,1.5,.9-.2,2.5,1.4,4.2,2.9,5.8,2.1,2.1,4,4.4,5.5,7,.8,1.3,1.9,2.8,.6,4.4-2.3-2.2-4-5-6.6-6.8Z"/>
      <path class="cls-5" d="M48.6,14c1.9,0,3.3,2,5.4,1.4,.7-.6,1.5-.6,2.1,.1,4.6-.8,5-1.4,4.5-6.7,1.3,.5,1.3,2.1,2.2,3,.2,5.6-1.5,8.9-5.4,9.6-2.6,.5-5.2,.5-6.2-2.9-.5-1.6-1.7-3-2.6-4.5Z"/>
      <path class="cls-44" d="M23.1,21c0,.2,0,.4,0,.5,1.1,1.6,1.5,3.2,0,4.7-4.1,4-7.8,8.4-11.7,12.9-.9-1.2-.8-2.3-.3-3.4,1.3-7.1,6.2-11.3,12-14.8Z"/>
      <path class="cls-1" d="M9.5,17.6c2.1-1.8,4.7-2.4,7.4-3,2.5-.6,3,.2,3.4,2.6,.4,3.1-1.9,1.8-2.8,1.9-4.2,.4-7.7,2.5-11.1,4.7-1.9,.6-1.7-.5-1.4-1.8,.2-1.5,1.3-2.1,2.4-2.8,.7-.5,1.7-.6,2.1-1.6Z"/>
      <path class="cls-54" d="M11.1,35.7c0,.7,0,1.5,.1,2.7,3.8-4.6,7-9.2,11.3-12.8,1.5-1.3,.4-2.8,.6-4.1,2.1,1.7,4.7,1.9,7.6,2.6-2,2-4.8,2.1-6.3,4.1-5.7,3-9.6,7.9-13.8,13.2-.2-2.2-.6-4,.5-5.6Z"/>
      <path class="cls-8" d="M25.4,28.9c1.2-.6,2.4-1.2,3.7-1.7,.9-.4,1.8-.6,2.7,.3,7.4,7.4,13.4,7.2,19.1-.7,1.8,.1,2.6,1.3,3,2.9-2.3,0-3.6,1.9-5.3,3-6,3.7-12.7,2.6-17.1-3-1-.9-2-.4-3,0-.2,0-.4,0-.7,.1-1,.6-1.9,.8-2.9,0,.2-.3,.4-.6,.6-.9Z"/>
      <path class="cls-64" d="M65.1,21.4c-3-1.9-1.4-3.8,0-5.8,2.9,2.3,5.4,.9,7.8-.9,1.1-.8,2.1-1.8,2.7-3.1h-.1c.6-.4,1.1-.4,1.6,0,.9,6.7-5.9,11.6-11.9,9.6Z"/>
      <path class="cls-61" d="M72.6,39.5c-.4-4.4-3.5-7.2-6.1-10.2-1.5-1.7-3-3.2-3.9-5.3-.5-1.2,0-1.6,1-1.7,.5,.3,1,.5,1.5,.8,3.4,3.9,7.8,7.2,8.6,12.8,.2,1.3,.7,2.9,.3,4-.7,1.8-.9,0-1.4-.4Z"/>
      <path class="cls-45" d="M22.5,17.8c4.1,1.1,7-1.9,10.5-2.9-.6,.9-1.3,1.8-1.8,2.7-2.5,5.1-3.3,5.3-8,1.7-.2-.5-.4-1-.7-1.6Z"/>
      <path class="cls-60" d="M68,56.7c2.4-4.8,1.4-10,1.7-15,3,6.4,1.5,12.3-1.6,18.1-.1-.1-.3-.3-.4-.4-.5-1-.3-1.9,.3-2.7Z"/>
      <path class="cls-49" d="M24.8,29.8c1,0,1.9,0,2.9,0-.6,2.1-2.8,1.7-4.1,2.7-2,1.5-4.3,2.5-5.1,5.1-.5,1.5-1.8,.9-2.9,1.1,1.9-4.2,5.6-6.5,9.1-9Z"/>
      <path class="cls-35" d="M75.6,11.7c-1.7,4.3-4.5,6.3-8.2,6.1-1.6,0-2.4-.5-2.2-2.2,1.5-.4,3.2,.3,4.6-.8,2.5,0,3.9-2,5.8-3.1Z"/>
      <path class="cls-47" d="M45.8,6.7c-1.2,2.1-3.1,.3-4.6,.7-.7-.6-1.4-1.3-2.5-.6-.7-.6-1.3-1.3-2-1.9,1.1-1.3,2.3-2.3,4.1-2.2,.5-.1,1-.3,1.5-.2,1.1,1,.7,3.3,2.8,3.5,.3,.2,.5,.4,.7,.7Z"/>
      <path class="cls-41" d="M5.5,27.3c-.8,2,3.7,2.1,1.6,4.2-.9,1-2.9,1.1-3.7,0-1.4-1.9,1-2.8,2-4.3Z"/>
      <path class="cls-22" d="M24.7,66.4c0,.8,0,1.5,0,2.3-2.6-1.4-4.9-3.1-6.1-5.9,.3-.4,.6-.4,.9-.1,2.5,.1,3.2,2.9,5.2,3.8Z"/>
      <path class="cls-14" d="M63.6,62c0-1.1,.5-1.8,1.5-2.2,.6-.4,1.1-.5,1.7,0,.5,.8,.3,1.6-.1,2.4-1.6,.7-1.5,2.9-3.2,3.5,0,0,0,0,0,0-.9-1.2-.6-2.5,0-3.7Z"/>
      <path class="cls-6" d="M42.7,2.8c-.6,0-1.3-.1-1.9-.2,2.7-1.3,5.2-.6,7.6,.9-.9,1-1.8,2-2.6,3.1-.1-.1-.2-.3-.4-.4-.4-1.6-1.4-2.6-2.7-3.5Z"/>
      <path class="cls-53" d="M5,22c.1,.9,.3,1.7,1.4,1.8-1.2,1.3-2.4,2.6-3.9,4.2,.2-2.6,.9-4.5,2.5-6Z"/>
      <path class="cls-34" d="M19.5,62.6c-.3,0-.6,0-.9,.1-1.6-1.1-2.3-2.8-2.8-4.5,1.9,.9,3,2.5,3.8,4.4Z"/>
      <path class="cls-38" d="M63.6,32.8c.2,0,.4,0,.7,0,.4,1.3,2.4,1.3,2.3,2.9-1.3,.2-2.4-.1-3.1-1.4-.4-.5-.4-1,0-1.5Z"/>
      <path class="cls-20" d="M69.7,41.7c-2.1,0-1.4-1.7-1.7-2.9,.2-.4,.5-.4,.8,0,1,.8,.8,1.9,.8,2.9Z"/>
      <path class="cls-38" d="M68.8,38.8c-.3,0-.5,0-.8,0-1.2-.7-1.6-1.8-1.4-3.1,1.9,.2,1.5,2,2.2,3Z"/>
      <path class="cls-3" d="M15.6,38.8c-.1,1.2,.4,2.7-1.4,3.1-.1-1.3,.3-2.3,1.4-3.1Z"/>
      <path class="cls-36" d="M66.7,62.1c0-.8,0-1.5,0-2.3,.4-.4,.8-.5,1.3-.2,0,0,.1,.2,.1,.2,0,1-.5,1.8-1.4,2.3Z"/>
      <path class="cls-30" d="M9.5,17.6c0,1.5-1,1.7-2.1,1.6,.5-.8,1.2-1.4,2.1-1.6Z"/>
      <path class="cls-56" d="M33.7,49.8c.1-.2,.2-.3,.3-.5,2.8,0,5.6-1.2,8.5-.8,2.2,.2,4.4-.6,6.6-.3,1.2,.4,2.4,.3,3.6,.4,1.6,0,2.8,1,4,1.8,1.8,1.1,2.6,2.9,2.4,5.1-.2,2-1.9,2.3-3.5,2.8-.8,0-1.7,.1-2.4-.4-.8-.8-.8-1.7-.6-2.7,.2-1,1.5-.4,1.4-.6-.3-1.1-1.3-1.1-2.2-1.2-1.3,0-2.5-.4-3.8-.6-2.9,0-5.9-.4-8.8,.3-1.6,.4-3.4,.2-5,.9-1.3,.4-2.6,.8-4,2.6,4.7-.5,8.7-1.2,12.7-1.7,.8-.1,1.5,0,2.2,.4,.7,.8,1.2,1.6,.5,2.7-1.6,1-3.6,0-5.3,.8-1.9,.8-3.9,.1-5.9,.7-.6,.1-1.2,.3-1.8,.4-2.9,.2-6.1,2.5-8.5-1.1-.2-4.4,3.1-7.8,8.3-8.4,.5,0,1,.2,1.3-.4Z"/>
      <path class="cls-11" d="M45.4,57.6c-.2-.8-.4-1.6-.6-2.4-.3-.3-.4-.7-.3-1.1,.2-.8,.8-1.3,1.5-1.7,1.4-.3,2.7-.2,4,.3,1,.6,3-.3,3.2,1.8-.3,1-.4,2,0,3,.4,.5,.3,1,0,1.5-.2,2.9-1.1,4.1-3.5,1.2-.8,1.6-.2,3.1-.5,4.6-.2,1.2-.3,2.8-1.8,2.9-1.6,0-1.7-1.6-1.8-2.8-.1-2-.1-4-.2-6-.3-.4-.3-.9,0-1.3Z"/>
      <path class="cls-28" d="M63.6,32.8c0,.5,0,1,0,1.5-3.5-1-6.1-3.9-9.7-4.6-1.4-.6-2.2-1.7-3-2.9,2.3-1.5,4,.4,5.8,1.1,2.7,1.1,5,2.7,6.9,4.8Z"/>
      <path class="cls-39" d="M34.4,38.8c-4.3,3.5-9.2,4.9-14.8,3.7,5-.4,9.7-2,14-4.4,.3,.1,.6,.3,.7,.7Z"/>
      <path class="cls-50" d="M55.3,57.6c3.5-1.6,3.9-4.2,1-6.6-1.1-1-2.5-1.7-4-1.8,.3-1.7,1.3-1,2.2-.7,3.1,.7,4.8,2.7,5.3,5.8,.3,2-.6,3.6-2.7,4.1-.7,0-1.7,.6-1.8-.8Z"/>
      <path class="cls-51" d="M33.7,49.8c-1.3,1.6-3.5,1.4-5.1,2.4-2.3,1.4-4.4,2.9-4.1,6-1.7,0-.5-1.6-1.2-2.2,1.4-4,6.5-7,10.4-6.3Z"/>
      <path class="cls-65" d="M23.2,56c.4,.7,.8,1.5,1.2,2.2,1.3,2.2,3.4,1.6,5.3,1.3,1.1-.2,2.1-.6,3.2-.4,.3,.2,.8,.3,.9,.7-1.8,1.2-3.9,1.2-5.9,1.2-3.9,0-4.8-1-4.6-5.1Z"/>
      <path class="cls-17" d="M54.6,41.8c-.3-.2-.5-.5-.8-.7-.2-.7,0-1.1,.9-.9,2.9,.5,5.6,2.1,8.7,1.6,.5,0,1.4,0,1.3,.9-.2,1-.9,.8-1.7,.7-1.2-.2-2.5-.2-3.7-.2-1.5-.5-3.4,.2-4.7-1.4Z"/>
      <path class="cls-24" d="M57.6,65.7c-1.9,1.2-3.3,3.4-6,2.9,0-5.1,3.9-2.1,6-2.9Z"/>
      <path class="cls-9" d="M54.7,40.2c-.3,.3-.6,.6-.9,.9-2.7-.5-4.6-2.2-6.2-4.2-1.4-1.8,.1-1.3,1.1-1.1,.9,.8,2.4,.9,2.9,2.3,1,.7,2.1,1.4,3.1,2.1Z"/>
      <path class="cls-63" d="M42.6,49c-2.9,0-5.7,1.5-8.6,.3,2.8-1.3,5.7-1.6,8.7-1.4,.4,.4,.4,.8,0,1.2Z"/>
      <path class="cls-48" d="M54.6,41.8c1.7,0,3.2,.7,4.7,1.4-1.8,.3-4.7,4.3-4.7-1.4Z"/>
      <path class="cls-2" d="M42.6,49c0-.4,0-.8,0-1.2,3-.3,6-.4,9,0-.3,1.8-1.5,.8-2.4,.8-2.2,.1-4.4,.2-6.5,.3Z"/>
      <path class="cls-25" d="M34.3,59c1.9-1,3.9-.7,5.9-.8,1,0,2.3-1,2.5,.9-2,.2-4.1,.4-6.1,.6-.6-.5-1.7,0-2.2-.7Z"/>
      <path class="cls-14" d="M63.6,62c0,1.2,0,2.4,0,3.7-1.5,.6-1.1-2.6-2.9-1.4,.1-1.9,2.1-1.4,3-2.3Z"/>
      <path class="cls-58" d="M42.7,59.1c-.6-1-1.6-.7-2.5-.9,1.7-.8,3.5-.7,5.2-.5,0,.4,0,.9,0,1.3-.9,0-1.8,.1-2.7,.2Z"/>
      <path class="cls-14" d="M68,59.6c-.4,0-.9,.2-1.3,.2-.5,0-1.1,0-1.6,0,1-1,1.3-2.7,2.9-3.1,0,1,0,1.9,0,2.9Z"/>
      <path class="cls-43" d="M34.4,38.8c-.2-.2-.5-.4-.7-.7,.9-1,1.7-2,3.7-2.6-.9,1.7-1.5,2.8-3,3.2Z"/>
      <path class="cls-31" d="M55.3,57.6c.6,.3,1.2,.5,1.8,.8-1.2,.8-2.6,.6-3.9,.6,0-.5,0-1,0-1.5,.7,0,1.4,0,2.1,.1Z"/>
      <path class="cls-52" d="M49.1,48.7c.8-.2,1.8,0,2.4-.8,1.1,0,2.2-.2,3,.7-.8,0-1.6-.1-2.2,.7-1.1-.1-2.2,.2-3.2-.5Z"/>
      <path class="cls-67" d="M51.6,38.1c-1.1-.6-2.4-1-2.9-2.3,1.6,0,3.2,0,2.9,2.3Z"/>
      <path class="cls-49" d="M28.4,29.7c1-.4,2-2.6,3,0-1,0-2,0-3,0Z"/>
      <path class="cls-55" d="M34.3,59c.8,.2,1.7-.1,2.2,.7-.9,0-1.9,.2-2.8,.3-.3-.2-.6-.5-.9-.7,.5,0,.9-.1,1.4-.2Z"/>
      <path class="cls-40" d="M33.4,26.9c-2.4-3.4-2-6.8,.2-10,2-3.1,6.2-4.6,9.9-3.4,3.9,1.2,6.3,3.7,6.5,8-2.5,1.5-4.9,3.1-7.2,5.1-2.9,2.6-5.8,2.5-9.4,.4Z"/>
      <path class="cls-68" d="M33.4,26.9c4.1,1.3,7.8,.9,10.7-2.8,1.5-1.8,3.4-2.9,5.9-2.7,0,4.7-2,7.6-6.4,9.2-3.8,1.4-7,.2-10.2-3.8Z"/>
      <path class="cls-21" d="M38.4,11.8c3.4-4.2,6.3-3.7,8.3,.7-2.6-.5-5.1-.9-8.3-.7Z"/>
      <path class="cls-29" d="M38.7,6.8c.3-.6,.6-1.5,1.5-1.2,.8,.3,.8,1.1,1,1.8-1,.6-2,1-2.5-.6Z"/>
      <path class="cls-26" d="M23.1,10.3c.7,0,1.5,0,2.2,0,1.5,0,1.7,1.2,1.6,2.3,0,1-.7,1.6-1.6,1.7-1.2,.1-2.1-.4-2.2-1.8,0-.7,0-1.5,0-2.2,0,0,0,0,0,0Z"/>
      <path class="cls-23" d="M32.9,11.6c-1-.2-1.5-.8-1.5-1.8,0-1.1,.7-1.8,1.9-1.7,1,0,1.7,.6,1.6,1.6-.1,1-.9,1.7-2,1.9Z"/>
      <path class="cls-32" d="M56.1,15.6c-.7,0-1.4,0-2.1-.1-.2-1.2-.7-2.5,.8-3.3,.6-.4,1.2,0,1.7,.4,1,1.1,.2,2.1-.3,3Z"/>
      <path class="cls-37" d="M59.6,9.5c-.2,.8-.7,1.4-1.5,1.3-.8,0-1.2-.7-1.2-1.5,0-.9,.6-1.3,1.4-1.2,.8,.1,1.3,.6,1.4,1.4Z"/>
      <path class="cls-10" d="M51.2,7.5c.5,.1,.8,.5,.8,1,0,.5-.5,.8-1,.8-.6,0-.7-.5-.7-1,0-.6,.4-.8,.9-.8Z"/>
      <path class="cls-12" d="M42.7,2.8c2.7-.3,3.9,.6,2.7,3.5-3.1,.6-4.4-.3-2.7-3.5Z"/>
      <path class="cls-7" d="M42.7,55.3c-3.6,.7-7.2,1.4-10.8,2-1,.2-2.4,.8-2.9-.5-.5-1.4,.8-2.2,1.9-2.7,.9-.4,1.8-.6,2.8-1,.2,.2,.4,.5,.4,.8,0,.3-.1,.6-.3,.8-.3,0-.4,.2-.2,.3,.2,0,.5-.2,.7-.4,1.7-.6,3.5-1.2,5.3-.7,1.1,.4,2.3,.4,3.1,1.4Z"/>
      <path class="cls-33" d="M33.7,54c0-.3,0-.6-.1-.9,1.6-1,3.4-.9,5.1-.9,.8-.4,1.6-.4,2.4,0,.2,.4,.1,.8-.2,1.1-2.4,.4-4.7,1.7-7.2,.7Z"/>
      <path class="cls-46" d="M53.2,54.6c-.7-1.2-2.4-.5-3.3-1.5,.6-.8,1.7-.1,2.4-.7,1.4,0,2.3,.7,2.5,2.1,.1,.7,0,1.4-.6,1.5-1,.2-.2-1.3-1-1.4Z"/>
      <path class="cls-46" d="M41.2,52.3c-.8,0-1.6,0-2.4-.1,3.2-1.1,6.5-.6,9.8-.5-.5,1.8-2.2,.4-3.1,1.1-1.5,.5-3,.6-4.3-.5Z"/>
      <path class="cls-33" d="M45.6,52.3c1-.1,2.1,.3,3-.6,1.3,.2,2.5,.5,3.8,.7-.6,.8-1.5,.5-2.4,.7-1.4,0-2.9,0-4.3,.1-.1,0-.2-.2-.3-.2,0-.3,0-.5,.2-.7Z"/>
      <path class="cls-16" d="M42.7,55.3c-1-.2-2.2,.2-3.1-.6,1.7-1.3,3.4-1.6,5.1-.1,0,.2,.1,.4,0,.7-.7,0-1.4,0-2.1,0Z"/>
      <path class="cls-15" d="M44.8,54.5c-1.7,0-3.4,0-5.1,.1-2,.2-4,.4-6,.6-.2-.2-.3-.3-.2-.5,0-.2,.1-.3,.2-.3,0-.2,.1-.3,.2-.5,2.5-.4,4.9-.7,7.4-1.1,1.5-.5,3-.3,4.6-.1,.1,.1,.1,.3,0,.4-.3,.4-.6,.9-.9,1.3Z"/>
      <path class="cls-13" d="M38.2,20.5c0,1.4-.8,2-2.1,1.9-1.2,0-1.8-.7-1.7-1.9,0-1.3,.9-2,2.2-1.9,1.3,0,1.6,.8,1.6,1.9Z"/>
      <path class="cls-62" d="M43.9,14.9c1.1,.3,1.7,1,1.5,2.1-.2,1-.9,1.5-1.9,1.4-1-.1-1.6-.8-1.6-1.7,0-1.1,.7-1.8,2-1.8Z"/>
      <path class="cls-42" d="M33.6,54.5c0,.3,0,.5,0,.8-.7,.9-1.6,.7-2.6,.5,.8-.9,1.6-1.2,2.6-1.3Z"/>
      <path class="cls-27" d="M45.7,52.8c-1.5,0-3,0-4.6,.1,0-.2,0-.4,0-.6,1.5,0,2.9,0,4.4,0,0,.2,0,.3,0,.5Z"/>
    </g>
  </g>
</svg>