<?xml version="1.0" encoding="UTF-8"?>
<svg id="Capa_2" data-name="Capa 2" xmlns="http://www.w3.org/2000/svg" viewBox="0 0 75.3 67">
  <defs>
    <style>
      .cls-1 {
        fill: #3a151b;
      }

      .cls-2 {
        fill: #0b0b1c;
      }

      .cls-3 {
        fill: #1e1e2d;
      }

      .cls-4 {
        fill: #f08ba4;
      }

      .cls-5 {
        fill: #10467b;
      }

      .cls-6 {
        fill: #0d4678;
      }

      .cls-7 {
        fill: #372a26;
      }

      .cls-8 {
        fill: #24293c;
      }

      .cls-9 {
        fill: #b77585;
      }

      .cls-10 {
        fill: #0b5394;
      }

      .cls-11 {
        fill: #095297;
      }

      .cls-12 {
        fill: #4b463e;
      }

      .cls-13 {
        fill: #44393a;
      }

      .cls-14 {
        fill: #eeedc6;
      }

      .cls-15 {
        fill: #ef8ba4;
      }

      .cls-16 {
        fill: #1b3965;
      }

      .cls-17 {
        fill: #d47e8d;
      }

      .cls-18 {
        fill: #084a8b;
      }

      .cls-19 {
        fill: #edecc5;
      }

      .cls-20 {
        fill: #134782;
      }

      .cls-21 {
        fill: #1f2735;
      }

      .cls-22 {
        fill: #15416f;
      }

      .cls-23 {
        fill: #ea84a6;
      }

      .cls-24 {
        fill: #144f8b;
      }

      .cls-25 {
        fill: #57282f;
      }

      .cls-26 {
        fill: #3d2727;
      }

      .cls-27 {
        fill: #d08f9a;
      }

      .cls-28 {
        fill: #0f1528;
      }

      .cls-29 {
        fill: #12152b;
      }

      .cls-30 {
        fill: #e28595;
      }

      .cls-31 {
        fill: #030303;
      }

      .cls-32 {
        fill: #fffcfd;
      }

      .cls-33 {
        fill: #46453a;
      }

      .cls-34 {
        fill: #f0eff0;
      }

      .cls-35 {
        fill: #c57585;
      }

      .cls-36 {
        fill: #49abcd;
      }

      .cls-37 {
        fill: #11192c;
      }

      .cls-38 {
        fill: #141921;
      }

      .cls-39 {
        fill: #1d222c;
      }

      .cls-40 {
        fill: #3c3c31;
      }

      .cls-41 {
        fill: #fdfdfd;
      }

      .cls-42 {
        fill: #182d4c;
      }

      .cls-43 {
        fill: #fbfbfb;
      }

      .cls-44 {
        fill: #1c2735;
      }

      .cls-45 {
        fill: #ad7884;
      }

      .cls-46 {
        fill: #f7c1d6;
      }

      .cls-47 {
        fill: #1a3b66;
      }

      .cls-48 {
        fill: #2c312d;
      }

      .cls-49 {
        fill: #0f100b;
      }

      .cls-50 {
        fill: #ec8d9e;
      }

      .cls-51 {
        fill: #4fbbdb;
      }

      .cls-52 {
        fill: #1c181f;
      }

      .cls-53 {
        fill: #b57a86;
      }

      .cls-54 {
        fill: #085398;
      }

      .cls-55 {
        fill: #dc909c;
      }

      .cls-56 {
        fill: #08549c;
      }

      .cls-57 {
        fill: #04040b;
      }

      .cls-58 {
        fill: #0f1123;
      }

      .cls-59 {
        fill: #0e2235;
      }

      .cls-60 {
        fill: #3c121b;
      }

      .cls-61 {
        fill: #232519;
      }

      .cls-62 {
        fill: #a77680;
      }

      .cls-63 {
        fill: #293136;
      }

      .cls-64 {
        fill: #b47281;
      }

      .cls-65 {
        fill: #cecaaa;
      }

      .cls-66 {
        fill: #114475;
      }

      .cls-67 {
        fill: #1f1016;
      }

      .cls-68 {
        fill: #eeedee;
      }

      .cls-69 {
        fill: #cb7787;
      }

      .cls-70 {
        fill: #323127;
      }

      .cls-71 {
        fill: #0b1a2a;
      }

      .cls-72 {
        fill: #1a1f3d;
      }

      .cls-73 {
        fill: #c36b85;
      }

      .cls-74 {
        fill: #99646c;
      }

      .cls-75 {
        fill: #110505;
      }

      .cls-76 {
        fill: #371e21;
      }

      .cls-77 {
        fill: #163351;
      }

      .cls-78 {
        fill: #341519;
      }

      .cls-79 {
        fill: #07559d;
      }
    </style>
  </defs>
  <g id="Capa_1-2" data-name="Capa 1">
    <path class="cls-31" d="M21.7,0c4.2,.3,7.5-1,9.6,2.2,.3,.4,.8,.4,1.3,.3,6.1-1.1,11.8,.7,17.6,2.3,1.6,.4,3.3,1.6,3.2-1.5,0-.7,.4-1.3,1-1.5,4.7-1.5,9.5-1.7,14.3-.6,1.3,.3,1.7,1.4,1.9,2.5,.4,2.1,.7,4.2,1,6.3,.4,3.2,.4,6.2,2.5,9.1,1.9,2.8,1.3,6.5,.7,9.9-1.1,6.7-1.7,13.5-1.1,20.3,.3,3.1-1.1,5.6-3.2,7.7-6.8,7-15.5,9.2-24.8,9.8-5.3,.3-10.4-.7-15.5-2.3-.9-.3-1.6-1-2.8-.5-7.5,3.6-13.1,2.7-18.1-3.1-6-6.8-6.5-16.9-.9-24.1,1.5-1.9,2.5-3.9,2.7-6.3,.4-3.4,1.7-6.5,3.7-9.3,1.3-1.8,.9-2.7-.8-3.8-4-2.5-7.8-5.3-11.4-8.5C1.2,7.8-.6,6.4,.2,4.1,.9,1.7,3.3,1.8,5.2,1.5,11.1,.9,17.1,.4,21.7,0Z"/>
    <path class="cls-14" d="M21.1,19.7C15.7,15.6,9.7,12.2,4.6,7.6c-.8-.7-2.2-1.5-1.9-2.5,.4-1.3,2-1.1,3.2-1.3,6.7-1.1,13.4-1.1,20.1-1.5,2.3-.1,3.5,.6,3.6,3.1,.1,2.5,.5,4.9,.8,7.4,1.2,3.5,2.2,7.3,1.2,10.9-1,3.8-1.1,7.6-1.1,11.4-.2,1.9,.4,3.7,1.1,5.4,.6,1.7,1.6,3.1,2.9,4.2,.5,.7,1.6,1.2,.6,2.3-2.2,.9-4.1,0-6-1-2.5-2-5-3.9-7.6-5.8-1.5-1.1-2.7-2.5-3.3-4.4-.4-2.3,.5-4.5,.7-6.7,.3-1.2,.8-2.4,1.3-3.5,.9-1.9,2.3-3.6,.9-5.8Z"/>
    <path class="cls-4" d="M67.6,46.6c3.8,.4,4.6,3.1,2.1,7.4-4.8,3.8-10.8,3.6-16.4,4-9.1,.7-18.1-.6-26.9-2.9-3.1-.6-5-2.9-7.1-5-1.5-1.5-2.5-3.3-3.2-5.3-.2-1-.2-2,.4-2.8,.5-.4,1.1-.4,1.7-.3,5.6,2.5,11.1,5,17.4,5.6,2-.4,3.9,.6,5.9,.7,.4,0,.8,.1,1.2,.2,5.5,.5,11.1,.7,16.6-.1,.9-.5,1.8-.8,2.8-.9,1.8-.5,3.7-.1,5.6-.6Z"/>
    <path class="cls-79" d="M48.1,6.9c1,.2,2,.5,3,.7,3.3,.9,6.8,1.2,9.1,4.2,4.2,1.7,6.7,4.8,7.6,9.2,1.5,2.1,1.5,4.3,.8,6.7,.5,3.2,.9,6.5,1.4,9.7,.4,.8,.4,1.4-.5,1.8-1.2-.1-1.8-1.1-2.5-2-.7-1-1.3-2-1.6-3.2,0-1-.6-1.7-1.6-2.1-.4-.3-.8-.6-1.1-.9-1.1-1.9-3.1-3.1-3.6-5.4,.4-1.7-.6-2.3-2-2.5-2.3-1.6-4-3.8-5.7-5.9-.6-1-1.5-1.9-2.1-2.9-.5-.9-1.2-1.8-1.7-2.7-.3-1-1.1-2-1.2-3-.2-1.3-.1-2.6,1.9-1.8Z"/>
    <path class="cls-19" d="M64.7,42c1.8,.7,3.5,1.4,5.5,2.2-1.2,1.3-2.7,1.3-4,1.8-1.6,1.9-4,.9-5.9,1.8-5.3,1.5-10.8,1-16.2,1-1.8-1.1-4.1-.1-5.8-1.5-.6-1.5,.5-2,1.5-2.6,1.1-.7,2.1-1.5,2.3-2.8,0-.3,.2-.6,.3-.9,.1-.3,.3-.6,.5-.9,1.6-1.4,1.6-3.7,2.8-5.3,1.1-.9,2.1-.3,3.1,.2,3.5,1.6,7.2,2.8,10.7,4.2,1.7,1,4,.9,5.2,2.8Z"/>
    <path class="cls-69" d="M25.7,54.1c7,1.5,14.1,2.7,21.3,3,7.7,.3,15.3-.8,22.7-3-3.3,4.5-7.6,7.3-13.3,7.7-10.7,2.2-20.4-1-29.7-5.8-.7-.3-1.2-.9-1-1.8Z"/>
    <path class="cls-15" d="M25.7,62.4c-2.3,2.9-5.3,2.3-8.1,1.3-3.9-1.4-7.3-3.5-8.6-7.8-.5-1.6-.6-3.3-.8-5-.1-2,.6-3.3,2.8-3.4,4.9,3.1,9.4,6.9,13.9,10.5,1.4,1.1,1.3,2.8,.7,4.5Z"/>
    <path class="cls-5" d="M60.1,6.1c-1-1.2-2.9-.4-4.1-1.5,2.6-1.8,8-2.2,11.7-.8-.9,1.1-.2,2,.1,3.1,.8,2.7,1.1,5.5-.2,8.2-1.5-1.1-3-2.1-4.4-3.2-1.1-1.9-.4-4.7-3.1-5.8Z"/>
    <path class="cls-78" d="M25.7,54.1c7.6,5.2,16.3,6.6,25.2,7.4,1.8,.2,3.7,.1,5.5,.2-1.2,.8-2.1,2.1-3.8,2.1-3.6-1.2-7.5,0-11.1-1.1-5-.6-9.5-2.7-14-4.8-.9-.5-1.8-1.1-2.7-1.7-1.1-.8-2.2-1.5-3.3-2.2-1.1-.8-2.2-1.6-2.9-2.8-.1-.3-.2-.7-.1-1,.2-.5,.5-.9,1.1-.6,2,1.5,3.6,3.6,6,4.5Z"/>
    <path class="cls-11" d="M13.7,33.1c-.5-4.6,1.8-8.3,4.2-12,.6-1,1.5-1.7,2.7-.7,1.8,1.1,1.2,2.4,.5,3.8-.7,1.2-1.2,2.6-1.5,4-.8,1.8-.2,4-1.3,5.7-.1,.3-.4,.6-.6,.9-1.6,.2-2.8-.6-3.8-1.7Z"/>
    <path class="cls-35" d="M27.2,57.1c4.7,1.7,9.2,4,14.2,4.7,1.4,1.1,3.1,1,4.8,1,.8,0,2.1-.6,2,1.1h-.2c0,.1-.2,0-.2,0-2.4,.4-4.9,.4-7.3,0-.4,0-.9,0-1.3,0-1.2-.9-2.7,0-3.9-.7-3-.2-5.9-.8-8.3-3-.9-.9-2-1.7-1.4-3.2,.5-.2,1.1-.2,1.5,.1Z"/>
    <path class="cls-38" d="M29.5,36.1c-.5-4-.3-7.9,.9-11.8,1.2-3.8-.7-7.6-.2-11.5,.9-.9,.4-2.1,.7-3.1,1.8,1.2,3.6,1.8,5.8,1.3,1.5-.4,3-.3,4,1.1-.5,2-2.3,1.5-3.6,1.9-4.5,1-4.8,1.5-4.1,6.1,.2,.3,.4,.6,.5,.9,.2,.5,.2,1,0,1.6-.7,1.9-1.7,3.7,0,5.6,.4,.6,.7,1.2,.5,2-.3,.5-.6,.8-1.2,.9-.8,0-1.3-.4-2-.9,0,1.5,.3,3,0,4.5-.2,.7-.4,1.4-1.4,1.3Z"/>
    <path class="cls-51" d="M40.4,12.1c-1.9-1-4-.4-5.8,.1-2.6,.7-3.3-.4-3.7-2.5,0-1-.5-2.4,1.5-2.2,1.2,.1,2.5,0,3.7,.1,1.8-.5,3.7-.5,5.5,0,2.8,.8,2.9,2,.6,4.2-.6,.2-1.2,.3-1.8,.3Z"/>
    <path class="cls-1" d="M25.6,57.1c.5,1,1,2,1.5,3-.4,.7-.9,1.5-1.3,2.2,.5-2.8-1.2-4.3-3.3-5.6-3.8-2.5-7.7-4.8-10.4-8.6-2.2-1.6-2.1-4-2.3-6.3,0-1.1,.4-2.2,.3-3.3q.9-1.2,2.1,1.3c1.3,1.1,.8,2.7,1.3,4,.4,3.3,2.9,5.2,4.9,7.4,1,.8,2,1.6,2.9,2.5,1,.5,1.8,1.3,2.8,1.6,.6,.5,1.2,1,1.4,1.8Z"/>
    <path class="cls-34" d="M68.3,21.1c.7-.8-.5-2.5,.9-2.8,1.2-.2,2.5,.7,2.8,2,1.1,3.7,1.3,7.4-.9,11.2-1.2-1.8-1.1-3.5-1.5-5.1-1-1.6-1.5-3.4-1.4-5.3Z"/>
    <path class="cls-50" d="M10.6,41.4c.5,2.2,1,4.5,1.5,6.7-2.3-.3-3.1,.7-2.9,2.9,.1,1.6,0,3.2,0,4.8-2.7-4.8-3-9.6-.4-14.5,.6-.6,1.3-.6,1.9,0Z"/>
    <path class="cls-66" d="M48.1,6.9c-1.2,.1-2,.8-1.1,1.9,.9,1,1.2,2.1,1.1,3.3-1.1,.5-2.3,0-2.6-.8-1.6-3.4-4.5-3.8-7.8-3.7-.7,0-1.2-.3-1.5-.9-.3-.8-2.7-2,.4-2,4,0,7.7,1.1,11.4,2.3Z"/>
    <path class="cls-71" d="M36.3,6.6c.4,0,.7,0,1.1,0,4.6-.3,7.9,2,10.8,5.3,1.1,.3,1.4,1.2,1.5,2.2,.2,.8-.2,1.1-.9,1.2-2.4-1.7-5.9-1.5-7.7-4.3,.8-.4,2.4-.1,2.4-1.2,0-1-1.3-1.2-2.3-1.4-1.7-.4-3.5,.2-5.1-.9,0-.3,.1-.7,.2-1Z"/>
    <path class="cls-6" d="M13.7,33.1c1.6-.4,2.6,.8,3.8,1.5,.9,1.1,1.1,2.5,.7,3.8-.5,1.9-1.5,2.6-3,.6,0-.2,0-.4,0-.6-.5-.8-.7-1.7-1.4-2.3-.9-1-.9-2,0-3Z"/>
    <path class="cls-20" d="M67.6,15.2c0-2.9,.3-5.8-.6-8.7-.3-.9-.3-2,.7-2.6,1.8,4.2,2,8.6,1.4,13.2-1.2-.2-1.3-1.1-1.5-1.9Z"/>
    <path class="cls-24" d="M69.1,42.1c-1.1,.2-2-.3-3-.7-1.6-.7-3.8,0-4.9-1.9-.2-.5-.1-1.1,.1-1.6,1.2-1.3,2.8,1.2,4-.4,.3-.2,.6-.2,1-.2,.4,0,.7,.2,.9,.4,.7,1.5,3,2.2,1.9,4.5Z"/>
    <path class="cls-75" d="M15.2,39c1,.4,2.2,1.1,2.3-.8,0-1.2,0-2.4,0-3.6,0-.2,.2-.4,.2-.7,2,4.5,1.9,6-1,8.1,0,.9,0,1.9,.1,2.8,.3,.9-.2,1.1-.9,1.1-2-1.3-1.7-3.1-1.4-5,.1-.4,.4-.8,.7-1,0-.3,0-.6,0-.9Z"/>
    <path class="cls-28" d="M60.2,11.9c-3-1.4-6-2.8-9.1-4.2,1.3,0,2.6,0,3.9,0,1.8,.3,3.6,.9,5.1,2.1,0,.7,0,1.4,0,2.1Z"/>
    <path class="cls-22" d="M60.1,6.1c5.2-.2,2.2,3.8,3.1,5.8-1.5-1.7-2.4-3.7-3.1-5.8Z"/>
    <path class="cls-36" d="M60.1,9.8c-2,.1-3.5-1-5.1-2.1,2.8-2.1,4.4-1.1,5.1,2.1Z"/>
    <path class="cls-17" d="M15.1,40c0,.2,0,.4,0,.7-1,1.2-.8,3.1-2.3,4-.9-1.5-.4-3.2-.7-4.8,1.2-4.8,2,1.3,3,.1Z"/>
    <path class="cls-64" d="M48.2,63.9c-1.8-2.1-5.2,.6-6.8-2.2,3.7,1,7.7,0,11.2,2.1-1.5,0-2.9,0-4.4,0Z"/>
    <path class="cls-48" d="M20.4,24c.9-1.2,1-2.4,.2-3.6,.2-.2,.4-.5,.6-.7,4.7,2-.3,3.9,0,5.9-1.4,0-1-.8-.7-1.6Z"/>
    <path class="cls-57" d="M68.3,21.1c1,1.6,1.4,3.4,1.4,5.3-.4,.5-.7,1-1.1,1.4-.3-2.2-.6-4.5-.8-6.7,.2,0,.3,0,.5,0Z"/>
    <path class="cls-39" d="M61.6,39.2c1.1,1.5,3.2,.9,4.5,2.1-.5,.2-1,.4-1.4,.6-1.8-.6-3.8-.8-5.4-2.1,.1-.6,.4-.9,.9-1.2,.5-.1,1,0,1.3,.5Z"/>
    <path class="cls-7" d="M60.8,47.3c1.7-1,3.6-.7,5.4-1.3,.5,.2,1,.4,1.5,.6-1.6,1.1-3.5,1.2-5.3,1.4-.4-.4-1.2,0-1.6-.7Z"/>
    <path class="cls-58" d="M69.1,42.1c-.8-1.4-1.6-2.8-2.3-4.3-.3-.8,.1-.9,.8-.9,.6,.7,1.1,1.4,1.7,2.1,.8,.5,.9,1.4,1.3,2.1-.2,.7-.2,1.7-1.4,.9Z"/>
    <path class="cls-64" d="M40.4,64c2.4,0,4.8,0,7.3,0-2.4,.8-4.9,.9-7.3,0Z"/>
    <path class="cls-77" d="M71.4,36.1c-.9-1.3-.9-2.3-.5-3.4,1.2,.9,1.3,1.9,.5,3.4Z"/>
    <path class="cls-73" d="M10.6,41.4c-.6,0-1.3,0-1.9,0,.4-1,.9-1.9,1.3-2.9,1.5,.7,.6,1.9,.6,2.9Z"/>
    <path class="cls-47" d="M70.5,41.1c-.8-.5-1.2-1.2-1.3-2.1,.3-.5,.5-1,.8-1.5,1.1,1,.6,2.3,.5,3.6Z"/>
    <path class="cls-16" d="M13.7,36.1c1.6,0,1.5,1.2,1.4,2.3-.9-.5-1.5-1.2-1.4-2.3Z"/>
    <path class="cls-64" d="M35.3,63.2c1.3,0,2.8-.6,3.9,.7-1.4,.1-2.7,.3-3.9-.7Z"/>
    <path class="cls-65" d="M19,36.1c2.5,4.1,7.2,5.7,10.3,9.1-4.3,.4-7.9-1-10.9-4.2,.3-1.6-.4-3.4,.5-4.9Z"/>
    <path class="cls-26" d="M18.9,41.3c3.3,1.9,6.7,3.4,10.4,3.9,1.9,.9,4,1.3,6.1,1.5,.2,.2,.3,.4,.4,.7,0,.3-.1,.5-.4,.6-6.1-1-12.2-2.1-17.4-5.8,.1-.5,.4-.8,1-.9Z"/>
    <path class="cls-31" d="M18.9,41.3c-.3,.3-.6,.6-1,.9-.4,0-.9,0-1.3-.1,1.1-2.6,2.5-5.2,1-8.1,.4-2,.9-4,1.3-6,.8-.2,1.1,0,.8,.9,0,2.4-1.1,4.8-.8,7.3,0,1.7,0,3.5,0,5.2Z"/>
    <path class="cls-33" d="M35.4,47.4c0-.2,0-.5,0-.7,.1-1.1-1.3-.8-1.5-1.6-.3-.7,.2-.9,.7-1.2,1.7,0,3.5,.1,5.2,.1,.5,.2,.9,.6,1,1.2-.4,1.2-2.1,.2-2.5,1.4-.7,1.3-1.7,1.3-2.9,.8Z"/>
    <path class="cls-40" d="M29.5,36.1l.7-1.7c2.3,1.4,1.9,3.7,2,5.9-.2,.6-.5,1.1-1.3,1-.8-1.7-1.7-3.3-1.5-5.3Z"/>
    <path class="cls-12" d="M31,41.3c.2-.3,.5-.6,.7-.8,1.9,.5,2.9,1.8,3,3.8-.3,.3-.6,.5-.8,.8-1.6-.8-2.3-2.2-2.9-3.8Z"/>
    <path class="cls-44" d="M19.8,28.8c-.3-.3-.6-.6-.8-.9,.3-1.3,.5-2.8,1.4-3.9,.2,.5,.5,1.1,.7,1.6-.4,1.1-.8,2.2-1.2,3.2Z"/>
    <path class="cls-61" d="M60.8,47.3c.5,.2,1.1,.5,1.6,.7-.8,.2-1.5,.4-2.3,.7-5.9,1.1-11.9,.5-17.9,.3-.2,0-.5-.2-.7-.3,.3-1.7,1.4-.8,2.3-.7,5.7-.2,11.3-.5,17-.7Z"/>
    <path class="cls-30" d="M42.2,49c6-.1,11.9-.2,17.9-.3-.6,1.3-1.9,1-2.9,.9-5-.2-10,.9-15-.6Z"/>
    <path class="cls-60" d="M43.8,48c-.8,.1-1.7,0-2.3,.7-2-.2-4-.5-6-.7,0-.2,0-.4,0-.6,1.1,.1,2-.3,2.9-.8,1.5,1.5,3.8,.3,5.4,1.4Z"/>
    <path class="cls-25" d="M16.1,45.8c.2-.3,.5-.6,.7-.9,.9,1.6,1.9,3.1,2.8,4.7l-.8,.8c-2.5-.6-3.7-1.9-2.8-4.6Z"/>
    <path class="cls-29" d="M59.6,25.5c1.2,1.8,2.4,3.5,3.6,5.3,.3,.7-.1,.9-.7,1.1-2.9-1.4-4.6-3.8-5.6-6.8,.1-.6,.5-1,1-1.2,1.1,0,1.7,.6,1.7,1.6Z"/>
    <path class="cls-2" d="M57.9,24.1c-.2,.3-.5,.5-.7,.8-3.2-1.4-4.8-4.4-6.4-7.2,0-.6,.2-1,.9-.9,1.8,2,3.6,3.9,5.4,5.9,.4,.4,1.2,.6,.8,1.5Z"/>
    <path class="cls-59" d="M62.4,31.6c.3-.3,.5-.5,.8-.8,.3,.3,.5,.5,.8,.8,.8,.7,1.7,1.3,2.1,2.4-.1,1.3,1.3,1.8,1.5,2.9-.3,.3-.5,.6-.8,.9-.3,0-.5-.1-.8-.2-1.7-1.7-4-3.1-3.6-6Z"/>
    <path class="cls-79" d="M57.9,24.1c-.3-.5-.5-1-.8-1.5,2,0,4,0,2.5,2.9-.6-.5-1.1-1-1.7-1.4Z"/>
    <path class="cls-72" d="M51.7,16.7c-.2,.3-.5,.5-.7,.8-1.5-.2-2.5-.7-2.1-2.4,.2-.3,.5-.6,.7-.8,.8,.7,1.8,1.2,2,2.4Z"/>
    <path class="cls-18" d="M66.1,34c-.8-.7-1.7-1.3-2.1-2.4,1.7-.1,2.4,.7,2.1,2.4Z"/>
    <path class="cls-52" d="M60.1,39.3c-.3,.2-.5,.4-.8,.6-4.8-.6-8.7-4-13.5-4.6-.5,.4-1,.3-1.5,.5-.7,.8-.5,2.1-1.5,2.7-.5,0-.9-.3-1.1-.7-.1-.3-.2-.6-.2-1,0,.2,0,.4,0,.7-.3,1.3-.8,2.4-2.2,2.9-.8,.1-1.5-.1-2-.8-1.5-1.7-.5-3.7-.5-5.5-.4,.7,.3,1.9-.9,2.2-1-.3-1.1-1.3-1.5-2.1-.3-1.2-1-2.2-1-3.5,.3-.2,.6-.5,.8-.7,.5-.6,1.2-.6,1.9-.5,1.1,.4,2,1.1,3.1,1.4,.6,.2,1.2,.4,1.9,.5,.9,.2,1.8,.6,2.8,.3,.7-.3,1.1-1.2,2-1.2,1.9,1,3.1-1.5,4.9-.9,.5,.2,.8,.6,.9,1.2-.2,1.6-1.9,1.7-2.7,2.7,3.8,2,8.3,2.4,11.4,5.7Z"/>
    <path class="cls-43" d="M33.2,30.8c1.5,.6,2.1,1.6,1.7,3.1,.5,2.5,.7,5,2,7.2,.8,1.2,1.8,1.6,3.1,.8,.9-.6,1.8-1.5,3-.5,0,.2,0,.4,0,.7-.8,1-1.3,2.4-2.9,2.5-1.8,.8-3.5,.8-5.2-.2-1-1.3-2-2.6-3-3.8-.5-2-1-4-1.4-6.1,0-1.6,0-3.2,0-4.6,1.7-1,1.7,1.2,2.9,1Z"/>
    <path class="cls-76" d="M42.9,41.4c-2.2,.5-4,4.4-6.7,.7,.2-.4,.3-.8,.8-1,.7-.1,1.5,0,2.2-.2,1.3-.7,1.5-2,1.9-3.2,.2-.3,.5-.4,.8-.4,.3,.3,.5,.7,.8,1,.5,.3,.7,.8,.7,1.3,0,.3-.3,.7-.5,.9,0,.3,0,.5,0,.8Z"/>
    <path class="cls-70" d="M42.9,40.6c0-.2,0-.4,0-.6,1-1.7,.2-3.9,1.6-5.4,.4,.2,.9,.5,1.3,.7-.9,1.8,.3,4.7-2.9,5.3Z"/>
    <path class="cls-49" d="M40,44.6c1-.8,2-1.7,2.9-2.5,.2,1.6-.7,2.5-2.1,3.2-.3-.2-.6-.5-.9-.7Z"/>
    <path class="cls-46" d="M17.9,56.6c1,.5,2.4,.8,2.4,2.4,0,.7-.6,1.1-1.3,.9-1.1-.3-2-1-2.2-2.2-.1-.7,.3-1.2,1.1-1Z"/>
    <path class="cls-55" d="M16.1,45.8c.3,1.9,1.5,3.3,2.8,4.6,0,.2,0,.4,.1,.7-.1,.4-.4,.7-.8,.8-2.7-1.8-5.1-3.7-5.4-7.2,0-1.7,.6-3.2,2.3-4,.6,1.7-.3,3.6,1,5.2Z"/>
    <path class="cls-53" d="M18.2,51.9c.3-.3,.6-.5,.8-.8,.9,.8,1.9,1.6,2.8,2.4,.1,.6,0,1-.6,.6-1-.7-2-1.5-3-2.2Z"/>
    <path class="cls-74" d="M21.2,54.1c.2-.2,.4-.4,.6-.6,1,.7,2.1,1.4,3.1,2.1-.3,.3-.7,.4-1,0-1.1-.1-2-.7-2.7-1.6Z"/>
    <path class="cls-45" d="M23.9,55.7c.3,0,.7,0,1,0,.8,.5,1.5,1,2.3,1.5-.5,0-1.1,0-1.6,0-.6-.5-1.1-1-1.7-1.5Z"/>
    <path class="cls-79" d="M60.1,39.3c-4.3-1.8-8.5-3.6-13.2-5.5,1.6-1.1,2.9-2,4.2-2.9,1.2-2.5,3.9-4.9,.2-7.6-2-1.5-4.3-2.4-6.9-2.5-.3,0-.7,0-1-.2-1.1-.7-2.4-.9-3.7-1.2-2.9-1.2-5.1,.8-7.6,1.6-.1-.3-.3-.7-.3-1q-.6-5.8,5.1-6.9c1.2-.2,2.5,0,3.5-.9,.2-.3,.5-.6,.7-.9,2.7,1.1,5.9,1.1,7.8,3.9,.5,1,1,1.9,2.1,2.4,2.1,2.4,4.1,4.9,6.2,7.3,1.7,2.3,3.4,4.5,5.2,6.8,.5,2.4,3.2,3.5,3.6,6,0,0-.3,0-.3,0h-.3c-1.2,1.3-2.4-.5-3.6-.1,0,.6-.1,1.2-.2,1.8-.5,0-1,0-1.5,0Z"/>
    <path class="cls-56" d="M40.7,32.3c-.6,0-1.2,.2-1.6-.5-.7-1.2-2.1-1-3.2-1.6-.6,0-1.3,0-1.9-.1-.3-.5-.6-.9-.9-1.4-1.2-2.1-.7-4.1,0-6.2,0-.4,0-.9,.1-1.3,1.4-1.5,3-2.6,5.1-2.2,2.1,.4,3.8,1.5,4.5,3.6,.2,.6,.3,1.2,.3,1.8,0,2.9,.3,5.9-2.5,7.9Z"/>
    <path class="cls-37" d="M38.4,19.5c-2.1-.6-3.3,1.6-5.2,1.6-.3,0-.7,0-1-.1,2.1-2.8,4.7-3.8,8-2.3-.3,.8-1.3,.3-1.8,.8Z"/>
    <path class="cls-10" d="M33.1,22.5c0,2.1,0,4.1,0,6.2-2.9-2-1.6-4.1,0-6.2Z"/>
    <path class="cls-42" d="M61.8,37.5c1.3-1.6,2.4,.5,3.6,.1,.5,1,1,2-.9,1.7-1.2-.2-1.9-1.1-2.7-1.8Z"/>
    <path class="cls-41" d="M43.8,20.4h.2c2.8,0,5.1,1.3,7.4,2.7,3,3.1,2.7,4.7-1,6.9-1.2,.6-2.3,1.3-3.5,1.9-1.4,.7-.8-.7-1.1-1.1-1.7-2.8-1.7-6.3-3.2-9.2,0-.8-.1-1.7,1.2-1.3Z"/>
    <path class="cls-54" d="M40.7,32.3c1.1-2.7,1.9-5.4,1.6-8.3,1.6-.5,1.8,.7,2.1,1.7,.7,2.5,1.2,4.9,0,7.4-1.3,.2-2.5-.3-3.7-.8Z"/>
    <path class="cls-63" d="M44.3,33.1c.1-3.2,.7-6.5-2.1-9.1,0-.5,0-.9,0-1.4,.2-.4,.2-.8,.7-.9,2.2,2.7,2.7,5.9,2.8,9.2-.9,.5-.3,1.9-1.5,2.2Z"/>
    <path class="cls-8" d="M50.3,30.1c2.4-2,3.8-4.1,.6-6.6,0-.5,.5-.5,.9-.7,3.6,2.7,3.4,5.3-.7,8.1-.3-.3-.5-.5-.8-.8Z"/>
    <path class="cls-67" d="M36.9,41.3c-.2,.3-.4,.5-.7,.8-2.1-2.5-1.7-5.3-1.4-8.2,.7,.7,.5,1.6,.7,2.4,.8,.7,1,1.7,1.3,2.6,0,.8,.7,1.6,.1,2.4Z"/>
    <path class="cls-62" d="M36.3,39.2c-.3-1-.5-2-.8-2.9,.2-1.2,.5-2.3,.7-3.5,1,2.1,.3,4.4,1.2,6.4-.4,.3-.8,.3-1.2,0Z"/>
    <path class="cls-68" d="M44.5,34.6c0,1.9-.1,3.9-1.6,5.4,0-.5,0-1.1-.1-1.6,.9-1.1-1.6-3.7,1.7-3.8Z"/>
    <path class="cls-27" d="M41.5,37.7c0,1.8-.4,3.5-2.3,4.3-.5-.6-.6-1.3,0-1.9,1.1-.7,1.4-1.9,1.7-3.1,.7-.1,1.1,0,.7,.8Z"/>
    <path class="cls-23" d="M39.1,40.1c0,.6,0,1.3,0,1.9-.9,.3-1.5-.2-2.2-.7-.2-.7-.4-1.4-.7-2.1,.4,0,.8,0,1.2,0,.3,.8,1,.7,1.6,.8Z"/>
    <path class="cls-32" d="M38.2,33.9c3.1,1.1,1.1,2.7,.5,4.2,0,0-.2-.1-.3-.2,0,0-.1-.2-.2-.3-.1-1.2-.2-2.5,0-3.7Z"/>
    <path class="cls-9" d="M41.5,37.7c-.2-.3-.4-.5-.7-.8,0-.9-.4-1.9,.4-3,1.2,1,.5,2.3,.8,3.4-.2,.1-.4,.2-.5,.4Z"/>
    <path class="cls-54" d="M35.9,30.2c1.3,0,3-.8,3.2,1.6-1.2-.2-2.5-.1-3.2-1.6Z"/>
    <path class="cls-13" d="M38.2,33.9c0,1.2,0,2.5,0,3.7-.9-1.3-.9-2.5,0-3.7Z"/>
    <path class="cls-21" d="M51.9,22.7c-.3,.2-.6,.5-.9,.7-2.3-1-4.6-2-7-3,3.3-1.4,5.5,.6,7.8,2.3Z"/>
    <path class="cls-3" d="M43,21.7c-.2,.3-.5,.6-.7,.9-1-1.3-2.1-2.6-3.8-3.1,.6-.3,1.2-.6,1.8-.8,1.4,0,3.2-.6,3.5,1.7-.8,0-.7,.8-.8,1.3Z"/>
  </g>
</svg>