<?xml version="1.0" encoding="UTF-8"?>
<svg id="Capa_2" data-name="Capa 2" xmlns="http://www.w3.org/2000/svg" viewBox="0 0 81.8 77.8">
  <defs>
    <style>
      .cls-1 {
        fill: #1d98af;
      }

      .cls-2 {
        fill: #1f1919;
      }

      .cls-3 {
        fill: #201c1e;
      }

      .cls-4 {
        fill: #3a2324;
      }

      .cls-5 {
        fill: #24acd0;
      }

      .cls-6 {
        fill: #1e98ac;
      }

      .cls-7 {
        fill: #189095;
      }

      .cls-8 {
        fill: #10222e;
      }

      .cls-9 {
        fill: #124979;
      }

      .cls-10 {
        fill: #1a8cc2;
      }

      .cls-11 {
        fill: #422424;
      }

      .cls-12 {
        fill: #f4edee;
      }

      .cls-13 {
        fill: #554d1c;
      }

      .cls-14 {
        fill: #e1d8d8;
      }

      .cls-15 {
        fill: #9a1559;
      }

      .cls-16 {
        fill: #24abd6;
      }

      .cls-17 {
        fill: #15334f;
      }

      .cls-18 {
        fill: #363c53;
      }

      .cls-19 {
        fill: #319caf;
      }

      .cls-20 {
        fill: #d7d3d3;
      }

      .cls-21 {
        fill: #e2dddb;
      }

      .cls-22 {
        fill: #1a2328;
      }

      .cls-23 {
        fill: #ce72a1;
      }

      .cls-24 {
        fill: #223038;
      }

      .cls-25 {
        fill: #2daee3;
      }

      .cls-26 {
        fill: #22a1c2;
      }

      .cls-27 {
        fill: #192e3a;
      }

      .cls-28 {
        fill: #251d12;
      }

      .cls-29 {
        fill: #182e4b;
      }

      .cls-30 {
        fill: #1395cd;
      }

      .cls-31 {
        fill: #23aaaf;
      }

      .cls-32 {
        fill: #093740;
      }

      .cls-33 {
        fill: #065395;
      }

      .cls-34 {
        fill: #5a4a24;
      }

      .cls-35 {
        fill: #1a2737;
      }

      .cls-36 {
        fill: #0a444c;
      }

      .cls-37 {
        fill: #144565;
      }

      .cls-38 {
        fill: #034f82;
      }

      .cls-39 {
        fill: #22abd5;
      }

      .cls-40 {
        fill: #033d4e;
      }

      .cls-41 {
        fill: #264b4e;
      }

      .cls-42 {
        fill: #f4eeee;
      }

      .cls-43 {
        fill: #24a8ce;
      }

      .cls-44 {
        fill: #1496cf;
      }

      .cls-45 {
        fill: #103143;
      }

      .cls-46 {
        fill: #a8a8af;
      }

      .cls-47 {
        fill: #23abd4;
      }

      .cls-48 {
        fill: #172b3a;
      }

      .cls-49 {
        fill: #bccadc;
      }

      .cls-50 {
        fill: #0c4c76;
      }

      .cls-51 {
        fill: #0c2030;
      }

      .cls-52 {
        fill: #bccde3;
      }

      .cls-53 {
        fill: #bbcde3;
      }

      .cls-54 {
        fill: #1f3158;
      }

      .cls-55 {
        fill: #1c909a;
      }

      .cls-56 {
        fill: #f0f0f2;
      }

      .cls-57 {
        fill: #faeac8;
      }

      .cls-58 {
        fill: #4d162a;
      }

      .cls-59 {
        fill: #192e36;
      }

      .cls-60 {
        fill: #014f70;
      }

      .cls-61 {
        fill: #1995cc;
      }

      .cls-62 {
        fill: #273537;
      }

      .cls-63 {
        fill: #d873a7;
      }

      .cls-64 {
        fill: #ee93b3;
      }

      .cls-65 {
        fill: #421d27;
      }

      .cls-66 {
        fill: #1d1e21;
      }

      .cls-67 {
        fill: #27b4d4;
      }

      .cls-68 {
        fill: #1f1a1b;
      }

      .cls-69 {
        fill: #3f2c23;
      }

      .cls-70 {
        fill: #f5f4f5;
      }

      .cls-71 {
        fill: #127aa3;
      }

      .cls-72 {
        fill: #324967;
      }

      .cls-73 {
        fill: #117fb0;
      }

      .cls-74 {
        fill: #f7eaa8;
      }

      .cls-75 {
        fill: #133953;
      }

      .cls-76 {
        fill: #1a2334;
      }

      .cls-77 {
        fill: #0e3c5c;
      }

      .cls-78 {
        fill: #7e153e;
      }

      .cls-79 {
        fill: #172c49;
      }

      .cls-80 {
        fill: #1ba9cb;
      }

      .cls-81 {
        fill: #163c5b;
      }

      .cls-82 {
        fill: #2ab9de;
      }

      .cls-83 {
        fill: #253236;
      }

      .cls-84 {
        fill: #efeff1;
      }

      .cls-85 {
        fill: #31382b;
      }

      .cls-86 {
        fill: #2e3740;
      }

      .cls-87 {
        fill: #151c32;
      }

      .cls-88 {
        fill: #bdccde;
      }

      .cls-89 {
        fill: #0c2433;
      }

      .cls-90 {
        fill: #3a8fae;
      }

      .cls-91 {
        fill: #1a89ba;
      }

      .cls-92 {
        fill: #2baddf;
      }

      .cls-93 {
        fill: #492e2e;
      }

      .cls-94 {
        fill: #cac7c7;
      }

      .cls-95 {
        fill: #22a4c5;
      }

      .cls-96 {
        fill: #961656;
      }

      .cls-97 {
        fill: #46474f;
      }

      .cls-98 {
        fill: #1a2d4f;
      }
    </style>
  </defs>
  <g id="Capa_1-2" data-name="Capa 1">
    <g>
      <path class="cls-2" d="M62,15.2c-.2,.6-1.2,1.1-.5,1.9,1.3,1.6,3.2,2.4,4.5,3.8,2.3,2.3,3.6-.2,5.2-.7,2.4-.8,4.6-1.9,6.9-2.8,1.2-.4,2.5-.6,3.3,.8,.9,1.5,0,2.6-1.1,3.5-4.1,3.6-5.4,10.8-3,15.6,2.3,4.5,1.4,6.7-3.4,8.7,2.9,2.3,1.8,4.7,.2,7.2-1.7,2.6-3.7,1.3-5.6,.7-.8-.2-1.7-.5-2.5-.6-4.7-.7-5-.3-3.9,4.1,.6,2.5,.8,5.2,1.2,7.8,.1,.7,.2,1.7,1.1,1.8,.8,0,1.1-.8,1.3-1.5,.5-1.8,.2-4.8,2.9-4.4,2.9,.4,2.7,3.6,2.8,5.8,0,3.8-2.1,6.3-5.6,6.8-4.2,.6-6.8-1-8-4.9-.5-1.6-.7-3.4-1.2-5.6-1.7,3-1.7,5.9-2.6,8.6-1.8,5.5-3.4,6.6-9,5.6-3-.6-6-.4-8.9,.3-3.5,.8-5.9-.5-7-3.9-1.1-3.3-1.9-6.6-3.1-10.5-1.6,3.2-.8,6.8-3.6,8.8-1.2,.2-1.2-.7-1.5-1.4,.2-2.7,1.4-5.2,1.5-8,.5-1.6,.7-3.3,1.6-4.7,.7-1,1.2-2.2,1.6-3.4,.2-.4,.5-.6,.9-.6,.4,.1,.7,.4,.9,.7,1.4,4.9,1.7,10,3.1,14.9,1.5,5,2.4,5.7,7.4,4.8,2.4-.4,4.7-.2,7,.1,3.9,.6,5.1-.2,6.4-3.9,1.7-5.1,2.1-10.4,3.2-15.7,.1-.3,.3-.6,.6-.9,.7-.4,1.7,.3,2.2-.6,1.8-1.4,2.9-3.6,5.3-4.3,.5,0,.9,.3,1.2,.7,2.1,.7,4.3,.6,6.3,1.2,1.6,.5,2.6-.3,2.1-2.2-1.2-1.8-1.7-3.7-.4-5.7,.2-.3,.5-.6,.8-.8,2.4-.6,3.3-1.8,1.9-4.3-1.8-3.5-1.9-7.1-.5-10.8,.3-.7,.6-1.3,.9-1.9,.7-1.2,1.1-2.5,1.5-3.8,.2-.4,.6-.8,1.1-.9-.3-.2-.5,0-.7,.2-1.5,.9-3.3,1.2-4.7,2.3-1.7,1.1-3.6,1.9-5.6,2.7-.6,0-1-.2-1.3-.6-.6-1.1-1-2.3-2.3-2.8-1.1-.6-2.7-.2-3.4-1.6,0-.5,.5-1.2-.4-1.4-1-.2-1.1,.7-1.5,1.2-.8,1.1-.7,2.5-1.5,3.5-.3,.2-.6,.2-.9,.1-2.4-2.6-1.8,.8-2.7,1.3-.3,.2-.6,.3-1,.3-.8-.4-1.4-1-1.9-1.8-.2-.5-.3-1-.3-1.5,.2-1.9,2-2.2,3.1-3.1,.8-.5,1.6-1,2.3-1.7,.3-.3,.7-.6,1.1-1,1.2-.8,2.3-1.7,3.7-2.3,.6-.2,1.3-.2,1.9,0,.3,.1,.5,.3,.7,.6Z"/>
      <path class="cls-68" d="M20.6,53.3c-2.5-.2-5-.2-7.4,.6-1.9,.7-4,1.8-5.6-.7-1.6-2.5-2.7-4.8,.2-7.1-4.8-1.9-5.6-4.3-3.4-8.7,2.5-4.8,1.1-12-2.9-15.6-1.1-1-2.1-1.9-1.1-3.5,.9-1.5,2.3-1.2,3.6-.7,2.1,.8,4.3,1.4,6.1,2.6,3.1,2.1,5.6,1.4,8.1-.9,1.7-1.6,3.6-2.9,.5-5.1-.9-.6-1.6-1.7-.7-2.9,.8-1.1,2-.9,3.1-.6,3.3,1,6.3,1.8,10,.4,3.3-1.3,5.3-2.7,5.8-6.1,0-.5,.2-1,.4-1.4,.8-1.4,1-3.3,3.3-3.6,2.4-.3,2.7,1.6,3.6,3-.4,.5-.8,.6-1.4,.6-1.8-.5-2.2,.7-2.8,2-.7,1.5-1,3-1.3,4.6-.6,1.4-1.1,2.9-1.6,4.4-.2,.3-.4,.6-.8,.7-.5,.1-1,0-1.5-.3-1.6-3-3.4-.9-5.2-.1-.4,.3-.9,.5-1.4,.7-.7,.2-1.3,.1-2,0-.9-.3-1.7-.8-2.6-1.2,0,0-.3,0-.3,0,0,0,0,.3,0,.3,.1,.2,.3,.4,.4,.5,.4,.4,.9,.5,1.4,.6,.3,0,.6,.2,.8,.4,.3,.2,.5,.4,.7,.7,1.1,1.5,2.5,2.5,4,3.6,1,.7,2,1.4,1.8,2.8,0,.3-.2,.6-.4,.9-.6,.6-1.1,1.3-1.9,1.5-.3,0-.6-.2-.9-.4-.7-.8-.5-3.7-2.7-1.1-.4,0-.7,0-.9-.3-2.1-3.4-6.2-2.9-8.8,1-.3,.5-.7,.8-1.3,.9-2.2-.3-3.9-1.6-5.8-2.6-1.1-1-2.6-1.4-3.9-2-.8-.4-1.4-.8-.4,.4,.4,1.3,.8,2.5,1.5,3.7,.3,.6,.6,1.2,.9,1.9,1.4,3.7,1.4,7.3-.4,10.8-1.2,2.4-.7,3.7,1.9,4.3,.3,.2,.6,.5,.8,.8,1.3,2,.8,3.9-.4,5.7-.5,2.5,1,2.5,2.6,2,1.9-.5,3.9-.9,5.9-.6,0,0,.1,0,.2,0,0-.1-.1-.2-.2-.3,0-.4,.3-.6,.7-.7,1.9,0,2.7,1.1,3.1,2.8-.1,.8-.2,1.6-1.4,1.4Z"/>
      <path class="cls-3" d="M21.4,70.5c0,.6,.2,1.2,.8,1.6-3,2.2-6.7,2.4-9.2,.4-2.4-1.9-3.3-6.7-1.8-9.6,.5-1,1.2-2,2.5-1.8,1.1,.1,1.5,1.1,1.9,2,.7,1.3-.2,4.1,1.8,3.8,1.8-.3,1.2-2.9,1.4-4.6,.4-2.6,.4-5.2,2-7.5,.8-1.4,1.7-1.6,2.5,0,0,1.9-1.1,3.7-.9,5.7-.3,2.1-.5,4.2-1,6.2-.7,3.1-2.3,3.9-5.8,3.2-1.3-.9-1.9-2.2-2.4-3.7,0,1.2,.3,2.1,1,3,.2,.3,.4,.5,.6,.8,1.1,1.2,2.4,1.3,3.9,1.1,.9-.1,1.7-.9,2.7-.5Z"/>
      <path class="cls-66" d="M42.3,3.1c.6,0,1.2,0,1.8-.1,.2,.2,.4,.3,.5,.5,1.2,3,1.2,6.4,5.8,7.4,3.3,.7,6.3,1.5,9.5,.1,1.4-.6,3.1-1.3,4,.3,1.1,1.8-.5,2.9-1.8,3.8h-.2c-.8-.9-1.2-2.6-2.8-1.2-1,.6-2.1,1.2-3.2,1.6-.7,.2-1.4,.3-2.1,.1-.5-.1-1-.4-1.4-.7-1.7-.7-3.4-2.8-5.1,0-.4,.4-.9,.5-1.4,.5-.3-.1-.6-.3-.8-.6-.5-1.2-1.1-2.2-1.7-3.4,0-2.8-2.5-5.4-1-8.4Z"/>
      <path class="cls-51" d="M23,55c-.6-1.3-1.4-.7-2.2-.3,0-.5-.2-.9-.2-1.4,.7-.3,.8-1,.9-1.6,1.3-.2,2,.8,2.8,1.5,.3,.3,.6,.6,1,.9,.2,.2,.4,.4,.6,.6,.2,1.3,0,2.4-1.3,3.1-1.1-.6-1.1-1.8-1.5-2.8Z"/>
      <path class="cls-74" d="M55.3,54.1c-.8,6.2-1.7,12.3-3.6,18.3-1,3.1-2.8,4.3-5.8,3.4-3.5-.9-6.9-.8-10.3,0-2.8,.7-4.4-.5-5.3-3.2-2.1-6.1-2.9-12.3-3.7-18.6,0-.2,0-.4,0-.5,0-1.9,.2-3.9-.5-5.8-.1-.6-.2-1.2-.2-1.8,0-1.4,.4-2.7,.7-4,1.1-3.9,3.3-5.8,7.3-5.2,4.8,.7,9.6,.7,14.4-.1,.9,0,1.7,0,2.6,.2,4.7,1.8,5,6.1,5.5,10.2-.2,2.4,.6,4.9-.9,7.1Z"/>
      <path class="cls-33" d="M53.7,15.1c.7,0,1.4-.2,2.2-.3,.8,.8,.5,1.7,.1,2.6-.3,.3-.5,.5-.8,.8-.8,.3-1.7,.6-2.2,1.4-.1,2-3.1,.8-3.2,2.8-1.6,1.8-3.8,2.6-5.9,3.7-5.2,1.5-8.5-1.8-12-4.6-2.1-1.4-4.3-2.9-6.1-4.8h0c-.4-.7-.4-1.2,0-1.7,.7,0,1.5,.1,2.2,.2,1.4,.4,2.9,.4,4.1,1.3,2,1.3,3.1,.3,4.1-1.4h.2c1.1-1.3,.6-3.1,1.3-4.6-.5-2.7,1.3-4.9,1.8-7.5,.4-2.1,1.7-.4,2.6,.1,.3,3,2.2,5.6,1.8,8.7,.7,1,.4,2.3,1.3,3.2h.1c1,1.6,2.2,2.6,4.1,1.3,1.3-.8,2.8-.8,4.2-1.2Z"/>
      <path class="cls-25" d="M59.6,20.3c.8,1.6,2.8,.3,3.8,1.5-.4,1.6,1.8,1.7,1.8,3-.8,2.1-2.4,3.2-4.5,3.4,2,.5,4.3-.5,6.1,1.1,1,1.6,1.7,3.2-.6,4.3-2.2,.5-4.8,0-6.2,2.6-.7,2.3,1.1,3.1,2.5,4,2,1.1,3.6,2.3,3.1,4.9-.9,3.4-3.7,3.2-6.3,3.3-1.1-.3-2-1.1-2.9-1.7-.6-.5-.7-1.3-.9-1.9-.5-2.9-.9-5.9-3.8-7.6-1.4-.9-3.1,0-4.5-.8-1.2-1.1,.2-1.6,.6-2.3,.3-.8,0-1.5-.1-2.3,0-.7,0-1.4,.5-2,.3-.2,.6-.4,.9-.5,1.2-.1,2,.4,2.7,1.3,.1,.2,.2,.4,.3,.6,.4-.2,.2-.6,.4-1,.3-.6,.8-1,1.3-1.4,1.4-1.4,.9-3.5,2-5,.7-1.2-1-3.4,1.6-3.8,.7-.6,1.5-.6,2.2,0Z"/>
      <path class="cls-70" d="M74.7,27.1c-1.3,4.3-1.4,8.6,1.4,12.4,.8,1.1,.5,1.9,0,2.7-1,1.6-2.5,.1-3.7,.4-3.5-.1-7.2,.6-9.6-3-.1-.8,0-1.5,.3-2.3,.5-2.5,2.9-3.1,4.4-4.6,1.6-2.9,3.4-5.5,7.2-5.7Z"/>
      <path class="cls-35" d="M43.9,25.6c1.8-1.3,3.6-2.8,5.9-3.1,0,.6,.1,1.2,.2,1.8,1.8,2.5-.1,3.5-1.8,4.7-.3,.6-.6,1.1-1.2,1.5-.5,.2-.9,.3-1.4,.2-.3,0-.6-.2-.9-.4-1.1-1.9-1.6,.7-2.5,.3-.8,.3-1.7,.2-2.5,0-.9,.3-1.4-2.1-2.5-.3-.3,.2-.6,.3-.9,.4-.5,0-1,0-1.4-.2-.6-.4-.9-.9-1.2-1.5-1.8-1.1-3.5-2.2-1.8-4.7v-.2c2.6-1.8,4.3,.6,6,1.4,2.2,1.1,4,1.5,6.1,.1Z"/>
      <path class="cls-24" d="M68.1,33c-.9,2-3.9,2-4.2,4.6-.9-.1-1-.8-1-1.5,.2-1.6,1.5-2.2,2.7-2.9,2.7-.7,.7-2.3,.7-3.5-.2-.5-.5-1-.5-1.6,0-.4,.2-.7,.3-1,2.1-2,4.9-2.8,7.3-4.4,1.1-.4,2.1-1.4,3.5-.7,0,1.4-.4,2.7-1.4,3.7-3.4,1.6-7,2.9-7.5,7.5Z"/>
      <path class="cls-26" d="M62.1,68.9c4.5,.5,4.9,0,6-5.2,1.9,2.4,1.5,5.8-.9,7.4-2.6,1.7-5.4,.9-7-2,.6-.5,1.2-.5,1.9-.2Z"/>
      <path class="cls-52" d="M72.4,43.6c-1,1.9-.7,3.6,.8,5.2-2.2,1.7-4.2,.5-6.4-.1-.4-.2-.7-.5-.9-.9-.5-1.4-.2-2.8-.2-4.3,.1-1.5,1.1-1.7,2.3-1.4,1.5,.3,3.1,.5,4.4,1.5Z"/>
      <path class="cls-39" d="M15.6,69c3,1.9,4.3,0,4.9-2.4,.5-2.1,.7-4.3,1-6.5,2.5-.7,1.7,1,1.7,2.3,0,2.8-.7,5.5-1.7,8.2-.8,.4-1.3,1.3-2.4,1.1-1.8,.2-3.3-.4-4.9-1.1-.2-.1-.3-.3-.3-.5,0-1.5,.7-1.4,1.7-1Z"/>
      <path class="cls-56" d="M66.6,48c2.2-.2,4.3,1.2,6.5,.7,.3,2,.2,4.1-2.3,3.6-2.5-.5-5-1-7.5-1.6,0,0,0-.2,0-.3,0-.1,.2-.2,.2-.3,.6-1.5,1.6-2.2,3.2-2.1Z"/>
      <path class="cls-47" d="M62.1,68.9c-.6,0-1.3,.1-1.9,.2-1.8-3.8-1.8-8.1-2.8-12.1,.6-.7,1.2-1.1,2.1-.6,.9,4.2,1.8,8.3,2.6,12.5Z"/>
      <path class="cls-44" d="M58.8,48c2-1.1,5.5,.5,6.2-3.2,.4,0,.7,0,.9,.4,.1,.7,.1,1.4,0,2-.7,1.3-2,1.7-3.3,2.2-1.8,1.6-3.5,3.2-5.3,4.8-.1-.2-.3-.4-.4-.5-.6-1.3-.6-2.6-.4-3.9,.2-1.2,.6-2.5,2.3-1.8Z"/>
      <path class="cls-49" d="M68.1,33c-.2-4.6,3.4-8.2,7.5-7.5-.3,.5-.5,1-.8,1.5-2.7,1.4-5,3.3-6.7,5.9Z"/>
      <path class="cls-24" d="M65.6,45.1c-.2-.1-.4-.2-.5-.3,.7-2.8-2.2-2.6-3.3-4-.4-1.4,.3-1.9,1.6-1.8,0,2,1.5,1.9,2.8,2.1,2.1,.4,4.3,.5,6.3,1.5,0,.3,0,.6,0,.9-2,.4-4.1-2.2-6.1,0-.4,.4,0,1.2-.6,1.6Z"/>
      <path class="cls-94" d="M52.2,25.5c0-.4,0-.8,0-1.1-.6-1.8,.6-2.8,1.9-2.9,1.8-.1,.3,1.8,1,2.5,.1,1.9,.2,3.9-1.3,5.4-3.7,0-2.1-2.2-1.6-3.9Z"/>
      <path class="cls-45" d="M66.4,27.8c0,.6,0,1.2-.1,1.8-2.8-.4-5.9,.2-8.2-2.5,3,1.2,4.9-.5,6.8-2.1,.1-.4,.3-.5,.6-.1,.2,.3,.4,.5,.6,.8,.3,.2,.4,.4,.4,.8-.4,.5-1.7,.8-.2,1.5Z"/>
      <path class="cls-16" d="M66.3,26.1c0-.2,0-.3,0-.5,1.3-2,3.7-1.9,5.4-3,.9-.3,1.8-.9,2.2,.6-2.5,1.4-4.9,2.8-7.4,4.2-.4-.4-.4-.8-.2-1.2Z"/>
      <path class="cls-73" d="M23.1,62.3c-.3-.9,0-2.3-1.7-2.3-.4-2,.6-3.5,1.6-5,1.3,.5,1.6,1.5,1.5,2.8-.5,1.5-1,3-1.4,4.5Z"/>
      <path class="cls-46" d="M47.6,28.6c-.3-.7-1.2-1.8,.2-2,2.1-.4,2.2-.2,2.2-2.3,1.1-.3,1.4,.5,1.6,1.3,.5,1.6,.6,3.1-1.2,4-.9-.2-2-.2-2.7-1Z"/>
      <path class="cls-22" d="M50,29.2c1.9-.7,1.2-2.4,1.6-3.7,.2,0,.5,0,.7,0,1,.8,.1,1.6,0,2.3-.2,1.3,.1,1.9,1.5,1.5,.4,0,.6,0,.6,.5-.5,.3-1,.6-1.6,.9-.3,.5-.5,1.2-1.3,.7-.8-.5-1.5-1-2.3-1.5-.1-.7,0-1.1,.8-.7Z"/>
      <path class="cls-19" d="M73.8,23.1c-.6-.8-1.5-.4-2.2-.6,2.1-1.6,4.7-2,7.1-3.3,.2,1.8-1.6,1.5-1.8,2.6-1,.4-2,.8-3.1,1.3Z"/>
      <path class="cls-50" d="M56,17.5c0-.9,0-1.7-.1-2.6,.8-1,1.9-1.2,3-1.4,.6-.3,1.2-.3,1.5,.3,.3,.6-.2,1-.9,1.2-1.2,.8-2.3,1.7-3.5,2.5Z"/>
      <path class="cls-77" d="M56,44.8c.2,.6,.4,1.2,.6,1.8,1.2,2.3-.5,5,.8,7.3,0,.2,0,.3-.1,.4-.3,.3-.6,.6-.9,.9-.2-.3-.4-.7-.6-1-.7-2.5-.1-5-.3-7.4,0-.7-.1-1.4,.5-1.9Z"/>
      <path class="cls-82" d="M65.5,24.8c-.2,0-.4,.1-.6,.1-.4-.8-1.3-.6-1.8-1-1.7-1-1.3-1.7,.4-2.2,2.3-.1,1.6,1.9,2.1,3Z"/>
      <path class="cls-76" d="M59.5,14.9c.6-.8,.5-1.4-.6-1.5,.2-1.2,1-1.6,2.1-1.2,1.4,.5,.8,1.8,.9,2.8-.8,0-1.6,0-2.3,0Z"/>
      <path class="cls-90" d="M59.6,20.3c-.7,0-1.5,0-2.2,0-.3-.9-.4-1.7,.6-2.2,1-.5,1.7,.1,2.2,.8,.6,.7,.5,1.3-.6,1.5Z"/>
      <path class="cls-8" d="M54.4,29.8c-.2-.2-.4-.3-.6-.5,1.2-1.6,.5-3.6,1.4-5.3,.2,0,.4,0,.6,0,.2,2.1,.1,4.1-1.4,5.8Z"/>
      <path class="cls-77" d="M25.9,54.7c-.3,0-.5,0-.8,0-1.3-2.5-.9-5.2-.8-7.9,.2-.9,.5-1.8,1.6-1.9,.5,.6,.4,1.3,.4,1.9,.1,2.4,1.1,4.8-.3,7.2,0,.2,0,.5-.1,.7Z"/>
      <path class="cls-13" d="M55.7,46.6c0,2.5,0,5,0,7.5-.2,0-.4,0-.6,0,0-2.5,0-5,0-7.5,.2,0,.3,0,.5,0Z"/>
      <path class="cls-34" d="M26,54c0-2.5,0-5,0-7.5,.1-.3,.3-.4,.6,0,0,.5,.1,1.1,.2,1.6,.4,2,.4,4,0,6,0,0-.3,0-.3,0,0,0-.3,0-.3,0h-.3Z"/>
      <path class="cls-72" d="M62.6,49.5c1-.8,1.9-1.6,2.9-2.3,.5,0,.6,.5,.7,.9,.1-.1,.3-.1,.4,0-1.1,.7-2.1,1.4-3.2,2.1-.3-.2-.6-.4-.9-.7Z"/>
      <path class="cls-71" d="M59.5,56.4c-.7,.2-1.4,.4-2.1,.6-.6-1.2,.3-1.6,1-1.8,.5-.1,.9,.6,1,1.2Z"/>
      <path class="cls-60" d="M53,19.7c-.1-1.8,1.1-1.6,2.2-1.4-.5,.9-1.2,1.4-2.2,1.4Z"/>
      <path class="cls-25" d="M25.8,44.8c-.2,.6-.4,1.2-.6,1.8-.9,.7-1.5,1.6-2.7,2-2.6-.1-5.4,.2-6.3-3.2-.1-.8-.1-1.6,0-2.4,.5-1.6,2-2.2,3.3-2.9,.7-.3,1.6-.5,2.1-1.5-.7,.4-1.3,1-2,.3-.9-2-.3-5-3.6-5.3-1.5-1-1.8-2.5-.9-3.9,1.4-2.1,3.8-1.1,5.8-1.4-2-.6-3.7-1.5-4.6-3.5,.7-2.4,7.4-5.6,9.1-4.2,1.1,.8,.3,2.4,.7,3.5,.9,2.9,2.4,5.4,4,7.9,1.2-.1,1-1.4,1.6-1.9,.3-.2,.6-.3,.9-.4,.4,0,.7,.1,1,.3,.4,.6,.5,1.2,.4,1.9-.1,.7-.4,1.4-.2,2.2,.5,.7,1.5,1.2,1.4,2.3,0,.3-.3,.6-.6,.8-5.3-.6-6.9,.5-8.1,5.7-.2,.7,0,1.5-.8,2Z"/>
      <path class="cls-70" d="M9.4,42.6c-1.2-.3-2.6,1.1-3.7-.4-1-1.4,0-2.5,.7-3.6,2.1-3.7,1.9-7.6,.8-11.5,4,0,5.5,3.3,7.6,5.8,.5,.9,1.7,1.1,2.3,1.8,1.4,1.4,2.4,3.1,1.8,5-.6,2.1-2.7,2.3-4.5,2.6-1.7,0-3.3,1-5,.3Z"/>
      <path class="cls-59" d="M14,41.4c1.5-.6,4.1,.1,4.3-1.8,.2-1.9-.6-4.2-3-5-.7-.3-1.3-.8-1.5-1.5-.4-4.5-4.1-5.9-7.5-7.5-1-1-1.4-2.3-1.4-3.7,1.4-.7,2.3,.4,3.4,.9,2.2,1.6,4.9,2.3,7,4,.2,0,.4,.2,.5,.4,.1-.5-.4-.4-.5-.7-.1-.3,0-.6,.2-.8,.3-.3,.5-.5,.8-.8,2.3,.9,3.9,4.1,7.4,2.4-1.8,1.7-3.9,2-6.1,2.2-2.8,.3-3.4,1.6-1.3,3.7,2.6,1,3.4,3.1,3.4,5.7,.2,.6,1,1.1,.5,2-1.1,.7-2.1,1.3-3.2,2-1.3,.3-2.5,.4-2.9-1.3Z"/>
      <path class="cls-53" d="M8.7,48.7c1.5-1.5,1.8-3.3,.8-5.2,2.1-1.1,4.1-2.1,6.4-.4,.5,1.4,.5,2.9,.2,4.4-.2,.4-.4,.7-.8,1-2.1,.7-4.3,2-6.5,.2Z"/>
      <path class="cls-84" d="M8.7,48.7c2.3,.5,4.3-.9,6.5-.7,1.6-.1,2.5,.9,3.2,2.1-2.6,1.7-5.6,1.8-8.5,2.2-.9,.1-2.2-1.9-1.3-3.6Z"/>
      <path class="cls-30" d="M16.7,44.9c.8,3.7,4.2,1.9,6.2,3.1,1.1-.5,1.8-.2,1.8,1,0,1.7,.4,3.5-.3,5.1-1-.8-1.9-1.6-2.9-2.4-.9-.9-1.5-2.2-3-2.3-1.2-.3-2-1.1-2.6-2.2-.1-.7-.1-1.3,0-2,.2-.3,.5-.4,.9-.3Z"/>
      <path class="cls-79" d="M43.9,25.6c-1.6,2.9-3.9,1.5-6,.8-2-.7-3.6-2.6-6-2.3,.3-1.4-.7-2.1-1.6-2.9,.5-.5,1.1-.5,1.6,0,3.9,1.9,6.9,5.9,12,4.5Z"/>
      <path class="cls-83" d="M29.6,33c-.3,.1-.6,.3-1,.4,0-3.4-3.6-5.7-2.6-9.4,.2,0,.4,0,.7,0,.6,.2,1.2,.7,1.2,1.3,.2,2.7,1.1-.5,1.5,.2,.3,0,.7,0,1,0,2.2,.2-.1,2.8,1.8,3.1,.3,.4,.6,.8,.4,1.3-.2,0-.5,.2-.7,.2-.8,.9-1.2,2.2-2.4,2.8Z"/>
      <path class="cls-88" d="M6.3,25.6c4.1-.7,7.7,2.9,7.5,7.5-1.7-2.6-3.9-4.5-6.7-5.9-.3-.5-.5-1-.8-1.5Z"/>
      <path class="cls-20" d="M29.5,25.5c-1.4,1.1,1.3,3.5-.5,3.6-2.3,.1-1.3-2.6-1.8-4.1-.1-.3-.3-.7-.5-1,.7-.7-.7-2.7,1-2.5,2.3,.3,2.1,2.2,1.8,4Z"/>
      <path class="cls-27" d="M36.3,15c.6,3.4-1.5,3.8-3.6,2.6-1.5-.8-3.7-.7-4.6-2.5,.3-.3,.6-.7,1-1,2.1-.2,4,.5,5.9,1,.4,0,.9,0,1.3,0Z"/>
      <path class="cls-16" d="M15.4,27.3c-2.7-1-5.2-2.2-7.5-4,.2-1.6,1.2-1.2,2.1-.7,1.9,.8,3.9,1.5,5.5,3,0,.2,0,.3,.1,.5,.2,.5,.2,.9-.2,1.3Z"/>
      <path class="cls-43" d="M35,15.1c-2.3,1.8-3.9-.9-5.9-1,.9-.4,1.8-.8,2.7-1.3,2.6-1.4,3.6-.5,3.2,2.2Z"/>
      <path class="cls-19" d="M10,22.6c-.8,0-1.6-.2-2.1,.7-1-.5-2-.9-3-1.4-.7-.6-1.4-1.3-2.6-2.4,3.2,.9,5.7,1.4,7.7,3.1Z"/>
      <path class="cls-86" d="M16.7,44.9c-.2,0-.4,.1-.5,.2-.6-.4-.3-1.1-.7-1.6-2-2.1-4.1,.3-6.1,0,0-.3,0-.6,0-.9,1.4-.9,3-.8,4.6-1.2,1,.4,1.9,.9,2.9,1.3,0,.7,0,1.4-.1,2.1Z"/>
      <path class="cls-46" d="M31.8,29.2c-2.5-.5,.1-2.8-1.3-3.7,0-.9,.2-1.5,1.3-1.4,0,2.2,0,2,2.2,2.4,1.4,.3,.5,1.3,.2,2-.6,.9-1.6,.2-2.4,.7Z"/>
      <path class="cls-98" d="M31.9,21.1c-.5,0-1.1,0-1.6,0-1.8-1.2-3.9-2-4.5-4.4,2,1.5,4.1,2.9,6.1,4.4Z"/>
      <path class="cls-9" d="M37.8,10.5c-.3,1.6,1.2,3.7-1.3,4.6-.3-1.8,.4-3.3,1.3-4.6Z"/>
      <path class="cls-38" d="M25.9,15c0,.5,0,1.1,0,1.6,0,0-.4,0-.4,0h-.3c-.7-.6-1.7-.8-2.2-1.5h0c-.4-.5-.5-1,0-1.5,1.2,.1,2.3,.3,3,1.4Z"/>
      <path class="cls-25" d="M24.6,19.3c-1.1,.2-2,.4-2.9,.6,0-.4-.2-.7,0-.8,.9-1.1,1.9-1.4,3,.2Z"/>
      <path class="cls-18" d="M16.3,47.2c.7,.7,1.9,1,2.2,2.1,0,.3,0,.5,0,.8-1.1-.7-2.1-1.4-3.2-2.1,.1,0,.3,0,.4,0,.2-.3,.2-.8,.7-.8Z"/>
      <path class="cls-54" d="M23,15c1,0,1.8,.5,2.2,1.5-1.1,.1-2.3,.2-2.2-1.5Z"/>
      <path class="cls-40" d="M22.9,13.6c0,.5,0,1,0,1.5-.7-.4-1.7-.7-1.1-1.8,.3-.5,.8-.1,1.1,.3Z"/>
      <path class="cls-95" d="M15.6,69c-.7,0-1.4,.3-1.7,1-1.9-2-1.7-4.1-.4-6.9,.7,2.4,.8,4.4,2.1,5.9Z"/>
      <path class="cls-95" d="M14.1,70.5c1.7-.1,3.3,.5,4.9,1.1-1.9,.7-3.5,.3-4.9-1.1Z"/>
      <path class="cls-48" d="M53.7,15.1c-1.3,1.7-3.5,1.9-5.3,2.7-2.3,1-3.4-.4-2.9-2.8h1.3c2-.4,3.9-1.1,5.9-1,.3,.4,.7,.7,1,1.1Z"/>
      <path class="cls-5" d="M52.7,14.1c-2,0-3.6,2.9-5.9,1-.3-2.5,.1-3.9,3-2.3,.9,.5,2,.9,2.9,1.3Z"/>
      <path class="cls-9" d="M45.3,15.1c-2-.5-1.3-2-1.3-3.2,1.6,.6,1.3,2,1.3,3.2Z"/>
      <path class="cls-80" d="M24.4,54.1c-.6-2,1.5-4.6-1.4-6.1,0-1.6,1.1-1.5,2.2-1.5,0,2.7,0,5.4,0,8.1-.2-.2-.5-.4-.7-.6Z"/>
      <path class="cls-4" d="M52,57c-.5,4-1,8-2.1,12-.9,3.3-2.9,4.5-6.1,3.5-2-.6-3.9-.5-5.8,0-3.1,.9-5.1-.3-5.9-3.4-.8-3-1.7-6-1.6-9.1,.6-.4,.8-1.1,.8-1.8,.9-1.8,.7-4.5,3.7-4.5,.3,.3,.5,.6,.6,.9,.2,2.5-1.7,4.4-2.1,6.8-.3,1.9-1.8,4.3,2.2,4,1.1,0,1.6,1.1,1.9,2.1,.5,1.7,1.6,2.2,3.4,2.2,1.6,0,2.9-.3,3.5-2,.4-1.1,.9-2.3,2.2-2.3,3.7,.2,2.4-2,2-3.8-.4-1.2-.9-2.4-.7-3.7,.2-.5,.4-.9,1-1.1q1.4,.9,1.7-.5c.9-.5,1.2,0,1.5,.7Z"/>
      <path class="cls-78" d="M38.7,41.6c1.4,0,2.9,0,4.3,0,2.2,0,2.9,1.5,3.2,3.3,0,1.5,.9,2.7,1.2,4.1,0,1.3-.7,2.2-1.9,2.6-3.1-.6-6.2-.6-9.4,0-1.3-.5-1.9-1.3-1.9-2.7,.5-1.5,1.2-3,1.5-4.5,.3-1.5,1-2.8,2.9-2.8Z"/>
      <path class="cls-11" d="M38.7,41.6c-1.8,.8-2.1,2.6-2.3,4.2-.1,1.4-.7,2.2-1.6,3-2.2,1.5-2.8-.5-3.5-1.4,.2,3.8,.1,7.9,.5,11.9-.3,.6-.9,.7-1.5,.7-1.3-4.5-1.2-9.1-.5-13.6,.8-5.2,2.4-5.9,8.9-4.8Z"/>
      <path class="cls-62" d="M25.8,44.8c-.1-2,.5-3.9,1.4-5.6,1.7-3.1,4.5-3.5,7.7-2.6,.7-.5,1.4-.6,2.3-.5,2.4,.6,4.9,.6,7.3,0,.8-.2,1.5-.2,2.3,.2,.6,.2,1.7-.2,1.6,1.1-4.7,1.1-9.4,1.2-14.2,.2-4-.8-5.6,.5-6.8,4.8-.3,1.3-.5,2.6-.8,4-.2,0-.4,0-.6,0,0-.6-.1-1.2-.2-1.8Z"/>
      <path class="cls-85" d="M55.7,46.6c-.2,0-.3,0-.5,0-.7-3.4-.7-7.2-4.6-9.1,0-1.4,.7-1.1,1.5-.7,3.1,1.8,3.7,4.8,3.8,8,0,.6-.2,1.2-.3,1.8Z"/>
      <path class="cls-93" d="M49.9,42.1c1.6,1.4,2,3.2,2.1,5.2-.2,.4-.3,.9-.9,.9-1-.9-1.7,.6-2.7,.3-.5-.1-.9-.4-1.1-.9,.1-1.7,1.2-3,1.4-4.7,.2-.5,.6-.8,1.1-.9Z"/>
      <path class="cls-69" d="M49.9,42.1c-.2,.2-.5,.5-.7,.7-1.2,.5-2.3,1.1-2.9,2.3-.3,.2-.6,.2-.9,0-.3-1.5-.9-2.8-2.4-3.4,2.3-.2,4.7-1.6,6.9,.5Z"/>
      <path class="cls-28" d="M51.3,48.1c.2-.3,.5-.6,.7-.8,.5,3.2,.4,6.5,0,9.7-.4-.3-.8-.5-1.2-.8-1.1-2.8-.8-5.5,.5-8.1Z"/>
      <path class="cls-41" d="M52.2,36.8c-.5,.2-1,.5-1.5,.7-.8,0-1.5,0-2.3,0-.5-.2-1.1-.5-1.7-.7-.1-.3,0-.5,.2-.7,1.8,.2,3.6-.4,5.3,.7Z"/>
      <path class="cls-57" d="M26.8,54.1c0-2,0-4,0-6,1,2,1,4,0,6Z"/>
      <path class="cls-92" d="M46.9,36c0,.2,0,.5-.2,.7-.7,0-1.4,.1-2.1,.2-2.1,.6-4.2,.2-6.3,.3-.9-.3-1.1-1.1-1.2-1.9-.1-1.4,.6-2.4,1.2-3.6,.1-.3,.2-.7,.4-1,.2-.3,.4-.6,.7-.7,1,0,2,0,2.9,0,.3,.2,.5,.4,.6,.7,.2,.4,.3,.8,.5,1.2,.4,.7,1,1,1.7,1.3,1.4,.2,3,0,4,1.5-.8,.5-1.5,.9-2.3,1.4Z"/>
      <path class="cls-61" d="M65.6,33.1c-.7,1-1.5,2-2.2,3-.4,.4-.3,.9-.4,1.3-.3,.9-.6,1.9-1.8,1.9-1.2,0-1.4-1.1-1.7-2-.2-.4-.2-.9-.5-1.3,1.5-2.6,3.9-3.2,6.7-2.9Z"/>
      <path class="cls-67" d="M44.6,33.9c-.7-.6-1.9-.7-2.1-1.9,.6-1.3,1.8-1.7,3.2-1.8l1.2-.3c.6-.3,1.1-.4,1.5,.2v2.2c-1.2,.8-2.6,.9-3.8,1.5Z"/>
      <path class="cls-17" d="M58.9,36c.1,0,.3,0,.3,0q2.2,3.4,4.1,0c.2,.5,.3,1,.5,1.5-.2,.5-.4,1-.5,1.4-.8,.4-1.3,1-1.6,1.8-2.2-.9-3.5-2.2-2.9-4.8Z"/>
      <path class="cls-37" d="M44.6,33.9c.9-1.5,2.2-1.7,3.8-1.5,.4,.7,1.1,1.3,.8,2.2-1.5-.2-3.1-.5-4.6-.7Z"/>
      <path class="cls-80" d="M57.4,53.9c-1.6-2.3-.4-4.9-.8-7.3,1.1,0,2.2,0,2.2,1.5-2.8,1.4-.9,3.9-1.4,5.8Z"/>
      <path class="cls-97" d="M48.4,30.2c-.5,0-1-.2-1.5-.2,.2-.5,.5-.9,.7-1.4,.8,.1,1.7,0,2.3,.7-.3,.2-.5,.5-.8,.7-.3,0-.5,.1-.8,.2Z"/>
      <path class="cls-36" d="M51.5,31.5c.4-.2,.9-.5,1.3-.7-.2,.9,1.7,1.8,.2,2.4-.9,.4-1.3-.9-1.6-1.7Z"/>
      <path class="cls-5" d="M39.4,31.7c-.5,1-1,1.9-1.5,2.9-.2,.3-.5,.3-.9,.2-.3-.2-.5-.4-.8-.6-.8-.8-2.2-.9-2.8-2,0-.7,0-1.4,0-2,.4-.6,1-.5,1.5-.2l1.3,.2c1.2,.3,2.5,.2,3.2,1.5Z"/>
      <path class="cls-7" d="M42.5,30.7c0-.2,0-.5,0-.7,.8-1.3,2.1-1.6,3.4-2.1,.6,1.5-1.1,1.4-1.4,2.1-.5,.6-1,1.3-1.9,.7Z"/>
      <path class="cls-55" d="M39.4,29.9c0,.3,0,.5-.1,.8-.9,.4-1.4-.2-1.9-.8-.4-.7-1.7-.6-1.5-2.1,1.4,.4,2.7,.9,3.6,2.1Z"/>
      <path class="cls-97" d="M34.9,29.9c-.5,0-1,.2-1.5,.2-.3,0-.5-.1-.8-.2-.3-.2-.6-.5-.8-.7,.6-.7,1.5-.6,2.4-.7,.2,.5,.5,.9,.7,1.4Z"/>
      <path class="cls-75" d="M42.5,30.7c.6-.2,1.3-.5,1.9-.7,.4,0,.9,.2,1.3,.2-1.1,.6-2.1,1.2-3.2,1.8,0-.4,0-.9,0-1.3Z"/>
      <path class="cls-29" d="M37.4,30c.6,.3,1.3,.5,1.9,.8,0,.3,0,.6,.1,.9-1.3,0-2.3-.7-3.2-1.5,.4,0,.8-.1,1.2-.2Z"/>
      <path class="cls-1" d="M66.3,26.1c0,.4,.1,.8,.2,1.2,0,.2,0,.4,0,.5-.8,.2-1.7,1-2.6,0,.5-1,1.5-1.4,2.5-1.7Z"/>
      <path class="cls-87" d="M66.2,48c-.2-.3-.5-.6-.7-.9,0-.7,0-1.4,.1-2,.2-.5,.4-1,.6-1.6,.3,1.5,.8,3,0,4.5Z"/>
      <path class="cls-91" d="M19.2,38.8c.2-2.5-1.7-3.9-3.1-5.7,4.6-.3,3.7,3.1,3.8,5.8-.3,.5-.6,.5-.8,0Z"/>
      <path class="cls-32" d="M19.2,38.8c.2,0,.5,0,.8,0,.2,0,.4-.2,.7-.3,1.3-.4,0-2.3,1.5-2.5,.2,0,.8,.3,.8,.5,.2,1.5-.3,2.7-1.6,3.5-.4,.3-.9,.4-1.3,.7-.3-.7-.5-1.3-.8-2Z"/>
      <path class="cls-10" d="M37.1,33.8c0,.2,.1,.4,.2,.7,0,1.7-.8,2.1-2.3,1.6-.7-.5-1.5-1.1-2.2-1.6,1.3-1.5,2.7-1.6,4.4-.7Z"/>
      <path class="cls-81" d="M37.1,33.8c-1.5,.2-2.9,.5-4.4,.7,0-.9-.2-1.8,.7-2.3,1.4,.1,2.8,.2,3.7,1.6Z"/>
      <path class="cls-5" d="M29.6,33c.2-1.4,.9-2.4,2.4-2.8,0,1.7,0,3.2-2.4,2.8Z"/>
      <path class="cls-31" d="M34.9,36.1c1.1-.1,1.9-.6,2.3-1.6,.2,0,.4,0,.6,0,0,.7,0,1.5,0,2.2-.2,.3-.4,.4-.8,.2-.8-.1-1.5-.2-2.3-.3,0-.2,0-.3,0-.5Z"/>
      <path class="cls-6" d="M15.4,27.3c0-.4,.1-.8,.2-1.2,1,.3,2,.7,2.6,1.8-1.2,.9-2,.3-2.8-.6Z"/>
      <path class="cls-89" d="M16.3,47.2c-.2,.3-.5,.5-.7,.8-.8-1.5-.4-3,0-4.5,.2,.5,.4,1,.7,1.6,0,.7,0,1.4,0,2.1Z"/>
      <path class="cls-64" d="M48.4,57.8c-.4,1.4,.9,2.4,.7,3.7-3.7,5.7-13.3,5.7-16.5,0,0-2.5,1.8-4.2,2.4-6.4,.3-.8,.7-1.4,1.6-1.7,2.9-1,5.8-.9,8.7,0,2.2,.7,2.8,2.5,3.2,4.5Z"/>
      <path class="cls-63" d="M32.6,61.4c5.7,4.4,10.2,4.5,16.5,0,1.4,1.4,.7,3,.2,4.5-.1,.4-.5,.7-.7,1-3.9-3.4-3,1.3-3.9,2.5-.6,.8-1,2.1-2,1.4-1.8-1.1-4.5,1.9-5.7-1.7-.4-1.2-.2-5.4-3.7-2.3-.3-.5-.9-1-1-1.6-.3-1.3-.7-2.7,.3-3.9Z"/>
      <path class="cls-15" d="M51.3,48.1c-.1,2.7,.4,5.5-.5,8.1,0,.8-.1,1.6-.2,2.5-1-.2-1-1.2-1.5-1.7-1.2-2-3.7-3.3-3.6-6,1-.4,1.4-1.2,1.5-2.2,.3-.7,1.1-.4,1.5-.8,.9,.7,2-3,2.9,0Z"/>
      <path class="cls-96" d="M31.9,59.3c-1.9-4.3-1.7-8.7-.4-13.3,.3,2.1,1.5,2.9,3.4,2.7,0,1,.5,1.9,1.5,2.3,.6,1.5-.6,2.1-1.5,2.8-1.7,1.4-2.6,3.3-2.9,5.5Z"/>
      <path class="cls-58" d="M34.8,53.8c.5-.9,1-1.9,1.5-2.8,3-1.4,6.1-1.3,9.1,0,1,2.1,3.3,3.5,3.6,6-.2,.2-.4,.5-.7,.7-1-1.3-1.9-2.5-2.9-3.8-3.1-2.1-6.2-2.6-9.3,0-.4,.3-.9,.7-1.3,1,0-.4-.1-.8-.2-1.2Z"/>
      <path class="cls-14" d="M35.1,67.1c.4,1.8,1.7,2.8,.8,4.2,0,.1-1,0-1.3-.3-1.1-1.1-.7-2.1,.5-3.9Z"/>
      <path class="cls-21" d="M46.8,67.7c.9,1.3,1.7,2.5,0,3.5-.3,.1-.9,.2-1,0-.8-1.5,.7-2.3,1-3.5Z"/>
      <path class="cls-65" d="M48.4,48.1c-.3,.7-.9,.7-1.5,.8-1.3-1-1.7-2.3-1.5-3.8,.3,0,.7,0,1,0,1.3,.3,1.6,1.2,1.2,2.4l.8,.7Z"/>
      <path class="cls-42" d="M33.8,47.7c-.4-1.9-2.7-3.1-.6-5.1,.6-.6,2-1,2.3-.2,.8,1.8-.3,3.4-1.6,5.3Z"/>
      <path class="cls-41" d="M37.2,37c.3,0,.5-.1,.8-.2,2.2,0,4.5,0,6.7,.1-2.5,1.1-5,1-7.5,0Z"/>
      <path class="cls-12" d="M47.6,47.4c-.4-.8-.8-1.6-1.2-2.4-.9-3.1,.3-3.5,2.8-2.2,.6,1.9-.2,3.3-1.6,4.6Z"/>
      <path class="cls-23" d="M36.3,54c3.6-4,5.6-4,9.3,0-3.1-.5-6.2-.5-9.3,0Z"/>
    </g>
  </g>
</svg>