<?xml version="1.0" encoding="UTF-8"?>
<svg id="Capa_2" data-name="Capa 2" xmlns="http://www.w3.org/2000/svg" viewBox="0 0 81.2 80.2">
  <defs>
    <style>
      .cls-1 {
        fill: #988bac;
      }

      .cls-2 {
        fill: #695876;
      }

      .cls-3 {
        fill: #7d64a6;
      }

      .cls-4 {
        fill: #fafafa;
      }

      .cls-5 {
        fill: #332145;
      }

      .cls-6 {
        fill: #2e2627;
      }

      .cls-7 {
        fill: #4b2c45;
      }

      .cls-8 {
        fill: #705b77;
      }

      .cls-9 {
        fill: #393036;
      }

      .cls-10 {
        fill: #413b40;
      }

      .cls-11 {
        fill: #312135;
      }

      .cls-12 {
        fill: #a38fbf;
      }

      .cls-13 {
        fill: #342339;
      }

      .cls-14 {
        fill: #443a4b;
      }

      .cls-15 {
        fill: #493b4a;
      }

      .cls-16 {
        fill: #442534;
      }

      .cls-17 {
        fill: #4b2636;
      }

      .cls-18 {
        fill: #403643;
      }

      .cls-19 {
        fill: #3b2e38;
      }

      .cls-20 {
        fill: #432739;
      }

      .cls-21 {
        fill: #32224e;
      }

      .cls-22 {
        fill: #7d63a4;
      }

      .cls-23 {
        fill: #9c8ab3;
      }

      .cls-24 {
        fill: #a48cbf;
      }

      .cls-25 {
        fill: #746385;
      }

      .cls-26 {
        fill: #776088;
      }

      .cls-27 {
        fill: #5e4e66;
      }

      .cls-28 {
        fill: #726190;
      }

      .cls-29 {
        fill: #cf8787;
      }

      .cls-30 {
        fill: #36204d;
      }

      .cls-31 {
        fill: #23181b;
      }

      .cls-32 {
        fill: #2f2234;
      }

      .cls-33 {
        fill: #7b669f;
      }

      .cls-34 {
        fill: #604f6a;
      }

      .cls-35 {
        fill: #513641;
      }

      .cls-36 {
        fill: #a493c5;
      }

      .cls-37 {
        fill: #735c7d;
      }

      .cls-38 {
        fill: #492a38;
      }

      .cls-39 {
        fill: #7d63a6;
      }

      .cls-40 {
        fill: #7e62a5;
      }

      .cls-41 {
        fill: #3c2633;
      }

      .cls-42 {
        fill: #7a639d;
      }

      .cls-43 {
        fill: #796b87;
      }

      .cls-44 {
        fill: #472c32;
      }

      .cls-45 {
        fill: #7d619f;
      }

      .cls-46 {
        fill: #769;
      }

      .cls-47 {
        fill: #423248;
      }

      .cls-48 {
        fill: #211c1c;
      }

      .cls-49 {
        fill: #251a1d;
      }

      .cls-50 {
        fill: #7a589c;
      }

      .cls-51 {
        fill: #322033;
      }

      .cls-52 {
        fill: #442b30;
      }

      .cls-53 {
        fill: #736295;
      }

      .cls-54 {
        fill: #785887;
      }

      .cls-55 {
        fill: #9889b4;
      }

      .cls-56 {
        fill: #40333a;
      }

      .cls-57 {
        fill: #9b83b5;
      }

      .cls-58 {
        fill: #423232;
      }

      .cls-59 {
        fill: #372c3b;
      }

      .cls-60 {
        fill: #7e6597;
      }

      .cls-61 {
        fill: #a18fbf;
      }

      .cls-62 {
        fill: #fefefe;
      }
    </style>
  </defs>
  <g id="Capa_1-2" data-name="Capa 1">
    <g>
      <path class="cls-31" d="M3.4,47.5c.9-1,2.1-1.8,1-3.4-.3-.5-.4-1.2-.3-1.8,1-4.7-1-8.6-3.1-12.6-1.3-2.4-.3-4.1,2.5-3.7,2.1,.3,2.6-.4,2.4-2.3-.1-1.1,0-2.2,0-3.4,.4-4.1,1.9-5,5.3-2.9,2.4,1.5,3,.7,3.9-1.4,2-4.5,4.2-9,6.6-13.4,1.9-3.4,3.6-3.4,5.5,0,1.6,2.9,2.2,7.1,4.6,8.6,2.2,1.4,6.3-.2,9.5,0,4.6,.2,9.1,1.5,13.1,4,1.8,1.2,3.3,1,5.2,.2,5-2.1,10.1-4.1,15.3-6,1.1-.4,2.5-1.1,3.5,0,1.1,1.2,.4,2.6-.1,3.8-1.8,3.9-3.6,7.8-5.7,12.2,2.1-.2,3.9-.4,5.6-.5,3.3-.1,4,.8,2.3,3.7-2.5,4.3-5.2,8.5-7.9,12.8,1.2,1,3.2-.9,3.8,1.1,.5,1.6-.5,2.9-1.2,4.2-1.2,2.3-2.5,4.6-3.9,6.8-1.7,2.8-4.1,5.4-.7,8.6,.3,.3,.4,.9,.4,1.4,0,5.7-8.4,15.5-13.8,16.5-2.2,.4-3.2-.2-2.4-2.5,0-1.2-1.3-2.2-.8-3.5,1.8-2.3,3.7-4.5,7.1-4.3,1.9,2.3-.5,3.6-1.2,5.4,0,0-.1,.2-.1,.3,.1,.7,.5,.1,.8,.1,1.6-.7,2.4-2.1,3.2-3.5,.6-1.3,1.6-2.4,2-3.8,.6-2.2,2.8-4.1,.8-6.6-.3-.4-.6-.9-.7-1.4-.2-.9-.2-1.8,0-2.7,1.3-3.9,4.2-6.9,5.8-10.5-.6-.8-1.1-.6-1.5-.5-1.1,.2-2.3,.6-3-.7-.5-1,0-1.9,.6-2.8,2.8-4.5,5.7-9,8.6-13.5,.2-.5,1.2-1.2-.3-1.3-2,0-3.8,1-5.8,.5-.8-.3-1.2-.9-1.3-1.7,.1-3.2,2.3-5.6,3.4-8.4,.8-1.9,2-3.7,2.5-5.7-.8-.7-1.3,0-2,.2-5.2,2.1-10.3,4.2-15.4,6.5-2.3,1-5.2,2.9-6-1.8-.1-.7-1.2-.9-1.8-1.2-5.3-1.6-10.5-3.3-16.3-1.4-3.8,1.2-4.8,.3-5.7-3.7-.5-2.1-1.6-3.9-2.3-5.8-.1-.3-.3-.6-.4-.8-.6-.6-.9-.1-1.2,.3-2.8,5.3-5.2,10.7-7.6,16.1-1.4,3.1-2,3.2-4,.5-.6-.8-1.2-1.8-2.3-1.3-.7,.2-.4,1.1-.5,1.7-.1,2.1,.3,4.3-.5,6.4-.3,.5-.8,.8-1.4,.9-1,0-1.9-.4-3.1-.4,1,2.1,2,4,3,5.9,.2,.4,.2,.7,.3,1.1,.1,.8,.2,1.6,.2,2.4,0,2.2,.2,4.4,0,6.6-.4,2.5-1.2,4.3-4.2,2.4Z"/>
      <path class="cls-49" d="M54.4,74.5c-.2,1.1,1.3,2,.2,3.1-1.5-1.1-2.1,.7-3.1,1-1.8,.7-3.7,2.7-4-1.3-.2-1.9-1.6-.5-2.3-.4-9.6,1.7-18.8-.2-27.6-3.9-1.7-.7-3.4-1.7-4.8-2.8-1.6-1.4-2.9-2-4.6-.1-1,1.1-2.6,1.8-3.4-.5-.3-.8-.3-1.5-1.7-1.2-2.1,.5-2.5-1.4-3.2-2.8,.2-.8-.3-1.7,.6-2.4,2.5,1.3,3.5-.5,4.5-2.2,.4-.5,.7-1.1,1.1-1.6,.5-.7,1-1.2,1.6-1.8,1.1-.9,.8-2.3,1-3.5,0-.4,.2-.7,.4-1,.2-.3,.2-.5,.1-.4-4.3,3.4-3-1.5-4.1-2.8-.7-.4-1.6-.3-2-1.1-.2-.5,0-1,.2-1.4h0c2.5,.7,3.4-.5,3.2-2.9,2.5,.6,1.1,2.9,1.9,4.4,2.6-.5,4.7-.2,4.9,3.1-.3,2.1,0,4.3-.5,6.4-2.1,0-1.6,1.4-1.3,2.6,.3,2,.5,4,2.1,5.5,.7,.8,1.7,1.3,2.6,1.8,8.8,4.7,18.1,6.1,27.9,4.7,2-2.5,.2-5.5,1.2-8.1,.1-.4,.4-.7,.7-1,1.7,.2,1.5,1.6,1.7,2.7,0,.9,0,1.8,0,2.7,.2,.2-.6,.8,.3,.8,.3-.3,.6-.5,1-.5,.3,0,.6,.1,.8,.3,.5,.8-.1,1.8,.4,2.6,.5,.6-.2,2,1.2,2,.9-.3,1.7-.8,2.6-.2Z"/>
      <path class="cls-3" d="M12.6,52.1c-.4-4.7-3-1.8-4.8-1.2-1.2-2.1,.5-4.6-1.2-6.4-.2-2.2-.5-4.5,.1-6.7,.5-1.1,1.2-1.1,1.8-.1,.5,.7,.7,1.5,1.3,2.1,.9,1.3,2,2.4,3,3.7,.2,.2,.3,.5,.5,.8,.3,.7,1,1,1.7,1,.8,0,1.5-.2,2.3-.3,.9-.1,.9-1.1,1.3-1.6,1.3-2.1,2.6-4.2,4.8-.8,1,1.6,2.1,.8,3.1,0,11.6-8,23.6-15.4,35.4-23,3.6-2.3,7.7-4,10.7-7.2,.9-1,2.1-.8,3.4-1-1.1,5.7-4.8,10-6.5,15.2-.3,2.2-1.6,3.9-2.4,5.9-.1,.3-.3,.5-.4,.8-.1,.2,0,.2,.2,0,.6-.8,.4-2.2,1.7-2.5,1.9-.1,3.3-1.5,4.9-2.2,1.2-.5,2.4-1.3,3.7-.4,.2,.5,.1,1.1,0,1.6-2.7,4.4-5.4,8.8-8.2,13-.6,.9-1.8,1.9-1.2,2.8,.9,1.3,1.9-.3,2.9-.5,.7-.1,1.4-.3,2.6-.6-1.3,5.1-4.7,8.6-6.8,12.7-1.8,1.4-3.7,0-5.6,.4-4.2,.6-7.6,3.1-11.6,4.3-.8,0-1.6,0-2.2-.6-1.5-2.2,.2-4,.5-6,0-.3,.2-.7,.4-1,.7-1.6,2.2-2.1,3.7-2.8,1.9-1,4.3-1.7,4.3-4.5-.5,.6-.6,1.3-.9,1.9-1.5,2.4-4.2,2.6-6.4,3.9-2.1,1.2-4.5,1.3-5.8,4.5-1.3,3.2-2.6-.6-3.8-1.3-4.3-1.4-5-1.2-7.2,2.7-1.5,2-3,3.3-4.8,.2-.3-2-1.2-3.1-3.5-2.9-1.2,.1-2.5,0-3.5-.8-.5-.5-.8-1.5-1.9-1-.2,.1-.5,.2-.7,.3q-3.9,1.9-4.8-2.4Z"/>
      <path class="cls-36" d="M72.6,12.4c.5,1.4,.4,1.4-1.2,2.4-7.8,4.9-15.6,9.7-23.3,14.7-7.4,4.8-15,9.3-22,14.6-.7,.6-2.3,2.3-2.9,.2-1.2-4.3-2.7-2.3-4.4-.5-2.7-3.6-2.8-8-4.5-12-.5-2-1.4-3.3-3.8-2.7-2.7-2-1.5-5.1-2.3-7.6,.1-1-.8-2.8,.8-2.6,2.1,.3,4.2,1.4,4.9,4.4,3.1-6.4,6.2-12.7,9.3-19.1,.7-.6,1.4-.6,2.2-.2h0c-1.2,4.7-3.4,8.9-4.7,13.4-.3,1-.9,1.8-1,2.8-.3,2.4-2.3,5.3,0,7,2.7,2,5.8,4,10,2.4,5.3-2,10.1-4.8,14.9-7.7,2.4-1.5,2.8-4.7,5.4-5.8,2.1,.5,4.6,.9,2.1,4.6,7.2-2.9,13.9-5.6,20.6-8.2Z"/>
      <path class="cls-3" d="M50,16.1c-3.3,8-11.1,10-17.8,13.7-4.9,2.8-9,.6-13.2-1.2-1.6-.7-1.4-2.3-1.2-3.6,1.5-7.3,3.4-14.5,7.5-20.9,1.5,3.3,4.2,6.2,2.9,10.7,7.4-1.3,14.7-2.6,21.7,1.2Z"/>
      <path class="cls-22" d="M47.1,69.9c0-.9,0-1.8,0-2.6,.4-.7,.2-1.5,.8-2.1,4.5-2.6,9-5.2,14.6-3.6,1.5,.4,3.2,0,4.8-.2,3,2.8-.3,4.9-.8,7.4-1.7,.8-3,2.9-5.3,1.6-3.1,0-4.6,2.6-6.7,4.3-1,.5-2,.9-3,1.4-1.5-3,.6-4.8,2.2-6.8,1.2-.7,2.5-1.3,3.6-2.3q2-1.2,.8-2.1c-3.6,.8-6.1,3.3-9,5.3-.2,.3-.4,.5-.5,.8-1,.5-1.1-.3-1.3-.8Z"/>
      <path class="cls-61" d="M67.2,61.3c-1.1,1.9-3.2,1.8-4.6,1.3-4.5-1.5-8.2,.4-12,2.1-.9,.4-1.8,.7-2.7,1.1-1.2-2.1,.5-2.7,1.9-3.6,3.3-2.1,7.1-3.3,10.7-4.6,2.6-.5,4.8,0,6,2.7,.2,.3,.5,.7,.7,1Z"/>
      <path class="cls-42" d="M61.1,70.2c2,.2,3.2-2.2,5.3-1.6-.7,1.3-1.4,2.7-2.1,4-1.8,.7-2.6,2.4-3.8,3.6-.7,.9-1.6,.9-2.8,1.3,.3-2.9,3.1-4.5,3.3-7.2Z"/>
      <path class="cls-40" d="M8.2,21.5c1.5,2.3,.7,5.4,2.7,7.4,1.2,1.6,.6,2.6-1.1,3.3-.9,0-1.6-.4-2.1-1.1-.4-.8-.3-1.6,.2-2.4l.3-7.3Z"/>
      <path class="cls-24" d="M76.8,28.1c-1.8,.4-3.3,1.5-4.9,2.4-.9,.5-1.8,1.9-3.2,.7-.6-1.6,.3-2.4,1.5-3.1,2.2-.3,4.5-.5,6.7-.8,.2,.3,.1,.6-.2,.8Z"/>
      <path class="cls-40" d="M6.5,34.9c-1.5-.7-1.3-2.5-2.3-3.6-.8-.9-1.4-2.2-.8-2.8,.8-.9,2.2-.6,3.3,.2,.5,.8,.6,1.6,.6,2.5,.3,1.3,.3,2.6-.8,3.7Z"/>
      <path class="cls-3" d="M6.5,34.9c0-1.3,0-2.5,0-3.8,.5-.4,1-.4,1.5,0,.6,0,1.2,.2,1.6,.8,.6,.6,.7,1.3,.6,2.2,0,.4-.2,.8-.4,1.1-.9,.9-1.9,1.4-3.1,.5,0-.2-.1-.5-.2-.7Z"/>
      <path class="cls-32" d="M70.3,28.2c-.5,1-1,2.1-1.5,3.1-1.3,.7-.3,2.8-2.1,3.1-.7-.6-.6-1.2-.2-1.9,.6-2.2,1.7-4.1,3.1-5.8,0,.6,.2,1.2,.8,1.5Z"/>
      <path class="cls-51" d="M66.5,60.2c-1.7-1.7-3.6-2.5-6-1.9-.4-.5-.5-1,0-1.5,2-.6,4,0,5.9,.4,0,1,0,2,.1,3Z"/>
      <path class="cls-40" d="M6.7,35.6c1,0,1.9-.2,2.7-.7,1.5,1.3,1.1,2.9,.8,4.4-.2,.4-.5,.6-.9,.8-1.9,.5-.2-3.2-2.6-2.2,0-.7,0-1.5,0-2.2Z"/>
      <path class="cls-57" d="M60.6,76.2c.4-2.1,1.2-3.7,3.8-3.6-.9,1.6-1.3,3.6-3.8,3.6Z"/>
      <path class="cls-2" d="M76.8,28.1c0-.3,.1-.5,.2-.8,.4-.7,1.1-.8,1.4,0,.4,1.1-.4,1.8-1.2,2.5-.1-.5-.3-1.1-.4-1.6Z"/>
      <path class="cls-46" d="M8,31.1c-.5,0-1,0-1.5,0,0-.8,0-1.6,.1-2.3,.4,0,.8,0,1.2,0,0,.8,.1,1.6,.2,2.4Z"/>
      <path class="cls-39" d="M13.3,67.2c-2-1.6-2.5-3.7-2.3-6.1,.4-.4,.8-.5,1.3-.4,.3,0,.6,.2,.9,.4,3.4-1.2,5.1,2.5,8.1,2.7,.9,1.7,1.7,2.7,4.1,3.4,2.5,.7,3.5,0,5.1-1.1,2.1,.4,3.3,3.4,6,1.9,1-.3,2-.4,3-.8,1.6-.7,3.2-1.2,4.3-2.5,.5-.6,1.3-1.3,2.1-.1,0,.4,0,.8,0,1.2-.3,2.9,.6,5.9-.5,8.8-9.9,.9-19.5-.1-28.5-4.7-.5-.3-.9-.7-1.4-1.1-.5-.9-1.4-1.1-2.2-1.5Z"/>
      <path class="cls-11" d="M49,70c1.8-3.3,6.9-6.5,9.4-5.8,.3,.7-.1,1.3-.5,1.8-1.3,1-2.1,2.4-3.5,3.3-1.6,1.9-2.8,4-2.9,6.6-.5,1.1-1.1,.9-1.3,0-.2-1-.1-2.2-.2-3.3,0-.8,1.6-1.5,.2-2.4-.4,0-.8-.1-1.1-.2Z"/>
      <path class="cls-11" d="M60.5,56.8c0,.5,0,1,0,1.5-3.4,1.6-7.2,2.4-10.4,4.5-1,.7-2.8,.9-2.3,2.8-.3,.5-.5,1.1-.8,1.6-.3-1,.2-2.3-.7-3.1-.6-2.6,1.8-2.2,3-3,3.8-1.4,7.1-3.8,11.2-4.4Z"/>
      <path class="cls-33" d="M2.1,58.9c0-.2,0-.5,0-.7-.6-3.9,.5-7.1,3.7-9.5,1.4,1.3-.6,3.7,1.4,4.5,1.6,.6,2.1-2.3,4.3-1.9-.8,1.1-1.5,2-2.2,2.8-2,1.6-4.5,2.6-5.7,5.2-.4,.8-1.2,.2-1.6-.5Z"/>
      <path class="cls-13" d="M2.1,58.9c.8,.6,1.2,.2,1.5-.7,.9-2.8,3-4,5.8-4.1-.1,1.4,1.1,3.3-1.3,4-.8-.8-1.3-.1-1.7,.4-.6,.6-.6,1.5-1.1,2.2-1,.7-1.8,2.8-3.2,.4,0-.8,0-1.6,0-2.4Z"/>
      <path class="cls-52" d="M12.6,52.1c.6,1,1.1,2.1,1.8,3.4,1.1-1.3,2.1-2.8,4-1.8,.3,.3,.4,.6,.4,.9,0,.4-.2,.7-.5,.9-1.9,1.6-4.4,2.7-4.4,5.7-.5,.3-1,.3-1.4-.2h-.2c-.4-.6-.5-1.3,0-1.9,0-2.3,.1-4.7,.2-7Z"/>
      <path class="cls-23" d="M5.9,48.6c-1.3,3.1-3.6,5.9-3.7,9.5-1.1-3.2-2.4-6.4,1.4-8.9,.8-.2,1.5-.4,2.3-.6Z"/>
      <path class="cls-28" d="M2,61.2c1.6,1.6,2-.6,2.9-1,.5,.1,.8,.4,.9,.9-.4,.7-.8,1.5-1.2,2.2-1.4,2.8-2.7,2.3-4.1,0,0-.3,0-.5,0-.8,.5-.4,0-1.2,.7-1.5,.2,0,.4,.1,.6,.2Z"/>
      <path class="cls-45" d="M6.6,67c0-1.7-.5-3.4,.6-5,.4,.2,.8,.5,1.3,.7,.3,1.5,2.1,2.9,.2,4.4-.7,.5-1.4,.6-2.1-.1Z"/>
      <path class="cls-11" d="M45.4,74.6c0-3.2,.1-6.4,.2-9.6,.1-.4,.3-.4,.6-.2-.3,3.3,1.1,6.7-.8,9.8Z"/>
      <path class="cls-53" d="M12.4,59.2c0,.7,0,1.3,0,2-.5,0-.9,0-1.4,0-1.1-1.3,0-2.6,.2-4,.5,.8,.8,1.4,1.2,2Z"/>
      <path class="cls-8" d="M5.8,58.1c.5-1.1,1.2-2.4,2.6-1.8,.8,.3-.3,1.2-.3,1.9-.5,.5-1,1-1.4,1.6-.7-.3-.8-1-.9-1.6Z"/>
      <path class="cls-37" d="M46.2,64.8c-.2,0-.4,.1-.6,.2-.1-.2-.1-.4,0-.7-.7-1.7-.6-2.9,1.5-3.2,.8,0,1.5,0,2.3,0-.8,1.1-2.6,1.3-3,3-.1,.2-.2,.4-.1,.6Z"/>
      <path class="cls-34" d="M50.1,70.2c.6-.4,1.2-.8,2.1-1.5-.4,1.8-.9,3.1-2.2,3.9-1.1-.9,.3-1.6,.2-2.4Z"/>
      <path class="cls-50" d="M5.8,58.1c.7,.3,.7,1,.9,1.6-.1,.6,0,1.2-.8,1.4-.3-.3-.6-.6-.9-.9,0-.8,0-1.6,.8-2.1Z"/>
      <path class="cls-11" d="M47.1,69.9c.4,.3,.9,.6,1.3,.8,0,.7,.2,2-.5,1.9-1.6-.3-.7-1.7-.8-2.7Z"/>
      <path class="cls-1" d="M8.5,62.8c-.4,.1-.5,1.1-1,.7-.3-.2-.2-.9-.2-1.4,.2-.5,.6-.8,1-.6,.3,.2,.2,.8,.3,1.2Z"/>
      <path class="cls-25" d="M13.3,67.2c1.2-.2,2.2,0,2.2,1.5-1-.1-1.8-.6-2.2-1.5Z"/>
      <path class="cls-27" d="M6.6,67c.7,0,1.4,0,2.1,.1-.3,.6-.7,1.3-1.5,1.2-.8,0-.6-.8-.6-1.3Z"/>
      <path class="cls-9" d="M14.8,31.1c2,4,2.7,8.4,3.9,12.7-.2,.7,.9,2.1-1,1.8-.6-.4-1.1-.9-1.4-1.7-4.3-3.6-3-8.2-2.5-12.7,.3-.2,.7-.2,1,0Z"/>
      <path class="cls-6" d="M32,42.4c1.7-2.9,5-3.5,7.5-5.3,.8-.2,1,.3,1.1,.8,0,1.9,0,3.8-.4,5.6-.6,2.5-2.5,3-3.9,1-1-1.3-2-1.7-3.4-1.6-.4-.1-.7-.3-.9-.6Z"/>
      <path class="cls-38" d="M39.6,55.1c.7,1,1.4,1.9,2.6,3.6-.4-5.3,2.9-6.1,6.3-6.6,.6,.7,.4,1.5,.2,2.3,0,.2,0,.5-.2,.7-.4,.4-.9,.6-1.5,.6-2.2-.2-2.1,1.7-2.7,3-1.2,2.6-2.6,3-4.4,.9-1.2-1.4-2.9-2.3-3.6-4.1,1-1.1,2.1-.7,3.2-.3Z"/>
      <path class="cls-19" d="M32,42.4c.3,0,.6,0,.8,0-.1,2.5,1.2,3.4,3.6,3.6,2.6,.2,5.2-.3,7.8,0,1.1,.3,2.5-.1,2.8,1.6-4.7,.3-9.3,.8-14,.2-1.1-.1-1.7-.5-2.6-1.5-2.7-2.9-.7-3.4,1.6-3.9Z"/>
      <path class="cls-20" d="M47.1,55.1c.5,0,1,0,1.4,0-.5,2-1,4-1.5,6-1.1,.8-1.3,2-1.5,3.2-1.7,1.7-3.3,3.5-5.9,3.7-.2-.3-.3-.6-.2-1,4.2-2.9,5.2-7.8,7.7-11.8Z"/>
      <path class="cls-5" d="M48.7,54.5c0-.8-.1-1.6-.2-2.3,2.1-1.2,4.5-1.6,6.1-3.6,.4-.9,.7-1.7,1.3-2.4,.3-.4,.5-1.1,.8-1.1,1-.2,.8,.7,.7,1.2-.6,2.9-2.2,5-5,5.8-1.6,.5-3,1-3.8,2.5Z"/>
      <path class="cls-56" d="M51.5,30.4c.4-.9,1.3-.7,2.1-.8,1-.3,1.2,.2,1.1,1.1-.2,3.2,.5,6.4-.8,9.5-.3,.2-.7,.2-1,0-1.8-2.6,.2-5.7-1-8.4-.3-.4-.6-.9-.3-1.5Z"/>
      <path class="cls-44" d="M18.5,55.2c0-.3,0-.6,0-.9,.5-.4,.9-.4,1.4,0,1.3,1.1,2.8,.8,4.2,.7,2.9-.2,3.7,1.1,3.5,3.6,.3,.8-.2,1-.8,1.1-1.7-1.4-3.6-2.5-5.9-2.8-1-.1-2.3-.3-2.4-1.8Z"/>
      <path class="cls-47" d="M52.9,40.1c.3,0,.6,0,.9,0-.3,1.2-.7,2.4-1,3.6-.4,.8-.5,1.8-1.5,2.2-1.6,.2-2.7,1.7-4.4,1.5-.9-.9-2.1-.4-3.1-.7,0-.3,0-.6,.2-.7,3.9-.6,6.3-3.4,8.8-6Z"/>
      <path class="cls-10" d="M40.3,37.8c-.2-.2-.5-.5-.7-.7,2.5-1.8,5-3.7,8.1-4.5,.8-.3,1,.2,1.1,.8-2.3,2.5-4.9,4.3-8.5,4.4Z"/>
      <path class="cls-17" d="M39.6,55.1c-1,.1-2.1,.3-3.1,.4-1,1.8-3,2.4-4.5,3.6-.6,0-1.1-.2-.8-1,1.6-4,4.4-5,8.4-3Z"/>
      <path class="cls-35" d="M31.2,58.1c.2,.3,.5,.5,.7,.8,.5,2.7-.9,4.2-3.3,4.2-1.9,0-2.8-1.4-1.8-3.4,.3-.3,.6-.6,.8-.9,1.8,3,2.5,0,3.6-.6Z"/>
      <path class="cls-59" d="M17.1,43.9c.2,.5,.4,1.1,.7,1.6-.9,.6-1.8,.7-2.8,.6-.7-.6-1.7-.6-2.1-1.6,0-.3-.1-.5-.2-.8,0-.6,.3-.9,.9-1,1.3,.3,2.5,.5,3.6,1.2Z"/>
      <path class="cls-15" d="M13.3,43.1c-.2,.2-.5,.4-.7,.6-1.8-.6-2.6-2-3.3-3.6,0,0,.3,0,.3,0,.3-.3,.6-.4,1-.4,1.5,.6,3,1.3,2.7,3.4Z"/>
      <path class="cls-14" d="M48.5,33.3c-.3-.2-.6-.5-.9-.7,.9-1.3,2.6-1.5,3.8-2.2,.3,.3,.6,.5,.9,.8-.6,2-1.9,2.6-3.8,2Z"/>
      <path class="cls-30" d="M54.7,30.7c-.4-.4-.7-.7-1.1-1.1,.8-.7,1.8-1.2,3-1.2,.3,1.8-1.5,1.4-1.9,2.3Z"/>
      <path class="cls-60" d="M20,54.4c-.5,0-.9,0-1.4,0,0-.2,0-.4,0-.6,.2-.5,0-1.4,.9-1.2,.9,.3,.5,1.2,.5,1.8Z"/>
      <path class="cls-21" d="M66.4,32.5c0,.6,.2,1.3,.2,1.9-.1,.6-.2,1.4-1.1,1.2-.6-.1-.6-.7-.3-1.2,.3-.7,.8-1.3,1.2-1.9Z"/>
      <path class="cls-26" d="M55.9,46.1c0,1.1-.5,1.8-1.3,2.4-.1-1.1-.3-2.2,1.3-2.4Z"/>
      <path class="cls-43" d="M12.8,44.5c1,.2,1.6,.8,2.1,1.6-1.1,0-2.4,.2-2.1-1.6Z"/>
      <path class="cls-54" d="M51.3,46c.5-.7,1-1.5,1.5-2.2,.2,1.2,.2,2.4-1.5,2.2Z"/>
      <path class="cls-18" d="M14.8,31.1c-.3,0-.6,0-.9,0-.3,1-1.3-2.2-1.6,.3-.1,1.3-.3,2.8-1.6,3.6-.7,0-.9-.4-1.1-.9,0-.8,0-1.5,0-2.3,.9-.8,1.5-1.8,1.3-3.1,3.9-3.8,3,.7,3.9,2.2Z"/>
      <path class="cls-12" d="M57.5,65.5c.3-.4,.6-.9,.9-1.3,.8-.5,1.8-.7,2,.5,.4,2.1-1.6,2-2.8,2.6-.5-.6-.4-1.1,0-1.7Z"/>
      <path class="cls-55" d="M57.5,65.5c0,.6,0,1.2,0,1.7-.8,1.2-1.6,2.2-3.2,2.1,.4-1.8,1.8-2.8,3.1-3.8Z"/>
      <path class="cls-48" d="M9.7,34.2c.2,.3,.5,.6,.7,.9,1.1,1.7,1.2,3.4,0,5-.2,0-.5,0-.7,0,0-1.8-.1-3.5-.2-5.3,.1-.2,.2-.5,.3-.7Z"/>
      <path class="cls-16" d="M30.7,66.7c-.5,.6-1.1,1-1.4,1.7-.9,2.2-1.8,2.8-2.9,.1-.3-.8-.7-2-1.7-1.1-3.9,3.5-2.9-.6-3.5-2.2-.1-.3-.2-.7-.3-1.1,.2-.5,.5-.9,1.1-.9,3,.2,5.6,3,8.8,1.2,.4-.2,.9,.1,1.3,.5,.4,1.3-1.2,1-1.5,1.8Z"/>
      <path class="cls-41" d="M21.6,63.2c-.2,.3-.5,.6-.7,.9-1.6-.5-5.2,2.4-3.9-2.4-1.5-.9-3.4,3.7-4.4-.6,.5,0,1,0,1.5,0,1.4-2.3,3.2-2.8,4.8-.4,.8,1.1,3.5-.1,2.7,2.5Z"/>
      <path class="cls-7" d="M30.7,66.7c0-.9,1-1,1.3-1.7,1.8-.4,1.8,1.6,2.9,2.2,.6,.6,1.5,.7,1.8,1.6-3.1,2.4-4.3-.5-6-2.1Z"/>
      <path class="cls-58" d="M36.7,68.7c-.8-.2-1.6-.4-2.4-.6,1.4-1.8,3.2-2.2,5.2-1.1,0,.3,0,.6,0,.9-.7,1.1-1.9,.5-2.8,.8Z"/>
      <path class="cls-29" d="M39.5,67.1c-1.7,.4-3.5,.7-5.2,1.1-.8-1.1-1.5-2.1-2.3-3.2-2.5-1.1-2.5,1.8-4,2.3q-2.4-3.4-5-1.4c-1.2-.5-.4-2.1-1.4-2.7-2.5-.7-3.9-5.4-7.5-2.1-.9-2.9,.5-4.8,4.4-5.9,1.3,1.1,2.9,1.3,4.4,1.3,2.4-.1,3.5,1,3.9,3.1,.2,1.3,.5,2.8,1.9,2.8,2,0,2.5-2.1,3.3-3.6,1-1.8,2.2-3.4,4.6-3.4,1.3,0,2.2,.6,3,1.8,.7,1.2,1.1,3.3,2.8,3.1,1.6-.3,1.4-2.4,1.6-3.8,.4-2.3,1.3-2.8,3.2-1.4-1.2,4.8-2.5,9.6-7.6,12Z"/>
      <path class="cls-4" d="M10.3,40.1c0-1.7,0-3.3,0-5,1.2-1.7,.7-4.1,2.3-5.7,.4,.6,.8,1.2,1.2,1.8,.6,2.3,1,4.5,.3,6.9-.4,1.2-1,3.6,2.1,3.5,1.1,0,.7,1.5,.7,2.4-1.6,1.5-2.6-.3-3.8-.8-1-1-1.9-2-2.9-3.1Z"/>
      <path class="cls-62" d="M48.5,33.3c1.3-.7,2.6-1.4,3.8-2,1.7,0,1.2,1.1,1.2,2-.2,2.3-.4,4.6-.6,6.9-1.1,4.9-4.7,6.2-9,6.7-3.1,0-6.1,0-9.2-.1-3.4-.2-3.9-1.3-1.9-4.3,1-.4,2-.9,3-1.3,.2,.2,.5,.3,.5,.4,.4,1.3,0,3.6,1.8,3.5,1.7,0,1.4-2.3,1.6-3.7,.2-1.2-.5-2.5,.6-3.5,2.7-1.5,5.5-3,8.2-4.6Z"/>
    </g>
  </g>
</svg>