<?xml version="1.0" encoding="UTF-8"?>
<svg id="Capa_2" data-name="Capa 2" xmlns="http://www.w3.org/2000/svg" viewBox="0 0 61.9 75.1">
  <defs>
    <style>
      .cls-1 {
        fill: #142f43;
      }

      .cls-2 {
        fill: #558dc5;
      }

      .cls-3 {
        fill: #233d48;
      }

      .cls-4 {
        fill: #46362d;
      }

      .cls-5 {
        fill: #302219;
      }

      .cls-6 {
        fill: #312925;
      }

      .cls-7 {
        fill: #075191;
      }

      .cls-8 {
        fill: #173046;
      }

      .cls-9 {
        fill: #1c2f42;
      }

      .cls-10 {
        fill: #588bb6;
      }

      .cls-11 {
        fill: #322710;
      }

      .cls-12 {
        fill: #0f4f87;
      }

      .cls-13 {
        fill: #5689bc;
      }

      .cls-14 {
        fill: #5487b6;
      }

      .cls-15 {
        fill: #362f14;
      }

      .cls-16 {
        fill: #538697;
      }

      .cls-17 {
        fill: #444231;
      }

      .cls-18 {
        fill: #444335;
      }

      .cls-19 {
        fill: #3c4129;
      }

      .cls-20 {
        fill: #0d1f2e;
      }

      .cls-21 {
        fill: #5789ab;
      }

      .cls-22 {
        fill: #5984aa;
      }

      .cls-23 {
        fill: #13518c;
      }

      .cls-24 {
        fill: #253549;
      }

      .cls-25 {
        fill: #303a38;
      }

      .cls-26 {
        fill: #efebec;
      }

      .cls-27 {
        fill: #558cc1;
      }

      .cls-28 {
        fill: #568dc4;
      }

      .cls-29 {
        fill: #292a39;
      }

      .cls-30 {
        fill: #558ec5;
      }

      .cls-31 {
        fill: #192e42;
      }

      .cls-32 {
        fill: #3f4331;
      }

      .cls-33 {
        fill: #5378a8;
      }

      .cls-34 {
        fill: #507988;
      }

      .cls-35 {
        fill: #5b4f46;
      }

      .cls-36 {
        fill: #538db5;
      }

      .cls-37 {
        fill: #608192;
      }

      .cls-38 {
        fill: #f7d921;
      }

      .cls-39 {
        fill: #1f3245;
      }

      .cls-40 {
        fill: #1d1a1d;
      }

      .cls-41 {
        fill: #715928;
      }

      .cls-42 {
        fill: #1f1a1d;
      }

      .cls-43 {
        fill: #498cae;
      }

      .cls-44 {
        fill: #302518;
      }

      .cls-45 {
        fill: #5384b0;
      }

      .cls-46 {
        fill: #efece3;
      }

      .cls-47 {
        fill: #6a5f27;
      }

      .cls-48 {
        fill: #183b5c;
      }

      .cls-49 {
        fill: #065294;
      }

      .cls-50 {
        fill: #4f85a3;
      }

      .cls-51 {
        fill: #114765;
      }

      .cls-52 {
        fill: #478a9a;
      }

      .cls-53 {
        fill: #4d7d9d;
      }

      .cls-54 {
        fill: #1c3c5e;
      }

      .cls-55 {
        fill: #5589b6;
      }

      .cls-56 {
        fill: #fadb20;
      }

      .cls-57 {
        fill: #5b8eba;
      }

      .cls-58 {
        fill: #4f89ba;
      }

      .cls-59 {
        fill: #1a2d3f;
      }

      .cls-60 {
        fill: #518aab;
      }
    </style>
  </defs>
  <g id="Capa_1-2" data-name="Capa 1">
    <path class="cls-40" d="M37.3,74.5C18.8,77.9,2.7,66.3,.2,47.8c-1.1-8.4,1.5-15.5,8.1-21,1.6-1.3,2.3-2.2,1.4-4.5-1.9-4.9,2.1-9.5,7.5-9,3.2,.3,4.2-.9,3-3.9-.9-2.1-1.2-4.3-1.1-6.6,.2-2.7,1.5-3.3,3.7-1.9,.7,.4,1.4,1.1,2,1.7,4.7,4.4,7.5,4.4,12.2,0,.5-.5,1.2-.9,1.7-1.3,.6,.1,.9,.5,1,1.1-.2,1.5-1.4,2.4-2.4,3.4-5.4,3.8-8.4,3.5-15.2-1.6-.9,1.6,0,2.9,.5,4.2,.2,.3,.3,.6,.4,.9,.4,1,.4,2,.2,3.1-.4,1.7,.8,.8,1.5,.9,4.5,.2,5.1,.8,4.7,5.3-.2,1.9,0,4-1.3,5.7-.7,.7-1.4,.5-2.1,0-.6-.6-1-1.8-2.3-1.3-.2,0-.4,.3-.4,.5,0,1.2,1.3,.9,1.8,1.5,.2,.3,.4,.6,.3,.9-1.2,1-.6,3.9-3.4,3.4-1.6-1.2-2.2-3.1-3.2-4.6-.4-1.6,.9-2.8,.9-4.3,0-.9,0-1.8-.7-2.5-.2-.2-.4-.4-.7-.6-.8-.7-1.7-.8-2.7-.7-2.1,.2-2.9,1.5-3,3.5-.1,2.2,1,3.4,3,4,2.9,.3,4.2,2.5,5.4,4.8,.4,3.8,.3,3.9-3.7,2.8-.5-.2-.8-.7-.9-1.2-.5-3.4-2-4.1-4.9-2.1-8.2,5.6-10.1,14-7.3,23.7,.2,.7,.6,1.4,.7,2.1,.2,.8,.2,1.6,.5,2.4,.5,1.3,1.4,2.4,2.2,3.6,.5,.6,1,1.2,1.5,1.8,.5,.8,1.1,1.6,1.8,2.2,2.8,3.2,6.6,4.5,10.3,6,.5,.2,1,.4,1.5,.7,3.4,1,6.9,1.6,10.5,1.2,1.3-.1,2.7-.5,3.9,.3,.6,.8,.6,1.5,0,2.3Z"/>
    <path class="cls-42" d="M37.3,74.5c0-.7,0-1.3,0-2,.2-.5,.6-.7,1.1-.9,.8-.2,1.4-.8,2-1.2,.3-.2,.6-.3,.9-.4,3.3-1.3,6.3-3.1,8.7-5.9,2.3-1,3.3-3.2,4.6-5.1,.5-.8,1.2-1.5,1.1-2.5,0-1,.2-2,.8-2.8,1.6-2.8,2.5-5.8,2.3-9,.4-4.5-1.5-8.3-3.9-11.9-.9-1.2-1.8-2.5-3-3.5-2.1-1.9-4.3-3.4-7.1-1-.7,.7-1.1,1.7-1.9,2.3-.3,.2-.7,.2-1,0-.6-.5-.8-1.2-.8-1.9,.1-1.4,.9-2.4,1.8-3.3,1.2-.9,2.7-.9,4-1.6,2.2-1.3,3.5-3,2-5.5-.9-1.5-2.6-2-4.3-1.4-2.1,.8-2.7,2.6-2.3,4.6,.6,2.7,0,4.9-1.7,7-.6,.7-1.4,1.3-2.3,.8-1-.5-.8-1.4-.4-2.3,.3-.9,1.2-1.5,1.3-2.4,0-.4,0-.9-.3-1.3-1.4-1.2-3.3-.4-4.7-1.4-2.1-2.6-2.4-5.2-.3-7.9,1.4-.9,2.9-.9,4.4-.6,.2,0,1,.4,.3-.4-.1-.2-.2-.4-.3-.6-.5-1.7,.5-3,.9-4.5,.7-1.8,1.1-3.7,.5-5.7-.3-.3-.6-.6-1-.9,2.6-2.2,3.7-1.3,3.9,1.8,.2,2.3-.3,4.4-1.2,6.5-1.1,2.7,0,4,3,3.8,5.9-.5,9.5,3.9,7.6,9.6-.5,1.4-.6,2.3,.7,3.1,15.5,10.9,10.2,36.4-7.1,45.5-2.6,1.4-5.4,2.6-8.4,3Z"/>
    <path class="cls-30" d="M55.4,31.9c3.1,3.7,4.5,7.9,4.3,12.7-.5,3.6-2,6.8-3.7,9.9-.3,2-2.1,2.8-3.3,4.2-2,1.5-3.7,3.4-6.2,4.1-1.5,0-2.4,.9-3.2,2.1-1.9,1.6-4.3,1.7-6.6,2.5-5.1,.4-10.1,.5-15.1-.7-3.2-1.3-6.3-2.6-8.7-5.3-.5-.9-1.2-1.5-2.2-1.8-.4-.2-.8-.6-1-1-.4-1.3-1.5-1.6-2.6-1.8-1.3-.3-2.2-1-2.7-2.3C-.3,44.8,2.4,32.7,11.9,26.8c1.9-1.2,3.7-.8,5.2,0,1.6,.9,.1,2.4-.1,3.6-.4,.9-.3,2.1-1.1,2.8-.6,.7-1.4,.9-2.3,1-.3,0-.6,0-.9,0-1.2,0-1.5,.7-1.5,1.7,0,.7,0,1.3,0,2,.2,5,1.5,9.5,5.9,12.5,1.9,2.1,5.4,.6,7.1,3.1,.6,.4,1.3,.4,2,.5,3.8-.3,7.6,.6,11.3-.5,1.8-2.2,4.9-1.3,6.9-2.8,1.6-1,2.8-2.3,3.1-4.2,.1-.5,.3-1,.6-1.4,1.8-2.4,2.7-4.9,1.9-7.9-.3-3.2-4.1-2.7-5.2-5-.9-1.2-1.1-2.6-1.1-4.1,2.6-3.2,5.1-3.1,8.5,.6,.6,1.4,1.4,2.7,3,3.1Z"/>
    <path class="cls-2" d="M22.4,29c.7,0,1.8,.2,1.3-.9-.8-1.9,.5-1.9,1.6-2.2,2.1,.3,1.1,1.6,1.1,2.5,1-1-.2-2.9,1.3-3.9,.3-1.8,.6-3.6,.8-5.4,.5-5.2,.5-5.2-4.5-5.1-.8-.6-.8-1.4-.4-2.2,.5-1.1,0-1.8-.9-2.3,0-.2-.1-.5-.2-.7-.4-.9-.7-1.9-.5-2.8,.2-1,1.1-1.8,1.9-.9,3.6,4.1,8.1,2.4,12.4,2.3,.1,0,.2,0,.4,0,.4,0,.7,.3,1,.5,1.2,3.9,1,4.3-2.6,5.7-1,.4-1.9,.7-2,1.9-.2,5.9-.3,11.8,2.6,17.7,1.4-1.4,1.6-3.9,4-3.3,1.1,0,1.8,1.4,3.1,.7h0c1.5-.4,1.9,.9,2.6,1.7,.6,1.4,0,2.4-1,3.2-2.5,2.2-3.9,5-4.8,8.1-.8,2.1-1.4,4-.3,6.3,.9,1.9-.3,3.4-1.9,4.6-1,.2-2,.1-3,.1-2.1,0-4.2,0-6.2,0-1,0-2.1,0-3.1-.2-1.9-1-2.3-2.7-2.1-4.7,0-1.7,0-3.4,0-5,0-1.2,0-2.4-.8-3.3-.6-1.2-1.1-2.3-1.7-3.5-.3-.8-.5-1.7-1.6-1.9-.5-.2-.9-.4-1.3-.7-1.3-1.4-.8-2.7,.4-3.9,.4-.2,.9-.8,1.2-.7,.7,.2,.7,1.9,1.8,1,.7-.6,0-1.6-.1-2.4,.6-.6,1.2-.5,1.8,0Z"/>
    <path class="cls-28" d="M20.7,20c.8,1.9-1.6,2.8-1.4,4.5-1.3,.7-2.6,.5-3.9,0-3.2-.2-4.1-2.4-3.8-5.1,.2-2.7,1.7-4.2,4.7-3.9,.9,.8,2.2,.7,3.1,1.4h0c.7,.9,.5,2.2,1.4,3.1Z"/>
    <path class="cls-49" d="M38.6,72.3c-.4,0-.9,.2-1.3,.3-4,.5-8.1,.7-12.1,0-1.2-.2-2.6,.2-3-1.5-.2-.4,0-.8,.3-1.1,4.4-2.1,9.4-1.3,14-2.6,3.5,.8,4.1,2.2,2.1,5.1Z"/>
    <path class="cls-58" d="M20.6,70.9c-3.8-1.7-7.7-3.2-10.4-6.6-.4-.7-.6-1.5-.2-2.3,.4-.5,1-.7,1.6-.7,2.7,.6,4.6,2.5,6.7,4.1,.4,1.6,2.2,1.7,2.9,2.9,.3,1,.3,1.9-.6,2.6Z"/>
    <path class="cls-31" d="M20.6,70.9c0-1,.1-1.9,.2-2.9-.5-.8-2.2-.9-1.4-2.5,.5-.2,1.1-.1,1.6,.2,5.4,1,10.8,.5,16.2,.7,4.1-.4,4.8,.6,3.2,4.6,0,1.1-.7,1.5-1.7,1.3,.4-1.9,1.9-4.3-1.9-4.4-3.8-.2-7.6,.4-11.4,.5-1.2,0-2.1,.7-2.8,1.6,0,.3-.1,.6-.2,.9-.5,0-1,0-1.6,0Z"/>
    <path class="cls-14" d="M37.3,8c-3.2,0-6.5,0-9.7,0-2.1,0-4,0-4.2-3-1.5,1.4-.8,2.7-1.1,3.8-2-1.9-1.3-4.2-1.6-7.8,5.2,5.7,10.2,8.9,16.6,4,.9,1,.9,2,0,3Z"/>
    <path class="cls-9" d="M20.9,65.6c-.6,0-1.3,.1-1.9,.2-.4,.3-.8,.3-1.2-.2-1.9-1.3-3.8-2.5-5.8-3.8-1.6-.5-3-1.4-4.3-2.4-.8-1-2-1.6-2.7-2.8-1-.6-.7-1.5-.7-2.4,1,.5,1.9,1.1,2.9,1.6,1.1,.7,2.4,1.1,3,2.4,.3,.2,.5,.5,.8,.7,.7,.5,1.8,.7,2.2,1.6,2.6,1.7,5.1,3.4,7.7,5Z"/>
    <path class="cls-2" d="M37.3,8c0-1,0-2,0-3,.8-1,1.6-1.9,2.4-2.9,2.7,1.8,.7,3.9,.3,5.9-.9,.8-1.8,.8-2.7,0h0Z"/>
    <path class="cls-57" d="M25.3,25c-1.2-.3-3.4,1.4-3.5-1.1,0-1.9,1.8-2.3,3.5-2.3,2.4,0,.9,1.3,.8,2.2,.3,.8-.2,1.2-.9,1.3Z"/>
    <path class="cls-3" d="M25.3,25c.3-.4,.6-.9,.9-1.3,.5,.3,1,.5,1.4,.8-.3,2.5-.6,5-1,8-2.7-2.2,.5-4.8-1.3-6.6,0-.3,0-.6,0-.9Z"/>
    <path class="cls-60" d="M15.4,24.5c1.3,0,2.6,0,3.9,0,1,1.5,2,3,3,4.5-.6,0-1.2,0-1.8,0-1.5-1.8-2-4.6-5.1-4.5Z"/>
    <path class="cls-14" d="M22.5,9.5c1,.3,3.6-.7,1.7,2.1-.4,.6-.2,1.6-.3,2.4-1.3,.5-3,1.4-1.6-1.3,.5-1.1,1.1-2.1,.3-3.2Z"/>
    <path class="cls-10" d="M8.1,58.8c1.3,1,2.6,2,4,3-.6,0-1.2,0-1.8,0-.5,.5-1.1,.5-1.7,.2-.7-.3-1.2-.8-1.3-1.6-.4-.9-.4-1.7,.9-1.7Z"/>
    <path class="cls-59" d="M17.8,31.2c-.1,1.2-.9,2.5,.3,3.7-.2,.3-.5,.5-.8,.5-.3,0-.7,0-1-.3-.7-.7-.3-1.6-.6-2.4,.5-.8,.9-1.5,1.4-2.3,.2,.2,.5,.5,.7,.7Z"/>
    <path class="cls-34" d="M8.1,58.8c-.7,.3-.8,1-.9,1.7-1-1.1-2.1-2.2-2.2-3.8,1.2,.5,2.3,1,3,2.1Z"/>
    <path class="cls-21" d="M20.7,20c-2-.4-1.3-1.9-1.4-3.1,1.3,.6,1.6,1.8,1.4,3.1Z"/>
    <path class="cls-43" d="M19.4,16.9c-1.2,0-2.7,.6-3.1-1.4,1.4-.3,2.4,0,3.1,1.4Z"/>
    <path class="cls-52" d="M8.6,62.1c.6,0,1.2-.1,1.7-.2,0,.8,0,1.5,0,2.3-.9-.4-1.3-1.3-1.6-2.2Z"/>
    <path class="cls-27" d="M37.3,8c.9,0,1.8,0,2.7,0-.2,1.5-2,2.6-1.1,4.4-.3,.7,1.3,.7,.6,1.6-1.7,0-3.5,0-5.2,0-2.2,2.2-1.6,5.1-.6,7.1,1.3,2.6,1.3,5.1,1.2,8.3,.4-4.1,.9-4.4,3.7-2.5,0,.7-1.1,1.3-.3,2,.4,.4,1.1,.2,1.3-.3,.8-2,3.2-3.6,1.9-6.4-1.3-2.8-.3-5.4,2.5-6.5,2.5-1,5-.2,6.2,2.6,1.2,3.2,0,5.2-3.2,6.4-1.3,.4-2.9-.3-3.8,1.3-.9,.8-1.4,1.8-1.4,3-.6,.4,0,1.9-1.5,1.5-1.5,0-3.1-.2-3,2.1,0,.8,.3,2.1-1,2-.9,0-2.2-.9-2.3-1.6-.8-3.5-2.5-6.8-2.2-10.5,.1-1.5,0-3,0-4.4,0-2.6,0-4.9,3.4-5.3,3-.4,1.8-3,2.1-4.7Z"/>
    <path class="cls-7" d="M50.8,64.9c-2.8,2.7-5.6,5.3-9.6,6-1-2.3-.7-4.1,1.6-5.5,2.4-1.5,4.7-3.1,7.5-3.6,1.5,.9,1.2,2,.5,3.2Z"/>
    <path class="cls-39" d="M38.7,26.9c-3.4-1.7-2.9,.4-2.7,2.5,.1,1,1.2,2.6-.3,2.9-1.7,.3-1.6-1.6-1.5-2.7,.4-4.4-2.1-8.3-1.7-12.7,.1-1.2-.5-3,1.7-2.9-1.2,2.7-1.4,5.2,.7,7.5,.8,.7,1.1,1.9,2.2,2.3,.9,.6,2.1,0,3,.7,.1,1.2-1.2,1.5-1.6,2.3Z"/>
    <path class="cls-8" d="M49.9,61.8c-1.5,1.8-3.7,2.5-5.7,3.5-2.2,1.2-3.8,2.7-3,5.5-.3,0-.6,.1-.9,.2-.1-2.2,.8-5.1-3.2-4.6,2-.8,4.5-.7,6.1-2.4,.8-1.1,2.1-1.5,3.2-2,1.9-1.3,3.9-2.5,5.8-3.8,.3,.3,.4,.6,.5,.9,0,1.9-1.4,2.3-2.9,2.7Z"/>
    <path class="cls-23" d="M55.3,54.6c1.5-3.3,2.9-6.7,4.4-10,.2,3.7-.2,7.2-2.9,10.1-.5,.2-1,.2-1.5,0Z"/>
    <path class="cls-12" d="M49.9,61.8c.6-1.1,2.3-1.1,2.5-2.6,.2-.7,.7-.9,1.4-1,.6,0,1.2,.2,1.6,.7-.9,2.5-2.3,4.6-4.6,5.9,0-1.1,.3-2.3-.9-3.1Z"/>
    <path class="cls-53" d="M37.3,24.6c-2.3,0-2.2-1.5-2.2-3.1,1.8,0,3.9-.8,5,1.5-.7,.8-1.8,1.1-2.8,1.6Z"/>
    <path class="cls-1" d="M53.7,58.8c-.4,.1-.9,.3-1.3,.4,0-.3,0-.7-.1-1,.4-1.7,2.6-1.9,3-3.6,.5,0,1,0,1.5,0-.6,.7-.4,1.3,0,2-.8,1-1.9,1.6-3,2.1Z"/>
    <path class="cls-13" d="M37.3,24.6c0-2,1.6-1.5,2.8-1.6,0,.5,.2,1,.2,1.5-1,.5-2,.9-3,0Z"/>
    <path class="cls-36" d="M55.4,31.9c-2.5,.4-3.4-.7-3-3.1,1.7,.4,2.3,1.8,3,3.1Z"/>
    <path class="cls-24" d="M44.5,32.1c-.6-.5-1.3-1.1-1.9-1.6,.4-.7,.9-1.5,1.3-2.2,.6,1.2,1.2,2.4,1.8,3.7-.3,.4-.7,.5-1.2,.2Z"/>
    <path class="cls-51" d="M53.7,58.8c.8-1,1.5-2.1,3-2.1,0,1.1-.4,1.8-1.4,2.2-.5,0-1.1,0-1.6-.1Z"/>
    <path class="cls-24" d="M40.3,30.5c.5-.5,1-1,1.5-1.5,.3,.5,.5,1,.8,1.6-.2,.8-.6,1.3-1.4,1.3-.8,0-.7-.7-.9-1.3Z"/>
    <path class="cls-24" d="M43.2,25.9c.7-2.2,2.5-1,3.8-1.3-1.3,.4-2.5,.9-3.8,1.3Z"/>
    <path class="cls-2" d="M39.5,14c.2-.7-1.7-.6-.6-1.6,.9,0,1.4,.5,1.3,1.4,0,.4-.3,.6-.7,.2Z"/>
    <path class="cls-38" d="M48.5,45.9c0,.3,0,.6,0,.9-.9,1.9-2.4,3.4-4.1,4.6-3.9,1.4-6.8-.9-6.2-4.9,.1-.8,.6-1.6,.7-2.5,.7-3.1,2-5.8,4.3-8,3.7-3.4,6.3-2.6,7.5,2.3,0,2.8-.4,5.4-2.2,7.6Z"/>
    <path class="cls-6" d="M50.2,37.9c-1.2-3.9-2.9-4.4-5.9-2-2.6,2.1-3.9,5-5,8-.6,0-.9-.2-.6-.8,.2-3.4,2-6,4.5-8.1,1-.9,1.9-1.5,1.3-3,.4,0,.8-.1,1.2-.2,.7,.6,.9,1.5,2.2,1.6,2,.1,3.2,1.3,3.2,3.5,.3,.7,0,1-.8,1Z"/>
    <path class="cls-25" d="M38.7,43.1c.2,.3,.4,.6,.6,.8-.1,.7-.3,1.4-.3,2.2-.3,4.5,1.4,5.9,5.7,4.5,.8-.2,1.1,0,.9,.8-1.5,.9-2.9,1.7-4.8,1.4-1.2-.2-1.8,.4-2.1,1.5-.9,.7-1.4,.5-1.3-.7,1.1-1.3,1.5-2.5,.7-4.3-1-2.1-.6-4.3,.7-6.3Z"/>
    <path class="cls-19" d="M17,51.6c-5.1-3.1-6.8-7.9-6.6-13.6,1.5,0,1.4,1.4,2,2.2,1.1,3.7,2.5,7.2,5.7,9.7,.5,.4,.8,.9,.5,1.6-.5,.3-1,.3-1.6,0Z"/>
    <path class="cls-29" d="M17,51.6c.5,0,1.1-.1,1.6-.2,1-1,2.4-1.2,3.6-1.8,.5-.1,1,0,1.4,.3-.2,1.4,0,2.7,1,3.7,0,.8-.2,1.2-1.1,1-1.2-3.1-4.9-.9-6.6-3Z"/>
    <path class="cls-54" d="M37.3,53.7c.3,.6,.8,.7,1.3,.7-4.3,1.9-8.9,.3-13.3,.7,.2-1.7,1.5-.7,2.3-1,2.2-.2,4.4,.3,6.6-.3,1,0,2,0,3,0Z"/>
    <path class="cls-4" d="M50.2,37.9c.3-.3,.5-.6,.8-1,.7,3.4,1.2,6.7-2.4,8.9,.8-2.6,1.9-5.1,1.7-7.9Z"/>
    <path class="cls-18" d="M11.7,40.2c-.4-.7-.8-1.5-1.2-2.2,0-.7,0-1.4,0-2.2,.3-1.2,1.1-1.9,2.2-2.3,.2,0,.4,0,.6,0,.5,.2,1,.4,.9,1.1-1.2,1.7-1.1,4-2.6,5.5Z"/>
    <path class="cls-17" d="M45.5,51.5c-.3-.3-.6-.6-.9-.8,1.4-1.2,2.1-3.1,3.8-3.9,0,2.2-1.4,3.5-3,4.7Z"/>
    <path class="cls-22" d="M10.2,58.3c-1.2-.5-2.4-1-3-2.4,1.6,0,3.4-.2,3,2.4Z"/>
    <path class="cls-55" d="M46.5,62c-.7,1.2-1.9,1.6-3.2,2,0-2.5,1.7-2,3.2-2Z"/>
    <path class="cls-11" d="M14.2,34.3c-.3-.2-.6-.4-.8-.7,.7-.4,1.8,.2,2.3-.9,.8,.5,.6,1.3,.7,2.1-1,.9-1.6,.5-2.2-.5Z"/>
    <path class="cls-33" d="M12.7,33.5c-.7,.8-1.5,1.5-2.2,2.3-.4-1.9,.4-2.5,2.2-2.3Z"/>
    <path class="cls-48" d="M27.7,54.4c-.8,.1-1.8,0-2.4,.7-.7,.1-1.3,.2-1.7-.5,.4-.3,.7-.6,1.1-1,.9,0,1.9,0,2.8,0,.2,0,.3,.2,.3,.4,0,.2,0,.3-.1,.3Z"/>
    <path class="cls-16" d="M13.3,60.6c-.9-.3-1.8-.7-2.2-1.6,1.2,0,2.3-.1,2.2,1.6Z"/>
    <path class="cls-32" d="M16.9,35.1c.4,0,.8-.1,1.1-.2,.4,0,.8,0,1.2,.1,.8,.5,.9,1.5,1.5,2.1,.8,1.1,1.8,2.1,1.7,3.6,.3,.9,1.9,1.7,0,2.6-2.8-2.2-4.2-5.3-5.7-8.4Z"/>
    <path class="cls-15" d="M23.7,49.9c-.4,0-.8,0-1.3,0-1.2-1.7-.2-3.4,0-5.1,.3-.6,.6-1,1.3-.9,.3,2,.3,4,0,6Z"/>
    <path class="cls-20" d="M27.7,54.4c0-.2-.1-.4-.2-.6,2.3,0,4.5,0,6.8,0-2.1,1.3-4.4,.4-6.6,.6Z"/>
    <path class="cls-35" d="M23.7,44c-.3,.3-.6,.5-.9,.8-1-.2-1-.8-.5-1.5,1.2-.7,0-1.6,.2-2.4,1.6,.6,1.2,2,1.2,3.2Z"/>
    <path class="cls-37" d="M20.8,37.1c-.9-.4-1.4-1.1-1.5-2.1,1.5,0,1.7,.9,1.5,2.1Z"/>
    <path class="cls-45" d="M22.4,70c0-1.1-.9-2.9,1.3-2.7,4.3,.4,8.7-.7,12.9,.6-4.6,1.5-9.4,1.7-14.2,2.1Z"/>
    <path class="cls-50" d="M17.9,65.7c.4,0,.8,.1,1.2,.2,.5,.8,2,.8,1.8,2.1-1.6,0-3.3,.2-3-2.3Z"/>
    <path class="cls-56" d="M22.3,43.2c.2,.5,.4,1,.5,1.5,.1,1.8,0,3.5-.4,5.3-.9,1.3-2.2,1.7-3.7,1.4-4.2-2.6-6.1-6.6-7-11.2,.2-2.3-.1-4.7,2.5-5.9,.7,.2,1.4,.4,2.2,.5,.1,.2,.3,.2,.5,.2,2.5,2.3,4.3,5,5.4,8.2Z"/>
    <path class="cls-44" d="M47.6,39.6c.6,2.8-.3,5.2-2.3,7.1-.7,.6-1.6,1.4-2.7,.8-1-.5-1.3-1.5-1.2-2.6,.3-2.1,.5-4.2,2.5-5.6,.3-.2,.6-.3,.9-.1,.7,.4-.4,1.8,1.1,1.7,.6-.5,.7-1.6,1.7-1.4Z"/>
    <path class="cls-41" d="M45,39.5c-.4,0-.7,0-1.1-.1,1.3-1.6,2.5-2,3.7,.2-.7,.6-.2,1.8-1.1,2.2-1.1-.4-1-1.5-1.5-2.3Z"/>
    <path class="cls-5" d="M17.9,39.4c1.1,.5,1.7,1.5,1.9,2.6,.5,1.9,1.9,4.6-.8,5.5-2.3,.8-3.5-1.7-4.4-3.6-.6-1.4-.8-2.8-.4-4.3,1.1-.1,1.2,.9,1.8,1.5,1.2,0,.3-1.4,1-1.7,.3-.1,.6,0,.9,.2Z"/>
    <path class="cls-47" d="M15.3,41.6c-.4-.7-.7-1.4-1.1-2.1,1.1-2.2,2.4-1.6,3.6-.1-.3,0-.6,.2-.9,.2-.8,.5-.5,1.8-1.6,1.9Z"/>
    <path class="cls-26" d="M45,39.5c2-.2,1.3,1.3,1.5,2.3-.5,.7-1,1.8-1.9,1.1-1.2-1.1-.6-2.3,.4-3.4Z"/>
    <path class="cls-46" d="M15.3,41.6c.2-.9-.3-2.4,1.6-1.9,0,1.1,1.8,2.2,.4,3.2-1.1,.8-1.5-.6-2.1-1.3Z"/>
  </g>
</svg>