<?xml version="1.0" encoding="UTF-8"?>
<svg id="Capa_2" data-name="Capa 2" xmlns="http://www.w3.org/2000/svg" viewBox="0 0 75.2 69.4">
  <defs>
    <style>
      .cls-1 {
        fill: #c2904a;
      }

      .cls-2 {
        fill: #cfcddb;
      }

      .cls-3 {
        fill: #ceab6f;
      }

      .cls-4 {
        fill: #be944a;
      }

      .cls-5 {
        fill: #ccc9d8;
      }

      .cls-6 {
        fill: #cf8f6a;
      }

      .cls-7 {
        fill: #45372c;
      }

      .cls-8 {
        fill: #f4f2f3;
      }

      .cls-9 {
        fill: #ebe6e6;
      }

      .cls-10 {
        fill: #3e3323;
      }

      .cls-11 {
        fill: #3c302b;
      }

      .cls-12 {
        fill: #bd2b18;
      }

      .cls-13 {
        fill: #d3b379;
      }

      .cls-14 {
        fill: #341f18;
      }

      .cls-15 {
        fill: #ea590e;
      }

      .cls-16 {
        fill: #f6f5f5;
      }

      .cls-17 {
        fill: #cecbdc;
      }

      .cls-18 {
        fill: #bf2b18;
      }

      .cls-19 {
        fill: #534232;
      }

      .cls-20 {
        fill: #cfb178;
      }

      .cls-21 {
        fill: #e8e3e3;
      }

      .cls-22 {
        fill: #ad8e9d;
      }

      .cls-23 {
        fill: #f7ccc0;
      }

      .cls-24 {
        fill: #ba914e;
      }

      .cls-25 {
        fill: #bd904c;
      }

      .cls-26 {
        fill: #f9f7f8;
      }

      .cls-27 {
        fill: #504633;
      }

      .cls-28 {
        fill: #251916;
      }

      .cls-29 {
        fill: #d2b9c9;
      }

      .cls-30 {
        fill: #28201f;
      }

      .cls-31 {
        fill: #46352d;
      }

      .cls-32 {
        fill: #fcfcfc;
      }
    </style>
  </defs>
  <g id="Capa_1-2" data-name="Capa 1">
    <g>
      <path class="cls-28" d="M16.9,10.1C17.9,3.4,21.7,0,28.2,0c1.6,0,2.3,.8,2.6,2.1,.4,1.8,.8,3.6,1.2,5.5,2.7-2.8,10.3-1.9,12.7,1.5,.4,.6,.2,1.5,1.5,1.7,6,.9,9.2,4.4,8.9,10.7,0,.3,.2,.7,.5,1.4,1.9-1.5,3.6-2.8,5.3-4.2,2.1-1.7,3.5-1.2,4.7,1.1,2,4.1,3.2,8.4,3.8,12.8,.2,1.4,.2,2.9,1.4,4.1,4.6,4.8,5.3,10.6,3,16.6-2.4,6.1-7.4,9-13.7,9.2-2.5,0-4.4,.8-6.5,2-19,11.2-43.2,1.3-49.1-19.9C3,39.4,.4,34.3,0,28.6c-.2-3.4,2-8.5,5.2-9.3,2.4-.6,1.8-1.6,1.8-3-.1-3,4-7.5,6.8-7.8,1.4-.1,1.8,1.2,3,1.7Z"/>
      <path class="cls-13" d="M22.1,4.5q6-2.5,7.5,3.8c.5,2.1,1,4.1,1.5,6.2,.2,.7,0,1.7,.9,1.8,1.2,.2,1.2-1,1.5-1.7,.4-1,1-2.1,1.1-3.1,.2-3.1,2-3.2,4.3-2.5,2.1,.6,4.3,1.1,2.8,4.1-.2,.3-.1,.7-.1,1.1,0,1.4-1.5,3.3-.2,4.1,1.8,1,2.1-1.5,3-2.5,2.1-2.3,6-1.9,7.4,.9,2.2,4.5,1.1,10.3-2.8,13.9-1.6-1-1.7-2.9-2.4-4.7-2.6,2.1-5.2,4-7.7,5.9-.8,.7-1.6,1.4-2.4,2-1.7,1.2-3.3,2.6-5.3,3.8,2.1,.6,2.5,2.4,2.9,4.2,.4,2.3,1.4,2.3,3.4,1.8,1.9-.5,3.9-2.6,6-.5-1.6,2.7-2.3,5.5-2.1,8.6-1.1,1.4,.8,3.7-1.4,4.8-1.3-.6-2.5-1.1-3.8-1.7-3.2-.9-5.9-.6-8.1,2.2-1.1,1.4-2.7,2.6-4.7,2.7-5.8-1.2-8.5-5.7-11.3-10.1-.3-.5,0-.9,.5-1.2,3-.8,6.1-1.4,9.3-1.2,1.9,.2,2.8-.5,2-2.5-.6-1.5-1.3-2.9-.5-4.5-2-1.2-4.2-1.1-6.3-2-3.9-1.4-8.2-1.6-11.4-4.6-1.1-2.6-2.6-5-2.6-8,2.5-3.8,2.4-3.8,5,0,.8,1.1,1.1,3.5,2.8,2.8,1.6-.6,.3-2.6,0-4-.4-2.3-.7-4.7-1.2-7-.5-2,.5-3.2,1.9-4.5,1.4-1.2,2.6-1.3,3.6,.4,.4,.8,.9,1.5,1.3,2.2,.4,.7,.7,1.8,1.8,1.6,1.1-.2,.9-1.4,1-2.1,.3-1.2,.3-2.5,.4-3.7,.8-2.2,.3-4.8,2.2-6.6Z"/>
      <path class="cls-15" d="M43.1,50c.8-.9,.7-2,.7-3,.9-.8,.1-2.4,1.5-2.9,.9-.4,1.1-1.3,1.6-2,1.1-1.5,2.2-1.7,2.9,.3,.6,1.5,1.4,2.4,3.1,1.5,1.4-.8,3.4-2.1,2.5-3.6-2.6-4.4,.6-4,3.1-4.4,1.7,.2,3.4,.4,5.1,.5,.9,.2,1.9,.2,2.6,1,4.6,4,5.8,10.5,3,15.5-2.7,4.7-8.6,6.7-14.4,4.8-1.7-.5-3.3-1.2-4.7-2.3-.8-.3-1.1-1.9-2.4-.8-.6,1.3-1.5,2.3-3.2,1.9-2-.5-1.4-2.4-1.9-3.7,0-1-.4-2,.4-2.9Z"/>
      <path class="cls-18" d="M50,54.5c3,1.3,5.9,3.1,9.4,3,8.7,0,13.2-9.3,8.6-17.3-.5-1-1.1-1.9-1.7-2.9,2.1,.1,3.4,1.4,4.4,3,2.6,4,2.2,11.3-.8,15.4-2.5,3.5-8.8,5.5-13.4,4.4-.7-.2-1.4-.4-2.2-.5-3.4-.7-4.6-2.1-4.4-5Z"/>
      <path class="cls-1" d="M12.4,48.6c3.3,4,6.1,8.5,11.3,10.5,.2,.2,.2,.4,.1,.5,0,.1-.2,.2-.3,.2-2.3,2.9-4.3,1.9-6.7-.2-7-5.9-9.7-13.9-12-22.3-.6-1.3-.6-2.5,1.2-2.8,2,.3,2.3,2.1,2.6,3.6,.4,1.7,.8,3.3,1.3,5,.4,1.5,.9,2.9,1.9,4.1,.3,.4,.5,.9,.5,1.4Z"/>
      <path class="cls-3" d="M34.7,55.4c1.6,1.9,5.3,.9,6,4.2-2.3,4.9-8.9,6.6-13.4,3.3-.9-.8-2.8-.4-2.9-2.2,1.5-2.5,3.9-4.1,5.9-6,1.5-1.4,3.2-1,4.4,.7Z"/>
      <path class="cls-20" d="M63.4,31.2c-1.6-5.1-1.9-5.2-5.8-1.6-2.7,2.5-4.9,5.5-9.2,6.2,3.3-6,8.1-10.4,13.3-14.4,1.8-1.4,2,.3,2.2,1.5,.6,1.6,.7,3.3,.9,5,.1,1.3,.4,2.8-1.5,3.2Z"/>
      <path class="cls-23" d="M57.9,36.4c-1.1,0-2.3,0-3.1,1.1,1.1,1,3,1.6,1.9,3.8-1.1,2.3-2.8,3.9-5.4,4-2.5,0-1.9-2.4-2.6-3.9-1.8,.5-1.8,3.1-3.8,3.3,0-.6,0-1.1,.4-1.5,2.5-4.4,5.8-7.6,11.2-7.6,.8-.3,1.5-.6,1.4,.8Z"/>
      <path class="cls-29" d="M41.6,60.5c.7,.1,1.4,.2,2.1,.3,1.2-.6,2.6-.8,3.8-1.6,2.9-1.9,4.8-.9,6.1,2.8-5,2.5-9.9,5-15.7,4.5-.8-.5-1.1-1.3-1-2.3,1.1-1.8,3-2.7,4.8-3.7Z"/>
      <path class="cls-14" d="M53.6,62c-1.7-1.9-2.9-5.1-6.1-1.6-.9,1-2.4,1.3-3.7,.4,0-.6,0-1.2,0-1.8,.1-.1,.2-.3,.3-.4,2.6-.9,3.2-3.1,3.5-5.5,1.6-.9,2.2-.2,2.4,1.4,.7,2.3,2.3,3.9,4.4,5-.1,.9,.2,1.9-.8,2.5Z"/>
      <path class="cls-10" d="M43.7,42.8c-3.5,0-6.5,2.1-10.3,2.6,.7-1.8,0-3.4-.4-5.1-.6-3.2-2.3-1.6-4.1-.9,2.1-3.1,4.8-4.9,7.5-6.6,.7,.3,1.1,.8,.8,1.6-1,1.4-3.3,2.1-2.4,4.5q1.5,3.5,6.5,1.8c.9-.2,1.8-.6,2.5,.2,0,.6,0,1.2-.1,1.8Z"/>
      <path class="cls-8" d="M43.8,41c-.7,.2-1.5,.4-2.2,.5-.2-.3-.4-.6-.4-.9,.3-1.2,1.1-2.2,1.4-3.4,.6-3.2-.3-7.2,4.7-7.8,1,.3,.6,1.3,1,1.9-1.5,3.2-3,6.4-4.4,9.6Z"/>
      <path class="cls-14" d="M41.6,60.5c-1,1.9-3,2.6-4.5,3.9-2.2,2.3-4.8,1.4-7.3,.7-1.3,.4-2.7,.4-3.6-.6-.6-.7,.8-1,1-1.6,5.2,1.6,9.7,.7,13.4-3.3,.3,.3,.6,.6,.9,1Z"/>
      <path class="cls-7" d="M48.2,31.4c-.3-.5-.5-1.1-.8-1.6-3.3-2.7-3.1,.9-4.1,2.3-.4,.6-1,1-1.8,.8,0-1.7-.9-1.7-2.2-1.1-.4-.1-.7-.3-.9-.6,3.1-2.5,6.2-5.1,10.1-8.2-1.1,3.2-.2,5.4,.6,7.5-.3,.3-.6,.6-.9,.9Z"/>
      <path class="cls-25" d="M63.4,31.2c1.4-2.7,.2-5.5,.7-8.2,1.6,2.4,2.1,5.2,2.7,8,.3,1.2,1.1,3.1-.4,3.5-2,.5-3.1-1.1-2.9-3.2Z"/>
      <path class="cls-14" d="M34.7,55.4c-2.1-1.3-3.7-.5-5.2,1-1.6,1.6-3,3.4-5.1,4.3-.3-.3-.6-.6-.9-1,0-.2,0-.4,.1-.7,1.5-1.3,3.2-2.4,4.5-3.8,2.6-2.7,5.2-3.2,8.1-.7-.7,0-1.2,.2-1.5,.9Z"/>
      <path class="cls-24" d="M6.6,34.9c-1.6,0-1.8,1.1-1.8,2.4-1.5-3.9-3.3-7.8-1.6-12.1,1,2.6,2.1,5.1,3.1,7.7-.9,.8,.4,1.4,.3,2.1Z"/>
      <path class="cls-22" d="M29.8,65.1c2.4-.1,4.9,.2,7.3-.7,.2,.7,.5,1.4,.7,2.1-2.8,.4-5.7,1-8-1.4Z"/>
      <path class="cls-4" d="M22.1,4.5c-.4,2.3-1,4.5-2.2,6.6,.4-2.3-1.9-5.5,2.2-6.6Z"/>
      <path class="cls-14" d="M43.1,50v3.1c0,2,1.5,3.8,.7,5.8,0,0-.1,.1-.1,.1-2.8-2.8-1.6-6-.6-9.1Z"/>
      <path class="cls-6" d="M57.9,36.4c-.5-.3-.9-.5-1.4-.8,2.5-1.2,4.8,0,7.2,.6-1.9,0-3.9,.1-5.8,.2Z"/>
      <path class="cls-14" d="M40.1,56.2c2-1.1,.1-3.4,1.4-4.8,0,1.3,0,2.7,0,4,0,.9-.5,1.4-1.4,.8Z"/>
      <path class="cls-14" d="M45.3,43.3c-.1,.5-.3,1-.4,1.5,.2,1,0,1.8-1.1,2.2,0-1.5-.2-3,1.5-3.7Z"/>
      <path class="cls-11" d="M12.4,48.6c-.3-.2-.6-.5-.9-.7-.3-.6,.1-1,.6-1.3q4.9-.9,3.5-5.9c-.2-.6-.3-1.2-.3-1.8,0-.4,.1-.7,.3-1.1,.5-.7,1.2-1,2-.4,2.7,.7,5.7,.5,8.1,2.3-1.5,.4-3,.9-3.5,2.7-.1,1.2,0,2.5,.4,3.6,.2,.6,.5,1.2,.2,1.9-3.5,.3-6.9,.6-10.4,.9Z"/>
      <path class="cls-30" d="M38.5,31.2c.4,0,.8,.1,1.1,.2-.3,2,.7,2.1,2.2,1.4,.4-.3,.8-.5,1.2-.8,.9,2,.5,4,.3,6-.2,1.2-.8,2.1-1.7,2.8-2.8,.7-3.5-1.5-4.4-3.3-.3-1.1-.9-2.1,0-3.2-.2-.5-.5-1-.7-1.5,.7-.5,1.4-1.1,2.1-1.6Z"/>
      <path class="cls-31" d="M17.6,37.2c-.7,0-1.3,.2-1.6,.9-1.6,.5-2.9-.4-4.3-.8-1.4-.4-1.8,.2-1.5,1.5,.2,1.4,.9,2.8,.5,4.2-.2,.5-.5,1-1.2,.9-1.9-2.7-1.3-6.2-2.8-9-.5-.8-2.1-.4-2-1.6,0-.9,1.1-.5,1.7-.5,3.5,2.2,7.6,2.6,11.3,4.4Z"/>
      <path class="cls-27" d="M21.4,41.9c.6-2.4,2.5-2.4,4.3-2.4-2.7,1-1.7,2.6-.9,4.4,.9,2,1.7,4.2-2,3.8-.2-.4-.5-.8-.7-1.3,1.5-1.8,0-3.1-.7-4.5Z"/>
      <path class="cls-12" d="M43.9,58.9c-.7-1.9-1.2-3.8-.7-5.8,1,.7,0,2.9,2.2,2.9,2.1,0,.9-2.4,2.2-2.9-.4,2.5,1.7,6.5-3.7,5.8Z"/>
      <path class="cls-19" d="M9.4,44c.2-.2,.4-.5,.7-.7,2.1,.5,2.4,2,2.2,3.7-.3,.3-.5,.6-.8,.8-1.3-1-1.9-2.3-2.1-3.9Z"/>
      <path class="cls-16" d="M37.8,37.3c.9,1.5,1.7,3.2,3.7,3.6,0,.2,0,.5,0,.7-.6,.2-1.1,.5-1.7,.7q-4.6,1.5-5.8-3.3c.4-2.6,1.9-2.6,3.8-1.7Z"/>
      <path class="cls-5" d="M37.8,37.3c-1.6-.1-2.8,.4-3.8,1.7-1.7-3.3,1.1-3.7,3.1-4.6,.2,1,.5,2,.7,3Z"/>
      <path class="cls-17" d="M43.2,38c.1-2,.3-4-.3-6,0-.6,0-1.2,0-1.8,0-1.7,1.5-2.7,2.7-3,1.6-.3,1.1,1.7,1.7,2.6-2.8,1-4,2.9-3.5,5.9,.1,.8,.1,1.7-.6,2.3Z"/>
      <path class="cls-9" d="M41.8,32.8c-.5,1.2-.9,2.8-2.8,1.6-2.1-1.4,.1-2.1,.6-3,1.7-1,2.4-.6,2.2,1.4Z"/>
      <path class="cls-32" d="M12.3,47c-.7-1.2-1.5-2.5-2.2-3.7-.2-1.5-.5-3-.7-4.5,2.2-1,4.3-.2,6.5,0,.9,2.5,1.8,5,3,8.2h-6.5Z"/>
      <path class="cls-2" d="M15.9,38.8c-2.2,1.5-4.3,.4-6.5,0-.5-.9-1.2-1.9-.6-2.7,.8-1,1.8,.1,2.7,.4,1.5,.5,3,1.1,4.5,1.7,0,.2,0,.4-.1,.7Z"/>
      <path class="cls-26" d="M21.4,41.9c2.2,.4,2,2.5,2.5,3.9,.2,.5-1.2,.4-1.9,.6-1.3-1.3-.2-3-.7-4.5Z"/>
      <path class="cls-21" d="M18.3,38.4c.8,.5,2.3,0,2.2,1.6,0,.7-.5,1.6-1.3,1.4-.9-.2-1.4-1-1.6-1.9-.1-.6-.1-1.2,.8-1.1Z"/>
    </g>
  </g>
</svg>