<?xml version="1.0" encoding="UTF-8"?>
<svg id="Capa_2" data-name="Capa 2" xmlns="http://www.w3.org/2000/svg" viewBox="0 0 99.5 142.6">
  <defs>
    <style>
      .cls-1 {
        fill: #263665;
      }

      .cls-2 {
        fill: #15508b;
      }

      .cls-3 {
        fill: #3867ad;
      }

      .cls-4 {
        fill: #20518d;
      }

      .cls-5 {
        fill: #c5a017;
      }

      .cls-6 {
        fill: #203b6d;
      }

      .cls-7 {
        fill: #c6a00f;
      }

      .cls-8 {
        fill: #3a6fb2;
      }

      .cls-9 {
        fill: #1164a8;
      }

      .cls-10 {
        fill: #3a68ac;
      }

      .cls-11 {
        fill: #615d68;
      }

      .cls-12 {
        fill: #346eb2;
      }

      .cls-13 {
        fill: #15528f;
      }

      .cls-14 {
        fill: #fecb09;
      }

      .cls-15 {
        fill: #19467f;
      }

      .cls-16 {
        fill: #3e63a9;
      }

      .cls-17 {
        fill: #0e62a6;
      }

      .cls-18 {
        fill: #115999;
      }

      .cls-19 {
        fill: #3b60a7;
      }

      .cls-20 {
        fill: #3d5ea4;
      }

      .cls-21 {
        fill: #346cb2;
      }

      .cls-22 {
        fill: #3073b7;
      }

      .cls-23 {
        fill: #253361;
      }

      .cls-24 {
        fill: #fecb0b;
      }

      .cls-25 {
        fill: #c5a012;
      }

      .cls-26 {
        fill: #3a64aa;
      }

      .cls-27 {
        fill: #0b62a2;
      }

      .cls-28 {
        fill: #346cb1;
      }

      .cls-29 {
        fill: #126fb2;
      }

      .cls-30 {
        fill: #336ab0;
      }

      .cls-31 {
        fill: #1d4279;
      }

      .cls-32 {
        fill: #1662a3;
      }

      .cls-33 {
        fill: #0e6aac;
      }

      .cls-34 {
        fill: #c19f1a;
      }

      .cls-35 {
        fill: #1e4075;
      }

      .cls-36 {
        fill: #125391;
      }

      .cls-37 {
        fill: #194a85;
      }

      .cls-38 {
        fill: #115a9a;
      }

      .cls-39 {
        fill: #233665;
      }

      .cls-40 {
        fill: #336fb3;
      }

      .cls-41 {
        fill: #3965ac;
      }

      .cls-42 {
        fill: #105e9d;
      }

      .cls-43 {
        fill: #195796;
      }

      .cls-44 {
        fill: #3867ac;
      }

      .cls-45 {
        fill: #0e5d9e;
      }

      .cls-46 {
        fill: #3866ac;
      }
    </style>
  </defs>
  <g id="Capa_1-2" data-name="Capa 1">
    <g>
      <path class="cls-41" d="M39.4,59.8c.7-.8,1.4-1.6,2.1-2.4-.3-1.2,.7-1.5,1.3-2.1,1.9-1.2,3.7-2.4,5.2-4.1,2.2-2,4.9-3.4,7.4-4.8,.7-.2,1.4-.2,2,.1,2,1.4,.8,2.7-.1,4.1-1,1.6-2.3,3.2-1.7,5.4-.2,.3-.3,.7-.6,.8-8.2,3.4-8.8,10.7-9.2,18.1-.2,3.6-.8,7.2-1.2,10.8-.6,4.4,1.3,5.7,5.1,5.8,2.3,0,4.6,.4,6.9,.9,1.6,.2,3.2,.1,4.6,1.1,.4,.4,.5,.9,.4,1.5-3.3,1.5-7,2.2-9.8,4.7-4.8-.3-9.7,0-14.5-1.3-3-2.5-2.2-5.9-2.2-9.1,0-2.6,1.1-4.9,1.1-7.5,1.5-7.2,.3-14.9,3.2-21.9Z"/>
      <path class="cls-22" d="M73.5,7.8c6.8,1.4,13.5,2.9,20.4,4.1,2.5,.4,2.6,2,2.8,3.9,.8,8.2,1.3,16.5,2.6,24.6,1,6.5-1.2,11.1-6,15-3.2,2.5-6.4,5-9.7,7.5-4.2-.3-1-3.9-2.5-5.5,2-3.4,5.6-5.1,8.3-7.8,2.7-1.9,3.5-4.3,3-7.7-1-6.8-1.9-13.7-2.3-20.6-.2-3.4-1.6-5.1-4.9-5.6-3.6-.6-7.2-.8-10.4-2.9-1.6-1.4-3-2.7-1.3-5Z"/>
      <path class="cls-12" d="M81.6,57.8c2.6,.9-1,4.3,2,5.1-2,3.1-5.2,5.1-7.9,7.1-2.7,2.1-3.2,4-3.2,6.8,0,7.6-.2,15.2-.4,22.8-1.1,1-2.3,1.1-3.6,.5-1-4.3-1.5-5.6-3-7.4-.4-7.6,.6-15.2,.8-22.8,3.7-5.8,8.7-9.9,15.2-12.2Z"/>
      <path class="cls-40" d="M74.6,107.3c4.1,6.7,5.8,14.5,8.9,21.6,.4,.9,.3,2-.8,2.5-6.4,1.7-12.9,3.2-19.6,3.5-4.9-1.4-5.8-2.6-4.6-6,3.9-2.2,8.3-2.1,12.5-3.3,3.1-.1,4-1.3,2.7-4.4-1.7-3.9-3.4-7.8-4.2-12,0-.5,0-.9,0-1.4,.6-2.1,1.5-3.6,3.1-.9,.9,1.4,1.2,1.2,2.1,.3Z"/>
      <path class="cls-20" d="M5.5,14.9c5.9-4,12.4-6.9,18.8-9.9,3.7-.9,2.4,1.6,2.3,3.3-3.3,2.4-6.7,4.5-10.2,6.6-1.3,.8-3.2,1.1-2.7,3.4,1.2,4.5,5.6,7.6,5.5,12.7-.1,1.1-.5,2.3,.2,3.4,.7,1.1,2.2,2,1.1,3.4-1.1,1.5-2.7,.6-4.1,.1-1.4-.7-1.9-2-2.6-3.2-.7-1.2-1.4-2.4-2-3.6-.8-1.6-1.3-3.3-2.1-5-1.3-2.9-2.7-5.7-4-8.6-.4-.8-.8-1.7-.2-2.6Z"/>
      <path class="cls-45" d="M68.4,99.7c1.2,0,2.5,0,3.7,0-.2,.7-.4,1.3-.6,2-2.5,3.6-6,2.3-9.3,1.9-1.2-.5-2.4-1.6-3.6-1.3-6.7,1.2-13.1-2-19.9-.8-5.9,1-7.7-.7-8-5.4,.5-1.3,.7-3.2,2.5-3.2,1.4,0,1.9,1.6,2.5,2.7,.4,.9,1,1.7,1.9,2.2,5-.2,10,.2,15,1,5.5-2.6,10.7-1,16,1Z"/>
      <path class="cls-21" d="M61.4,102.7c3.4-.2,6.9,.7,10.1-1,2.3,1.2,2.5,3.5,3.1,5.6-.4,.8,.3,1.9-.7,2.6-.5-.9-2.3-.1-2.2-2.3,.2-2-1-1.5-1.3,.2-6.6,3-16.7,1.6-21.1-4,4-1.3,7.9-2.8,12.1-1Z"/>
      <path class="cls-29" d="M39.4,59.8c0,7.4-.8,14.7-2,22-.8,1.1-.6,3.3-2.6,3.1-2-.2-2.4-2-2.6-3.7-.1-1.1-.1-2.3-.2-3.4,0-2.2,0-4.5,.4-6.7,.5-1.9,1.2-3.6,1.8-5.4,1.7-2,3.4-3.9,5.1-5.9Z"/>
      <path class="cls-10" d="M35.5,0c6.9,.9,13.8,1.1,20.1,4.7,.7,.4,1.9,.2,2.9,.2,.5,.8,2.2,.4,2,1.8-.2,1.8-1.8,2.2-3.3,2.5-6.7-.4-13.3-1.6-19.6-3.8-1.8-1.4-.8-3.8-2.1-5.4Z"/>
      <path class="cls-1" d="M72.2,137.5c-.6,0-1.2,.1-1.8,.2-1.6,.8-3.2,.3-4.8,.4-3-1.2-6.8,.8-9.3-2.4,1.1-3.9,4.5-.2,6.3-2,5.6,0,10.9-1.8,16.4-2.5,1.3-.1,2.5-.8,3.7,.2-1.6,1.7-3.2,3.4-4.9,5.1-1.7,1.5-3.8,.1-5.6,1Z"/>
      <path class="cls-15" d="M6.5,17c1.7,2.8,3.1,5.8,4,8.9,.3,4.8-3.6,3.5-6.1,4.2-.8-.6-1.3-1.4-1.8-2.2-1.3-2.6-3.6-4.8-2.2-8.1,.3-1,1-1.7,2-2.1,1.9,2.7,2.9,.6,4.1-.8Z"/>
      <path class="cls-8" d="M57.2,8.2c2.4-.3,3.4-1.2,1.2-3.2,5.1,.5,10.2,1.4,15.1,2.9-.6,2,.8,3,1.9,4.3-6.6,1.2-12.7,0-18.2-3.9Z"/>
      <path class="cls-16" d="M35.5,0c2.5,.6,1.5,2.8,1.9,4.3-3.7,.9-6.7,4.1-10.9,3.5-1-.7,.1-3-2.1-2.8C27.7,2.6,30.9-.3,35.5,0Z"/>
      <path class="cls-37" d="M26,110.6c.2-.3,.5-.6,.7-.9,2.3,2.4,5.9,.8,8.4,2.7,1.2,1.5,2.4,3,1.7,5.1-3.4,2.2-6.4,1.5-9.2-1.1-.8-.8-1.5-1.8-1.8-3-.3-1,.2-1.9,.2-2.8Z"/>
      <path class="cls-4" d="M34.4,112.7c-2.7-.5-6.2,.8-7.7-2.9-.2-1.4,.7-2.3,1.7-3.1,.8-.8,1.2-2,2.4-2.4,.5,0,.9,.2,1.3,.6,1,2.5,3.6,4.6,2.3,7.8Z"/>
      <path class="cls-11" d="M29.4,74.5c.7,2.4-.9,5.1,1.1,7.3,1.8,3.4,.9,7.1,1.5,10.7,0,.7,0,1.5-.2,2.2-.8,.6-.6,2-1.8,2.3-1.2-.4-1.5-1.5-1.8-2.5-.5-3.3-.4-6.5,0-9.8,.5-3.4-.4-6.9,1-10.2Z"/>
      <path class="cls-35" d="M6.5,17c0,.2,0,.4,0,.5-1,1.3,.8,3.9-1.2,4.1-2.3,.3-2.3-2.2-2.8-3.9,.8-1.2,1.7-2.3,3.1-2.9,.3,.7,.6,1.4,1,2.1Z"/>
      <path class="cls-14" d="M18.8,30.8c-1.2-4.7-5.2-7.9-6.3-12.6-.6-1,0-1.6,.8-2,4.2-2.1,8-4.6,12.1-6.9,3.8-2.1,7.6-2.5,11.9-1.5,14,3.2,28.2,6,42.3,8.8,7.8,1.5,8.5,2.6,9.3,10.3,.5,4.9,.8,9.9,1.5,14.8,.5,3.1,.8,6.3-1.1,9.1-2.6,2.3-5.2,4.6-7.8,6.9-4.7,3.6-9.3,7.3-14,10.9-3.4,5.1-3.3,10.9-3.6,16.6-.4,7.6-.3,7.6-7.4,8-1.4,.9-2.4-.6-3.7-.7-3.3-.2-8.1,.7-9.3-1.6-1.4-2.7,0-7,.4-10.5,.4-4.3,1.4-8.5,1.4-12.8,0-4.9,1.9-8.1,6.4-10.1,1.5-.6,2.6-2,3.9-3,.7-2.2,2.1-3.7,4.2-4.5,1.4-.5,2.6-1.4,3.9-2.2,10.2-6,10.9-10.1,3.6-20.2-6.3-1.2-12.6-.4-18.9-.3-3.5,.9-4.2,3.7-4.5,6.7-.2,2.2,.4,4.6-1.7,6.3-4.5,1.5-9.1,.4-13.7,.7-5.8-.6-7.7-2.7-9.6-10.5Z"/>
      <path class="cls-28" d="M69.1,27c1.1,2.9,1.8,6.1,3.3,8.8,2.9,5.4,.4,8.4-4.1,11-4.3,2.5-8.5,5.3-12.7,8-2.5-2.4,.7-3.7,1.4-5.4,.4-1,1-1.7,.5-2.8,0-2,1.7-2.5,2.8-3.6,2.5-2.5,7.1-4.3,3.4-9.1-.9-.8-2-1-3.1-1.3-1.4-.4-3-.4-4.2-1.5-.6-.5-1.3-1.8-.6-2,2.6-.9,1.1-1.3-1.7-1.9,6.1-.9,10.6-1.1,15.1-.3Z"/>
      <path class="cls-5" d="M56.5,93.4c6.3,0,5.7-4.1,6.2-8.6,.6-5.5-1.8-12.2,4.8-16-.3,8.3-.7,16.6-1,25-.2,.2-.4,.4-.6,.6-1.6,.8-3.1,.6-4.5-.4-1.6-.2-3.3-.3-4.9-.5Z"/>
      <path class="cls-30" d="M68.4,99.7c-5.3-.3-10.6-.7-16-1,1.6-4.5,5.4-4,9-3.9,1.6-.7,3.5,.4,5-.9,0,0,.1-.1,.1-.1,6.1,.2,1.1,4,1.9,5.9Z"/>
      <path class="cls-9" d="M31.4,94.6c0-.7-.1-1.3-.2-2,0-2.7-.8-5.4,.5-7.9,2.4,.5,2.8,3.1,4.8,4.1,.2,3-.7,6.1,1,9-1.7,0-2.8-1.4-3.3-2.4-1.6-3.7-1.7,.4-2.6,.4-.3-.2-.5-.4-.4-.7,0-.3,.1-.4,.2-.4Z"/>
      <path class="cls-33" d="M36.5,88.8c-3.3,.5-4.3-1.2-4.1-4.2-1.1-1.3-.9-2.6,0-3.8,.3-1.1,.7-2.1,1-3.2,0,1,0,2,0,3,0,1.3-.3,3,1.1,3.5,1.7,.6,1.6-1.8,2.8-2.2-.3,2.3-.7,4.6-1,7Z"/>
      <path class="cls-12" d="M66.4,93.9c-1.3,2.3-3.1,1.9-5,.9,0-.3,0-.6,0-.9,1.7,0,3.3,0,5,0Z"/>
      <path class="cls-7" d="M89.3,51c.5-9.5-1.9-18.7-2.1-28.1,0-2.6-1.9-3.5-4.3-4-17-3.4-33.9-7-50.9-10.5-1-.2-2-.2-2.9,.3-5.6,3.2-11.5,5.6-16.7,9.6-1.5-1.3-.9-2.2,.5-3,4.5-2.5,9-5,13.5-7.5,3.6-1.2,6.6-4.5,10.9-3.5,6.5,1.8,13.1,3.1,19.8,3.9,6.1,1.3,12.1,2.6,18.2,3.9,4,.9,8,2.2,12.1,2.7,3,.4,3.7,1.8,3.9,4.5,.6,7.4,1.2,14.8,2.5,22.2,.8,4.6-.1,7.7-4.5,9.5Z"/>
      <path class="cls-24" d="M71.1,126.8c-4.2,1-8.5,2-12.7,3-1.9,1.1-4,1.6-6.1,2-3.2,.5-5.4-.5-6.8-3.6-1.3-3-2.9-6-4-9.1-.6-1.6-1.3-3.2-.5-5,1.3-1.7,3.1-1.7,4.9-1.7,5.1-.1,10.2,0,15.3-.8,3.1-.5,5.6,.8,6.9,3.7,1.5,3.7,4.2,7.1,3,11.5Z"/>
      <path class="cls-25" d="M71.1,126.8c-1.4-3.7-2.8-7.3-4.2-11-.8-2-2.1-3.5-4.4-3-6.2,1.2-12.4,.8-18.6,.9-1,0-1.9,.3-2.4,1.3-2.1-.4-2.6-2-2.7-3.8,.4-2.3,2.2-2.6,4-2.8,1.6-.1,3.3-.2,4.8-.7,1.5-.3,3-.3,4.5-.4,6,2,12.3,0,18.3,1.6,1.5,4.1,2.8,8.3,4.4,12.4,2,5.2,2.1,5.2-3.6,5.5Z"/>
      <path class="cls-46" d="M42.5,118.6c.3,.6,.7,1.1,1,1.7,1.5,3.3,2.2,7.3,4.6,9.6,2.7,2.6,6.8-.9,10.3-.2,0,2.7,1.6,3.8,4.1,4-1.7,1.8-4.5,.2-6.2,1.9-1.2,1.5-3.1,1.6-4.8,2.1q-7.5,.8-10.7-7.2c-.4-.9-.7-1.8-1-2.7-.2-.7-.2-1.4,0-2.1,1.5-2.1-2-6.1,2.7-7Z"/>
      <path class="cls-44" d="M70.3,108.9c-6.3,0-12.6,0-18.9,0-1.7-1.1-3.4-.4-5.1-.2-1.4,.2-3.3,.5-3.8-1.2-.4-1.3,1.1-2.2,2.2-2.9,1-.6,2-1,3.2-1.2,.6,0,1.1,.1,1.5,.5,6.4,4.1,13.6,4.4,20.9,4,0,.4,0,.8,0,1.1Z"/>
      <path class="cls-19" d="M18.8,30.8c1.1,1.9,2.5,3.7,3.4,5.8,1,2.6,2.8,3.7,5.5,3.7,3.6,.6,7.4-.1,11.2,2-1.6,1.6-3.2,1-4.4,1.2,1,.7,2.9-.8,4,.9-.5,2-2.5,1.8-3.9,2.5-4.5,1.2-8.9-.3-13.3-.5-1.6,0-2.5-1.4-3.3-2.7-.7-2.2-2.9-4-1.4-6.6,1.1,.2,2.2,.4,4.4,.8-2.7-2.4-5.3-4.3-2.1-7Z"/>
      <path class="cls-18" d="M16.5,36.9c.7,2,1.3,4,2,6,.3,1.8-.8,1-1.5,.9-1.7-1-3.7-.5-5.5-.8-.6-.7-1.2-1.4-1.8-2.1-.4-1.3-.8-2.6-1.2-3.9,1.5-2,4.7-.7,6-3,.7,1,1.3,2,2,3Z"/>
      <path class="cls-2" d="M5.5,33c-.3-1-.6-2-.9-3,1.1-2.6,5.6-.1,5.9-3.9,1.3,1.4,1.6,3.2,2,4.9,.4,3.9-2.2,4.2-5.1,4.2-.6-.7-1.3-1.4-1.9-2.1Z"/>
      <path class="cls-36" d="M7.5,35.1c.7-2.6,5-.9,5.1-4.2,.7,1,1.3,2,2,3-.3,4.3-3.7,2.7-6,3-.3-.6-.7-1.3-1-1.9Z"/>
      <path class="cls-23" d="M51.4,136.6c1.5-1,3.1-1.1,4.9-1.1,3,1.3,6.4,.5,9.3,2.2,.2,.4,0,.7-.4,.8-8.6,1.4-17.2,2.7-25.8,4.1-1.3-2.6-2.6-5.1-3-8,.6-1.4,1.6-1.9,3-1,0,.8,.3,.8,.9,.3,.7-.1,1.6-.2,1.8,.3,2.2,4.3,5.7,3.6,9.3,2.3Z"/>
      <path class="cls-38" d="M49.5,103.8c-.3,0-.7,0-1,0-2.6,.2-4.7,2.4-7.5,1.8-2.2-.7-4.2-1.8-6.6-1.6-1.3,0-2.6-.2-3.5-1.4,0-1.9-.2-3.7-.3-5.6,.3-.8,.6-1.6,.9-2.4,0,.4,.1,.7,.2,1.1,.3,4.4,2.2,5.5,7.7,4.6,4.1-.6,8.2-1.4,12.1,1,1.6,1,3.1-.6,4.7-.6,1.9,0,4.2-.7,5.3,1.9-4-.2-7.9,1.6-12,1Z"/>
      <path class="cls-31" d="M40.4,125.7c0,.6,.1,1.3,.2,1.9-2.9,0-5.3-1.9-8.2-2-.9-1.7-2.7-2.9-3-5,.2-1.2-.4-2.1-.9-3-.6-.6-.7-1.2-.2-1.9,2.3,2.5,5.3,1.7,8.1,1.9,3,1.9,3.2,5,3.9,8Z"/>
      <path class="cls-39" d="M51.4,136.6c-2.8,1.9-5.7,3.2-8.4,0-1-1.3-2-2.1-3.6-1.9-1-1.6-2-.3-3,0,0,0-.4,0-.4,0,0,0-.4,0-.4,0-1.5-2.1-1.5-4.6-2.3-6.9,2.7,.6,5.1,2.5,8.1,2,.3,.4,.7,.7,.8,1.1,1.1,5.1,3.9,7.3,9.1,5.8Z"/>
      <path class="cls-6" d="M41.5,129.6c-3.8,3.7-5.7-.1-8.1-2-.3-.7-.6-1.3-1-2,3.5-2.5,5.7,.4,8.2,2,.3,.7,.6,1.3,.9,2Z"/>
      <path class="cls-32" d="M47.3,50.7c-.6,.4-1.2,.8-1.7,1.2-1.7,1.1-3.5,1.6-5.5,.5-.2-.2-.3-.4-.5-.7-5.3-1.4-10.7-.7-16-.7-3,0-5.9-.2-8.9-.3-.8-1.3-1.6-2.6-2.3-3.9,0-.3,.1-.6,.2-.9-.6-1-.9-2.1,0-2.9,.9-.7,1.7,.1,2.4,.8,1.2,4.8,5.4,2.4,8.1,3.4,3.4,.9,6.9-.3,10.2,1,.2,0,.3,.1,.4,.2,0-.4-.4-.4-.5-.6-.1-.5,0-.9,.3-1.3,1.8-.8,3.8-.4,5.5-1.3,3.9-.4,7.9-1.3,11.3,1.6l-3.1,3.8Z"/>
      <path class="cls-26" d="M40.4,125.7c-2.1-2.3-2.5-5.4-3.9-8,0-1.9-1.3-3.3-2-5-1-2.5-2-5.1-2.9-7.6,1.5-2.2,3.7-1.1,5.6-1.3,1.1,.2,2.3,.3,3.3,.9,2.7-.3,5.3-.6,8-.9-1.5,1.4-3.9,1.4-5,3.6,2.6,1.3,5.7-.9,8.1,1.4-1.2,0-2.4,0-3.6,0-2.1,.6-4.2,.5-6.3,.2-2.2-.3-3.2,.4-2.4,2.7,.7,1.1,1.5,2.3,2.2,3.4,.4,1.2,.7,2.4,1.1,3.6-1.1,1.1-2.5,2.1-1.2,4,1.1,1.5,0,2.3-.9,3.1Z"/>
      <path class="cls-42" d="M14.5,44.9c-.4-.4-.9-1.3-1.2-1.2-1.4,.3-.5,1.5-.8,2.3-1-.8-.9-1.9-1-3,2-1.6,4-1.6,6,0-.6,1.2-.6,3.4-3,2Z"/>
      <path class="cls-3" d="M50.5,46.9c-3.6-.9-7.3-.8-11-1-1.7,.7-3.3,.8-5,0,.6-1.3,2.1-.6,3.3-1.7-1.6-.2-3-.3-4.3-.4,0-.2,0-.4,0-.5,1.3-.2,2.6-.3,4.7-.6-4-.9-7.3-1.6-10.5-2.3,4.9-.1,9.7-.2,14.6-.3,2.6-1.6,2.7-4.1,2.8-6.8,.1-2.6-.4-5.7,2.8-7.1,5.6,0,11.1,0,16.7,0,1.5,0,3.3-.9,4.5,.9-4.2,0-8.3,0-12.5,0,0,.3,0,.5,0,.8,1.3,.2,2.7,.3,4,.5,0,.2,0,.4,0,.6-1.4,.1-2.8,.2-4.4,.4,.9,3.1,4.1,.8,5.3,2.7-2,2.1-4.7,1.1-7.1,1.6-1.8,.2-1.6,1.7-1.9,2.8-.2,.7-.5,1.2-1,1.7,0,1.7,0,3.4,.1,5.1-.7,1.2,.4,2.9-1.1,3.8Z"/>
      <path class="cls-34" d="M47.9,26.1c-2.9,3.1-1.3,6.9-1.4,10.3,0,3.4-1.1,4.5-4.3,3.6,.8-4.3-1.2-9.3,3.1-12.9,.8-.7,1.4-1.3,2.5-1.1Z"/>
      <path class="cls-43" d="M51.5,36c0-1.4-.5-3,.9-4,4.4,3.6,7.4,3.8,12,1,4.5,5.7-.1,8.2-3.8,11-.4-2-.8-4-1.2-6-2.5-1.4-5.8,.6-7.9-2Z"/>
      <path class="cls-13" d="M64.4,32.9c-.3,2.6-2.2,4.1-4.3,3.2-2.6-1.2-7.7,1.7-7.7-4.1,3,0,6,0,9,0,1.1,.1,2.3-.1,3,1Z"/>
      <path class="cls-13" d="M51.5,36c2.5,1.2,5.6,.2,7.9,2-2.7,0-5.3,0-8,0,0-.7,0-1.3,0-2Z"/>
      <path class="cls-44" d="M39.2,111.6c-.9-.7-2.2-1.5-.9-2.6,.8-.7,1.8-2.3,3.3-1.1,1.9,1.5,4.2,.4,6.2,.9-1.8,1-3.8,.6-5.7,.7-1.5,0-3,0-3,2.1Z"/>
      <path class="cls-27" d="M34.5,45.9c1.7,0,3.3,0,5,0-1.8,1.8-4,.7-6,1-3.2,2-6.8,.6-10.2,1-.3,0-.5,0-.8,0-2.7-1-7.2,3.1-8-3,1.6,.2,2-1.4,3-2,.3,.7,.7,.7,1,0,2.5,3.8,6.8,1.8,10.1,2.9,1.8,.6,3.9,0,5.9,0Z"/>
      <path class="cls-39" d="M40,135.9c.2,.7,.2,1.3-.7,1.2-.3,0-.7-.7-.7-1,.1-.5,.5-1,.8-1.5,.2,.4,.4,.8,.6,1.3Z"/>
      <path class="cls-27" d="M33.5,47.9c.2,0,.4,0,.5,0,.2,.2,.3,.4,.5,.6-4,.1-8,1.3-11.9-.7,0,0,0,0,0,0,3.7-.8,7.3-.8,11,0Z"/>
      <path class="cls-17" d="M33.5,47.9c-3.7,0-7.3,0-11,0,3.5-2.1,7.3-.5,11-1,0,.3,0,.7,0,1Z"/>
    </g>
  </g>
</svg>