<?xml version="1.0" encoding="UTF-8"?>
<svg id="Capa_2" data-name="Capa 2" xmlns="http://www.w3.org/2000/svg" viewBox="0 0 72.1 73.3">
  <defs>
    <style>
      .cls-1 {
        fill: #7a7192;
      }

      .cls-2 {
        fill: #443540;
      }

      .cls-3 {
        fill: #2a1e23;
      }

      .cls-4 {
        fill: #3a2650;
      }

      .cls-5 {
        fill: #523774;
      }

      .cls-6 {
        fill: #523183;
      }

      .cls-7 {
        fill: #5c3a8f;
      }

      .cls-8 {
        fill: #26231d;
      }

      .cls-9 {
        fill: #f7f6f7;
      }

      .cls-10 {
        fill: #251a1e;
      }

      .cls-11 {
        fill: #2d2034;
      }

      .cls-12 {
        fill: #403440;
      }

      .cls-13 {
        fill: #312129;
      }

      .cls-14 {
        fill: #3f2627;
      }

      .cls-15 {
        fill: #81709d;
      }

      .cls-16 {
        fill: #43334b;
      }

      .cls-17 {
        fill: #3f2a5f;
      }

      .cls-18 {
        fill: #f4e6a7;
      }

      .cls-19 {
        fill: #f7e6a9;
      }

      .cls-20 {
        fill: #53338b;
      }

      .cls-21 {
        fill: #dfd09d;
      }

      .cls-22 {
        fill: #e5da9b;
      }

      .cls-23 {
        fill: #43353e;
      }

      .cls-24 {
        fill: #423d40;
      }

      .cls-25 {
        fill: #322348;
      }

      .cls-26 {
        fill: #281c21;
      }

      .cls-27 {
        fill: #4d2d6f;
      }

      .cls-28 {
        fill: #241a1f;
      }

      .cls-29 {
        fill: #4c343a;
      }

      .cls-30 {
        fill: #7e6f9c;
      }

      .cls-31 {
        fill: #302731;
      }

      .cls-32 {
        fill: #4d2f6e;
      }

      .cls-33 {
        fill: #6c2323;
      }

      .cls-34 {
        fill: #271b22;
      }

      .cls-35 {
        fill: #796793;
      }

      .cls-36 {
        fill: #8575b4;
      }

      .cls-37 {
        fill: #312042;
      }

      .cls-38 {
        fill: #4a353e;
      }

      .cls-39 {
        fill: #3c2f34;
      }

      .cls-40 {
        fill: #523286;
      }

      .cls-41 {
        fill: #43335b;
      }

      .cls-42 {
        fill: #7b6998;
      }

      .cls-43 {
        fill: #e3dede;
      }

      .cls-44 {
        fill: #362627;
      }

      .cls-45 {
        fill: #302040;
      }

      .cls-46 {
        fill: #372544;
      }

      .cls-47 {
        fill: #533383;
      }

      .cls-48 {
        fill: #563787;
      }

      .cls-49 {
        fill: #3a274f;
      }

      .cls-50 {
        fill: #473736;
      }

      .cls-51 {
        fill: #f2a3aa;
      }

      .cls-52 {
        fill: #110909;
      }

      .cls-53 {
        fill: #7a6d9b;
      }

      .cls-54 {
        fill: #3d2d3c;
      }

      .cls-55 {
        fill: #3f3627;
      }

      .cls-56 {
        fill: #523389;
      }

      .cls-57 {
        fill: #533389;
      }

      .cls-58 {
        fill: #796b87;
      }

      .cls-59 {
        fill: #322626;
      }

      .cls-60 {
        fill: #48252a;
      }

      .cls-61 {
        fill: #faf9f9;
      }

      .cls-62 {
        fill: #3e362f;
      }

      .cls-63 {
        fill: #2e2424;
      }

      .cls-64 {
        fill: #e77777;
      }

      .cls-65 {
        fill: #7e6fa4;
      }

      .cls-66 {
        fill: #ddd7d7;
      }

      .cls-67 {
        fill: #8272af;
      }

      .cls-68 {
        fill: #3c2755;
      }

      .cls-69 {
        fill: #454145;
      }

      .cls-70 {
        fill: #41304f;
      }

      .cls-71 {
        fill: #32254f;
      }

      .cls-72 {
        fill: #513280;
      }

      .cls-73 {
        fill: #292025;
      }

      .cls-74 {
        fill: #8372a9;
      }

      .cls-75 {
        fill: #4d4056;
      }

      .cls-76 {
        fill: #e3d5bb;
      }

      .cls-77 {
        fill: #3e2e35;
      }

      .cls-78 {
        fill: #5d5019;
      }

      .cls-79 {
        fill: #453939;
      }

      .cls-80 {
        fill: #3f3c2a;
      }

      .cls-81 {
        fill: #332558;
      }

      .cls-82 {
        fill: #33263b;
      }

      .cls-83 {
        fill: #7a6989;
      }

      .cls-84 {
        fill: #3f3534;
      }

      .cls-85 {
        fill: #3f324c;
      }

      .cls-86 {
        fill: #372647;
      }
    </style>
  </defs>
  <g id="Capa_1-2" data-name="Capa 1">
    <g>
      <path class="cls-10" d="M.7,43.4C.2,40.8,0,38.2,0,35.6c0-2.2,.5-3.9,3-4.4,1.4-.3,1.9-1.3,2.3-2.6,.6-2.3,1.5-4.5,2.4-6.6,.4-1,.6-1.9-.2-2.7-1.9-2.2-.9-4.2,.7-5.9,1.4-1.6,3-3,4.5-4.5,.8-.8,1.7-1.1,2.7-.7,5.8,2.3,9.5-3.4,14.5-3.9,1.8-6.3,6.7-3.9,10.7-3.9,1,0,2,.3,2,1.7-.1,.1-.2,.3-.4,.4-.5,.3-1,.5-1.6,.5-1.5,.1-3,0-4.5,.1-1,0-2.1,.2-2.6,1.1-3.1,5.7-9.8,5-14.3,8.4-.6,.4-1.5,.3-2.2,0-2.1-1.1-3.8-.4-5.4,1.1-.8,.6-1.4,1.4-1.5,2.5,3,5.9-1.4,10.6-2.5,15.8-.1,.5-.5,1-1,1.1-4.3,1.1-3.8,4.5-3.8,7.7,0,.6-.2,1.1-.4,1.7-.4,.7-1,1.2-1.9,1Z"/>
      <path class="cls-28" d="M42.7,2.1c.9,2.7,3.2,3.3,5.6,4,3.4,1.1,6.1,4,10.6,2.2,3.3-1.4,8.9,7.4,7.2,10.8-.7,1.4-.2,2.3,.3,3.4,2.4,5.6,3.6,11.4,2.8,17.5-.1,1-.6,2.1,.3,2.8,5,3.5,1.8,6.9,0,10.3-.2,.3-.5,.6-.7,.9-1.4,0-1.2-1-1.5-1.9,0-.4,0-.7,0-1.1,.3-1.9,2.6-4.2-1.1-5.1-.5-.3-.8-.8-1-1.3-.3-2.1,.5-4.1,.3-6.2,.4-5.2-.4-10.1-2.7-14.9-.6-1.2-.8-2.6-.5-4,1.3-5.1-1.1-7.7-6.1-6.6-.6,.1-1.3,.4-1.8,0-4-2.8-9-3.5-13-6.3-.8-1.7-.3-3.2,1.1-4.4l.2-.2Z"/>
      <path class="cls-34" d="M.7,43.4c.5-.3,1-.5,1.4-.8,1.8,.5,2.9-.4,3.8-1.8,.8-.2,1.4,0,1.9,.6,.8,1.1,1,2.3,1.1,3.6,0,1.1,0,2.3,.7,3.2,.5,.9,.7,2,1.4,2.9,.2,.2,.3,.5,.4,.8,.3,.9,.6,1.7,1.7,1.9,.5,.2,.9,.5,1.2,.9,.4,.9,.4,1.7,0,2.6-3,3-2.9,3.3,1.2,6.2,.7,.3,1.4,.7,1.9-.4,0-.5,.2-.9,.2-1.4,0-.5,.3-1,.6-1.4,.6-.4,1.3-.5,2-.3,.3,.1,.6,.3,.8,.6,.3,.4,.6,.8,.9,1.2,.6,.8,1.6,.9,2.5,1.1,1,.5,2.2,0,3.2,.5,1.6,1.1,3.4,1.4,5.2,1.3,1.3,.5,.9,1.5,.5,2.4-.6,1.3-.4,2.3,1.1,2.8,1.6,.3,3.3,0,4.9,.2,.6,0,1.2,.3,1.6,.7,.3,.6,.3,1.2,0,1.7h0c-2.8,.5-5.6,.5-8.4,0-.3-.2-.9-.3-.9-.5-1-5.8-6.6-5.1-10.2-7.3-1.1-.6-1.6-.1-2.2,.6-2,2.4-4,2.2-6.2,0-1.1-1-2.3-1.9-3.4-2.8-1.1-.9-1.7-2.3-.9-3.3,4.1-5.3-2-8.1-2.7-12.2-.2-1-1.4-.8-2.3-.8-1.8-.2-3-1.1-3.2-3Z"/>
      <path class="cls-26" d="M41.1,72.7c0-.6,0-1.1-.1-1.7-1.2-1.3-.7-3.3-2-4.6-.3-.5-.4-1-.5-1.5,.1-.6,.5-.9,1-1,1.7,.3,3.4,.8,5.2,.2,.6-.1,1.1-.6,1.6-.9,.6-.3,1.2-.4,1.8-.4,1.1,0,2.1,0,3-.8,.3-.2,.6-.3,.9-.4,1.9-.8,2.9,1.5,4.7,1.2,1-.6,.8-1.3,.4-2.1-.6-1.1-.8-2.2,0-3.3,.9-.8,1-2.2,1.9-3,.5-.2,1-.2,1.5,0,1,.9,.4,2.1,.5,3.2,1.1,3.4,.9,6.2-2.8,8.1-1.5,.7-2.7,1.4-4,0-1.2-1.3-2.3-1-3.6-.3-1.2,.6-2.5,1.1-3.8,1.5-2.2,.6-4.2,1.3-4.1,4.2,0,.8-.6,1.6-1.7,1.7Z"/>
      <path class="cls-28" d="M61.1,57.6c-.8-.8-.5-1.8-.5-2.8,.9-4,1.3-4.1,4.5-1.7,.5,.4,1.1,.5,1.7,.6,.6,.2,1,.5,1.4,.9-.7,1.7-2.2,1.8-3.6,1.6-1.5-.2-2.6,0-3.5,1.3Z"/>
      <path class="cls-3" d="M32.7,72.7c2.8,0,5.6,0,8.4,0-2.8,.8-5.6,.9-8.4,0Z"/>
      <path class="cls-26" d="M68.2,54.7c-.6,0-1.2,0-1.8-.1-.8-1.7-1-3.1,1.6-3,0,.8-.1,1.7,.7,2.3,0,.4,0,.7-.5,.8Z"/>
      <path class="cls-36" d="M7.5,42c-.3-.6-.8-.8-1.4-.7-1.3,.8-2.7,1.1-3.8-.3,0-1.6,0-3.2-.2-4.8-.3-1.9,.7-2.9,2.3-3,2.5,0,2.9-1.7,3.4-3.6,.4-1.4,.6-2.9,1.2-4.3,1.3-2.7,3.1-5.4,0-8.1-.4-.4,0-1.2,.5-1.6,.9-.4,1.1-1.4,1.6-2.1,1.8-2.4,3.8-3.9,6.7-1.5,1,.9,1.8-.2,2.6-.6,2.9-1.8,5.9-3.4,9.4-4,.8-.1,2.2-.6,2.2-1.1,.6-6.6,5.6-3.3,8.7-4,1.9,1-.2,3.1,1.1,4.3,4.2,1.5,8.6,2.7,12.4,5.3,.6,.5,1.2,.6,2,.1,1-.7,2-2.3,3.5-1.2,2,1.4,3.6,3.4,5,5.4,.2,.3,0,1.1-.2,1.3-2.9,2.4-1.1,4.7-.1,7.2,1.8,4.3,2.8,8.7,2,13.4-.9,.9-2.1,1-3.3,.9-1.1-.3-2.4,0-2.9-1.1,3.7,1.7,3.9,4.5,2,7.8-.3,.3-.6,.4-.9,.6-3.7-.2-5.8,1.4-6.3,5.2-.2,1.4-.8,2.9-2.3,3.5-.3,0-.7,0-1,0-.8-.4-1.6-1.1-2.6-1.1-.3,0-.6,0-.9-.1-.3,0-.6-.2-.9-.3-3.3-.8-.8-3.2-1.3-4.8-.3-2.2-1.3-3.8-3.5-4.6-2.8-1-5.7-1.7-8.7-.9-1.5,.3-3,.6-4.2,1.7-2.4,1.7-1.7,3.9-.7,5.9,.6,1.2,1.6,2.2,1.4,3.7,0,.3-.2,.6-.5,.9-2.3-.8-4.6-2.2-7.1-.5-.5,0-1.2,0-1.3-.4-.8-3-3.7-4.1-5.5-6.3-.7-1.3-1.8-1.8-3.2-2.2-2.8-.9-2.9-3.9-.5-5.8-1.5,0-1.8,1.4-2.5,2.3-1,.6-1.6-.3-2.3-.7Z"/>
      <path class="cls-5" d="M2.3,41c1.3,.1,2.5,.2,3.8,.3-.4,.9,.5,2.3-.9,2.8-1.5,.6-2.1-.7-3-1.4,0-.6,0-1.1,0-1.7Z"/>
      <path class="cls-73" d="M41.8,6.6c-1.4-1.1,0-3-1.1-4.3,.6,0,1.2,0,1.8,0-.2,1.4-.5,2.9-.7,4.3Z"/>
      <path class="cls-83" d="M11,13.5c.1,1.2,0,2.2-1.6,2.1,.1-1,.7-1.7,1.6-2.1Z"/>
      <path class="cls-56" d="M51.5,54.8c2.3-.3,2.4-2.4,2.8-3.9,1.5-5.4,.6-5.4,6.9-5.1,.3,.8-.3,1.3-.8,1.8,.7-.2,1.2-.8,1.8-1.2,1.1-1.3-.2-3.5,1.6-4.6,1.6,.5,1,2.1,1.5,3.1,.4,.2,.7,.4,1.1,.6,.9,1.7,.9,3.6,1.5,5.4,0,.2,0,.5,0,.7-2,.2-1.1,2-1.6,3-.7,0-2,0-2.1-.3-2.2-6.2-2.6,0-3.7,.5-.4,0-.9,0-1.3,0-1.4,.5-.6,2.2-1.7,2.9-.5,1-.4,1.9,.5,2.7,2.2,2,.8,2.8-1.2,3.4-1.8-.5-2.6-4.2-5.3-1.6h0c-.7,1-2.2,.5-3,1.4-.7,0-1.5,0-2.2,0-1.5-.6-4.4-.3-2.3-3.4,1.3-1,3-1.1,4.5-1.7,2.5,0,1.8-2.7,3.1-3.8Z"/>
      <path class="cls-65" d="M68,50.9c-2.2-1.3-1.5-3.4-1.5-5.4,3.1-.3,3.9,.6,2.8,3.2-.3,.8-.9,1.5-1.3,2.2Z"/>
      <path class="cls-74" d="M65.4,44.9c-.9-.7-1.4-1.6-1.3-2.8-.5-1.3-1.4-2.4-1.4-3.9,1.2,0,2.4,0,3.7,0,.4,2.4-.2,4.6-1,6.7Z"/>
      <path class="cls-21" d="M45.3,65c-1.9,0-3.9,1.1-5.5-.8-2.4-.3-4.6,.4-6.9,.9-2.2,1-4,.8-5.3-1.5,.1-.1,.2-.3,.3-.4,.7-.8,2.4,0,2.3-1.8-.2-.3-.3-.5-.5-.7-.8-1-2.2-1.3-2.4-2.7,.3-.9,1-1.3,1.9-1.5,1.6,0,2.9,.9,4.4,1.3,3.1,1.8,5.8,0,8.5-1,2.2-.5,2.8-4,5.7-3.1,3,2,3.1,2.5,.9,5.1-1.7,.5-3.6,.4-5,1.6-1,.8-2.2,1.7,0,2.5,1.1,.4,2.7,.3,1.5,2.2Z"/>
      <path class="cls-57" d="M16.5,47.8c2.8,1.7,5,3.9,6.4,6.8,.1,0,.3,.2,.4,.3,0,.3,0,.7,0,1-.7,1.6-.5,3.7-2.5,4.6-.7,0-1.5,0-2.2,0-1.4-1.6-2.8-3.3-1.1-5.9-1.3,.8-2.4,1-3.5,.3-.4-.1-.8-.2-1.2-.4-1.3-.5-.6-2.2-1.7-2.9h0c-.8-.9-.9-1.9-.4-2.9,1.6-2,3.4-2.9,5.7-.9Z"/>
      <path class="cls-47" d="M38.9,65c.2,.3,.4,.6,.6,.9-.6,1.7,2,3.5,0,5.2-2,0-3.9,0-5.9,0-1.2-5.2,.7-7.4,5.2-6.1Z"/>
      <path class="cls-72" d="M15.6,64.5c-1-.6-2.1-1.2-3-1.9-2.4-2.1-1.9-3.9,1.4-5,3.1-.4,2.7,2.7,4,4.1,0,1.2-1.3,1.4-1.7,2.3-.2,.3-.5,.4-.7,.6Z"/>
      <path class="cls-71" d="M17.9,62.1c-2.2-.8-1.6-3.9-3.9-4.6,0-.9,0-1.7,0-2.6,2,0,3.7-.3,3.9-3.2,.4,3.2-1,6.1,.7,8.8,0,.6,0,1.2-.1,1.7-.2,.2-.5,.2-.7,0Z"/>
      <path class="cls-77" d="M38.9,65c-3.5,.3-5.4,2.5-5.2,6.1-2.9-1.7-.4-4-.7-6,2-2.3,4.4-2.3,6.9-.9-.3,.2-.6,.5-1,.7Z"/>
      <path class="cls-40" d="M27.6,63.7c-1-.5-2,1.1-3,0-.8-.9-2.3-.5-3.1-1.4-.2-.3-.4-.5-.6-.8,1.9-2.9,4.7-1.6,7.2-1.6,.9,.1,1.7,.3,2.5,.8h0c1.1,3-2.4,1.6-3,3.1h0Z"/>
      <path class="cls-70" d="M28.4,60.6c-2.5,.1-5.1-.5-7.4,.9,0-.3,0-.6,0-.9,.7-1.8,1.4-3.5,2.1-5.3,.9,.5,.8,1.5,1.3,2.2,.2,.2,.4,.4,.7,.5,1.4,.5,3.3,.3,3.4,2.5Z"/>
      <path class="cls-81" d="M39.5,71.1c1.4-1.7-2.5-3.4,0-5.2,1.9,1.3,1.6,3.3,1.5,5.2-.5,0-1,0-1.5,0Z"/>
      <path class="cls-48" d="M7.5,42c.7,.2,1.4,.4,2,.6,.9,.9,.9,1.9,.3,2.9-.5,.5-1.1,.7-1.6,0-.2-1.2-.4-2.4-.6-3.6Z"/>
      <path class="cls-86" d="M8.2,45.6c.5,0,1,0,1.4,.1,.1,.1,.2,.2,.4,.4,.3,.6,.4,1.3,.2,2-.1,.3-.4,.6-.7,.7-1.8-.5-1.2-2-1.3-3.2Z"/>
      <path class="cls-68" d="M11.1,48.7c0,1,0,2,0,3-2,0-1.3-1.8-1.7-2.9,0,0,.3-.1,.3-.1,.3-.2,.6-.3,.9-.2,.1,0,.3,.2,.4,.3Z"/>
      <path class="cls-45" d="M11.1,51.6c2,.1,1.2,1.9,1.7,2.9-2.2,0-1.5-1.7-1.7-2.9Z"/>
      <path class="cls-20" d="M17.9,62.1c.2,0,.4,0,.7,0,0,.5,0,.9,0,1.4-.9,.9-1.9,.8-2.9,0,0-1.6,1.2-1.5,2.3-1.5Z"/>
      <path class="cls-86" d="M21.6,62.2c1.2,0,2.7-.6,3.1,1.4-1.2,0-2.7,.6-3.1-1.4Z"/>
      <path class="cls-27" d="M15.6,63.7c1,0,1.9,0,2.9,0-.4,2.2-1.5,1.8-2.9,.9,0-.3,0-.5,0-.8Z"/>
      <path class="cls-50" d="M45.3,65c.3-1.2-.4-1.4-1.4-1.3-1.2,.1-2.3-.3-2.5-1.5-.2-1.3,1-1.7,2-2.2,.3,.2,.8,.2,.8,.7-.7,2,2.3,1.3,2.1,2.8,0,.7-.1,1.3-1,1.5Z"/>
      <path class="cls-4" d="M51.6,62.1c2.3-2.7,3.5-2.3,5.3,1.6-.9,.8-1.7,.3-2.1-.5-.7-1.5-2-1.1-3.2-1.1Z"/>
      <path class="cls-32" d="M57.6,57.7c.2-1.2-.6-2.9,1.7-2.9-.2,1.2,0,2.6-1.7,2.9Z"/>
      <path class="cls-17" d="M48.5,63.6c.3-1.9,1.9-1.2,3-1.5-.3,2-1.8,1.4-3,1.5Z"/>
      <path class="cls-9" d="M48.9,14.1c.7,.3,1.3,.2,1.5-.7,2.3,1.4,5.2,1.9,6.4,4.7,1.5,2.3,1.1,3.5-1.8,3.1-4-.5-8.1,0-12.2-.6-.6-.4-.8-.9-.7-1.6,1.5-2.7,3.1-5.1,6.7-4.9Z"/>
      <path class="cls-84" d="M29.7,54.9c-.4-1.3-.6-2.5-1.4-3.7-1.5-2.3-2.5-5,.8-6.9,.5,.2,.9,.5,1,1.1-.8,3.8,.3,5.8,3.5,6.4,.5,0,1,0,1.5,.4,1.2,1.9,2.5,1.5,3.7,0,1.6,0,3.4,.3,4.1-2,.3-.9,1.4-1.8,2.7-1.6,.2,.3,.4,.6,.5,.9,0,1.7-1.4,2.9-1.4,4.6-.2,.4-.4,.7-.7,.9-2.2,.7-4.4,1.2-6.5,1.9-.4,0-.8,0-1.2,0-2.1-.9-4.5-1.1-6.6-2.1Z"/>
      <path class="cls-38" d="M50.2,33.8c0,.2-.1,.4-.2,.6-.3,.6-.8,.9-1.4,.7-6.5,2.3-13.2,2.1-19.9,.9-.5,0-.9-.4-1.3-.6,.4-.8,1.1-1.2,2-1.4,6.6,.5,13.1,.4,19.5-1.3,.7,.1,1.1,.5,1.3,1.2Z"/>
      <path class="cls-14" d="M29.1,34.7c-.6,.2-1.1,.4-1.7,.6-2.7-.6-5.4-1.1-8-1.7,0-.5,.2-1,.5-1.4,.6-1,1.1-2,1.3-3.1,0-.3,.2-.6,.4-.9,2.7-.9,5.5-.5,8.2-.7,.7-.4,1.5-.3,2.2-.2,.3,.2,.4,.6,.4,.9-1.8,1.5-4.1,1.2-6.1,1.8-1.1,.3-2.7,.5-1,2.2,1.3,.8,3.3,.5,3.9,2.4Z"/>
      <path class="cls-49" d="M9.6,45.7c0-1,0-2,0-3.1,.3-3.4,3.4-2.8,5.3-4.5,.4,2.4-1.1,2.3-1.9,2.8-1,.5-2.1,.8-1.5,2.4,.5,1.1,.4,2.6,2.3,2.2,1.8-.4,2.4,.9,2.7,2.3-2-.8-3.6,.3-5.4,.8,0,0,0,0,0,0-1-.7-.5-2.3-1.5-3h0Z"/>
      <path class="cls-69" d="M42.6,20.1c4.1,.2,8.1,.3,12.2,.7,3.4,.3,2.2-1.3,1.4-2.9,.1-.4,.2-.9,.7-1.1,.5,.7,1.1,1.3,1.5,2.1,.9,1.8,.7,3.1-1.8,3-4.7-.2-9.4-.2-14.1-.3-.5-.5-.4-1,0-1.5Z"/>
      <path class="cls-24" d="M30.5,16.5c.3,.3,.5,.5,.8,.8,1.4,1.3,2,2.7,.7,4.4-5,0-9.9,0-14.9,.1-.2-.3-.3-.6,0-1,3-1.3,6.2-1.6,9.5-1.6,1.4,0,2.9,.2,2.9-1.9,.2-.6,.4-1,1.1-.8Z"/>
      <path class="cls-29" d="M32.1,27.8c-.8,0-1.6-.1-2.4-.2,7.4-1.7,14.8-.3,22.1,.7-.6,1-1.7,1.3-2.7,1.6-2.8,.7-5.6,.1-8.3-.7-2.8-1.3-6.1,.5-8.8-1.5Z"/>
      <path class="cls-82" d="M17.1,21c0,.3,0,.5,0,.8q-2.6,0-1.5-3.8c.5-.7,.6-1.8,1.6-2.2,3.4-2.3,6.9-4.2,11-1.5,0,.7-.3,.9-.9,1.1-4.6-.4-8.6,.3-10.3,5.5Z"/>
      <path class="cls-60" d="M49.3,29.1c.6-.9,1.7-.6,2.5-.9,1.4,0,2.9,0,4.3,0,.4,.6,.3,1.1,0,1.7,0,.2,0,.4-.3,.6-.9,.3-1.5-.5-2.3-.4-.9,1.1,.2,1.3,.8,1.7,.4,.3,.6,.7,.3,1.1-1.1,2.9-3,.4-4.5,.6-.3-.2-.6-.4-.9-.7,0-.5,0-.9,.2-1.3,.2-.9-.2-1.8-.2-2.6Z"/>
      <path class="cls-46" d="M62.8,38.2c1.1,1.1,1.7,2.3,1.4,3.9-1.3,1.4,.4,3.7-1.4,5-.5-.4-.8-.9-.9-1.5,1.1-3.5,1.2-6.6-3.5-8.2,2-.2,3,1.1,4.3,.8Z"/>
      <path class="cls-31" d="M33.4,58.5c-1.7,.2-2.8-1.2-4.4-1.6-1.5-1-2.9-2.2-4.9-1.7-.3-.1-.6-.3-.8-.6-.1,0-.3,0-.4,0,3.1-2.5,4.6-2.4,6.8,.4,1.5,.4,2.9,1,4.2,1.9,.3,.2,.5,.5,.6,.9-.1,.6-.4,1-1.1,.6Z"/>
      <path class="cls-16" d="M48.5,58.5c2.2-1.8,1-3.2-.6-4.4,0-.4,.3-.7,.6-.8h.8c.7,.5,1.6,.7,2.1,1.5,0,0,.1,0,.1,0-.2,2,.9,4.8-2.9,4.5-.2-.1-.3-.3-.3-.5,0-.2,0-.3,.1-.3Z"/>
      <path class="cls-35" d="M33.7,57.5c-1.4-.7-3.2-.7-4-2.4,0,0,0-.3,0-.3,2.5-.8,4.6,.5,6.8,1.3-.2,2.2-2,.8-2.9,1.3Z"/>
      <path class="cls-85" d="M48.9,14.1c-2.5,.9-4.7,2.3-6,4.7-.4,.3-.8,.3-1.1-.1,1.9-4.1,4.1-5.5,7.2-4.5Z"/>
      <path class="cls-39" d="M33.4,42.6c3.4-1.3,6.7-.6,9.8,1,0,.7-.4,.9-1,1.1-1.3,.3-2.5-.3-3.7-.7-1.2-.5-2.5-.4-3.7-.6-.6-.1-1.1-.4-1.4-.9Z"/>
      <path class="cls-30" d="M44.1,53.9c-.6-1.8,1.4-2.6,1.6-4.1,.1-.7,.3-1.3,1.2-1.3,1,1.4-1.8,3.5,.9,4.5-1.2,.4-2.2,1.8-3.8,.9Z"/>
      <path class="cls-54" d="M56.9,16.8c-.2,.4-.5,.7-.7,1.1-1.2-2.5-4.5-2.2-5.8-4.5,2.7,.1,4.8,1.4,6.6,3.4Z"/>
      <path class="cls-63" d="M44.1,53.9c1.3-.3,2.5-.6,3.8-.9,.2,0,.5,.2,.7,.2-.2,.3-.4,.5-.7,.8-2.9-.5-2.7,3.6-5.3,3.6-.5-.3-.5-.8-.4-1.3,.3-.9,1.2-1.1,1.8-1.5,0-.3,0-.6,0-.9Z"/>
      <path class="cls-23" d="M46.9,48.5c-.4,.4-.8,.8-1.2,1.3,0-.4-.1-.8-.2-1.2-.9-1.5-2.6-2.4-3-4.3,.3-.2,.5-.4,.8-.6,2.6,.6,3.5,2.4,3.7,4.8Z"/>
      <path class="cls-37" d="M61.9,45.6c.6,.3,.8,.9,.9,1.5-1.6,.6-3,2.2-5.2,1.1,.7-1.8,3.2-.7,3.7-2.5,.2,0,.4-.1,.6-.1Z"/>
      <path class="cls-53" d="M32.1,21.7c.6-1.6-.4-3-.7-4.4,1,0,2.1,0,2.2,1.3,0,1.2,.7,2.9-1.4,3.1Z"/>
      <path class="cls-80" d="M33.4,42.6c.6,0,1.2,.1,1.7,.2,.1,.4,0,.7-.2,1-1.6,.7-3,2.1-4.9,1.2-.3-.2-.6-.5-.9-.7,1.2-1.2,2.6-1.9,4.3-1.6Z"/>
      <path class="cls-11" d="M21.5,28.3c0,.3,0,.6,0,.9-.8,.8-1.7,1.5-2.3,2.5-.3,.1-.7,.2-1,0-1.5-.4-2-1.5-2.2-2.9,.6-1.2,1.5-.8,2.4-.6,1,0,2,0,3,0Z"/>
      <path class="cls-25" d="M56.2,30c0-.6,0-1.1,0-1.7,.9-.6,1.7-1.3,2.8-2.1,.3,2.4-1.6,2.9-2.7,3.8Z"/>
      <path class="cls-15" d="M16.4,29.1c.7,.8,1.4,1.6,2,2.4,.3,.2,.3,.3,.2,.5-.1,.1-.2,.2-.3,.2-2.5,.4-3-1-2.7-3.1,.3-.2,.5-.2,.8,0Z"/>
      <path class="cls-41" d="M16.4,29.1c-.3,0-.5,0-.8,0-.3-.8-1.6-1.2-1.1-2.7,1.4,.6,2.7,1.3,4,1.9-.7,.2-1.6,0-2.1,.8Z"/>
      <path class="cls-29" d="M53,29.2c1.4-.4,2.2,.5,2.9,1.4,0,1-.4,1.9-1.3,2.5-.2-.3-.5-.6-.7-.9-.7-.9-1.1-1.8-1-3Z"/>
      <path class="cls-75" d="M27.4,15c.3-.2,.6-.5,.8-.7,1.2,.2,1.9,.9,2.3,2.1-.3,.3-.5,.5-.8,.8-1.6,.1-2.3-.7-2.4-2.2Z"/>
      <path class="cls-12" d="M41.7,18.7c.4,0,.8,0,1.1,.1,0,.4-.2,.9-.3,1.3,0,.5,0,1,0,1.5-2.9-.2-1.3-1.7-.8-2.9Z"/>
      <path class="cls-42" d="M48.5,35.1c.3-.6,.8-.7,1.4-.7,0,.7,.3,1.6-.5,1.9-.9,.3-.8-.6-.9-1.1Z"/>
      <path class="cls-52" d="M18.3,32.1c0-.2,0-.4,0-.7,.2,0,.5,0,.7,0,.8,.2,1.5,.5,1,1.6-.2,.2-.5,.4-.7,.6-.3-.5-.7-1-1-1.5Z"/>
      <path class="cls-58" d="M17.2,15.9c-.2,1-.8,1.6-1.6,2.2,0-1.1-.2-2.4,1.6-2.2Z"/>
      <path class="cls-1" d="M51.4,54.7c-1,0-1.6-.7-2.1-1.5,1.1,0,2.2-.2,2.1,1.5Z"/>
      <path class="cls-55" d="M48.5,58.5c0,.3,.1,.5,.2,.8-1.5,.5-3,1-4.5,1.5-.3-.2-.5-.5-.8-.7,1.3-1.8,3.2-1.7,5.2-1.5Z"/>
      <path class="cls-22" d="M23.8,54.8c2.6-1.3,4.3-.6,5.2,2.2-.5,.5-1,1-1.5,1.4-1.2,.6-2.5,.8-3.7,0h0c-.9-1.1-.6-2.3-.1-3.5Z"/>
      <path class="cls-2" d="M42.6,56.3c0,.4,0,.8,0,1.2-3,1.4-5.9,3.2-9.2,.9,.3-.2,.6-.5,.9-.8,1.5-1,3.4-.4,5-1.3,1.1-.4,2.2-1,3.3,0Z"/>
      <path class="cls-13" d="M27.6,63.7c-.2-1.2,.5-1.6,1.5-1.5,1.2,0,1.4-.7,1.5-1.6,1,.1,1.6,.7,1.5,1.7-.1,.8-.9,1.2-1.6,1.3-.9,.2-1.9,0-2.9,0Z"/>
      <path class="cls-44" d="M23.9,58.3c1.2,.2,2.5,.4,3.7,0,1,.8,2.5,.8,3,2.3-.8,0-1.5,0-2.3,0-.8-2.2-3.5-.6-4.5-2.3Z"/>
      <path class="cls-8" d="M23.8,54.8c0,1.2,0,2.4,.1,3.6-1.3-.7-.6-2-1-3,.1-.2,.2-.4,.3-.7,.2,0,.3,0,.5,.1Z"/>
      <path class="cls-6" d="M9.6,45.7c2.1,.2,1.4,1.8,1.5,3-.5,0-.9,0-1.4,0,0-1-.1-2-.2-2.9Z"/>
      <path class="cls-79" d="M48.3,15.7c.9,0,1.5,.4,1.3,1.3,0,.7-.3,1.5-1.3,1.5-1,0-1.6-.6-1.5-1.6,0-.8,.6-1.3,1.5-1.2Z"/>
      <path class="cls-18" d="M30,45c1.7-.6,3.2-1.6,5.1-1.7,1.3-.4,2.5-.4,3.8,0,1.2,.3,2.4,.6,3.6,.9,1.3,1.2,3.3,1.9,3,4.3-.7,1.5-2.3,2.1-2.8,4.2-.8,3.1-2.4-1.1-3.8-.2-.2-.3-.4-.6-.4-1,0-.1,0-.2,.1-.4,.3-1.3,2.8-1.6,1.7-3.3-1-1.5-2.8-1.3-4.4-1.2-1.9,.1-3.1,.9-2.9,3,0,.9,.9,1.7,.6,2.7-3.4,2.9-2.6-1.3-3.8-2.2-2.5-1.8-1.6-3.5,.2-5.1Z"/>
      <path class="cls-19" d="M38.8,51.6c0,.3,0,.6,0,.8-.2,1.3-.5,2.6-2.1,2.5-1.4,0-1.7-1.2-1.7-2.4-.2-.4-.2-.8,.2-1.2,1.3-.7,2.5-.8,3.6,.2Z"/>
      <path class="cls-35" d="M42.6,56.3c-.9,.2-1.8,.4-2.7,.6-1,.1-2.2,1-2.6-.7,2.1-1.2,4.3-1.7,6.7-1.5-.5,.5-.9,1.1-1.4,1.6Z"/>
      <path class="cls-7" d="M37.3,56.2c.7,.8,1.7,.6,2.6,.7-1.7,1.4-3.8,.4-5.6,.8-.2,0-.4-.2-.6-.2,.6-1.2,2.2-.2,2.9-1.3,.2,0,.5,0,.7,0Z"/>
      <path class="cls-76" d="M35.1,51.7c0,.3,0,.6-.1,.9-.5,0-.9-.2-1.4-.3-.5-.7-1.7-1-1.4-2.2,1.4-.2,2.6-.3,2.9,1.6Z"/>
      <path class="cls-51" d="M50.3,32.2c-.3,.3-.7,.6-1,.9-6.6,2.7-13.4,2.3-20.2,1.7-1.5-.6-3-1.2-4.5-1.8,0-1.5,1.2-1.9,2.2-2.2,7.5-1.9,15-1.9,22.4,.5,.5,.1,.8,.5,1.1,.9Z"/>
      <path class="cls-64" d="M50.3,32.2c-7.3-1.7-14.7-2.3-22.1-.8-1.3,.3-2.7,.4-3.7,1.5-1.1,0-2.3-.6-1.9-1.6,.4-.8,1.1-2.1,2.5-2.2,2.3-.2,4.6-.5,6.9-.8,3-.4,6-.5,9,0,2.7,.4,5.5,1,8.3,.8,1,.8,2.3,1.5,1,3.1Z"/>
      <path class="cls-66" d="M20.1,33c-.3-.5-.6-1.1-1-1.6-1.3-3.1,1.5-1.6,2.5-2.3,.3,1.6-.2,2.9-1.5,3.8Z"/>
      <path class="cls-33" d="M41,28.4c-3,0-6,0-9,0,0-.2,0-.4,0-.6,3,.2,6-.7,9,.6Z"/>
      <path class="cls-61" d="M27.4,15c.8,.7,1.6,1.5,2.4,2.2,1.3,2,1.4,3.2-1.7,3.1-3.7,0-7.4,.4-11.1,.6-.3-.3-1.7,.5-.9-1.1,2.5-4.6,5.8-6.2,11.2-4.9Z"/>
      <path class="cls-43" d="M53,29.2c2,.5,1.9,1.6,1,3-1.9,1.2-1.4-.8-1.9-1.5-.8-1.1-.1-1.4,.9-1.5Z"/>
      <path class="cls-78" d="M38.8,43.3c-1.3,0-2.5,0-3.8,0,0-.2,0-.3,.1-.5,1.2,0,2.6-.5,3.7,.5Z"/>
      <path class="cls-62" d="M35.1,51.7c-1-.5-1.9-1.1-2.9-1.6-1.3-2.8,.6-3.9,2.8-4.4,2.6-.5,5.5-.7,6.7,2.3,.9,2.3-1.7,2.5-2.9,3.6-1.2,0-2.5,0-3.7,0Z"/>
      <path class="cls-59" d="M25.3,15.7c.8,0,1.4,.5,1.5,1.3,0,1-.7,1.6-1.6,1.6-.8,0-1.3-.6-1.3-1.4,0-.9,.6-1.3,1.4-1.4Z"/>
      <path class="cls-67" d="M36.6,50.1c-1-.3-3,.7-3-1.5,0-2.4,2.2-1.5,3.4-1.8,1.1-.2,2.8,0,2.8,1.6,0,2-1.8,1.6-3.3,1.6Z"/>
    </g>
  </g>
</svg>