<?xml version="1.0" encoding="UTF-8"?>
<svg id="Capa_2" data-name="Capa 2" xmlns="http://www.w3.org/2000/svg" viewBox="0 0 68.6 79.2">
  <defs>
    <style>
      .cls-1 {
        fill: #cc1439;
      }

      .cls-2 {
        fill: #41462c;
      }

      .cls-3 {
        fill: #444d2c;
      }

      .cls-4 {
        fill: #739940;
      }

      .cls-5 {
        fill: #271d19;
      }

      .cls-6 {
        fill: #c2d399;
      }

      .cls-7 {
        fill: #e3113e;
      }

      .cls-8 {
        fill: #353d22;
      }

      .cls-9 {
        fill: #1c2717;
      }

      .cls-10 {
        fill: #759842;
      }

      .cls-11 {
        fill: #b7d18d;
      }

      .cls-12 {
        fill: #211a17;
      }

      .cls-13 {
        fill: #4d5532;
      }

      .cls-14 {
        fill: #fcfbfb;
      }

      .cls-15 {
        fill: #ede9e9;
      }

      .cls-16 {
        fill: #441410;
      }
    </style>
  </defs>
  <g id="Capa_1-2" data-name="Capa 1">
    <g>
      <path class="cls-12" d="M68.6,43.8c0,22.4-17.1,37.2-36.5,35.2-8.3-.8-15.7-3.7-21.9-9.3C-6.7,54.3-1.9,29.8,19.7,21.5c4.2-1.6,8.6-2.6,13.1-2.7,2.1,0,3-.8,3.8-2.6,2-4.4,4.3-8.7,6.5-13,2-4,5.4-3.3,8.8-2.8,3.2,.5,4.2,2.6,4.4,5.5,.3,5.3,.8,10.7,1.2,16,.1,1.5,.1,2.8,1.6,3.9,7.1,5.3,9.6,12.7,9.6,17.9Z"/>
      <path class="cls-6" d="M7.3,34.2c6-9,15-12,25.2-12.9,3.1-.3,.6,2.2,1.5,3,1.2,.3,1.4-.7,1.7-1.5,2.8-5.8,5.6-11.6,8.3-17.4,1.2-2.5,2.8-3.8,5.8-3.4,3,.4,4.3,2,4.3,4.9,0,1.9,.1,3.7,.2,5.6-.7,2.9-1.8,5.7-2.8,8.5-1.3,3.6-.6,5.2,2.7,7.2,2.2,1.3,4.7,2.3,6.9,3.7,5.1,5.4,5.3,12.1,4.6,18.8-.9,8.3-4.7,15-11.9,19.6-8.2,4.7-16.8,5-25.5,1.7-1-1.3-2.3-1.7-3.8-1.7-8-3.2-14-8.4-16.8-16.7,2.7-2.1,4-1.9,7.4,.9q-1.7-1.5-7.7-2.7c-2.7-3.9-3-8.3-2-12.8,.4-1.7,1.1-3.3,1.9-4.8Z"/>
      <path class="cls-4" d="M8.1,53.9c3.8,7,8.8,12.8,16.5,15.7,1.1,.9,2.8,.3,3.7,1.6,7.7,2.8,15.4,2.5,23.1-.1,.8-.3,1.6-.5,2.5-.7-9.2,7.2-19.5,7.6-30,4.4C11.2,70.8,1,58.8,2.8,44.6c.5-3.9,1.6-7.5,4.5-10.3-1.3,5.9-2.2,11.9,.3,17.7,0,.7-.4,1.4,.4,1.9Z"/>
      <path class="cls-10" d="M61.2,31.9c-.2,0-.5,.1-.7,0-12.6-4.6-12.9-6.2-6-19.4,.2,1.5,.7,2.9,.6,4.4-.6,6.1,1.2,11.2,6.2,15Z"/>
      <path class="cls-5" d="M41.1,48.6c-.2,4.4-1.3,8.6-3.3,12.5-1.9-.9-1.8-2.8-2.3-4.2-2.4-6.3-5.8-10.9-13.6-9.8-1,.1-2.5,.6-3-.6-.5-1.2,.9-1.9,1.6-2.7,7.9-8.7,17.6-12.9,30-11.6-2.1,3.2-6.7,4.4-5.6,8.8,.5,.8,.4,1.4-.5,1.7-2.3-1.8-1.1-5.3-3.5-7.1,1.9,2.5,2.6,5.3,2.4,8.3,0,1.2,0,2.2,.4,3.2-.1,1.7-1.9,.6-2.5,1.5Z"/>
      <path class="cls-2" d="M8.1,53.9c-.7-.3-1.8,.9-2.1-.2-.4-1.4,1.1-1.2,1.8-1.7,3.6-1,6.5,.2,9.9,3.2-3.9-.3-6.4-3.9-9.5-1.3Z"/>
      <path class="cls-8" d="M24.8,33c-2.6,3-4.3,6.6-7.4,9.1,1.5-3.8,3.9-6.9,7.4-9.1Z"/>
      <path class="cls-9" d="M44.3,42.6c.2-.5,.4-1,.5-1.5,1.2,1.7,.7,3.5,.7,5.3,0,3.4-3,1.4-4.5,2.2,.4-1,1.7-.6,2.2-1.3-.2-1.7-.6-3.4,1-4.7Z"/>
      <path class="cls-13" d="M40.1,22.9c.1-2.3,.6-4.4,2.7-6.8-.1,3.2-1.4,5.1-2.7,6.8Z"/>
      <path class="cls-3" d="M46.6,6.4c.4-1,.4-3.2,3.7-2.4-1.5,1-2.8,1.8-3.7,2.4Z"/>
      <path class="cls-11" d="M28.3,71.2c-1.4-.2-2.7-.5-3.7-1.6,1.3,.3,3.4-1,3.7,1.6Z"/>
      <path class="cls-14" d="M35.7,35.7c-2.4,3-2.8,5.7-2.3,8.4,.5,2.4-.7,2.4-2.3,2.4-1.2,0-2.5-.1-3.7-.1-1.4,0-2.5,0-3-1.9-.5-1.8,0-2.8,1.3-3.7,2.8-1.9,5.7-3.7,10-5.1Z"/>
      <path class="cls-1" d="M38.9,37.2c2.9,2,2.3,5,2,7.8-.1,1.2-1,2.2-2.6,2-1.5-.2-3-.2-3.7-1.9-1.1-2.8,0-6.2,2.8-8.4,.7,.7,.7,1.7,.7,2.6,.1,1.2-.9,2.3,0,3.6,.7-1.3-.2-2.5,0-3.7,0-.8,0-1.5,.8-2Z"/>
      <path class="cls-15" d="M44.3,42.6c-.4,1.5,.6,3.4-1,4.7-1-.2-1.9-.3-1.5-1.8,1.2-4.2,.6-7.9-3-10.9,5.2,.3,4.2,5,5.5,8Z"/>
      <path class="cls-7" d="M37.3,39.6c0-1,0-2,0-2.9,.6-.1,1.2-.2,1.5,.5,0,.8,0,1.6,0,2.5-.5,.4-1,.4-1.5,0Z"/>
      <path class="cls-16" d="M37.3,39.6c.5,0,1,0,1.5,0,0,.1,0,.2,0,.4,.4,1.5,1.1,3.1-.3,4.5-.4,.5-1.4,.5-1.6,0-.7-1.6-.8-3.3,.4-4.9Z"/>
    </g>
  </g>
</svg>