<?xml version="1.0" encoding="UTF-8"?>
<svg id="Capa_2" data-name="Capa 2" xmlns="http://www.w3.org/2000/svg" viewBox="0 0 76.6 74.5">
  <defs>
    <style>
      .cls-1 {
        fill: #20282f;
      }

      .cls-2 {
        fill: #23a2dc;
      }

      .cls-3 {
        fill: #302d2d;
      }

      .cls-4 {
        fill: #0680ad;
      }

      .cls-5 {
        fill: #f9f8f8;
      }

      .cls-6 {
        fill: #0b3844;
      }

      .cls-7 {
        fill: #15192f;
      }

      .cls-8 {
        fill: #048fc4;
      }

      .cls-9 {
        fill: #2a2020;
      }

      .cls-10 {
        fill: #d45422;
      }

      .cls-11 {
        fill: #173251;
      }

      .cls-12 {
        fill: #360f11;
      }

      .cls-13 {
        fill: #211b1b;
      }

      .cls-14 {
        fill: #22a2db;
      }

      .cls-15 {
        fill: #515254;
      }

      .cls-16 {
        fill: #d25124;
      }

      .cls-17 {
        fill: #20a1da;
      }

      .cls-18 {
        fill: #67170f;
      }

      .cls-19 {
        fill: #0e92be;
      }

      .cls-20 {
        fill: #686e6e;
      }

      .cls-21 {
        fill: #1d2f31;
      }

      .cls-22 {
        fill: #1f2830;
      }

      .cls-23 {
        fill: #2a2f32;
      }

      .cls-24 {
        fill: #606568;
      }

      .cls-25 {
        fill: #6a6e6f;
      }

      .cls-26 {
        fill: #676e6e;
      }

      .cls-27 {
        fill: #05aed1;
      }

      .cls-28 {
        fill: #676e6f;
      }

      .cls-29 {
        fill: #1e9ed3;
      }

      .cls-30 {
        fill: #4d4848;
      }

      .cls-31 {
        fill: #1e88c8;
      }

      .cls-32 {
        fill: #4e5656;
      }

      .cls-33 {
        fill: #492f28;
      }

      .cls-34 {
        fill: #552f25;
      }

      .cls-35 {
        fill: #1c2a34;
      }

      .cls-36 {
        fill: #134b59;
      }

      .cls-37 {
        fill: #1b2a3c;
      }

      .cls-38 {
        fill: #4f5655;
      }

      .cls-39 {
        fill: #545b60;
      }

      .cls-40 {
        fill: #1296b7;
      }

      .cls-41 {
        fill: #1a333a;
      }

      .cls-42 {
        fill: #1f2730;
      }

      .cls-43 {
        fill: #068ebd;
      }

      .cls-44 {
        fill: #212b32;
      }

      .cls-45 {
        fill: #be5a1f;
      }

      .cls-46 {
        fill: #00a7ca;
      }

      .cls-47 {
        fill: #213240;
      }

      .cls-48 {
        fill: #2b3535;
      }

      .cls-49 {
        fill: #058ec3;
      }
    </style>
  </defs>
  <g id="Capa_1-2" data-name="Capa 1">
    <path class="cls-13" d="M76.6,53.6c0,5.6-1.4,11.6-6.3,16.2-2.7,2.5-5.8,4.1-9.4,1.8-1.6-1-2.3,.1-3.2,.8-2.6,1.8-5.4,2.6-8.5,2-.8-.2-2.1-.5-2.3-1.1-1.6-4.9-5.5-2.8-8.7-2.9-6.7-.2-13.5,.4-20.2-.4-2-.2-3.9-.8-5.6-1.8-5.8-3.5-6.6-6.1-3-11.7,2.1-3.3,3-6,.1-9.6-2.1-2.6-1.7-6.2-1-9.4,.5-2.5,0-4.6-1.1-6.7C4.3,25,2.2,18.9,.6,12.6c-.4-1.7-1.2-3.4,.3-4.9,1.7-1.7,3.5-.7,5.2-.1,5.2,1.7,9.9,4.6,14.6,7.4,1.1,.7,2.2,1.5,3.4,.6,1.6-1.1,.1-2.3-.2-3.3-.9-2.6-2.1-5-3-7.6C19.6,1.3,20.8-.1,24.5,0c.6,0,1.3,0,1.9,.2,11.6,3.9,23.3,8.2,32.1,16.9,7.3,7.2,15.1,14.7,17.1,25.7,.6,3.3,1.1,6.6,1.1,10.9Z"/>
    <path class="cls-32" d="M15,48.8c0-2.7,0-5.4,0-8.2,.2-.3,.5-.4,.9-.5,2.4,.8,4.5-1.1,6.8-1,1.4,2.1,1.1,4.6,1.7,6.9,1.7,.1,2.6-1.8,4.3-.9,1.3,2.1,.5,5.1,2.7,6.8,.9,.7,1.9,1.3,3.1,1.1,3.6-.8,7.3-.4,11-1.2,1.8-.4,2.9-1.2,3.3-3,1.8-4.4,1.1-9.1,1-13.6-.7-1.9-.6-3.8,.3-5.6,.4-.9,1.5-.8,2-1.4-1.1,0-2.2,.5-3.2,0-.5-3.1,2.7-3.8,3.9-5.9,1.5-1.1,1.8-3.6,4.3-3.4,5.6,5.4,8.6,12,9,19.8,.2,3-.7,5.4-3,7.3-1.3,3-4.4,4.1-6.7,6-6.6,3.8-13.7,6.5-21,8.9-5.8,2.1-11.8,3.2-17.3,6-4,.7-6.1-1.9-8.2-4.5,4.4-1.8,6.1-5.8,8.3-9.6,1.3-2.2,1.1-3.5-1.9-3.3-.5,0-1-.2-1.3-.6Z"/>
    <path class="cls-2" d="M24.7,29.3c.6-3.3,1.2-6.5,1.8-10,1.9,.6,1.7,2.4,2.5,3.5,.6,.8,.2,3.1,1.9,2.3,1.5-.7,.1-2.2-.3-3.3-1.7-4.2-3.6-8.3-5.3-12.5-.9-2.2-2-4.3-2.3-6.7,2.4-.6,4.3,.2,6.2,1.3,5.4,4.2,12,6.6,17.2,11.2,2.2,2,4.9,3.6,5.8,6.6-.6,2.3-2.2,3.5-4.2,4.5-1.1,.2-1.4,1.1-1.8,2-1.6,2.4-4.3,3.9-6.1,6.1-2.9,2.3-5.1,5.3-8.6,6.8-2.2,0-2.9,1.5-3.6,3.2-3.4,2.2-3.7,2.1-4.3-1.7-.7-4.5-1.3-9,1-13.3Z"/>
    <path class="cls-14" d="M51,64.6c-2.1,1-4.2,2.1-6.7,2.3-.7,.4-1.3,.4-1.7-.5,.1-.9,.9-1,1.5-1.4,1.4-1.1,2.7-2.3,3.7-3.8,0,0,0-.2,0-.2,0,0,0,.2-.1,.3-1.2,1.6-2.5,3-4.3,3.9-3.2,2.2-6.7,3-10.5,2.7-4.4-.4-8.8,.5-13.2-.4h0c-.2-2.2,1.5-2.6,3-3,4.3-1.2,8.4-2.6,12.6-4,7.3-2.1,14.1-5.5,21-8.6,2.8-.2,3.1,1.3,2.4,3.5-.8,2.8-3.1,4.6-4.4,7.1-.7,1.3-2.1,1.4-3.3,2Z"/>
    <path class="cls-38" d="M66.8,53.4c1.2-7.5,1.1-15.1-.2-23.4,3.6,3.6,5.2,7.4,6.2,11.4,2,7.7,2.7,15.4-1,22.9-.7,1.3-1.3,2.7-2.9,3.3-.7-.7-.7-1.6-.5-2.4,.8-4.1,0-8-1.7-11.8Z"/>
    <path class="cls-28" d="M22.6,39.1c-1.9,1.9-4.1,3-6.8,1.5-1.5-5.9-1-11.5,2.9-16.5,.3-.5,.6-1,.9-1.4,1.1-1.1,2.3-1.9,3.8-1.2,1.3,.6,1.1,1.7,.7,2.8,0,1.2,0,2.4-.1,3.6-.7,1.7,.6,3.5-.3,5.1-.8,1.7-.2,3.5-.6,5.2-.1,.4-.3,.7-.7,1Z"/>
    <path class="cls-28" d="M66.8,53.4c3.9,3.2,2.9,7.5,2.7,11.6,0,.9-.3,1.7-.5,2.5-.7,.7-1.2,1.6-2,2.1-1.6,1-3.4,1.6-5.1,0-1.6-1.5-1.7-3.3-.6-5,2.2-3.6,4.1-7.3,5.5-11.2Z"/>
    <path class="cls-8" d="M51.9,22c-4.9-6.5-11.8-10.4-18.7-14.3-1.6-.9-3.5-1.4-3.9-3.7,9.1,2.9,17.4,7.5,25.4,12.7,1.5,1.8,.1,3.1-.8,4.5-.5,.6-1.1,1.1-2,.9Z"/>
    <path class="cls-17" d="M17.4,20.4c-.8,1.4-1.7,2.7-3.7,2.1-.9-.3-1.9-.5-2.3-1.5-.4-.2-.8-.4-1.2-.7-.9-.7-2.1-1.1-3-.5-1.3,.9,.8,1.8,.4,2.8-.3,.3-.6,.3-.9,0-2.7-1.6-1-5-2.9-7-.2-.2-.1-.7-.1-1.1-.1-1.8-2.3-3.9-.7-5,1.4-1,3.5,.9,5.2,1.7,1.1,2.2,3.6,2.9,5.2,4.5,1.4,1.4,3.7,2.1,3.9,4.5Z"/>
    <path class="cls-20" d="M61.5,60.8c-1,2-2.1,3.9-2.4,6.2-.5,3.5-7,6.4-10.3,4.9-1.2-.5-1.6-1.5-1.7-2.7-.2-1.4,1-1.4,1.9-1.8,1.5-.7,2.9-1.5,4.3-2.2,2.5-2.7,4.5-5.9,8.6-6.5,.2,.7,.2,1.4-.3,2.1Z"/>
    <path class="cls-26" d="M15,48.8c.7,0,1.5,0,2.2-.3,1-.4,2-.5,2.7,.4,.6,.9,.6,1.9,0,2.8-1.9,3-3.7,6.1-5.7,9.1-1,1.5-2.7,1.6-4.3,1.5-.4-1.5,.5-2.7,1.2-3.8,1.9-3,3.5-6.1,3.9-9.7Z"/>
    <path class="cls-29" d="M14.5,37.6c-.1,2.7-.2,5.4-.4,8.1-4.4-2.1-4.4-11.4,0-17.2,.6-.4,1.2-.4,1.8,0,0,3.1-.8,6.1-1.5,9.1Z"/>
    <path class="cls-35" d="M22.6,39.1c0-.2,0-.5,0-.7,.8-1.7-.2-3.6,.6-5.3,.3-1.7-.5-3.7,.8-5.3,.2,.5,.4,1,.7,1.5-.2,2.7-.5,5.4-.5,8.1,0,2.7-.2,5.4,.7,8.2,1.4-.1,2.1-1.2,3-1.9,.7-1.7,2.2-2.3,3.8-3,2.8-2.3,5.6-4.5,8.4-6.8,.3-.2,.6-.2,.9,.1,0,.2,.2,.6,0,.7-3.5,4.2-7.2,8.1-12.3,10.4q-4.5,3-5.5-2.4c-.2-1.2-.4-2.4-.6-3.6Z"/>
    <path class="cls-43" d="M53.4,62.5c.7-3,3.7-4.6,4.5-7.5,.5-1.8,.4-2.6-1.6-2.5-.2-.3-.2-.6,0-.9,2.7-1,4.2-4.1,7.5-3.8,.6,3.4-2,5.6-3.1,8.3-1.9,2.8-3,6.4-7.3,6.4Z"/>
    <path class="cls-49" d="M17.4,20.4c-2.5-2-4.6-4.5-7.5-6-1.3-.7-1.7-1.7-1.6-3,3.1,1.5,6.2,3,9.2,4.7,3.5,2,3.5,2.1-.2,4.4Z"/>
    <path class="cls-21" d="M35.4,61.1c-4.3,1.4-8.5,2.8-12.8,4.2-1.3,.4-2.7,.6-3,2.3-.5-.2-1-.5-1.5-.7,.6-1.5,1.9-2.3,3.3-2.7,4.6-1.4,9.2-2.7,13.9-4,.4,.3,.4,.6,0,1Z"/>
    <path class="cls-6" d="M19.7,67.5c5.4,0,10.7,.2,16.1,.2,3.2,0,5.3-2.8,8.4-3.4,.5,.2,.5,.6,.1,.9-.4,.3-.9,.7-1.3,1-.3,.7-1.4,.5-1.6,1.5-7.2,1-14.5,1.4-21.7-.2Z"/>
    <path class="cls-22" d="M14.5,37.6c-.5-3.1,.2-6.1,1.3-9-.9-1.3,.1-2,.8-2.9,0-1.5,.2-2.8,2.2-1.6-1.9,5.4-3.3,10.8-2.9,16.5-.2,0-.5,0-.7,0-.2-1,.3-2.1-.6-3Z"/>
    <path class="cls-42" d="M53.4,62.5c3.2-1.2,4.8-4.3,7.3-6.4,0,.6,.1,1.3,.8,1.6,.2,.2,.2,.3,.2,.5,0,.2,0,.3-.1,.3-2.8,2.1-5,5-8.3,6.6-.6-.8-1.4-.5-2.2-.6,.8-.7,1.6-1.3,2.4-2Z"/>
    <path class="cls-15" d="M24.2,24.2c-.3-4.1-2.9-1.6-4.6-1.6,.8-2.7,3.1-3.5,5.4-4.2,.5,2,0,3.9-.8,5.8Z"/>
    <path class="cls-39" d="M12.8,22.6c1.4,1.2,1.4,2.4,.1,3.7-.9,.9-1.5,0-1.7-.5-.6-1.5-2.4-2.5-1.5-4.4,0,0,1.1,.3,1.7,.5,.6,0,1.1,.2,1.4,.8Z"/>
    <path class="cls-41" d="M63.8,47.8c-2.5,1.4-5,2.8-7.5,4.2-.4-.3-.4-.6,0-.9,2.3-1.7,4.6-3.5,6.8-5.2,.2,.6,.5,1.3,.7,1.9Z"/>
    <path class="cls-30" d="M61.5,58.6c0-.3,0-.5,0-.8,1-1.6,2-3.3,3.1-4.9,0,3.1-1.2,5.6-3,7.9,0-.7,0-1.5,0-2.2Z"/>
    <path class="cls-40" d="M8.4,24c.9,2,4.2,3.3,2.2,6.6-1.6-1.4-2.1-3.3-2.8-5,.2-.5,0-1.2,.6-1.6Z"/>
    <path class="cls-23" d="M53.2,21c.5-1.4,2.2-2.5,1.4-4.3,.8,.7,1.6,1.5,2.4,2.2-1.9,.6-2,3-3.7,3.7-.5-.5-.4-1,0-1.6Z"/>
    <path class="cls-19" d="M16.5,25.7c-.3,1-.5,1.9-.8,2.9-.5,0-1.1,0-1.6,0,.6-1.1,.3-3,2.4-2.8Z"/>
    <path class="cls-31" d="M8.4,24c-.2,.5-.4,1.1-.6,1.6-.9-.8-1-1.8-.9-2.9,.3,0,.6,0,.9,0,.8,.2,.6,.8,.7,1.4Z"/>
    <path class="cls-4" d="M41.3,67.7c-.4-1.5,.8-1.2,1.6-1.5,.5,.2,1,.4,1.4,.6-.8,1.1-2,.6-3,.8Z"/>
    <path class="cls-36" d="M12.8,22.6c-.6,0-1.1-.2-1.4-.8,0-.3,0-.6,.1-.9,1.1,0,1.9,.5,2.3,1.5-.3,0-.6,0-1,.1Z"/>
    <path class="cls-25" d="M28.6,45.1c3.9-3.9,8.7-6.7,12-11.2,1.7-2.3,4.2-3.8,6.1-6,.5-.6,1.3-.7,2-.2,1.9,0,3.7-1.4,5.7-.1-.7,2.2-3,1.2-4.2,2.3-1.9,3.2-4.9,5.2-7.4,7.7-4,4.1-7.9,8.2-10.6,13.3-.3,.7-.8,1.3-1.6,1.5-2.3-2-2-4.8-2-7.4Z"/>
    <path class="cls-9" d="M30.6,52.5c4.3-9.5,11.7-16.3,19.6-22.6,0,1.5,0,3.1,0,4.6,.4,.7,.4,1.3-.4,1.7-1.7-1.5-2.3-1-2.3,1.1-.2,.5-.6,.7-1.1,.7-.3,0-.6,0-.8-.2-.6-.2-.5,.2-.6,.6,0,2,.3,3.9,1,5.7,0,.3,0,.7-.1,1-1.9,2-3.4,2.2-4.5-.8-.6-1.5-1.3-2.5-2.8-.7-.5,.5-.9,1-1.4,1.5-1,1.9-3.9,3.9-2.8,5.6,1.2,2,4.3,.7,6.6,.5,2.7-.2,5.5-.4,7.5-2.7,.4-.1,.7,0,1,.2,0,1.7-.6,3.1-2.2,3.5-4.7,1.1-9.5,1.4-14.3,1.6-.9,0-1.9-.5-2.5-1.4Z"/>
    <path class="cls-44" d="M56.3,51.1c0,.3,0,.6,0,.9,0,.2,0,.4-.1,.6-6.8,3.3-13.5,6.6-20.9,8.5,0-.3,0-.7,0-1,7.1-2.8,14.2-5.6,21-9Z"/>
    <path class="cls-47" d="M48.7,27.7c-3.3,1.2-4.7,5.1-8.1,6.2-.2,0-.5,0-.7-.1,1.5-2.5,4.3-3.7,6-6,.5-.7,.6-1.8,1.7-2.1,2-.5,2.8-2.5,4.3-3.7,.5-.3,.9-.7,1.4-1,0,.5,0,1.1,0,1.6-1.5,1.7-3,3.4-4.6,5.2Z"/>
    <path class="cls-3" d="M49.7,36.1c.2-.5,.4-1,.6-1.6,.8,4.8,1.4,9.6-.7,14.3,0,0-.4,0-.4,0h-.4c-.5-4.3-1.5-8.6,.8-12.8Z"/>
    <path class="cls-24" d="M36,21.9c-.2,0-.4,0-.7-.1-1.2-1.7-2.4-3.5-3.4-5.3-.3-1.2-1-2.3-.4-3.6,2.1,0,3.2,1.7,4.9,2.5,.7,.3,1.2,.9,1.7,1.4,1.6,1.6,3.3,3-.7,3.5-.7,0-.7,1.3-1.5,1.6Z"/>
    <path class="cls-1" d="M36,21.9c-.3-2.5,1.9-2.2,3.4-2.5-.9-1.8-2.1-2.6-3.3-3.7-.1-.6,0-1.1,.8-.7,1.4,.6,2.4,1.6,3.3,2.8,.6,.9,1.7,1.8,1,2.9-.5,.8-1.8,.4-2.4,0-1.8-1.6-.9,3.5-2.9,1.1Z"/>
    <path class="cls-37" d="M36.9,15.1c-.3,.2-.5,.5-.8,.7-1.4-.8-2.7-1.6-4.3-2.6,.2,1.3,.4,2.3,.6,3.4,.3,.4,.2,.8-.2,1.1-1.7-1.7-2.6-4.4-1.5-5.8,1.1-1.3,2.9,1.4,4.5,1.9,.6,.2,1.1,.9,1.7,1.3Z"/>
    <path class="cls-48" d="M32.2,17.6c0-.4,.1-.7,.2-1.1,1,1.7,3.1,2.8,2.9,5.2-1.8-.8-2.9-2.1-3.1-4.1Z"/>
    <path class="cls-46" d="M31.6,40.7c-.9,1.5-2.6,1.9-3.8,3-.4-3.1,1.5-3.3,3.8-3Z"/>
    <path class="cls-27" d="M47.6,25.7c-.2,1-.8,1.7-1.7,2.1-.2-1.3,0-2.3,1.7-2.1Z"/>
    <path class="cls-11" d="M44.3,65.2c0-.3,0-.6-.1-.9,1.3-1.4,2.6-2.9,3.9-4.3,.3,.1,.6,.4,.7,.8-.9,2.1-2.3,3.6-4.4,4.5Z"/>
    <path class="cls-7" d="M48.7,60.8c-.2-.3-.4-.5-.7-.8,0-.6,.3-1.4,.9-1,.8,.5,0,1.2-.3,1.8Z"/>
    <path class="cls-32" d="M23.2,33.1c0,1.8,.6,3.7-.6,5.3,0-1.8-.6-3.7,.6-5.3Z"/>
    <path class="cls-5" d="M49.7,36.1c.2,4.3-.2,8.5-.8,12.8-.4,1.6-1.5,2.6-3.1,2.8-4.4,.5-8.8,1.3-13.5,.7,.8-3.2,3-5.5,4.5-8.1,1.9-.3,2.3,1.6,3.3,2.5,1,.9,1.8,2,3.1,2.5,2.4,.4,3-1.2,3.5-3,.6-2,.2-3.9-.3-5.8-.1-1,0-2,.6-2.8,0-.2,0-.5,0-.7-.6-1.5-.7-3.2,1.1-3.5,1.6-.2,1.1,1.7,1.5,2.7Z"/>
    <path class="cls-10" d="M38.6,43.6c0-1.4,.7-2.6,1.9-2.7,1.2-.1,.9,1.5,1.3,2.3,.9,1.8,1.6,3.5,3.9,1.7,1.1,0,1.3,.7,1.2,1.6-.5,2-1,3.8-3.7,3.5-2.2-1.6-4.3-3.4-4.6-6.4Z"/>
    <path class="cls-16" d="M45.8,44.5c-2.2-1.9-1.4-4.5-1.5-6.9,.5-.4,1.1-.4,1.6,0h.2c.6,1,.9,2.1,.9,3.3,.3,1.4,.5,2.8-1.2,3.6Z"/>
    <path class="cls-34" d="M38.6,43.6c1.4,1.9,2.9,3.9,4.3,5.8,.2,.2,.3,.4,.2,.6,0,.2-.2,.2-.3,.2-3.3-.7-3.4-4.5-6-5.9,.4-.8,1.1-.7,1.7-.7Z"/>
    <path class="cls-18" d="M45.8,44.5c.8-1.2,.8-2.5,.9-3.9,.3-.3,.6-.3,.8,.1,.9,1.9,.6,3.9,.2,5.9-.4,.4-.7,.3-1,0,0-.7-.1-1.3-.8-1.7,0,0,0-.4,0-.4Z"/>
    <path class="cls-12" d="M47.4,40.7c-.3,0-.5,0-.8-.1-.2-1-.4-2-.6-3.1,.3,0,.7,0,1,0,.1,1,.2,2.1,.3,3.1Z"/>
    <path class="cls-45" d="M45.8,37.6c-.5,0-1.1,0-1.6,0,0-.7,0-1.6,.9-1.6,1.1,0,.5,1,.7,1.6Z"/>
    <path class="cls-33" d="M46.5,46.5c.3,0,.7,0,1,0-.3,2.9-1.6,4.5-4.8,3.6,0-.3,0-.5,.1-.8,2.5,.8,2.7-1.5,3.6-2.8Z"/>
  </g>
</svg>