<?xml version="1.0" encoding="UTF-8"?>
<svg id="Capa_2" data-name="Capa 2" xmlns="http://www.w3.org/2000/svg" viewBox="0 0 74 69.3">
  <defs>
    <style>
      .cls-1 {
        fill: #2a2732;
      }

      .cls-2 {
        fill: #cbd6e4;
      }

      .cls-3 {
        fill: #22315d;
      }

      .cls-4 {
        fill: #262f61;
      }

      .cls-5 {
        fill: #282829;
      }

      .cls-6 {
        fill: #2d2d31;
      }

      .cls-7 {
        fill: #cfd7e8;
      }

      .cls-8 {
        fill: #3f3b43;
      }

      .cls-9 {
        fill: #e0edf5;
      }

      .cls-10 {
        fill: #1f283c;
      }

      .cls-11 {
        fill: #27346f;
      }

      .cls-12 {
        fill: #23242d;
      }

      .cls-13 {
        fill: #21203f;
      }

      .cls-14 {
        fill: #282732;
      }

      .cls-15 {
        fill: #1b1d1f;
      }

      .cls-16 {
        fill: #1e1e1f;
      }

      .cls-17 {
        fill: #28282d;
      }

      .cls-18 {
        fill: #233260;
      }

      .cls-19 {
        fill: #20203f;
      }

      .cls-20 {
        fill: #39393a;
      }

      .cls-21 {
        fill: #243363;
      }

      .cls-22 {
        fill: #263269;
      }

      .cls-23 {
        fill: #e6e0e1;
      }

      .cls-24 {
        fill: #22283c;
      }

      .cls-25 {
        fill: #222b54;
      }

      .cls-26 {
        fill: #212b53;
      }

      .cls-27 {
        fill: #505253;
      }

      .cls-28 {
        fill: #434549;
      }

      .cls-29 {
        fill: #211919;
      }

      .cls-30 {
        fill: #222a53;
      }

      .cls-31 {
        fill: #26336a;
      }

      .cls-32 {
        fill: #dce6ee;
      }

      .cls-33 {
        fill: #263671;
      }

      .cls-34 {
        fill: #251d1e;
      }

      .cls-35 {
        fill: #263775;
      }

      .cls-36 {
        fill: #ece9ea;
      }

      .cls-37 {
        fill: #484d56;
      }

      .cls-38 {
        fill: #25232c;
      }

      .cls-39 {
        fill: #e0ecf4;
      }

      .cls-40 {
        fill: #241c1c;
      }

      .cls-41 {
        fill: #23272c;
      }

      .cls-42 {
        fill: #1b2542;
      }

      .cls-43 {
        fill: #26284a;
      }

      .cls-44 {
        fill: #fefefe;
      }
    </style>
  </defs>
  <g id="Capa_1-2" data-name="Capa 1">
    <g>
      <path class="cls-29" d="M58.7,20.2c-.5,.8-1,1.7-1.7,3,5.4-1.9,10-.6,14.3,2.1,1.6,1,2.7,2.2,2.7,4.1,0,7.4-.2,14.7-1.7,22-1,4.6-2.2,5.2-6.3,2.8-2.2-1.3-4.4-1.8-6.8-1.1-5.8,1.5-11.1,3.6-15.5,8.2-8.3,8.6-18.7,9.5-29.7,6.7-1.1-.3-2.1-1.2-3.2-.5-3.5,2.6-4.9,0-6.2-2.5C0,56.5-1.3,47.3,1.2,38.1c2.5-9.3,3.9-18.7,6.1-28,.5-1.9,.1-5.1,2.7-5,2.7,.1,2.2,3.4,2.7,5.5,.4,1.7,.6,3.4,.9,5.6,6.4-5.2,13.2-9,20.7-11.5C41.8,2.2,49.4,.8,57.1,0c3-.3,3.6,.7,2.3,3.5-.8,1.6-1.6,3.2-2.9,5.6,2.6-1.1,4.3-1.9,6.2-2.5,1.1-.4,2.4-1,3.4,.3,.8,1.1,.1,2.2-.4,3.1-2.1,3.5-4.2,7-7,10.1-.8-.6-1-1.4-.9-2.4,0-.3,.2-.7,.3-1,.8-.9,1-2,1.5-3,.7-.9,1-1.9,1.4-2.9,0-.3,.9-.8-.1-.8-.7,0-1.3,.4-1.9,.9-.3,.2-.5,.4-.8,.5-1.1,.3-2.1,.7-2.9,1.5-1.2,.7-2.4,1.5-3.9,1.5-.8-.1-1.4-.4-1.5-1.3,1.6-2.3,3-4.6,4.2-7,.8-1.7,.7-2.6-1.5-2.3-12.9,2.2-25.5,5.1-35.6,14.2-8.4,7.5-13.5,16.5-13.1,28.1-.2,4.9,.4,9.6,2.3,14.2,1.1,2.7,2.5,4.2,5.6,3.2,.8,0,1.5,.3,2.2,.6,14.6,3.8,24.2,.2,30.2-9.3,1-1.6,1.9-3.2,2.3-5.1,1.2-4.7,1.7-9.4,0-14.1-.4-.7-.7-1.4-.7-2.2,0-1,.5-1.7,1.4-2.2,1.3-.4,1.5-1.6,1.9-2.6,.8-1.3,1.2-2.8,2.8-3.5,1.3-.4,1.3-1.7,1.8-2.7,.8-1.4,1.4-3.2,3.5-3.2,.6,0,1.1,.4,1.5,.9Z"/>
      <path class="cls-9" d="M2.9,46.2c-.2-12.7,5.3-22.5,15-30.2C29.1,7.2,42.5,4.3,57.3,2.4c-2.8,4-3.2,8.5-7,11-2.4,2.7-5.9,3.8-8.9,5.7-4.4,2.3-8.5,5-12.7,7.5-4.7,2.6-9.1,5.5-9.2,11.7-.7,2.1-.3,4.4-1.1,6.5-.3,2.3-1,4.5-1,6.9,0,3.2,0,3.2,3,1.6,.3-.2,.6-.4,.9-.6,.6-.4,1.2-.7,1.8-1.1,5.6-3.4,11.2-6.9,16.9-10.3,1.9-1.4,3.4-3.3,5.2-4.9,.6-.6,1.3-1,2.1-1.3,2.1,5,1.9,10,0,15-4.9,5.6-10.6,9.5-18.4,9.4-3.1-.2-6.2,1-9.3,.5-7.7-1.9-13.2-6.4-16.5-13.7Z"/>
      <path class="cls-39" d="M50.3,47c0-.5,0-1,.1-1.4,1.4-4.4,.8-9.1,1.1-13.6,1.3-2.1,3.1-3.9,5-5.4,4.1-3.2,11.2-2.7,14.5,1.3,1.9,2.3,.4,5.3,.8,7.9-4.4,1.1-8.6-1.1-8.7-4.4-1.7-1.8-3.4-.2-5.1,0,1.7,0,3.4-1.6,5.1,.1-.2,2.3,0,4.7-1,6.9-.5,1.2-1.4,1.9-2.7,2-1.7,.1-3.4-.2-5.5,.8,0,0,.7,.5,.4,0-.1-.2,0-.3,.2-.3,1.8-.6,3.7-.5,5.5-.4,.4,0,.7,.2,1.1,.4,2.1,1.7,5.4-.3,7.2,2.4,.7,.3,1.5,.6,2.2,.9,1,.5,1.2,1.5,1.1,2.5-.1,2.6-.9,3.1-3.3,2-.9-.4-1.7-.9-2.7-1.1-.9-.3-1.8-.4-2.6-.4,.4,0,1.1,0,1.7,.2,2.2,.8,4.7,1.2,5.8,3.7-.4,1.9-.9,3.3-3.2,1.5-3.6-2.9-7.7-1.5-11.7-.8-2.5-.6-3.7-2.7-5.2-4.5Z"/>
      <path class="cls-35" d="M47.9,31.9c-.9,0-1.5,.6-1.5,1.5-.4,1.4-1.8,2.3-2.2,3.7-.6,1.3-1.7,1.7-3,1.4-.3-.1-.6-.3-.9-.5-.6-1-.9-2.1-1.6-3-.5-.9-.7-2.1-1.8-2.6-1.8-1.6-2.8-4.1-5.4-4.8-.4-.4-.5-.9-.4-1.4,.1-.3,.3-.6,.6-.8,1.7-.5,3.6-.6,4-2.8,1.6-1.7,3.8-2.5,5.8-3.5,3.5-1.6,6.6-3.9,10.3-5.1,1.2-.5,2.4-1.1,3.6-1.6,.8-1,2.3-.4,3-1.5h0c1.1-.7,2.1-.9,3.2,0-.3,1.1,.3,2.7-1.6,3.1-1.2,.6-.6,2.2-1.6,2.9h0c-1.1,.7-.5,2.4-1.7,3-2,.1-1.2,2.8-2.8,3.2-1.1,.6-.5,2.2-1.6,2.8-1.9,.2-1.2,2.8-2.9,3.2-1.1,.6-.5,2.3-1.7,2.8Z"/>
      <path class="cls-7" d="M28.5,58.9c6.9,0,12-4.3,17.3-7.9,.5-.3,1-.7,1.5-1.1-2.4,10.7-13.3,17.8-25.7,16.8-2.7-.2-5.4-.7-7.9-1.9,.6-3.5,3.8-3.7,6.1-5.1,1.1-.2,2.3-.1,3.4-.1,1.9,.3,3.6-.8,5.4-.8Z"/>
      <path class="cls-7" d="M2.9,46.2c3.7,4.6,7.3,9.2,13,11.7,1.3,.5,2.5,1.1,3.9,1.2,0,.4-.2,.6-.4,.9-2.5,1.4-4.6,3.3-7.4,4.2-3.2,2.1-4.8,.9-6.1-2.4-2-5-3.3-10.1-2.9-15.5Z"/>
      <path class="cls-32" d="M71.9,38c-.1,1.1-.4,2.2-.4,3.2,0,2.4-1.5,1-2.4,1.1-2.7-1-5.8,0-8.5-1.4h0c-.3-.2-.4-.5-.2-.8,.7-.5,1.3-1.2,1.6-2.1,.9-3.6,1.7-4.1,5.1-3.1,1.9,.6,3.8,1.1,4.7,3.1Z"/>
      <path class="cls-31" d="M10.6,11c2,4.5,2.3,8.7-2.7,12-.7-2.1-.2-4-.2-5.9,.8-.9,.5-2.3,1.3-3.2,0-1,.1-1.9,.2-2.9,.5-.5,1-.5,1.5,0Z"/>
      <path class="cls-2" d="M50.3,47c2.7,.4,3.3,3.1,5.2,4.5-2.3,1-4.6,2-7.3,3.3,.8-2.8,1.5-5.3,2.2-7.8Z"/>
      <path class="cls-2" d="M51.6,31.9c1.9,4.7,.8,9.2-.4,13.8-.2,0-.5-.1-.7-.2-.3-3.3,.2-6.6-.7-9.9-.5-1.7,.9-2.6,1.8-3.7Z"/>
      <path class="cls-24" d="M51.9,14.1c-2.9,2.6-6.4,4.2-9.9,5.8-.5-.4-.8-.8-.8-1.5,2.8-2.1,5.9-3.7,9-5.1,.5,.2,1.1,.5,1.6,.7Z"/>
      <path class="cls-17" d="M71.9,38c-.9-.6-1.9-1.2-2.9-1.7-4.7-2.2-5.1-2-6.8,2.5-.5,0-.5-.5-.6-.9,.4-2.2,.8-4.4,1.2-6.6-.3-.7,0-.9,.7-.9-.2,2.6,1,3.8,3.6,3.8,1.7,0,3,1.6,4.8,1.4,0,.8,0,1.6,0,2.4Z"/>
      <path class="cls-16" d="M65.3,46.9c1.9-.1,3.2,1.2,4.9,2.1,.8-1.7,1.6-3.3,.2-5,3,2.3,1.7,4.6,0,6.9-1.7-1.6-3.6-2.7-5.9-3.2,0-.7,0-1.1,.8-.7Z"/>
      <path class="cls-27" d="M60.7,40.9c2.9,0,5.8-.2,8.5,1.4-.3,.2-.6,.5-.9,.7-2.1-.2-4.1-.6-6.2-.7-1,0-1.7-.2-1.4-1.4Z"/>
      <path class="cls-8" d="M11.9,64.1c2.4-1.7,4.7-3.5,7.6-4.4,.1,0,.2,.2,.3,.2,0,.3,0,.5-.3,.6-1.6,1.9-4.5,2.2-6,4.4-.6-.3-1.1-.5-1.7-.8Z"/>
      <path class="cls-26" d="M61.7,11c-1.1,0-2.1,0-3.2,0,.3-2.1,2.7-1.1,3.6-2.5,.2-.3,.8,.3,.9,.8,.1,1-.2,1.7-1.3,1.7Z"/>
      <path class="cls-43" d="M43.6,36.5c0-1.9,1.9-2,2.8-3.1,.3,.5,.5,1.1,.8,1.6-.5,.5-.9,1-1.4,1.5-.7,.5-1.4,.6-2.2,0Z"/>
      <path class="cls-30" d="M10.6,11c-.5,0-1,0-1.5,0,.2-.9-.7-2.5,.9-2.5,1,0,.4,1.6,.6,2.5Z"/>
      <path class="cls-25" d="M58.5,11c-.2,2.1-1.8,1.4-3,1.5,.3-2,1.8-1.3,3-1.5Z"/>
      <path class="cls-42" d="M8.9,13.9c0,1.2,.6,2.7-1.3,3.2,0-1.2-.6-2.7,1.3-3.2Z"/>
      <path class="cls-4" d="M58.5,16.9c.2-1.1-.5-2.8,1.6-2.9-.3,1.1,.5,2.8-1.6,2.9Z"/>
      <path class="cls-13" d="M56.9,19.9c.3-1.1-.5-2.8,1.7-2.9,0,1.1,.1,2.1,.2,3.2,0,0,0,0,0,0-.6,0-1.2-.2-1.8-.3Z"/>
      <path class="cls-42" d="M52.4,25.9c.4-1.1-.5-2.8,1.6-2.8-.2,1.1,.5,2.8-1.6,2.8Z"/>
      <path class="cls-42" d="M47.9,31.9c.4-1.1-.5-2.8,1.7-2.8-.3,1.1,.5,2.8-1.7,2.8Z"/>
      <path class="cls-34" d="M40.5,41.7c-5.7,3.5-11.5,7-17.2,10.5-.7,.3-.9,0-1.1-.6,2.2-2.4,1.9-4.8,0-7.2-.2-.3-.3-.7-.4-1-.2-.9-.2-1.8-.2-2.7,0-1.3,.2-2.6,1.6-3.3,1.3-.4,1.5-1.6,1.8-2.7,1.4-2.9,3.4-5.2,6.6-6.2,.8,0,1.5,.2,1.7,1-2.4,4.5-2.7,6.1-1.7,12.1,.1,.7,0,1.5,.4,2.5,2.9-1.7,6.1-2.6,7.1-6.3,.5-.2,1-.2,1.5,.2h0c1.1,1.3,.8,2.5,0,3.7Z"/>
      <path class="cls-38" d="M18.8,38c-.4-6.9,4.5-9.6,9.7-12,.5,.4,.7,.9,.7,1.5-.7,3.2-4.2,3.1-6,4.9-1.2,.7-1.2,1.8-1.2,3,0,.9,0,1.8-.6,2.6-.4,.5-.9,.6-1.5,.6-.4,0-.7-.2-1-.5Z"/>
      <path class="cls-12" d="M28.5,27.2c0-.4,0-.9,0-1.3,4-3,8.2-5.4,12.7-7.5,.6,.3,.8,.8,.8,1.5-2,1.1-4,2.2-5.9,3.2-1,1.8-3,2-4.5,2.9h0c-.9,.6-1.5,2.3-3.1,1.2Z"/>
      <path class="cls-34" d="M22,53c-1.7,1.4-3.8,3.5-5.6,2.6-1.4-.7,.2-3.5,.2-5.5,0-1.8,.5-3.6,.9-5.5,1.3,.1,1.2,1.2,1.5,2.1,0,.9,0,1.8,0,2.7,0,1-.2,2.2,1.4,2.5,.6,.2,1.3,.4,1.7,1Z"/>
      <path class="cls-1" d="M22,53h-2.5c-.7-.9-.7-1.9-.6-2.8,.3-1.1,.4-2.2,.5-3.3,.2-1.2,.5-2.3,1.4-3.1,.6-.3,1.1-.3,1.6,0l.2,.2c1.1,2.4-.2,4.8-.2,7.2,.3,.3,.5,.6,.8,.9-.3,.6-.7,.8-1.3,.8Z"/>
      <path class="cls-6" d="M19.5,59.7c.1-.2,.2-.4,.3-.6,3.4-.2,7.3,1.3,9.1-3.6,1,1.7,0,2.5-.4,3.5-1.6,1-3.4,1.5-5.3,1.3-1.1-.5-2.3,0-3.4-.4l-.3-.2Z"/>
      <path class="cls-16" d="M40.5,41.7c0-1.2,0-2.4,0-3.7,1.3,0,2.8,.5,3.1-1.5,.7,0,1.5,0,2.2,0-1.3,2.2-3.3,3.7-5.3,5.2Z"/>
      <path class="cls-5" d="M18,46.9c0-.8,.1-1.6-.6-2.2,.6-2.2,.2-4.7,1.4-6.8,.3,0,.5,0,.8,0,.7,.8,.9,1.8,.9,2.9,0,1,0,2-.3,3-.8,1-.2,2.9-2.1,3.1Z"/>
      <path class="cls-28" d="M35.4,51.4c-1.3,2.3-3.2,2.9-5,3.8,.8-2.2,1-2.4,5-3.8Z"/>
      <path class="cls-20" d="M63.6,30.5c-.2,.3-.4,.6-.7,.9-2.5-.8-4.9,1-7.4,.5,2.6-1.2,5-3.1,8.1-1.4Z"/>
      <path class="cls-41" d="M60.8,40.2c0,.3,0,.5,0,.8h-6.9c1.6-1.3,3.5-1.3,5.4-1.4,.4,.3,1.2,0,1.5,.6Z"/>
      <path class="cls-37" d="M65.3,46.9c-.3,.2-.5,.5-.8,.7h-4.6c1.7-1.8,3.5-1.7,5.4-.7Z"/>
      <path class="cls-40" d="M60.8,40.2c-.5-.2-1-.4-1.5-.6,1.1-.1,2-.5,2.4-1.6,.2,.3,.4,.6,.6,.9,0,1-.6,1.4-1.5,1.4Z"/>
      <path class="cls-11" d="M28.5,27.2c1-.4,2-.8,3.1-1.2,0,.5,0,1,0,1.5,.4,.5,.4,1,0,1.4-2.4,1.6-4.4,3.6-6,6-1,.8-.4,2.3-1.5,3-2,.3-1.1,2-1.6,3-.6,.5-1.2,.3-1.6-.2-.6-1-.4-2,.2-3,0-.9,.1-1.8,.2-2.8,.9-.8,.5-2.3,1.4-3.1,1.3-2.4,5.1-1.7,6-4.7Z"/>
      <path class="cls-14" d="M31.4,28.9c0-.5,0-1,0-1.4,3.7-.8,4,3,5.9,4.5,.8,.7,.8,1.6,.5,2.5-.2,.3-.4,.6-.8,.7-2.5-1-3.5-3.3-4.2-5.6-.5-.2-1-.4-1.6-.6Z"/>
      <path class="cls-31" d="M31.5,26c1-1.7,3-2,4.5-2.9,.4,3.9-2.5,2.6-4.5,2.9Z"/>
      <path class="cls-10" d="M40.5,38c-.5,0-1,0-1.5,0-1.4-.4-2.2-1.2-1.8-2.8,.1-.1,.2-.2,.4-.3,.5-.4,.9-.4,1.4,0,1.8,.4,1.2,1.9,1.4,3.1Z"/>
      <path class="cls-18" d="M39.1,34.9c-.5,0-1,0-1.4,0,0-1-.1-1.9-.2-2.9,2,.1,1.4,1.8,1.6,2.9Z"/>
      <path class="cls-15" d="M19.8,59.8c1.2,0,2.4-.4,3.4,.4-1.2,0-2.4,.2-3.7,.3,0-.2,.2-.5,.3-.7Z"/>
      <path class="cls-44" d="M37.3,35.2c.6,.9,1.2,1.8,1.8,2.8,.9,1.6,.8,2.8-1.1,3.7-2.4,1.2-4.6,2.7-7.2,4.3,.2-4-.3-7.4-2.4-10.3-.9-1.2-.1-1.8,.6-2.5,1.3-1.3,2.7-2.5,4.1-3.7,2.2,1.3,2.5,4.1,4.3,5.7Z"/>
      <path class="cls-36" d="M22.5,51.4c-2.1-2.5,.3-4.8,.2-7.2,.3,.4,.6,.8,.9,1.1,2.2,2.5,2.4,4.6-1.1,6.1Z"/>
      <path class="cls-23" d="M26.3,42.2c0,.8-.3,1.5-1,1.5-1.1,0-1.3-.9-1.3-1.8,0-.7,.2-1.4,.9-1.4,1,0,1.3,.9,1.4,1.7Z"/>
      <path class="cls-19" d="M24,37.9c.2-1.1-.4-2.7,1.5-3-.1,1.2,.7,2.8-1.5,3Z"/>
      <path class="cls-22" d="M21,41c.4,0,.9,0,1.3,0,0,1,0,2,.1,2.9-.5,0-1,0-1.5,0-.8-.8-.8-1.6-.4-2.6,.1-.1,.3-.3,.4-.4Z"/>
      <path class="cls-21" d="M22.5,31.9c-.1,1.2,.6,2.7-1.4,3.1,0-1.2-.5-2.7,1.4-3.1Z"/>
      <path class="cls-22" d="M20.9,37.8c0,1.1,0,2.1,0,3.2-.4,.4-.9,.4-1.4,0,0-1,0-2,0-3,.4,0,.9-.2,1.3-.3Z"/>
      <path class="cls-3" d="M18,46.9c.5-1,1-2,1.5-3,1.1,.8,0,2.1,.7,3,0,1.1,.4,2.2-.7,3.1-.5,.4-1,.4-1.4,0,0-1,0-2,0-3Z"/>
      <path class="cls-33" d="M18.1,50c.5,0,1,0,1.4,0,0,1,0,2,0,3-2.3-.1-1.2-1.8-1.4-2.9Z"/>
      <path class="cls-11" d="M20.2,46.9c-1-.8-.5-2-.7-3,0-1,.1-2,.2-2.9,.5,0,.9,0,1.4,0,0,1,0,2,0,3-.3,1-.5,2-.8,2.9Z"/>
    </g>
  </g>
</svg>