<?xml version="1.0" encoding="UTF-8"?>
<svg id="Capa_2" data-name="Capa 2" xmlns="http://www.w3.org/2000/svg" viewBox="0 0 103.9 108.6">
  <defs>
    <style>
      .cls-1 {
        fill: #483440;
      }

      .cls-2 {
        fill: #231818;
      }

      .cls-3 {
        fill: #1b1416;
      }

      .cls-4 {
        fill: #f3f1f1;
      }

      .cls-5 {
        fill: #2d1c1c;
      }

      .cls-6 {
        fill: #494040;
      }

      .cls-7 {
        fill: #beadad;
      }

      .cls-8 {
        fill: #413636;
      }

      .cls-9 {
        fill: #c3abb2;
      }

      .cls-10 {
        fill: #2e2322;
      }

      .cls-11 {
        fill: #c0acb0;
      }

      .cls-12 {
        fill: #483b3e;
      }

      .cls-13 {
        fill: #fefdfd;
      }

      .cls-14 {
        fill: #4e3e3f;
      }

      .cls-15 {
        fill: #bd8fb8;
      }

      .cls-16 {
        fill: #393033;
      }

      .cls-17 {
        fill: #c2abb2;
      }

      .cls-18 {
        fill: #1f1212;
      }

      .cls-19 {
        fill: #b894b4;
      }

      .cls-20 {
        fill: #3c3333;
      }

      .cls-21 {
        fill: #433a3c;
      }

      .cls-22 {
        fill: #3b3133;
      }

      .cls-23 {
        fill: #514344;
      }

      .cls-24 {
        fill: #c4abb3;
      }

      .cls-25 {
        fill: #efdfe6;
      }

      .cls-26 {
        fill: #574847;
      }

      .cls-27 {
        fill: #524647;
      }

      .cls-28 {
        fill: #483d41;
      }

      .cls-29 {
        fill: #5c5252;
      }
    </style>
  </defs>
  <g id="Capa_1-2" data-name="Capa 1">
    <g>
      <path class="cls-2" d="M58.9,108.6c-19-1.5-36.6-7.7-48-25.8-2-3.2-3.9-6.6-6.4-9.4C-.7,67.5-.8,61,1.3,54.1c2.5-8,7-15,11.2-22.1,5.2-8.8,4-16.2-3.9-22.8-1.5-1.3-3.5-2.3-2.7-4.7,.7-2.4,2.9-3.5,5-3.4,9.3,.5,18.7,1.1,23.7,10.8,1.1,2.1,2.4,1.7,3.9,1.2,13.1-4.1,25.6-2.8,37.8,3.4,2.8,1.4,6.5-2.3,6.6-6.4,0-1.2-.6-2.5-.6-3.7,0-2.2,.6-4.4,2.5-5.7,2-1.4,3.7,0,5.4,1.1,10.2,6.3,13.3,13.2,11,25.1-.9,4.6-1.9,9.1-3.3,13.6-1.5,4.6,.9,9.1,3.2,12.7,4.7,7.7,3.2,13.9-2.9,19.8-1.8,1.8-3.2,3.9-4.9,5.8-2.8,3.3-3.9,6.3-1.1,10.6,2.8,4.4,.9,8.5-4.7,12-8.4,5.3-17.8,6.8-28.6,7.1Z"/>
      <path class="cls-25" d="M11.6,41.3c1.1-4,3.9-6.8,6.7-9.6,.7-1.7,2.2-2.9,3.1-4.4,1.8-2.8,2.4-5.7,.6-8.6-2.6-4.1-5-8.3-9.4-10.9-1.2-.8-2.7-1.1-3.4-2.5,6.6-3.6,20.2,1.7,23,8.8,2.1,5.4,3.4,11.1,7.5,17.1,.5-4.7-1.4-7.2-2.5-9.9-1.3-3-.5-4.1,2.4-5,14.2-4.2,27.4-2.1,39.6,6.3,1.1,.8,2.2,3.2,4,1.7,1.7-1.6-.6-2.4-1.5-3.2-1.3-1.2-.3-1.8,.3-2.6,2.8-3.5,4.7-7.2,3.2-11.9-.3-.9-.4-2.4,.9-2.8,.7-.2,1.7,.4,2.4,.8,6.9,3.8,10.7,9.3,9.9,17.6-.5,5.8-1.7,11.3-3.7,16.9-3-4.3-4.4-9.3-8.8-12.2-1.3,1.9,.1,2.6,.8,3.5,6.8,8.9,8.9,19.9,13.6,29.8,1.3,2.8-.3,5.6-2.3,7.9-3.1,3.7-6.2,7.4-9.4,11.2-2.2-.8,0-3.6-2.8-4.6-1.9,4.8-.5,9.2,1.5,13.5,2.9,6.3,2.4,8-3.8,11.2-3.1,1.6-6.2,3.7-10.1,2.7-4.8-.6-9.5-2.5-14.5-2.2-.8,0-1.6,0-2.5-.2-21.2-4.7-34.8-18.6-44.2-37.4-3.4-6.8-2.9-14-1-21.1Z"/>
      <path class="cls-24" d="M11.6,41.3c-1.9,14.1,3.1,25.8,12.2,36.2,8.7,10,18.8,17.9,32.2,20.6,.5,0,.9,.6,1.3,.8,1.7,3.3,1,5.1-3,4.9-1.6,0-3.2,.4-4.7-.5-13.5-2.1-25-7.8-33.1-19.1-3-4.3-5.6-8.9-9-12.8-4.2-5-4.7-10.2-2.7-16.1,1.6-5,3.7-9.7,6.8-14Z"/>
      <path class="cls-17" d="M12.7,7.9c5.9,2.8,10.4,7.2,11.7,13.5,.9,4.5-1.6,8.3-6.1,10.3,0-2.7,0-5.3,.1-8,.4-6.2-.9-11.6-5.7-15.9Z"/>
      <path class="cls-7" d="M49.6,103.3c2.9-.8,8.2,2.4,7.7-4.4,.6,0,1.3,0,1.9,0,3.5,.6,7.1,.8,10.4,2.3,1.8,.8,3.1,1.6,.6,3.1-6.9,.3-13.8,1.6-20.5-.9Z"/>
      <path class="cls-27" d="M70.1,104.3c1.2-1.9-.4-1.8-1.4-2.4-3-1.5-6.7-.8-9.5-3,5.4-1.3,10,.7,14.5,3.2-1.2,.7-1.7,2.6-3.6,2.2Z"/>
      <path class="cls-10" d="M48.4,73c-3.8-1.4-7.3-3.4-10.7-5.6-.7-2-.3-4.1-1.1-6-.7-5-.6-9.9,1.5-14.6,.4-.8,.8-1.5,1.9-1,3.5,1.9,7.1,3.9,10.6,5.8,0,1.2-.9,1.6-1.6,2.2-2.3,2.6-.6,6.1-1.8,8.9-.3,.7-.6,1.3-1.2,1.8-3.2,2.3-1,2.8,1.1,3.4,.5,.2,.8,.6,1.2,.9,.7,1,1.6,2,1.7,3.4-.2,.8-.6,1.4-1.6,.8Z"/>
      <path class="cls-9" d="M71.4,76.3c-.4,1-.8,2.1-1.1,3.1-3,1.3-5.3,.5-6.8-2.5-.8-3.1-2.5-6.2-.6-9.5,3.2-2.5,6.2-5.3,10.7-5.4,.5-.4,1-.3,1.4,.1,.2,1.8,1.1,3.6,.3,5.5-.7,3.1-3.1,5.5-3.8,8.6Z"/>
      <path class="cls-11" d="M38.9,46.7c-.7,5.1-2.2,10.2-1,15.4,.4,1,.9,2.5-.1,2.9-2.3,1.1-3.9-.6-5.5-2,.4-6.2-.7-12.4,1.3-18.5,2.4-.9,3.9,.6,5.4,2.2Z"/>
      <path class="cls-8" d="M71.3,55.6c-4.1-5.5-6.9-11.8-11-17.4,6,4.4,9.1,10.9,12.3,17.3-.4,.4-.9,.5-1.3,0Z"/>
      <path class="cls-16" d="M48.7,52.3c.7-.2,1.3-.5,2-.7,2.4,1,5,1.7,6.6,4,.5,.9-.1,1.3-.8,1.6-2.8-1-2.3,3.4-4.7,2.9-1-.9-1.3-2.1-1.7-3.2-.2-1.6-2.1-2.7-1.3-4.6Z"/>
      <path class="cls-29" d="M62.9,67.4c.6,2.9,1.2,5.9,1.9,8.8-.6,1.3-.8,3.2-3.1,2.4-.4-.4-.6-.8-.7-1.4,.4-3.4-1.8-6.5-.9-9.9,.4-.7,1-1.3,1.8-1.4,.3,.5,.7,.9,1,1.4Z"/>
      <path class="cls-6" d="M61.9,66c-.4,.5-.7,1-1.1,1.5-3.2-2.9-4.4-6.7-4.4-10.9,.3-.4,.6-.7,.9-1.1,2.9,2.9,4.2,6.5,4.6,10.5Z"/>
      <path class="cls-22" d="M61.6,78.4c1.7,.2,2.1-1.5,3.1-2.2,.4,3.6,3.3,2.7,5.5,3.2-.1,.8,2.9,2.2,0,2.2-2.9,0-5.8-1.6-8.7-2.4-.3-.2-.4-.3-.3-.5,.1-.2,.2-.3,.3-.3Z"/>
      <path class="cls-12" d="M32.3,63c1,.3,2.1,.4,2.9,1,2.7,1.9,2.6,0,2.7-1.9,1.7,1.8,1,3.6,0,5.3-2.1-1.2-5.3-.9-5.5-4.4Z"/>
      <path class="cls-14" d="M71.4,76.3c-1.6-3.6,2.3-5.2,3-8,.7,.1,.8,.8,1.1,1.3-.8,2.6-1.8,5.1-4.1,6.7Z"/>
      <path class="cls-23" d="M38.9,46.7c-1.8-.7-3.6-1.4-5.4-2.2-1-1.5-.7-2.5,1.1-2,2,.6,3.9,1.5,5.4,3.2-.4,.3-.7,.6-1.1,1Z"/>
      <path class="cls-3" d="M75.5,69.6c-.4-.4-.7-.9-1.1-1.3,0-2,0-4,0-6-.6-1.2,0-1.4,1-1.3,.9,2.9,1.1,5.7,0,8.6Z"/>
      <path class="cls-21" d="M75.5,61.1c-.3,.4-.7,.9-1,1.3-.3-.1-.6-.2-.9-.3,.4-2.6-2.1-4.1-2.3-6.5,.4,0,.9,0,1.3,0,1.5,1.5,2.6,3.3,2.9,5.5Z"/>
      <path class="cls-28" d="M61.6,78.4c0,.3,0,.5,0,.8-1.8-.8-3.7-1.6-5.5-2.5-.4-.5-.5-1-.2-1.6,2.6-.9,4.5-.4,5.7,2.3,0,.3,0,.7,0,1Z"/>
      <path class="cls-26" d="M48.4,73c.4-.3,.8-.6,1.2-.9,1.7-1.1,2.7,0,3.6,1.3,0,.9-.5,1.3-1.3,1.5-1.4-.1-2.6-.7-3.5-1.8Z"/>
      <path class="cls-18" d="M51.9,74.9c.4-.3,.8-.7,1.2-1,1.6-.7,2.6-.2,3,1.5,0,.5,0,.9,0,1.4-1.4-.6-2.8-1.3-4.2-1.9Z"/>
      <path class="cls-20" d="M81.4,99c-.4-2.1,0-3.6,3.1-4.9-1,2.3-1,4.1-3.1,4.9Z"/>
      <path class="cls-13" d="M56.1,75.4c-1-.5-2-1-3-1.5-1.2-.6-2.4-1.2-3.5-1.8-.9-.6-2.2-1-2.1-2.4,1.3-2.6,2-5.3,3.1-7.9,.3-.7,.7-1.3,1.4-1.6,1.8-.8-1.3-7.7,4.4-3.5,2.1,3.4,3.3,7.1,4.4,10.9-.3,3.4,3.1,6.4,.8,9.9-1.8-.7-3.6-1.4-5.5-2.1Z"/>
      <path class="cls-15" d="M48.7,52.3c1.5,1.1,2.6,2.4,2.3,4.4,.7,1.4-.3,2.8-.2,4.1-.3,1.7-.2,3.6-2.6,4.1-1.2-.2-2.6-.4-1.9-2.2,0-2.8,.2-5.7,.2-8.5,0-1.6,.6-2.4,2.2-1.9Z"/>
      <path class="cls-4" d="M45.3,51.8c-.5,1.9-1.8,3-3.7,3.1-1.3,0-2.4-.6-1.8-2.3,.6-1.5,.3-3.9,2.9-3.4,1.1,.2,2.9,.7,2.6,2.7Z"/>
      <path class="cls-19" d="M46.2,62.7c.4,1.1,1.2,1.5,2.3,1.5,1.4,1.9,.2,2.9-1.2,3.8-.8,.3-1.6,.8-2.4,.7-1.6-.1-3.4-.4-3.7-2.3-.3-1.8,1.8-1.1,2.7-1.8,.8-.7,1.6-1.3,2.4-2Z"/>
      <path class="cls-1" d="M47.3,68.1c.4-1.3,.8-2.5,1.2-3.8,1.5-1.1,1.2-2.8,1.4-4.3,1.8-.2,1,1.4,1.6,2.1-.7,2.9-1.4,5.8-4.1,7.6,0-.5-.1-1.1-.2-1.6Z"/>
      <path class="cls-5" d="M51.6,62c-.5-.7-1.1-1.4-1.6-2.1,.3-1.1,.7-2.1,1-3.2,1,.9,.6,2.3,1,3.4-.1,.6-.2,1.3-.3,1.9Z"/>
    </g>
  </g>
</svg>