<?xml version="1.0" encoding="UTF-8"?>
<svg id="Capa_2" data-name="Capa 2" xmlns="http://www.w3.org/2000/svg" viewBox="0 0 71.6 74.7">
  <defs>
    <style>
      .cls-1 {
        fill: #dfd8d6;
      }

      .cls-2 {
        fill: #95a3c0;
      }

      .cls-3 {
        fill: #f1e9e9;
      }

      .cls-4 {
        fill: #f9f8f8;
      }

      .cls-5 {
        fill: #f6f2ee;
      }

      .cls-6 {
        fill: #4a4343;
      }

      .cls-7 {
        fill: #3a2525;
      }

      .cls-8 {
        fill: #c7b876;
      }

      .cls-9 {
        fill: #a19a68;
      }

      .cls-10 {
        fill: #ece5e4;
      }

      .cls-11 {
        fill: #c1c0bf;
      }

      .cls-12 {
        fill: #f7e3e2;
      }

      .cls-13 {
        fill: #333335;
      }

      .cls-14 {
        fill: #b4a977;
      }

      .cls-15 {
        fill: #c6b776;
      }

      .cls-16 {
        fill: #443e42;
      }

      .cls-17 {
        fill: #2f2818;
      }

      .cls-18 {
        fill: #333330;
      }

      .cls-19 {
        fill: #958656;
      }

      .cls-20 {
        fill: #bcad7c;
      }

      .cls-21 {
        fill: #33393e;
      }

      .cls-22 {
        fill: #35393c;
      }

      .cls-23 {
        fill: #53342f;
      }

      .cls-24 {
        fill: #c3b583;
      }

      .cls-25 {
        fill: #a79b6a;
      }

      .cls-26 {
        fill: #95a4c1;
      }

      .cls-27 {
        fill: #50302c;
      }

      .cls-28 {
        fill: #d4d4d4;
      }

      .cls-29 {
        fill: #8c855d;
      }

      .cls-30 {
        fill: #b12624;
      }

      .cls-31 {
        fill: #aea66e;
      }

      .cls-32 {
        fill: #484847;
      }

      .cls-33 {
        fill: #c0302d;
      }

      .cls-34 {
        fill: #302e30;
      }

      .cls-35 {
        fill: #413924;
      }

      .cls-36 {
        fill: #8c845d;
      }

      .cls-37 {
        fill: #e8e6e5;
      }

      .cls-38 {
        fill: #857b50;
      }

      .cls-39 {
        fill: #c56750;
      }

      .cls-40 {
        fill: #bcab7a;
      }

      .cls-41 {
        fill: #a36b5b;
      }

      .cls-42 {
        fill: #8a835d;
      }

      .cls-43 {
        fill: #96a2be;
      }

      .cls-44 {
        fill: #c96852;
      }

      .cls-45 {
        fill: #c4b580;
      }

      .cls-46 {
        fill: #d6dfef;
      }

      .cls-47 {
        fill: #f4e8e9;
      }

      .cls-48 {
        fill: #b15a2a;
      }

      .cls-49 {
        fill: #221a18;
      }

      .cls-50 {
        fill: #b4a674;
      }

      .cls-51 {
        fill: #7c5320;
      }
    </style>
  </defs>
  <g id="Capa_1-2" data-name="Capa 1">
    <path class="cls-49" d="M71.6,41.1c0,20.2-17.4,35.8-37.5,33.3-5.9-.7-11.9-1.6-17.8-2.6-7-1.1-11.2-5.7-12.5-13.4-.3-1.9-.7-3.5-1.9-5.1C.6,51.5,.1,49.1,0,46.7c-.2-3.7,1.5-6.2,5.1-7.2,2-.5,2.5-1.6,2.4-3.8-.3-7.8,2.4-14.4,9.3-18.8,1.2-.8,1.9-1.8,2.4-3.1,1.2-3.2,2.8-6.1,4.7-8.9,2.2-3.1,4.2-3.7,7.1-1.4,1.9,1.5,2.7,1,4.1-.4,4.8-4.5,6.9-4.3,11.3,.8,.7,.8,1.1,1.3,2.4,.9,5.3-1.7,8.2,0,8.4,5.8,.2,3.3,1.4,5,3.8,6.9,6.4,5.2,10.4,14.7,10.4,23.5Z"/>
    <path class="cls-46" d="M38.1,65.3c6.8-.1,11.6-3.6,15-9.2,1.8-3,3.1-6.3,4.7-9.4,.4-.9,.9-1.9,0-2.3-1.4-.6-1,.9-1.2,1.6-1,2.7-2.6,4.6-5.4,5.5-4.4,1.4-8.8,2.8-13.2,4.2-2.2,.5-4.5,.5-6.7,0-3.6,.2-6.8-1.7-10.3-1.6-2.1-.5-4.2-.5-6.3,0-2.1-.7-4,.7-6.1,.7-4,.1-5.6-3.5-6.3-7-.7-3.1,.7-5.1,3.8-6.2,2.6-.9,5.6-1.2,7.5-3.7h0c1.9-3.5,1.2-7-1.1-9.9-1.2-1.5-1.1-2.5,0-3.3,1.9-1.6,2.3-5.5,6.2-4.2,.1,.1,.2,.3,.3,.4,0,.3,0,.7,0,1-.2,2.6-.9,5.1-.2,7.8,.2,.8,.2,2.1,1.2,2.1,3.7-.1,7.5,2.2,11.1-.3,5.1-3.7,10.2-7.5,16-10.1,4.9-2.2,9.7-2.9,14.4,.5,3.2,2.8,5.1,6.3,6,10.4,0,6.1-1.2,12-1.6,18-.3,4.5-2.7,8.4-5.7,11.8-5.4,5.6-12,8.1-19.8,8.1-6.5,0-12.9-.4-19.3-1.9-3.6-.8-7.6,.4-10.8-2.1-.7-.6-1.3-1.4-1.4-2.4-.2-.8,0-1,.8-.8,3.7,1.9,7.8,.5,11.6,1.3,4.2,.8,8.5,1.5,12.9,1.1,1.3,.5,2.6,.5,4,0Z"/>
    <path class="cls-17" d="M31.1,32.1c-1.5,1.4-2.6,2.2-5.1,1.1-1.4-.7-3.9-.6-6-.6-.7,0-2.1,.1-2.1-1-.1-3.6-1.4-7.3,.7-10.7,1.6,1.7,.8,3.8,1,5.8,0,.9-.3,1.9,.2,2.8,.7-.2,.8-.8,1-1.3,.8-7.2,3.7-13.5,8.2-19.2,.8-.8,1.5-1.7,2.8-1.6,.4,0,.7,0,1.1,.1,.1,.2,.2,.6,0,.7-.4,.2-.6,.5-.2,.3,1.4-.8,2.3-2.1,3.4-3.2,1.2-1.1,2.2-2.3,3.9-2.4h1.1c.2,2-1.4,2.6-2.4,3.5-6.4,5.5-10.9,12.1-12.2,20.7,2.4-7.8,7.2-13.7,14.1-18,1.9-.9,3.4-2.5,5.6-2.7,.3,.3,.6,.6,.9,.9-.4,2-2.4,2.2-3.7,3.1-5.8,3.8-10.9,8-13.3,14.9-1,2.1-1,4.5-2.3,6.4,1.3-1.6,1.2-3.9,2.1-5.8,2.1-6.8,7.1-11.2,12.7-15,2-1.3,4-2.4,6.1-3.6,.2,0,.3,0,.5,0,.7-.7,1.8-1.1,2.1-2.1,1.4-.6,1,1.1,1.8,1.4,.1,.3,.1,.7,0,1-4.5,2.9-9.3,5.3-13.3,8.9-3.5,3.1-6.7,6.5-7.2,11.6,.4,.3,.6,.7,.6,1.2-.5,1.1-1.2,1.9-2.1,2.6Z"/>
    <path class="cls-2" d="M10.2,66.1c9.6,.2,18.8,3.1,28.4,3,8.1,0,15.2-1.9,21.1-7.7,.5-.4,1.1-.4,1.6,0-6.3,7.5-14.5,11.2-24.2,10.6-7.5-.5-15-2-22.4-3.2-1.7-.3-3.7-.7-4.5-2.8Z"/>
    <path class="cls-29" d="M41,9.8c-7.5,4.7-12.2,11.6-15.1,20-.6-5.2,1.1-9.5,3.5-13.8,2.9-5.3,7.6-8.9,11.7-12.9,1.1-.3,2.3-1.2,3,.6-.3,2.4-1.4,4.4-3.1,6.1Z"/>
    <path class="cls-39" d="M20.8,55.6c4.4,.3,8.8,.9,12.8,2.9-1.7,1.4-3,3-4.5,4.6-5.2,1.6-11.7-.6-12.7-4.5,.8-1.9,2.4-2.7,4.4-3Z"/>
    <path class="cls-43" d="M31.1,32.1c.6-.9,1.2-1.9,1.7-2.8,4.7-6.6,10.8-10.9,18.8-12.6,4.6-.9,7.4,1.6,9.8,5-8-3.3-14.6,0-21.1,4.3-3,2.1-6.1,4.1-9.2,6.1Z"/>
    <path class="cls-26" d="M61.3,61.5c-.5,0-1,0-1.6,0,3.5-4.8,5.4-10.1,5.5-16.3,0-4.4,.4-8.9,2.2-13.1,3.8,8.7,1,22.6-6.1,29.4Z"/>
    <path class="cls-44" d="M40.2,57.7c0-1.7,1.5-1.5,2.4-1.8,3.3-1.2,6.6-2.2,10.5-3.4-2.2,5.8-5.8,9.2-11.3,10.6-1.4,.4-2.9,.9-3.6-1.1-.2-1.8,.4-3.3,2-4.3Z"/>
    <path class="cls-42" d="M29.8,9.2c-4.5,6-7.6,12.5-8.3,20.1-1,0-1.2-.6-1.5-1.4-1.5-5.3,3-18.1,7.6-21.6,.4-.4,.9-.8,1.3-1.2,1.6,1.1,1.8,2.4,.9,4Z"/>
    <path class="cls-35" d="M27.6,6.3c-3.7,6.3-7.1,12.7-6.8,20.3,0,.9-.3,2,.7,2.7-.8,.7-1.6,1.4-2.4,2-.3-1.2-.1-2.4-.2-3.6,0-2-.2-3.9,.3-5.9,0-1.6,.4-3.1,1.4-4.3,0-.9,.1-1.8,.2-2.7,1.9-2.6,2.7-5.7,4.7-8.3,.5-.7,.8-1.6,1.9-1.4,0,.4,.1,.8,.2,1.1Z"/>
    <path class="cls-14" d="M48.7,7.5c-3.8,3.5-8.8,5.5-12.3,9.4-2.6,2.8-4.7,5.8-6,9.3-.8,0-1.1-.2-.8-1,1.9-6.6,6.7-10.7,12.2-14.3,1.7-1.1,3.5-2.3,5.2-3.5,.6,0,1.1,0,1.7,0Z"/>
    <path class="cls-18" d="M51.6,16.7c-7,3.1-13.4,7.1-18.8,12.6-.2-.2-.5-.5-.7-.7-.4-1.3,.6-2.2,1.3-2.8,5.1-4.4,10.2-8.9,17.2-10.2,.4,0,.7,.2,.9,.5,0,.2,0,.5,0,.7Z"/>
    <path class="cls-8" d="M51.5,16h-.3c0,0-.3,0-.3,0-1.8-.2-1-1.4-.7-2.1,.8-2.2,1.4-4.4,2.8-6.4,0-.2,.1-.4,.2-.6,3.1,1,2.6,3.8,2.7,6.1,.2,3-2.9,1.9-4.3,3.1Z"/>
    <path class="cls-16" d="M29.2,63c.7-2.3,.9-5,4.5-4.6,.9-1.4,2.2-1.8,3.8-1.4,0,1.1-1,2.1-.5,3.3,0,.5-.2,.9-.4,1.3-.4,.6-.1,1.5-.8,2-1.4,.8-2.9,1.3-4.4,.1,.1-.7,1.7-1,1.1-1.5-1.2-.9-1,1.1-1.8,1.3-.5-.2-.9-.5-1.4-.7Z"/>
    <path class="cls-15" d="M41,9.8c1.1-2,.9-4.6,3.1-6.1,.7,1,1.4,1.9,2,2.9-1.4,1.5-3.4,2.2-5.1,3.2Z"/>
    <path class="cls-48" d="M20.8,55.6c-1.5,1-2.9,2-4.4,3-.8-1.9-2-1-3.3,.2,.2-2.1,.9-3.1,2.5-3.3,1.5-.4,2.9-.3,4.4,0,.3,0,.5,.2,.8,.3Z"/>
    <path class="cls-31" d="M40.1,3c-3.4,1.9-5.6,5.1-8.8,7.7-.1-1.6,1.3-2.1,1.6-3.1,2-1.7,4-3.5,6-5.2,.7-.6,1.3-.6,1.2,.6Z"/>
    <path class="cls-25" d="M27.5,5.2c-3.1,2.6-3.6,7-6.6,9.7,.9-3.8,3.1-7,5.3-10.1,.6-.8,1.5-1.4,1.3,.4Z"/>
    <path class="cls-27" d="M13.5,37.7c-.9-.5-2.2,.9-2.9-.5-.7-1.5,.2-2.5,1.2-3.4,.6,0,1.1,.3,1.5,.7,0,1.1,.1,2.2,.2,3.3,0,0,0,0,0,0Z"/>
    <path class="cls-1" d="M10.5,55.6c.5,.4,1.7-.6,1.6,.6-.1,1.1-.6,2.6-1.7,2.9-1.2,.3-1.3-1.1-1.6-2-.2-1.5,1.2-.9,1.8-1.4Z"/>
    <path class="cls-41" d="M35.6,63.8c.1-.7-1.2-1.5,.1-2.2,.7,.1,1.4,0,2-.3,.3,0,.6,0,.8,0,.2,2.1,1.8,1.7,3.2,1.8-2,.9-4,1.5-6.2,.7Z"/>
    <path class="cls-3" d="M30.6,63.8c-.3-1.3,.6-2.3,1.1-3.4,1.4,.6,1.7,2,2.5,3.3-1.1,.1-2,.2-2.9,.3-.2,0-.5-.1-.7-.2Z"/>
    <path class="cls-5" d="M36.6,60.8c-1.1-1.5-2.8-3.2,.8-3.7h1.3c1,1.6-.2,2.6-1.1,3.7-.4,.2-.7,.1-1,0Z"/>
    <path class="cls-20" d="M29.8,9.2c-.3-1.3-.6-2.7-.9-4,2.2-.8,2.4,1,2.9,2.3-.7,.6-1.3,1.2-2,1.7Z"/>
    <path class="cls-10" d="M13,62.2c.1-1.4,.4-2.8,1.9-2.8,1.1,0,1,1.6,1.4,2.5-1.1,.6-2.2,.2-3.3,.3Z"/>
    <path class="cls-28" d="M9.6,63c-.3,.3-.6,.5-.8,.8-1.3-2.3-3.5-4.5-1.6-7.5,1,.9,0,2.2,.7,3.1-.3,1.6,.9,2.5,1.6,3.6Z"/>
    <path class="cls-16" d="M37.3,60.8c.3-1.3,1.8-2.2,1.5-3.7,.5,.2,1,.4,1.5,.7-.5,1.2-1,2.4-1.6,3.6-.2,0-.4,.1-.6,.2-.4,0-.7-.3-.8-.8Z"/>
    <path class="cls-16" d="M31.3,55.6c2.2,0,4.5,0,6.7,0-2.3,1.1-4.5,1.2-6.7,0Z"/>
    <path class="cls-16" d="M8,59.4c-.9-.9-.3-2.1-.7-3.1,1-.5,2-1,3.3-.7-.3,.8-1.8,.2-1.8,1.4-.8,.6-.5,1.6-.7,2.3Z"/>
    <path class="cls-16" d="M14.6,53.9c2.1-1.1,4.2-.9,6.3,0-2.1,0-4.2,0-6.3,0Z"/>
    <path class="cls-47" d="M13.3,34.5c-.7,.2-1-.3-1.5-.7,.4-.7-.1-1.8,1.1-2.1,.7,.9,.3,1.8,.4,2.8Z"/>
    <path class="cls-24" d="M20.7,17.6c-.3,1.4-.6,2.7-.9,4.1-1.2,.3-.6-1.1-1.3-1.4,0,0,0,0,0,0,.6-1,1-2.1,2.2-2.7Z"/>
    <path class="cls-16" d="M20,55.3c-1.5,0-2.9,0-4.4,0,1.5-1,2.9-.9,4.4,0Z"/>
    <path class="cls-19" d="M51.4,5.4c.5,1.9-1.1,1.7-2.1,2.1,0-1.3,1.1-1.7,2.1-2.1Z"/>
    <path class="cls-51" d="M12.3,59.7c.2,1.1-.4,1.5-1.5,1.7,.1-1,.6-1.5,1.5-1.7Z"/>
    <path class="cls-16" d="M38.1,65.3c-1.3,.7-2.6,.7-4,0,1.3,0,2.6,0,4,0Z"/>
    <path class="cls-7" d="M55.3,34.5c0,2.4-1.1,3.8-3.6,4.3-3.6,.7-7.1,1.9-10.7,2.8-.6,0-.9-.4-.9-1,.8-2,.1-3.8-.8-5.5,0-.5,0-1,.3-1.5,1.8-4.2,5.9-4.9,9.7-5.9,.6-.4,.9,0,1.2,.5,0,.5,0,1,0,1.6-.1,.9-.2,1.7-.7,2.4-1.4,.8-1.6-1.7-2.9-1.1-2.3,1.8,0,3.3,.3,4.9,0,1.1-.5,2-1.7,1.9-1.6,0-2.2-1.3-2.6-2.6-.1-.5,.5-.3,0-.3,0,0,0,0,0,0,0,.8,.3,1.4,.7,2.1,1.8,1.7,3.2,1.5,4.2-.8,.4-.9,.5-2,1.8-2.1,.4,.3,.7,.7,1,1.1,1,1.3,1.8,.7,2.7-.2,.7-.7,1.2-1.7,2.4-.8Z"/>
    <path class="cls-4" d="M55.3,34.5c-1.6,0-1.1,1.8-2,2.3-1.3,.7-2.8,2-3.9-.4,.5-1.6-.5-3.2,.3-4.8,1.6-1.8,3.3-3.5,5.4-.6,.2,1,0,2,.1,3,0,.2,0,.3,0,.5Z"/>
    <path class="cls-34" d="M55.3,34c-.8-.6-.5-1.5-.7-2.3,.6-2.2-.2-3.3-2.6-3-.7,0-1.4,.4-2-.3l-.9-.6c2.4-1.2,4.8-2.1,7.6-1.5-1,2.5,.1,5.4-1.4,7.8Z"/>
    <path class="cls-13" d="M40.3,40.7c.2,.3,.4,.6,.7,.9-1.3,.5-2.7,1-4.1,1.5-.8-1.9,.4-3.2,.5-4.7,.6-.2,.9,.2,1.3,.5,.5,.6,1.3,1,1.6,1.9Z"/>
    <path class="cls-40" d="M18.5,20.3c.4,.5,.9,.9,1.3,1.4-.2,2-.4,4-.6,6-.2,.4-.4,.4-.5,0,0-2.3,0-4.5,0-6.8,0-.2-.1-.4,0-.6Z"/>
    <path class="cls-32" d="M38.1,39.1c-.2-.3-.4-.5-.6-.8,.4-1.7,.6-3.4,2-4.7,0,.6,.1,1.2,.2,1.9,.9,1.8,.6,3.1-1.6,3.6Z"/>
    <path class="cls-22" d="M29.3,48.7c-1.2,1.3-2.4,2.6-4.1,4.4,.3-2.9,1.7-4.1,4.1-4.4Z"/>
    <path class="cls-21" d="M8.5,46.6c2.4,1.4,3,2.7,3.3,4.2-1.5-.7-2.4-1.8-3.3-4.2Z"/>
    <path class="cls-36" d="M52.9,7.5c.3,2.1-.9,3.7-1.5,5.5-.3,.9-1.6,1.7-.5,2.9-7.3,2.6-13.7,6.6-18.8,12.6-.2,.2-.3,.4-.5,.5-.6,.5-.8,.4-.6-.4,1.1-3.9,2.9-7.4,5.7-10.3,4.7-4.7,10.1-8.3,16.2-10.9Z"/>
    <path class="cls-50" d="M23.2,27.8c0-4.4,1.5-8.3,4.1-11.8-1.7,3.8-2.3,7.9-3.6,11.8-.2,.3-.4,.3-.6,0Z"/>
    <path class="cls-9" d="M29.6,25.3c.3,.3,.6,.6,.8,1-.7,2.1-.9,4.3-2.5,6.1-.2-2.5,.6-4.8,1.6-7Z"/>
    <path class="cls-45" d="M23.2,27.8c.2,0,.4,0,.6,0,.3,1.3,.2,2.7-.3,4.3-.8-1.6-.5-3-.3-4.3Z"/>
    <path class="cls-38" d="M18.6,27.7c.2,0,.4,0,.5,0,0,1.2,0,2.4,0,3.7-.9-1.1-.6-2.4-.5-3.6Z"/>
    <path class="cls-23" d="M37.3,60.8c.3,.3,.5,.5,.8,.8-.7,1.4-1.5,1.4-2.3,0,.3-.3,.6-.6,.8-.8,.2,0,.5,0,.7,0Z"/>
    <path class="cls-33" d="M46.3,30.3c3.3-2.5,1.5,2.1,3,2.1,.5,.7,.5,1.3,0,2-.8,2.8-1.6,5.5-5.5,4.8-.9-.2-1.2-.6-1.3-1.4-.2-1.1-1.1-2.4,.7-3,.4,1.2,.3,3,2.2,2.7,1.3-.1,.8-1.3,.8-2.1-.2-1.7-.7-3.4,.1-5Z"/>
    <path class="cls-11" d="M50,28.3c.5-.1,.9-.3,1.4-.4,4-.9,4.3-.5,3.2,3.7-1.4-3-3-.2-4.5,0-.8-.6-.1-1.7-.7-2.4,.2-.3,.4-.5,.7-.8Z"/>
    <path class="cls-37" d="M38.1,39.1c1.1-1,1.5-2.2,1.6-3.6,2.2,1.8,2.4,3.9,.7,5.2-.9-.3-2.6,.3-2.2-1.7Z"/>
    <path class="cls-12" d="M46.3,30.3c.7,1.7,1.1,3.4-.1,5-2.3-2-2.3-3.2,.1-5Z"/>
    <path class="cls-30" d="M43.2,34.6c-1,.8-.5,2-.7,3-1.3-1.9-.5-3.8-.6-6.5,1.7,1.4,1.2,2.5,1.3,3.5Z"/>
    <path class="cls-6" d="M49.4,29.2c.7,.7,.6,1.6,.7,2.4-.3,1.6,.5,3.3-.7,4.8,0-.7-.1-1.4-.2-2,0-.7,0-1.3,0-2,0-1.1,0-2.2,0-3.2Z"/>
  </g>
</svg>