<?xml version="1.0" encoding="UTF-8"?>
<svg id="Capa_2" data-name="Capa 2" xmlns="http://www.w3.org/2000/svg" viewBox="0 0 70.2 70.1">
  <defs>
    <style>
      .cls-1 {
        fill: #2a391c;
      }

      .cls-2 {
        fill: #242e1b;
      }

      .cls-3 {
        fill: #659a30;
      }

      .cls-4 {
        fill: #fdfcfc;
      }

      .cls-5 {
        fill: #6e9930;
      }

      .cls-6 {
        fill: #639931;
      }

      .cls-7 {
        fill: #79b32c;
      }

      .cls-8 {
        fill: #7ca936;
      }

      .cls-9 {
        fill: #7ea83a;
      }

      .cls-10 {
        fill: #2c3f1e;
      }

      .cls-11 {
        fill: #79b52d;
      }

      .cls-12 {
        fill: #2c211f;
      }

      .cls-13 {
        fill: #79b22e;
      }

      .cls-14 {
        fill: #38422a;
      }

      .cls-15 {
        fill: #659b31;
      }

      .cls-16 {
        fill: #2f4622;
      }

      .cls-17 {
        fill: #879b35;
      }

      .cls-18 {
        fill: #65842b;
      }

      .cls-19 {
        fill: #474b33;
      }

      .cls-20 {
        fill: #7ab82a;
      }

      .cls-21 {
        fill: #699530;
      }

      .cls-22 {
        fill: #6a832b;
      }

      .cls-23 {
        fill: #7ab82b;
      }

      .cls-24 {
        fill: #28371b;
      }

      .cls-25 {
        fill: #1b2416;
      }

      .cls-26 {
        fill: #66912f;
      }

      .cls-27 {
        fill: #64832d;
      }

      .cls-28 {
        fill: #6ba138;
      }

      .cls-29 {
        fill: #85b23d;
      }

      .cls-30 {
        fill: #7a9b39;
      }

      .cls-31 {
        fill: #649930;
      }

      .cls-32 {
        fill: #82ad3a;
      }

      .cls-33 {
        fill: #63992f;
      }

      .cls-34 {
        fill: #404a20;
      }

      .cls-35 {
        fill: #211a16;
      }
    </style>
  </defs>
  <g id="Capa_1-2" data-name="Capa 1">
    <path class="cls-35" d="M36.1,70.1C15.5,70.1-.3,54.1,0,34.5,.3,15,16.6-.6,36.2,0c1.2,0,2.5,.3,3.7,.4,3,.5,3.6,2.2,2.5,4.8-3.3,8.1-1.7,12.1,6.2,16,3.8,1.9,8,2.8,12.1,3.7,1.4,.3,2.9,.5,3.2,2.1,.3,1.5-.8,2.6-1.9,3.4-3.3,2.5-6.6,4.9-9.9,7.3-.6,.5-1.8,.8-1.4,1.9,.4,1,1.5,.8,2.3,.8,2.5,.2,5-.1,7.1-1.7,1-.8,2-1.5,2.9-2.3,1.6-1.3,3.5-2.3,5.5-1.2,1.9,1.1,1.7,3.2,1.3,5.1-2.6,12.4-9.5,21.5-21,26.9-4.4,2.1-9.1,2.7-12.8,2.8Z"/>
    <path class="cls-20" d="M21.4,5.6c5.3-2.4,10.7-3.8,16.6-3,2.1,.3,2.7,.8,1.5,2.8-3.7,6.5-1.1,12,4.2,15.8,4.2,3.1,9,4.6,14.1,5.7,.8,.2,1.6,.5,3.2,.9-7.1,6-16,9.8-18.7,19.6,3.7-.6,2.8-7,7.8-4.9,2.4,1,.9,3,1.4,4.5,.3,4.6-.3,9-3.4,12.6-6.1,3-12.6,2.4-19,1.5-1.3-.2-2.6-.8-3.5-2-.5-.9-.6-2-.6-3,0-2.2,0-4.3,0-6.5,0-1.1-.7-1.9-1-2.9-.3-1.6-1.5-1.8-2.8-1.9-3.5-1.6-6.5-3.9-9.1-6.7,.1-2.1-3.6-2-2.5-4.6,0-.2,0-.4,0-.6,1.7-2.6,2.1-6.2,5.9-7.1,2,1.8,3.6,4.2,6.4,4.9,1.8,.6,3.6,.6,5.4,0,1.6-.5,2.9-1.4,4.3-2.2,1-.4,1.2-1.2,1.2-2.2,0-1,.4-2,.5-2.9,.2-5.5-2.8-9.4-7.6-10.1-4.7-.7-8.8,2.5-10,7.9-.2,1.1-.5,2.2-.9,3.2-.3,.8-.9,1.4-1.5,2-.8,.5-1.3,1.3-1.5,2.2-.7,1.3-1.2,2.8-2.7,3.5-1.3,2.2-3.2,2.2-5.1,1.3-1.9-.9-1-2.7-.8-4,1.8-9.2,6.1-16.7,14.4-21.5,1.4-.5,3.2-.5,3.9-2.3Z"/>
    <path class="cls-21" d="M44.8,65c-.8,1.7-2.6,2-4.1,2.1-8.4,1-16.5,0-23.7-5.2-.8-2,.8-2,1.9-2.4,2.2-.2,4.4,.2,6.1,1.4,5.2,3.3,10.7,3.8,16.4,2,1.1-.3,2.2-.4,3.3,.2,1.3,.7,.8,1.3,0,1.9Z"/>
    <path class="cls-24" d="M47.8,59c2.5-3.6,2.4-8,3.7-12,.3,0,.5,0,.8,0,.7,.7,.6,1.5,.7,2.4,0,1.1-1.1,2.8,1.1,2.7,1.7-.1,3.4-.8,3.4-3.1,0-3.4-1.6-4.6-5.1-4.1-.3-1.5,.2-2.4,1.9-2.4,1.4,0,2.7,0,4.1,0,1.9,1.2,1.2,3.6,2.2,5.3,2.2-.8,2.1-3.5,3.9-4.6,1.5,1,3.7,2,.6,3.8-1.4,2.4-4.2,4.2-3.8,7.5-.5,.9-1.3,.7-2.1,.8-1.3-.9-2.5-.6-3.8,0-1.7,.6-3.8,.3-4.4,2.7-.5,1.5-1.1,3-2.3,4.1-.6,0-1.2,0-1.8,0-.7-1.3,.2-2.1,.9-2.9Z"/>
    <path class="cls-11" d="M52.4,44.9c2.5-2.7,4.2-2.3,5.3,1.2,1.6,5.3,1.2,5.9-3.4,7.2-2.9,.8-3-.5-2.4-2.6,.3-1.2,.7-2.4,.5-3.7,0-.7,0-1.4,0-2.1Z"/>
    <path class="cls-15" d="M47.8,59c-.3,1-.6,1.9-.9,2.9-.7,0-1.3,.2-2,.2-6.8,2.4-13.6,4.4-19.7-1.7-.1-.7,.2-1.1,.8-1.4,7.3,2.6,14.5,2.3,21.8,0Z"/>
    <path class="cls-1" d="M25.4,59.9c3.2,2.7,6.5,5,11.2,3.7,2.7-.7,5.5-1,8.3-1.5,.7,.5,1.5,.9,2.2,1.4,.3,1.1-.3,1.5-1.3,1.5-.3,0-.6,0-.9,0,.7-1.6-.5-1.8-1.4-1.4-7.4,2.9-14.2,1.2-20.8-2.5-.9-.5-2.2-.4-3.2-.6-2.4-.4-4.9-.3-6.7-2.2-.9-.4-.2-1,0-1.4,2.2-1.3,4,.6,6,.8,1.7,.2,3.5,1.9,5.1-.1,.3-.5,.7-.9,1.3-.9,1.1,1,.7,2.1,.3,3.2Z"/>
    <path class="cls-3" d="M55.3,54.6c1.3,.2,3.4-3.8,3.9,.7-1.4,4.6-4.9,6.8-10.5,6.7-.1-1.7,1.3-2.9,1.5-4.5,1.3-1.7,3.5-1.8,5.1-2.9Z"/>
    <path class="cls-31" d="M24.4,58.2c-.3,2-1.6,1.5-2.9,1.2-3-.8-6-1.7-9-2.5-1.7-.7-3.3-1.5-3.1-3.8-.6-.8-.8-1.8-.6-2.8,.1-.4,.3-.7,.6-1,.4-.1,.9-.2,1,.1,2.5,4.9,7.4,6.2,12.1,7.7,.7,.2,1.3,.6,1.8,1.2Z"/>
    <path class="cls-13" d="M64.5,43.3c-.2,2.7-1.9,4.5-4.1,6.2-1.4-2.2-1.4-4.6-2-6.9,2.2-1.2,4.4-2.5,6.1,.7Z"/>
    <path class="cls-10" d="M24.4,46.5c.4,.7,1.6,.9,1.5,2.1-.2,.4-.4,.9-.9,1-1.4-.2-2.1-1.3-3.1-2.1-.7-.7-1.5-1.2-2.4-1.7-3.8-3-8.1-5.3-11.5-8.9,0-.2,0-.3,0-.5,.2-.7,0-1.6,.6-2.1,1.2,1.3,3.2,1.7,4,3.6,3,2.1,5.9,4.2,8.9,6.3,1.2,.6,2.5,1,3,2.4Z"/>
    <path class="cls-33" d="M3.8,44c-.2-1-.3-1.9-.5-2.9,.3-.7,0-1.1-.4-1.6,0-.5,0-1,0-1.5,1.1-1-1.2-1.9,0-2.9,1.4-.2,2.8-.7,3.9,.6,.8,1.7,.9,3.5,.8,5.3-.3,2.3-.5,4.5-3.8,2.9Z"/>
    <path class="cls-26" d="M3.8,44c2.6,.5,2.9-1.2,2.9-3.1,.5,0,.8,0,1.1,.4,.7,1.4,.5,2.8,.6,4.3-.1,1.7,.5,3.4,.4,5.1,0,1.5-.4,1.6-2,.7-1-2.4-1.9-4.9-2.9-7.3Z"/>
    <path class="cls-5" d="M67.6,39.8c-.5,.8,.4,3-1.7,2.4-1-.2-2.7-1-2.6-2.3,.2-1.6,1.9-2.3,3.4-2.4,1.4-.1,1.2,1.2,1,2.3Z"/>
    <path class="cls-34" d="M6.7,51.4c.7,.4,1.4,.7,1.2-.6-.2-1.8-.9-3.5-.5-5.3,.6-.7-.3-1.9,1-2.3,.6,.2,.9,.7,1.1,1.2,.7,2-.3,3.9,0,5.9,0,.9,0,1.9,0,2.8-1.1-.2-2.9,.5-2.7-1.7Z"/>
    <path class="cls-27" d="M61.3,54.5c-2.6-4.5,2.1-5.2,3.8-7.5-.7,2.8-2.4,5.1-3.8,7.5Z"/>
    <path class="cls-16" d="M15.5,26.1c-2.3,.1-2,2.7-3.4,3.8-1,.8-1.3,2.3-2.5,3-.2-.2-.4-.5-.6-.7,.7-1.2,1.4-2.4,2.2-3.7,.4-.9,.6-1.8,1.5-2.3,.4-.6,.9-1.1,1.3-1.7,.9,.2,1.8,.3,1.5,1.6Z"/>
    <path class="cls-22" d="M12.6,58.3c2.2,.7,4.5,1.5,6.7,2.2-1,0-2.2,0-2.3,1.5-1.7-1-3.5-1.8-4.5-3.7Z"/>
    <path class="cls-29" d="M12.6,37.8c-1.5-.9-3.2-1.8-4-3.6,.3-.3,.6-.5,1-.8,.2,2,4.1,1.5,3,4.3Z"/>
    <path class="cls-32" d="M21.4,5.6c.4,3.5-2.2,2.2-3.9,2.3,1-1.2,2.5-1.7,3.9-2.3Z"/>
    <path class="cls-18" d="M45.7,65.1c.4-.5,.9-1,1.3-1.5,0,0,0,0,0,0,1.1-.3,2.4-1.2,3,.7-1.4,.2-2.6,1.9-4.3,.8Z"/>
    <path class="cls-26" d="M2.8,35.2c.2,.4,.4,.9,.7,1.2,.4,.4,1.4,.2,1.2,1-.2,.9-1.2,.6-1.8,.6-.2-1-1.2-1.9,0-2.9Z"/>
    <path class="cls-10" d="M7.2,41.2c-.2,0-.4-.2-.6-.3,0-1.7,0-3.4,0-5.1,.4,.2,.8,.4,1.2,.6,0,0,.2,.3,.2,.3,.1,.3,.2,.7,.2,1-.2,1.2,0,2.6-1.1,3.5Z"/>
    <path class="cls-1" d="M50,64.3c-.7-1.4-2-.7-3-.7,1-1.2,2.4-1,3.4-.6,1.3,.5,0,1-.4,1.4Z"/>
    <path class="cls-26" d="M2.9,39.5c.7,.1,1.6-.3,1.8,.7,.1,.8-.8,.7-1.3,.8-.6-.4-.5-1-.4-1.6Z"/>
    <path class="cls-2" d="M15.5,26.1c-.5-.5-1-1.1-1.5-1.6,.5-2.3,.5-4.7,1.6-6.8,2.3-4.3,7.3-6.5,12-5,3.6,1.1,7.9,5.4,6.5,11.1-1.1,.2-1.4-1.2-2.5-1.1-1.1-.1-2.1,0-3.2,0-2.5,0-5.1,0-7.6,0-1.2,.2-3-.8-3.6,.9-.5,1.4,.6,2.5,1.4,3.6,1.2,1.6,3.6,1.7,4.5,3.7-.4,.9-1,.9-1.8,.5-2.9-.7-5-2.3-5.9-5.3Z"/>
    <path class="cls-14" d="M32.8,21.6c1.1,.3,.6,1.6,1.3,2.2-.2,1-.5,2-.7,3-.4,.8-.6,1.7-1.4,2.3-1.4,.8-2.6,2.1-4.3,2.3-.8,.4-1.5,.5-1.8-.5,3-2.6,5.8-5.3,6.9-9.3Z"/>
    <path class="cls-19" d="M26.1,30.7c.6,.2,1.1,.5,1.7,.7-2.1,1-4.2,1.1-6.3,0,.5-.2,1.1-.4,1.6-.7,1-1,2-1,3,0Z"/>
    <path class="cls-1" d="M25.2,49.5c.3-.3,.5-.6,.8-.9,.5,2.5,.2,5,0,7.4-1.9-.3-1.4-1.8-1.6-2.9,0-1.3,0-2.6,.9-3.6Z"/>
    <path class="cls-10" d="M25.2,52.9c.2,1-.3,2.2,.7,3.1,0,1,0,2,0,3.1-.2,.3-.4,.5-.6,.8-.2-1,.3-2.2-.7-3.1-1.2-1.5-1.4-2.9,.5-3.9Z"/>
    <path class="cls-8" d="M24.4,46.5c-1.3-.4-2.2-1.4-3-2.4,1.8-.2,3.4-.2,3,2.4Z"/>
    <path class="cls-30" d="M32,29c.2-1,.6-1.8,1.4-2.3,.1,1.2,.2,2.3-1.4,2.3Z"/>
    <path class="cls-9" d="M12.7,26.1c-.3,.9-.7,1.8-1.5,2.3-.1-1.2-.2-2.4,1.5-2.3Z"/>
    <path class="cls-28" d="M55.3,54.6c-1.2,1.8-3.2,2.4-5.1,2.9,.4-3.2,3.1-2.5,5.1-2.9Z"/>
    <path class="cls-23" d="M25.2,52.9c-.8,1.2-.5,2.6-.5,3.9-.1,.5-.2,1-.3,1.4-3.6-.5-6.9-2-10.3-3.3-2.7-1.1-2.8-4-4.5-5.8-1.1-1.6,.3-3.6-.9-5.2-.2-.3-.5-.5-.7-.8-.7-2-.5-3.9-.1-5.9,.1-.2,.2-.4,.2-.6,4.2,2.7,8.2,5.5,12,8.7,.4,.9,1.4,1.1,2.2,1.6,.9,.8,1.9,1.7,2.8,2.5,0,1.1,0,2.3,0,3.4Z"/>
    <path class="cls-26" d="M8.8,44.1c1.4,1.5,.5,3.4,.9,5.2,0,.3-.1,.7-.2,1-.9-2-.6-4.1-.7-6.2Z"/>
    <path class="cls-17" d="M22.4,47c-1.2,0-2.3,.2-2.2-1.6,.9,.3,1.7,.7,2.2,1.6Z"/>
    <path class="cls-25" d="M8,37.3c0,2,0,3.9,.1,5.9-.2,.8,.1,1.7-.7,2.2,0-1.4-.1-2.8-.2-4.3,.4-1.3-.4-2.7,.8-3.9Z"/>
    <path class="cls-4" d="M26.1,30.7c-1,0-2,0-3,0-4.4-1.2-6.9-4-7.3-8.8,1.4,0,2.8-.1,4.1-.2,.5,.2,.8,.6,1.1,1,2.6,3.8,4.6,3.8,7.2,0,.3-.4,.6-.8,1-1.1,1.2,0,2.4,0,3.6,0,.1,4.8-1.4,7-6.7,9.1Z"/>
    <path class="cls-7" d="M19.3,15.6c3.8-3.1,8.8-2.7,11.9,.9,.7,.8,1.2,1.6,.9,2.7-.5,1.6-1.8,.8-2.8,.9-2.3,.5-4.7,.2-7,.2-3.3,0-4-1.2-2.9-4.8Z"/>
    <path class="cls-12" d="M29.2,21.6c-.5,2.8-1.7,5.1-4.9,5-2.8-.1-4.3-2.1-4.5-5,3.1,0,6.2,0,9.3,0Z"/>
    <path class="cls-6" d="M19.3,15.6c-.3,3.2,1,4.8,4.4,4.4,1.8-.2,3.7,0,5.5,.1-3.7,1.1-7.6,.3-11.3,.4-1.6,0-1.5-.8-1.1-1.9,.5-1.3,1.2-2.4,2.5-3Z"/>
  </g>
</svg>