<?xml version="1.0" encoding="UTF-8"?>
<svg id="Capa_2" data-name="Capa 2" xmlns="http://www.w3.org/2000/svg" viewBox="0 0 71.9 69.7">
  <defs>
    <style>
      .cls-1 {
        fill: #241919;
      }

      .cls-2 {
        fill: #3f3838;
      }

      .cls-3 {
        fill: #1994d0;
      }

      .cls-4 {
        fill: #231f1f;
      }

      .cls-5 {
        fill: #333e4a;
      }

      .cls-6 {
        fill: #fefeff;
      }

      .cls-7 {
        fill: #33393e;
      }

      .cls-8 {
        fill: #fbfafa;
      }

      .cls-9 {
        fill: #342a2a;
      }

      .cls-10 {
        fill: #39312f;
      }

      .cls-11 {
        fill: #504d4d;
      }

      .cls-12 {
        fill: #344148;
      }

      .cls-13 {
        fill: #5f5050;
      }

      .cls-14 {
        fill: #383535;
      }

      .cls-15 {
        fill: #3490c8;
      }

      .cls-16 {
        fill: #1e96d0;
      }

      .cls-17 {
        fill: #258ac9;
      }

      .cls-18 {
        fill: #f3d2d2;
      }

      .cls-19 {
        fill: #f7fafc;
      }

      .cls-20 {
        fill: #eecece;
      }

      .cls-21 {
        fill: #2099c9;
      }

      .cls-22 {
        fill: #faf9f9;
      }

      .cls-23 {
        fill: #1e3343;
      }

      .cls-24 {
        fill: #3f4149;
      }

      .cls-25 {
        fill: #1a1d22;
      }

      .cls-26 {
        fill: #5c5150;
      }

      .cls-27 {
        fill: #413a3b;
      }

      .cls-28 {
        fill: #433935;
      }

      .cls-29 {
        fill: #edcbcb;
      }

      .cls-30 {
        fill: #3b4049;
      }

      .cls-31 {
        fill: #263233;
      }

      .cls-32 {
        fill: #151c17;
      }

      .cls-33 {
        fill: #3c3c3c;
      }

      .cls-34 {
        fill: #f7efef;
      }

      .cls-35 {
        fill: #2a2d33;
      }
    </style>
  </defs>
  <g id="Capa_1-2" data-name="Capa 1">
    <g>
      <path class="cls-1" d="M70,9.8c-.2,1.6-.2,4.6-1.2,7.2-1.9,4.8-.8,9,1,13.6,4.4,11,1.9,18.1-7.9,24.8-5.5,3.8-11.6,6.6-16.8,11-5.9,4.9-14,4.2-19.9-1-3-2.7-6.3-4.8-9.9-6.6-.7-.3-1.3-.8-1.9-1.1C-.6,49.3-3.1,41.8,3.4,26.9c1-2.2,1.2-4.1,.4-6.4C2.5,16.2,1.7,11.7,1.8,7.2,2,1,5.8-1.7,11.3,1.1c5.4,2.7,10.1,3.3,16,1.1,7.3-2.7,15.1-1.7,22.3,1.6,2.2,1,3.9,1.1,5.8-.3,1.2-.9,2.6-1.4,4-2,7.3-3.1,10.8-.7,10.7,8.3Z"/>
      <path class="cls-34" d="M3.6,33c.9-4.8,3.6-8.9,5.5-13.3,.8-1.9-.2-3-1.7-3.9-1-.6-2.4-.7-2.8-2.1-.5-2.3-.9-4.6-.7-7,.3-3.9,2.5-5.3,6.1-4,2.5,.9,5,2,7.4,3.8-.4,.4-.7,.8-1,1.1-.6,.5-1.4,.8-.8,1.7,.7,.9,1.4,.2,1.9-.2,4-2.7,8.3-4.5,13-5.2,8.3-1.3,16,.2,23.1,4.8,.7,.4,1.5,1.7,2.5,.6,.8-.9-.3-1.4-.9-2-1-.9,0-1.2,.5-1.6,.8-.5,1.7-1,2.6-1.4,2.6-1.1,5.3-3.4,8-1.5,2.9,2.1,1.9,5.6,1.5,8.7-.1,1-.3,2-.5,2.9-1.8,1.4-5.9,1-4.5,5.2,2,4.4,4.6,8.4,5.5,13.2,1.1,5.9-.4,10.8-5.4,14.4-4.2,3.1-7.8,7-12.9,8.7-2.3,.8-3.5,3.1-4.8,5-1.9,2.8-4.4,4.7-7.8,5.3-2.9,.5-6.1,.3-7.5-2.1-4.1-6.9-11.7-9-17.3-13.7-1.2-1-2.4-2.1-3.7-3.1-4.8-3.7-6.7-8.5-5.1-14.4Z"/>
      <path class="cls-18" d="M3.6,33c-.9,8.2,4.1,13,10.1,17.2,3.5,2.5,6.9,5.2,11.1,6.7,2.1,.8,2.6,3.2,3.9,4.8,4.2,5.3,10,6.6,13.4,1.2,4.2-6.6,11.3-8.5,16.5-13.3,2-1.9,4.3-3.4,6.3-5.3,3.3-3.1,2.6-7.5,3.5-11.4,2.9,7.7,1.7,12.8-4.2,18.1-3.2,2.8-6.8,4.9-10.6,6.9-.4,.2-1.6,1.9-1.9-.5-.4-2.2-1.1-.8-1.5,.1-1.1,2.1-2.3,4.1-4.1,5.7-7.4,6.6-17.1,5-23.2-3.6-.3-.5-.3-5.4-3-1.2,0,0-.9-.3-1.3-.5-4-2.3-8-4.4-11.4-7.6-5.2-4.9-6.2-10.8-3.4-17.3Z"/>
      <path class="cls-29" d="M62.8,19.7c-1.8-4.3-1-5.1,4.5-5.2-.2,1-.3,1.9-.5,2.9-.3,1.2-.7,2.4-1,3.7-1.5-.4-.5-3.2-2.7-2.6-.2,0-.1,.9-.2,1.4Z"/>
      <path class="cls-20" d="M4.6,13.7c2.5,1.2,6.8,1.1,4.5,6-.2-.6,.5-2-1.1-1.3-.9,.4-.6,1.9-1.9,2.4-.5-2.4-1.6-4.6-1.6-7Z"/>
      <path class="cls-3" d="M13,42.3c0,.6-.4,.8-1,.7-1.3-1.4-2.1-2.9-1.6-4.9,.7-2.8,1.5-5.6,3.4-7.9,.3-.2,.7-.3,1.1-.4,.4,0,.7,.2,1,.5,.7,1.9-.4,3.9,.1,5.8,.4,1.5,.5,3.6,2.5,3.6,1.7,0,2.1-1.8,2.6-3.3,.7-2-.1-4.2,1-6.1,1.4-.7,1.5,.6,2,1.2,.4,.7,.7,1.4,1.1,2.1,1.3,1.9,1.7,4.2,2.2,6.3,.5,2,.4,4-2.1,4.9-2.5,.3-4.8,0-7.2-.7-1.8-.4-3.5-.9-5.1-1.8Z"/>
      <path class="cls-22" d="M65.9,32.9h0c0,1.1,0,2.2-.1,3.3-.2,.9-.6,1.8-1.2,2.6-1.5,2.4-2.6,1.8-3.4-.5-1-3.2-2-6.3-3.5-9.3-.4-.8-.8-1.7-.1-2.4,.7-.8,1.6-.3,2.4,0,1.4,.5,2.6,1.4,3.6,2.5,.9,1.2,1.5,2.5,2.3,3.8Z"/>
      <path class="cls-7" d="M63.5,29.9c-1.6-1.3-3.1-2.9-5.8-3.1,1.9,4.1,3.7,7.9,4.7,12.1,.5,2.1,1.3-.3,2-.3,.3,.1,.5,.3,.6,.7-.9,1.7-2.3,2.8-4.2,3.1-.3,.2-.6,.2-1,0,0-2.1,.3-4.2-.6-6.2-.5-2.4-1.8-4.5-2.7-6.8-.4-.7-.8-1.2-1.7-1.3-.6,0-1.3-.1-1.9-.4-.5-.3-.8-.6-.6-1.2,4.6-2.2,7.8-1.6,11.3,2.1,.3,.4,.2,.8-.2,1.2Z"/>
      <path class="cls-5" d="M54.1,44.6c-.9,.9-2.1,.6-3.1,.8-5.9,1-7.9-1.3-6.2-7.2,.6,.1,1,.5,1.3,1,.2,5,4,3.9,7,4.1,.5,.3,.9,.7,1,1.3Z"/>
      <path class="cls-24" d="M25.3,44.3c2-1.2,1.8-3.1,1.3-4.8-.5-2.1-1.3-4.2-2-6.3,.3-.4,.6-.4,1,0,1.5,2.3,2.2,4.8,2.6,7.5,.2,1.9,0,3.7-2.2,4.5-.3-.2-.8-.3-.8-.8Z"/>
      <path class="cls-31" d="M14.8,30.1c-.2,0-.4,0-.7,.1-.3,.2-.6,.3-.9,0-.7-.5,.4-2.2-1.4-2.1-.6-.4-1-.8-.7-1.6,2.4-1.5,4.8-1.7,7.4-.7,.1,.6-.2,.9-.6,1.2-1.5,.6-2,2.1-3.2,3Z"/>
      <path class="cls-33" d="M52.4,26.5c.3,.2,.5,.5,.8,.7,0,1.8-1.8,2.1-2.5,3.4-.8,1-1.4,2.3-2.7,2.9-.5,.1-1,.1-1.4-.3,1.2-2.9,3-5.2,5.8-6.7Z"/>
      <path class="cls-35" d="M11.3,37.9c-.2,1.7,.4,3.4,.7,5-1.7-1-3.6-1.8-4.7-3.6-.4-.6,0-.9,.5-1.1,2.1,1.7,1.7-1.6,2.9-1.5,.5,.2,.8,.5,.5,1.1Z"/>
      <path class="cls-27" d="M17.7,26.7c.3-.3,.6-.5,.9-.8,2.7,.9,4.7,2.6,5.9,5.1-.1,.3-.2,.8-.7,.8-.5-.5-.9-.9-1.4-1.4-1.6-.6-2.9-1.8-4.4-2.8-.2-.3-.4-.6-.3-1Z"/>
      <path class="cls-28" d="M11.2,26.6c.3,.3,.5,.7,.8,1-1.2,2.2-2.8,4.2-4.8,5.8-.6-.2-1-.5-.7-1.2,.5-2.7,2.3-4.4,4.6-5.6Z"/>
      <path class="cls-13" d="M6.5,32.2c.3,.3,.5,.7,.8,1,1.4,1.6,1.6,3.4,.7,5.3-.2,.3-.4,.5-.6,.8-2.1-2.1-1.9-4.6-.8-7.1Z"/>
      <path class="cls-32" d="M25.3,44.3c.3,.3,.5,.5,.8,.8-3.3,.4-6.5,.4-9.7-.8,0-1.2,.7-1.1,1.5-.6,2.5,0,4.9,1.2,7.4,.6Z"/>
      <path class="cls-23" d="M46.6,33.2c.4,0,.8,0,1.1,0,.7,2.5,.1,4.6-2.2,6-.3-.3-.5-.6-.8-1,.1-1.8,.9-3.5,1.8-5Z"/>
      <path class="cls-11" d="M63.5,29.9c0-.4,.1-.8,.2-1.2,1.6,1,2,2.5,2.3,4.2-1.8-.2-1.8-1.9-2.4-3Z"/>
      <path class="cls-26" d="M65.2,36.3c.1-1.2-.8-2.5,.6-3.4,1,1.4,1.1,2.9,.1,4.4-.5-.1-.6-.6-.8-.9Z"/>
      <path class="cls-30" d="M17.9,43.7c-.5,.2-1,.4-1.5,.6-1.3-.4-3.1,0-3.4-2.1,1.7,.2,3.4,.5,4.9,1.4Z"/>
      <path class="cls-10" d="M44,28.1c1.1-1.7,1.8-2.9,4.1-3.1-1.3,1.4-1.9,2.8-4.1,3.1Z"/>
      <path class="cls-14" d="M59.8,42.1c.4,0,.7,.2,1.1,.3-1,1.2-2.5,1.3-3.9,1.4-.3-.3-.4-.7-.3-1.1,.8-1.3,1.9-1.3,3.1-.6Z"/>
      <path class="cls-9" d="M24.6,25.5c2-.1,2.9,.7,3.5,3.3-1.7-1.6-2.6-2.5-3.5-3.3Z"/>
      <path class="cls-25" d="M56.9,43.1c0,.2,0,.4,0,.6-.8,1-1.8,.9-2.9,.8-.3-.2-.6-.5-.9-.7,1.1-1.2,2.3-1.6,3.8-.7Z"/>
      <path class="cls-4" d="M23.8,31.8c.2-.3,.5-.5,.7-.8,.4,.7,.8,1.4,1.2,2.1-.3,0-.7,0-1,0-.6-.3-.8-.8-.9-1.4Z"/>
      <path class="cls-2" d="M65.2,36.3c.3,.3,.5,.6,.8,.9,0,.9-.4,1.5-1,2-.2-.2-.4-.4-.6-.7,.3-.8,.6-1.5,.8-2.3Z"/>
      <path class="cls-19" d="M17.7,27.1c2.2,.3,3.7,1.5,4.8,3.3,.1,3,.3,6-1.2,8.7-.6,1.1-1.4,2.1-2.8,2.1-1.5,0-2.1-1.2-2.6-2.3-1.4-2.9-.9-5.8-.2-8.7,0-1.6,.5-2.7,2.1-3.1Z"/>
      <path class="cls-12" d="M11.3,37.9l-.7-.9c-1.1-3,.1-5.2,2.5-6.9,.3,0,.7,0,1,0-1,2.6-1.9,5.1-2.9,7.7Z"/>
      <path class="cls-17" d="M17.7,27.1c-.7,1-1.4,2.1-2.1,3.1-.3,0-.5,0-.8-.1,0-1.9,.9-3.1,2.9-3.4,0,.1,0,.3,0,.4Z"/>
      <path class="cls-16" d="M56.9,43.1c-1.3,.2-2.5,.5-3.8,.7-.6,0-1.2,0-1.8,0-5.1,1-5.7,.5-5.8-4.7,.7-2,1.4-4,2.2-6,.8-.9,1.5-1.9,2.3-2.8,1.7,1.6,.8,3.7,1.2,5.6,.7,3.6,2.2,4.2,5.3,2.4,1.3-.5,1.2-3.4,3.6-2.2,.6,2,2.5,4.1-.3,5.9-.9,.3-2.3-.3-2.8,1.1Z"/>
      <path class="cls-6" d="M56.7,39.2c-2.7,2.9-4.5,2.5-6.1-1.2-1-2.5-.4-5.1-.6-7.6,.5-1.6,2.2-2,3.2-3.1,.7,0,1.4,0,2.1,0,.8,.6,1.1,1.6,1.6,2.4,1.5,3.2,2.3,6.4-.2,9.5Z"/>
      <path class="cls-21" d="M56.7,39.2c1.1-3.3,.9-6.5-.3-9.7,0-.3,.2-.6,.5-.7,1.6,2.2,2.8,4.7,3.2,7.4-2.3-.3-1.1,3.4-3.4,3Z"/>
      <path class="cls-15" d="M56.9,28.8c-.2,.2-.3,.4-.5,.7-.4-.7-.7-1.5-1.1-2.2,1.2-.2,1.6,.4,1.6,1.5Z"/>
      <path class="cls-8" d="M13.1,30.1c-1.2,2.1-2.1,4.4-2.5,6.9-.8,.6,.4,4.5-2.5,1.5-.9-1.7-.8-3.5-.7-5.3,.9-2.4,2.2-4.5,4.6-5.6,.8-.4,1.7-.7,2.9-1.2-.7,1.5-1.2,2.6-1.7,3.8Z"/>
    </g>
  </g>
</svg>