<?xml version="1.0" encoding="UTF-8"?>
<svg id="Capa_2" data-name="Capa 2" xmlns="http://www.w3.org/2000/svg" viewBox="0 0 87.9 74.5">
  <defs>
    <style>
      .cls-1 {
        fill: #245ca7;
      }

      .cls-2 {
        fill: #172841;
      }

      .cls-3 {
        fill: #291d24;
      }

      .cls-4 {
        fill: #232132;
      }

      .cls-5 {
        fill: #122b41;
      }

      .cls-6 {
        fill: #dd7d9d;
      }

      .cls-7 {
        fill: #082b3b;
      }

      .cls-8 {
        fill: #251f2b;
      }

      .cls-9 {
        fill: #f3b3d1;
      }

      .cls-10 {
        fill: #1c2b4c;
      }

      .cls-11 {
        fill: #1d2c4f;
      }

      .cls-12 {
        fill: #202c3c;
      }

      .cls-13 {
        fill: #212333;
      }

      .cls-14 {
        fill: #2d2329;
      }

      .cls-15 {
        fill: #132231;
      }

      .cls-16 {
        fill: #c16281;
      }

      .cls-17 {
        fill: #dbaebe;
      }

      .cls-18 {
        fill: #edb0cd;
      }

      .cls-19 {
        fill: #5d2f41;
      }

      .cls-20 {
        fill: #f2ebec;
      }

      .cls-21 {
        fill: #d5e1f0;
      }

      .cls-22 {
        fill: #1c2c4c;
      }

      .cls-23 {
        fill: #1e2d51;
      }

      .cls-24 {
        fill: #533e41;
      }

      .cls-25 {
        fill: #135b9b;
      }

      .cls-26 {
        fill: #21191a;
      }

      .cls-27 {
        fill: #2b1c1e;
      }

      .cls-28 {
        fill: #323747;
      }

      .cls-29 {
        fill: #ebb4ca;
      }

      .cls-30 {
        fill: #282532;
      }

      .cls-31 {
        fill: #235ca7;
      }

      .cls-32 {
        fill: #fbfafb;
      }

      .cls-33 {
        fill: #3d3944;
      }

      .cls-34 {
        fill: #343636;
      }

      .cls-35 {
        fill: #33262b;
      }

      .cls-36 {
        fill: #1a1e38;
      }

      .cls-37 {
        fill: #553d42;
      }

      .cls-38 {
        fill: #3b242c;
      }

      .cls-39 {
        fill: #1b233f;
      }

      .cls-40 {
        fill: #172339;
      }

      .cls-41 {
        fill: #282836;
      }

      .cls-42 {
        fill: #1a2335;
      }

      .cls-43 {
        fill: #47222a;
      }

      .cls-44 {
        fill: #1c2c4d;
      }

      .cls-45 {
        fill: #805362;
      }

      .cls-46 {
        fill: #1a1927;
      }

      .cls-47 {
        fill: #e5b2c6;
      }

      .cls-48 {
        fill: #2e1d1f;
      }

      .cls-49 {
        fill: #563c41;
      }

      .cls-50 {
        fill: #3d2a34;
      }

      .cls-51 {
        fill: #4b3333;
      }

      .cls-52 {
        fill: #25293b;
      }

      .cls-53 {
        fill: #fcfbfb;
      }

      .cls-54 {
        fill: #1f2c51;
      }

      .cls-55 {
        fill: #282636;
      }

      .cls-56 {
        fill: #162238;
      }

      .cls-57 {
        fill: #162339;
      }

      .cls-58 {
        fill: #2f4859;
      }

      .cls-59 {
        fill: #eeb3cd;
      }

      .cls-60 {
        fill: #182742;
      }

      .cls-61 {
        fill: #4c343e;
      }

      .cls-62 {
        fill: #222235;
      }

      .cls-63 {
        fill: #47222c;
      }

      .cls-64 {
        fill: #151b2a;
      }

      .cls-65 {
        fill: #191e38;
      }

      .cls-66 {
        fill: #145a9b;
      }

      .cls-67 {
        fill: #303341;
      }

      .cls-68 {
        fill: #4e4149;
      }

      .cls-69 {
        fill: #c1d7ed;
      }

      .cls-70 {
        fill: #ebb7ca;
      }

      .cls-71 {
        fill: #1a243f;
      }
    </style>
  </defs>
  <g id="Capa_1-2" data-name="Capa 1">
    <path class="cls-26" d="M11.8,31.8c-3.1,1.1-5.6,2.1-8.2,2.9-1.1,.4-2.2,.3-3.1-.7-.9-1-.6-2.2,0-3.2,4.3-7.7,10-14.1,18.6-16.9,2.6-.8,3.6-1.9,3.9-4.5,.3-2.3,1-4.6,1.7-6.9,.3-1.2,1-2.5,2.4-2.6,1.4-.1,2.5,.7,2.8,2,1.7,6.2,5.5,7.6,11.5,5.9,3.3-.9,7-.3,10.4,.7,2,.6,3.2,.2,4-1.9,.6-1.7,1.6-3.3,2.5-5,.6-1,1.4-1.8,2.7-1.7,1.3,0,2,1.1,2.3,2.2,.9,3.5,.9,7.6,2.9,10.3,1.9,2.5,6.3,2.4,9.1,4.5,4.9,3.6,9,7.9,11.8,13.3,.7,1.2,1.3,2.5,.2,3.8-1.1,1.3-2.4,.9-3.8,.4-1.8-.6-3.5-1.4-5.3-1.8-.6-.1-2.3-.8-1.8,1.5,3.2,15.6-3.9,30.3-17.9,36.9-14.2,6.8-30.6,3.2-40.5-9.1-6.5-8-8.5-17.2-6.8-27.4,.1-.8,.3-1.7,.5-2.9Z"/>
    <path class="cls-71" d="M69.5,58.1c-2.1,5.1-6.4,7.6-10.9,10.3-7,4.2-14.4,3.3-21.9,3-1.6,0-3.8-.8-4.7-2.8-.8-1-2.3-.6-3.1-1.6-2.8-.3-5.2-1.2-6.6-3.9-.5-.9-.9-2.1-2.3-2.1,.4-2.2,1.1-2.5,2.8-1.5,1.4,.8,2.3,2.2,3.7,3,5,2.5,9.9,4.9,15.4,6.2,3.8,.9,6.9-1.3,10.4-1.8,1.1-.2,2.3-.8,3.3-1.7,2-.8,3.9-1.8,5.9-2.6,1.7-.8,2.6-2.7,4.3-3.5,1.1-.6,2.1-2,3.7-1Z"/>
    <path class="cls-11" d="M80,25.1c1.7,.3,1,3,3,3.1q-.5,2.2-2.5,1.2c-4.2-2-7.6-5-11.6-7.7,1.2,2,2.2,4,1.1,6.3-.2,.3-.6,.5-.9,.6-2.7-2.6-4.3-5.7-4.9-9.3,0-1.3,.4-2.4,1.7-3,1.8,.4,4.1-1.2,5.3,1.4,.6,.8,1.5,1,2.3,1.4,1.4,1.5,3.2,2.4,5.1,3.1,1.1,.6,.5,2.2,1.6,2.9Z"/>
    <path class="cls-44" d="M35,11.7h1.5c.5-.5,1-.4,1.6-.2,.2,.3,.3,.7,.2,1.1-1.7,3,.2,5.2,1.6,7.5,1,1.6,2.8,3.1,1,5.3-1.5,.8-2.5,0-3.5-1.1-.9-1.5-2.2-2.7-3.5-3.8-3.6-2.9-7.3-2.5-10.3,1-.5,.6-1,1.1-1.8,1-.6-.1-1-.5-1.3-1-.3-.9,0-1.9,0-2.8,0-1,.3-1.9,1-2.6,2.5,0,5,0,7.5,0,1.9-1.6,4.6-2.1,6-4.4Z"/>
    <path class="cls-23" d="M14,49.1c.2-5-.9-10.1,0-15.1,.4-2.3,1-4.4,3-5.8,.6-.4,1.2-.3,1.7,.1,1.4,2.7,1.1,5.6,.3,8.3-.5,1.8-.9,3.6-1.2,5.4,0,.4-.2,.7-.4,1.1-.8,1-1.2,2.2-1.1,3.5,0,1-.1,1.9-.8,2.7-.6,.3-1.1,.3-1.6-.2Z"/>
    <path class="cls-32" d="M55.7,11.7c1.6-3.1,2.8-6.5,5.1-9.7,1.4,3.7,1.9,7.4,2.8,10.9,.6,2.4,0,2.9-2.3,2.3-.9-.3-1.9-.3-2.9-.5-1.6-.3-3.3-.5-2.7-2.9Z"/>
    <path class="cls-23" d="M73.9,31.2c0,2.5-.2,5,.8,7.3,1.5,3.7-1.7,7-.8,10.6-.6,.5-1.1,.4-1.7,0-.7-.9-.7-1.9-.8-3-2.1-4.3-.7-9.3-2.7-13.6-.4-1.5-.4-3,.7-4.3h0c.4-.4,.9-.6,1.6-.7,2.5,0,1.8,2.6,2.9,3.7Z"/>
    <path class="cls-11" d="M21.5,16.2c0,1,0,2,0,3-3.8,4.3-8.9,7-13.6,10.1-.9,.6-1.9,1.2-3.1,.4-.3-.6-.3-1.1,.2-1.6,2,0,1.3-2.7,3-3,1.1-.7,.5-2.2,1.6-2.9,1.9-.7,3.7-1.6,5.2-3.1,.8-.4,1.7-.7,2.3-1.4,.8-2.6,3-1,4.5-1.4Z"/>
    <path class="cls-53" d="M29,14.7c-.5,0-1,0-1.5,.2-2.8,1-3.7,0-3-2.7,.8-3.2,1.6-6.4,2.5-10.2,2.8,3.1,3.6,6.7,5.5,9.7,.2,2.4-.3,2.8-3.6,3Z"/>
    <path class="cls-22" d="M57.5,16.1c.5,0,1,0,1.5,0,.4,.5,.4,1,.2,1.6-3.2,1.6-6.1,3.7-8.5,6.4-.9,1.1-1.9,2-3.5,1.3-1.4-1.3-.9-2.7,0-4,.8-1.1,1.4-2.3,1.6-3.7,.1-.7,.4-1.3,.9-1.9,1.9-1.3-.7-3.2,.7-4.6,1-.4,1.8-.3,2.6,.5h0c1.2,1.8,3.4,2.6,4.6,4.4Z"/>
    <path class="cls-65" d="M71,28.1c-.5,0-1,0-1.5,0,1.3-3.2-2.3-5.4-2.2-8.9,4.8,3.6,9,6.9,13.7,9.6,1.1,.6,1.8,.9,2-.7,1.1,0,1.6,.7,1.4,1.7-.2,1.2-1.1,1.2-2,1.2-2,.2-3.4-1.3-5-2-1.2-.5-2.2-1-3.4-1-1-1.4-2-1.7-3,0Z"/>
    <path class="cls-36" d="M5,29.7c5.1-1.9,9-5.5,13.4-8.6,1-.7,1.6-1.9,3.1-1.9-.2,.7-.5,1.5-.7,2.2,0,2.3-1.6,4.1-1.9,6.4-.1,.1-.3,.2-.4,.4-.5,0-1,0-1.6,0-1-1-.8-5.6-3.6-.6-1.1,2-4.9,3.8-8.3,3.7-.4-.5-.4-1,0-1.5Z"/>
    <path class="cls-4" d="M26,63.4c-1.1-1-2.2-2-3.4-2.9-1.1-.9-2.2-1.4-2.6,.7-2.2-1.4-2.8-3.6-3-6,.1-.1,.3-.3,.4-.4,.7-.4,1.4-.4,2.1-.2,2.9,1.9,5.5,4,7,7.3,0,.6-.1,1.1-.6,1.5Z"/>
    <path class="cls-62" d="M69.5,58.1c-3.1,.9-4.8,3.8-7.5,5.3-.6-.6-.7-1.3-.5-2.1,1.8-2.7,4.3-4.9,6.9-6.7,.7-.2,1.5-.2,2.2,.2,.1,.1,.3,.3,.4,.4-.1,1.2,.5,2.8-1.5,3Z"/>
    <path class="cls-60" d="M52.9,11.7c-1,0-1.9,0-2.9,0-4,1.7-8.1,1.6-12.1,0-.5,0-1,0-1.5,0,4-2.9,8.6-1,12.9-1.4,1.2-.1,3.2-.9,3.5,1.5Z"/>
    <path class="cls-13" d="M29,14.7c1.1-1.1,3.5-.7,3.6-3,.8,0,1.6,0,2.5,0-.2,4-3.3,4-6,4.4,0-.5,0-.9,0-1.4Z"/>
    <path class="cls-2" d="M58.9,17.6c0-.5,0-1,0-1.4,2.3,0,4.5,0,6.8,0-.6,.9-.9,1.9-.8,3-2.5,1.5-4.2-.4-6-1.6Z"/>
    <path class="cls-46" d="M71,28.1c.1-1.1-.5-2.7,1.3-2.8,2.2-.1,1.5,1.7,1.7,2.9,0,1,0,2.1,0,3.1-2.1,0-.8-3.2-2.9-3.1Z"/>
    <path class="cls-52" d="M57.5,16.1c-1.8-1.2-5-.9-4.6-4.4,.9,0,1.9,0,2.8,0-.3,2.1,1.9,1.9,2.7,2.9-.6,.3-1,.8-.9,1.6Z"/>
    <path class="cls-64" d="M5,29.7c0,.5,0,1,0,1.5-.1,1.3-.9,1.8-2,1.3-1.5-.7,0-1.3,.3-1.9,.3-1,.1-2.3,1.7-2.4,0,.5,0,1,0,1.5Z"/>
    <path class="cls-40" d="M17,55.1c-2-.2-1.3-1.8-1.5-3,.2,0,.4-.2,.6-.3,2.2,.6,1.8,1.8,.9,3.3Z"/>
    <path class="cls-57" d="M72.4,52.1c-.1,1.2,.5,2.8-1.5,3-.9-1.4-1.2-2.7,.9-3.3,.2,0,.4,.2,.6,.3Z"/>
    <path class="cls-56" d="M9.6,22.2c-.2,1.1,.5,2.8-1.6,2.9,.2-1.1-.5-2.8,1.6-2.9Z"/>
    <path class="cls-15" d="M80,25.1c-2.1-.1-1.3-1.8-1.6-2.9,2.1,.1,1.4,1.8,1.6,2.9Z"/>
    <path class="cls-56" d="M14,49.1h1.4c1,1,.8,2,0,3,0,0,0,0,0,0-2.1-.3-1.4-1.8-1.5-3Z"/>
    <path class="cls-39" d="M72.5,49.1c.5,0,.9,0,1.4,0-.1,1.2,.6,2.8-1.5,3,0,0,0,0,0,0-.8-1-1-2,0-3Z"/>
    <path class="cls-54" d="M28.9,67.1c1.3,0,2.5,0,3.1,1.6-1.2-.2-2.8,.4-3.1-1.6Z"/>
    <path class="cls-7" d="M17,17.7c0,1.6-1.1,1.5-2.3,1.4,.5-.9,1.2-1.4,2.3-1.4Z"/>
    <path class="cls-7" d="M73.2,19.1c-1.1,0-2.2,.1-2.3-1.4,1.1,0,1.8,.5,2.3,1.4Z"/>
    <path class="cls-3" d="M26,63.4c0-.5,0-1,0-1.6,1.6-1,2.8,.2,4.1,.8,3.3,1.6,6.5,3.4,10.3,3.8,2.4,.6,4.9,.6,7.3,0,2.5-.2,4.8-1.4,7.4-1.4,.4,0,.7,.3,1,.6,0,2-2.2,2-3,2.1-4.3,.4-7.8,3.2-13,1.5-4.9-1.6-9.3-3.9-14-5.8Z"/>
    <path class="cls-38" d="M56,65.7c-.3,0-.6,0-1-.1,1.6-2.5,3.8-4.2,6.9-4.1,0,.7,0,1.3,0,2-2,.7-3.6,2.5-6,2.3Z"/>
    <path class="cls-50" d="M58.9,17.6c2.3-.6,3.7,2.1,6,1.6,.8,3.4,2.4,6.3,4.5,8.9,0,1.5,0,2.9,0,4.4,1.1,3.4,.8,6.8,.4,10.2-.2,.4-.6,.6-1.1,.6-1.4-1.1-1.2-2.6-1.2-4.1,0-3.7-.7-7.4-1.7-11-.8-1.8-1.6-3.6-2.8-5.3-2.6-3.5-4.8-3.6-8-.7-2.5,2.3-4.5,5.4-8,6.5-2,.4-3.9,.4-5.9,0-2.3-1.3-5.6-1.6-5.6-5.4,.8-.5,1.5-.4,2.2,.2,.6,1.4,1.7,1.5,3,1.5,.2,0,.3,0,.5,0,1.7,.6,3.3,.8,5,0,.2,0,.3,0,.5-.1,3.1,.2,3.9-2.8,5.6-4.3,2-1.7,3.8-3,6.3-3.2Z"/>
    <path class="cls-8" d="M38,23.7c-.7,0-1.4,0-2.1,0-1.4,0-2.2-1.1-3.2-1.8-3.5-2.4-5.3-2.1-7.9,1.3-3.6,4.6-3.9,10.1-4.4,15.6-.1,1.5,0,3-.8,4.4-.3,.3-.6,.5-1,.6-.6,0-1.2,0-1.6-.5-.3-5.1,2.4-9.9,1.5-15,0,0,0,0,0,0,1.2-1.9,.8-4.6,3-6,2.2-1.7,3.4-4.5,6.8-4.6,4.6,0,7.4,2.6,9.7,6.1Z"/>
    <path class="cls-55" d="M49.4,17.6c1,1.9-.5,3.1-1.4,4.2-.9,1.1-1.1,2.1-1,3.4,0,0,0,0,0,0-2,1.2-4,1-6,0,0,0,0,0,0,0,.3-2.9-2.1-4.5-3.3-6.7-1.1-2.1-2.5-4.2,.2-6.1,.3,.2,.5,.5,.6,.9,.2,1.4,.5,2.7,1.2,3.9,3,5.6,3.7,5.8,8.1,1.3,.4-.5,.9-.8,1.6-.8Z"/>
    <path class="cls-35" d="M38,13.3c0-.3,0-.6,0-1,0-.2,0-.5,0-.7,4,0,8.1,0,12.1,0,1.1,1.5,3.1,3,0,4.5-1.9-2.7-4.6-2.8-7.5-2.6-1.5,.1-3.1,.9-4.6-.3Z"/>
    <path class="cls-11" d="M21.5,22.2c-1,2-.7,4.7-3,6-.4-2.6,.4-4.9,2.3-6.8,.2,.2,.5,.5,.7,.7Z"/>
    <path class="cls-14" d="M17,43.2c.6,0,1.2,0,1.8,.1-.7,4,0,7.9,.7,11.7-.8,0-1.7,0-2.5,0-.2-1.2,.5-2.8-1.5-3,0-1,0-2,0-3,0-1,0-1.9,0-2.9,1-.8,.5-2.3,1.4-3h0Z"/>
    <path class="cls-5" d="M17,43.1c-.1,1.2,.5,2.7-1.4,3,.1-1.2-.5-2.7,1.4-3Z"/>
    <path class="cls-42" d="M69.4,43.3c0-3.6,0-7.1,.1-10.7,.4,.7,1.2,1.5,1.2,2.2,0,3.9,.6,7.7,1.6,11.4-.5,.4-1,.5-1.6,.4-1.3-.7-2.2-1.7-1.4-3.3Z"/>
    <path class="cls-27" d="M70.7,46.2c.6,0,1.1,0,1.7,0,0,1,0,2,.1,2.9,0,1,0,2,0,3-2,.2-1.4,1.8-1.5,3-.8,0-1.6,0-2.5,0,.5-3,1.4-5.9,2.2-8.8Z"/>
    <path class="cls-18" d="M38,13.3c3.3-.5,6.6-.9,10-.3,2.2,.4,2.7,1.3,2.1,3.2-.2,.5-.4,.9-.7,1.4-.4,.5-.8,.9-1.2,1.4-4.2,6-5,6-8.8-.6-.9-1.5-2.4-2.9-1.4-5Z"/>
    <path class="cls-9" d="M70.7,46.2c.8,3.3-.4,6.2-2.2,8.8-2.2,2.1-4.4,4.2-6.5,6.3-2.3,1.4-4.6,2.8-6.9,4.1-2.4,.5-4.5,2-7.1,1.7-1.7,0-3.8,1.5-4.5-1.4,.2-1.5,1.3-2,2.5-2.3,5-1.4,7.8-5.2,10.5-9.2-1.6-2.7-3.2,.2-4.8,0-4.3-1.2-8.6-1.8-13-.4-1.5,.2-2.8,.8-4.2,1.1-1.6,.3-3.1,.2-4.6-.3,.6,.5,1.6,.2,2.2,.8,2.8,3.3,5.6,6.6,9.7,8.4,.9,.8,1.5,1.7,.8,2.9-.7,1-1.7,.7-2.6,.4-4.1,0-7.3-2.2-10.7-3.9-1.1-.6-2-1.5-3.3-1.5-2.2-2.3-4.4-4.5-6.5-6.8-2.6-3.8-3-7.7-.7-11.7,.2,0,.4,0,.5-.1,.4-1.3,.9-2.5,2.7-1.8,1.2,.8,1.1,2.5,2.2,3.2,2.1,.5,3.7-1.1,5.6-1.3,.8-.3,1.7-.6,2.5-.8,2.3-.3,3.3-1.7,3.2-4,0-1.2,0-2.4,0-3.6-.1-2,.6-3.8,1.5-5.6,.2-.6,.5-1.1,1.1-1.5,1-.4,2-.2,3,.3h6.3c.8-.3,1.6-.5,2.5-.3,1.6,.5,2.2-1.5,3.6-1.4,.3,.2,.5,.4,.7,.8,.2,1.8-1,3.4-.9,5.2,0,.9-.2,1.7-.4,2.6-1,6-.8,6.3,5,8.1,2,.3,3.7,2,6,1.5,1.1-.8,1-2.5,2.2-3.2,1.8-.7,2.1,.8,2.8,1.8,.2,0,.4,0,.6,.2,.4,1,.9,2,1.3,2.9Z"/>
    <path class="cls-17" d="M40,67.2c.8-.3,2,.2,2.3-1.1,.2-1.1-1-1.2-1.4-1.9,.5-.8,1.2-.8,2-.6,.6,.2,.9,.6,1,1.2-.1,3.3,2.5,1.8,4,2.3-2.7,1-5.3,1-8,0Z"/>
    <path class="cls-29" d="M37.9,29.5c-.5,1.9-1.9,3.5-1.5,5.6-2-.4-1.5-2.3-1.9-3.5-.5-1.4-1-2.8-1.7-4-3.2-3.3-5.1-3-8.2,1.3-.7,1.3-.6,2.8-1,4.1-.8,2.6,0,5.4-.6,8-.1,.4-.4,.7-.7,1-1.5-.6-2.2,.5-3,1.3,.4-4.8,0-9.6,1.5-14.3,.3-.9,.6-1.9,1.1-2.8,4-7.6,7.2-10,14-2.5,1.1,2.2,3.3,3.2,5.2,4.5-1.1,0-2.1,0-3.2,0-.3,.2-.7,0-1,0,.3,.5,.6,.8,1,1.2Z"/>
    <path class="cls-59" d="M50,29c-.6-1-1.7-.8-2.6-1,3-1.6,4.9-4.4,7.3-6.7,3.6-3.2,6-3.1,8.9,.6,1.3,1.6,2.4,3.3,2.8,5.4,.1,1.5-.9,1.3-1.9,1.3-2.7-1.1-4.4-4.8-8.1-2.8-.9,.4-1.6,1.4-2.8,.8h0c-2.2-.7-2,2.4-3.7,2.4Z"/>
    <path class="cls-47" d="M64.3,28.2c.8,0,1.6,0,2.1-.8,1.9,3.5,2.1,7.4,2.2,11.3,0,1.5,.1,2.9,.2,4.4-1-.6-1.7-1.9-3.2-1.2-.3-.3-.5-.6-.6-1-.6-2.6,.1-5.3-.6-7.9-.2-1.5-.9-2.9-.4-4.4,.1-.1,.3-.3,.4-.4Z"/>
    <path class="cls-10" d="M41,25.2c2,0,4,0,6,0-2,2.5-4,2-6,0Z"/>
    <path class="cls-53" d="M65.6,41.9c0,1.4,0,2.7-1.2,3.6-2-.3-3.9-.7-4.7-3,0-.6,0-1.2,0-1.7,1-3.8,.2-7.3-1.4-10.8,0-1.6-3.1-2.8-.7-4.8,3.1-.6,4.9,1,6,3.6,.6,1.7,1,3.4,1.2,5.2,.2,2.5,.2,5.1,.7,7.6v.2Z"/>
    <path class="cls-53" d="M23.5,45.6c-1.3-.9-1.3-2.3-1.2-3.7,0,0,0-.2,0-.2,.6-2.5,.5-5,.7-7.5,.3-1.7,.5-3.5,1-5.1,.6-1.4,1.5-2.6,2.8-3.4,1-.6,2.1-1,3.2-.4,1.3,.8,.5,2,0,3-.3,.7-.6,1.3-.8,2.1-1.6,3.9-1.6,8-.9,12.1-.7,2.3-2.7,2.8-4.8,3.1Z"/>
    <path class="cls-41" d="M33.4,26.7c2,2.4,2.1,5.5,3.1,8.4,0,1.1-.2,2.2,0,3.3,.6,3.4-.4,5.5-4.3,5.1-.3-.2-.6-.5-.8-.8-1.8-4.1-.9-7.8,1.3-11.5,.2-1,0-2-.3-2.9,0-.5,0-1,.2-1.5,.3-.3,.6-.3,.9,0Z"/>
    <path class="cls-63" d="M44,64.9c-.3-.2-.6-.4-.8-.5-.2-.2-.3-.4-.2-.6,0-.2,0-.3,0-.3,1.5-1.4,3.7-1.2,5.4-2.2,2.2-1.3,3.2-2.8,1.3-5.1-2-2-4.6-1.4-7-1.5-1.6,0-3.2,.7-4.7,0-.5-.5-.4-1,0-1.6,4.8-1.6,9.5-1,14.2,.6,1.7,.2,3.7-.9,5.2,.9-3.1,5.3-6.9,9.6-13.4,10.4Z"/>
    <path class="cls-48" d="M44.3,41.3c.5,0,.6,0,.7,0,1.7,.6,4-.4,4.9,1.8,.5,1.1-.1,2.3-1.1,2.9-1.9,1.2-3.7,3.3-6.3,2-2-1-4.9-2-4.3-4.5,.7-3.1,4.2-1.6,6-2.2Z"/>
    <path class="cls-30" d="M58.1,44c-1.3-.2-2.6-.7-3.9-.7-2.3,0-2.5-1.2-2.6-3,0-2.8,0-5.6,.8-8.3,.7-.4,1.4-.2,2.1-.1,1.2,.2,2,.9,2.3,2,.3,1,.6,2,.7,3,.3,1.5-.4,3.1,.2,4.6,.5,.6,1.4,.4,2,.7,.2,.3,.3,.6,.3,.9-.3,1.2-1,1.3-2,.8Z"/>
    <path class="cls-43" d="M43.2,63.5c0,.3,0,.6,0,.9-.7,0-1.4,0-2.2,0-4-1.7-7.1-4.4-9.1-8.3-.2-2,1.7-.7,2.3-1.5,1.2-.5,2.5-1,3.7-1.5,0,.5,0,.9,0,1.4,.4,.7,.1,1.4,0,2-1.3,2.4-.2,3.9,2,5,1.2,.6,2.6,.7,3.3,2.1Z"/>
    <path class="cls-67" d="M31.9,42.3c0,.4,.1,.8,.2,1.2-.6,.8-1.4,.6-2.2,.5-1.6,.8-1.9-.3-2.2-1.5-1.5-4.4-.9-8.6,.8-12.8,1,0,1.1,.8,1.3,1.5,0,.4,0,.7,0,1.1-.2,2-.8,3.9-.6,5.9,.2,1.8,.7,3.4,2.7,4.1Z"/>
    <path class="cls-12" d="M53.9,32.5c-.5-.2-1-.4-1.5-.6,.4-1.8,.9-3.5,1.3-5.3,.8-.5,1.6-1,2.3-1.5,.7-.5,1.3-.6,1.4,.5-.4,1.7,2.1,2.2,1.6,4-.2,.2-.5,.3-.9,.3-.5-.1-.9-.3-1.3-.5-1.4-.4-1.4,.8-1.8,1.6-.2,.6-.7,1.1-1.2,1.6Z"/>
    <path class="cls-70" d="M57.4,54.5c-1.7-.3-3.7,.6-5.2-.9,3-2.4,4.4-2.2,5.2,.9Z"/>
    <path class="cls-19" d="M34.2,54.5c-.5,.9-1.9,.4-2.3,1.5q-3.4-.9-5.3-3.4c2.8,1.2,5.1,2.2,7.7,1.9Z"/>
    <path class="cls-24" d="M27.7,42.5c.6,.6,1.1,1.5,2.2,1.5-2.2,.1-3.8,2.9-6.4,1.6,.9-1.7,3.7-.7,4.1-3Z"/>
    <path class="cls-24" d="M58.1,44c.9-.1,1.6-.5,1.6-1.5,.2-.3,.4-.3,.6,0,.3,2.5,3.2,1.4,4.1,3.1-2.6,1.3-4.1-1.4-6.3-1.6Z"/>
    <path class="cls-50" d="M37.9,29.5c-2.1,0-2-2.1-3.4-3.3,2.2-.5,2.2,1.5,3.3,2,0,.4,0,.9,0,1.3Z"/>
    <path class="cls-50" d="M50,29c1.2-.8,.7-4.4,3.7-2.3-1.4,.1-1.6,1.4-2.1,2.2-.6,.9-1,.8-1.6,.1Z"/>
    <path class="cls-45" d="M61.5,53.4c-.3,.7-.8,1.2-1.5,1-.2,0-.5-.6-.4-.8,.1-.6,.6-1.1,1.3-.9,.2,0,.4,.5,.5,.7Z"/>
    <path class="cls-33" d="M29.1,31.2c-.2-.5-.4-1-.6-1.5,.4-1.3,1.1-2.6,2.2-3.8-3.5-1.1-4.8,1.1-6.1,3.1-.5-.1-.6-.6-.7-.9,2.7-4.8,6.2-5.3,9.5-1.5-.2,0-.4,0-.6,0-.6,.5-1,1.2-1.4,1.9-.1,.3-.3,.5-.4,.8-.5,.7-.5,1.9-1.8,1.9Z"/>
    <path class="cls-37" d="M23.6,34.1c-.8,2.5,.5,5.3-1.3,7.6-.5-3.1-.5-6.2,.6-9.2,.7,.4,.3,1.2,.7,1.7Z"/>
    <path class="cls-51" d="M23.6,34.1c-.2-.6-.5-1.1-.7-1.7-.1-1.5,.2-3,1-4.3,.2,.3,.5,.6,.7,.9-.3,1.7-.7,3.4-1,5Z"/>
    <path class="cls-68" d="M57.4,25.7c-.5-.2-.9-.3-1.4-.5,4-2.4,6.2,.1,8.3,3h-.3c-.2,.3-.2,.8-.7,.9-1.2-2.5-3-3.9-5.9-3.4Z"/>
    <path class="cls-49" d="M65.7,41.7c-1.8-2.3-.5-5.1-1.3-7.6,.4-.5,0-1.3,.7-1.7,1.1,3,1.1,6.1,.6,9.2Z"/>
    <path class="cls-61" d="M65,32.5c-.2,.6-.5,1.1-.7,1.7-.3-1.7-.7-3.3-1-5,.2-.3,.5-.6,.7-1,.6,1.4,1.2,2.8,1,4.3Z"/>
    <path class="cls-28" d="M58.4,29.7c.2,0,.4,0,.6,0,2.3,3.5,2.6,7.3,1.5,11.4-.6-.1-1-.4-1.3-.9-.7-1.6-.3-3.4-.7-5.1-.1-.3-.2-.7-.3-1-.2-.7-.3-1.3-.4-2,0-.8-.5-1.7,.5-2.3Z"/>
    <path class="cls-34" d="M59.6,40.1c.3,.3,.6,.6,1,.9,0,.5-.1,1-.2,1.4,0,0-.3,0-.3,0,0,0-.3,0-.3,0-.2,0-.5,0-.7,0-.7-.5-.7-1.2-.4-2,.2-.3,.6-.4,.9-.3Z"/>
    <path class="cls-66" d="M31.9,42.3c-1.8,.9-2.8,1-3.3-1.7-.5-3.2,.2-6.1,.5-9.1,1.2,.2,2-.9,3.1-.9,.5,0,1,.2,1.3,.6,.8,2-2.2,2.1-2,4.3,.2,2.2-.3,4.5,.3,6.8Z"/>
    <path class="cls-1" d="M33.6,31.1c-.6,0-1.2,0-1.8,0-.7-.7-1-1.5-1.2-2.3,0-.1,0-.3,0-.4,.6-.8,1.4-.7,2.2-.3,1.2,.8,.6,2,.8,3.1Z"/>
    <path class="cls-58" d="M32.7,28.1c-.7,0-1.5,.2-2.2,.3,.3-1.1,1.1-1.6,2.2-1.7,0,.5,0,.9,0,1.4Z"/>
    <path class="cls-6" d="M43.2,63.5c-1.5-.6-3.1-.9-4.4-1.7-2.4-1.4-3.8-3.2-1.5-5.8,4.5-2.1,9-1.9,13.6-.1,1.5,3.6,1,5-2.6,6.5-1.6,.6-3.4,.8-5.1,1.2Z"/>
    <path class="cls-16" d="M50.9,55.8c-4.5-.4-9.1-.3-13.6,.1l.7-1.5c4.4-.8,9-2.5,12.9,1.4Z"/>
    <path class="cls-20" d="M41.9,44.8c-.9-.2-2.3,.2-2.2-1.2,0-1.2,1.4-1.1,2.4-1.1,.9,0,2,.1,2,1.1,0,1.5-1.3,1-2.2,1.3Z"/>
    <path class="cls-31" d="M59,40.3c0,.7,0,1.4,0,2.1-.5,.8-1,.9-1.7,.2-1-1.7,.4-3.7-.7-5.4-.2-1-.4-2-.6-3,.9-.8,1.9-.8,2.8,0h0c.6,2,.5,4.1,0,6.1Z"/>
    <path class="cls-25" d="M58.9,34.2c-.9,0-1.9,0-2.8,0-.2-1.3-1.1-1.6-2.2-1.6-.1-.6-.3-1.1,.4-1.4,.4-.3,.8-.5,1.4-.4,1.1,.3,2,1,3.2,.9v2.6Z"/>
    <path class="cls-25" d="M56.7,37.2c1.4,1.7,.6,3.6,.7,5.4-2.4-1.5-.1-3.6-.7-5.4Z"/>
    <path class="cls-21" d="M30.6,28.7c1.6,.2,1.3,1.3,1.2,2.3-.8,.9-1.5,1.7-2.7,.4,0,0,0-.3,0-.3,.6-.7,.4-2,1.5-2.5Z"/>
    <path class="cls-69" d="M58.8,31.6c-1.2,1.1-2.1,.9-2.9-.4-.6-1.5-.6-2.6,1.5-2.5,.4,.3,.7,.6,1.1,1,.1,.7,.3,1.3,.4,1.9Z"/>
    <path class="cls-31" d="M57.3,28.7c-1.7,.1-1.2,1.5-1.5,2.5-.5,0-1,0-1.6,0q.4-3.2,3-2.4Z"/>
    <path class="cls-25" d="M59,40.3c0-2,0-4,0-6.1,1.3,1.8,.4,3.9,.6,5.9-.2,0-.4,.1-.6,.2Z"/>
  </g>
</svg>