<?xml version="1.0" encoding="UTF-8"?>
<svg id="Capa_2" data-name="Capa 2" xmlns="http://www.w3.org/2000/svg" viewBox="0 0 84.7 71.6">
  <defs>
    <style>
      .cls-1 {
        fill: #bd2c18;
      }

      .cls-2 {
        fill: #201d23;
      }

      .cls-3 {
        fill: #6a5c4e;
      }

      .cls-4 {
        fill: #142536;
      }

      .cls-5 {
        fill: #eeae8b;
      }

      .cls-6 {
        fill: #42322f;
      }

      .cls-7 {
        fill: #112b41;
      }

      .cls-8 {
        fill: #2d2424;
      }

      .cls-9 {
        fill: #4f3b32;
      }

      .cls-10 {
        fill: #055394;
      }

      .cls-11 {
        fill: #ec7979;
      }

      .cls-12 {
        fill: #573631;
      }

      .cls-13 {
        fill: #fbd9c8;
      }

      .cls-14 {
        fill: #f2b08a;
      }

      .cls-15 {
        fill: #d9ac8c;
      }

      .cls-16 {
        fill: #5e130f;
      }

      .cls-17 {
        fill: #133351;
      }

      .cls-18 {
        fill: #c41942;
      }

      .cls-19 {
        fill: #282834;
      }

      .cls-20 {
        fill: #594743;
      }

      .cls-21 {
        fill: #472c27;
      }

      .cls-22 {
        fill: #48251f;
      }

      .cls-23 {
        fill: #5d4f4b;
      }

      .cls-24 {
        fill: #842b39;
      }

      .cls-25 {
        fill: #4f3232;
      }

      .cls-26 {
        fill: #4d221d;
      }

      .cls-27 {
        fill: #463934;
      }

      .cls-28 {
        fill: #4d3e37;
      }

      .cls-29 {
        fill: #1b2e50;
      }

      .cls-30 {
        fill: #eb7879;
      }

      .cls-31 {
        fill: #014f70;
      }

      .cls-32 {
        fill: #4f443b;
      }

      .cls-33 {
        fill: #1f3662;
      }

      .cls-34 {
        fill: #093949;
      }

      .cls-35 {
        fill: #332727;
      }

      .cls-36 {
        fill: #055395;
      }

      .cls-37 {
        fill: #013848;
      }

      .cls-38 {
        fill: #af203b;
      }

      .cls-39 {
        fill: #523936;
      }

      .cls-40 {
        fill: #53433f;
      }

      .cls-41 {
        fill: #2b0f0f;
      }

      .cls-42 {
        fill: #574642;
      }

      .cls-43 {
        fill: #eb7664;
      }

      .cls-44 {
        fill: #212630;
      }

      .cls-45 {
        fill: #203664;
      }

      .cls-46 {
        fill: #fbd8c8;
      }

      .cls-47 {
        fill: #231817;
      }

      .cls-48 {
        fill: #fefefe;
      }
    </style>
  </defs>
  <g id="Capa_1-2" data-name="Capa 1">
    <g>
      <path class="cls-47" d="M4.8,3.4c-.6,.4-1.2,.8-1.8,1.3C1.6,6.1-.7,7.2,.2,9.6c.7,2.1,3,1.4,4.6,1.4,2.1,0,2.9,1,2.9,3,0,2.5,.8,4.5,2.8,6.2,3.1,2.5,1.6,5.8,.9,8.7-1.2,4.9-1.7,9.8-.9,14.8,2.7,15.9,15.7,27.5,31.8,28,12.1,.4,22.9-3,31.3-12.3,6.2-6.9,7.4-14.6,3.1-22.8-2-3.8-1.7-8-2.8-11.9,.4-1.2-.6-2.1-.5-3.3-1-1.4-1.9-3-3-4.3-.2-.2-.5-.4-.7-.6-.6-.5-1-1.2-1.5-1.8-.5-.5-1.1-1.1-1.6-1.6-.7-.6-1.4-1-2.1-1.6-.2-.2-.4-.3-.6-.5-.2-.2-.3-.4-.2-.7,0-.2,.1-.3,.2-.3,.4-.4,.9-.7,1.3-1,.6-.7,1.2-1.5,1.6-2.4,.1-.3,.2-.7,.2-1-.1-.7-.3-1.4-1.2-1.2-3.3,3.9-6.7,4.1-11.6,2.1-7.6-3.1-15.8-2.9-23.2,.9-4.6,2.3-7.8,2-10.9-1.7-.7,.5-.8,1.3-.8,2,.7,2.5,2.8,3.6,4.9,4.6q5.4,2.4,3.2,7.8c-.2,.6-.5,1.1-.5,1.8,0,.8,.4,1.4,1.2,1.6,3.4-2.2,4.7-5.7,3.6-10.3-.4-1.7-.1-2.4,1.5-3,12.3-4.9,27.5-.3,34.8,10.6,1.7,2.5,2.8,5.3,3.2,8.3,.3,2.5,.3,5,1.6,7.2,.7,1.3-.3,2.1-.6,3.1,0,.6,.4,1,.8,1.4,2.8,1.9,3.6,4.2,2.6,7.9-.4,1.7-1.2,3.2-2.1,4.7-.8,2.1-2.6,1.7-4.2,1.7-.5,.2-.9,.5-.9,1.1,1.3,1.5,1.5,2.9-.3,4.2-1.1,.8-2.2,1.5-3.3,2.2-7.8,4.8-16.3,6.1-25.2,5.3-6.9-.6-12.6-3.7-17.3-8.8-2.1-1.7-3.6-3.8-4.9-6.1-1.2-1.7-2.3-3.4-2.5-5.5-.4-2.1-.8-4.2-1.2-6.2-.6-2.9-.1-5.2,3.1-6.2,1.2-.4,2.3-1,3-2.1,.2-.3,.3-.7,.3-1-.3-.8-.9-1.1-1.6-1.2-1.5-.3-2.9,.4-4.2,.9-1.3-1.1,.6-1.7,.4-2.6,.4-2.5,.5-5.1-.1-7.6-.7-1.2-1.3-2.4-1.7-3.6-1.1-2.1-2.3-4-2.6-6.4-.3-2.4-2.2-3-4.3-3.3-1.2-.1-1.6-.6-.8-1.7,.2-.3,.3-.6,.4-.9,0-.7,0-1.4-.6-1.8Z"/>
      <path class="cls-2" d="M73.1,21.6c-1.8,1.5,.2,2.1,.7,3.1,1.4-.9,2.2-2.2,2.1-3.7-.2-2.6,1-4.5,2.1-6.8,1.3-2.8,1.9-5.4,5.5-6.1,1.7-.3,1.4-2.1,.3-3.3-5.5-5.8-14-6.3-18.2-.4,.2,.5,.5,1,.7,1.5,.9,.6,1.7,.3,2.4-.3,2.7-2.2,5.7-2.1,8.8-1.5,.8,.4,1.8,.5,2.2,1.5-.4,.9-1.4,1.1-2,1.7-1.2,1.1-1.8,2.5-1.9,4.1,0,1.1-.8,1.9-1.5,2.6-2.3,2.2-1.2,5-1.2,7.6Z"/>
      <path class="cls-44" d="M19.7,8.4c0-.9,.1-1.8,.2-2.7C14.4-1.2,10.9-1.7,4.8,3.4c0,.8,0,1.6,0,2.4,.4,.4,1,.5,1.5,.3,4.6-3.2,4.9-3.2,9.5,.3,1.1,.9,2.3,1.9,3.9,1.9Z"/>
      <path class="cls-13" d="M72.1,39.5c.9-.4,1.8-.7,2.8-1.1-1.9-3-2.5-6.4-2.9-9.9-1.2-10.2-12.6-20-24.2-21.1-6.4-.6-12.7,0-18.4,3.4,3.1,4.2,2.8,7-1.3,12.3-3.3,2.4-5.7,5.7-8.2,8.9v.3c-1,2-2.3,3.9-.4,6.1,1,.5,1.9,.2,2.9,0,4.9-.5,8.9,1.9,9.9,5.9,1.2,4.6-1.1,8.6-6,10.6-.6,.2-1.2,.4-1.7,.7-.3,.3-.4,.6-.4,1,1.8,1.2,3.5,2.4,5.4,3.4,3.7-1.3,5.8-4.1,7.1-7.6,.5-1.3,.7-2.6,.7-4,.1-1.7-.2-3.4-.3-5.1-.2-1.3-.6-2.6-1.2-3.8,.6,.8,.7,1.7,1,2.5,.3,.7,.2,1.5,.5,2.3,1.8,2.1,4.4,2,6.8,2.2,2.3,.2,4.7,0,7.1,0,5.6,0,10.7-1.9,15.8-3.8,.3,0,.7,0,1,0,.8-.2,1.4-.8,2.1-1.3,.7-.6,1.6-1.1,1.9-2.1Z"/>
      <path class="cls-46" d="M65.5,62.8c2.4-1,4.1-3,5.9-4.8-.4-1.4-2.3-.8-2.8-1.9-1.9-3.7-2.4-7.5-.5-11.4,.3-.7,.4-1.5-.3-2.1h0c-2.9-.6-3.7,1.7-4.7,3.6-2.9,5.4-7,9.2-13,10.8-3.3,.8-6.7,1.5-9.9,.1-4.2-1.8-7.1-.5-9.7,2.8-1.2,2.4,1,2.7,2.2,3.5,7.9,4.9,16.4,4.2,25,2.4,2.7-.6,5.2-1.8,7.6-2.9Z"/>
      <path class="cls-36" d="M19.7,8.4c-1.4-1.9-3.6-2.9-5.1-4.9-1.6-2.1-6.2-.6-8.4,2.3,4.3,2.7,4.1,9,9,11.3,1.4,.7,1.2,2.6,1.4,4.1,.6,5.1,2.3,6.4,7.4,5.4,1.4-1.5,2.9-3,3.2-5.2,1.4-1.3,1.8-3.2,2.5-4.8,1.3-3.2-1.7-3.9-3.4-4.5-2.5-.8-4.6-2.1-6.6-3.8Z"/>
      <path class="cls-14" d="M65.5,62.8c-7.3,2.3-14.6,3.5-22.3,3.1-4.7-.3-8.4-2.7-12.3-4.9-.1,0,0-.7,.1-1-.3-.7-.7-.5-1.2-.2-1.7-1.1-2.6-3.7-5.4-3-3.1-.9-3.5-.6-3.3,2.5,8.5,9.4,22.5,12.6,35.8,7.8,3-1.1,6.2-2,8.5-4.3Z"/>
      <path class="cls-45" d="M24.2,26c-6,.3-6.4,0-6.5-6,0-2.2-.8-3.9-2.9-4.7-1.7-.7-3.2-1.7-3.3-3.6-.3-3.3-1.9-5.3-5.2-5.9-.5,0-.9,0-1.4,0,0,0,0,.1,0,.1-.9,.9-.9,1.9,0,2.8,2.8,0,4.7,.6,4.7,4.1,0,1.8,.6,4,2.7,5.1,1.2,.6,.6,2.2,1.5,2.9,0,3,0,6,0,8.9-.7,1-.8,2,.1,3,1.6-.2,2.6-1.8,4.4-1.5,2.4-1.2,4.9-2.5,5.9-5.3Z"/>
      <path class="cls-10" d="M78.3,3.6c-3.6-1.4-7-1.9-10,1.3-.5,.5-1.3,.7-1.9,1,0,.2,0,.4-.1,.6-.4,.8-.6,1.8-1.5,2.2-.5,.3-1,.5-1.5,.8-.4,.8-.4,1.6,.2,2.3,.2,0,.4,.1,.6,.2,.8,.3,1.7,.6,2.3,1.4,0,.9,.6,1.4,1.5,1.5,.9,.5,1.1,1.4,1.5,2.2h0c3.4,.9,3.5-2.5,4.9-4,2.4-2.6,2.7-6.4,4.2-9.5Z"/>
      <path class="cls-30" d="M73.8,53.9c3.1-3.6,3.2-7.7,2.3-12-.4-1.9-1.8-1.7-3.1-1.7-1,0-1.9,.3-2.6,1-3.8,4.1-4.8,7.9-2.9,11.7,1.9,1.6,3.9,2.6,6.3,1Z"/>
      <path class="cls-26" d="M24.4,56.3c6.7-1.1,10.3-5.9,8.9-12-1.3-5.4-6.9-8-13.5-6.1-5.1,1.3-5.7,5.4-5.9,9.6,.3,2.1,1,4.1,2.9,5.4,1.8,2.8,4.3,4,7.6,3.1Z"/>
      <path class="cls-5" d="M13.9,47.7c1.3-3.6,2.1-7.6,5.9-9.6-1.4-2,.7-3.9,0-5.8-1.1,.6-2.1,1.5-3.2,1.7-4.9,.6-4.6,3.8-4,7.3,.4,2.2,.8,4.3,1.2,6.5Z"/>
      <path class="cls-33" d="M78.3,3.6c-3.7,3-3.1,8.5-6.6,11.7-.8,.7-1.1,1.8-2.4,1.9,1.6,1.2,1.6,3.7,3.8,4.4,1.2-1.1,.6-2.5,.7-3.7,0-1.5,.2-2.8,1.6-3.7,.5-.8,.7-1.7,1.4-2.3-.4-1.8,1-2.9,1.6-4.4,.6-1.1,2-.9,2.9-1.6,0-2-2-1.4-3-2.2Z"/>
      <path class="cls-19" d="M24.2,26c-2.3,1.4-4.2,3.3-5.9,5.3,.5,.2,1,.4,1.5,.6,3.3-2.4,6.1-5.4,8.2-8.9-.3-.6-.5-1.1-.8-1.7-.8,1.7-2.9,2.4-3.1,4.5Z"/>
      <path class="cls-12" d="M67.9,52.4c-1.9-4.5,.6-7.9,3-11.2-.4-.4-.8-.4-1.2-.1-.7,.5-1.3,1-2,1.5-1.2,3.2-2.7,6.4-1.6,10,.4,1.4,.8,2.8,2.4,3.5,.2-.2,.5-.5,.7-.7,1.3-1.8-1.3-1.8-1.4-3Z"/>
      <path class="cls-15" d="M24.4,56.3c-3,0-5.3-1.4-7.6-3.1,.8,2.5,2.3,4.5,4.4,6.1-.1-2.4,1.5-2.5,3.3-2.5,0-.2,0-.3,0-.5Z"/>
      <path class="cls-38" d="M67.9,52.4c-.2,1.3,1.5,1.7,1.4,3,2,1,3.9,1.9,4.6-1.4-2.2,.2-4.2-.3-6-1.5Z"/>
      <path class="cls-7" d="M13.8,20.9c-.2-1.1,.7-2.9-1.5-2.9,.2,1.1-.3,2.7,1.5,2.9Z"/>
      <path class="cls-4" d="M13.9,32.8c0-1,0-2-.1-3-1,.1-1.5,.7-1.4,1.8,0,.9,.7,1.2,1.5,1.2Z"/>
      <path class="cls-29" d="M4.9,8.8c0-.9,0-1.9,0-2.8-1,0-1.5,.4-1.5,1.4,0,1.1,.5,1.4,1.5,1.4Z"/>
      <path class="cls-41" d="M69.7,41c.4,0,.8,0,1.2,.1,.7-.3,1.4-.7,2.1-1-.3-.2-.6-.4-.9-.7-1,.1-1.7,.8-2.4,1.5Z"/>
      <path class="cls-31" d="M69.2,17.2c.1-1.2,.2-2.3-1.5-2.2,0,1,.5,1.8,1.5,2.2Z"/>
      <path class="cls-31" d="M64.6,8.7c1.8,.2,1.7-1,1.5-2.2-1,.4-1.4,1.2-1.5,2.2Z"/>
      <path class="cls-34" d="M63.3,11.8c0-.8-.2-1.5-.2-2.3-2.1,1-1,1.6,.2,2.3Z"/>
      <path class="cls-31" d="M66.2,13.5c0-1.8-1.1-1.6-2.3-1.4,.5,.9,1.2,1.4,2.3,1.4Z"/>
      <path class="cls-17" d="M81.2,5.8c-1.1,.2-2.8-.5-2.9,1.6,1.1-.3,2.3-.4,2.9-1.6Z"/>
      <path class="cls-37" d="M76.7,11.8c-1.5,.2-1.4,1.3-1.4,2.3,1-.5,1.5-1.2,1.4-2.3Z"/>
      <path class="cls-48" d="M53.5,24.7c-1.6,2.7-.2,5.5,0,8.2,.4,.6,.8,1.3,1.2,1.9,1,1.5,2.1,3.4,4.2,3.1,2.3-.3,3.6-2.1,4.4-4,1.4-3.5,1.8-7.1,.6-10.8-.8-2.9-2.2-6-5.4-5.7-3.6,.4-4.6,4-5.1,7.3Z"/>
      <path class="cls-48" d="M35.5,24.6c-1.3,2.7-.5,5.5-.6,8.3,.9,.8,1.3,2,2,3,1.6,2,3.4,3,5.8,1,2.4-2,3-4.9,3.4-7.8,0-.8,0-1.6,0-2.3-.2-2.8-.9-5.4-2.6-7.7-3.1-2.6-3.8-2.5-6.8,.6-.7,1.5-2.1,2.9-1.1,4.8Z"/>
      <path class="cls-22" d="M50.6,57.6c6.6-1.6,10.9-5.9,13.8-11.7,.8-1.6,1.3-3.2,3.5-3.2,.2-1.2,.1-2.2-1.4-1.2-4.3,2.9-9.3,3.6-14.3,4.3-.2,.2-.2,.3-.2,.5,0,.2,0,.3,0,.3,.4,.5,.8,.9,1.1,1.4,.6,.9,1.2,1.8,1.6,2.8,1,1.9,0,2.9-1.6,3.8-1.5,.8-3.3,1.1-4.2,2.7,.4,.9,1,.9,1.7,.5Z"/>
      <path class="cls-21" d="M50.6,57.6c-.5-.2-1-.4-1.5-.6-2.6-1.3-5.5,0-8.2-1-1.6-.6-3.1-.8-3.5-2.8-.4-.7-.9-1.1-1.8-.9-.9,3.3-3.6,5.2-5.8,7.4,.4,0,.8,.2,1.2,.2,2.6-2.8,5.3-3.4,9.1-1.9,3.3,1.3,7.1,1.2,10.5-.5Z"/>
      <path class="cls-27" d="M63.4,23.1c.8,3.6,.8,7.1-.7,10.5-.7,1.7-1.7,3.5-3.8,3.6-2,.1-3-1.5-3.8-3-.4-.7-.7-1.3-1.6-1.3,.3,3.1,1.9,5.2,4.9,5.6,3.1,.4,4.6-2,5.6-4.5,1.5-3.9,1.8-7.9,.1-11.8-.5,.1-.5,.6-.7,.9Z"/>
      <path class="cls-25" d="M35.7,52.4c.5,.2,.9,.5,1.4,.7,.9-.3,1.3-.9,1.5-1.7q.7-4,7.2-4c2.1-.3,4.4,.6,6.2-1.1,0-.2,0-.4,0-.6-4.1-.3-8.3,.2-12.4-.7-1.1-.2-1.9-.4-1.9-1.6-2.2,1.3-.2,3.6-1.3,5.2-.3,1.3-.5,2.5-.8,3.8Z"/>
      <path class="cls-6" d="M63.4,23.1c.2-.3,.5-.6,.7-.9-1.3-4-3.6-6-6.3-5.4-2.9,.7-5.1,4.7-4.3,8,1.1-.8,.8-2.2,1.4-3.3,.9-1.7,1.8-3.4,3.9-3.5,2,0,2.9,1.6,3.7,3.1,.4,.6,.6,1.3,.9,2Z"/>
      <path class="cls-32" d="M43,19.4c1.6,2.2,2.1,4.8,2.4,7.4,.4,.4,.8,.4,1.2,0,0-3.1-.7-5.9-2.8-8.2-.7-.2-1,0-.8,.8Z"/>
      <path class="cls-42" d="M43,19.4c.3-.3,.5-.5,.8-.8-3.2-2.9-4.6-2.8-7.6,.6-.4,.9,0,.9,.7,.9,1.8-2.2,3.7-3.1,6-.7Z"/>
      <path class="cls-28" d="M45.4,29.1c-.4,2.8-1.1,5.4-3.1,7.4-.2,.7,0,1,.8,.8,2.1-1.4,2.8-3.5,3-5.9,.2-.9,1-2-.7-2.3Z"/>
      <path class="cls-40" d="M43.1,37.4l-.8-.8c-2.4,1.7-3.9,.2-5.3-1.4-.7,0-1.1,0-.7,.9,1.8,2.8,4,3.7,6.8,1.4Z"/>
      <path class="cls-9" d="M37.2,41.5c-.1-2-1.2-3.5-2.9-5-.3,2.7,1.9,4.1,2.1,6.1,.9,0,1-.4,.8-1.1Z"/>
      <path class="cls-20" d="M37,20.1c-.2-.3-.5-.6-.7-.9-1.1,1.2-1.5,2.7-1.9,4.2-.3,1.1,.4,1.2,1.2,1.1,.5-1.5,1-3,1.5-4.5Z"/>
      <path class="cls-39" d="M37.2,41.5c-.3,.4-.5,.7-.8,1.1,0,2,0,4,0,6,1.5-1.5-.2-3.7,1.3-5.2,.1-.7,0-1.4-.5-1.9Z"/>
      <path class="cls-23" d="M45.4,29.1c.8,.6,.5,1.5,.7,2.3,.7-1.5,.8-3,.6-4.6-.4,0-.8,0-1.2,0,0,.8,0,1.5,0,2.3Z"/>
      <path class="cls-3" d="M36.2,36c.2-.3,.5-.6,.7-.9-.5-1-.5-2.3-2.1-2.2,0,1.2,.4,2.3,1.4,3.1Z"/>
      <path class="cls-11" d="M25.1,54.6c4-.6,6.5-2.9,7-6.8,.5-3.6-1.6-7.3-5-8.6-3.3-1.3-6.5-.3-8.8,2.7-2.1,5.9,.4,10.7,6.8,12.7Z"/>
      <path class="cls-18" d="M25.1,54.6c-5.2-2.7-7.4-7-6.8-12.7-2.7,2-2.8,4.8-1.8,7.5,1.4,4,3.7,5.3,8.6,5.2Z"/>
      <path class="cls-35" d="M55.6,27.3c.2,1.4-.1,3.2,1.7,3.3,2.1,0,1.9-2.1,2-3.4,.1-1.3-.2-3.2-1.8-3.2-2.2,0-1.6,2-1.9,3.3Z"/>
      <path class="cls-8" d="M37,27.2c.3,1.3,0,3.4,2,3.4,1.7,0,1.8-1.9,1.8-3.2,0-1.5,0-3.4-2-3.4-1.7,0-1.6,1.8-1.8,3.3Z"/>
      <path class="cls-43" d="M37.9,51.7c-.3,.5-.6,.9-.9,1.4-.9,1.5-1,2.6,1.1,3.2,3.6,1.1,7.2,1.4,10.9,.7,1.7-.7,3.4-1.4,5.1-2.1,2.5-1.1,2.9-2.8,.9-4.8-.5-.6-1-1.1-1.7-1.4-3.8-1.5-13.1,.3-15.6,3Z"/>
      <path class="cls-1" d="M37.9,51.7c5.6-2.1,11.3-3.3,17.2-1.6,0-1.2-.9-2-1.6-2.9-2.7-1.2-5.7,.1-8.5-.7-.7,0-1.5,0-2.2,0q-5.2-.2-5,5.2Z"/>
      <path class="cls-24" d="M63.4,44.5c-3,1.7-5.4,1.9-7.9,2.3,1.9,.8,1.2,4.4,3.7,3.8,2.2-.5,2.9-3.1,4.3-6.1Z"/>
      <path class="cls-16" d="M45.1,46.4c2.7,1.3,5.7,.3,8.5,.7-.2-.7-.8-.8-1.5-.9-2.3,0-4.7,0-7,.1Z"/>
    </g>
  </g>
</svg>