<?xml version="1.0" encoding="UTF-8"?>
<svg id="Capa_2" data-name="Capa 2" xmlns="http://www.w3.org/2000/svg" viewBox="0 0 85.6 77">
  <defs>
    <style>
      .cls-1 {
        fill: #eb8129;
      }

      .cls-2 {
        fill: #221817;
      }

      .cls-3 {
        fill: #db7612;
      }

      .cls-4 {
        fill: #b57524;
      }

      .cls-5 {
        fill: #182a45;
      }

      .cls-6 {
        fill: #0b85aa;
      }

      .cls-7 {
        fill: #0487b8;
      }

      .cls-8 {
        fill: #bc7835;
      }

      .cls-9 {
        fill: #0d80a4;
      }

      .cls-10 {
        fill: #1b2b33;
      }

      .cls-11 {
        fill: #157294;
      }

      .cls-12 {
        fill: #243849;
      }

      .cls-13 {
        fill: #0986ae;
      }

      .cls-14 {
        fill: #2281a6;
      }

      .cls-15 {
        fill: #10415b;
      }

      .cls-16 {
        fill: #0d85ac;
      }

      .cls-17 {
        fill: #6bb5cf;
      }

      .cls-18 {
        fill: #b2701d;
      }

      .cls-19 {
        fill: #211c1c;
      }

      .cls-20 {
        fill: #0a7e98;
      }

      .cls-21 {
        fill: #1f84b4;
      }

      .cls-22 {
        fill: #e1e3e4;
      }

      .cls-23 {
        fill: #b4712d;
      }

      .cls-24 {
        fill: #dc7512;
      }

      .cls-25 {
        fill: #147591;
      }

      .cls-26 {
        fill: #14728a;
      }

      .cls-27 {
        fill: #211e20;
      }

      .cls-28 {
        fill: #045b9b;
      }

      .cls-29 {
        fill: #e7e4e5;
      }

      .cls-30 {
        fill: #143d60;
      }
    </style>
  </defs>
  <g id="Capa_1-2" data-name="Capa 1">
    <g>
      <path class="cls-2" d="M3.1,35c2,.4,4.1,1.3,6,2.5,1.4,.9,2,.8,2.6-.9,3.7-11.2,10.8-19.5,22-23.9,1.5-.6,1.6-1.7,1.7-2.9,.3-3.1,1.6-5.8,3.8-7.9,2.6-2.5,4.5-2.4,7,.2,2.1,2.1,3.3,4.8,3.6,7.7,.2,1.8,.9,2.5,2.5,3.1,10.8,4.2,17.8,12,21.5,22.9,.8,2.3,1.3,2.8,3.4,1.5,1.4-.9,3.1-1.5,4.8-2,1-.3,2.2-.4,3.1,.6,.9,1.1,.5,2.2,0,3.1-1.1,1.8-2.1,3.7-3.5,5.3-1.9,2.1-1.3,3.4,.7,4.7,.6,.4,1.2,.9,1.7,1.4,2.2,2,1.9,3.5-.8,4.7-5.2,2.4-5.1,2.5-3.3,8,.4,1.3,1.6,2.8,0,4.1-1.5,1.3-3.4,.7-4.5-.3-4-3.9-6.2-1.9-9.5,1.4-13.1,12.9-37.5,11.3-49.2-2.8-1.2-1.5-2.1-1.8-3.5-.5,0,0-.2,.1-.3,.2-2.2,1.4-4.5,3.9-7,2-2.6-2,0-4.6,.9-6.7,.9-2.4,.5-3.4-1.9-3.8-.7-.1-1.4-.5-2.1-.8-3-1.5-3.6-3.7-.8-5.6,3.8-2.6,3.5-4.9,.7-7.8-1-1.1-1.7-2.4-2.3-3.8-1-2.3,0-3.7,2.7-3.5Z"/>
      <path class="cls-7" d="M38.6,7.8c0-.8,0-1.6,.9-2.1,1.2-.8,2.5-1.4,3.9-1.8,1.7,3.1,2.5,9.2,1.9,15.5,1.2,0,2.5,.6,3.6-.4,.4-5,.4-5.1,4.9-2.9,7.1,3.4,12.3,8.8,15.6,15.9,.4,.8,1.1,1.5-.1,2.1-.7,.5-1.7,.7-2.2,1.5-4.5,5.5-6.7,11.9-7.3,18.8-.2,2-1.1,2.5-2.8,2.7-9.3,1.1-18.7,1.1-28,.1-2.5-.3-3.8-1.2-3.8-3.9,0-5.4-2.2-10.1-4.6-14.8-.7-2.3-2.2-3.8-4.5-4.4-1-.4-.9-1-.1-1.5,1.2-.6,1-2,1.6-2.9h0c.7-.6,1-1.5,1.4-2.3,1.6-2.6,3.5-4.9,6.1-6.6,1.1-.7,2.3-1.1,2.9-2.3,1.2-1.2,2.7-1.9,4.3-2.3,1.7-.8,2.4,.7,3.3,1.5h0c.7,.8-.3,2.7,1.4,2.6,1.7,0,1.1-1.6,1.1-2.6,.2-3.3,1.4-6.5,.3-9.8Z"/>
      <path class="cls-17" d="M24.5,66.4c.1-.5,.3-.9,.4-1.4,1.5-6.5,1.5-6.6,8.2-5.9,7.6,.8,15.2,.6,22.8-.3,3-.4,4.3,.3,4.2,3.3,0,1,.3,2,.4,2.9,.5,3.2-2.5,3.1-4.1,4.3-9.3,2.7-18.6,3.1-27.8-.5-1.5-.6-3.1-1-4-2.5Z"/>
      <path class="cls-1" d="M5.5,53.8c-2.1-.2-3.5-.9-1.1-2.6,4.9-3.6,5.2-3.4,.9-9.4-.7-1-1.3-2.1-2.3-3.8,4,.5,6.3,3.2,9.6,4.3,.5-1.7,.9-3.3,1.4-4.9,.4-1.2,1-1.7,2.1-.7,.6,.6,.8,1.6,1.6,2,6,7.4,7.9,20.9,3.9,28-2.7-1.6-3.7-4.6-5.5-6.9-.5-.4-1.1-.5-1.5-1-1.5-1.5-2.2-5.1-3.1-5-2.1,.5-4,.4-6,0Z"/>
      <path class="cls-1" d="M69.4,59.7c-1.3,2-2.5,4-4.3,5.6-1.2,1-1.9,1.2-2.5-.7-2.6-7.4,1.1-25.4,8.3-28.6,.2,.1,.5,.2,.6,.3q1.5,5.8,6.9,3.1c1.1-.5,2.1-1.3,3.6-1.3,.3,2.2-1.7,3.2-2.6,4.6-2.8,4.5-2.9,4.5,1.3,8.1,.6,.7,.6,1.4,.2,2.2-.5,.2-1.1,.4-1.6,.6-3.6-.5-6.4,.3-7.6,4.2-.3,1-1.2,1.5-2.2,1.8Z"/>
      <path class="cls-21" d="M24.5,66.4c10.4,4.8,21.2,5,32.1,2.2,.9,1,.7,1.9,0,2.9-10.2,3.7-20.2,4.3-30.1-.9-1.6-.8-3.6-1.6-2-4.1Z"/>
      <path class="cls-24" d="M69.4,59.7c.6-1,1.4-2,1.9-3.1q2.5-4.8,7.8-2.9c-4.6,1.4-4.2,4.6-2.8,8.1-.1,2-1.4,1.3-2.4,1-1.5-1-3-2.1-4.5-3.1Z"/>
      <path class="cls-28" d="M49,19.1c-1.4,1.2-3.4,1.2-4.8,2.6,1.2-6,.1-11.8-1-17.5-.4-.5-.5-.9,0-1.4,4.4,3.9,5.4,9.1,3.9,14.3-.9,3.1,.9,1.7,1.9,1.9Z"/>
      <path class="cls-3" d="M5.5,53.8c4.9-1.5,8.6-.4,10.1,5,0,.3,.4,.6,.6,.9-.2,0-.5,0-.7,0-.8,.5-1.8,.6-2.2,1.6-1.2,1.6-3.1,2.3-4.7,3.3-1.1-1-.1-1.6,.1-2.3,2.5-6.8,2.8-6.1-3.2-8.6Z"/>
      <path class="cls-16" d="M38.6,7.8c2.1,2,2.1,4.4,.9,6.7-.6,1.1-.7,2-.8,3.1,0,1.1,.6,2.8-1.3,2.9-2.2,.2-1.6-1.6-1.7-2.9,.9,.4,.2,2.4,1.7,2,1.1-.3,.4-1.5,.5-2.3,.3-3.2-1.1-6.4,.7-9.5Z"/>
      <path class="cls-14" d="M56.6,71.5c0-1,0-1.9,0-2.9,1.1-1.3,3.6-1.1,3.8-3.5,3.2,4.8-1.5,4.8-3.8,6.3Z"/>
      <path class="cls-6" d="M43.2,2.9c0,.5,0,.9,0,1.4-.5,2.3-2.4,1.2-3.7,1.5,.9-1.4,1.4-3.3,3.7-2.9Z"/>
      <path class="cls-9" d="M16.2,34.2c3.1-.2,4.5,1.4,4.5,4.4-1.5-1.5-3-3-4.5-4.4Z"/>
      <path class="cls-4" d="M73.8,62.8c.9-.1,1.9,0,2.4-1,.8,.8,1.6,1.5,1.1,3.1-1.5-.2-2.5-1.1-3.5-2.1Z"/>
      <path class="cls-20" d="M35.7,17.6c-1.1-.5-2.2-1-3.3-1.5,.9-.7,1.9-1.6,2.9-1.1,.9,.4,.6,1.7,.4,2.7Z"/>
      <path class="cls-25" d="M28.1,18.4c.3,2.4-1.3,2.3-2.9,2.3,.6-1.2,1.6-2,2.9-2.3Z"/>
      <path class="cls-9" d="M17.7,29.7c-.1,1.2,.5,2.9-1.6,2.9,.3-1.1,.4-2.3,1.6-2.9Z"/>
      <path class="cls-8" d="M80.7,53c0-.7-.1-1.5-.2-2.2,.7,.2,1.4,.5,1.5,1.4,0,.8-.7,.8-1.3,.8Z"/>
      <path class="cls-23" d="M13.3,61.4c-.1-1.7,1-1.7,2.2-1.6-.5,.9-1.2,1.4-2.2,1.6Z"/>
      <path class="cls-9" d="M19.1,27.4c0,1.1,.2,2.2-1.4,2.3,.1-1,.5-1.8,1.4-2.3Z"/>
      <path class="cls-26" d="M67.2,35.8c0-1.5,1-1.7,2.2-1.5-.5,.9-1.2,1.5-2.2,1.5Z"/>
      <path class="cls-18" d="M17.8,38.6c-1.4,0-1.6-.9-1.6-2,1,.3,1.4,1,1.6,2Z"/>
      <path class="cls-27" d="M58.2,38.6c1.3,2.8,.6,5.5-.2,8.3-.4,1.3-1.4,2.1-2.7,2.2-1.5,.2-2.7-.9-3.1-2.2-.9-3.5-1.8-7.2,.7-10.6,1,1.8,2.5,2.2,4.4,1.9,.3,0,.6,.2,.9,.4Z"/>
      <path class="cls-19" d="M33.2,37.3c1.3,3.6,1.4,7.1-.5,10.5-.6,.4-.7,1.3-1.5,1.4-1.5,.1-2.6-.3-3.4-1.7-1.7-2.8-1.5-8.1,.6-10.5,.8,.7,1.4,1.9,2.9,1.3,.7-.3,1-1.3,2-.9Z"/>
      <path class="cls-13" d="M40.4,51.4c.8,.4,1.7,.9,2.7,1.4-4.7,1.7-6.2,.9-5.9-2.9,0-1,0-2.1,1.4-2.2,1.7,0,1.6,1.2,1.5,2.3-.3,.6-1.1,1.2,.4,1.3Z"/>
      <path class="cls-22" d="M57.2,38.6c-3.2,1.8-4.1,1.3-4.3-2.3,.2,0,.3,0,.5-.1,1.1-.8,2.3-1.3,3.4,0,.5,.7,1.5,1.3,.5,2.4Z"/>
      <path class="cls-29" d="M32.2,38.7c-2.5,2.3-3.6,1.4-3.8-1.7,.2-.3,.3-.5,.5-.8,2.6-1.3,3.2-.9,3.3,2.4Z"/>
      <path class="cls-12" d="M32.2,38.7c0-2.3-.9-3.4-3.3-2.4,2.3-3.2,3.2-.6,4.4,1.1-.3,.4-.7,.9-1,1.3Z"/>
      <path class="cls-5" d="M56.6,36.2c-1.1-.7-2.1-.3-3.2,0,.8-2,1.9-2.3,3.2-.4,0,.2,0,.3,0,.5Z"/>
      <path class="cls-11" d="M31.1,49.2c.5-.5,1-.9,1.5-1.4-.3,.9,.4,2-.8,2.5,0,0-.5-.7-.7-1.1Z"/>
      <path class="cls-15" d="M40.4,51.4c-.2,.3-.4,.9-.5,.9-1-.3-1.1-1.2-1.1-1.9,0-.5,.7-.3,1.2-.3,.1,.4,.2,.9,.4,1.3Z"/>
      <path class="cls-30" d="M45.6,52.5c-.6-1-.6-1.8,.8-2.4,.1,1,0,1.8-.8,2.4Z"/>
      <path class="cls-10" d="M56.6,36.2c0-.2,0-.3,0-.5,1.9,.2,1.4,1.7,1.6,2.9-.3,0-.6,0-1,0-.2-.8-.4-1.6-.6-2.4Z"/>
    </g>
  </g>
</svg>