<?xml version="1.0" encoding="UTF-8"?>
<svg id="Capa_2" data-name="Capa 2" xmlns="http://www.w3.org/2000/svg" viewBox="0 0 84.9 72.3">
  <defs>
    <style>
      .cls-1 {
        fill: #f7e656;
      }

      .cls-2 {
        fill: #412e1d;
      }

      .cls-3 {
        fill: #3d3a11;
      }

      .cls-4 {
        fill: #fafafa;
      }

      .cls-5 {
        fill: #3e2b1d;
      }

      .cls-6 {
        fill: #cbba4e;
      }

      .cls-7 {
        fill: #4c4818;
      }

      .cls-8 {
        fill: #f09dbd;
      }

      .cls-9 {
        fill: #020202;
      }

      .cls-10 {
        fill: #f6e556;
      }

      .cls-11 {
        fill: #070803;
      }

      .cls-12 {
        fill: #d0c04c;
      }

      .cls-13 {
        fill: #cab849;
      }

      .cls-14 {
        fill: #d57f8f;
      }

      .cls-15 {
        fill: #cbbb48;
      }

      .cls-16 {
        fill: #3a3512;
      }

      .cls-17 {
        fill: #2b230e;
      }

      .cls-18 {
        fill: #f09cbd;
      }

      .cls-19 {
        fill: #b06a79;
      }

      .cls-20 {
        fill: #f5e556;
      }

      .cls-21 {
        fill: #cb849b;
      }

      .cls-22 {
        fill: #060703;
      }

      .cls-23 {
        fill: #fcfcfc;
      }
    </style>
  </defs>
  <g id="Capa_1-2" data-name="Capa 1">
    <path class="cls-9" d="M42.3,72.3c-7.4,0-14.3-1.7-20.6-5.7-12.4-7.7-16.9-21.1-11.6-34.7,.8-2.1,.7-2.9-1.6-3.2-4.7-.7-7.4-3-7.8-8.3C.3,15.1,0,9.8,0,4.4,0,.7,1.7-.6,5.3,.3c7,1.7,13.2,5.1,19,9.3,1.5,1,1.9,2.6,1.9,4.3,0,1.9,.7,1.9,2.2,1.4,9.1-3.1,18.3-3.2,27.5,0,2,.7,2.7,.3,2.7-1.8,0-1.9,1.1-3.2,2.6-4.3,5.4-3.7,11.1-6.7,17.3-8.5,4.4-1.3,6.4,.2,6.4,4.8,0,5.9-.5,11.7-1.3,17.5-.6,4.5-4.2,5.1-7.6,6-1.3,.4-2.6,.3-1.7,2.6,7.6,18.2-3.4,34.5-20.6,39.4-3.7,1.1-7.5,1.6-11.4,1.6Z"/>
    <path class="cls-1" d="M12.2,33.7c.6-2.8,2.5-4.9,3.9-7.2,.7-1.9,1.9-3.1,3.8-3.7,12.5-10.5,33.6-10.1,45.7,.7,1.5,.6,2.5,1.6,2.9,3.1,4.8,6.1,6.8,13,5.4,20.8-.9,4.9-.9,4.9-5.3,3.1-7.4,0-11,4.8-8.7,11.5,.4,1.1,1.4,2.2-.2,3.2-10.2,4.4-20.4,4.1-30.7,0-1.3-.5-2.6-.9-3.5-2.1-.5-.9-.3-1.9-.2-2.9,.6-6.6-2.4-9.8-9.4-9.9-.4,0-.9,0-1.3,.1-3.4-1.8-3.3-5.3-3.3-8.3,0-2.8,.2-5.7,.8-8.5Z"/>
    <path class="cls-20" d="M66.3,22.7c-1.2-1-2.3-2.2-3.7-3-2-1.2-2.2-2.2-.2-3.5,3.7-2.4,7.5-4.9,12-6.6-.2,3,.5,4.8,4,2.1-.5,4.4-.5,8.2-1.7,11.7-2,1.9-4.5,2-7,1.9-1.8,0-2.8-1.1-3.4-2.6Z"/>
    <path class="cls-10" d="M7.8,22.7c-1.1-3.3-1.1-6.8-1.5-10.5,1.5,.4,2.7,.8,4.1,1.2-.1-1.3-.2-2.3-.3-3.7,4.8,1.6,8.6,4.3,12.5,6.8,1.5,1,1.3,1.9,0,2.9-1.2,.9-2.4,1.8-3.5,2.7-.9,1.7-2,3.2-4.1,3.4-2.7-.1-5.5,0-7.1-2.7Z"/>
    <path class="cls-18" d="M67.1,51.1c4.9,1.7,5.3,2.8,2.1,6.8-2,2.5-4,5-7.2,5.9-3.2-2.1-4-5-2.6-8.5,1.6-3.8,4-5.1,7.7-4.2Z"/>
    <path class="cls-12" d="M25.8,62.4c10.4,5.5,21.1,6.2,32.3,2.4,.7-.2,1.5-.1,2.2-.2,.3-.3,.5-.2,.7,.2-12.4,7.1-24.9,7-37.3,0,.5-1,.3-2.6,2.2-2.4Z"/>
    <path class="cls-8" d="M15.4,52.1c.5-.8,1.4-.8,2.1-1,2.8-1.4,4.8,.1,6.4,2.1,2,2.5,2.6,5.3,1,8.3-.6,.6-1.4,.6-2,.2-3.7-2.3-6.9-4.9-7.5-9.6Z"/>
    <path class="cls-21" d="M15.4,52.1c2.1,3.9,4.9,7.3,8.9,9.6,.6,1.5-.6,1.8-1.6,2.2-4.3-1.6-6.7-5.1-9-8.8-1.1-1.8,.6-2.3,1.7-3Z"/>
    <path class="cls-15" d="M12.2,33.7c.5,5.6-.9,11.6,2.5,16.8-1.7,2.1-2.7,2-3.4-.8-1.3-5.4-1.5-10.8,.9-16Z"/>
    <path class="cls-5" d="M22.7,63.8c.5-.7,1-1.5,1.6-2.2,2.4-5.9-.2-10-6.7-10.6-.5-.2-1-.5-1.5-.7,3.1-1.5,5.8-.4,8.1,1.7,3.1,2.9,3,6.6,1.7,10.3-.7,.8-1.4,1.6-2.2,2.4-.3-.3-.7-.7-1-1Z"/>
    <path class="cls-2" d="M61,64.8c-.2,0-.4-.1-.7-.2-3.7-6.8-2.4-12.4,3.4-14.4,1.7-.6,3.3-.9,5,.2-.5,.2-1,.5-1.5,.7-3.2,0-5.7,1.1-6.9,4.4-1.2,3.2-.8,6,1.8,8.4-.3,.3-.7,.7-1,1Z"/>
    <path class="cls-6" d="M7.8,22.7c2.3,1.6,5.1,1.4,7.6,2.3,.2,.2,.2,.3,.2,.5,0,.2-.1,.2-.2,.2-1.6,2.3-3.6,1.4-5.7,.8-2.2-.6-1.8-2.3-1.9-3.9Z"/>
    <path class="cls-13" d="M69.2,25c2.5-.5,5-1.1,7.5-1.6,0,1.4,0,2.7-1.8,3.2-2.1,.5-4.1,1.4-5.7-.9-.2-.1-.3-.3-.2-.5,0-.2,.1-.3,.2-.3Z"/>
    <path class="cls-7" d="M15.4,25.8c0-.2,0-.5,0-.7,1.2-1,2.4-2,3.7-3,.3,.3,.5,.5,.8,.8-1.3,1.2-2.5,2.5-3.8,3.7-.2-.2-.5-.5-.7-.7Z"/>
    <path class="cls-3" d="M69.2,25c0,.2,0,.5,0,.7-.2,.3-.5,.5-.7,.8-1-1-2-2-2.9-3.1,.2-.2,.5-.5,.7-.7,1,.8,1.9,1.5,2.9,2.3Z"/>
    <path class="cls-11" d="M31.1,41c0,4.4-2.2,6.7-6.5,6.7-4.4,0-7-2.5-7-6.5,0-4.5,3-7.6,7.4-7.6,3.7,0,6.1,2.9,6.1,7.4Z"/>
    <path class="cls-22" d="M59.8,47.7c-4.1,0-6.3-2.4-6.3-6.7,0-4.6,2.6-7.5,6.5-7.4,4.2,.2,7.3,3.5,7.2,7.9-.1,3.7-3.2,6.2-7.4,6.1Z"/>
    <path class="cls-17" d="M50.6,48.5c-2.1,1.2-2.3,3-2.6,5-.3,2.5-.8,4.9-2,7.1-.8,1.4-1.7,2.8-3.7,2.7-1.8,0-2.6-1.3-3.3-2.6-1-1.9-1.5-3.9-2-6-.5-2.3,0-5-3.1-6.2,5.7,.8,11.1,1.2,16.7,0Z"/>
    <path class="cls-16" d="M42.5,44.5c.8,.1,1.5,.5,1.4,1.4,0,.8-.8,.8-1.4,.8-.8,0-1.7,0-1.6-1,0-.8,.8-1.1,1.6-1.2Z"/>
    <path class="cls-23" d="M25.8,41c-1.6-.2-2.5-1.1-2.3-2.7,.1-1.5,1-2.2,2.5-2.1,1.7,.1,2.4,1.1,2.3,2.7,0,1.5-1.1,2.1-2.5,2.1Z"/>
    <path class="cls-4" d="M61.1,38.6c0,1.7-1,2.3-2.3,2.3-1.6,0-2.6-.9-2.5-2.5,.1-1.7,1.2-2.4,2.8-2.2,1.5,.1,2.1,1.1,2,2.4Z"/>
    <path class="cls-14" d="M46.1,55.1c-1.3,1.2-.4,2.8-1,4.1-.6,1.2-1.1,2.6-2.7,2.6-1.5,0-2.1-1.2-2.5-2.3-.7-1.9-1.6-3.9-1.4-6,1.6-2,3.8-2,6-1.4,1.4,.4,2.3,1.4,1.7,3Z"/>
    <path class="cls-19" d="M46.1,55.1c-1.7-4.6-5-1.7-7.7-1.6-1-1.7-1.2-3,1.4-3,1,0,2,0,3,0,4.5,0,4.5,0,3.3,4.6Z"/>
  </g>
</svg>