<?xml version="1.0" encoding="UTF-8"?>
<svg id="Capa_2" data-name="Capa 2" xmlns="http://www.w3.org/2000/svg" viewBox="0 0 81.2 74">
  <defs>
    <style>
      .cls-1 {
        fill: #ec8899;
      }

      .cls-2 {
        fill: #030202;
      }

      .cls-3 {
        fill: #361409;
      }

      .cls-4 {
        fill: #0d0b01;
      }

      .cls-5 {
        fill: #ccb111;
      }

      .cls-6 {
        fill: #0c0c03;
      }

      .cls-7 {
        fill: #f3f3f2;
      }

      .cls-8 {
        fill: #f3f2f1;
      }

      .cls-9 {
        fill: #fad903;
      }

      .cls-10 {
        fill: #4f250c;
      }

      .cls-11 {
        fill: #5e4d12;
      }

      .cls-12 {
        fill: #cf2037;
      }

      .cls-13 {
        fill: #c6a51a;
      }

      .cls-14 {
        fill: #c6ae35;
      }

      .cls-15 {
        fill: #554214;
      }

      .cls-16 {
        fill: #bd717f;
      }

      .cls-17 {
        fill: #191203;
      }

      .cls-18 {
        fill: #422a15;
      }

      .cls-19 {
        fill: #e31635;
      }

      .cls-20 {
        fill: #d3b30d;
      }

      .cls-21 {
        fill: #e21636;
      }

      .cls-22 {
        fill: #331c0c;
      }
    </style>
  </defs>
  <g id="Capa_1-2" data-name="Capa 1">
    <g>
      <path class="cls-2" d="M41,74c-10-.3-19-2.5-26.9-8.5-6.6-5-8.6-10.5-6.3-18.4,2-6.6,1-13.7,3.7-20.2,.5-1.3-.6-1.8-1.3-2.3C3.2,19.3,1.1,11.8,0,3.7-.3,1,.4-.2,3.5,0,12.3,.9,20,3.8,25.5,11.1c1,1.4,2,1.5,3.5,1.1,7.7-2.3,15.5-2.3,23.2,0,1.7,.5,2.7,0,3.7-1.4C61.5,3.4,69.5,.8,78.3,0c2.1-.2,3,.6,2.8,2.8-.9,8.4-3,16.3-10.2,21.7-1.6,1.2-1.6,2.1-1.1,3.7,2.5,7.7,2.4,16,4.2,23.9,1.1,4.8-2,8.9-5.6,12-7.9,7.1-17.6,9.5-27.7,9.9Z"/>
      <path class="cls-9" d="M9.9,13.9c.1-3.3,.3-7.5,3.1-8.6,2.6-1.1,5.5,2.1,7.8,4.2,4.4,4.1,4.4,4.4,.6,8.3,11.5-5.9,23.2-6.5,35-1.5,.5,.2,1.1,.3,1.6,.2-.3-.2-.6-.5-.9-.9-1.2-.9-.3-1.7,.2-2.5,2.3-3.5,5.5-5.9,9.2-7.8,1.4-.7,2.2-.5,2.9,.9,1.5,3.2,2.5,6.4,2.1,10-1,2.7-1.1,6.2-5.3,6.1-.4-.3-.9-.8-1.2-.7-1.2,.2-.4,1-.1,1.3,4.2,5.9,4.5,12.9,5.1,19.8,.2,2.5,1.1,5,1.8,8.3-3.5-3.2-6.9-4.3-10.7-2.2-.3,.5-.5,1.1-1,1.6-3.8,3.9-2.3,7.8,.2,11.6,.5,.4,.9,.7,1.4,1.1,.7,2.2-1.3,2.4-2.5,2.9-12.8,5.7-25.6,5.9-38.2-.6-1-.4-1.7-1.1-1.7-2.2,.2-1,1-1.6,1.8-2.3,2.3-2.2,2.9-6.2,1.4-8.8-1.4-2.4-4.8-3.7-7.8-2.9-1.3,.3-2.5,1.2-3.9,1.1-.4-.1-1.4,0-1.2-.5,2.8-6,1.5-12.7,3.4-18.8,.9-2.7,1.9-5.3,3.4-7.7,.3-.4,1.1-1,0-1.4-.3-.1-.8,.4-1.3,.6-4.2-1.1-5.8-3.6-5.3-8.3Z"/>
      <path class="cls-21" d="M61.8,49.3c2-.1,3.9-.7,5.9,.2,2.9,1.4,4.3,3.9,3.2,6.7-1,2.7-2.1,6.1-6.3,5.6-1.2-.1-2.4-.5-3.6-.8-2.8-.8-3.6-3.2-3.5-5.5,.1-2.7,1.1-5.4,4.3-6.3Z"/>
      <path class="cls-19" d="M13.7,61.8c-2.6-3-4.9-6-3-10.3,2.3-3,6-4,8.8-2.6,3.8,1.9,4.7,4.7,3.2,9.4-1.5,.7-2.2,2.1-3,3.4-2,1.2-3.9,.8-5.9,0Z"/>
      <path class="cls-20" d="M21.2,64.3c13,6.5,26,6.2,39,0,.7-.3,1.4-.5,1.5-1.4,1.1,.3,2.1,.5,3.2,.8-11.4,9.1-30.7,10.3-43.8,2.9-.4-.8-.6-1.6,.1-2.4Z"/>
      <path class="cls-3" d="M22.1,58.3c1.3-3.2,1.2-5.7-2.1-7.9-3.7-2.5-6.4-.9-9.3,1.2,0-.5,0-1.1,0-1.6,4.1-3.3,9.2-3,12.1,.7,3.1,4,2,8.6-3,12.2-.7,.6-1.3,1.7-2.3,.4-1-1.2-2.9,.2-3.7-1.4,2,0,4.1,.5,5.9-.7,.8-.9,1.1-2.3,2.4-2.8Z"/>
      <path class="cls-10" d="M61.8,49.3c-4.8,5.3-4.9,7-.8,11.8-.3,.2-.5,.5-.8,.7-5.1-4-4.7-9.9,.8-13.2,.3,.2,.6,.4,.9,.7Z"/>
      <path class="cls-13" d="M9.9,13.9c-.1,4,2.4,6.2,5.3,8.3-1.8,1.8-4.6,.9-5.4-1.8-.6-2.1-.8-4.3,.1-6.4Z"/>
      <path class="cls-5" d="M66.1,22.3c2.6-1.3,3.8-3.8,5.3-6.1,.5,2.8,.4,5.3-2.5,6.9-1.5,.8-2.2,.7-2.7-.9Z"/>
      <path class="cls-14" d="M17.4,63.2c.8-.1,1.5-.3,2.3-.4,0,1,.6,1.3,1.4,1.5,0,.8,0,1.6-.1,2.4-1.7-.4-3-1.5-4.3-2.5-.9-.8,.4-.6,.6-.9Z"/>
      <path class="cls-15" d="M57.1,15.6c1.2,.2,2.3,.5,3,2-1.7,.6-2.6-.5-3.7-1.3,.3-.2,.5-.5,.8-.7Z"/>
      <path class="cls-6" d="M29.5,39.5c0,3.9-2.6,6.7-6.4,6.6-3.7,0-6.2-2.6-6.2-6.4,0-3.7,2.5-6.2,6.3-6.3,4,0,6.2,2,6.3,6.1Z"/>
      <path class="cls-4" d="M64,40c0,3.7-2.3,6.1-6,6.1-3.6,0-6.6-3-6.6-6.7,0-3.6,2.6-6.1,6.1-6,4.1,0,6.4,2.4,6.4,6.5Z"/>
      <path class="cls-22" d="M32.5,52.1c.1,0,.3,0,.4,0,2.8,1.2,4.8-.6,7.2-1.3,2.1-.6,4.3,2.5,7.1,1.7,1.4-.4,2.2-1.6,3.7-2-2.2,2.6-4.2,5.2-5,8.5-.6-.1-.9-.5-1.1-1,0-.3,0-.7,0-1-.5-2.2-2.7-3.6-5-3.2-2.9,.5-4.1,2-3.1,5,.1,.5,.1,1.1,0,1.6-.2,.5-.5,.9-1.2,.8-1.2-1.5-1.5-3.5-1.5-5.2,0-2-1.3-2.3-2.4-3.1,0-.7,0-1.1,.9-.8Z"/>
      <path class="cls-18" d="M35.5,61.2c.2-.2,.5-.5,.7-.7,.4-.2,.7-.2,1,0q4.1,2.9,6.9-1.3c.3-.4,.6-.8,1.1-1l.7,.9c.2,2-.9,3.5-2,4.9-2.7,3.4-6.3,2.2-8.4-2.8Z"/>
      <path class="cls-17" d="M40.5,44.5c.9,.2,2.2-.3,2.2,1,0,1.1-1,1.7-2,1.7-1,0-2.1-.3-2.2-1.5,0-1.7,1.5-.7,2-1.2Z"/>
      <path class="cls-11" d="M32.5,52.1c-.3,.3-.6,.5-.9,.8-1.1-.5-1.9-1.2-1.4-2.6,1.1,.2,1.6,1.1,2.2,1.8Z"/>
      <path class="cls-12" d="M22.1,58.3c-.4,1.3-1,2.4-2.4,2.8,0-1.7,0-3.3,2.4-2.8Z"/>
      <path class="cls-8" d="M25,35.1c1.8,.3,2.8,1.3,2.8,3,0,1.5-1.1,2.7-2.6,2.6-1.5-.1-2.7-.9-2.6-2.9,.1-1.7,1-2.4,2.4-2.7Z"/>
      <path class="cls-7" d="M56.2,35.1c1.4,.3,2.3,1.1,2.4,2.7,.1,1.9-1.1,2.9-2.7,2.9-1.4,0-2.6-1-2.6-2.6,0-1.8,1.1-2.7,2.8-3Z"/>
      <path class="cls-1" d="M45.2,58.2c-.3,.8-.6,1.6-.9,2.4-2.4,5-4.1,5.1-7.3,.6-.2-.3-.6-.5-.8-.7,0-.5,0-.9-.1-1.4-1.2-3.3,.9-4.5,3.5-5.2,2.5-.7,4.8,.9,5.6,3.7,0,.2,0,.5,0,.7Z"/>
      <path class="cls-16" d="M45.2,57.5c-1.3-2.3-3.1-3.4-5.7-2.8-2.2,.5-3.8,1.7-3.4,4.3-.9-1.7-1.5-4.4-.1-4.8,1.9-.6,3.8-3,6.4-1.1,1.6,1.2,5.3,.7,2.8,4.4Z"/>
    </g>
  </g>
</svg>