<?xml version="1.0" encoding="UTF-8"?>
<svg id="Capa_2" data-name="Capa 2" xmlns="http://www.w3.org/2000/svg" viewBox="0 0 67.2 72.9">
  <defs>
    <style>
      .cls-1 {
        fill: #443534;
      }

      .cls-2 {
        fill: #3f3722;
      }

      .cls-3 {
        fill: #332a16;
      }

      .cls-4 {
        fill: #351e11;
      }

      .cls-5 {
        fill: #483e3e;
      }

      .cls-6 {
        fill: #463422;
      }

      .cls-7 {
        fill: #4a4422;
      }

      .cls-8 {
        fill: #b9ab17;
      }

      .cls-9 {
        fill: #bcab1c;
      }

      .cls-10 {
        fill: #fcce1f;
      }

      .cls-11 {
        fill: #57462b;
      }

      .cls-12 {
        fill: #4c3b16;
      }

      .cls-13 {
        fill: #d1cd91;
      }

      .cls-14 {
        fill: #312a2a;
      }

      .cls-15 {
        fill: #fdfdfd;
      }

      .cls-16 {
        fill: #ffcf1c;
      }

      .cls-17 {
        fill: #241917;
      }

      .cls-18 {
        fill: #ffce1d;
      }

      .cls-19 {
        fill: #403e20;
      }

      .cls-20 {
        fill: #58491a;
      }

      .cls-21 {
        fill: #684810;
      }

      .cls-22 {
        fill: #f9cb5d;
      }

      .cls-23 {
        fill: #3b2e15;
      }

      .cls-24 {
        fill: #ffee9a;
      }

      .cls-25 {
        fill: #51431c;
      }

      .cls-26 {
        fill: #d5d290;
      }
    </style>
  </defs>
  <g id="Capa_1-2" data-name="Capa 1">
    <g>
      <path class="cls-17" d="M24.1,5.3c.2-2.8,0-5.2,3.4-5.3,3-.1,2.2,2.2,2.7,4.1,2.3-1.9,4.6-4.2,7.5-1.5,1.6,1.5-.7,2.2-1.2,3.5,10,1.4,17.9,5.8,23.7,13.8,6.1,8.5,7.6,18,5.3,28.1-.4,1.9-.5,3.5,.6,5.3,2.1,3.5,1.3,6.9-.9,10.2-1.5,2.2-3.5,4.2-6.1,4.8-9.8,2.2-19.5,5.6-29.6,4.6-14.2-1.4-25.3-11.6-28.6-25.7C-2.3,33.7,3.4,19.4,14.9,11.7c1.1-.8,2.3-1.5,3.5-2.2,1.1-.6,1.1-1.2,.3-2-1-1-2.9-1.8-.9-3.4,1.6-1.3,3.4-2.3,5,.2,.2,.3,.6,.5,1.2,1Z"/>
      <path class="cls-16" d="M63.5,34.4c.3,2.3,.6,4.6,0,7.3-3.3-1.6-6.8-1.9-10.3-2.2-.9-.4-2-.3-2.8-1.1-3.4-3.2-6.9-2.8-10.6-.6-3.4,1.9-6.9,3.3-10.9,3.7-3.8,.3-4.5,1.8-3.7,6,.2,1.2,.7,2.4,1.1,3.6,.4,1.3,.4,2.5-.8,3.4-1.2,.8-2.4,.4-3.5-.2-2.2-1.2-3.5-3.3-4.1-5.6-1.6-5.6-2.1-11.2,0-16.8,.8-1.2,1.7-.5,2.4,0,1.3,1.1,2.8,1.9,4.4,2.5,2.1,.7,4.2,.6,6.3,.1,.8-.2,1.7-.5,2.4-.9,2.7-1.4,4.3-3.5,3.3-6.7-.9-3-3.5-4.1-6.4-4.3-3.5-.2-7-.2-9.7,2.6-1.3,2-2.9,3.7-5.2,4.6-2.3,.8-3.7,.7-3.3-2.3,.2-1.4,0-2.6-1.9-1.8-.9,.4-2,1.1-2.6-.2-.6-1.3-1.4-2.8,.4-3.9C21.7,3.8,44.5,5.1,56.7,19.5c.5,.6,1,1.4,1.7,2.4-1.5,.2-2.7,.3-3.9,.4-.6,.6-1.4,1-2.2,1.3-3.3,1.3-4.9,3.6-4.1,7.2-.2,1.6,1,1.7,2.1,1.9,3.2,1.5,6.7,1.2,10.1,1.1,1,0,2.2-.6,3.1,.4Z"/>
      <path class="cls-24" d="M51.7,40.1c2.4,1.3,5,1.4,7.6,1.7,2.3,.3,3.4,1.3,2.4,3.8-1.2,2.9-.9,5.3,1.7,7.6,2.8,2.4,2.3,6.6-.6,9.7-4.4,4.8-10.3,5.5-16.4,5.2-2.7-1.2-5.6-1.5-8.3-3-3.8-2.1-6-5-6.2-9.4,0-2.7-.8-5.1-3.3-6.6-.4-.3-.8-.6-1.2-.9-1.4-1.1-2.8-2.3-2.4-4.3,.5-2.1,2.5-2.4,4.2-2.5,2.1-.2,4.1-.8,6.2-1,1.4,0,2.6,.7,3.6,1.6,1.2,1.3,2.5,2.4,3.5,3.8,.2,.3,.2,.6,.3,.9,0-.5,0-1,0-1.5,.6-2.7-1.9-5.2-.5-8,3.7-2.3,6.1-1.5,9.4,3Z"/>
      <path class="cls-18" d="M17.9,66.5c-9-5.9-14.4-13.9-15.2-24.7-.5-6,.5-11.9,3.9-17.1,1,1.1,1.7,2.2,3.6,1,2.1-1.5,2.7,.2,2.4,1.9-.4,2.2-.1,3.2,2.4,2.1,1.4-.6,1.8,.2,1.7,1.4,0,1-.5,1.9-.7,2.9-.1,.5-.3,1.1-.4,1.6-.4,3.3-.7,6.6,.2,9.9,.6,2.4,1.9,4.6,3,6.8,1.9,3.7,1.9,7.6,1.6,11.6-.1,1.4-.5,2.8-2.4,2.6Z"/>
      <path class="cls-15" d="M54.6,23.1c6.2-.8,7,4.1,8.4,8.2,.5,2.3-1,2.7-2.7,3.1-4.2,.8-8,.3-11.4-2.6-2.2-5.1-.4-7.9,5.6-8.7Z"/>
      <path class="cls-3" d="M35.7,40.9c-2.2,.3-4.4,.6-6.6,1.1-1.2,.2-2.7,.3-3.2,1.6-.6,1.6,.8,2.4,1.7,3.4,.5,.5,1.1,1,1.6,1.5,1.7,1.4,2.5,3.3,2.3,5.2-.6,4.7,.2,8.9,2.9,12.8l-1.5,.6c-2.4,.6-3.5-1.3-3.9-2.8-.8-3.1-2.9-5-5.3-6.7,0-1,.6-1.2,1.3-1.5,2.9,.2,3.5-1.3,2.7-3.7-.6-2.1-2.2-3.6-3.3-5.3-1.1-4.4,.2-6.4,4.6-6.7,3.1-.2,6.1-.7,8.5-2.4,5.8-4.3,10.9-3.8,15.7,1.5-.6,.2-1.1,.4-1.7,.6-2.8-1.7-5-5.3-9.1-2.7-1.8,2.1-4.2,3.2-6.9,3.6Z"/>
      <path class="cls-26" d="M34.4,66.5c-3.5-2.4-4.9-5.6-4-9.8,.6-2.8,0-5.6-1.2-8.2,2.8,.6,3.6,3.2,3.5,5.1-.5,8.3,5.2,10.8,11.4,12.9,1,.3,1.9,.6,2.3,1.6-4.1,.6-8.1-.3-12-1.6Z"/>
      <path class="cls-10" d="M30.7,70.3c-3.7,.2-6.9-1.4-10.3-2.4-1.5-2.8,.2-5.6,0-8.4,3-1.6,5.3,.1,6.4,2.3,2.2,4.1,5,7,9.7,7.7,.1,0,.1,.4,0,.7-.5,0-.9,.1-1.4,.2-1.5,.4-3,.5-4.5,0Z"/>
      <path class="cls-9" d="M36.5,70.2c-5-.7-8.7-2.8-10.4-7.9-.8-2.3-3.6-1.8-5.1-3.2-.9-.9-.9-1.8,.1-2.4,1.1-.7,2.1-.2,2.8,.8,2.8,.8,5,2,5.3,5.5,.2,1.7,1.6,3.6,3.6,4.3,1.6,1.6,4.1,1.3,6.2,3.1h-2.5Z"/>
      <path class="cls-23" d="M15.1,33.6c.3-1.1,.7-2.3,1-3.4q-4.4,1.4-4.3-4.2c-1.6-.8-4.8,4.7-5.2-1.2,.3-1.2-.5-2.9,1.6-3.2-.7,1.5-.3,2.8,.4,4,1.5-.5,2.9-2.3,4.4-1.3,1.6,1.1,.1,3.2,.3,5.2,3-.7,5.5-2.1,7.1-4.8,.7-.1,.9,.3,1.1,.9-.1,1.6-.8,3.1-1.6,4.5-2.5,.9-1.7,4.1-3.7,5.3-1-.1-.6-1.1-.9-1.6Z"/>
      <path class="cls-12" d="M23.9,57.4c-1.3,0-3.6-1.8-2.9,1.6-.2,3-.4,5.9-.6,8.9-1.2,.2-2-.3-2.5-1.3,3-3.2,1.5-6.8,1-10.4-.5-3.9-4.1-6.5-4.1-10.6-.4-.9-.8-1.9,.5-2.4,1.8,1.5,1.9,4,2.9,5.9,1.4,2.8,2.7,5.6,6.2,6.3,.6,.1,1.1,.6,.9,1.4-.5,.2-1,.4-1.5,.6Z"/>
      <path class="cls-2" d="M49.3,31.3c3.5,2.7,7.3,3.5,11.6,2.4,1.4-.4,2.3-.8,2.1-2.4,1,.9,.5,2,.5,3.1-4.8,1.3-9.5,1.4-14-.9-.7-.3-1.2-.6-1.3-1.5,.1-.6,.4-.9,1.1-.7Z"/>
      <path class="cls-11" d="M49.3,31.3c-.2,.3-.5,.5-.7,.8-.6,.2-.9,0-.9-.7-1.5-5.5,.8-8.4,6.9-9,0,.2,0,.5,0,.7-6.2,2.7-7,3.8-5.3,8.2Z"/>
      <path class="cls-9" d="M30.7,70.3c1.5,0,3,0,4.5,0-1.5,.8-3,.8-4.5,0Z"/>
      <path class="cls-8" d="M25.4,56.8c-7.2-1.6-8.3-7.7-9.8-13.4-1.2-1.8-.5-3.8-.7-5.7,0-.9,0-1.8,.8-2.4,1.5-1.5,.2-5,3.6-5.1,.1,.2,.2,.3,.2,.5,0,.2,0,.3-.1,.3-.3,.1-.5,.3-.7,.5-.8,5.2-1.3,10.3,0,15.5,.7,2.8,1.7,5.5,4.5,6.8,.7,.3,1.6,.9,2.4,0,.7-.8,.5-1.6,0-2.4-.7-1.3-1.2-2.7-1.2-4.3,3.1,1.3,4.3,3.8,4.5,7,.2,2.7-.8,3.9-3.6,2.7Z"/>
      <path class="cls-6" d="M20.9,25.3c-.2-.2-.5-.5-.7-.7,4.3-4,11.7-4.3,16-.8,3.5,2.8,2.7,9.3-2.4,10.6-.7,.4-1,0-1.2-.6,.1-.8,.7-1.3,1.2-1.8,3.1-3.1,2.5-6-1.6-7.7-2.7-1.1-5.3-1-8,0-1.1,.4-2.1,1.5-3.4,.9Z"/>
      <path class="cls-19" d="M18.6,31.3c.2-.4,.5-.7,.7-1.1,2.7,.7,4.7,2.5,6.9,4,.1,.4,0,.7-.2,1-.6,.2-1.1,.2-1.6-.1-2.6-.3-4.2-2.1-5.9-3.8Z"/>
      <path class="cls-1" d="M26.1,35c0-.2,0-.4,0-.6,2.1-1.6,4.4-1.6,6.8-.7,.3,.2,.6,.5,.9,.7-.6,.7-1.4,.7-2.2,.7-1.8,.4-3.7,.6-5.5-.2Z"/>
      <path class="cls-21" d="M26.1,35c1.8,0,3.7,.1,5.5,.2-2.4,1.2-4.8,.9-7.1,0,.5,0,1.1,0,1.6-.1Z"/>
      <path class="cls-22" d="M47.7,31.4c.3,.2,.6,.4,.9,.7,.3,.5,.6,.9,.9,1.4-1.4,0-3,.2-1.8-2.1Z"/>
      <path class="cls-13" d="M35.7,40.9c2.3-1.2,4.6-2.4,6.9-3.6-.3,1.8,.5,3.3,1,4.9,.3,1.2,.9,2.3-.2,3.3-2.2,0-2.8-2.3-4.5-3-1.1-.5-1.9-1.6-3.2-1.6Z"/>
      <path class="cls-25" d="M38.9,42.5c2.4-.3,2.9,2.1,4.5,3-.1,.7-.1,1.8-1.2,.8-1.2-1.2-2.2-2.5-3.3-3.8Z"/>
      <path class="cls-7" d="M47.3,46.8c-.6-2,.4-3.5,1.7-5.3,.7,2.5-1,3.7-1.7,5.3Z"/>
      <path class="cls-20" d="M15.5,37.2c0,2,0,4.1,0,6.1-.9,.6-.6,1.5-.7,2.3-1.2-3.5-1.1-7.1,0-10.6,.8,.6,.1,1.6,.7,2.2Z"/>
      <path class="cls-4" d="M15.5,37.2c-.8-.6-.5-1.5-.7-2.2,0-.5,.2-.9,.3-1.4,.2,.5,.4,1.1,.6,1.6,0,.7-.1,1.4-.2,2Z"/>
      <path class="cls-5" d="M57.5,29.1c-.4,.8-1,1.1-1.7,.8-.6-.3-.9-.8-.7-1.5,.3-.9,.9-1.1,1.7-.8,.7,.3,.8,.8,.7,1.5Z"/>
      <path class="cls-15" d="M32.9,33.7c-2.2,.9-4.5,.5-6.8,.7-2.8-.5-4.6-2.6-6.8-4.2,0,0,0-.2,0-.2,.3-1.7,.6-3.3,1.6-4.8,3.2-2.1,6.4-3.5,10.4-2.3,2.7,.8,5.2,1.9,5.8,4.9,.6,3.2-1.9,4.5-4.2,5.8Z"/>
      <path class="cls-14" d="M27.8,29.9c-.8,0-1.1-.5-1.1-1.2,0-.6,.3-1.2,1.1-1.2,.9,0,1.4,.5,1.3,1.4,0,.9-.7,.9-1.3,.9Z"/>
    </g>
  </g>
</svg>