<?xml version="1.0" encoding="UTF-8"?>
<svg id="Capa_2" data-name="Capa 2" xmlns="http://www.w3.org/2000/svg" viewBox="0 0 92.9 73.7">
  <defs>
    <style>
      .cls-1 {
        fill: #f5c32f;
      }

      .cls-2 {
        fill: #030302;
      }

      .cls-3 {
        fill: #b79551;
      }

      .cls-4 {
        fill: #dfca14;
      }

      .cls-5 {
        fill: #f5f5f5;
      }

      .cls-6 {
        fill: #3a260d;
      }

      .cls-7 {
        fill: #746c64;
      }

      .cls-8 {
        fill: #452005;
      }

      .cls-9 {
        fill: #0f0901;
      }

      .cls-10 {
        fill: #2f2a16;
      }

      .cls-11 {
        fill: #e4cc02;
      }

      .cls-12 {
        fill: #b6a917;
      }

      .cls-13 {
        fill: #39290a;
      }

      .cls-14 {
        fill: #462105;
      }

      .cls-15 {
        fill: #c6ae49;
      }

      .cls-16 {
        fill: #e1cb16;
      }

      .cls-17 {
        fill: #ca8e11;
      }

      .cls-18 {
        fill: #e6b231;
      }

      .cls-19 {
        fill: #3e2e0c;
      }

      .cls-20 {
        fill: #282211;
      }

      .cls-21 {
        fill: #e3cc02;
      }

      .cls-22 {
        fill: #f6ac07;
      }

      .cls-23 {
        fill: #f3f3f3;
      }

      .cls-24 {
        fill: #110a01;
      }

      .cls-25 {
        fill: #dccd19;
      }

      .cls-26 {
        fill: #e79d21;
      }

      .cls-27 {
        fill: #010101;
      }
    </style>
  </defs>
  <g id="Capa_1-2" data-name="Capa 1">
    <g>
      <path class="cls-2" d="M79.3,32c-1.8,1-1.5,2.2-1.4,3.3,.5,4.8,.7,9.6,2,14.4,1.6,5.8-.9,10.6-5.3,14.2-9.8,8.1-21.2,10.8-33.6,9.5-7.4-.8-14.3-3.2-20.5-7.6-7.1-5-9-10.3-7-18.7,1.1-4.8,1.4-9.6,1.2-15.7-2.1,2.8-3.3,5-6.2,4.9-2.7,0-5.1-.7-6.1-3.3-1.1-2.8-.4-5.4,1.9-7.5,5.2-4.8,5.7-7.1,2.6-13.5-1.2-2.5-2.9-4.6-4.9-6.6C1,4.4-.6,3.5,.3,1.7,1,.2,2.7,.2,4.2,0c7.5-.5,13.2,2.8,17.9,8.4,1.7,2,2.6,5.3,4.7,6,1.7,.6,4.4-1.8,6.7-2.6,10.4-3.3,20.7-3,30.5,2,2.1,1.1,2.8,.6,3.9-1.2C72.5,5,78.7-.3,88.3,0c1.6,0,3.5,0,4.3,1.7,.9,1.9-1,2.8-2.1,3.9-2.9,3-5,6.4-6,10.6-.9,3.7-.4,6.6,3.2,8.6,3.2,1.8,3.9,5,2.7,8.1-1.2,3.2-4.2,3.5-7.2,3.2-2.3-.3-3.3-1.9-3.9-4.1Z"/>
      <path class="cls-22" d="M25.2,62.3c.3-.3,.6-.6,.9-.9,.5-1.4,1.8-2.4,2.4-3.7,2-4.6-.9-9.1-6-9.4-2.2-.1-4.1,.7-6.1,1.3-1.6-1.6,.1-3.2,.2-4.7,.2-4.2,.5-8.5,1.4-12.6,2.1-9.9,8.2-16.2,18-18.8,8.2-2.2,16.3-2,24.1,1.1,9.7,3.9,14.1,11.7,15.4,21.6,.5,3.9,.4,7.9,1.4,11.8,.4,1.6-.5,1.2-1.3,.7-.3-.2-.7-.2-1.1-.2-9-.8-10.1,.1-11.1,9.4,.6,2.4,2.7,3.3,4.6,4.2,.9,.4,1.9,.4,2.1,1.6-1.3,.4-2.4,1.2-3.5,1.9-12.4,4.6-24.9,5.4-37.2-.2-1.7-.8-3.6-1.3-4.3-3.3Z"/>
      <path class="cls-7" d="M76.5,18.9c-1,3.9-1.1,7.7,.5,11.6-1.9-.9-1.8-2.6-2.5-3.9-1-1.8-1.7-4.1-3.2-5.4-4.2-3.3-2.3-6.4,0-9.4,3.8-5.3,8.6-9.3,15.6-9.4,0,0,.3,.1,.3,.2,0,.2,0,.4-.1,.6-1.5,2.4-4,3.9-5.7,6.2-2.2,2.9-2.7,6.5-4.7,9.5Z"/>
      <path class="cls-7" d="M5.3,2.4c8.7-.7,16.3,7.5,18.9,14.1,.4,1,.3,1.7-.5,2.3-3.3,3-5.3,6.8-6.6,11-.4,1.1-.9,.9-1.6,.2,.5-4.2,1-8.3-.2-12.4-1.4-5.2-3.8-9.6-8.3-12.8-.8-.6-2.1-.9-1.8-2.4Z"/>
      <path class="cls-21" d="M74.9,49.6c3.3,4,3.2,8.1-.2,10.7-3.1,2.4-7.4,1-10.4-3.1-1.1-4-.5-6.1,2.3-8,2.6-1.8,5.6-1.7,8.4,.5Z"/>
      <path class="cls-17" d="M25.2,62.3c12.8,7.3,26.1,7.6,39.9,3.2,.7-.2,1.5-.2,2.2-.3,.3-.2,.5-.2,.8,.1-2,1.6-4.2,2.7-6.8,3.1-.9,.5-2.1,0-2.8,1-13.4,4-25.7,1.5-37.1-6.9,1.3,0,2.5-.2,3.8-.3Z"/>
      <path class="cls-11" d="M16.3,52.4c.3-.7,.6-1.4,.9-2.1,2-3.4,5.2-2.4,7.9-1.8,2.6,.6,4,2.8,4.1,5.6,.1,3-.4,5.7-3.8,6.7l-2.1,.2c-3.9-1.5-6.8-3.9-6.9-8.6Z"/>
      <path class="cls-4" d="M77.2,23.4c0-.9,0-1.9,0-2.8-.4-4.6,1.7-8.3,4.3-11.8,.8-1.1,1.6-2.2,3.1-2.3,.6,.2,1.1,.4,.8,1.2-1.3,2.5-2.6,5-3.3,7.8-1,4.6-.7,8.5,4,11.1,2.3,1.3,3.2,3.6,.9,6.8-.4-2.4,.2-4.7-2-5.9-2-1-3.8-.2-5.6,.5-1.9-1-1.9-2.9-2.2-4.7Z"/>
      <path class="cls-16" d="M8.9,25.4c3.7-4.6,2.4-9.4,.3-14.1-.5-1.2-1.2-2.4-1.8-3.6-.3-.8,.2-1,.8-1.2,3.8,1.2,5,4.6,6.3,7.8,1.3,3.2,2.2,6.6,1.8,10.1-.7,.8-.7,1.6-.3,2.5-.5,1.1-.6,2.7-2.5,1.7-1.1-1.6-2.9-1.3-4.5-1.5-.5-.5-.5-1-.1-1.6Z"/>
      <path class="cls-10" d="M15.5,24.9c.2-7-1.6-13.3-7.1-18.2-1.4-.1-2.1-1.6-3.3-2.1-2.4-.9-1.1-1.6,.2-2.2,7,4.1,10.6,10.4,11.7,18.3,.5,3.3,.3,6.4-1.4,9.3-.7-.5-1.7-.6-2.1-1.6,1.7,.2,1.5-1.2,2-2.2-.3-.5-.2-1,.1-1.5Z"/>
      <path class="cls-13" d="M25.3,60.8c3.5-3.2,4.3-6.9,2.2-9.7-2.3-3-6.4-3.3-10.3-.7-.2-.2-.5-.5-.7-.7,2.4-3,5.6-2.8,8.8-1.9,3,.9,4.6,3.2,4.7,6.4,.2,3.2-.5,5.9-3.9,7.2-.3-.2-.5-.4-.8-.6Z"/>
      <path class="cls-20" d="M84.4,6.7c-4.4,3.6-5.9,8.7-7.2,13.9-.2-.6-.5-1.1-.7-1.7,.9-6.9,4.2-12.3,10.4-15.7,0,.4,0,.8,0,1.3-.5,1.1-1.2,2-2.5,2.2Z"/>
      <path class="cls-19" d="M74.9,49.6c-7.1-2.5-10.4-.1-10.7,7.6-.2,.3-.5,.6-.7,.8-1.6-3.6-.8-6.8,2.2-9.2,2.7-2.2,6.4-2.1,9.9,0-.3,.2-.5,.5-.8,.7Z"/>
      <path class="cls-12" d="M16.3,52.4c1.1,3.8,4.1,6.1,6.9,8.6-5.5,1-8.7-3-6.9-8.6Z"/>
      <path class="cls-15" d="M8.9,25.4c0,.5,0,1.1,.1,1.6-1.3,.4-2.1,1.4-3,2.3-.5,.4-.9,.4-1.4,0,.5-2.3,2.4-3,4.2-3.9Z"/>
      <path class="cls-18" d="M77.2,23.4c.7,1.6,1.5,3.1,2.2,4.7-3.1-.5-2.2-2.8-2.2-4.7Z"/>
      <path class="cls-25" d="M4.6,29.3c.5,0,.9,0,1.4,0,0,1.2-.1,2.3-.2,3.7-1.8-1-1.5-2.4-1.1-3.7Z"/>
      <path class="cls-26" d="M68.1,65.3c-.3,0-.5,0-.8-.1,.3-1.8,1.8-1.3,2.9-1.4-.3,1.1-1.3,1.2-2.2,1.5Z"/>
      <path class="cls-3" d="M58.5,69.5c.4-1.8,1.8-.9,2.8-1-.7,.8-1.8,.7-2.8,1Z"/>
      <path class="cls-9" d="M57.5,39.5c0-4.1,2.4-6.4,6.6-6.4,3.6,0,6.2,2.7,6.2,6.1,0,3.5-2.9,6.4-6.4,6.5-3.9,0-6.4-2.4-6.4-6.2Z"/>
      <path class="cls-24" d="M29.1,33.1c4.1,0,6.4,2.3,6.3,6.6,0,3.5-2.6,5.9-6.3,6-3.5,0-6.4-2.8-6.5-6.4,0-3.6,2.6-6.1,6.5-6.2Z"/>
      <path class="cls-6" d="M34.5,53.3c7.3,0,14.6-1.3,21.9,0,1,.2,2-.2,2.8-.8,.3,.1,.5,.4,.7,.7-1.5,2.1-3.7,1.8-5.7,1.5-5.2-.8-10.3-.8-15.4,0-1.7,.3-3.5,.5-4.9-.9,0-.6,0-1,.8-.6Z"/>
      <path class="cls-8" d="M48.6,46.5c0,1.1-.8,1.5-1.8,1.6-1,.1-2.2,0-2.5-1.1-.3-1.3,.9-1.7,1.8-1.8,1-.1,1.9,.3,2.4,1.3Z"/>
      <path class="cls-14" d="M34.5,53.3c-.3,.2-.5,.4-.8,.6-1.1-.5-1.8-1.1-1.3-2.5,1.5-.2,1.3,1.4,2.2,1.9Z"/>
      <path class="cls-27" d="M59.8,53.3c-.2-.2-.4-.5-.7-.7,.3-.5,.7-1.4,1.2-1,.7,.5,.3,1.3-.5,1.7Z"/>
      <path class="cls-1" d="M15.5,24.9c0,.5,0,1-.1,1.5-.6-.2-1.7,.2-1.6-.8,0-.9,1.1-.6,1.7-.7Z"/>
      <path class="cls-5" d="M62.2,35.3c1.4,.2,2.3,1.1,2.1,2.7-.2,1.6-1.3,2.2-2.9,2.1-1.5-.1-2.2-1.1-2.1-2.4,.1-1.5,1.1-2.4,2.9-2.3Z"/>
      <path class="cls-23" d="M33.7,37.6c-.2,1.8-1.1,2.6-2.7,2.6-1.4,0-2.4-.7-2.4-2.2,0-1.6,.8-2.6,2.4-2.6,1.6,0,2.4,1,2.7,2.2Z"/>
    </g>
  </g>
</svg>