<?xml version="1.0" encoding="UTF-8"?>
<svg id="Capa_2" data-name="Capa 2" xmlns="http://www.w3.org/2000/svg" viewBox="0 0 73.3 66.6">
  <defs>
    <style>
      .cls-1 {
        fill: #535454;
      }

      .cls-2 {
        fill: #26363e;
      }

      .cls-3 {
        fill: #f0eded;
      }

      .cls-4 {
        fill: #51443e;
      }

      .cls-5 {
        fill: #222a34;
      }

      .cls-6 {
        fill: #46a2a2;
      }

      .cls-7 {
        fill: #686e6e;
      }

      .cls-8 {
        fill: #4da2cd;
      }

      .cls-9 {
        fill: #d86e23;
      }

      .cls-10 {
        fill: #413d41;
      }

      .cls-11 {
        fill: #4b909e;
      }

      .cls-12 {
        fill: #8b3115;
      }

      .cls-13 {
        fill: #1f1a1a;
      }

      .cls-14 {
        fill: #322827;
      }

      .cls-15 {
        fill: #fbfafb;
      }

      .cls-16 {
        fill: #676e6f;
      }

      .cls-17 {
        fill: #df6d20;
      }

      .cls-18 {
        fill: #56a0bf;
      }

      .cls-19 {
        fill: #c15e1d;
      }

      .cls-20 {
        fill: #262222;
      }

      .cls-21 {
        fill: #151318;
      }

      .cls-22 {
        fill: #272a2d;
      }

      .cls-23 {
        fill: #4da5cf;
      }

      .cls-24 {
        fill: #4d9fc1;
      }

      .cls-25 {
        fill: #61bac3;
      }

      .cls-26 {
        fill: #4a2117;
      }

      .cls-27 {
        fill: #e68498;
      }

      .cls-28 {
        fill: #5ebcea;
      }

      .cls-29 {
        fill: #c17481;
      }

      .cls-30 {
        fill: #686f6f;
      }

      .cls-31 {
        fill: #ec6736;
      }

      .cls-32 {
        fill: #2e373f;
      }

      .cls-33 {
        fill: #4f9cb6;
      }

      .cls-34 {
        fill: #372624;
      }

      .cls-35 {
        fill: #4f5656;
      }
    </style>
  </defs>
  <g id="Capa_1-2" data-name="Capa 1">
    <path class="cls-13" d="M56.8,55.8c-13.4,14.1-31.5,13.2-42.4,4.3-1.4-1.1-2.2-.9-3.4,.2-2.3,2-5.1,2.8-7.9,.8-2.8-1.9-3.6-4.6-2.8-7.9,0-.4,0-.8,.3-1.1,2.9-4.7,1.5-10,2.3-14.8,1.2-7.3,.3-15.8,7-21.5,2.1-1.8,1.9-4.5,2.6-6.9C14.7,1.6,17,.8,23.2,5.3c.3,.2,.6,.7,.9,.7,5.4-1.2,11.6,1.4,16.4-2.1,8.1-5.8,11-5.6,14,3.9,2.4,7.4,6.5,13.9,8.6,21.3,.4,1.6,1.9,2.9,3,4.2,3.2,3.9,6,8,6.8,13.1,.2,1.3,.4,2.7,.4,4.1,0,5.3-2.6,9.3-6.8,10.5-4.6,1.3-7.2-1.6-9.7-5.2Z"/>
    <path class="cls-30" d="M6.6,42.5c-2.9-3.2-1.9-6.5,3.3-9.7-4.1-.7-3.5-3.6-3.2-6.2,.3-2.2,.7-5.1,4.2-2.5,1.2,.9,2.6,.5,4,.5,3.5-1.9,7.5-2.3,11.3-3.2,3.2-.8,6.5-1.5,9.6-2.6,3.9-.6,7.6-1.9,11.4-3,1.8-.4,3.5-.4,4.9,1,1.2,1.3,2.4,2.9,0,4.2-1.7,.9-1.3,2.1-.8,3.4,.8,2.2,1.6,4.4,2.6,6.6,1.1,2.5,1.1,4.8,0,7.2-6.4,9.8-15.1,12.3-25.8,7.5-2.4-1.1-4.6-2.5-6.7-4-4.1-2.9-8.1-3.3-12.2,0-.7,.6-1.6,.5-2.5,.8Z"/>
    <path class="cls-28" d="M14,23.8c-5.3-1.5-5.6-2.5-2.1-6.5,1.4-1.6,4.7-2.5,2.4-5.8-.5-.7,.4-2.4,.9-3.5,.6-1.2,.7-3.3,2.6-3,1.7,.3,3.9,1.2,4,3.2,0,2.2,.9,1.5,2,1.1,5.4-1.7,10.8-2.5,16.4-.6,1.1,.4,2.3,1,1.6-1.5-.7-2.6,2.6-2.8,4-4,.9-.8,2.7-1.9,3.5,.5,1.2,3.6,2.9,7.1,2.5,11-.2,.4-.5,.7-.8,.8-1.5,.3-3.2,.2-4.6,.9-3.6,1-7.1,2.1-10.8,2.7-7.1,2.1-14.3,4.1-21.7,4.7Z"/>
    <path class="cls-28" d="M16.3,58.4c-5.6-3-7.9-8.4-10.2-13.8-.4-.9,.6-1.2,1.3-1.4,4.8-5.1,8.1-5.5,13.9-1.6,3.7,2.5,7.6,4.7,12.1,5.6,8.2,1.8,14.6-1.3,19.6-7.7,3.1,.3,1.8,2.3,1.6,3.9-3.5,9.2-10.5,14.5-19.8,16.9-2.2,.6-4.8,1.9-6.7-.9-.6-1.5-.8-3.1-1.7-4.5-1.9-3.2-8.2-3.8-10.4-1-1.1,1.5,1.1,2.3,.8,3.7,0,.4-.2,.7-.5,.9Z"/>
    <path class="cls-35" d="M61.4,30.7c3.2,3.3,6.3,6.7,8.2,11,1.4,3.1,2.2,6.3,1.7,9.7-.7,5.1-2.8,7.9-6.2,8.3-2.9,.3-6-2.8-7.3-7.4,4.6-4.1,4.4-9.4,3.8-14.8-.3-2.3-1.8-4.5-.2-6.8Z"/>
    <path class="cls-23" d="M28.6,59c1.9,2,4.1,.7,6.1,.3,9-2.1,15.2-7.7,19.2-16,2,3.8,1.3,7.7,.1,11.6-1.3,1.1-2.6,2.3-3.8,3.4-1.4,.5-3,.8-3.7,2.3-7.2,4.3-14.7,4.8-22.5,2-.5-.4-.5-.9-.2-1.4,1.9-.2,3.6-.6,4.8-2.2Z"/>
    <path class="cls-16" d="M61.4,30.7c.4,4.3,1.9,8.4,1.6,12.9-.2,2.8-1.2,5.3-2.5,7.7-.5,1-1.2,2-2.6,1.1,0-.2-.2-.4-.2-.7-2.1-2.2-1-5-1.3-7.5-.8-6.6-2.5-12.9-5.1-19-.5-1.2-1.6-2.6,0-3.7,1.3-.9,2.7,.1,3.7,1,2,1.7,4,3.4,4.9,6,.5,.7,1,1.5,1.5,2.2Z"/>
    <path class="cls-22" d="M59.8,28.5c-1.9-1.8-3.7-3.7-5.7-5.4-.8-.7-1.8-1.9-2.8-1.1-1,.7,0,1.8,.4,2.7,2.7,6.3,5,12.6,5.6,19.5,.2,2.5-.1,4.9,.3,7.4-.4,.2-.9,.5-1.3,.7-2-3.2-.7-6.9-1.4-10.4-.2-1.2,0-2.4-1-3.3-.3-.1-.6-.3-.8-.6,2-4.5-1-8-2.2-11.9-.7-2.2-3.8-5.1,1.4-6.1,.9-.2,.3-1,0-1.5-1.1-2.2-3-2.4-5-2-.8,.4-.9,0-.8-.7,1.4-.7,2.9-1.2,4.5-.8,3,1,3.6,3.9,5,6.2,.7,1.8,2.4,3,3.2,4.8,1.3,.5,1.4,1.3,.8,2.4Z"/>
    <path class="cls-5" d="M53,38c.2,0,.5,0,.7,0,.8,.8,0,1.1-.5,1.5-6.5,8.9-15.5,11.1-26,6.2-2.2-1.1-4.4-2.3-6.4-3.7-5-3.5-7.5-3.4-12.4,.7-.3,.2-.7,.3-1,.4-.3-.2-.6-.4-.8-.6,2.2-.8,2.9-3.4,5.6-3.8,3.9-.7,6.9,.2,9.9,2.6,2,1.6,4.3,2.9,6.8,3.8,7.9,3.1,16.3,3.8,24-7Z"/>
    <path class="cls-7" d="M3.6,59.2c-2.7-3.2-2.5-5.6,1.4-11.9,1.4,2.5,2.7,4.8,4,7.2,0,3.9-1.4,5.2-5.5,4.7Z"/>
    <path class="cls-32" d="M14,23.8c7.3-1.7,14.6-3.4,21.9-5.2,.3,.3,.4,.6,0,1-6.9,2.4-13.9,3.9-21.1,5-.3-.3-.6-.5-.9-.8Z"/>
    <path class="cls-8" d="M53.2,39.6c.2-.5,.3-1,.5-1.5,1.7,.3,1.5,1.7,1.7,2.8,.8,3.8,.7,7.6,.8,11.4-.7,.9-1.5,1.7-2.2,2.6,0-3.9,0-7.7-.1-11.6-.4-1.2,1.4-2.8-.7-3.7Z"/>
    <path class="cls-24" d="M51.6,14.9c-.6-3.8-2.3-7.4-2.2-11.3,2.6,2.8,3.8,6.2,4.5,9.8,.5,2.4-.7,2.3-2.4,1.6Z"/>
    <path class="cls-1" d="M3.6,59.2c3.1,0,4.6-2,5.5-4.7,.9,1.1,3.2,1.9,1.4,3.7-1.9,1.9-4.2,3.7-6.9,1Z"/>
    <path class="cls-33" d="M59.1,26.1c-1.5-1.2-3-2.4-3.7-4.3-.3-.9-.5-1.8,.2-2.6,2.2,1.8,3.5,4.1,3.6,6.9Z"/>
    <path class="cls-6" d="M55.5,19.1c0,.9-.1,1.7-.2,2.6-1.1-2.5-2.2-5-4.4-6.8,.2,0,.5,0,.7,0,1.2,.1,2.2,0,2.4-1.6,.6,1.9-.2,4.2,1.5,5.8Z"/>
    <path class="cls-25" d="M16.3,58.4c0-.3,0-.6,.1-.9,2.1-.4,3.4,1,4.7,2.3,.2,.6,.2,1.1-.3,1.5-2-.2-3.4-1.3-4.6-2.9Z"/>
    <path class="cls-18" d="M46.5,60.7c-.3-3.2,2.1-2.2,3.7-2.3-1.1,1-2.1,2.1-3.7,2.3Z"/>
    <path class="cls-11" d="M20.9,61.3c0-.4,0-.9,0-1.3,.8-.9,1.6-.2,2.4,.1,.4,.3,.7,.8,.8,1.3,0,.4,0,.8,0,1.2-1.1-.2-2.4-.2-3.1-1.3Z"/>
    <path class="cls-14" d="M45.8,31.9c.2,4.2-1,7.8-4.3,10.7-4.2,3.8-9.8,3.3-13-2-5.5-9.1-5.6-9.4,3.9-14.1,2.3-1.1,4.9-1.6,7.5-2.3,4.1-1.1,5.1-.5,5.8,3.6,.2,1.3,.2,2.7,.2,4.1Z"/>
    <path class="cls-2" d="M36,19.5c0-.3,0-.6,0-1,3.5-1,7-1.9,10.5-2.9,.3,.2,.6,.5,.8,.7-3.6,1.5-7.4,2.6-11.3,3.1Z"/>
    <path class="cls-34" d="M23.1,60.7c-.7-.2-1.5-.4-2.2-.6-1.5-.8-2.9-1.7-4.4-2.5-3.3-3.9-3.3-3.9,1.7-5.6,6.2-2,7.3-1.7,8.8,2.6,.4,.7,0,.9-.6,1.2-4.3,1.1-4.5,1.4-2.4,3.9,.2,.3,.2,.7,0,1-.3,.2-.7,.2-1,0Z"/>
    <path class="cls-10" d="M23.1,60.7c.4,0,.8-.2,1.2-.2,1-.9,2-1.7,1.7-3.2,0-.7-.2-1.4,.4-1.9,.2-.3,.4-.5,.7-.8,1.3,1.2,1.4,2.9,1.6,4.5,0,3.8-2.2,3.3-4.6,2.4-.3-.3-.6-.5-.9-.8Z"/>
    <path class="cls-15" d="M32.7,40.4c.3,.9,.6,1.7,1.2,3.2-4.6-2.6-7.1-6.5-7.5-10.7-.3-2.8,3.3-4.1,6.2-4.6,.6,2.9-.6,5.8,.2,8.6,.3,1.2,.4,2.3,0,3.5Z"/>
    <path class="cls-9" d="M41.1,38c0,.7,0,1.3-.6,1.8-1-.5-1.2-1.5-1.5-2.4-.5-1.6-.2-3.2-.7-4.8-1.8-3-2.2,.9-3.5,.7-.8,.2-1.5,.1-2.1-.4-.7-1.3-.2-2.3,.8-3.1,1.1-1.4,1.8-3.6,4-3.1,3,.7,3.1,3.6,3.8,6,1.2,1.8,1,3.6-.1,5.4Z"/>
    <path class="cls-17" d="M39.6,37.3c.9,.6,.7,1.7,.9,2.5-.6,1.7-1.2,3.4-3.5,3.5-2.3,.2-2.5-1.8-3.5-3-1-1.1-.9-2.5-1.3-3.8,0-.8-.1-1.6,.4-2.2,2.3-1,2.3,1,3,2.2,.7,1.8,1.6,2.2,3.1,.7,.3-.2,.6-.1,.9,.1Z"/>
    <path class="cls-3" d="M42.5,32.1c-.1-2.4-1.4-4.4-2.9-6.3,3-1.5,4.2-.7,4.7,2.5,.5,3.3,.3,6.4-.9,9.5-.1,.3-.3,.5-.5,.8l-.5-1.3c-.9-1.7-.5-3.5,0-5.2Z"/>
    <path class="cls-4" d="M33,34.3c0,.8-.2,1.5-.2,2.3-.2,.4-.3,.9-.8,1-1.4-3.2,0-6.2,.5-9.3,.3,.5,.7,1,1,1.5-.1,1-.3,2-.4,3.1,.3,.5,.3,1,0,1.5Z"/>
    <path class="cls-20" d="M42.5,32.1c.4,1.7,.4,3.5,0,5.2h-.2s-.2,0-.2,0c-.7-1.5-.6-2.9-.1-4.4,.2-.3,.4-.5,.6-.8Z"/>
    <path class="cls-26" d="M32,37.6c.3-.3,.5-.7,.8-1,.3,1.2,.5,2.5,.8,3.7-.3,0-.6,0-.9,0-.9-.8-.7-1.8-.7-2.8Z"/>
    <path class="cls-19" d="M41.9,32.9c0,1.5,0,3,.1,4.4-.3,.2-.6,.5-.9,.7,0-1.8,0-3.6,.1-5.4,.2,0,.4,.2,.6,.3Z"/>
    <path class="cls-12" d="M16.2,54.1c2.4-.8,4.5-2.6,7.3-1.5-3.2,4.9-4.1,5.1-7.3,1.5Z"/>
    <path class="cls-29" d="M26.3,55.3c.1,.5,.3,1,.4,1.6-1.1,.8-1.9,2-2.8,3-1.2-.6-3.6-.5-2.7-2.5,.8-1.7,2.6-3.3,5.1-2Z"/>
    <path class="cls-27" d="M23.9,59.8c-.3-2.1,.4-3.4,2.8-3,.5,2.1,1.1,4.3-2.5,3.6,0-.2-.2-.4-.3-.6Z"/>
    <path class="cls-21" d="M39,37.4c-.2,1.1-.5,2.4-1.8,2.5-1.8,.2-1.2-1.9-2.1-2.6-.4-1.5-.7-3,0-4.5,.8-.9,.4-2.9,2.3-2.9,1.2,0,1.3,1.2,1.7,2.1,.5,1.8,.4,3.5,0,5.3Z"/>
    <path class="cls-31" d="M35.1,32.8c0,1.5,0,3,0,4.5-1.2-.6,0-2.9-2.1-3,0-.5,0-1,0-1.5,.7,0,1.3,0,2,0Z"/>
    <path class="cls-19" d="M39,37.4c0-1.8,0-3.5,0-5.3,1.3,1.6,.5,3.5,.6,5.2-.2,0-.4,0-.6,0Z"/>
  </g>
</svg>