<?xml version="1.0" encoding="UTF-8"?>
<svg id="Capa_2" data-name="Capa 2" xmlns="http://www.w3.org/2000/svg" viewBox="0 0 74.6 71.7">
  <defs>
    <style>
      .cls-1 {
        fill: #453b1b;
      }

      .cls-2 {
        fill: #292e53;
      }

      .cls-3 {
        fill: #e3d3b9;
      }

      .cls-4 {
        fill: #443917;
      }

      .cls-5 {
        fill: #daceb0;
      }

      .cls-6 {
        fill: #39393c;
      }

      .cls-7 {
        fill: #fafafa;
      }

      .cls-8 {
        fill: #757320;
      }

      .cls-9 {
        fill: #3d3218;
      }

      .cls-10 {
        fill: #ecd501;
      }

      .cls-11 {
        fill: #e6d212;
      }

      .cls-12 {
        fill: #25243c;
      }

      .cls-13 {
        fill: #dfcb1b;
      }

      .cls-14 {
        fill: #241b16;
      }

      .cls-15 {
        fill: #cfc21d;
      }

      .cls-16 {
        fill: #27386e;
      }

      .cls-17 {
        fill: #c8bb26;
      }

      .cls-18 {
        fill: #584a17;
      }

      .cls-19 {
        fill: #cdbf1e;
      }

      .cls-20 {
        fill: #524619;
      }

      .cls-21 {
        fill: #cebe1f;
      }

      .cls-22 {
        fill: #484018;
      }

      .cls-23 {
        fill: #f4d035;
      }

      .cls-24 {
        fill: #fbeccb;
      }

      .cls-25 {
        fill: #524324;
      }

      .cls-26 {
        fill: #c6b140;
      }

      .cls-27 {
        fill: #edd601;
      }

      .cls-28 {
        fill: #242a41;
      }

      .cls-29 {
        fill: #393219;
      }

      .cls-30 {
        fill: #343353;
      }

      .cls-31 {
        fill: #ecd502;
      }

      .cls-32 {
        fill: #27263e;
      }

      .cls-33 {
        fill: #e0d3b3;
      }

      .cls-34 {
        fill: #caba20;
      }

      .cls-35 {
        fill: #eed600;
      }

      .cls-36 {
        fill: #293a7a;
      }

      .cls-37 {
        fill: #d0d00a;
      }

      .cls-38 {
        fill: #baaa3b;
      }

      .cls-39 {
        fill: #e8d706;
      }

      .cls-40 {
        fill: #3c3817;
      }

      .cls-41 {
        fill: #e9d30a;
      }

      .cls-42 {
        fill: #ebd908;
      }

      .cls-43 {
        fill: #231b15;
      }

      .cls-44 {
        fill: #554916;
      }

      .cls-45 {
        fill: #f4e4ca;
      }

      .cls-46 {
        fill: #cecd46;
      }

      .cls-47 {
        fill: #f9f8f9;
      }
    </style>
  </defs>
  <g id="Capa_1-2" data-name="Capa 1">
    <path class="cls-14" d="M12.6,50.9c-3.7-4.9-5.4-10.6-5.6-16.7,0-2.3-.8-4.3-1.9-6.3C2.5,23.2,.8,18.1,.1,12.7-.5,7.8,1,6.2,5.9,6.7c8.6,.8,12,.1,20.2-3.5,9.6-4.3,19.3-4.4,28.9,.3,2.2,1.1,4.2,1.5,6.7,1,10.1-1.9,11.8-.7,10.1,9.2-1.2,6.8,2.3,12.3,2.7,18.5,.1,2.7,.6,5.4-.5,7.7-3.1,7-5.1,14.6-9.6,20.9-4.2,5.8-9.4,9.9-16.8,10.7-3.7,.4-7.4-.1-10-3.1-1.9-2.3-4.3-3.2-6.9-4-7.7-2.3-13.8-6.6-18-13.6,.6-.5,1.3-.7,2.1-.7,1.5,.3,2.4,1.3,3.3,2.3,4,4.7,9.1,7.6,15,9.2,2.2,.6,4.2,1.5,5.8,3.2,2.6,2.8,5.7,3.8,9.5,3,7-1.3,15.3-9,16.8-15.5,.5-2-1.4-2.1-2-3.1-.4-.4-.6-.9-.7-1.4,0-.7,0-1.4,.2-2.1,.1-1.8,.3-3.7-.7-5.4-.2-.9,.5-1.6,.7-2.5,.7-4.2,1.7-8.4,2.8-12.6,.1-.5,.4-1,.8-1.4,2.3-1,2.2-2.6,1.3-4.6-1.5-3.4-4.4-5.5-7.3-7.6-1.2-.9-2.5-1.5-3.7-2.4-.6-.4-.6-1.1-.8-1.7-.4-.6-1.1-.6-1.7-.8-.3,0-.6-.2-.9-.4-2.4-1.6-5.1-2.4-7.9-2.7-2.4-.2-4.8-1.2-7.3-.3-.5,.1-1,.2-1.6,.3-.7,.2-1.4,.4-2.1,.5-5.4,.7-10.2,2.7-13.6,7.2-.3,.4-.8,.6-1.3,.7-4-.4-7.8-2.1-11.9-2.3-1.6,0-3.6-.7-4.1,1.8,.5,6.1,3,11.6,5.8,17,1.1,2.2,.5,4.7,1.3,6.9,.8,3.2,1.8,6.3,2.5,9.6-.2,1.8,2.6,3.8-.3,5.6Z"/>
    <path class="cls-24" d="M63.7,48.6c.8,1.1,1.8,1.9,3.5,1.8-4.2,8.4-8.3,16.5-18.6,18.3-3.8-5-9-8.3-14.3-11.6-1.7-1.1-3.1-2.5-2.6-4.9,1-1.7,2.1-3.2,2.6-5.2,.5-2.1,1.7-1.7,2.8-.4,.8,.8,1.5,1.7,2.3,2.4,6.4,5.8,13.4,6.9,20.7,1.7,1.1-.8,2.1-1.8,3.5-2.1Z"/>
    <path class="cls-43" d="M36.7,47.1c-.6,0-1.7-2.6-1.9,.3-.1,2.2-.5,4.2-2.7,5.2-2.8,1.4-5.5,1.3-8.1-.5-.7-1,0-1.4,.7-1.8,1.2-.4,2.7-.4,2.7-2.2,0-1,0-1.9-1.1-2.3-.7-.4-1.3-.9-1.6-1.6-.3-1-1.1-1.3-1.9-1.6-.3-.1-.5-.3-.8-.4-.9-.7-1.6-.5-2.3,.3-.7,.8-.9,1.8-1,2.8-.2,.7-.4,1.3-1.1,1.5-3.2,0-2,2.5-2.3,4.1-.9,0-1.7,0-2.6,.1,0,0,0,0,0,0,2-2.1-1.4-3.6-.6-5.5,2.3-.7,1.7-2.6,1.6-4.2-.1-1.8-.5-3.6-.5-5.5,0-2,.3-4,1.1-5.8,2.2-5,6.4-6.5,11.2-3.9,1.3,.7,2.5,1.6,4.1,1.8,.5,.2,1,.4,1.3,.9-.2,2.1,.9,3.8,1.8,5.5,.3,.6,.6,1.2,.8,1.8,.4,1.1,.8,2.2,1,3.4,.4,2,1.5,3.7,2.7,5.3,.3,.9,1.5,2-.5,2.4Z"/>
    <path class="cls-10" d="M65.8,25.3c-.8,4.5-1.5,9.1-2.3,13.6-1,.5-2,.7-3.1,.6-3.1-.9-6.4,.3-9.5-1-1.7-1.6-1.3-3.9-1.7-5.9-.6-2.8-1.8-5.4-2.9-8-.6-1.6-.3-2.9,1.4-3.7,4-1.7,15,.9,18.1,4.3Z"/>
    <path class="cls-3" d="M15.2,50.8c-1.8-1.4-1-3-.2-4.6,1-2,1.6-.2,2.3,.3,.8,.2,1.4,.7,2.1,1.2,1.5,1.3,3.4,2,4.6,3.7,2.6,1.3,5.4,1.4,8.2,1.1,.7,3.7,3.9,5,6.6,6.5,4.3,2.3,7.9,5.1,9.8,9.8-4.2,1-7.8,.3-10.5-3.4-1-1.3-2.3-2.1-4-2.5-7.8-1.7-14-5.9-18.9-12.2Z"/>
    <path class="cls-35" d="M63.3,46.3c-.2,.5-.4,1-.6,1.4-.2,.8-.8,1.4-1.5,1.7-6,4-12.1,4-18.1,0-1.8-1.2-3.6-2.3-3.9-4.7,3.4-4.3,8.1-5.7,13.3-5.9,1.8,0,3.7,0,5.5,0,1.3,0,2.4,.2,3.3,1.1,2.2,1.6,1.7,4.1,1.9,6.3Z"/>
    <path class="cls-41" d="M56.1,8.7c4.1,1.7,7.4,4.5,10.5,7.6,1.7,1.7,1.9,3.9,2.7,5.9,.8,2.1-2.1,1.1-2.6,2.3-3.2-.7-5.9-2.7-9.1-3.1-1.3-.2-1.9-1.5-2.2-2.8-.3-1.6-.8-3.1-1.4-4.6-.3-.8-.5-1.7-.8-2.5-.2-1.1-.9-1.8-1.5-2.6,1.6-1.9,1.9-1.9,4.5-.1Z"/>
    <path class="cls-20" d="M30.6,29.1c-.3-.2-.6-.5-.9-.7-.2-1.2,.6-1.9,1.5-2.3,2.9-1.5,2.7-3.3,1.1-5.7-5.9-8.9-6.9-9.1-14.7-1-.8,.8-1.3,1.8-2.1,2.6-.7,.7-1.3,1.6-1.7,2.5-1.9,3.3-3.5,6.8-3.6,10.7-.2,.3-.4,.6-.7,.8-1.4-2.1,.1-4.8-1.3-6.8,.4-1.4,1.2-2.7,1.8-4,1.4-2.8,3-5.4,5.2-7.6,4.6-5.1,10.1-8.8,16.6-11.1,1.2-.5,2.8-.7,2.5-2.6,.5-.2,1.1-.5,1.6-.7,.8,.6,1.7,.9,2.3,1.7,.5,.7,2,.9,1.3,2.3-2.3,1.2-4.9,1.7-7.4,2.5-2.2,.8-3.3,1.5-1.1,3.7,1.8,1.7,3.3,3.8,4.4,6,1,2.3,2.5,3.2,4.9,2.9,.5,.3,.9,.7,1,1.2-2.9,3.3-6.8,4.6-10.7,5.8Z"/>
    <path class="cls-1" d="M61.4,48.7c.5-.3,.9-.6,1.4-.9,.3,.3,.6,.6,.9,.9-7.9,9.5-20.3,7.9-27-1.6,1-.8,.1-1.4-.1-2.1,2.3-3.3,5.8-4.9,9.5-6.2,1.4-.5,3.4-.7,2.6-3.1-.6-3.4-2.1-6.6-2.6-10.1,.2-.6,.6-1,1.2-1.2,2.4,4.1,3.7,8.5,3.8,13.3,0,1,1.8,.5,1.4,1.8-4.7,.8-9,2.4-12.7,5.4-.8,1.5,.2,2.3,1.1,3.2,5.4,5.5,11.6,6.3,18.1,2.2,.8-.5,1.6-1.1,2.5-1.6Z"/>
    <path class="cls-13" d="M34.3,3.7c.7,.5,1.4,1,2.5,1.8-8.7,2.4-15.5,6.5-21.2,12.4-.5,.3-1,.4-1.5,0-.6-1.6,.4-2.7,1.2-3.9,1.3-.9,2.6-1.6,4.1-2.1,3.4-5.6,8.7-7.8,15-8.3Z"/>
    <path class="cls-11" d="M19.3,12c-.8,1.4-2,2.3-3.7,2.2-1.2,.9-2.4,.1-3.7,0-2.5-.5-5-1.5-7.6-.3-1.6,.3-1.8-.8-2.2-1.9-.7-2.6,.6-3.3,3-3.1,4.9,.4,9.6,1.3,14.1,3.2Z"/>
    <path class="cls-42" d="M68.8,17c-1-1-.6-1.8-.6-2.7,.4-5,.4-5.1-4.5-3.7-1.7,.5-2.8-.3-3.2-1.6-.4-1.4,.2-2.2,2-2.6,7.4-1.6,8.5-.7,7.2,6.9-.2,1.2,0,2.5-.9,3.7Z"/>
    <path class="cls-4" d="M47.2,24.4c-.2,.3-.5,.6-.7,.9-1.6-1-3.3-1.7-5.1-2.1-.3-.3-.7-.5-1-.8,.8-2.2,2.9-1.9,4.6-2.4,1.3-.3,2.7-.3,4-.6,4.6-.7,4.6-.7,4.3-5.3,.2-.6,.5-1,1.2-.9,.8,5.9,4.6,8.6,10,9.8,.8,.2,1.4,.9,2.2,1.4-.3,.2-.6,.5-.8,.7-5.4-2.7-11-4-17.1-3.5-2.2,.2-2.6,.9-1.6,2.7Z"/>
    <path class="cls-17" d="M2.2,11.9c.7,.5,1,1.6,2.2,1.5,2.1,1.8,1.9,4.5,2.9,6.7,.5,1.5,1.4,2.6,2.8,3.3,.5,.5,.9,1.1,.3,1.8-.5,1.4-.6,3-2.2,3.7-3-5.3-5.4-10.9-5.9-17.1Z"/>
    <path class="cls-34" d="M13.9,35.9c.3,2.2,.6,4.3,.9,6.5,.2,1.6-.8,2.8-1.6,4-.4-.4-.8-.7-1.3-1.1-1-3.1-2.1-6.2-2.5-9.5,0,0,.4,0,.4,0,1.4-.1,2.7,.2,4.1,0Z"/>
    <path class="cls-47" d="M71.9,30.2c-.1,2.3-.5,4.8-2.5,5-2.1,.2-1.8-2.6-1.9-4.1,0-1.7-.2-4.3,2-4.6,2.1-.2,2.2,2.2,2.4,3.6Z"/>
    <path class="cls-16" d="M67.4,41.9c1,0,2.4-.6,2.8,.9,.5,2-1.5,3.2-2.1,4.8-.2,.6-1.5,1.8-2.4,1.3-1.8-1-1.2-3-1.3-4.7,.4-1.5,2.1-1.4,3-2.3Z"/>
    <path class="cls-15" d="M37.4,4.8c-.5-.6-1-1.2-1.5-1.9,.5,0,1,0,1.5,0,2.7,0,5.4,1,8.2,0,2.9,.7,6.1,.6,8.1,3.4-1.6,1.3-3.2,.2-4.8,0-3.7-1-7.8,.6-11.4-1.7Z"/>
    <path class="cls-22" d="M49.4,5.9c1.4,.2,2.8,.4,4.2,.6,0,0,.2,.1,.2,.1,.9,.6,2.1,0,3,.7-.2,.5-.4,.9-.6,1.4-1.4,.6-2.6-1.5-4.1-.3,0,0-.1,.2,0,.3,0,.1,.2,.2,.3,.3,.8,.5,1,1.5,1.5,2.3,.3,.7,.5,1.4,.8,2.2-.2,.3-.5,.6-.7,.9-.9,.1-1.4-.5-1.7-1.1-1.3-2.8-3.9-4.6-5.8-7,1-1,2.1-.7,3.2-.3Z"/>
    <path class="cls-39" d="M45.5,3c-2.7,1.8-5.5,1.8-8.2,0,2.7-1.1,5.4-.2,8.2,0Z"/>
    <path class="cls-33" d="M67.2,14.8c-1.6-1.2-2.9-1.6-2.6-3.1,.2-.8,1.3-.9,1.9-.6,1.8,.7,.4,2,.7,3.7Z"/>
    <path class="cls-23" d="M63.3,46.3c-.6-2-.6-4.2-2-5.9,.2-.3,.5-.3,.8-.2,2.8,1.6,1.1,4,1.2,6.1Z"/>
    <path class="cls-12" d="M67.4,41.9c-.2,1.8-2.2,1.3-3,2.3-.4-2.5,1.4-2.3,3-2.3Z"/>
    <path class="cls-40" d="M62.1,40.2c-.3,0-.5,.1-.8,.2-1-.3-2-.6-3-.9,.3-1.7,1.5-.8,2.4-.7,.9,0,1.9,0,2.8,0-.5,.4-1,.9-1.4,1.3Z"/>
    <path class="cls-8" d="M56.7,7.3c-1.1,.1-2.2,.3-3-.7,1.1-.4,2.2-.5,3,.7Z"/>
    <path class="cls-27" d="M13.9,35.9c-1.3,2.4-2.7,1.1-4.1,0-.9-4.6,.8-8.5,3.4-12.1,.9-.6,1.2-1.5,1.5-2.4,2.3-3.6,5.7-6.1,9-8.6,1.5-1.1,2.5-.9,3.9,.3,2.9,2.6,4.9,5.9,6.9,9.2,.8,1.3,.8,2.5-1,3.3-1.4,.7-2.6,1.8-3.8,2.8-.7,.4-1.3,.7-2.2,0-7.5-5.1-12.1-2.9-13.4,6.1,0,.5-.1,1-.2,1.5Z"/>
    <path class="cls-35" d="M41.3,23.3c2.4-1,4.2-.6,5.1,2.1,1.2,3.4,2.7,6.7,2.9,10.4,.7,1.5-.2,2-1.4,2.4-2.8,1-5.5,2.2-8.1,3.8-2.8,1.7-4.6-.1-6.2-2.3-.4-1.2-.8-2.4-1.1-3.6,.3-.7,0-1.2-.6-1.6-.5-1.8-3.8-2.8-1.4-5.3,3.6-1.9,7.2-3.8,10.8-5.8Z"/>
    <path class="cls-36" d="M25.2,43.5c.1,.8,.6,1.4,1.5,1.5,1.3,.6,.6,2.2,1.6,2.9,.5,2.5-.5,3.5-3,2.9-2-.9-4-1.8-6-2.8-1-.9-.5-2.4-1.4-3.3,0-1.3-.6-2.8,1.4-3.2,1.1-.6,2.1-.6,3.1,.1h0c.7,1.1,2.3,.5,2.8,1.7Z"/>
    <path class="cls-7" d="M24,30.7c3.1-.2,7.7,6.3,6.5,8.6-.7,1.5-2,1-3.2,.7-3.3-1-4.8-3.3-4.9-6.6,0-1.4,.6-2.3,1.5-2.6Z"/>
    <path class="cls-21" d="M33.7,39.6c2.8,2.5,5.6,2.7,8.5,.2,2.1-1.8,5.5-1.3,7.1-4,.5,1.3,1.1,2.7-1,3.2-4.4,1.1-8.1,3.7-11.8,6.1-1.6-1.5-2.7-3.2-2.8-5.4Z"/>
    <path class="cls-6" d="M19.5,47.7c2.3,.4,4.3,1.3,5.8,3.2-.5,.2-.9,.4-1.4,.5-2.1-.7-4-1.8-5.4-3.5,.3-.3,.6-.4,1-.2Z"/>
    <path class="cls-30" d="M19.5,47.7c-.3,0-.7,.1-1,.2-.6-.3-1.1-.7-1.3-1.4,.2-.5,.4-1.1,.6-1.6,1.8,.2,1.3,1.8,1.7,2.9Z"/>
    <path class="cls-32" d="M28.3,47.9c-1.9-.2-1.3-1.8-1.6-2.9,2.3,0,1.5,1.7,1.6,2.9Z"/>
    <path class="cls-2" d="M25.2,43.5c-1.1-.2-2.7,.3-2.8-1.6,1.1,.2,2.9-.6,2.8,1.6Z"/>
    <path class="cls-28" d="M22.4,41.8c-1,0-2.1,0-3.1-.1,1.1-1.9,2.2-1.9,3.1,.1Z"/>
    <path class="cls-37" d="M32,34.4c.7,.1,1.8-.4,1.9,.8,0,.7-.8,.6-1.3,.8-.7-.3-.5-1-.6-1.6Z"/>
    <path class="cls-44" d="M60.7,38.8c-.8,.2-1.8-.1-2.4,.7-2,0-4,0-6,0-.4-.7-1.4-.8-1.4-1.8,3.2,1,6.7-.5,9.8,1Z"/>
    <path class="cls-19" d="M61.4,48.7c-7.1,8.2-16.5,5.6-22.6-1-1.3-1.3-.6-2.2,.9-2.8,5.5,6.8,12.1,8.3,19.6,4.4,.6-.3,1.4-.4,2.1-.6Z"/>
    <path class="cls-38" d="M53.7,11.2c-.9-.5-1.3-1.4-1.5-2.3,1.7,0,1.6,1.2,1.5,2.3Z"/>
    <path class="cls-31" d="M46.3,6.6c4.7,.5,5,5.1,7.4,7.7,.4,1.9,.9,3.8,1.3,5.8-1.8,.1-3.6,.1-5.4,.4-3.2,.5-6.4,.5-9.3,2.1-2.8,1.6-4.1,.5-5.4-2.2-1.6-3.6-4.4-6.6-7.4-9.5,3.7-2.6,7.8-3.5,12-4.3,2.3-1,4.5-1,6.8,0Z"/>
    <path class="cls-18" d="M46.3,6.6c-2.3,0-4.5,0-6.8,0-.5-.9-2-.4-2.1-1.7,3.9,1.1,8.1-.6,12,1-1,.2-2.2-.3-3.1,.7Z"/>
    <path class="cls-26" d="M10.3,25.3c0-.6-.1-1.1-.7-1.4-.7-1.8,.8-2.8,1.5-4.2,.8-.9,1.3-2.2,2.9-1.8,.5,0,1,0,1.5,0-1.7,2.5-3.5,4.9-5.2,7.4Z"/>
    <path class="cls-46" d="M14.7,21.4c.1,1.2,.3,2.4-1.5,2.4,.3-1,.7-1.8,1.5-2.4Z"/>
    <path class="cls-29" d="M14,17.9c-.8,.7-1.5,1.5-2.3,2.2-.7,.1-.9-.3-1-.8,0-.3,0-.7,.2-1,1.5-1.5,1.6-3,0-4.5,.2-.6,.6-.8,1.2-.5,1.2,.3,2.3,.6,3.5,.9,.3,1.6-1.1,2.5-1.6,3.7Z"/>
    <path class="cls-9" d="M12.1,13.3c-.3,.2-.7,.4-1,.7-.1,.2-.3,.5-.5,.5-3.3-.3-3.9,1.2-2.8,4,.1,.5,.1,1.1,0,1.6-.2,.5-.5,1-1.2,.8-.8-2.5-1.5-5-2.3-7.4,2.5-2.3,5.1-.7,7.7-.1Z"/>
    <path class="cls-25" d="M6.7,20.8c.2-.3,.5-.5,.7-.8,1.3,.2,2.4-.7,3.7-.7,.2,.2,.4,.5,.6,.7-.7,1.3-1.4,2.5-2.1,3.8-2.3,.3-2.3-1.7-2.9-3Z"/>
    <path class="cls-5" d="M7.3,18.7c-1-1.5-1.9-3.6-1.1-4.7,1-1.5,3.2,.2,4.9,0,5.2,1.5,1.2,3.2,0,4.7-1.3-.2-2.5-1-3.8,0Z"/>
    <path class="cls-45" d="M7.3,18.7c.1-.7-.2-1.8,.6-1.9,1.4-.2,2.5,.6,3.2,1.9,0,.2,0,.4,0,.6-1.2,.5-1.7,4.2-3.7,.7,0-.5,0-.9,0-1.4Z"/>
  </g>
</svg>