<?xml version="1.0" encoding="UTF-8"?>
<svg id="Capa_2" data-name="Capa 2" xmlns="http://www.w3.org/2000/svg" viewBox="0 0 56.8 66.8">
  <defs>
    <style>
      .cls-1 {
        fill: #eb7948;
      }

      .cls-2 {
        fill: #e8724a;
      }

      .cls-3 {
        fill: #eb7b49;
      }

      .cls-4 {
        fill: #efad7d;
      }

      .cls-5 {
        fill: #3e1c16;
      }

      .cls-6 {
        fill: #fcf5ed;
      }

      .cls-7 {
        fill: #f6e9d3;
      }

      .cls-8 {
        fill: #e88c53;
      }

      .cls-9 {
        fill: #f5cd94;
      }

      .cls-10 {
        fill: #f8ead8;
      }

      .cls-11 {
        fill: #393228;
      }

      .cls-12 {
        fill: #f4c288;
      }

      .cls-13 {
        fill: #393229;
      }

      .cls-14 {
        fill: #fbf3e7;
      }

      .cls-15 {
        fill: #f6e9d7;
      }

      .cls-16 {
        fill: #f7ebd9;
      }

      .cls-17 {
        fill: #fbf1e6;
      }

      .cls-18 {
        fill: #f7e9d3;
      }

      .cls-19 {
        fill: #fdf7f2;
      }

      .cls-20 {
        fill: #fae592;
      }

      .cls-21 {
        fill: #f9efe2;
      }

      .cls-22 {
        fill: #f8efe0;
      }

      .cls-23 {
        fill: #faea9a;
      }

      .cls-24 {
        fill: #faf8f7;
      }

      .cls-25 {
        fill: #f5db87;
      }

      .cls-26 {
        fill: #f4d47b;
      }

      .cls-27 {
        fill: #fef6f0;
      }

      .cls-28 {
        fill: #fefaf7;
      }

      .cls-29 {
        fill: #3a3126;
      }

      .cls-30 {
        fill: #f6e7cf;
      }

      .cls-31 {
        fill: #f8df8e;
      }

      .cls-32 {
        fill: #ea693b;
      }

      .cls-33 {
        fill: #f8eddd;
      }

      .cls-34 {
        fill: #f8e38f;
      }

      .cls-35 {
        fill: #e86a49;
      }

      .cls-36 {
        fill: #f3bd87;
      }

      .cls-37 {
        fill: #f8e8d7;
      }

      .cls-38 {
        fill: #f9e38f;
      }

      .cls-39 {
        fill: #f2c58c;
      }

      .cls-40 {
        fill: #fcf5ec;
      }

      .cls-41 {
        fill: #fcea9e;
      }

      .cls-42 {
        fill: #eb7e48;
      }

      .cls-43 {
        fill: #f0af7d;
      }

      .cls-44 {
        fill: #f2c58b;
      }

      .cls-45 {
        fill: #fef7f2;
      }

      .cls-46 {
        fill: #f2ddbe;
      }

      .cls-47 {
        fill: #fce997;
      }

      .cls-48 {
        fill: #431d16;
      }

      .cls-49 {
        fill: #fce897;
      }

      .cls-50 {
        fill: #f5e3ca;
      }

      .cls-51 {
        fill: #f8ebdd;
      }

      .cls-52 {
        fill: #f9ebdb;
      }

      .cls-53 {
        fill: #faf7f7;
      }

      .cls-54 {
        fill: #ea8447;
      }

      .cls-55 {
        fill: #f6e8d4;
      }

      .cls-56 {
        fill: #fdf5ed;
      }

      .cls-57 {
        fill: #f7e9d6;
      }

      .cls-58 {
        fill: #fcf4e9;
      }

      .cls-59 {
        fill: #f7df8b;
      }

      .cls-60 {
        fill: #e9dcc6;
      }

      .cls-61 {
        fill: #f6e6d2;
      }

      .cls-62 {
        fill: #e86e4a;
      }

      .cls-63 {
        fill: #e48c59;
      }

      .cls-64 {
        fill: #7d4013;
      }

      .cls-65 {
        fill: #f3efea;
      }

      .cls-66 {
        fill: #f4c389;
      }

      .cls-67 {
        fill: #fcf4ec;
      }

      .cls-68 {
        fill: #e46e49;
      }

      .cls-69 {
        fill: #fefbfa;
      }

      .cls-70 {
        fill: #fef8f3;
      }

      .cls-71 {
        fill: #fbf2e6;
      }

      .cls-72 {
        fill: #6f675b;
      }

      .cls-73 {
        fill: #f8eedf;
      }

      .cls-74 {
        fill: #e97549;
      }

      .cls-75 {
        fill: #f3bf88;
      }

      .cls-76 {
        fill: #f3e2c4;
      }

      .cls-77 {
        fill: #fcf4ed;
      }

      .cls-78 {
        fill: #fae696;
      }

      .cls-79 {
        fill: #f6c08a;
      }

      .cls-80 {
        fill: #fbea9f;
      }

      .cls-81 {
        fill: #fcf6ef;
      }

      .cls-82 {
        fill: #f2b582;
      }

      .cls-83 {
        fill: #f4e6cc;
      }

      .cls-84 {
        fill: #6c2d1c;
      }

      .cls-85 {
        fill: #fef7f3;
      }

      .cls-86 {
        fill: #f2e0c4;
      }

      .cls-87 {
        fill: #f5e5ce;
      }

      .cls-88 {
        fill: #f1b07e;
      }

      .cls-89 {
        fill: #3e1a13;
      }

      .cls-90 {
        fill: #f1d89a;
      }

      .cls-91 {
        fill: #f6e6b7;
      }

      .cls-92 {
        fill: #fcea9d;
      }

      .cls-93 {
        fill: #fdf8f4;
      }

      .cls-94 {
        fill: #fce899;
      }

      .cls-95 {
        fill: #fef9f5;
      }

      .cls-96 {
        fill: #f7e7d5;
      }

      .cls-97 {
        fill: #fbefe4;
      }

      .cls-98 {
        fill: #3a1813;
      }

      .cls-99 {
        fill: #ea704a;
      }

      .cls-100 {
        fill: #7f4013;
      }

      .cls-101 {
        fill: #f0ddbf;
      }

      .cls-102 {
        fill: #f8efe1;
      }

      .cls-103 {
        fill: #524a41;
      }

      .cls-104 {
        fill: #f6db83;
      }

      .cls-105 {
        fill: #eb8148;
      }

      .cls-106 {
        fill: #e38253;
      }

      .cls-107 {
        fill: #fbf0e5;
      }

      .cls-108 {
        fill: #e99057;
      }

      .cls-109 {
        fill: #fef9f4;
      }

      .cls-110 {
        fill: #3c1d19;
      }

      .cls-111 {
        fill: #f8edde;
      }

      .cls-112 {
        fill: #f4d67d;
      }

      .cls-113 {
        fill: #e76a49;
      }

      .cls-114 {
        fill: #f7c68e;
      }

      .cls-115 {
        fill: #eb7c49;
      }

      .cls-116 {
        fill: #f7e7d4;
      }

      .cls-117 {
        fill: #faea9c;
      }
    </style>
  </defs>
  <g id="Capa_1-2" data-name="Capa 1">
    <path class="cls-64" d="M47.6,10.2c-.2,4.5-1.6,8.8-3.5,12.9-.7,1.5-1.5,3-2.5,4.5,1-.1,1.8-.5,2.7-.5,.6,0,1.2,0,1.5,.6,.3,.6,0,1.1-.4,1.6-.8,1.1-2,1.9-3.1,2.6-1.9,1.3-4,2.3-6.3,3.2,1.4,.8,2.7,1.5,3.9,2.4,1.7,1.4,3.2,2.9,4.3,4.9,.3,.6,.5,.8,1,.1,1.1-1.3,2.5-2,4.2-2.1,1.1,0,1.8,.5,1.9,1.6,.2,1.4,0,2.7-.8,4,1.2,.2,2.4,.1,3.6,.6,.4,.2,.9,.3,1.3,.6,1,.5,1.3,1.3,1.1,2.5-1.1,4.6-5.9,7.6-10.5,6.4-.7-.2-.9,0-1.2,.6-2.7,5.4-7.2,8.6-13.1,9.6-6.1,1.1-11.5-.4-16.2-4.4-1.6-1.4-2.9-3.1-3.8-5.1-.3-.7-.6-.9-1.4-.7-4.6,1-9.2-1.9-10.3-6.4-.3-1.2,0-1.9,1.1-2.5,1.5-.8,3-1.1,4.8-1.1-.7-1.3-1-2.5-.8-3.9,.2-1.5,.8-2,2.3-1.9,1.9,.1,3.3,1.1,4.5,2.7,2.3-4.2,5.8-7,10.5-8.6-6.1-5.4-8.5-12.4-9.2-20.1-.1-.5,0-.9,0-1.5,.4,.1,.5,.5,.6,.7,.2,.8,.3,1.6,.4,2.4,0,.1,0,.2,0,.3,.2,1.3,.4,2.5,.7,3.8,.5,2.1,1.2,4.1,2.1,6.1,0,.1,.1,.3,.2,.4,.2,.5,.5,1,.8,1.4,.3,.5,.6,1,1,1.5,.4,.7,1,1.3,1.5,1.9,.2,.3,.4,.6,.6,.8,.6,.5,1.1,1.2,1.7,1.6,.3,.3,.8,.5,.7,1.1-.7,.6-1.6,.6-2.4,1-.4,.2-.8,.3-1.2,.6,0,0-.2,0-.2,.1-1.9,1-3.5,2.2-4.9,3.8-.9,.9-1.6,2-2.2,3.2-.2,.3-.3,.7-.6,1-.8,0-.7-.8-1.1-1.2-.5-.5-.8-1.1-1.6-1.3-.5-.2-.9-.6-1.4-.6-.5-.1-1.1-.3-1.6,.1,0,0-.1,.2-.1,.2-.5,1.3-.1,2.6,.5,3.7,.2,.3,.4,.6,.6,.9,.1,.2,.3,.4,.2,.6-.1,.3-.4,.2-.7,.2-1.3-.1-2.5-.2-3.8,.2-.4,0-.7,.2-1,.4,0,0-.2,0-.2,.1-1,.6-1.1,.9-.8,2,.5,1.8,1.6,3.2,3.1,4.3,.5,.3,1,.7,1.5,.8,.4,.1,.8,.3,1.2,.4,.6,.2,1.2,0,1.8,0,1,.2,1.9-.3,2.8-.4,.4,.1,.6,.5,.7,.8,.8,1.9,2,3.6,3.5,5,3.3,3.1,7.2,4.7,11.8,4.9,3.5,.1,6.8-.6,9.9-2.3,1.3-.7,2.4-1.5,3.4-2.6,.2-.3,.4-.5,.7-.7,.3-.2,.5-.5,.7-.8,.9-1,1.6-2.2,2.1-3.5,.2-.4,.3-.8,.7-1,.9,0,1.7,.5,2.7,.4,.6,0,1.3,0,1.9,0,.2,0,.5-.1,.7-.2,.2,0,.4-.1,.6-.3,.8-.4,1.7-.7,2.3-1.4,1.1-.9,1.8-2,2.3-3.3,.5-1.4,.3-1.8-1.1-2.4-1.1-.5-2.3-.6-3.5-.6-.5,0-1,0-1.5,0-.7-.3,0-.7,0-1.1,.1-.3,.3-.5,.5-.7,.8-1.1,.9-2.3,.4-3.6,0,0-.1-.1-.2-.2-.5-.4-1-.2-1.5-.1-.5,0-1,.3-1.5,.5-.6,.3-.9,.8-1.4,1.2-.5,.4-.4,1.3-1.3,1.5-.2,0-.3-.3-.4-.4-.9-1.9-2-3.6-3.6-5-1.5-1.4-3.2-2.4-5.1-3.3-.5-.2-1.1-.4-1.5-.7,.2-.9,1-.6,1.5-.9,0,0,.2,0,.3,0,.3,0,.7-.2,1-.4,1.1-.4,2.2-.9,3.2-1.5,.8-.6,1.8-.9,2.5-1.6,.7-.5,1.5-1,2-1.7,.2-.3,.6-.5,.3-.9-.3-.4-.7-.3-1.1-.2-.8,.2-1.6,.4-2.3,.7-.5,.2-.9,.5-1.5,.3-.3-.4,0-.6,.1-.9,.1-.3,.3-.6,.5-.8,1.2-1.4,2-3.2,2.8-4.9,.5-1.1,1-2.2,1.4-3.4,0-.2,.1-.4,.2-.6,.8-2.4,1.3-4.9,1.7-7.4,.4-2,.4-4,.1-6,0-.4-.2-.9,.4-1,0,.3,.4,.5,.2,.9,.1,1.8,.1,3.6,0,5.4Z"/>
    <path class="cls-100" d="M47.4,3.9c-.3,.4-.1,.8,0,1.2,.1,2,.3,4-.3,6,0,0-.1-.1-.2-.2-.1-.5,0-.9,0-1.4,0-.1,0-.2,0-.3,.1-1.1,0-2.3,0-3.4-.2-.9,0-1.8-.9-2.4-.1-.1-.3-.2-.5-.3-.5-.2-1-.1-1.5,0-.4,.1-.7,.3-1,.6-.6,.4-1.3,.8-1.9,1.2-1.5,1.3-3.3,2.5-4.5,4.2-1.1,1.2-2.2,2.4-3,3.8-.7,1.1-1.6,2.2-2.1,3.5-.7,1-1.1,2.1-1.6,3.2,0,.2-.2,.3-.4,.4-.6-.2-.5-.8-.7-1.2-.1-.3-.2-.5-.3-.8,0-.5-.3-1-.4-1.5-.4-1.3-.9-2.6-1.5-3.8-.9-2.1-2.1-4.1-3.4-5.9-.7-1.2-1.6-2.1-2.5-3.1-.5-.7-1.1-1.3-1.8-1.8-.8-.8-1.7-1.1-2.8-.7-.5,.2-.8,.5-.9,1-.2,.7-.5,1.4-.6,2.2-.3,1.5-.5,3-.6,4.5,0,1.5,0,3.1,0,4.6,0,.2,0,.4-.2,.5-.2-.1-.2-.4-.4-.6,0,.4,0,.8,0,1.2-.4-2.2-.3-4.5-.1-6.7,.1-1.8,.4-3.5,.9-5.3,.7-2.6,3.1-3.4,5.2-1.5,4.1,3.8,7,8.4,9.1,13.5,.4,1,.8,2,1.2,3.2,.5-.8,.9-1.6,1.3-2.3,3-5.1,6.8-9.5,11.9-12.7,.8-.5,1.6-.9,2.6-.7,1,.2,1.8,.7,2.1,1.8Z"/>
    <path class="cls-100" d="M47.6,10.2c0-1.8,0-3.6,0-5.4,.3,1.8,.3,3.6,0,5.4Z"/>
    <path class="cls-27" d="M45.1,55.2c-.7,1.6-1.4,3.2-2.7,4.5-.4,.1-.5,.5-.7,.7l-.6,.6c-.4,0-.5-.2-.3-.6-.3-.2-.6-.2-1-.2-1.2,.2-2.3,.7-3.4,1.2-.3,.1-.6,.2-.8,.2-2.2,.4-4.4,1.1-6.6,.9-1.9-.2-3.8,.2-5.7-.6-.9-.4-2.1-.8-3.2-.3-.3,.1-.7,0-.8-.2-.4-.9-1.2-1-2-1.1-.3,0-.6-.3-1-.2,.4,.1,.6,.4,.6,.7,0,.2-.1,.4-.3,.6-.3,.2-.4,0-.6-.2-.1-.1-.3-.3-.5-.3-1.8-1.6-2.9-3.7-3.9-5.8-.1-.1-.2-.2-.3-.4-.3-.9-.9-1.1-1.7-.8-.3,0-.7,.2-1,.2-.8-.2-1.4-.7-2-1.3-.6-.6-1.1-1.4-1.8-1.9-.2-.1-.3-.3-.3-.5-.1-1-1.1-1.3-1.4-2.1,0-.3-.4-.2-.7-.3-.3,0-.6,0-.6-.4h0c.3-.1,.7-.2,1-.4,1.5-.6,3-.5,4.7-.2-1.4-1.7-2.4-3.5-1.4-5.7,0,0,0,0,.1,.1,0,0,0,0-.1-.1,.5-.6,1.2-.4,1.8-.2,.1,.3,.5,0,.6,.3,0,.2-.2,.3-.4,.4-.7-.3-1,0-.9,.7,.1,.9,.1,1.6,.9,2.4,.7,.7,1.4,1.7,1.6,2.8,.2,.8,.9,1.2,1.4,1.6,.8,.5,1.2,1.3,1.9,1.9,.2,.2,.3,.5,.6,.6,1.5,.4,2.5,1.6,3.8,2.3,.5,.3,1.1,0,1.6,.4,.8,.4,1.6,1.1,2.5,1.2,1.5,.1,2.8,.9,4.2,.9,2,0,4,0,5.9,0,.8,0,1.5-.1,2.1-.6,.1-.1,.3-.2,.4-.2,1.4,0,2.6-.8,3.8-1.3,1.2-.6,2.5-1.1,3.6-1.9,.3-.2,.5-.4,.9-.5,.6-.2,.9-.6,1.3-1.1,.7-.9,1.2-1.9,2.4-2.4,.3-.1,.5-.4,.6-.7,.6-1.6,1.1-1.9,2.9-1.8,.2,.4-.8,.5-.2,1,.9-.2,1.8,0,2.7,0,.4,0,.9,0,1,.4,.2,.5,.2,1.1-.2,1.5-.6,.5-.8,1.1-1.1,1.8-.1,.4-.5,.7-.7,1-.5,.6-1.1,1.1-1.6,1.8-.6,1-1.6,.7-2.5,.4-.4,0-.7-.3-1.1,0-.6,.2-.6,1-1,1.4Z"/>
    <path class="cls-85" d="M49.8,46.2c-.5,.5-1.2,0-1.7,.4-.5,.4-1,.8-1,1.4,0,.3,0,.5-.3,.6-.9,.3-1.6,.8-2,1.6-.8,1.3-2.1,2.1-3.3,3,0,0-.1,.2-.2,.2-1.3,0-2.1,1.1-3.3,1.5-1.2,.4-2.3,1.2-3.6,1.1-1.8,1.7-4.1,.7-6.1,.9-.9,0-1.8,0-2.6,0-.7,0-1.4,.2-1.8-.6,0-.1-.4-.2-.5-.1-1.4,.4-2.5-.5-3.6-1-.6-.3-1.3-.4-2-.5-.7-.2-1.6-.6-2.1-1.3-.6-.8-1.6-.8-2.3-1.3-.2,0-.5-.1-.5-.3,.2-.8-.3-.9-.9-.9,0,0-.2-.1-.2-.2,.4-1.1-.5-.9-1-1-.2,0-.2-.2-.2-.4,0,0,0-.2,0-.3-1.5,0-.6-1.9-1.7-2.3-.3-.1-.4-.5-.5-.9,0-.3-.1-.8-.7-.8-.3,0-.4-.2-.4-.5,0-.7-.3-1.3-.2-2,0-.4-.2-.9,.2-1.1,.4-.2,.6,.4,1,.5,.7,0,.9,.5,1.3,.9,.3,.3,.5,.7,.8,1,.4,.5,.5,1.2,1,1.6,.5,0,.4-.7,.9-.6,.4,.2,.2-.1,.2-.3,0-.3,0-.6,.3-.6,.4,0,.5,.2,.6,.5,.2,1.2,1,1.9,2,2.4,.3,.1,.5,.4,.6,.6q.7,.8,1.4,.2c.2,.2,.2,.4,.2,.6,0,.8,.3,1.4,1,1.9,0,0,.2,0,.2,.1,.2,.1,.4,.3,.3,.5,0,0,0,0,0,0,0,0,0,.1,0,.1,.5-.3,.9-.2,1.4,0,.4,.2,.7,.2,1.1,0,.5-.4,.8-.3,1.3,0,.7,.6,1.5,1,2.5,.7,.3,0,.6,0,.8,.2,.5,.6,1.2,.5,1.9,.4,.3,.1,.4,.3,.4,.6,0,.6,0,1.3,0,1.9,0,.1,.2,0,.1,0,0,0,0,0,0,0,0-.6,0-1.3,0-1.9,0-.3,.2-.6,.6-.6,.6,.2,1.2,.3,1.8,.2,.2,0,.4,0,.6,0,1.1-1,2.4-1,3.7-1,.3,0,.6,0,.9-.2,.6-.3,1.2-.5,1.8-.2,0,0,.3,.1,.2-.1,0,0-.1-.2-.2-.2,0-.2,0-.3,.2-.4,.9-.5,1.2-1.2,1.2-2.1,0-.1,0-.2,.1-.4q.4,.2,.4,.7c.9-.6,1.7-1.4,2.4-2.2,.4-.4,.8-.9,1-1.5,.3-.8,.6-.9,1.4-.4,0,.1,.1,.3,.2,.4,0,0,.2,.2,.3,.3,.3,.7,.6,.6,.9,0,.2-.4,.4-.7,.6-1.1,.4-.6,.8-1.2,1.5-1.5,.7-.7,1.5-1.3,2.5-.7h0c.2,.8,.4,1.5,.2,2.3-.5,0-.3-.6-.7-.8,0,.8-.3,1.5-1,1.9-.2,.1-.2,.4,0,.6,.2,.2,.3,0,.5,0,.5-.3,.5-.3,.6,.1-.1,.2-.2,.4-.4,.6Z"/>
    <path class="cls-28" d="M35.7,35.8c1.9,.7,3.6,1.8,5.1,3.2,0,.1,0,.2,.2,.2,.9,.8,.9,.8-.2,1.3,.6,1,.1,2.8-1,3.1-.9,.3-1.1,.8-1.3,1.6,0,.3-.1,.5-.4,.6-.9,0-1.8-.1-2.6,.5-.3,.2-.5,.5-.8,.6-.4-.2-.6-.7-1.2-.5-1.5-1.5-3.4-1.1-5.2-1.2-1.2,.1-2.4,.2-3.5,.3-.3,.2-.5,.4-.8,.6-.7,1.1-.8,1.1-1.3,.1,.3,.7,.2,1.5,.3,2.3,0,.2,0,.4-.2,.5-.3,0-.4-.2-.5-.4-.1-.3,0-.7-.2-1.1,0-.2-.1-.3-.2-.5-.5-.9-1.4-1.2-2.3-1.3-.4,0-.8-.2-1-.5-1.1-1.6-2.6-2.7-3.6-4.4-.1-.2-.2-.5,0-.7,1.4-1.7,3.1-3,5-3.9,.6,.4,.3,1,.5,1.5,.3,.9,1.2,1.1,1.8,1.8,.6,.8,1.4,1.5,2.3,2,.5,.2,1,.7,1.6,.3,0-.3-.3-.4-.5-.4-.2,0-.4,0-.6,0-.5,0-.8-.3-1-.8,0-.3,0-.4,.3-.6,.5-.3,.9-.1,1.2,.2,.8,.7,1.9,.7,2.9,.7,1.1,0,2.3,0,3.3-.6,.5-.2,1.2-.7,1.6,.4,0,.2,.4,.3,.6,0,.4-.6,1.2-.7,1.5-1.5,.2-.5,1-.6,1-1.3,0,0,.2,0,0-.2,0,0,0,.1-.1,.1-.4,0-.8,.2-1.1-.1-.3-.4,0-.8,.2-1.1,.2-.3,.2-.7,.4-1Z"/>
    <path class="cls-69" d="M35.7,35.8c.1,.3,.2,.5,0,.9-.7,1.1-.7,1.1,.6,1.3-.1,.5,.5,1.5-.8,1.3-.1,0-.1,.2,0,.3,.2,.5-.2,.6-.5,.7-.3,0-.5,.2-.6,.5-.2,.6-.6,.6-1.1,.5-.7,0-.2-.6-.4-1-1.1,.3-2.2,.9-3.4,.9-1.5,0-3,.3-4.3-.9-.3-.3-.7-.2-.9,0-.3,.3,.2,.5,.3,.7,.2,.2,.4,.2,.6,.2,.7-.1,1.1,.2,1.5,.7-.5,.5-1.1,.6-1.8,.1-.8-.5-1.6-.9-2.3-1.7-.4-.5-.7-1.4-1.7-1.5-.3,0-.6-1-.8-1.5-.1-.3,0-.8-.1-1.1,0,0,0,0,0,0,.6-.2,.8,.1,.8,.7,0,.2,0,.4,.3,.5,0,0,.2,0,.3,0,.2-.2,0-.4-.1-.6-.3-.4-.4-.7,0-1.1,.8-.5,1.7-.6,2.6-.9,.3-.3,.7-.4,1.1-.5,2.1-.4,4.1-.6,6.2-.2,.4,.1,.8,.2,1.2,.2,0,0,.2,0,.3,0,.6,.1,1.3,.1,1.7,.7,.5,.1,1.1,.3,1.5,.6Z"/>
    <path class="cls-56" d="M15.6,61c.2,0,.4,0,.5,.2,.1,.1,.3,.4,.5,.1,.2-.2,.2-.4,.2-.6,0-.3-.2-.3-.4-.2-.3,0-.6,.1-.6-.3,0-.3,.3-.5,.7-.4,.8,.3,1.7,.4,2.6,.5,.4,0,.4,.4,.5,.7,.2,.6,.6,.7,1,.3,.3-.4,.5-.3,.7-.2,.7,.5,1.7,0,2.2,.4,1.7,1.1,3.7,0,5.4,.8,1.4-.8,3.1,.3,4.4-.8,.1-.1,.4,0,.6,0,1.4,0,2.7-.3,3.9-1.1,.7-.4,1.7-.4,2.6-.6,.8-.2,.5,.8,.9,1.1-.3,.6-.9,1-1.5,1.4-6.8,5.3-16.9,5-23.4-.6-.3-.2-.5-.5-.7-.8Z"/>
    <path class="cls-109" d="M43.7,22.4c-.6,1.6-1.5,3.1-2.4,4.5-.1,.2-.2,.4-.5,.4-1-.8-2-.7-3.1-.4-.7,.2-1.2,.2-1.5-.7,0-.1,0-.3,0-.4,.2-.2,.4-.4,.5-.7,0,0,0-.2,.1-.2,.5-.8,1-1.7,1.2-2.6,.3-.9,.6-1.8,.9-2.7,0-.3,.2-.6,.5-.8,.4,0,.6,.2,.9,.3,.3,.2,.6,.5,.9,.7,.6,.6,1.4,1,1.9,1.7,.2,.3,.6,.5,.5,.9Z"/>
    <path class="cls-93" d="M38,45.8c.4-.3,.2-.8,.4-1.2,.2-.5,.3-1.1,1.1-1,.5,0,1.6-1.9,1.4-2.4,0,0,0-.1,0-.1-.4,0-.8,0-.5-.6,.2-.4,.6-.5,1.1-.2,0-.6-.6-.8-.6-1.2,1.6,1.4,2.9,3.1,3.7,5.1-.8-.3-1.1,0-1.2,.8-.1,.9-.9,1.3-1.5,1.9-.6,.6-1.1,1.6-2.2,1.6-.1-.2,.1-.6-.2-.9-.4-.2-.6-.5-.8-.8-.1-.4-.6-.5-.6-.9Z"/>
    <path class="cls-93" d="M14.8,40.3c0,.3,.1,.5,.3,.7,.8,.6,1,1.7,1.8,2.2,.9,.6,1.3,1.4,1.9,2.1,.3,.3,.6,.3,1,.4,0,.3-.3,.3-.5,.4-.7,.1-1.2,.6-1.6,1.2-.1,.2-.2,.3-.4,.4-.3,.3,0,.8-.3,1.1-.4-.4-.9-.7-1.2-1.2-.4-.8-1.3-.7-1.8-1.3-.4-.5-.7-1-.9-1.5,0-.2,0-.6-.3-.6-.5,0-.1,.5-.2,.7,0,.2,.2,.5,0,.7-.4,0-.2-.5-.5-.6,0,0-.1-.1,0-.2,.6-1.6,1.5-3.1,2.7-4.3Z"/>
    <path class="cls-56" d="M47,53.6c.3,0,.6,.1,.9,.2,.8,.2,1.6-.2,1.8-1,0-.3,.2-.6,.4-.7,1-.5,1.6-1.3,1.8-2.3,.1-.4,.2-.8,.7-.9,.6-.2,.3-.9,.3-1.3,0-.4-.4-.4-.7-.4-.9,0-1.9,0-2.8,0,2.1-.6,4.1-.2,6,.8,.5,.3,.7,.8,.6,1.3-.4,1.8-1.2,3.4-2.7,4.4-.8-.2-1.5,0-2.1,.4-.3,.2-.7,.2-1,.3-.5,0-.9,0-1.4,0-.2,0-.4,0-.6,0-.4,0-.8-.2-1.2-.4,0,0-.1-.1-.2-.2,0,0,0-.2,0-.2Z"/>
    <path class="cls-56" d="M1.9,47.7c.2,.3,.4,.2,.7,.2,.2,0,.4,0,.6,.1,.5,.6,1,1.1,1.4,1.8,.3,.4,.2,1.1,1,1.1,0,0,0,0,0,0-.2,1.1,1.1,1.1,1.4,1.9,.2,.5,.9,1,1.7,1.1,0,.4-.3,.4-.6,.4-.5,0-.9,0-1.4,0-.6-.1-1.3-.1-1.9-.5-.5-.3-.2,.2-.2,.2-.2,.3-.4,.5-.7,.3-1.9-1.2-3-2.9-3.4-5-.2-.9,.4-1.4,1.2-1.6Z"/>
    <path class="cls-93" d="M17,26.5c-1-2-1.7-4.1-2.2-6.2,.6-.9,1.6-1.3,2.4-1.8,.1,0,.3-.2,.5-.2,.2,0,.3-.2,.5-.2,.2,0,.3-.2,.5-.3,.3-.1,.6-.2,.9-.1,.3,0,.4,.3,.4,.6,0,1,.4,1.9,.4,2.9-.2,.7-.5,1.3-1.3,1.4-.2,0-.4,.2-.4,.4-.2,.5-.5,.7-1,.8-.3,0-.5,.2-.4,.5,0,.3,.3,.4,.6,.4,.5,0,1.1,0,1.6,.2,0,.1,0,.3,0,.4-.8,.4-1.4,1.2-2.3,1.4Z"/>
    <path class="cls-19" d="M40,28.8c.7,0,1.3-.4,2-.6,.7-.2,1.3-.4,2-.5,.5,0,1.1-.3,1.4,.3,.2,.5-.2,.9-.6,1.2-.7,.6-1.5,.9-2.4,1.1-.9,.2-1.9,.3-2.9,.8-.4,.2-1,.6-1.4-.1,0,0,0-.2,0-.3,.1-.3,.4-.5,.6-.8,.4-.4,.8-.8,1.3-1.1Z"/>
    <path class="cls-12" d="M41.1,19.9c-.4,0-.6-.3-.8-.6,.3-.8,.9-1.4,1.2-2.3,.2-.7,.9-.8,1.6-.5,.3,.1,.6,.3,.8,.5,.5,.5,1.1,.8,1.3,1.5,0,.2,0,.3-.2,.5-.9,0-1,.8-1.3,1.4-.3,.7-.4,1-1.2,.5-.5-.3-1-.6-1.5-.9Z"/>
    <path class="cls-76" d="M31.2,34.5c-2.6-.4-5.1,0-7.6,.4-.2-.4-.7-.6-.9-.9,.5-.3,.8-1,1.6-.8,0,0,.1-.3,.2-.4,.2-.1,.3,0,.5,0,0,0,0,0,.1,.1,.3,.3,.4,.9,.9,.7,.4-.2,.2-.7,.2-1.1,0-.6-.2-1.3,.2-1.9,.4-.1,.4,.2,.5,.5,0,.3,0,.6,0,.9,0,.7,0,1.3,.9,1.2,.2,0,.3,.4,.6,.1,.4-.3,.9-.4,.9-1,0-.2,.1-.5,.5-.4,.2,.2,.2,.5,.2,.8-.3,1.2,.6,.6,1.1,.7,.6,.3,1.3,0,1.9,0,.5,0,1.1,0,1,.8-.4,.6-1,.7-1.6,.5h0c-.4-.3-.8,0-1.2-.2Z"/>
    <path class="cls-66" d="M18.6,17.9c-.1,0-.3,.1-.4,.2-.2,0-.3,0-.4,.2-.1,0-.2,.1-.4,.2-.4,.2-.9,.4-1.4,.7-.5,.4-.8,.2-.9-.5-.1-.9-.6-1.7-1.1-2.4,0,0,0-.1,0-.2,.5-.6,1.2-.9,1.8-1.3,.1,0,.3,0,.4,0,.9,0,.9,.9,1.4,1.3,.6,.5,.7,1.1,.9,1.8Z"/>
    <path class="cls-40" d="M36.3,26.1c.4,.9,1,.7,1.7,.5,1-.2,2.1-.5,2.8,.7,0,.3-.3,.5-.4,.7-1.3,.9-2.8,.6-4.2,.7-.8,0-1.1-.3-.8-1.1,.3-.4,.4-.9,.7-1.4,0,0,.1-.1,.2-.2Z"/>
    <path class="cls-71" d="M18.9,29.6c-.4-.5-.8-1-1-1.6,.5-.3,1-.2,1.4,0,.7,.3,1.4,0,2.1,.1,.4,0,.4-.2,.4-.5,0-.3-.2-.6,.1-.8,.8,.6,.9,1.5,1.2,2.4,0,.9-.2,1.1-1,1-.6,0-1.2-.1-1.8,.1-.7,.3-1-.3-1.3-.7Z"/>
    <path class="cls-71" d="M35.7,27.7c0,.3-.5,.4-.2,.7,.2,.2,.4,.3,.7,.2,.6-.2,1.3,0,1.9-.1,.6,0,1.2,.3,1.6-.6,.1-.4,.4,.2,.7,.2,0,.4-.4,.5-.4,.8-.2,.6-.7,.8-1.2,1.2-1-.4-1.9,0-2.9,0-.3,0-.6,0-.9,0-.7,0-.9-.3-.6-.9,0-.2,.2-.5,.2-.7,0-.2,.2-.4,.3-.6,.2-.2,.3-.6,.7-.5,0,.1,0,.3,0,.4Z"/>
    <path class="cls-6" d="M21.9,26.9c-.1,.5,.5,1,.2,1.4-.3,.5-.9,0-1.4,.1-1,.3-1.8-.4-2.8-.3-.3-.4-.6-.9-.8-1.4,.7-.3,1.5-.4,2.2,0,.5,.3,1.1,.1,1.6,0,.7-.2,0-.6,0-1-.1-.4-.3-.8,0-1.1,.7,0,.5,.8,.8,1.1,0,.4,.4,.8,0,1.2Z"/>
    <path class="cls-54" d="M45.3,18.5c-.6-.4-1-.8-1.4-1.4,.4-.1,.7-.3,.6-.8,0-.2,0-.5,.1-.7,1-1.3,1.5-2.9,1.9-4.5,0-.1,.1-.2,.2-.3,0,0,.2,0,.3,0,0,0,0,.1,0,.2-.4,2.5-.8,5-1.8,7.4Z"/>
    <path class="cls-73" d="M18.9,29.6c.6,.5,1.1,.8,1.9,.2,.4-.3,.9,0,1.3,.1,.7,.1,1,0,.8-.8,1,.4,.9,1.4,1.1,2.3-.1,.5-.6,.6-.9,.4-.7-.4-1.3-.4-2-.2-.2,0-.4,0-.6-.2-.6-.6-1.1-1.2-1.5-2Z"/>
    <path class="cls-45" d="M21.3,25.7c0,.2,.2,.4,.2,.6,.2,.5,.2,.6-.5,.7-1.3,0-2.6-.5-3.9-.3-.1,0-.2,0-.1-.2,.6-.5,1.2-1.2,2.1-1.4,.2,0,.2-.2,.3-.4,.4-.5,.7,0,.9,.2,.3,.4,.5,.8,1.1,.8Z"/>
    <path class="cls-71" d="M42.7,31c-.6,.8-1.7,1-2.5,1.6-1,.5-2,.4-3,.8-.5,.2-1.1,.2-1.5-.2,0-.5,.4-.7,.7-.9,.2-.2,.5-.3,.8-.4,1.5-.5,3.1-.3,4.5-1.2,.3-.2,.9-.4,1,.3Z"/>
    <path class="cls-67" d="M42.7,31c-.4-.5-.9-.2-1.3,0-.6,.4-1.3,.6-2.1,.5-.7,0-1.2,.5-1.8,.5-.2,0-.3,0-.4-.1,0,0,0-.2,0-.3,.3-.4,.6-1,1.2-.9,.3,.8,.9,.2,1.2,0,1.1-.5,2.2-.7,3.3-.9,.8-.1,1.3-.6,2-.8-.6,.7-1.3,1.3-2.1,1.7Z"/>
    <path class="cls-111" d="M35.7,32.9c.5,.4,1.3,.4,1.7,.1,.9-.6,1.9-.2,2.8-.5-1,.7-2.1,1.1-3.3,1.6-.4,0-.7,.2-1,.4h0c-.5,.2-1.1,0-1.6,0-.3,0-.5-.2-.2-.5,.2-.7,.9-.8,1.4-1.2,0,0,.2,0,.3,0Z"/>
    <path class="cls-27" d="M50.1,45.6c0-.5-.2-.3-.4,0-.3,.5-.7,.6-1,.3-.4-.4-.3-1,.2-1.2,.6-.3,.9-.6,.7-1.3,0-.2,0-.8,.4-.7,.6,0,.3,.7,.5,1.1,.4-.8-.2-1.4,0-2.2,.7,1.5,.5,2.8-.4,4.1Z"/>
    <path class="cls-44" d="M41.1,19.9c.8,.3,1.6,.5,2.3,1.1,0-.8,.5-1.3,.8-1.9,.3-.5,.5-.5,.9-.2-.3,1.2-.8,2.4-1.4,3.5-.9-.8-1.7-1.7-2.6-2.5Z"/>
    <path class="cls-54" d="M15.8,15c-.5,.5-1.1,.9-1.8,1.2-.3-.8-.3-1.6-.4-2.3,0-.1,0-.3,0-.4,.1-.4,0-.9,0-1.3,.7-.2,1.2,0,1.2,.8,0,.7,.5,1.2,.5,1.9,0,.1,.3,0,.4,.2Z"/>
    <path class="cls-57" d="M20.4,31.6c.4,0,.8,0,1.1-.3,.5-.2,.9-.3,1.3,.2,.3,.4,.7,.4,1-.2,.8,0,.6,.7,.6,1.2-1.2,.7-2.2,.7-3.4-.2-.3-.2-.5-.4-.7-.7Z"/>
    <path class="cls-39" d="M14.1,16.4c.5,0,.7,.2,.8,.8,0,.6,.8,1.1,.5,1.9,0,.2,.4,.3,.6,0,.4-.5,.9-.6,1.4-.6-.9,.6-1.7,1.2-2.6,1.7-.4-1.3-.7-2.6-.8-3.9Z"/>
    <path class="cls-46" d="M9.8,53.8c1.3-.4,1.7-.2,1.9,1.4-.9,.3-1.9,.7-2.9,.6,.1-.6,.5-.4,.9-.3-.5-.6-.7-1.2,.1-1.7Z"/>
    <path class="cls-46" d="M45.1,55.2c.2-.6,.1-1.4,1-1.6,.4-.2,.7,.1,1,.2h0s0,0,0,0c0,0,.7,1.8,.7,1.9-1,0-1.8-.3-2.7-.6Z"/>
    <path class="cls-107" d="M50.3,54.2c.6-.1,1.1-.4,1.6-.6,.5-.2,1-.4,1.5,.2-.5,.8-1.5,1-2.2,1.4-.8,.1-.8-.4-.8-1Z"/>
    <path class="cls-87" d="M21.1,32.4c1.1,.5,2.2,.5,3.3,.2,.2,0,.2,0,.2,.2,0,.4,.3,1.1-.6,.6-.1,0-.3-.2-.3,0,0,.6-.5,.4-.9,.5-.7-.4-1.2-1-1.7-1.6Z"/>
    <path class="cls-61" d="M9.8,53.8c-.4,.5-.5,1.1,0,1.6-.3,.3-.8,0-1,.3-.7,0-1.3,0-2-.2,0-.1,.2-.1,.3-.2,.2-.1,.9,.3,.5-.5-.2-.3,.3-.5,.6-.6,.2,0,.4,0,.6-.2,.3,0,.6-.1,1-.2Z"/>
    <path class="cls-50" d="M47.8,55.8c-1.1-.4-1.1-.6-.8-2,.4,.1,.8,.3,1.2,.4,.2,.1,.4,.3,.3,.5-.2,.6,.2,.6,.6,.6,.3,0,.6,0,.8,.3-.7,.3-1.4,.3-2.2,.2Z"/>
    <path class="cls-55" d="M11.1,45.6c-.5-.5-.6-1.2-1-1.8-.3-.6-.7-1.2-.6-1.9,.7,.2,1.2,.8,1.6,1.4,.2,.8,.5,1.6,0,2.3Z"/>
    <path class="cls-86" d="M46.1,44.8c-.1,.4-.2,1-.7,.9-.6,0-.5-.8-.7-1.2,.6-.4,.5-1.2,1.1-1.5,.8,.5,.4,1.2,.2,1.8Z"/>
    <path class="cls-97" d="M4.1,54.4c.8-.2,.6-.5,0-.9,1,.3,1.8,.6,2.6,.7,0,.8-.3,1-1,1-.6-.1-1.1-.4-1.5-.8Z"/>
    <path class="cls-52" d="M5.6,55.2c.5-.2,.8-.6,1-1,.5,0,1,0,1.6,0-.1,.2-.4,.3-.4,.5,.3,1-.4,.8-1,.9-.4,0-.9-.1-1.2-.4Z"/>
    <path class="cls-28" d="M21.1,35.8c0,.3-.2,.8,.2,1,.5,.2,.4,.6,.3,1,0,.3-.4,.2-.7,.2-.5,0-.6-.5-.6-.9,0-.5,0-.7-.5-.7,.4-.3,.8-.5,1.2-.6Z"/>
    <path class="cls-17" d="M9.6,41.9c.2,.6,.5,1.2,.6,1.9-.7-.6-1.1-1.5-1.9-2,.5-.4-.2-.4-.2-.6,.6,0,1.1,.4,1.6,.6Z"/>
    <path class="cls-21" d="M48,42.5c-.6,.3-.8,1-1.4,1.4-.4-.8,0-1.4,.6-2,.5-.4,1-.6,1.6-.6-.1,.5-.4,.9-.8,1.2Z"/>
    <path class="cls-55" d="M34.1,34.1c0,.1-.1,.4,0,.3,.6-.3,1.1,0,1.7,0-.5,.4-1.3,.2-1.7,.7-.6-.2-1.2-.4-1.8-.6,.6,0,1.1-.3,1.6-.6,0,0,.1,0,.2,0Z"/>
    <path class="cls-96" d="M47.2,41.9c-.2,.7-.5,1.3-.6,2-.2,.3-.3,.7-.6,1,0-.6,.1-1.2-.2-1.8,.3-.5,.8-.9,1.4-1.2Z"/>
    <path class="cls-101" d="M11.1,45.6c0-.8,0-1.6,0-2.3,.5,.3,.4,1,1,1.3,0,0,0,.2,0,.2-.3,.1-.2,.4-.3,.7-.2,.3-.4,.4-.6,.1Z"/>
    <path class="cls-51" d="M50.3,54.2c.4,.3,.1,1,.8,1-.2,.2-.3,.2-.6,.2-.8,.3-1.2-.2-1.6-.8-.1,0-.3-.1-.3-.4,.5,0,1,0,1.6,0Z"/>
    <path class="cls-27" d="M48,42.5c.3-.4,.2-1,.8-1.2,.6-.2,1.3-.4,1.8,.2-1.1-.3-1.8,.4-2.5,1Z"/>
    <path class="cls-37" d="M49.2,54.4c.2,0,.3,0,.5,0-.3,1,.5,.8,1,.9-.2,.2-.4,.2-.6,.2-.3,0-.7,0-1,0-.2-.4-.2-.8,.2-1.2Z"/>
    <path class="cls-56" d="M41.8,60.4c0-.5,.1-.8,.7-.7-.2,.3-.3,.6-.7,.7Z"/>
    <path class="cls-56" d="M2.9,47.3c-.2,.4-.6,.4-1,.4,.3-.2,.6-.4,1-.4Z"/>
    <path class="cls-55" d="M35.9,34.5c.3-.4,.6-.4,1-.4-.3,.2-.7,.4-1,.4Z"/>
    <path class="cls-28" d="M29.4,19.8c0-.1,.1-.2,.2-.3,.3,0,.7,.4,.8-.2,0-.4,.4-.5,.8-.5,.5,0,1,0,1.6,0,.8,0,.9,.3,.6,1-.1,.3-.1,.4,.2,.5,.3,0,.6,.2,.7,.6-.2,1.1-.7,2-1.3,2.9-.6,.4-.5,1.3-1,1.7-.1,0,0,0,0,0-1.1-.1-2.3-.1-3.4-.4-.3-.3-.2-.7-.1-1,.2-.9,.3-1.9,.5-2.8,0,0,0,0,0,0-.2,1.2-.4,2.4-.7,3.6-1.2,.8-2.5,.5-2.7-.7-.4-1-.7-2.1-1-3.1-.1-.6,0-1.1-.3-1.7-.1-.3,0-.6,.4-.7,1.3-.2,2.4-.8,3.7-.9,0,0,.2,0,.3,0,0,.3,0,.5,.2,.7-.1,.5,.2,.9,.4,1.3,0,0,0,0,0,0,0,0,0,0,0,0Z"/>
    <path class="cls-74" d="M16,.9c1.3-.5,2-.3,3,.8,0,0,0,.2,0,.3,.3,1.2,.6,2.4,.6,3.6,0,.8,.5,1.5,.8,2.2,.2,.5,.4,.9,.3,1.4,0,.7,0,1.4,.7,1.9,0,0,.1,.2,.1,.2,0,1.1,.8,.9,1.5,.9,.3,0,.5,0,.7,.2-.3,.8-1.1,.3-1.5,.6-.8,.2-1.7,.4-2.5,.4-.5,0-.8-.5-1.2-.8,0,0-.2-.3-.2-.3,.7-1-.2-1.8-.4-2.7-.1-.7-.2-1.4-1-1.8-.4-.2-.2-.9-.2-1.4,0-.8,0-1.6-.7-2.2-.4-.3-.5-.8-.2-1.2,.3-.4,.3-.7-.2-1-.9-.5,.2-.8,.2-1.2Z"/>
    <path class="cls-74" d="M45.7,2.9c.2,0,.3,0,.4,.2,0,.4,.6,.6,.4,1.1-1.2,.5-1.5,1.4-1.5,2.6,0,.5-.1,1-.7,1.1,0,0-.2,0-.2,.1-.3,1.1-1.5,1.9-1.3,3.2,0,.5,0,.9-.5,1-.5,.2-.6,.6-.6,1.1,0,.6-.1,1.2-.7,1.5,0,0-.2,.1-.2,.1-.3,0-.5,0-.8-.1,0,0-.2,0-.2-.1-.4-.2-.8-.4-1.3-.6-.2,0-.4-.2-.3-.5,1.2-.5,1.3-1.8,1.9-2.8,.2-.4,.3-.8,.9-.9,.3,0,.2-.5,.3-.7,.3-1.5,1.2-2.7,1.9-4.1,0-.1,.2-.3,.3-.4,.6-.8,.5-1-.4-1.3,.3-.3,.6-.5,1-.6,.6-.1,1.2-.1,1.8,0Z"/>
    <path class="cls-115" d="M40.6,14.8c0,0,.1,0,.2,0,.9-.2,1.3-.8,1.5-1.6,0-.1,0-.3,.1-.4,1.2-1,1.1-2.8,2-4,.9-1.3,1.6-2.7,2-4.3,0-.2,.2-.4,0-.6-.2-.2-.5-.4-.4-.8,1,.5,1,1.5,1.1,2.4,0,1.3,0,2.6,0,3.9h0c-.2,.1-.1,.3-.2,.5,.1,.9-.6,1.4-.9,2.1-.6,1.4-1.4,2.8-2.2,4.1-.3,.4-.5,.6-.9,.3-.2-.1-.5-.2-.7-.3-.6-.3-1.3-.5-1.5-1.2Z"/>
    <path class="cls-3" d="M16,.9c.2,.5-.4,.5-.4,.9,.2,.3,1-.2,1,.5,0,.3,0,.5-.3,.8-.7,.5-.1,1.1,.2,1.2,.8,.3,.6,.8,.7,1.4,0,.5,0,.9,0,1.4,0,.4-.2,.9,.6,.8,.3,0,.4,.3,.4,.6,.1,1.1,.4,2.1,1,3,.5,.7-.3,.6-.6,.9,.5,.3,.6,.8,1.2,1,0,.1,0,.2,0,.3-.3,.2-.6,.3-1,.3-.3,0-.5,0-.8,0-.4,0-.7-.1-.8-.5,0-.4-.1-.8-.2-1.3,0-.5-.2-.8-.6-1-.6-.3-.6-.7-.3-1.3,.1-.3,.4-.5,.1-.8-.9-1.2-.7-2.8-1.4-4.1-.5-.9,0-2.1,.3-3.1,.1-.5,.5-.8,1-.9Z"/>
    <path class="cls-93" d="M34.1,20.9c0-.5-.4-.4-.7-.4-.6,0-.8-.3-.3-.8,.1-.1,.5-.2,.3-.5-.1-.2-.4-.2-.6-.2-.6,0-1.1,0-1.7,0-.3,0-.5,0-.6,.4-.2,1.2-.6,.7-1,.2,.4-1.2,1-2.2,1.6-3.3,.7-.4,1.5,0,2.2,0,.3,.1,.7,.1,1.1,.2,.7,.3,1.5,.3,2,.9,0,.2,0,.4,0,.6-.6,.9-1.3,1.9-1.9,2.8-.1,.2-.3,.3-.5,.2Z"/>
    <path class="cls-35" d="M23.8,12.5c-.3,0-.5,0-.8,0-.2-.9-.3-1.9-1.1-2.6-.2-.2,0-.5,0-.8,0-.5,0-1-.3-1.5-.3-.4-.2-.8,0-1.2,.3-.3,0-.9,.5-1,.5,0,.5,.5,.8,.8,.1,.1,.2,.3,.3,.3,1.4,1.8,2.5,3.8,3.4,5.9-1,.4-1.9,.4-2.9,0Z"/>
    <path class="cls-113" d="M33.4,12.6c.9-1.3,1.8-2.6,3-3.7,.8-.9,1.8-1.7,2.7-2.5,.4-.4,.6-.2,.7,.3,0,.6,0,1.1-.3,1.7-.4,1-1.2,1.8-1.3,3,0,.7-.5,1.3-1.1,1.7-.6,.4-1.3,0-1.9,0-.6,0-1.3,0-1.8-.5Z"/>
    <path class="cls-43" d="M23.8,12.5c1,0,1.9,0,2.9,0,.7,1.2,1.2,2.5,1.6,3.9,0,0-.2,0-.3,0-.9,0-1.7,0-2.6,0-1.3,0-1.6-.2-2.1-1.5-.1-.3-.3-.7-.3-1,0-.7-.3-.9-.8-1.1,.5-.4,1.1,0,1.6-.4Z"/>
    <path class="cls-42" d="M15,1.9c0,.8,0,1.6-.2,2.4-.2,.9,.6,1.4,.8,2.2,.2,1,.2,2.1,1,3-.8,.9-.5,1.4,.5,1.9,.4,.3,.2,1,.3,1.6,0,.9,.4,.9,1.1,.8,.1,0,.3,0,.4,0-.2,.7-.9,.6-1.4,.8-.1,0-.3,0-.4,0-1,.2-1.2,0-1.2-1,0-.6,0-1.1-.7-1.4-.5-.2-.5-.7-.5-1.2,0-1.1,0-2.2-.2-3.3,0-.4-.5-.6-.4-1,0-.4,0-.8,.2-1.2,.1-.4,.2-.9,.1-1.3,.1-.8,.3-1.5,.7-2.2Z"/>
    <path class="cls-93" d="M28.1,16.3c0,0,.1,0,.2,0,.2,.5,.5,1,.4,1.6-.6,.3-1.1,.4-1.8,.4-.8,0-1.4,.8-2.3,.6-.2,0-.3,.3-.2,.5,.6,.9,.4,2,.7,2.9,.2,.5,.1,1,.7,1.3,.2,0,0,.3,0,.5-.3,0-.4-.2-.6-.3-.3-.5-.4-1.1-.5-1.7-.4-1.5-.9-3-1.6-4.4-.3-.5-.5-1,.2-1.4,1.6-.2,3.3,0,4.9,0Z"/>
    <path class="cls-2" d="M42.9,3.5c.3,.2,.7-.5,.9,0,.2,.4,.3,.8-.2,1.2-1,1-1.3,2.4-2.1,3.6-.3,.4-.6,1.3,0,2.1-.9-.5-1.1-.2-1.3,.6-.3,.9-.8,1.7-1.3,2.5-.2,.3-.5,.2-.8,.2,0,.1-.2,.1-.4,.1-.3,0-.5,0-.8-.2,0,0,0-.1,0-.2,0,0,.1-.1,.2-.1,1.1-.4,1.8-1,1.8-2.3,0-.9,.2-1.9,1.2-2.4,.2-.1,.3-.4,.3-.6,0-.9,.7-1.6,.8-2.4,.1-.6,.8-.3,1-.7-.4-.4-.8,.6-1.2,0,.6-.5,1.2-1,1.9-1.3Z"/>
    <path class="cls-62" d="M41,4.7c.4,.3,.5-.2,.8-.3,.2,0,.4-.4,.6-.2,.3,.2,.2,.6,0,.9,0,.2-.3,.4-.5,.3-.5-.4-.5,0-.6,.3-.3,.9-.8,1.8-.8,2.8,0,0,0,.2-.2,.2-1.3,.3-1.2,1.5-1.3,2.5-.1,1.5-.7,2.1-2.2,2.1-.5,.3-1,0-1.5-.1,0,0-.1-.2,0-.3,.2,0,.3,0,.5,0,.4-.1,.9,.5,1.3,0,.5-.6,1.1-1.2,1-2.1,0-.4,0-.7,.4-.9,.4-.2,.5-.5,.4-.9,0-.2,0-.4,.1-.5,.8-.5,.4-1.4,.6-2.2-1.2,1-2.2,1.9-3.2,2.7,1.3-1.7,2.9-2.9,4.6-4.2Z"/>
    <path class="cls-105" d="M14.3,4.1c.4,.7,0,1.5,0,2.2,0,.9,.6,1.6,.7,2.5,0,.9-.2,1.7,0,2.5,0,.4,0,.8,.5,.8,.8,0,.8,.6,.8,1.1,0,1.3,0,1.3,1.3,1.1-.1,.7-.7,.6-1.2,.8-.1,0-.2,0-.3,0-.9,0-.9-.8-1-1.4,0-.3,0-.6,0-.9-.1-.4-.4-.7-.9-.6-.2-1.2,0-2.3-.2-3.5,0-1.5,.3-3,.6-4.5Z"/>
    <path class="cls-4" d="M35.3,12.9c0,0,0,.1,0,.2-.5,.3-.8,.8-1.3,1.1-.5,.4-.6,1.1-.1,1.7,.1,.1,.3,.3,.1,.5-.1,.1-.4,.1-.5,0-.8,0-1.5-.1-2.3-.2,.6-1.3,1.4-2.4,2.2-3.5,.6,0,1.3,.1,1.9,.2Z"/>
    <path class="cls-68" d="M23.3,6.6c-.6,0-.6-.8-1.1-1-.5,.1,.2,.8-.4,.8-.5,0-.8-.4-.7-.7,0-.8-.3-1.3-.7-1.9,0-.1,0-.3,0-.4,0,0,.2,0,.2,0,1,.9,1.9,2,2.5,3.1Z"/>
    <path class="cls-108" d="M13.7,8.6c.3,1.2,0,2.3,.2,3.5,0,.4,.1,.9-.2,1.3,0-1.6-.1-3.2,0-4.8Z"/>
    <path class="cls-63" d="M47,9.4c0-1.3-.1-2.6,0-3.9,.1,1.3,.3,2.6,0,3.9Z"/>
    <path class="cls-74" d="M20.8,3.5h-.3c-.7-.4-1.3-.9-1.6-1.7,0,0,0,0,0,0,.7,.5,1.3,1.1,1.8,1.8Z"/>
    <path class="cls-93" d="M29.4,19.8c0,.2-.2,.3-.3,.1-.2-.4-.5-.7-.8-.9,.1-.3,.5,0,.6-.3,.3,.3,.1,.9,.5,1.2Z"/>
    <path class="cls-106" d="M45.7,2.9c-.6,0-1.2,0-1.8,0,.6-.3,1.2-.3,1.8,0Z"/>
    <path class="cls-8" d="M46.8,9.7c0-.2,0-.3,.2-.4,0,.5,0,1,0,1.6,0,0-.1,0-.2,0-.1-.4-.2-.8,0-1.2Z"/>
    <path class="cls-85" d="M6.1,43.5v-.8c.3,.3,.1,.5,0,.8Z"/>
    <path class="cls-50" d="M47,53.8c-.3,0-.7-.1-1-.2,.3-.4,.7,0,1,0,0,0,0,.1,0,.2Z"/>
    <path class="cls-85" d="M6.2,41.5c.2,0,.4,0,.4,.3,0,0,0,.1-.1,.1-.2,0-.2-.3-.3-.4,0,0,0,0,0,0Z"/>
    <path class="cls-93" d="M22.3,47.6c.4,.4,0,1,.5,1.5-.3-1,0-1.9-.4-2.9,.4,.3,.6,.5,.8,.7,.3-.2,.2-.7,.6-.9,.5,.6,.2,1.3,.3,2,0,1.5,.4,1.8,1.9,1.8,1.7,0,3.5,0,5.2,0,.8,0,1.3-.4,1.4-1.1,.1-.7,.1-1.5,0-2.2,0-.6-.6-.8-1.1-.8-1.1,0-2.1-.1-3.2-.4-.1,0-.1-.2,0-.3,1.3,0,2.5,.1,3.8,.2,.4,0,.6,.3,.9,.5,.3,.2,.3,.7,.8,.7,.2,.2,.2,.5,0,.7-.3,.5-.3,1-.4,1.6-.1,1.2-.7,1.8-1.9,1.9-.5,0-.9,0-1.3,.2-.8,0-1.7,0-2.5,0-.3,0-.8-.1-.5,.5,0,.1,.2,.2,.2,.3,.2,.2,.5,.4,.5,.8-.6,.5-1.3,.5-1.8-.2-.3-.3-.6-.3-.9-.2-1.1,.5-1.9-.1-2.7-.8-.4-.4-.6-.3-.9,0-.3,.3-.7,.5-.9,.3-.8-.7-1.5-.5-2.2,0,0-.6,.2-.8,.6-.8,.4-.4,1-.2,1.5-.4,.3,0,.5-.3,.7-.5,.2-.3,.5-.5,.6-.9,.2-.4,0-1,.4-1.3Z"/>
    <path class="cls-93" d="M30,50.7c.2-.7,.7-.4,1.1-.4,1.5,0,2-.5,2-1.9,0-.8,.5-1.3,.6-2,1-.8,.7,.3,.9,.6,.2,.3,.1,.6,.1,.8,0,1.8,.7,2.6,2.5,2.6,.2,0,.4,0,.6,0,.4,0,.5,.2,.5,.5,0,.2,0,.4-.1,.4-.2,0-.4-.1-.6-.3-.4-.4-.9-.3-1.2,0-.5,.4-1.1,.5-1.7,.4-.9-.1-2.1,0-2.6,.5-.7,.7-1.3,.6-2,.6-.4,0-.8,0-1.1-.4-.2-.3,0-.5,.2-.7,.1,0,.2-.2,.3-.2,.2-.2,.3-.5,.5-.6Z"/>
    <path class="cls-98" d="M37.9,50.5c-1.8,.7-3.4-.5-3.3-2.5,0-.3,.1-.7,.2-1,.2-.2,.4-.4,.6-.6,.3-.1,.6,0,.7,.3,.2,.4,.3,.9,.9,1,.5,0,.8-.3,.9-.8,.2-.7,.6-.4,1-.2,.2,.3,.4,.6,.6,1,.1,1.3-.3,2.4-1.6,2.9Z"/>
    <path class="cls-79" d="M29.5,51.6c-.2,.1-.4,.3-.4,.6-.3,0-.4,.3-.5,.4,0,0-.2,0-.3,0-.1-.1-.2-.2-.4-.3-.2-.2-.4-.4-.6-.6,0-.1-.1-.3,0-.3,.4-.4,1.8-.2,2.2,.3Z"/>
    <path class="cls-103" d="M25.8,55.3c-1.1-.3-2-.9-2.9-1.7,1.2,.4,2.2,1.1,3.3,1.5,0,.2-.3,0-.4,.2Z"/>
    <path class="cls-103" d="M30.6,55.1c1.1-.4,2.1-1,3.1-1.6-.6,1-1.6,1.5-2.7,1.8-.1-.1-.4,0-.4-.2Z"/>
    <path class="cls-13" d="M25.8,55.3c.1,0,.3-.1,.4-.2,1.1,.2,2.2,.3,3.3,.2,.1,.1,.4,0,.5,.2-.3,.2-.7,.2-1.1,.1-.3-.1-.6-.1-1,0-.7,0-1.5-.1-2.1-.4Z"/>
    <path class="cls-5" d="M21.5,49.9c-.1,.3-.3,.5-.6,.5-.7,0-1.5,.1-2.2-.1h0s0,0,0,0c-.1-.1-.1-.3,0-.4,.8-.4,1.7-.1,2.6-.2,.2,0,.3,.1,.4,.3Z"/>
    <path class="cls-110" d="M18.5,49.9c0,.1,0,.3,0,.4-1.1-.6-1.2-1.6-1.2-2.7,0-.1,.1-.3,.2-.4,.4,.5,.1,1.3,.6,1.8,.2,.3,.4,.6,.3,.9Z"/>
    <path class="cls-110" d="M18.6,50.3c.7,0,1.5-.2,2.2,.1-.6,.3-1.2,.2-1.8,.2-.2-.1-.3-.2-.5-.4Z"/>
    <path class="cls-72" d="M28.3,52.6c0-.1,.2-.1,.3,0,0,.8,0,1.5,0,2.3,0,0-.2,0-.3,0v-2.3Z"/>
    <path class="cls-11" d="M29.9,55.6c-.2,0-.4,0-.5-.2,.4,0,.7-.2,1.1-.2,.1,0,.3,.1,.4,.2-.3,.2-.7,.3-1.1,.3Z"/>
    <path class="cls-29" d="M27.9,55.7c.3-.3,.6-.3,1,0-.3,0-.6,0-1,0Z"/>
    <path class="cls-80" d="M28.3,45.2c1.2,0,2.3,.1,3.5,.2,.8,0,1.2,.4,1.2,1.2,0,.8,0,1.6-.1,2.3-.2,.8-.6,1.2-1.4,1.1-2,0-4,0-6,0-1,0-1.5-.5-1.6-1.5,0-.9,0-1.7,0-2.6,.2-.2,.4-.4,.6-.6,1.3-.2,2.6-.2,3.9-.2Z"/>
    <path class="cls-89" d="M18.2,49.1c-.9-.4-.5-1.3-.6-2,.4-1.1,1.2-1.4,2.2-1.5,1,.2,2,.4,2.3,1.5,.2,.7,.1,1.3,0,2-.2,.3-.4,.5-.6,.8,0,0-.1-.1-.2-.2-.1-.2-.1-.4-.3-.5-.9-.8-1.6-.8-2.6,0,0,0-.2,0-.3,0Z"/>
    <path class="cls-48" d="M38.8,46.6c-.2,.4-.7-.5-.8,.2-.7-.6-1.4-.6-2.1,0-.1-.3-.4-.3-.6-.5,.8-.9,1.8-.6,2.7-.6,.2,.3,.7,.3,.8,.8Z"/>
    <path class="cls-93" d="M28.3,45.2c-1.3,.2-2.6,.1-3.9,.2,0-.1,.2-.2,.4-.2,1.2,0,2.3-.2,3.5-.2v.2Z"/>
    <path class="cls-5" d="M22.1,49.1c0-.7,0-1.3,0-2,0,.1,.2,.3,.2,.4-.1,.5,.2,1.1-.2,1.6Z"/>
    <path class="cls-69" d="M36.6,37.5c.1,0,.3,0,.3,.2,0,.3-.1,.3-.3,.3-.2,0-.2,0-.2-.2,0-.2,0-.3,.3-.4Z"/>
    <path class="cls-55" d="M31.2,34.5c.4,0,.8-.2,1.2,.2-.4,0-.8,.1-1.2-.2Z"/>
    <path class="cls-27" d="M17.8,62.6c-.4,0-.5-.4-.7-.7,0,0,.2-.2,.4-.2,.5,0,.5,.5,.7,.7,0,0-.1,.2-.3,.3Z"/>
    <path class="cls-41" d="M34.1,20.9c.9-1.1,1.6-2.3,2.4-3.5,.6-1.1,1.6-1.9,2.5-2.7,.2-.2,.5-.2,.8,0h0c.4,.3,.5,.7,.4,1.1,0,1.1-.3,2.2-.7,3.2-.7,1.1-.9,2.4-1.4,3.5-.4,.9-.8,1.9-1.4,2.7h0c-.2,.2-.2,.6-.4,.8,0,0-.1,.1-.2,.2,0,0,0,.1,0,.2-.2,.3-.3,.7-.6,1-.2,.2-.4,.4-.6,.6-.3-.9,.5-1.4,.7-2.1,.4-.6,.3-1.2,.3-1.8,.1-.4,.6-.6,.8-1-.8-.4-1.6-.9-2.2-1.6-.5,.5-.6,1.2-.9,1.7-.4,.6-.5,1.4-1,1.9-.1,.2-.3,.4-.6,.4-.1,0-.2,0-.2-.1,.1-.6,.3-1.2,.7-1.7,.6-.8,.9-1.8,1.3-2.7Z"/>
    <path class="cls-36" d="M39.6,18.9c-.2-.7,.2-1.4,.3-2.1,.1-.7,.2-1.4,0-2.1,.3,0,.5,.1,.8,.2,.5,.4,1,.8,1.6,1,.3,.3,1,.3,1,1-1.2-.3-1.4-.2-1.6,1-.1,.8-.8,1.1-1.2,1.5-.3,0-.5-.3-.8-.4Z"/>
    <path class="cls-58" d="M36.9,25.1c.3-1,.8-1.9,1.4-2.7-.2,1-.7,2-1.4,2.7Z"/>
    <path class="cls-58" d="M36.5,25.9c0-.3,.2-.6,.4-.8,0,.3,0,.7-.4,.8Z"/>
    <path class="cls-116" d="M49.2,54.4c-.2,.4,0,.8-.2,1.2-.6,0-1.1,0-.6-.8,0-.1,0-.4-.1-.5,.2,0,.4,0,.6,0,0,.2,.2,.2,.4,.2Z"/>
    <path class="cls-92" d="M21.6,25.7c-.3-.3-.2-.9-.6-1.1,0,0-.2,0-.2,0-.5-1-1.1-2.1-.8-3.3-.1-1.1-.3-2.2-.4-3.2,0-.2-.2-.3-.3-.3,0-1-.2-1.9,0-2.9,0-.5,0-1,.5-1.3,.5-.3,1,0,1.3,.4,.7,.8,1.3,1.6,1.6,2.7,.1,1.2,.9,2,1.3,3.1,.1,.5,.4,.9,.4,1.5,0,0,0,.2-.2,.2-.5-.1-1,.1-1.4,.4-.8,.4-1.6,0-1.7-.8-.1,1,.4,1.7,.5,2.4,.1,.8,.6,1.6,.4,2.5,0,0-.2,.1-.3,0Z"/>
    <path class="cls-95" d="M20.1,21.2c.2,1.2,.6,2.2,1,3.3,0,.4,.1,.8,.2,1.1-.5,.6-.7,.2-1-.2-.3-.3-.2-1.1-1-.8-.6,.4-1.2-.1-1.9,0-.4,.1-.5-.5-.6-.9,0-.5,.3-.5,.7-.5,.5,0,.8-.1,.8-.7,0-.3,.1-.5,.4-.4,.8,.2,1-.6,1.4-1Z"/>
    <path class="cls-75" d="M19.9,13.5c-.5,1.1-.5,2.3-.3,3.4,0,.4,0,.6-.3,.8-.3,0-.5,.2-.8,.2-.3-.1-.4-.3-.4-.6,0-.5,0-.8-.6-.8-.2,0-.3-.1-.3-.3,.2-.9-.6-.9-1-1.3,.4-.3,.8-.5,1.2-.8,.5-.1,.9-.3,1.4-.6,.3,0,.6-.1,1-.2,0,0,.2,0,.2,0Z"/>
    <path class="cls-75" d="M17.8,18.3c-.2-.1-.2-.3,0-.4,.2-.1,.3,0,.4,.3-.1,0-.3,.1-.4,.2Z"/>
    <path class="cls-102" d="M34.9,28.5c0,.2,0,.3,0,.5-.4,1-.4,1,.7,.9,.9,0,1.8-.3,2.8-.3,.4,0,.5,.1,.6,.5-.1,.3-.3,.5-.6,.6-1.5,.3-3,.4-4.5,.2,0-.1-.1-.3-.1-.4,0-.5,.4-.9,.6-1.3,.2-.2,.3-.6,.7-.6Z"/>
    <path class="cls-33" d="M33.8,30.6c1.2,0,2.3,0,3.5-.1,.3,0,.7-.2,1,.1,0,0,0,.1,0,.2-.4,.3-.8,.7-1.2,1-.6,0-1.2,0-1.8-.2-.4-.1-.8,0-1.2,.2-.4,.3-.8,.3-1.2-.1,0,0,0-.2,0-.3,.3-.3,.3-.8,.9-.7Z"/>
    <path class="cls-105" d="M43.1,16.8c-.2-.5-.8-.5-1-1,0,0,0,0,0,0,.5,0,.9,.8,1.2,.3,.2-.3,.4-.8,.7-1.1,.6-1,1.1-2.1,1.6-3.1,.4-.7,.9-1.4,1.1-2.2,0,.4,0,.8,0,1.2-.1,.4-.3,.9-.4,1.3-.2,1.2-.8,2.3-1.4,3.3-.2,.4-.4,.7-.3,1,.2,.9-.1,1-.8,.7-.2-.1-.5-.3-.7-.4Z"/>
    <path class="cls-25" d="M29.9,32.9c0-.3,0-.6,0-1-.2-.1-.2-.3-.1-.5,0,0,0-.2,0-.3,.1-.2,.3-.4,.4-.6,.6-1.2,1.6-1.7,2.8-1.2,1,.4,.3,1,.2,1.5,0,.1-.1,.3-.2,.4h0c0,.1-.1,.2-.2,.3-.2,.3-.5,.7-.7,.9-.2,0-.3,.2-.5,0-.2-.4,0-.7,.2-1-.7,0-1.3,.2-1.5,1,0,.1-.2,.3-.4,.2Z"/>
    <path class="cls-83" d="M31.6,32.7c.1,0,.3-.1,.4-.2,.9,0,1.9,.3,2.7-.2,.3-.2,.6,0,.9,.2,.2,.2,0,.3-.1,.5-.2,.6-1.1,.6-1.4,1.2,0,0,0,0,0,0,0,0,0,0,0,0-.5-1.1-1.4-.4-2-.2-.6,.2-.7,0-1-.4,0-.4,.2-.6,.6-.8Z"/>
    <path class="cls-59" d="M26.5,30.6c0,.7,0,1.4,0,2.1-.4,0-.3-.3-.4-.5,0-.5-.2-.9-.3-1.4-.2-1-.6-1.2-1.4-.5-.2,.1-.3,.3-.4,.4-.6-.3-.7-1-.8-1.6,.2-.4,.7-.4,1-.4,.5,0,1.1,0,1.6-.3,.4,.2,.6,.6,.8,1.1,0,.4,.3,.8,0,1.2Z"/>
    <path class="cls-22" d="M26.5,30.6c0-.4-.1-.8-.2-1.2,0-.3-.1-.5,0-.8,.3,0,.4,.1,.4,.3,.2,.9,.8,1,1.6,1,.6,0,1.2,0,1.7,.4,.3,.4-.1,.7-.2,1.1h0c-.6,0-1.1,0-1.7,0,0,0-.1,0-.2,0-.6,.6-.8,.6-1.2-.2,0-.2,0-.4-.2-.6Z"/>
    <path class="cls-112" d="M31.6,32.7c-.2,.3-.4,.5-.6,.8-.3,.2-.6,.6-1,.3-.3-.2-.5-.5-.2-.8,.3-1.1,1.1-1.5,2.3-1.5-.1,.4-.6,.8-.5,1.3Z"/>
    <path class="cls-26" d="M26.3,32.2c0,.2,0,.4,.2,.6,0,.1,0,.3,0,.4,0,.3,0,.8-.3,.9-.5,.2-.7-.2-.9-.5-.1-.2-.2-.4-.3-.6-.2-.3-.4-.5-.4-.9,.7-.8,1.2-.7,1.7,.1Z"/>
    <path class="cls-90" d="M24.8,32.2c0,.3,.1,.5,.2,.8-.1,0-.3-.1-.4-.2,0,0-.1-.1-.2-.2-.3-.3,0-1-.6-1.2-.4-.7-.4-1.6-1-2.2-.2-.8-.5-1.6-1-2.4,0-.4-.1-.8-.2-1.1,0,0,.1,0,.2,0,.3,.2,.4,.6,.5,.9,.1,.3,.3,.7,.4,1,.2,.5,.5,.9,.4,1.4,.2,.5,.3,1.2,.8,1.6,.4,.4,.6,1,.8,1.6Z"/>
    <path class="cls-16" d="M28.1,31c.1,0,.3,.3,.4,.2,.5-.5,1,0,1.4,.1,0,.2,0,.4,0,.6-.2,.1-.2,.4-.2,.6-.6,.2-1.1,0-1.5-.3-.3-.4-.3-.8,0-1.2Z"/>
    <path class="cls-7" d="M28.3,32.2c.5,.1,.9,.3,1.4,.4,0,.7-.7,.8-1.2,1-.6-.4-.5-.9-.2-1.4Z"/>
    <path class="cls-15" d="M26.7,31.2c.5,.6,.9,.7,1.2-.2,.1,.5,.1,1,.1,1.4-.6,.6-.7,.6-1.3-.3,0-.3,0-.6,0-1Z"/>
    <path class="cls-30" d="M26.7,32.2c.4,.1,.6,.8,1.2,.4,.2,.3,.2,.5,0,.8-.4,.3-1.1,.2-1.2-.2,0-.3,0-.6,0-.9Z"/>
    <path class="cls-60" d="M27.9,33.3c0-.3,0-.5,0-.8,0-.5,0-1,0-1.6,0,0,.1,0,.2,0,0,.4,0,.8,.2,1.2,0,.5-.2,1,.2,1.4,0,.1,.2,.7-.4,.3-.1,0,0-.4-.2-.5Z"/>
    <path class="cls-58" d="M35.7,27.3c0-.4,.2-.7,.6-1,0,.5-.3,1-.6,1.4,0-.1,0-.3,0-.4Z"/>
    <path class="cls-78" d="M34.9,28.5c-.2,.2-.4,.4-.6,.6,0,0-.1-.1-.1-.2,0-.4,.3-.8,.4-1.2,.2-.6,0-.9-.7-.9-.7,0-1.4,.2-2.2,.2-.1-.7,.3-1.1,.6-1.6,0-.2,.2-.3,.4-.4,.7,.8,1.5,.9,2.5,.5,.4-.2,.7,.1,.8,.5-.4,.6-.8,1.2-1,2,0,.2-.1,.4-.2,.6Z"/>
    <path class="cls-18" d="M35.5,32.9c-.1-.6-.5-.7-.9-.3-.8,.7-1.7,0-2.5,.2,0,0,0-.2,0-.3,.2-.4,.4-.8,.8-1,.3,.6,.8,.4,1.3,.3,.7-.2,1.3-.3,2-.2,.4,0,.7,.2,.5,.7-.3,.2-.5,.4-.8,.6,0,0-.1,0-.2,0Z"/>
    <path class="cls-10" d="M36.5,32.4c-.1-.8-.7-.6-1.2-.5-.6,0-1.3,.2-1.9,.3-.5,0-.7-.1-.6-.6,0,0,.1-.1,.2-.2,.3,.4,.6,.5,1,.2,.4-.4,.8-.5,1.2-.2,.6,.3,1.4,0,1.9,.5,0,0,0,.1,0,.2-.2,.1-.4,.3-.6,.4Z"/>
    <path class="cls-85" d="M28.5,24.9c1.2,0,2.3,.2,3.5,.4,0,0,0,0,0,.1,0,.4,0,.7-.3,1-.3,.3-.4,.7-.6,1.1-.1,.2-.3,.5-.5,.6-.8,.1-1.6,.3-2.4-.1-.4-1-.3-2,.2-3Z"/>
    <path class="cls-70" d="M25.4,23.8c.1,.1,.3,.3,.4,.4-.1,.8,.3,1.1,1,.9,.5-.1,.9,.3,1.4,0,.2,.9,0,1.8-.3,2.7-.7-.4-1.8-.4-2.1-1.4-.1-.8-.7-1.6-.3-2.5Z"/>
    <path class="cls-65" d="M27.7,27.7c.1-.9,.3-1.8,.4-2.7,.2-1.5,.4-3,1.1-4.4-.2,1.5-.5,2.9-.7,4.4,0,1-.3,1.9-.2,2.9,0,0,0,.2,0,.3-.2,.4-.5,.5-.8,0,0-.2,0-.4,.1-.5Z"/>
    <path class="cls-85" d="M32.8,23.6c-.2,.6-.4,1.2-.6,1.7,0,0-.1,0-.2,0,0,0,0,0,0,0,.1-.6,.2-1.3,.8-1.7Z"/>
    <path class="cls-99" d="M18.9,1.7c.5,.6,1,1.2,1.6,1.7,0,.3,.3,.5,.4,.6,0,.5,1.1,.6,.4,1.3-.1,.1,.2,.8,.6,1-.2,.4-.5,.9,.2,1.2,.2,0,.2,.3,.2,.4-.4,1.2,.3,2.1,.8,3,.2,.5,.2,.9,0,1.4-.3,0-.6,0-1,0-.5,0-.9,0-.6-.7,.1-.3,0-.7-.4-.8-.6-.1-.6-.6-.6-1,.2-1.3-.4-2.4-1-3.5-.4-.8,0-1.7-.3-2.6-.2-.6-.2-1.3-.5-2,0-.2,.1-.2,.2-.2Z"/>
    <path class="cls-82" d="M19.9,13.5c0,0-.2,0-.2,0,0,0,0-.1,0-.2,.8-.1,1.7-.3,2.5-.4,.8,0,1.1,0,1,1,0,.8,.5,1.5,.9,2.2,.2,.3,.5,.1,.7,.1,1.1,0,2.2-.2,3.2,.2-1.7,0-3.4-.1-5.1,.2-.2,.1-.4,.2-.6,0-.3-1-1-1.8-1.6-2.7-.2-.3-.5-.5-.9-.4Z"/>
    <path class="cls-1" d="M46.4,3.9c.6,.7-.1,1.3-.2,2-.3,1.7-2,2.9-2.3,4.6-.2,1.4-1.3,2.2-1.6,3.4-.2,.7-.7,1.2-1.5,.9-.2-.6,.8-.4,.6-1.1-.1-.4,0-.9,0-1.4,0,0,0-.2,0-.2,1.6,0,.8-1.4,1-2.1,.1-.4,.2-.8,.6-1,.2-.1,.5-.3,.4-.6,0-.7,.1-1.1,.9-1,.2,0,.3-.2,.3-.3-.3-1.1,.5-2.1,.7-3.2,.3,.1,.8,.5,1.1-.2Z"/>
    <path class="cls-82" d="M39.8,14.6c-.8,0-1.1,.6-1.6,1.1-.6,.5-1.1,1.2-1.7,1.7-.7-.3-1.3-.5-2-.8,1-.2,1.6-.7,1.8-1.7,0-.3,.2-.5,0-.7-.3-.6,0-.8,.5-.7h0c.2,.3,.6,0,.8,.2,.1,0,.3,0,.4,0,.6,.4,1.3,.5,1.8,1Z"/>
    <path class="cls-88" d="M36.9,13.4c-.2,.2-.9,.3-.1,.7,.2,0,.2,.4,.1,.5-.6,.5-.5,1.4-1.2,1.9-.4,.3-.8-.1-1.2,0-.3,0-.7,0-.9-.2,0-.1,.6,.2,.3-.2-.7-1-.6-1.6,.5-2.4,.3-.2,.4-.9,1-.7,.5,0,1,.1,1.5,.2,0,0,0,.1,0,.2Z"/>
    <path class="cls-92" d="M25.4,23.8c0,.9,.3,1.7,.6,2.5,.1,.3,.2,.7,.4,1,0,.4,.1,.7,0,1.1,0,0-.2,.1-.3,.1-.4-.6-.5-1.3-.7-2,0-.3-.2-.7-.3-1-.1-1-.4-2-.8-2.9,0-.4-.4-.9,0-1.4h0c.6,0,.3,.7,.6,1,.2,.5,.4,1,.6,1.6Z"/>
    <path class="cls-91" d="M24.8,22.2c-.3-.2-.2-.8-.6-1,0-1.2-.6-2.2-1.1-3.2-.2-.5-.6-.9-.6-1.5,.2,0,.4,0,.6,0-.3,.4,0,.7,.2,1.1,.7,1.5,1.4,2.9,1.6,4.6Z"/>
    <path class="cls-88" d="M37.7,13.6c-.2,0-.7,.5-.8-.2,.3,0,.6,0,.8,.2Z"/>
    <path class="cls-9" d="M30,50.7c0,.3,0,.6-.4,.8,0,0,0-.1-.1-.1-.3-.2-2.1-.1-2.4,.1-.3-.2-.5-.5-.3-.8,.1-.3,.5-.2,.7-.2,.9,0,1.7-.2,2.6,.2Z"/>
    <path class="cls-114" d="M27.1,51.5c0-.3,.2-.6,.4-.6,.6,.2,1.2,0,1.9,0,.6,0,.2,.4,.3,.6,0,0-.1,.1-.2,.2-.7-.2-1.4-.4-2.1,0,0,0-.1-.1-.2-.2Z"/>
    <path class="cls-24" d="M35.9,46.8c.7-1.1,1.4-1.1,2.1,0,0,.7-.3,1.2-1.1,1.2-.7,0-.9-.6-1-1.2Z"/>
    <path class="cls-32" d="M35.7,48.7c1.3-.6,2-.5,2.7,.4-.1,.6-.7,.4-1.1,.4-.4,0-.8,0-1.1,0-.4-.1-.7-.3-.5-.8Z"/>
    <path class="cls-84" d="M35.7,48.7c0,.3,0,.6,.4,.5,.8,0,1.5,.2,2.3-.1,.2,.6,.1,.7-.4,.7-.6,0-1.2,0-1.7,0-.8,0-1-.4-.5-1.2Z"/>
    <path class="cls-84" d="M21.2,49.2c.4,.1,0,.4,0,.6-.9,.4-1.8,.1-2.7,.2-.2-.2-.4-.5-.4-.8,0,0,.1,0,.2,0,.9-.1,1.9-.1,2.8,0Z"/>
    <path class="cls-47" d="M26.7,49.4c.6,0,.8-.3,.8-.7,0-.5,0-1,0-1.5-.1-1,0-1.5,1.2-1.5,.9,0,1.8-.1,2.8-.1,.9,0,1.2,.5,1.1,1.4,0,.5,0,1,0,1.6,0,.8-.3,1.2-1.2,1.2-1.5,0-3,.1-4.7-.3Z"/>
    <path class="cls-53" d="M19.3,48c-.3-.2-.4-.5-.5-.8-.1-.5,.1-.9,.6-1.1,.4-.2,.8,0,1.1,.2,.3,.3,.4,.7,.1,1.1-.1,.2-.2,.3-.4,.4-.3,.2-.6,.1-1,0Z"/>
    <path class="cls-32" d="M21.2,49.2c-.9,.2-1.9,.3-2.8,0,.5-1.1,2.1-1.1,2.8,0Z"/>
    <path class="cls-5" d="M19.3,48c.3,0,.6,0,1,0-.3,.4-.6,.3-1,0Z"/>
    <path class="cls-49" d="M36.1,25.9c-.3-.2-.6-.4-1-.1-.5,.3-1.1,.1-1.7,.1-.6,0-.2-.8-.6-1,.3-.7,.7-1.3,1-2,1,0,1.7,.6,2.5,1,.2,.7,0,1.3-.2,1.9Z"/>
    <path class="cls-117" d="M36.3,24c-1,0-1.7-.7-2.5-1,.3-.7,.5-1.5,1.1-2.1,.4,.9,1.1,1.4,1.9,1.7,.7,.3,.8,.6,0,.9-.2,.1-.3,.3-.5,.4Z"/>
    <path class="cls-117" d="M32,25.3c0,0,.1,0,.2,0,0,0,.1,0,.2,0,.1,.6-.5,1-.6,1.6,0,.5,0,.9-.6,1-.2-.2-.1-.4,0-.6,.2-.3,.2-.7,.5-1,.2-.3,.3-.6,.4-1Z"/>
    <path class="cls-94" d="M24.4,22.6c.5,.9,.8,1.9,.8,2.9-.3,.9-1.1,.7-1.7,.6-.6,0-1,0-1.2,.6-.3-.3-.3-.6-.4-1-.2-.8-.4-1.7-.6-2.5,.6,0,1.3-.1,1.9,0,.6,0,.8-.5,1.2-.5Z"/>
    <path class="cls-23" d="M24.4,22.6c-.2,.6-.6,.9-1.3,.8-.6-.1-1.3,.3-1.8-.2-.2-.5-.4-1.1-.6-1.6,0-.4,0-.7,.5-.7,0,0,.4,0,.2,.1-.3,.2-.4,.3,0,.5,.4,.1,.9,.3,1.3,0,.5-.5,.9-.6,1.5-.2,0,.5,.1,.9,.2,1.4Z"/>
    <path class="cls-31" d="M34.3,28.8c0,0,0,.1,0,.2-.2,.4-.4,.8-.6,1.1-.3,.2-.2,.8-.8,.8,.4-1.4,.4-1.2-1-1.4-1.2-.2-1.2,.9-1.7,1.4-.2-.4,0-.9,0-1.3,.1-.4,.3-.8,.4-1.2,.1-.2,.2-.4,.5-.4,.9,.9,2,.8,3.1,.8Z"/>
    <path class="cls-10" d="M33,31c.3-.3,.5-.5,.8-.8,0,.1,0,.3,0,.4-.3,.2-.4,.7-.8,.8,0-.1,0-.2,0-.4Z"/>
    <path class="cls-16" d="M30.5,29.6c0,.5-.1,.9-.2,1.4-.1,.1-.2,.3-.4,.4,0-.3,.1-.7,.2-1-.2-.3,0-.5,.1-.8,0,0,.2,0,.3,0Z"/>
    <path class="cls-34" d="M23.2,29c-.3-.4-.5-.9-.6-1.4-.2-.3,0-.5,.2-.5,.9-.2,1.8-.3,2.6,.2,.4,.2,.5,.6,.4,1,0,0,0,0,0,.1-.7,.7-1.7,.3-2.5,.6Z"/>
    <path class="cls-104" d="M24.8,32.2c-.3-.5-.8-.9-.8-1.6,.1-.8,.8-.9,1.5-1,.3,0,.4,.1,.5,.4,.1,.7,.3,1.4,.4,2.1-.5-.4-1-.8-1.6,0Z"/>
    <path class="cls-34" d="M26,28.5c0,0,.1,0,.2,0,0,0,.1,.1,.2,.2,0,.3,0,.5,0,.8-.2-.3-.4-.6-.6-1h0c0,0,.1,0,.2,0Z"/>
    <path class="cls-14" d="M26.3,28.7c0,0-.1-.1-.2-.2,0-.4,0-.8,0-1.2,.2,0,.3,0,.3,.2,.2,.7,.7,.7,1.2,.8,.3,.2,.4,0,.6-.2,.7,.2,1.5,0,2.2,.2,0,0,.2,0,.2,.2,0,.4,0,.9-.4,1.2,0,.3-.1,.5-.2,.8-.7-.1-1.3-.3-2-.2-.9,.1-1.5-.2-1.5-1.2,0-.1-.1-.2-.2-.3Z"/>
    <path class="cls-20" d="M26,28.5c0,0-.1,0-.2,0,.1-.6-.2-1-.7-1-.8-.1-1.7-.5-2.4,.3-.3-.3-.3-.6-.4-1,0-.8,0-1.2,1.1-.8,.5,.2,1.3,.3,1.8-.3,.5,.9,.7,1.9,.8,2.9Z"/>
    <path class="cls-38" d="M34.3,28.8c-1,.6-2.8,0-3.1-.8,0,0,0,0,0-.1,0,0,0,0,0,0,.4-.2,.3-.7,.6-1,.9-.7,2-.3,3-.4,.4,0,.3,.5,.2,.8-.1,.5-.3,1.1-.6,1.5Z"/>
    <path class="cls-77" d="M30.6,28.5c-.6,0-1.1,0-1.7,0-.3,0-.6,0-.6-.4,0,0,0-.1,0-.2,.8,0,1.7,0,2.5,0,.2,.3,0,.4-.2,.6Z"/>
    <path class="cls-14" d="M30.6,28.5c0-.2,.1-.4,.2-.6,0-.2,.1-.4,.2-.6,0,0,.1,0,.2,0,0,.2,0,.4,0,.6,0,0,0,.1,0,.2-.1,.1-.2,.3-.4,.4,0,0-.1,0-.2,0h0Z"/>
    <path class="cls-77" d="M31.2,27.3c0,0-.1,0-.2,0,.2-.3,.1-.8,.6-1,0,.3-.1,.7-.4,1Z"/>
    <path class="cls-81" d="M27.7,28.3c-1.2,.7-1.2-.4-1.6-1-.2-.3-.2-.6-.2-1,.3,.2,.2,1,1,.5,.4-.2,.4,.6,.8,.8,0,.2,0,.4,0,.6Z"/>
    <path class="cls-22" d="M30.6,28.5c0,0,.1,0,.2,0,0,.4-.1,.8-.4,1.2,0,0-.1,0-.2,0,.1-.4,.3-.8,.4-1.2Z"/>
  </g>
</svg>