<svg xmlns="http://www.w3.org/2000/svg" xmlns:xlink="http://www.w3.org/1999/xlink" viewBox="0 0 40.4 43.2" xmlns:v="https://vecta.io/nano"><g fill="#edc500"><use xlink:href="#B"/><use xlink:href="#C"/><use xlink:href="#D"/><path d="M40.3 22.7c.2 0 .1.3.1.4-.6.3-1.2.4-1.8.6 0 0-.2 0-.3-.1a.45.45 0 0 0-.5 0c-.2 0-.6.2-.6 0 0-.4.4-.4.6-.6.4 0 .9 0 1.3.1V23c0-.3.3-.2.5-.3.2 0 .4.1.6 0z"/><use xlink:href="#E"/><use xlink:href="#F"/><path d="M36.8 24.4l-.2-.2c0-.1.1-.2.3-.2 0 0 .2 0 .3.1-.1 0-.2.1-.4.2z"/><use xlink:href="#G"/><use xlink:href="#H"/><path d="M33.6 19.6L33 19c-.2-.2-.6-.5-.1-.8.4.5.7 1 1.1 1.4-.2.3-.3.2-.4 0z"/><path d="M33.6 19.6c.1 0 .3.2.4 0l.4.4c0 .2 0 .6-.3.5s-.7-.4-.5-.9z"/><path d="M35.3 20.7c0 .3-.2.3-.4.3.2-.3-.8-.4-.1-.7.2.1.4.3.5.4zm4.4 2c-.2-.1-.6 0-.7-.4.4.2.9 0 1.3.4-.2.3-.4 0-.6 0zm-1.1-.4c-.2 0-.6.2-.6-.3.2 0 .4 0 .6.3zm-1.2-.6c0 .2-.2.1-.3 0 0 0-.2 0 0-.2a.76.76 0 0 1 .4.2zm-9.6 6.1c0-.1-.1-.2-.2-.4 0-.2-.2-.4-.4-.4l-1-1c0-.1-.1-.3 0-.4.7 0 1.1.5 1.5 1 .1.2.2.4.4.5.3.3.4.6.1 1H28c-.1 0-.2-.2-.3-.3z"/><use xlink:href="#I"/><use xlink:href="#J"/><use xlink:href="#K"/><use xlink:href="#L"/><path d="M28.7 28.6l-.1.1c-.1-.2-.3-.5-.4-.7h.1.3c.2.2.3.4.1.6zM22.9 22l-.2.2c-.6.1-1.1.5-1.8.5.1.2.6.2.3.6h-.5c-.2-.1-.5-.1-.5-.5s.4-.4.5-.4c.7-.2 1.4-.5 2.1-.4z"/><use xlink:href="#M"/><use xlink:href="#N"/><use xlink:href="#O"/><path d="M22.2 23.4v.3c-.2-.2-.5-.2-.7-.4.3-.2.5-.2.7.2zm11.7 3c0-.5.5-.6.5-1.1.3 0 0 .3.2.4h.3c-.3.3-.6.6-1 .9v-.1z"/><use xlink:href="#P"/><path d="M31.5 30.2l-.2-.2c.2-.5.3-1 .7-1.2 0 .5-.3 1-.6 1.4zm1.3-2.7l.2.2c-.2.3-.3.6-.6.8-.3-.4.3-.6.3-1h.1zm.8-.7l-.3-.3c.1-.2.4-.1.6-.1v.2c-.1 0-.2.2-.3.3zm1.3-1.1h-.3c.1-.1.2-.4.4-.1 0 0-.1 0-.2.1zm-7.4-7.4V18s.2-.2.2-.3c.3 0 .3-.3.4-.4 0 0 .2-.1.3-.1.5.4.1.7 0 1-.2.4-.6.4-.9 0z"/><path d="M28.3 17.5c-.2 0 0 .6-.4.3 0-.2.1-.3.3-.5l.2.2z"/><path d="M28.3 17.5l-.2-.2v-.2s.2-.1.3-.2c.1.1.1.3 0 .4l-.1.1z"/><use xlink:href="#Q"/><path d="M29.5 14.1h-.1c0-.5.2-.9.4-1.3.1 0 .2.1.2.2 0 .5 0 .9-.5 1.1z"/><path d="M29.9 13l-.2-.2v-.4c.2 0 .3-.5.6-.2-.1.2-.2.5-.4.6z"/><use xlink:href="#R"/><use xlink:href="#S"/><use xlink:href="#T"/><path d="M23.4 24.1c.6 0 1 .3 1.5.6 0 .1-.2 0-.3.1h-.3c-.2-.4-.7-.4-.9-.7zm2.2 1.3v-.2h.3c.2.1.4.2.4.4 0 0 .2.2 0 .3-.2-.2-.5-.4-.7-.6z"/><path d="M24.6 24.8c0-.1.2-.1.3-.1.1.3.7 0 .6.6-.3-.1-.6-.3-.8-.4zm2.7 2.2c.4 0 .4.2.4.4l-.4-.4z"/><use xlink:href="#U"/><path d="M24.9 21.3l.9-.7c.4-.3.6-.6.8-1.1h0c.2 0 .4-.2.4-.4l.3-.3c.3 0 .3.1.3.3-.1.5-.1 1.1-.4 1.5s-.6.7-1.1.6c-.2 0-.4 0-.6.1a.37.37 0 0 1-.6 0z"/><use xlink:href="#V"/><path d="M26.5 19.5c0 .6-.2 1-.8 1.1l-.2-.2c.3-.3.7-.6 1-.9zm.5-.5c.2.1.1.3 0 .4-.1.2-.3 0-.4 0 .1-.1.2-.3.4-.4zm4.4-3.9v.1c0 .3 0 .6.1.9-.3 0-.1-.3-.3-.3v-.6h.2zm7.2 7.8c.2 0 .4 0 .6.1h.3c-.5 0-1.1.3-1.6 0 .2 0 .5 0 .7-.1zm-.7.7v-.1c.3-.2.4 0 .5.1h-.5z"/><use xlink:href="#W"/><use xlink:href="#X"/><path d="M27.8 26.2c-.1 0-.1.2-.1.3l-1.1-.9c-.1 0-.2-.1-.3 0-.2 0-.3-.2-.4-.4.4-.3.1-.6 0-.7-.4-.3-.1-.5.1-.5.6 0 1.2-.2 1.8 0-.3.3-.8.1-1.1.2.5.3.6.2 1.1-.2.3.4.1.7-.3.7H27c-.2 0-.3.2-.3.3 0 .2.2.2.2.3.3.3.8.4 1.1.8zm-2.9-4.9h.6.3c.2.2.7 0 .7.3 0 .4-.5.2-.8.3h-.2l-.1-.1H25l-.1.1c-.4 0-.3-.2-.3-.4.1 0 .3 0 .4-.1z"/><use xlink:href="#Y"/><path d="M32.8 27.5h-.1c-.6 0-.4-.6-.3-.8.2-.5.6-.2.9 0 0 .3-.5.4-.4.8zm-3.3 2.1c-.3-.3 0-.7-.1-1 .6.6.6 1.3.4 2-.3-.3 0-.7-.2-1z"/><use xlink:href="#Z"/><path d="M33.9 25.4v.1s0 .1-.1.1c0 0-.2 0-.1-.1l.2-.1zm-9.2-3.5h0c.2-.2.5-.3.7-.1v.1h-.7zm6.7-4.8v.2l-.1-.1v-.1h.1zm-2.9 11c.1-.1.2-.3.5-.1.2.2.3.4.1.7h-.4c0-.2-.1-.4-.2-.6z"/><use xlink:href="#a"/><path d="M22.1 22.9l-.1-.1h.1.5c-.2.2-.3.1-.5.1zm9.1-8.4c-.7-.2-1-1-.5-1.6 0 .5.4.9.6 1.4v.1z"/><use xlink:href="#b"/><path d="M31.2 15.8c-.2-.2-.2-.5 0-.7v.7zm-3.5 8.3c0 .3 0 .5-.4.6-.4 0-.9.1-1.2-.3-.2-.2 0-.3.2-.3h1.3zm-2.3-2.4h-.7c.2 0 .5-.5.7 0z"/><use xlink:href="#B" x="-20.3" y="-12.1"/><use xlink:href="#C" x="-20.3" y="-12.1"/><use xlink:href="#D" x="-20.3" y="-12.2"/><use xlink:href="#c"/><use xlink:href="#E" x="-20.3" y="-12.2"/><use xlink:href="#F" x="-20.3" y="-12.2"/><path d="M16.4 12.3l-.2-.2c0-.1.1-.2.3-.2 0 0 .2 0 .3.1-.1 0-.2.1-.4.2z"/><path d="M16.5 12s-.2.1-.3.2c-.2-.2-.4 0-.5.2s.1.2.1.3l-1.1.8c-.2 0-.3.2-.5.2l-.2-.1c0 .4-.3.5-.5.8-.2.1-.4.1-.5.2 0 0-.2 0-.3.1-.2 0-.5-.3-.7.1-.1.3 0 .4.2.6.1.4-.4.6-.3 1 0 .1-.2.2-.3.3-.3.4-.4.8-.6 1.3-.2.8-.7 1.5-.9 2.3-.1.5-.4-.2-.7 0 0-.2 0-.3-.1-.5 0-.1.1-.2.2-.3.2-.2.4-.5-.1-.5-.2-.1-.2-.3-.2-.4.1-.7.1-1.3-.3-1.9v-.2c0-.4-.1-.8 0-1.2 0-.6-.2-.8-.7-.8h-.5c-.4-.2-.7-.4-1.1-.7-.2-.1-.5-.2-.4-.6 0-.3.4-.4.7-.5.2 0 .5 0 .5-.3l-.1-.1H5.7c0 .4.7.8 0 1.2-.1 0-.2 0-.3-.1-.3-.7-.8-1-1.5-1.1-.3 0-.6 0-.9-.3a.78.78 0 0 1-.4-.4q.3-.7-.4-.8c-.1-.3.2-.4.4-.5 0 0 .2 0 .3-.1a.55.55 0 0 1 .5-.3c.4 0 .6-.4 1-.2 0 .3 0 .3.3.2h.6.7c-.2-.1-.5-.1-.7-.3 0-.3.2-.3.4-.3.5 0 .9-.2 1.3-.5.2 0 .2.2.4.3.2-.3.1-.7.3-1.1.4-.5.9-.2 1.3-.3.2 0 .5 0 .6-.1.1-.2-.2-.3-.3-.4-.3-.3-.2-.7 0-.9.6-.6.6-1.5.9-2.2 0-.2 0-.5.4-.3.3.5 0 1 0 1.6.5-.3.3-.9.5-1.2.3-.4.3.1.4.2 0 .2.2.4.3.6 0 .3 0 .7.4.7 0 .2 0 .5.2.6.1 0 .2 0 .2-.2 0 .1.2.3.3.4 0 .3.1.6.3.8s.4.4.4.6c.2.7.3.7.8.4.1 0 .2.2.3.3 0 .3.3.5.2.8 0 .4-.3.5-.7.5.2.3.4.2.6.2h.3c1.2-.3 1.6 0 1.9 1.4.5-.5 1.1-.6 1.4-.1-.2.2-.5.2-.7 0-.2.1-.3.5-.8.4.4.2.6.1.8 0-.3.2-.7.3-1 .5z"/><use xlink:href="#H" x="-20.4" y="-12.2"/><path d="M13.3 7.5l-.6-.6c-.2-.2-.6-.5-.1-.8.4.5.7 1 1.1 1.4-.2.3-.3.2-.4 0z"/><path d="M13.3 7.5c.1 0 .3.2.4 0l.4.4c0 .2 0 .6-.3.5s-.7-.4-.5-.9z"/><path d="M15 8.6c0 .3-.2.3-.4.3.2-.3-.8-.4-.1-.7.2.1.4.3.5.4zm4.4 2c-.2-.1-.6 0-.7-.4.4.2.9 0 1.3.4-.2.3-.4 0-.6 0zm-1.1-.5c-.2 0-.6.2-.6-.3.2 0 .4 0 .6.3zm-1.2-.5c0 .2-.2.1-.3 0 0 0-.2 0 0-.2a.76.76 0 0 1 .4.2z"/><use xlink:href="#d"/><use xlink:href="#I" x="-20.3" y="-12.2"/><path d="M9.5 18.5c0 .2 0 .3.1.4.3.2.3.4.1.7-.1 0-.2.1-.3.2-.2-.5-.4-.9-.5-1.4V18c0-.2 0-.4.2-.6.3 0 .3.2.3.4s-.1.5 0 .7z"/><use xlink:href="#K" x="-20.3" y="-12.1"/><use xlink:href="#L" x="-20.3" y="-12.1"/><path d="M8.4 16.5l-.1.1c-.1-.2-.3-.5-.4-.7H8h.3c.2.2.3.4.1.6zM2.6 9.8l-.2.2c-.6.1-1.1.5-1.8.5.1.2.6.2.3.6H.4c-.2-.1-.5-.1-.5-.5s.4-.4.5-.4c.7-.2 1.4-.5 2.1-.4z"/><use xlink:href="#M" x="-20.3" y="-12.2"/><use xlink:href="#N" x="-20.4" y="-12.1"/><use xlink:href="#O" x="-20.4" y="-12.1"/><path d="M1.9 11.3v.3c-.2-.2-.5-.2-.7-.4.3-.2.5-.2.7.2zm11.7 2.9c0-.5.5-.6.5-1.1.3 0 0 .3.2.4h.3c-.3.3-.6.6-1 .9v-.1z"/><use xlink:href="#P" x="-20.3" y="-12.2"/><path d="M11.2 18.1l-.2-.2c.2-.5.3-1 .7-1.2 0 .5-.3 1-.6 1.4zm1.2-2.7l.2.2c-.2.3-.3.6-.6.8-.3-.4.3-.6.3-1h.1zm.9-.7l-.3-.3c.1-.2.4-.1.6-.1v.2c-.1 0-.2.2-.3.3zm1.3-1.2h-.3c.1-.1.2-.4.4-.1 0 0-.1 0-.2.1zM7.2 6.2v-.3s.2-.2.2-.3c.3 0 .3-.3.4-.4 0 0 .2-.1.3-.1.5.4.1.7 0 1-.2.4-.6.4-.9 0z"/><path d="M7.9 5.4c-.2 0 0 .6-.4.3 0-.2.1-.3.3-.5l.2.2z"/><path d="M7.9 5.4l-.2-.2V5s.2-.1.3-.2c.1.1.1.3 0 .4l-.1.1z"/><use xlink:href="#Q" x="-20.3" y="-12.2"/><path d="M9.2 2h-.1c0-.5.2-.9.4-1.3.1 0 .2.1.2.2 0 .5 0 .9-.5 1.1z"/><path d="M9.6.8L9.4.6V.2c.2 0 .3-.5.6-.2-.1.2-.2.5-.4.6z"/><use xlink:href="#R" x="-20.3" y="-12.2"/><use xlink:href="#S" x="-20.3" y="-12.1"/><use xlink:href="#T" x="-20.4" y="-12.1"/><path d="M3.1 12c.6 0 1 .3 1.5.6 0 .1-.2 0-.3.1H4c-.2-.4-.7-.4-.9-.7zm2.1 1.3v-.2h.3c.2.1.4.2.4.4 0 0 .2.2 0 .3-.2-.2-.5-.4-.7-.6z"/><path d="M4.3 12.7c0-.1.2-.1.3-.1.1.3.7 0 .6.6-.3-.1-.6-.3-.8-.4zm2.6 2.1c.4 0 .4.2.4.4l-.4-.4zM8.5 4.4c.2-.6.5-1.2.6-1.8v-.1a1.44 1.44 0 0 0 .2.3c.2 0 .5 0 .7.2.3.1.4.3.2.5 0 .7-.6 1.2-.5 1.9 0 .2-.2.3-.4.5-.5.4-.4.8 0 1.1.2.1.3.2.2.4 0 .2-.2.2-.4.3H7.4c-.4-.4-.4-.8-.3-1.3.6.1 1.1-.3 1.1-.9 0 0-.1 0-.2-.1V5c0-.2 0-.4.2-.6 0 0 .2 0 .3.1.1.2 0 .5.3.5 0 0 .1 0 .1-.1 0-.3-.2-.4-.5-.4z"/><use xlink:href="#e"/><use xlink:href="#V" x="-20.3" y="-12.1"/><path d="M6.2 7.4c0 .6-.2 1-.8 1.1l-.2-.2c.3-.3.7-.6 1-.9zm.4-.5c.2.1.1.3 0 .4-.1.2-.3 0-.4 0 .1-.1.2-.3.4-.4zM11 3v.1c0 .3 0 .6.1.9-.3 0-.1-.3-.3-.3v-.6h.2zm7.2 7.7c.2 0 .4 0 .6.1h.3c-.5 0-1.1.3-1.6 0 .2 0 .5 0 .7-.1zm-.7.7v-.1c.3-.2.4 0 .5.1h-.5z"/><use xlink:href="#W" x="-20.4" y="-12.1"/><path d="M8.2 15.9h-.3c.1-.4.1-.8-.4-1-.2 0-.2-.3-.2-.5s0-.3.1-.3H8c.9.1.9.1.9 1.1v1.3h-.3c-.1-.3-.1-.6-.6-.6z"/><use xlink:href="#f"/><path d="M4.5 9.2h.6.3c.2.2.7 0 .7.3 0 .4-.5.2-.8.3h-.2L5 9.7h-.4l-.1.1c-.4 0-.3-.2-.3-.4.1 0 .3 0 .4-.1z"/><use xlink:href="#Y" x="-20.4" y="-12.1"/><path d="M12.4 15.4h-.1c-.6 0-.4-.6-.3-.8.2-.5.6-.2.9 0 0 .3-.5.4-.4.8zm-3.2 2.1c-.3-.3 0-.7-.1-1 .6.6.6 1.3.4 2-.3-.3 0-.7-.2-1z"/><use xlink:href="#Z" x="-20.3" y="-12.1"/><path d="M13.6 13.3v.1s0 .1-.1.1c0 0-.2 0-.1-.1l.2-.1zM4.4 9.7h0c.2-.2.5-.3.7-.1v.1h-.7zM11.1 5v.2l-.1-.1V5h.1zM8.2 15.9c.1-.1.2-.3.5-.1.2.2.3.4.1.7h-.4c0-.2-.1-.4-.2-.6z"/><use xlink:href="#a" x="-20.4" y="-12.2"/><path d="M1.7 10.7l-.1-.1h.1.5c-.2.2-.3.1-.5.1zm9.2-8.3c-.7-.2-1-1-.5-1.6 0 .5.4.9.6 1.4v.1z"/><use xlink:href="#b" x="-20.3" y="-12.1"/><path d="M10.9 3.7c-.2-.2-.2-.5 0-.7v.7zM7.4 12c0 .3 0 .5-.4.6-.4 0-.9.1-1.2-.3-.2-.2 0-.3.2-.3h1.3zM5.1 9.6h-.7c.2 0 .5-.5.7 0z"/><use xlink:href="#B" x="-14.6" y="10.1"/><use xlink:href="#C" x="-14.6" y="10.1"/><use xlink:href="#D" x="-14.6" y="10"/><use xlink:href="#c" x="5.7" y="22.2"/><use xlink:href="#E" x="-14.6" y="10"/><use xlink:href="#F" x="-14.6" y="10"/><path d="M22.1 34.5l-.2-.2c0-.1.1-.2.3-.2 0 0 .2 0 .3.1-.1 0-.2.1-.4.2z"/><use xlink:href="#G" x="-14.7" y="10.1"/><use xlink:href="#H" x="-14.7" y="10"/><path d="M19 29.7l-.6-.6c-.2-.2-.6-.5-.1-.8.4.5.7 1 1.1 1.4-.2.3-.3.2-.4 0z"/><path d="M19 29.7c.1 0 .3.2.4 0l.4.4c0 .2 0 .6-.3.5s-.7-.4-.5-.9z"/><path d="M20.7 30.8c0 .3-.2.3-.4.3.2-.3-.8-.4-.1-.7.2.1.4.3.5.4zm4.3 2c-.2-.1-.6 0-.7-.4.4.2.9 0 1.3.4-.2.3-.4 0-.6 0zm-1.1-.5c-.2 0-.6.2-.6-.3.2 0 .4 0 .6.3zm-1.1-.5c0 .2-.2.1-.3 0 0 0-.2 0 0-.2a.76.76 0 0 1 .4.2z"/><use xlink:href="#d" x="5.7" y="22.2"/><use xlink:href="#I" x="-14.6" y="10"/><use xlink:href="#J" x="-14.6" y="10.1"/><use xlink:href="#K" x="-14.6" y="10.1"/><use xlink:href="#L" x="-14.6" y="10.1"/><path d="M14.1 38.7l-.1.1c-.1-.2-.3-.5-.4-.7h.1.3c.2.2.3.4.1.6zM8.3 32l-.2.2c-.6.1-1.1.5-1.8.5.1.2.6.2.3.6h-.5c-.2-.1-.5-.1-.5-.5s.4-.4.5-.4c.7-.2 1.4-.5 2.1-.4z"/><use xlink:href="#M" x="-14.6" y="10"/><use xlink:href="#N" x="-14.7" y="10.1"/><use xlink:href="#O" x="-14.7" y="10.1"/><path d="M7.6 33.5v.3c-.2-.2-.5-.2-.7-.4.3-.2.5-.2.7.2zm11.7 2.9c0-.5.5-.6.5-1.1.3 0 0 .3.2.4h.3c-.3.3-.6.6-1 .9v-.1z"/><use xlink:href="#P" x="-14.6" y="10"/><path d="M16.9 40.3l-.2-.2c.2-.5.3-1 .7-1.2 0 .5-.3 1-.6 1.4zm1.2-2.7l.2.2c-.2.3-.3.6-.6.8-.3-.4.3-.6.3-1h.1zm.9-.7l-.3-.3c.1-.2.4-.1.6-.1v.2c-.1 0-.2.2-.3.3zm1.2-1.2h-.3c.1-.1.2-.4.4-.1 0 0-.1 0-.2.1zm-7.3-7.3v-.3s.2-.2.2-.3c.3 0 .3-.3.4-.4 0 0 .2-.1.3-.1.5.4.1.7 0 1-.2.4-.6.4-.9 0z"/><path d="M13.6 27.6c-.2 0 0 .6-.4.3 0-.2.1-.3.3-.5l.2.2z"/><path d="M13.6 27.6l-.2-.2v-.2s.2-.1.3-.2c.1.1.1.3 0 .4l-.1.1z"/><use xlink:href="#Q" x="-14.6" y="10"/><path d="M14.9 24.2h-.1c0-.5.2-.9.4-1.3.1 0 .2.1.2.2 0 .5 0 .9-.5 1.1z"/><path d="M15.3 23l-.2-.2v-.4c.2 0 .3-.5.6-.2-.1.2-.2.5-.4.6z"/><use xlink:href="#R" x="-14.7" y="10"/><use xlink:href="#S" x="-14.6" y="10.1"/><use xlink:href="#T" x="-14.7" y="10.1"/><path d="M8.8 34.2c.6 0 1 .3 1.5.6 0 .1-.2 0-.3.1h-.3c-.2-.4-.7-.4-.9-.7zm2.1 1.3v-.2h.3c.2.1.4.2.4.4 0 0 .2.2 0 .3-.2-.2-.5-.4-.7-.6z"/><path d="M10 34.9c0-.1.2-.1.3-.1.1.3.7 0 .6.6-.3-.1-.6-.3-.8-.4zm2.6 2.1c.4 0 .4.2.4.4l-.4-.4z"/><use xlink:href="#U" x="-14.6" y="10.1"/><use xlink:href="#e" x="5.7" y="22.2"/><use xlink:href="#V" x="-14.6" y="10.1"/><path d="M11.9 29.6c0 .6-.2 1-.8 1.1l-.2-.2c.3-.3.7-.6 1-.9zm.4-.5c.2.1.1.3 0 .4-.1.2-.3 0-.4 0 .1-.1.2-.3.4-.4zm4.4-3.9v.1c0 .3 0 .6.1.9-.3 0-.1-.3-.3-.3v-.6h.2zm7.2 7.7c.2 0 .4 0 .6.1h.3c-.5 0-1.1.3-1.6 0 .2 0 .5 0 .7-.1zm-.7.7v-.1c.3-.2.4 0 .5.1h-.5z"/><use xlink:href="#W" x="-14.7" y="10.1"/><use xlink:href="#X" x="-14.6" y="10"/><use xlink:href="#f" x="5.7" y="22.2"/><path d="M10.2 31.4h.6.3c.2.2.7 0 .7.3 0 .4-.5.2-.8.3h-.2l-.1-.1h-.4l-.1.1c-.4 0-.3-.2-.3-.4.1 0 .3 0 .4-.1z"/><use xlink:href="#Y" x="-14.7" y="10.1"/><path d="M18.1 37.6H18c-.6 0-.4-.6-.3-.8.2-.5.6-.2.9 0 0 .3-.5.4-.4.8zm-3.2 2.1c-.3-.3 0-.7-.1-1 .6.6.6 1.3.4 2-.3-.3 0-.7-.2-1z"/><use xlink:href="#Z" x="-14.6" y="10.1"/><path d="M19.2 35.5v.1s0 .1-.1.1c0 0-.2 0-.1-.1l.2-.1zm-9.1-3.6h0c.2-.2.5-.3.7-.1v.1h-.7zm6.7-4.7v.2l-.1-.1v-.1h.1zm-2.9 10.9c.1-.1.2-.3.5-.1.2.2.3.4.1.7h-.4c0-.2-.1-.4-.2-.6z"/><use xlink:href="#a" x="-14.7" y="10"/><path d="M7.4 32.9l-.1-.1h.1.5c-.2.2-.3.1-.5.1zm9.2-8.3c-.7-.2-1-1-.5-1.6 0 .5.4.9.6 1.4v.1z"/><use xlink:href="#b" x="-14.6" y="10.1"/><path d="M16.6 25.9c-.2-.2-.2-.5 0-.7v.7zm-3.5 8.3c0 .3 0 .5-.4.6-.4 0-.9.1-1.2-.3-.2-.2 0-.3.2-.3H13zm-2.3-2.4h-.7c.2 0 .5-.5.7 0z"/></g><defs ><path id="B" d="M31.5 14.9h.1c0 .1 0 .3.1.4.3.2.2.5.3.8 0 .2 0 .4-.2.5-.3 0-.4-.3-.5-.6 0-.3-.2-.5-.1-.8 0-.1.1-.3.3-.3z"/><path id="C" d="M31.9 16.2c0 .1.2.3.3.4v.3c-.1.1.3.4-.1.5-.4-.1-.5-.4-.3-.8.2-.1.1-.3.1-.4z"/><path id="D" d="M32.2 17.4c0-.1-.2-.3 0-.4.1.1.2.3.3.4 0 .1 0 .3.1.4 0 .2 0 .4-.2.3-.3-.1-.4-.4-.2-.7z"/><path id="E" d="M38.4 23.6l.2.2c-.5.2-1 .3-1.4.5-.1 0-.3 0-.3-.2.2-.5.7-.3 1.1-.6h.5z"/><path id="F" d="M36.7 24.6c-.2 0-.4.1-.5.2-.2 0-.4-.1-.3-.4.1-.2.4-.4.7-.2a1.44 1.44 0 0 0 .2.3v.1z"/><path id="G" d="M36.9 24.1s-.2.1-.3.2c-.2-.2-.4 0-.5.2s.1.2.1.3l-1.1.8c-.2 0-.3.2-.5.2l-.2-.1c0 .4-.3.5-.5.8-.2.1-.4.1-.5.2 0 0-.2 0-.3.1-.2 0-.5-.3-.7.1-.1.3 0 .4.2.6.1.4-.4.6-.3 1 0 .1-.2.2-.3.3-.3.4-.4.8-.6 1.3-.2.8-.7 1.5-.9 2.3-.1.5-.4-.2-.7 0 0-.2 0-.3-.1-.5 0-.1.1-.2.2-.3.2-.2.4-.5-.1-.5-.2-.1-.2-.3-.2-.4.1-.7.1-1.3-.3-1.9v-.2c0-.4-.1-.8 0-1.2 0-.6-.2-.8-.7-.8h-.5c-.4-.2-.7-.4-1.1-.7-.2-.1-.5-.2-.4-.6 0-.3.4-.4.7-.5.2 0 .5 0 .5-.3l-.1-.1h-1.6c0 .4.7.8 0 1.2-.1 0-.2 0-.3-.1-.3-.7-.8-1-1.5-1.1-.3 0-.6 0-.9-.3a.78.78 0 0 1-.4-.4q.3-.7-.4-.8c-.1-.3.2-.4.4-.5 0 0 .2 0 .3-.1a.55.55 0 0 1 .5-.3c.4 0 .6-.4 1-.2 0 .3 0 .3.3.2h.6.7c-.2-.1-.5-.1-.7-.3 0-.3.2-.3.4-.3.5 0 .9-.2 1.3-.5.2 0 .2.2.4.3.2-.3.1-.7.3-1.1.4-.5.9-.2 1.3-.3.2 0 .5 0 .6-.1.1-.2-.2-.3-.3-.4-.3-.3-.2-.7 0-.9.6-.6.6-1.5.9-2.2 0-.2 0-.5.4-.3.3.5 0 1 0 1.6.5-.3.3-.9.5-1.2.3-.4.3.1.4.2 0 .2.2.4.3.6 0 .3 0 .7.4.7 0 .2 0 .5.2.6.1 0 .2 0 .2-.2 0 .1.2.3.3.4 0 .3.1.6.3.8s.4.4.4.6c.2.7.3.7.8.4.1 0 .2.2.3.3 0 .3.3.5.2.8 0 .4-.3.5-.7.5.2.3.4.2.6.2h.3c1.2-.3 1.6 0 1.9 1.4.5-.5 1.1-.6 1.4-.1-.2.2-.5.2-.7 0-.2.1-.3.5-.8.4.4.2.6.1.8 0-.3.2-.7.3-1 .5z"/><path id="H" d="M38.6 22.9c-.6-.2-1.2 0-1.7.4.4-.5-.4-.9-.2-1.3-.5-.1-1-.4-1.5-.1-.3.2-.6.1-.9 0-.2 0-.2-.2-.2-.3 0-.2.2-.2.3-.2.3.1.5 0 .5-.3.1-.1.3-.2.4-.3l1.7.8c0 .2.2.2.4.2s.4.2.6.3c.1.3.4.2.6.3h.4c.1.3.5.1.7.4-.1.2-.4 0-.6.3-.2 0-.4 0-.6-.1z"/><path id="I" d="M29.9 32.4c.7.2.6-.4.8-.7.2-.5.6-1 .6-1.5.2 0 .2 0 .2.2v.3c-.2.6-.6 1.1-.7 1.8 0 .3-.2.7-.5.7s-.3-.5-.3-.7z"/><path id="J" d="M29.8 30.6c0 .2 0 .3.1.4.3.2.3.4.1.7-.1 0-.2.1-.3.2-.2-.5-.4-.9-.5-1.4v-.4c0-.2 0-.4.2-.6.3 0 .3.2.3.4s-.1.5 0 .7z"/><path id="K" d="M29.5 29.6c0 .2 0 .4-.1.6-.3-.2-.2-.8-.6-.9 0-.2-.2-.3-.3-.5 0 0 0-.2.2-.2h.4c.1 0 .2 0 .3.1h0c.2.3.1.6.1 1z"/><path id="L" d="M28.8 29.2c.3-.2.4 0 .4.3 0 .2.1.4.2.7 0 0 0 .2-.1.3-.2-.4-.3-.8-.5-1.2z"/><path id="M" d="M21.3 23.3c0-.4-.5-.2-.6-.6.7-.3 1.3-.5 2-.5 0 .2-.4.1-.4.4 0 .1-.2.2-.3.2h-.2c-.2 0-.3.2-.3.4h-.1z"/><path id="N" d="M24.5 21.4c-.3 0-.6.4-1 .2.6-.3 1.1-.6 1.7-1a.76.76 0 0 0 .4-.2c.1 0 .2 0 .2.2-.2.4-.5.6-.8.8-.1 0-.3.2-.5 0z"/><path id="O" d="M22.8 23.4c.1 0 .3.2.4.3 0 .1.1.2 0 .3h-.4c-.2 0-.4 0-.6-.3v-.3c0-.1.3 0 .4-.1h.2z"/><path id="P" d="M33.2 26.7s.1 0 .2-.1c.3 0 .2.2.3.3-.2.3-.4.6-.7.9-.1 0-.2-.1-.2-.2-.2-.5.2-.6.5-.8z"/><path id="Q" d="M28.5 16.4c.1-.4.3-.8.4-1.3.1-.3.3-.7.4-1h.2c.3.2.2.4.1.7-.2.2-.2 0-.2-.2 0 .7-.2 1.3-.6 1.8l-.2.1c-.1 0-.2 0-.2-.2z"/><path id="R" d="M30.4 12.3c.4 0 .5.3.6.6.2.5.3.9.4 1.4 0 0 0 .2-.2.2-.3-.4-.5-.9-.7-1.4 0-.3-.3-.5 0-.8h0z"/><path id="S" d="M31.2 14.4l.1-.1c0 .2.1.5.2.7 0 0 0 .2-.1.3l-.1-.1c0-.2-.2-.3-.1-.5v-.2z"/><path id="T" d="M23.2 24c0-.1-.1-.2 0-.3.2.2.4.3.7.3 1 0 1.6.6 1.7 1.3v.1l-.1-.1c0-.4-.5-.3-.7-.5-.5-.1-.8-.5-1.3-.6h-.2z"/><path id="U" d="M28.8 16.5c.2-.6.5-1.2.6-1.8v-.1a1.44 1.44 0 0 0 .2.3c.2 0 .5 0 .7.2.3.1.4.3.2.5 0 .7-.6 1.2-.5 1.9 0 .2-.2.3-.4.5-.5.4-.4.8 0 1.1.2.1.3.2.2.4 0 .2-.2.2-.4.3h-1.7c-.4-.4-.4-.8-.3-1.3.6.1 1.1-.3 1.1-.9 0 0-.1 0-.2-.1v-.4c0-.2 0-.4.2-.6 0 0 .2 0 .3.1.1.2 0 .5.3.5 0 0 .1 0 .1-.1 0-.3-.2-.4-.5-.4z"/><path id="V" d="M27.1 20.6c0-.4-.1-.8.1-1.3 0-.1.3-.4 0-.6 0-.2.2-.3.3-.3l.3 1.3c0 .4 0 .7-.1 1.1 0 .2 0 .4-.2.4-.3 0-.2-.3-.2-.4 0 0 0-.2-.1-.2z"/><path id="W" d="M31.4 15.1h0c-.1.2-.1.5 0 .7 0 .4-.1.8-.1 1.2 0 .2 0 .3-.2.4-.2 0-.4 0-.5-.2-.2-.2 0-.3 0-.4.2-.4 0-.8.1-1.2 0-.3 0-.4-.4-.4-.2 0-.4 0-.5-.3 0-.2.1-.5-.1-.7.3-.3.4-.7.4-1.1 0-.3.1-.6.4-.7 0 .2.2.5.3.7-.2.6 0 1.2.5 1.6l.2.6z"/><path id="X" d="M28.5 28.1h-.3c.1-.4.1-.8-.4-1-.2 0-.2-.3-.2-.5s0-.3.1-.3h.6c.9.1.9.1.9 1.1v1.3h-.3c-.1-.3-.1-.6-.6-.6z"/><path id="Y" d="M22.8 23.4h-.3c-.2-.2-.5-.2-.4-.6.1 0 .3 0 .4-.1-.1.1-.3 0-.4 0 0-.1.2-.1.3-.1.3 0 .6-.3.8 0 .2.4-.1.6-.4.8z"/><path id="Z" d="M30.1 31.7c0-.2 0-.5-.1-.7.1-.2.3-.2.5 0 .1.1 0 .3 0 .4s-.2.3-.3.4z"/><path id="a" d="M22.1 22.9c0 .3.4.3.4.6 0 .1-.2 0-.3 0-.2-.2-.4-.2-.7-.2 0-.3-.1-.7.4-.6 0 0 .1 0 .1.1z"/><path id="b" d="M28.8 16.5c.2 0 .3-.4.5 0 .2.3.3.5.1.8 0 .2-.3.1-.4 0-.3-.1-.4-.3-.2-.6v-.2z"/><path id="c" d="M19.9 10.6c.2 0 .1.3.1.4-.6.3-1.2.4-1.8.6 0 0-.2 0-.3-.1a.45.45 0 0 0-.5 0c-.2 0-.6.2-.6 0 0-.4.4-.4.6-.6.4 0 .9 0 1.3.1v-.1c0-.3.3-.2.5-.3.2 0 .4.1.6 0z"/><path id="d" d="M7.5 15.7c0-.1-.1-.2-.2-.4 0-.2-.2-.4-.4-.4l-1-1c0-.1-.1-.3 0-.4.7 0 1.1.5 1.5 1 .1.2.2.4.4.5.3.3.4.6.1 1h-.2c-.1 0-.2-.2-.3-.3z"/><path id="e" d="M4.5 9.2l.9-.7c.4-.3.6-.6.8-1.1h0c.2 0 .4-.2.4-.4l.3-.3c.3 0 .3.1.3.3-.1.5-.1 1.1-.4 1.5s-.6.7-1.1.6c-.2 0-.4 0-.6.1-.2.2-.4.2-.6 0z"/><path id="f" d="M7.5 14.1c-.1 0-.1.2-.1.3l-1.1-.9c-.1 0-.2-.1-.3 0-.2 0-.3-.2-.4-.4.4-.3.1-.6 0-.7-.4-.3-.1-.5.1-.5.6 0 1.2-.2 1.8 0-.3.3-.8.1-1.1.2.5.3.6.2 1.1-.2.3.4.1.7-.3.7h-.5c-.2 0-.3.2-.3.3 0 .2.2.2.2.3.3.3.8.4 1.1.8z"/></defs></svg>