<?xml version="1.0" encoding="UTF-8"?>
<svg id="Capa_2" data-name="Capa 2" xmlns="http://www.w3.org/2000/svg" viewBox="0 0 82 72.3">
  <defs>
    <style>
      .cls-1 {
        fill: #3f2e23;
      }

      .cls-2 {
        fill: #728d30;
      }

      .cls-3 {
        fill: #bbcb98;
      }

      .cls-4 {
        fill: #fff;
      }

      .cls-5 {
        fill: #c2d298;
      }

      .cls-6 {
        fill: #f5f2f0;
      }

      .cls-7 {
        fill: #e2a69f;
      }

      .cls-8 {
        fill: #52302a;
      }

      .cls-9 {
        fill: #ea7373;
      }

      .cls-10 {
        fill: #f1a19b;
      }

      .cls-11 {
        fill: #f0c685;
      }

      .cls-12 {
        fill: #c09283;
      }

      .cls-13 {
        fill: #4e3c2f;
      }

      .cls-14 {
        fill: #fefdfd;
      }

      .cls-15 {
        fill: #353232;
      }

      .cls-16 {
        fill: #4d3c25;
      }

      .cls-17 {
        fill: #49342d;
      }

      .cls-18 {
        fill: #4e492b;
      }

      .cls-19 {
        fill: #e67674;
      }

      .cls-20 {
        fill: #698b2d;
      }

      .cls-21 {
        fill: #b1b98e;
      }

      .cls-22 {
        fill: #66422f;
      }

      .cls-23 {
        fill: #3b3f2c;
      }

      .cls-24 {
        fill: #a2875b;
      }

      .cls-25 {
        fill: #a9b486;
      }

      .cls-26 {
        fill: #efecea;
      }

      .cls-27 {
        fill: #efa09c;
      }

      .cls-28 {
        fill: #2a2525;
      }

      .cls-29 {
        fill: #454829;
      }

      .cls-30 {
        fill: #533232;
      }

      .cls-31 {
        fill: #bed297;
      }

      .cls-32 {
        fill: #5c722d;
      }

      .cls-33 {
        fill: #574341;
      }

      .cls-34 {
        fill: #507450;
      }

      .cls-35 {
        fill: #4e3425;
      }

      .cls-36 {
        fill: #fceed5;
      }

      .cls-37 {
        fill: #563f3b;
      }

      .cls-38 {
        fill: #e3e0df;
      }

      .cls-39 {
        fill: #f4a19a;
      }

      .cls-40 {
        fill: #45342a;
      }

      .cls-41 {
        fill: #776250;
      }

      .cls-42 {
        fill: #251916;
      }

      .cls-43 {
        fill: #fef1c0;
      }

      .cls-44 {
        fill: #e9a6a6;
      }

      .cls-45 {
        fill: #3f2b1e;
      }

      .cls-46 {
        fill: #c67772;
      }

      .cls-47 {
        fill: #33180f;
      }

      .cls-48 {
        fill: #5d3927;
      }

      .cls-49 {
        fill: #4c2422;
      }

      .cls-50 {
        fill: #533230;
      }

      .cls-51 {
        fill: #4c3931;
      }

      .cls-52 {
        fill: #6a8c2d;
      }

      .cls-53 {
        fill: #c1d097;
      }

      .cls-54 {
        fill: #4c3633;
      }

      .cls-55 {
        fill: #4c7f56;
      }

      .cls-56 {
        fill: #708d58;
      }

      .cls-57 {
        fill: #522d2a;
      }
    </style>
  </defs>
  <g id="Capa_1-2" data-name="Capa 1">
    <g>
      <path class="cls-42" d="M76.6,30.4c.7,0,1.3,.1,1.9,.1,3.7,0,4.2,.5,3,4-.3,.8-.7,1.6-.7,2.5-.3,6.5-.3,6.5-5,10.3,5.1,5.9,4.3,11-2.4,15.3-4.6,2.9-9.8,3.5-15.1,3-1.9-.2-3.3,.3-4.9,1.3-8.2,5.3-17.1,6.7-26.5,4.1-3.4-1-6.9-1.2-10.3-1.5C6.9,68.4,1.1,63.6,.2,55.6c-.2-1.9-.5-4.1,.6-5.5,3-3.5,2.8-7.5,2.5-11.5,0-.9,0-1.8,.2-2.6,1.1-4.2,1.3-8.1-.7-12.4-2-4.2,.1-8.3,3.6-11.4,3.4-3,7.3-3.6,11.5-1.7,1.4,.6,2.5,1.1,4.1,.4,9.4-4.4,18.8-4.1,28.2,.3,.4,.2,.8,.6,1.6,0,.2-1.5-1.1-2.5-1.8-3.7-.5-.9-1.1-1.8-.6-2.8,.6-1,1.7-1,2.7-.8,2.6,.7,4.4,0,6-2.3,1.7-2.5,3.9-2,5.4,.4,1.8,3,3.7,4.8,7.7,4,2.7-.6,3.5,1.4,1.9,4.1-2.8,4.7-2.6,5.5,2,8.4,4.6,3,5.1,6.8,1.5,11.8Z"/>
      <path class="cls-39" d="M61.4,33.4c2.7-1.9,3.5-1,3.8,2.1,1,10.4-1.5,19.4-9.8,26.4-4.8,2.6-9.7,4.9-15.4,3.5-1.2-.8-.4-1.7,0-2.6,3.6-7,3.5-8-2-13.8-.2-.2-.3-.4-.4-.6-.4-1-.3-2,.1-2.9,1.9-1.9,4.1-3.3,6.7-4.1,2-.3,1.6-1.9,1.7-3.2,0-4.5-.1-9,0-13.4,.2-4.6,7.3-10.4,11.6-9.7,2.4,.4,3.6,3,6.1,3.3,4,5.8,2.2,11.4-4.7,14.4-2.5,1.3-4.7,.5-6.3-1.5-1.5-1.8-1.8-4.1-.8-6.3,.9-2.1,2.5-2.9,4.5-2.4-3.1-.3-4.4,.6-5.1,3.6-.6,2.7,1.1,6.2,3.8,6.9,2,.5,4.1,1.1,6.2,.4Z"/>
      <path class="cls-39" d="M63.8,18.4c-1.9-.1-4.1,1-5.1-2.2-.5-1.5-3.2-1.3-4.3-.3-2.3,1.9-4.2,4.3-6.8,6-.9,.6-.5,1.9-.5,2.8,0,4.9-.1,9.7,0,14.6,0,2.5-.8,3.5-3.2,3-.7-1.4,.5-2.4,.8-3.6,1.1-3.7,1.3-7.3-1.1-10.6-5.1-5.4-12-5.2-16.6,.6-1.5,2.7-2.7,5.5-1.5,8.6,.3,1.9,1.6,3.3,2.6,4.7,.3,.4,.5,.9,.5,1.5-.3,.8-1,1-1.7,1.1-1.3,.1-2.5-.3-3.8-.6-.4,0-.7-.2-1-.3-.2,0-.5-.2-.7-.2-6.5-1.1-6.6-1.1-5.4-7.5,.8-4.4-1.2-7.9-3.3-11.4-1-.6-1.9-1-.8-2.5,8.8-11.7,26-15.5,37.8-8.1-.6,1.2-2.1,1.5-2.5,2.9-.6,2.3-1.8,4.5-1.9,6.9,.5-2,.3-4.3,2.5-5.5,5.4-5.8,10.9-5.8,16.1,0Z"/>
      <path class="cls-43" d="M22.8,43.2h0c2.6,1.9,5.9,1.7,8.8,2.8,2.4,1,4.9,1.8,7,3.4,5.8,4.3,5.6,11.1-.5,15-5.6,2.1-11.3,2.8-17.1,2-1.5-.2-3.4,0-3.9-2.2,2.6-2,5.8-.4,8.5-1.4,2.6-.4,5.1-.8,7.5-2.1,2-1.2,4.3-2.3,4.6-5.1-3.9-.4-7.9-.6-11.7,.3-2,.3-4.1,.3-6.1,0-1.5-.6-3.2-.5-4.8-.5-4.1-.2-8-1-11.8-2.4-.4-.2-.6-.5-.8-.9,.6-5.3,5-6.4,8.8-8.3,1.6-2,3.8-1.5,5.8-1.3,2,.2,3.9,.8,5.9,.6Z"/>
      <path class="cls-14" d="M9.7,42.6c-4.6-2.6-4.3-11.9-1.4-15.9,.9-1.2,2.1-1.7,3.6-1.5,3.7,1.4,3.9,4.9,4.4,8,.5,2.7-.5,5.4-1.8,7.8-1.1,2-2.8,2.1-4.8,1.6Z"/>
      <path class="cls-5" d="M53.4,12.9c1.5-3.8,3.4-6.4,5.1-9.1,1.4-2.1,2.5-2.4,4.1-.1,2.9,4.2,5.3,8.5,7.6,13.1-6.3,1.4-10-6-16.8-3.9Z"/>
      <path class="cls-53" d="M73.3,34.9c1.8-1.9,4.2-2.4,6.4-2.8,.7,1.1-.1,1.7-.2,2.4-.2,1.7-2.9,3.2-.3,5.3,.7,.6-.4,2-1.3,2.8-1.8,1.1-3.5,2.3-5.8,2.4-3.2,.1-4.3-.8-4.4-4,0-1.7,.4-3.5-.3-5.2,.1-1.3-2-3.2,0-3.8,1.7-.5,4.4-.8,5.1,2.2-.6,1,.4,1.9,.2,2.3,0-.2,0-1,.5-1.5Z"/>
      <path class="cls-11" d="M17.1,64.1c6.2,2.8,12.5,1.3,18.8,0,.8-.2,1.5-.8,2.5-.6-.1,1.9-1.8,2.2-3,3-2.1,1.4-4.5,1.5-7,1.3-5,.1-10,.4-14.9-.7-6.7-1.6-10.5-5.2-11.4-11.1-.3-.7,.2-.9,.8-1,2.7,3.7,5.8,6.8,10.6,7.4,.7,0,1.4,.2,2,.4,.7,.3,1.3,.6,1.6,1.3Z"/>
      <path class="cls-31" d="M66.7,27.9c1.2-3.4,1-6.7-.8-9.9,8.2,.4,12.2,3.8,10.6,8.8-3.1,2-6.2,3.8-9.8,1.1Z"/>
      <path class="cls-27" d="M6.8,15.5c1.1-2.4,3.1-3.4,5.5-3.8,1.9-.3,4.4-.3,5.2,1.1,.8,1.5-1.8,2.2-2.8,3.3-2,2.2-4,4.5-6,6.7-2.9-1.9-3.2-4.4-1.9-7.3Z"/>
      <path class="cls-9" d="M39.6,64.8c5.6,.7,10.6-1.7,15.9-2.9-6.6,6.3-14.4,8.4-23.3,7.5-.5-.4-.5-1-.2-1.5,1.3-.6,2.7-1.1,3.9-1.8,1.4,0,2-2.2,3.7-1.2Z"/>
      <path class="cls-20" d="M75.8,57.6c-3.1,5.3-8.5,5.7-13.7,6.4-1.3,.2-2.6,0-4.6,0,1.3-2.4,2.5-4.1,4.6-5,2.4-.1,4.9,.2,7.2-.9,2.2,.2,4.2-2.1,6.5-.5Z"/>
      <path class="cls-3" d="M75.8,57.6c-2.3,0-4.3,2.1-6.7,1.1-.7-2.4,1.1-4.1,1.5-6.5-.9,0-1.9,.7-2.8,.2-1.2-1.5-.8-2.8,.6-3.8,1.8,0,3.5-1,5.4,0,4,2,4.7,5.4,2,9Z"/>
      <path class="cls-51" d="M9.7,42.6c3.2,.2,4.7-1.7,5.4-4.5,1.1-4.8,.6-9.3-3.2-13,.2-.2,.5-.4,.7-.6,3.9,2.6,5.4,8.7,3.6,14.6-.2,.7-.5,1.4-.8,2.1,2.3,1.3,5.2,.3,7.4,1.8-.6,1.2-1.8,.8-2.6,.6-3.1-.9-6.1-.5-9.1,0-.5-.4-1-.8-1.5-1.1Z"/>
      <path class="cls-49" d="M61.4,33.4c-3.8,1.6-7.3,1-9.4-1.7-2-2.5-2.1-5.2-.5-8,1.7-2.7,5.9-3.1,7.6-.7,.2,.4,.4,.9,.3,1.3-.2,.5-.7,.6-1.2,.2-2.7-2.1-4.8-1.9-5.8,1.7-.8,3,1.2,5.8,4.5,6.4,.7,.1,1.5,0,2.2,.1,.6,.8,1.5,.5,2.2,.6Z"/>
      <path class="cls-52" d="M67.4,35.7c1,1.3,.9,2.9,.8,4.2-.3,3.8,1.8,4.4,4.8,3.8,1.7-.3,3.3-.8,5-1.3-2.1,3.8-6.1,4.2-9.8,5.1-1.3,.3-1.5-.5-1.3-1.5,.9-3.4,.3-6.9,.5-10.3Z"/>
      <path class="cls-19" d="M6.8,15.5c0,2.6,.5,5.1,1.9,7.3-.6,1.1-.9,3.1-2.3,2.9-1.4-.3-1.7-2.3-1.8-3.7-.2-2.4,0-4.8,2.2-6.5Z"/>
      <path class="cls-2" d="M66.7,27.9c3.4,.8,6.6-.4,9.8-1.1-2.3,3.6-5.3,4.7-9.3,3.6-2.1-.6-.6-1.6-.5-2.5Z"/>
      <path class="cls-23" d="M68.1,52.2c1.2-.5,2.5-1,4.8-2-2.6,3-2.1,6.2-3.9,8.6-2.2,1.6-4.5,1.7-6.9,.2,0-.3,0-.7,.1-1,2.6-.7,6.4,.3,5.9-4.4-.2-.5-.3-.9,0-1.4Z"/>
      <path class="cls-26" d="M68.8,53.1c1.3,2.8-.6,5.9-3.7,5.6-1,0-1.9-.5-2.9-.7,.8-.7,0-4.3,2.9-1.4,.6,.6,.5-1.5,1-2.2,.3-1.5,1.6-1.2,2.7-1.3Z"/>
      <path class="cls-57" d="M47.8,18.4c-.6,2.2-1.9,4.3-1.5,6.7,0,.6,.2,1.4-.6,1.4-1,0-1.2-.8-1.3-1.5-.3-3.1,.8-5.8,2.7-8.1,.2,.5,.4,1,.6,1.4Z"/>
      <path class="cls-32" d="M68.8,53.1c-.9,.4-1.8,.9-2.7,1.3-2-2.4-1-4.8,2.3-5.8-.1,1.2-1.2,2.3-.2,3.6l.6,.9Z"/>
      <path class="cls-25" d="M72,8.5c-.7,1.2-1.1,2.9-2.4,3-1.2,.1-1.9-1.5-2.1-2.6-.3-1.6,1.3-1.1,2.1-1.2,.8-.1,2-.7,2.4,.8Z"/>
      <path class="cls-21" d="M53.5,9.2c-1-.9-1.7-1.8-2.1-3.3,1.3-.1,2.8-.7,3.6,.6,.5,.9-.7,1.9-1.4,2.7Z"/>
      <path class="cls-48" d="M36.1,66.5c-1.1,1.1-2.5,1.3-3.9,1.6-.9,.8-1.8,1.2-3,.6-.3-.3-.6-.6-.9-.9,2.3-.7,4.5-1.4,6.8-2.1,.4,.2,.8,.2,.9,.8Z"/>
      <path class="cls-29" d="M73.3,34.9c-.3,1.7,1.1,2.8,1.6,4.5-3.2-1.6-3.4-2.1-2.3-5.2,.2,.2,.5,.5,.7,.7Z"/>
      <path class="cls-46" d="M6.1,40.6c.9,1.6,2.5,1.8,1.8,3.3-.2,.3-1,.6-1.3,.5-1.2-.8-.5-2-.5-3.7Z"/>
      <path class="cls-24" d="M2.8,55.2c-.3,.3-.5,.5-.8,.8-.6-1.3-1.1-2.7,.3-3.8,.2-.2,.4-.1,.6,0,.8,1,1,2.1,0,3.1Z"/>
      <path class="cls-35" d="M36.1,66.5l-.9-.8c1.1-.7,2.4-1.1,3.2-2.2,5.6-4.8,5.1-11-1.4-14.2-3.5-1.7-7.4-2.7-11.1-4.1-1.1-.4-2.9-.2-3.1-2.1,1.4,.3,2.7,.5,4.1,.8,1.9,.3,3.9,.5,5.7,1.3,2,.8,4.3,1,5.6,3.1,6.8,4.8,7.2,9.7,1.4,16.6-1.3,.3-2,1.9-3.5,1.7Z"/>
      <path class="cls-50" d="M45.5,39.4c-.5,1-1,1.9-1.5,2.9-1.8,1.3-3.7,2.5-5.8,3.2-.2,0-.3,0-.5,0-.6-.3-1.3-.5-1.1-1.4,2.9-1.4,5.5-3.3,7.8-5.6,.7,0,.9,.4,1.1,.9Z"/>
      <path class="cls-44" d="M38.2,48.3c-2-.8-4-1.5-5.9-2.3-.2-.5,0-.8,.4-1,1.9-1,3.7,0,5.6,.4,0,0,0,.3,0,.3,0,.9,0,1.8,0,2.7Z"/>
      <path class="cls-37" d="M26.2,28.2c4.6-6.5,12.5-6.8,17.9-.8-.2,.6-.5,.9-1.1,1-.1,0-.3,0-.4,0-5.3-3.9-10.4-3.8-15.3,.8-.6,0-.9-.4-1.1-.9Z"/>
      <path class="cls-17" d="M43.4,28.2c.3-.3,.5-.5,.8-.8,3,3.7,3.1,7.7,1.3,11.9-.2-.3-.5-.6-.7-.9-.2-3.4-1.2-6.8-1.4-10.2Z"/>
      <path class="cls-54" d="M38.2,45.3c-2,.6-4,.3-6,.2-1.4-.5-3-.6-3.8-2.2-.2-.3-.5-.6-.7-.9-.2-.7,.2-1,.8-1.1,2.7,.9,5.4,2,8,3.3,.6,.2,1.1,.5,1.7,.7Z"/>
      <path class="cls-30" d="M26.2,28.2l.7,.8c.4,2.7-.7,5.3-.9,8-.3,.6-.6,1-1.3,.9-1.1-3.5-.8-6.7,1.5-9.7Z"/>
      <path class="cls-33" d="M24.8,37.9l.8-.9c2,.9,3,2.5,2.8,4.7-.2,.2-.5,.5-.7,.7-1.7-1-2.5-2.7-2.9-4.5Z"/>
      <path class="cls-12" d="M28.4,43.3c1.3,.7,2.5,1.5,3.8,2.2,0,.1,0,.3,0,.5-1.8-.7-3.6-1.3-5.4-2,.5-.2,1-.4,1.5-.6Z"/>
      <path class="cls-1" d="M2.8,55.2c0-1,0-2,0-3.1,3.9,1.1,7.9,2,12,2.4,0,1.3-1.1,1.2-1.9,1.5-1.7,.2-2.7,1.3-2.9,2.8-.2,1.9,1.7,1.7,2.8,2.2,.6,.3,1.1,.5,1.4,1,.1,.7-.3,.9-.9,1.1-5-.7-9-2.8-10.6-8Z"/>
      <path class="cls-13" d="M33.7,61.2c-2.1,1.7-4.6,2.2-7.2,2.3-.7,.2-1.4,.5-2-.3,.3-1.7,1.7-1.3,2.7-1.6-.6-1.1-1.9-2.3-1.4-4,.2-.3,.5-.5,.8-.6,1.8-.2,2.5,2.1,4.3,2,.3,0,.6,0,.9,.2,.5,.2,.8,.4,1.2,.8,.3,.3,.6,.7,.6,1.2Z"/>
      <path class="cls-22" d="M24.7,62.7c.4,.7,1.2,.7,1.8,.8-3.1,1.1-6.3,.5-9.4,.6-.5-.2-1-.4-1.5-.7,.7-1,1.7-1.2,2.8-1.6,2.2-.2,4.4-.9,6.3,.8Z"/>
      <path class="cls-1" d="M27.2,57.3c-.3,0-.6,0-.9,0-3.4,0-6.8,.1-10-1.5,.7-1.8,2.1-1,3.3-.8,2.2,0,4.4,0,6.6,0,.4-.2,.9-.2,1.3-.2,.6,.5,.4,1.1,.2,1.7-.1,.3-.3,.5-.5,.8Z"/>
      <path class="cls-45" d="M33.7,61.2c-.3-.2-.5-.4-.8-.6,.3-2.1,3.3-2.2,3.2-4.5,0-.5,.2-1,.8-1.2,.7,0,1.4-.2,2.1,.3,0,3.5-2.7,4.8-5.3,6Z"/>
      <path class="cls-36" d="M39,55.1c-.8,0-1.6,0-2.3,.1-1.4,1.1-3,.9-4.5,.9-1.5-.1-3.2,.3-4.5-.9-.5,0-1-.1-1.5-.2,4.3-.9,8.6-1.2,12.9,.1Z"/>
      <path class="cls-40" d="M19.6,55.1c-1.1,.2-2.3-.2-3.2,.7-1.5,1.2-2.9,1.5-3.9-.5,.8-.2,1.8,0,2.4-.7,1.6,0,3.2-.2,4.7,.5Z"/>
      <path class="cls-18" d="M22.3,47.5c-.4,1.5-.8,2.5-2.6,3.6,.4-1.9,.6-3,2.6-3.6Z"/>
      <path class="cls-16" d="M10.2,47.3c2,.7,2.3,1.9,2.7,3.6-1.8-.8-2.1-1.9-2.7-3.6Z"/>
      <path class="cls-15" d="M10.4,33.2c.9,0,1.5,.2,1.5,1,0,.8-.1,1.5-1.1,1.5-.7,0-1.2-.2-1.4-.9-.1-.9,.4-1.3,1-1.5Z"/>
      <path class="cls-47" d="M17.9,62.7c-.6,.8-1.5,.4-2.3,.7-.7,0-1.4-.1-2.2-.2,.3-.2,.6-.5,.9-.7,1.2-.9,2.4-.9,3.5,.2Z"/>
      <path class="cls-55" d="M72.4,23.7c-1-.1-1.5-.8-1.6-1.7,0-.9,.5-1.4,1.4-1.2,1,.2,2,.6,1.9,1.8,0,.9-.9,1.1-1.7,1.1Z"/>
      <path class="cls-56" d="M71.1,24.1c.2,.3,.5,.6,.4,.9,0,.2-.4,.6-.6,.7-.5,0-.9-.3-.9-.8,0-.2,.5-.4,1.1-.7Z"/>
      <path class="cls-34" d="M73.2,54.7c.2-1.2-.2-2.6,1.6-2.5,.9,0,1.6,.8,1.3,1.8-.3,1-.6,2.4-1.9,2.4-1.3,0-.8-1.2-1-1.8Z"/>
      <path class="cls-4" d="M28.4,41.7c-.9-1.6-1.9-3.1-2.8-4.7-.4-2.8,.2-5.4,1.4-8,5.4-5.8,10-6.1,16.4-.8,2,3.2,2.6,6.6,1.4,10.2-1.8,3.3-4.7,5.3-8.3,6.1-3.1,0-5.7-1.1-8.1-2.9Z"/>
      <path class="cls-10" d="M17.9,62.7c-1.2,0-2.3-.2-3.5-.2-2-1-4.4-.9-6.3-2.6,1.6-1.4,1.1-4.7,4.4-4.6,1.2,.7,2.6,.6,3.9,.5,3.3,.4,6.8,0,9.9,1.6,0,1.7,1.2,2.8,1.9,4.4-1.2,.3-2.4,.6-3.6,.9-2.3,0-4.5,0-6.8,0Z"/>
      <path class="cls-38" d="M7.2,58.7c-.8-1.4-1.8-2.8-.8-4.1,.5-.7,1.8-.2,2.2,.4,1.1,1.7-1,2.3-1.4,3.7Z"/>
      <path class="cls-6" d="M27.2,57.3c0-.1,0-.3-.1-.4,1.5-1.5,3.2-1.1,4.9-.6,.9,1.4,.6,2.5-.9,3.2-3.3,2.7-2.2-2-3.8-2.2Z"/>
      <path class="cls-7" d="M36.7,56.6c0,2.5-2.4,2.8-3.7,4-.5-.1-.8-.4-.8-.9,.7-4,.8-4.1,4.6-3.1Z"/>
      <path class="cls-8" d="M36.7,56.6c-2.5-.4-4.1,.6-4.6,3.1-.4,0-.7,0-1.1-.1,.3-.9,.6-1.8,1-2.6-.3-.6-.3-1.1,.2-1.6,1.5,0,3,0,4.5,0,0,.4,0,.8,0,1.3Z"/>
      <path class="cls-41" d="M32.2,55.3c0,.5-.1,1.1-.2,1.6-1.6-.4-3.3-.3-4.9,0,.2-.6,.4-1.1,.5-1.7,1.5,0,3.1,0,4.6,0Z"/>
      <path class="cls-28" d="M35.3,35.7c-.9,0-1.1-.8-1-1.6,0-.8,.7-.9,1.3-.9,.9,0,1.2,.6,1.1,1.5-.1,.8-.7,.9-1.3,.9Z"/>
    </g>
  </g>
</svg>