<?xml version="1.0" encoding="UTF-8"?>
<svg id="Capa_2" data-name="Capa 2" xmlns="http://www.w3.org/2000/svg" viewBox="0 0 74.2 67.1">
  <defs>
    <style>
      .cls-1 {
        fill: #e7b4b4;
      }

      .cls-2 {
        fill: #d2c389;
      }

      .cls-3 {
        fill: #ddbaba;
      }

      .cls-4 {
        fill: #49492c;
      }

      .cls-5 {
        fill: #4d312e;
      }

      .cls-6 {
        fill: #352929;
      }

      .cls-7 {
        fill: #4d3b20;
      }

      .cls-8 {
        fill: #533d37;
      }

      .cls-9 {
        fill: #efc6c7;
      }

      .cls-10 {
        fill: #453c3c;
      }

      .cls-11 {
        fill: #f19a99;
      }

      .cls-12 {
        fill: #5b433b;
      }

      .cls-13 {
        fill: #463028;
      }

      .cls-14 {
        fill: #b98968;
      }

      .cls-15 {
        fill: #faf4f0;
      }

      .cls-16 {
        fill: #f4cbcb;
      }

      .cls-17 {
        fill: #3a2d1e;
      }

      .cls-18 {
        fill: #4a4429;
      }

      .cls-19 {
        fill: #8b4816;
      }

      .cls-20 {
        fill: #c2988d;
      }

      .cls-21 {
        fill: #cbbd87;
      }

      .cls-22 {
        fill: #43301c;
      }

      .cls-23 {
        fill: #b7968c;
      }

      .cls-24 {
        fill: #282018;
      }

      .cls-25 {
        fill: #442f2a;
      }

      .cls-26 {
        fill: #efe8db;
      }

      .cls-27 {
        fill: #3d3127;
      }

      .cls-28 {
        fill: #42332f;
      }

      .cls-29 {
        fill: #4f2927;
      }

      .cls-30 {
        fill: #261717;
      }

      .cls-31 {
        fill: #8e4d18;
      }

      .cls-32 {
        fill: #fdf8cd;
      }

      .cls-33 {
        fill: #f39a9a;
      }

      .cls-34 {
        fill: #c88f8b;
      }

      .cls-35 {
        fill: #fffefe;
      }

      .cls-36 {
        fill: #48322a;
      }

      .cls-37 {
        fill: #f09999;
      }

      .cls-38 {
        fill: #fefefe;
      }

      .cls-39 {
        fill: #543938;
      }

      .cls-40 {
        fill: #5a3a39;
      }
    </style>
  </defs>
  <g id="Capa_1-2" data-name="Capa 1">
    <path class="cls-30" d="M3.5,33.2c0-.6,0-1.6,.2-2.6,.7-4.3,1.7-8.3-2.1-12.3C-1.4,15.2,.2,9.5,3.6,6.1,6.9,2.7,12,1.6,16.3,3.9c2.1,1.1,3.4,.9,5.4,0,10.3-5.2,20.6-5.1,30.9,.1,1.9,1,3.3,1.2,5.4,0,5.1-2.8,11.2-1,14.5,3.9,3.1,4.5,2.2,10-2.4,13.9-1.5,1.2-.9,2.4-.6,3.6,5.8,25.6-16.2,47.1-41.6,40.5C13.9,62.3,3.5,48.6,3.5,33.2Z"/>
    <path class="cls-33" d="M71.4,12.6c.8,3.1-.3,5.6-2.9,7.2-2.3,1.4-4.9,0-6.2-2.8-.3-.7-.2-1.6-1.3-1.4-1.3,.2-.7,1.3-.9,2.1,.3,.7,0,1-.6,1.3-1.8,.5-3.2-.9-4.9-.9-1.2,0-2.5,0-3.7,0-1.4,0-2.6,.6-3.8,1.3-1.4,.8-2.4,1.9-2.9,3.4-.9,2.4,.1,5-.9,7.4-.6,1-1.5,1.3-2.6,1.4-2.4,.2-4.7,0-7.1,.4-2.7,.5-3.7-.8-3.1-3.4,.4-2,.4-4-.4-5.9-.6-1.6-1.8-2.7-3.2-3.5-3.3-1.7-6.7-1.5-10,0-1.3,.5-2.4,2.1-4.1,.9,1.2-1.4,1.1-2.9,.5-4.4-.4,.1-.7,.2-.8,.3-.7,2.9-2.2,4.8-5.4,4.2-3.3-.6-4.2-3.2-4.2-6.1,0-3.3,1.2-6,4.4-7.4,3.3-1.3,6.4-.7,9.5,.6h0c.2,1.2,1,1.8,2.1,2.3,.8,.4,1.6,1.5,2.4,0,1.5-3.3,4.8-3.9,7.7-4.6,7.4-1.7,14.8-1.5,21.7,2.2,1.1,.6,2.2,1.1,2.6,2.5,1.7,2,2-.5,2.9-.9,2.3-1.4,4.8-1.7,7.5-1.5,3.8,.2,6.3,2.1,7.7,5.5Z"/>
    <path class="cls-32" d="M15.1,54.1c-1.1-.8-1-2.1-1.6-3.2-1.7-4.5,.1-9.7,4.5-13.4,3.2-2.7,7.1-4.1,10.9-5.4,6.3-.6,12.6-1.6,18.8,.7,5.5,1.9,10.3,4.8,12.9,10.4,1.1,2.3,1.8,4.6,.4,7-.3,1-.7,2-1,2.9-3.9,4.1-7.5,8.5-13.4,9.7-11.3,2.2-22.1,2-30.4-7.8-.3-.4-.7-.7-1.2-.9Z"/>
    <path class="cls-11" d="M12.1,51.6c-6.5-8.4-7.4-17.7-4.6-27.6,.8-2.7,3.7-2,5.3-3.3,.8,1.6-.3,2.8-.7,4.2-.6,2-.9,4,0,6.1,1,2.1,2.4,3.7,4.6,4.6,1,.5,2.3,1.2,1,2.4-3.7,3.6-5,8-5.2,13,0,.2-.2,.4-.4,.6Z"/>
    <path class="cls-37" d="M63.1,21.6c2.1,.2,3.2,1.4,3.7,3.4,1.8,7.7,1.7,15.1-2.2,22.2-.5,1-1,1.9-1.5,2.9-1.3,.2-1.5-.8-1.4-1.6,.1-3.8-1.6-6.8-4-9.3-2.3-2.4-1.1-3.3,1.1-4.2,5-2.8,4.4-7.3,3.6-11.9,0-.6,.3-1.1,.8-1.5Z"/>
    <path class="cls-2" d="M15.1,54.1c2-.9,2.4,1.2,3.3,2,10.1,9.6,27.9,9.6,37.9-.1,1.1-1.1,1.9-2.8,3.8-2.8-3.4,7.1-9.6,10-16.8,11.4-9.1,1.7-17.5,0-24.9-5.9-1.4-1.2-2.7-2.6-3.2-4.5Z"/>
    <path class="cls-16" d="M53.2,9.6c-8.3-5-17.1-6-26.4-3-2,.7-3.8,1.8-5.6,2.9-.9-1.4-.9-2.3,.8-3.2,10.3-5.2,20.4-5.1,30.5,.4,1.6,.9,1.1,1.8,.6,2.9Z"/>
    <path class="cls-36" d="M12.1,51.6c-.5-5.8,1.3-10.7,5.9-14.5-3.1-1.2-5.6-2.5-6.7-5.6-.5-.8-.4-1.4,.5-1.8,.9,.2,1.3,1,1.9,1.7,3.1,3.5,4.6,3.8,8.7,1.9,1.7-.8,3.4-1.6,5.3-1.4,.5,.2,.9,.6,1.1,1.2-2.5,1.2-5.3,1.9-7.7,3.4-5.3,3.4-8.3,7.9-7.7,14.4-.5,.2-.9,.5-1.4,.7Z"/>
    <path class="cls-9" d="M71.4,12.6c-4-5.4-9.6-5-15.3-4,2.2-3,5.2-4.1,8.8-3.2,3.6,.9,6.1,3.1,6.5,7.1Z"/>
    <path class="cls-8" d="M12,29.9c-.2,.5-.4,1-.7,1.6-2-3.9,0-7.3,1.6-10.7-.1-.2-.1-.4,0-.6,3.4-1.2,6.3-3.8,10.3-3.1,1.7,.3,3.4,.5,4.7,1.7,.1,.7-.4,1-.9,1.1-4.9-.8-9.4-.8-12.7,3.9-1.4,1.9-.4,4.5-2.2,6.2Z"/>
    <path class="cls-13" d="M59.3,35.8c-.8,.4-1.7,.9-2.8,1.5,4.6,3.2,5.1,8.2,6.6,12.9,0,.8-.1,1.7-1,1.7-.4,0-.7-1.1-1.1-1.7,.3-9.2-6-13.1-13-16.5,.4-.5,.9-.7,1.5-.8,3,.5,5.8,2.3,9,1.6,.6,.2,1,.5,.9,1.2Z"/>
    <path class="cls-3" d="M16.8,7.2c-3.2-.2-6.3-.4-9.5-.6,3.3-2.3,6.5-1.8,9.5,.6Z"/>
    <path class="cls-1" d="M18.9,9.6c-1.8,.2-2.5-.6-2.1-2.4,1,.5,1.7,1.3,2.1,2.4Z"/>
    <path class="cls-34" d="M59.2,18.7c.3-.3,.7-.6,1-1,.5,1,1.1,1.9,1.6,2.9,0,.1-.2,.3-.3,.4-.7,.2-1.2-.2-1.7-.6-.4-.5-.8-1-.6-1.7Z"/>
    <path class="cls-23" d="M63.1,21.6c0,.5,0,1.1-.1,1.6-1.5,0-2.1-.7-1.5-2.2,0-.1,.2-.2,.3-.3,.6,0,1.1,.3,1.3,.9Z"/>
    <path class="cls-25" d="M49.8,33.5c-.6,0-1.2,.1-1.8,.2-6.3-1.7-12.7-2.1-19.1-.7-.3-.2-.7-.5-1-.7,1.2-3.1,2.6-6.2,1.7-9.7,.2-.6,.5-1,1.2-.9,2,3,1.1,6.1,.5,9.1h9.2c1.4,.6,2.6,0,3.9-.5,.3,0,.7,0,1,0,1.4,1.1,3.7,1.1,4.5,3.2Z"/>
    <path class="cls-29" d="M44.9,30.6c-.3,0-.7,0-1,.1-.5,0-.8-.4-.8-.9-.6-2.8-1-5.5,.7-8.1,.7,0,1,.4,1.2,.9-.5,2.7,.6,5.3,0,8Z"/>
    <path class="cls-12" d="M59.2,18.7c.3,.5,.6,.9,.9,1.4-.2,.6-.5,.9-1.1,1-2.1-1.2-4.9-1-6.5-3.1,.5-1,1.7-.3,2.4-.8,1.7-.2,2.8,1.3,4.4,1.5Z"/>
    <path class="cls-28" d="M46.6,18.7c1-1.1,2.3-1.6,3.8-1.4,.5,.4,1.6,0,1.6,1.1-1.2,1.5-2.8,1.6-4.5,1.6-.6-.2-1-.5-.9-1.2Z"/>
    <path class="cls-39" d="M46.6,18.7c.3,.2,.5,.5,.8,.7-.2,1.8-1.4,2.7-3,3.2-.2-.3-.5-.6-.7-.9,.6-1.4,1.3-2.6,2.8-3Z"/>
    <path class="cls-40" d="M30.7,21.7c-.2,.3-.5,.5-.7,.8-1.7-.3-2.7-1.3-3-3.1l.8-.7c1.5,.5,2.3,1.6,2.9,3Z"/>
    <path class="cls-24" d="M52,17.9c-.5-.2-1-.4-1.6-.7,1.5-.4,2.9-.2,4.4,0-.6,.8-1.6,.4-2.3,.7-.2,0-.3,0-.5,0Z"/>
    <path class="cls-20" d="M43.1,29.8c.3,.3,.6,.6,.8,.9-1.2,1.3-2.3,.5-3.5,0,.9-.3,2,0,2.7-1Z"/>
    <path class="cls-17" d="M55.7,45.7c.8,.2,1.8-1.2,2.2,0,.5,1.3-.9,2.1-1.7,3-.5,.2-1,0-1.4-.2-2.9-.9-2.9,2.8-5,3-1.1,.2-2.3-.1-2.5-1.1-1.3-4.8-5.5-4.6-9-4.9-3.9-.3-8,.1-11,3.2-1.8-.5-2.7-1.5-2.1-3.4,7.9-3.4,15.8-3.6,23.8-.3,2.1,.9,4.4,1.6,6.8,.6Z"/>
    <path class="cls-22" d="M24.9,45.8c1.2,.6,1.4,1.9,2.1,2.8,1.1,2.4-.5,2.6-2.2,2.8-1.7-.2-2-2.1-3.9-3.1,1.1,1.9,2.4,2.6,3.6,3.4,1.6,1.4,3.9,1.9,5,3.8-.2,.6-.5,1-1.2,.6-5.6-1.8-9.3-5.6-11.9-10.8,2.4,.5,4.6,1.2,6.9,.3,.5-.5,1-.5,1.4,0Z"/>
    <path class="cls-21" d="M24.9,45.8c-.5,0-1,0-1.4,0,7.7-4.3,15.7-4.8,23.9-1.8,2.7,1,5.4,1.7,8.3,1.8-2.3,1.4-4.8,.6-6.8-.2-8.1-3.2-16-2.9-23.9,.3Z"/>
    <path class="cls-7" d="M55.6,47.8c.2,.2,.4,.5,.7,.7-3.4,5-8.2,7.9-14.1,8.9-.5-.4-1.5,0-1.6-1,2.8-2.2,6.8-2,9.4-4.6,2.3-.7,2.8-4.2,5.8-4Z"/>
    <path class="cls-27" d="M40.4,56.7c.6,.3,1.1,.5,1.7,.8-4.6,.3-9.3,1.1-13.7-1.3,.3-.2,.7-.4,1-.6,3.9-1.4,7.4,.1,11,1.1Z"/>
    <path class="cls-4" d="M41.3,41c.3-1.4,1-2.4,2.9-3-.5,1.8-1.6,2.5-2.9,3Z"/>
    <path class="cls-18" d="M34,41.2c-2.3-.3-2.8-1.6-3.7-2.8,2.2-.4,2.5,1.3,3.7,2.8Z"/>
    <path class="cls-5" d="M59.3,20.8c.2-.2,.5-.5,.7-.7,.5,.3,1,.6,1.4,.9,.2,.9,.7,1.7,1.5,2.2,1.9,6.3,1.1,9-3.7,12.6-.3-.2-.6-.5-.9-.7,2.6-3.5,4.1-7.2,1.9-11.5-.4-.9-1-1.7-1-2.7Z"/>
    <path class="cls-35" d="M27,19.4c1,1,2,2,3,3.1,1.1,3.7,1.1,7.1-2.2,9.8-1.6,.6-3.3,1-4.9,1.7-5.3,2.6-8.2,1.5-11-4.1-1.5-7.3,6.8-14.4,15-10.5Z"/>
    <path class="cls-38" d="M59.3,20.8c4.7,5.7,4.5,9.7-.9,14.2-3.3,1.9-5.8-.8-8.6-1.5-1.5-1.1-3.8-.9-4.9-2.9-1.2-2.6-1.6-5.3-.5-8,1-1.1,2-2.1,3-3.2,1.5-.5,3-1,4.6-1.5,.2,0,.3,.1,.5,0,2.4,.7,4.9,1.3,6.9,2.9Z"/>
    <path class="cls-14" d="M40.4,56.7c-3.7,.1-7.4-.4-11-1.1-1.8-1-3.8-1.7-5.4-3.2-.3-.5-.4-1,.2-1.4,1.5,0,3-.3,2.8-2.4,0-1.7,.9-2.6,2.6-3,4.5-1.3,9-1.6,13.6-.5,2.1,.5,4.5,.7,4.4,3.9,0,1.6,1.5,1.8,2.7,1.9,.6,.4,.5,.9,.1,1.3-2.7,2.9-6.5,3.3-10,4.4Z"/>
    <path class="cls-19" d="M50.4,52.3c0-.4,0-.9-.1-1.3,1.3-1.9,1.6-5.4,5.3-3.1-2.1,1.1-2.8,3.7-5.2,4.5Z"/>
    <path class="cls-26" d="M50.5,48.1c-.2,.3-.4,1-.9,1.2-.8,.3-.9-.5-.9-1.1,0-.7,.3-1.2,1.1-1,.4,0,1,0,.8,1Z"/>
    <path class="cls-31" d="M24.2,51c0,.5-.1,1-.2,1.4-.9-.6-1.9-1.2-2.7-1.9-.7-.6-1.7-1.2-1.6-2.3,0-.9,.9-.6,1.4-.7,1.4-.5,1.6,.8,2,1.6,.4,.6,.7,1.3,1,2Z"/>
    <path class="cls-15" d="M25.7,48.2c0,.4,0,1-.6,1.1-.8,0-.9-.6-1-1.2-.1-.6,.3-.8,.8-.9,.8-.1,1.1,.3,.9,1.1Z"/>
    <path class="cls-6" d="M21.2,26c.6,0,1.2,.2,1.3,.9,.1,.9-.3,1.4-1.2,1.5-.8,.1-1.2-.4-1.3-1-.2-.9,.3-1.3,1.1-1.4Z"/>
    <path class="cls-10" d="M54.6,27.4c-.3,.8-.8,1.2-1.7,1.1-.7-.1-1.1-.6-1-1.3,.2-.8,.8-1.3,1.6-1.1,.6,.1,1,.6,1,1.3Z"/>
  </g>
</svg>