<?xml version="1.0" encoding="UTF-8"?>
<svg id="Capa_2" data-name="Capa 2" xmlns="http://www.w3.org/2000/svg" viewBox="0 0 71 69">
  <defs>
    <style>
      .cls-1 {
        fill: #050504;
      }

      .cls-2 {
        fill: #bc717d;
      }

      .cls-3 {
        fill: #94cec6;
      }

      .cls-4 {
        fill: #ab2b31;
      }

      .cls-5 {
        fill: #23413b;
      }

      .cls-6 {
        fill: #83aca4;
      }

      .cls-7 {
        fill: #020404;
      }

      .cls-8 {
        fill: #294741;
      }

      .cls-9 {
        fill: #ec8898;
      }

      .cls-10 {
        fill: #0f1e1d;
      }

      .cls-11 {
        fill: #97cac3;
      }

      .cls-12 {
        fill: #9ac8c2;
      }

      .cls-13 {
        fill: #b8707e;
      }

      .cls-14 {
        fill: #99b9b6;
      }

      .cls-15 {
        fill: #0a0908;
      }

      .cls-16 {
        fill: #26483f;
      }

      .cls-17 {
        fill: #fbfbfb;
      }

      .cls-18 {
        fill: #98c1be;
      }

      .cls-19 {
        fill: #a62c2f;
      }

      .cls-20 {
        fill: #123b3b;
      }

      .cls-21 {
        fill: #17302e;
      }

      .cls-22 {
        fill: #e1e0e0;
      }

      .cls-23 {
        fill: #abadad;
      }

      .cls-24 {
        fill: #2c1e1f;
      }

      .cls-25 {
        fill: #342827;
      }

      .cls-26 {
        fill: #bfc2c2;
      }

      .cls-27 {
        fill: #1e1b18;
      }

      .cls-28 {
        fill: #fcfcfc;
      }
    </style>
  </defs>
  <g id="Capa_1-2" data-name="Capa 1">
    <g>
      <path class="cls-7" d="M35.3,69c-18,0-33.2-12.8-35.1-29.4C-1.8,20.7,9.4,4.8,27.6,.8c21.7-4.7,41.8,11.4,41.9,33.5,0,1.7-.2,3.5,.5,5.2,2.9,7.8-.3,13.9-5.9,19-8.1,7.3-17.9,10.5-28.7,10.5Z"/>
      <path class="cls-3" d="M68.4,43.3c0,.5,0,1,0,1.5-.5,.5-1.1,.9-1.6,1.4-1.3,3.1-3.9,4-7,4-4.2,0-8.1,.7-11.7,3.2-3.2,2.2-5.9-.4-8.7-1.4-1.8-1.1-3.8-.9-5.8-1-5.8-.2-11.6,.4-17.4-.4-3.4-.5-5.7-2.1-7-5.3-5.8-9.6-4.4-19.4-.7-29.2C13.6,8.4,21,4.2,30,2.9c4.9-.7,9.9-.7,14.6,1.2,.5,.8,1,1.8,2.1,2,5.1,1,8.3,4.9,12.1,8,1.6,1.3,1.5,2.6-.4,2.9-1.8,.3-2.4,2.1-4,2.4-.5-.2-.9-.6-1.2-1-.4-.3-.8-.9-1.2-.5-.6,.6,0,1.4,0,2.1,.1,.7,.2,1.4,.3,2,.3,1.4,1.3,2.5,1.8,3.8,.7,3.4,.2,6.9,.3,10.4,.1,4,.4,4.2,4.4,3.7,1.6-.2,3.1-.9,4.8-.6,2.6,0,2.7,3.1,4.6,3.9Z"/>
      <path class="cls-6" d="M8.6,16.2c.3,3.4-1.1,6.6-1.6,9.9-1.1,6.8-.2,13,3.1,18.9-.4,3.2,2.2,4,4.1,5.5,.8,3.2,3.5,4.7,6,6.4,6.6,4.7,13.9,7,22,6.5,2.1-.1,4.5-.7,6.4,1.1-12.5,5.6-29.7,1.5-38.8-9.2C.8,44.8,0,28.7,7.5,17.2c.3-.4,.7-.7,1-1Z"/>
      <path class="cls-11" d="M48.5,64.4c-5.5-.3-11,.6-16.4-.9-4.8-1.3-9.5-3-13.1-6.7,.3-.3,.7-.4,1.1-.5,4.9,1.5,9.5,4.1,14.8,4.3,2.6,.6,5.3,.6,7.9,0,5.4-.5,10.3-2.3,14.5-5.8,.9-.8,1.9-1.6,3.2-1.8,5.3,.9,.5,3,.6,4.6-3.6,3.3-7.8,5.6-12.6,6.7Z"/>
      <path class="cls-12" d="M53.6,25.3c-1.9,0-1.4-2-2.3-2.9,1.4-1,.4-3.9,3-3.8,1.1-1.6,2.5-2.8,4.8-2.6-2.5-2-4.2-4.4-7.1-5.9-2.1-1.1-3.4-3.1-6.3-3-1.7,0-1-1.9-1.1-3,12.7,3.4,22.2,15.6,22.4,28.9,0,3.5,.2,6.9,1.3,10.3-2.9,1.1-2.4-2.9-4.5-3.1,.8-4,.5-8.1-.1-12.1-.3-2.1-.7-4.2-1.6-6.1-.7-1.5-1.6-3-3.4-3-1.7,0-2.3,1.6-2.9,3-.5,1.2-.7,2.7-2.2,3.2Z"/>
      <path class="cls-18" d="M61.1,57.7c.1-.7,0-1.5,.4-2.1,1.6-2.1-.3-1.7-1.3-1.8-.1-2.2,1.1-3.8,2.9-4.2,2.7-.7,3.2-2.5,3.4-4.8,.7,0,1.3,0,2,0,.4,5.9-3.3,9.5-7.4,12.9Z"/>
      <path class="cls-1" d="M10.8,28.1c.4-2.9,1.3-5.5,3.2-7.8,3-3.6,7.9-4,11-.5,5.1,5.9,4.5,13.1,3.7,20.1-.2,1.7-2.1,1.8-3.6,1.8-4,0-7.9-.3-11.9-.9-.5-.9-.5-2-.8-2.9-.3-3.7-.5-7.4,.5-10.8-.7,.7-.2,2.3-1.5,2.8-1-.4-.8-1.1-.5-1.9Z"/>
      <path class="cls-15" d="M53.6,25.3c.7-1.7,1.1-3.5,2-5.1,1.5-2.7,4.1-3.1,6-1.1,3.3,3.5,4.8,17,2.3,21.1-2.1,.4-4.2,.6-6.2,1.1-3.1,.9-4.1-.5-4.1-3.4,0-4.2,0-8.4,0-12.7Z"/>
      <path class="cls-27" d="M66.5,44.8c1.1,2,.9,3.8-1.3,4.5-2.5,.8-3.7,2.6-5,4.5-4.8,4.4-10.3,7.4-17,7.6-.9,.5-1.9,.3-2.9,.2-.3-.3-.5-.6-.4-1,1.6-1.4,3.7-1.3,5.6-1.7,3.7-.9,7.2-1.9,10-4.6,.5-.6,.9-1.3,.3-1.9-.8-.9-1.8-.3-2.7,0-1.2,.5-2.2,1.2-3.3,1.8-4,2.2-7.3,1.7-10.7-1.7,0-.7,0-1.2,1-.9,3.7,2,7.1,2.7,10.6-.8,1.7-1.7,4.7-1.2,7.1-1.4,3.6-.2,7.4,0,8.6-4.6Z"/>
      <path class="cls-24" d="M40.2,51.5c-.3,.2-.5,.4-.8,.6-4.1,0-8.2,.5-12.3,.4-3.2,.5-6.4-1.4-9.6,0-.3,.4-.7,.7-1.3,.8-1.4-.3-1.9-1.4-2.3-2.6-1.8-1.6-5.7-1.8-3.9-5.8,1.1,3,3.2,4.3,6.5,4.6,5.8,.6,11.7,.5,17.5,.3,2.3,0,4.4-.2,6.2,1.6Z"/>
      <path class="cls-10" d="M13.3,38.8c.9,.8,0,1.4-.2,2.1-1.9,0-3-1.1-3-3,0-3.3-.5-6.6,.6-9.9,.2,.6,.5,1.1,.7,1.7,1.6,1.5,.6,3.4,.9,5.1,.3,1.3-.7,2.9,.9,3.9Z"/>
      <path class="cls-5" d="M26.2,17.5c3.4,.9,4,2.8,3.9,5.1-1.1-1.5-2.2-2.9-3.9-5.1Z"/>
      <path class="cls-12" d="M51.4,20.1c-.4-1.2-1.6-2.5,0-3.6,1-.6,1.9-.2,2.2,1.1-.6,.9-.5,2.5-2.2,2.4Z"/>
      <path class="cls-21" d="M51.4,20.1c.8-.8,1-2.1,2.2-2.4,.2,.3,.5,.6,.7,.9-1.8,.6-.6,3.6-3,3.8,0-.8,0-1.5,0-2.3Z"/>
      <path class="cls-8" d="M39,45.3c1.7,0,2.6,.8,2.8,2.2,0,.2-.5,.7-.7,.7-1.5-.3-1.3-1.9-2.2-2.9Z"/>
      <path class="cls-16" d="M49.4,48.4c.2-2.4,.5-3.5,2.2-3.8,0,1.5-.8,2.3-2.2,3.8Z"/>
      <path class="cls-14" d="M13.9,50.8c.7,.7,1.5,1.5,2.2,2.2,1.6,.9,3.6,1.3,3.8,3.7-.3,0-.6,0-.9,0-2.4-1.4-5.3-2.4-5.2-6Z"/>
      <path class="cls-25" d="M19.9,56.7c-1.1-1.4-2.9-2-3.8-3.7,.3-.3,.5-.5,.8-.8,2.3-.2,3.3,2.2,5.2,2.8,4.8,2.6,9.9,4.4,15.4,4.6,1,0,2,.1,2.6,1.1,0,.2,0,.4,0,.5-1.9,.7-3.7,.5-5.6,.2-5.4,0-10-2.3-14.6-4.7Z"/>
      <path class="cls-20" d="M34.5,61.4c1.9,0,3.8-.1,5.6-.2,1,0,2.1,0,3.1,.1-2.9,.9-5.8,1-8.7,0Z"/>
      <path class="cls-4" d="M20.8,40.2c-1.2,0-2.5,0-3.7,0-2.3-.2-4-3.6-2.5-5.4,.9-1.2,2-2.3,3.3,.1,1.6,3.1,4.1,3.2,6.1,.7,.7-.9,.9-2.6,2.7-1.6,1.4,.8,1.6,2.2,1.3,3.6-.3,1.2-.3,2.9-2.3,2.8-1.6,0-3.2,0-4.8,0,0,0,0-.1,0-.2Z"/>
      <path class="cls-17" d="M25,23.3c-.2,2.7-1.4,4.5-4,4.5-2.5,0-4.2-1.3-4.2-4.1,0-2.5,1.4-4,3.8-4.2,2.6-.2,4.1,1.3,4.4,3.8Z"/>
      <path class="cls-22" d="M13.3,38.8c-1.7,.2-1.9,.2-2-1.3,0-2.6,0-5.2,.1-7.7,.4-2,.6-4.1,2.1-5.8-.2,4.9-1.1,9.9-.3,14.8Z"/>
      <path class="cls-19" d="M55.1,34c3.3,4.1,3.5,4.1,6.5-.3,1.3,1.7,1.5,3.9,.2,5.1-1.5,1.3-4,2.2-5.8,1.3-2-1-.9-3.5-.9-6.1Z"/>
      <path class="cls-28" d="M60.7,23.9c-.2,1.8-.2,3.9-2.6,3.7-2-.1-2.2-2.1-2.2-3.7,0-1.8,.3-3.9,2.5-3.9,2.5,0,2.1,2.3,2.4,3.9Z"/>
      <path class="cls-26" d="M63.9,32.1v6.5c-.8-2.8-.6-4.7-.3-6.5h.3Z"/>
      <path class="cls-23" d="M63.9,32.1s-.3,0-.3,0c-.3-1.1-.4-2.2,.2-3.2,.6,1,.4,2.1,.2,3.2Z"/>
      <path class="cls-9" d="M40.1,60.7c-6.8-.2-13.3-1.2-18.9-5.3,.7-2.9,3-3.4,5.5-3.8,4.2,.3,8.6-1.6,12.7,.6,3.9,2.9,7.8,3.9,11.6,0,.6-.7,1.6-.7,2.4-.7,2.1,0,3.3,1,3.2,3.2-4.6,4.6-10.5,5.3-16.5,6.1Z"/>
      <path class="cls-2" d="M56.6,54.6c-.7-1.4-1.9-2.3-3.2-3.2,1.1-.5,2.3-1.1,3.2,0,.7,.9,1.3,2.1,0,3.1Z"/>
      <path class="cls-13" d="M26.6,51.6c-2.4,.4-3.5,2.8-5.5,3.8-1.9-.3-2.8-2.2-4.3-3.1-.7-1.5,.4-1.3,1.2-1.2,2.8,.2,5.7,.4,8.5,.6Z"/>
    </g>
  </g>
</svg>