<?xml version="1.0" encoding="UTF-8"?>
<svg id="Capa_2" data-name="Capa 2" xmlns="http://www.w3.org/2000/svg" viewBox="0 0 83.6 74.5">
  <defs>
    <style>
      .cls-1 {
        fill: #e8c74a;
      }

      .cls-2 {
        fill: #d7c8c8;
      }

      .cls-3 {
        fill: #c9d99f;
      }

      .cls-4 {
        fill: #8e4f2e;
      }

      .cls-5 {
        fill: #4aab3d;
      }

      .cls-6 {
        fill: #f2d348;
      }

      .cls-7 {
        fill: #dcbc99;
      }

      .cls-8 {
        fill: #ba914c;
      }

      .cls-9 {
        fill: #231915;
      }

      .cls-10 {
        fill: #c29247;
      }

      .cls-11 {
        fill: #44311d;
      }

      .cls-12 {
        fill: #442f22;
      }

      .cls-13 {
        fill: #331d10;
      }

      .cls-14 {
        fill: #d2dea1;
      }

      .cls-15 {
        fill: #493414;
      }

      .cls-16 {
        fill: #cbdb9e;
      }

      .cls-17 {
        fill: #cedda0;
      }

      .cls-18 {
        fill: #dab992;
      }

      .cls-19 {
        fill: #cddc9f;
      }

      .cls-20 {
        fill: #ccd79f;
      }

      .cls-21 {
        fill: #292b17;
      }

      .cls-22 {
        fill: #49ab3e;
      }

      .cls-23 {
        fill: #4aab3e;
      }

      .cls-24 {
        fill: #eec996;
      }

      .cls-25 {
        fill: #b98f4c;
      }

      .cls-26 {
        fill: #e0c29d;
      }

      .cls-27 {
        fill: #49ac3e;
      }

      .cls-28 {
        fill: #49ac3d;
      }

      .cls-29 {
        fill: #3d2712;
      }

      .cls-30 {
        fill: #b9b9ba;
      }

      .cls-31 {
        fill: #422e14;
      }
    </style>
  </defs>
  <g id="Capa_1-2" data-name="Capa 1">
    <g>
      <path class="cls-9" d="M54.8,16.4c0,.1,.1,.3,.2,.3,3.1,1,4.3,3.9,6.4,5.7,1.6,1.4,5.2-1.7,8.3-.9,5.1,1.3,8.6,6,7.7,11.2-.4,2.2,.2,3,1.8,4.1,3.4,2.3,4.8,5.7,4.2,9.7-.6,4-2.9,6.9-6.8,8.1-2,.6-3.1,1.6-4.1,3.4-13.1,21.9-44.4,22-57.7,0-.9-1.5-1.7-2.3-3.7-2.1-5.4,.4-9.5-2.5-10.7-7.3-1.2-4.7,.8-9,5.6-11.4,1-.5,1.9-.5,1.5-2.3-1.4-6.1-.3-9.7,3.6-12.2,3.7-2.4,7.9-2,12.9,1.3,1.1-3.6,2.9-6.5,7-7.5-1.4-1.8-3.4-2.4-4.9-3.5-.9-.7-2-1.3-2.5-2.1-1.4-2.1,.7-6.2,4.3-9.1,2.4-1.9,4.7-2.9,7.3-.3,1.9,2,4,3.8,5.8,5.9,1.5,1.7,2.6,1.5,4,0,1.8-1.9,3.8-3.6,5.6-5.6,2.2-2.5,4.6-2.3,6.9-.5,1.4,1,2.7,2.3,3.6,3.7,2.8,3.9,2.3,5.9-1.8,8.4-1.5,.9-3.2,1.5-4.2,2.9Z"/>
      <path class="cls-10" d="M30.7,40.7c-.1-2.3-1.5-3.7-3.2-5-.5-3.1-.3-6.2-.3-9.3,0-5,1.2-6.3,6.2-7.1,.9-.1,1.7-.1,2.5-.6,2.4,.3,1.4,2.8,2.8,4.1,1.2-2.2,.9-3.9-1.2-5.1-2.3-1.4-4.7-2.7-7-4.3-1-.6-2.7-.8-2.4-2.6,1.6-2.4,3.4-4.5,5.5-6.5,2.9,.9,4.3,3.6,6.4,5.5,2,1.7,3.6,1.9,5.4-.1,1.7-1.8,3.4-4.5,5.5-4.8,2-.4,2.4,3.5,4.5,4.7,.4,.3,.8,.5,1.3,.8,.4,0,.6,.3,.8,.6-1.9,3.3-5.8,3.9-8.5,6-2.6,2-2.9,2.5-1.6,6.3,.9-2.9,1.7-5.4,5.3-4.8,3.3,.6,5.5,2,6.5,5.3,1.5,9.8,.6,19.6,.9,29.5,0,1.2-.2,2.5,.4,3.7,2.1,.4,2.8-.7,3.1-2.5,2.2-1,4.5-2.1,6.8,0,1.6,1.5,0,2.5-.6,3.5-3.3,5-7.5,8.9-13,11.4-2,.9-3.9,2.5-5.6-1-1-2-3.4-1.5-4.4,.6-.9,1.9-1.3,3.8-4,3.1-2.9-.7-.9-3.2-1.8-4.6q-3.9-5.2-6.7,.9c-.1,.2-.3,.4-.5,.6-.2,1.5-.9,1.4-2.1,.9-6.6-2.9-11.9-7.4-15.3-13.9-.6-1.1-1-2.2,.3-2.9,1-.6,1.2-3.3,3.3-1.5,.3,5,5.1,10.3,9.8,10.6,1.1-2.3-1.8-1.8-2.1-3.1-.6-2.8-1-5.5-.8-8.4,1.7-1.3,3.5-2.7,3.7-5.1,.3-.6,.8-1.1,1.4-.8,6.4,2.6,13,.7,19.5,1.2,1.1,0,2.5-.3,2.3-1.8-.2-1.3-1.4-1-2.4-.9-6.3,.7-12.6,0-19,.2-2.2,0-1.1-1.8-1.7-2.7Z"/>
      <path class="cls-28" d="M13.4,39.5c4.2,2.2,5.6,5.9,3.7,9.7-2,4-6.4,5.8-10.3,4.1-3.9-1.7-5.7-6.3-3.9-10.3,.3-.8,.9-1.4,1.4-2.1,3.5,2.5,6.3,.6,9.1-1.5Z"/>
      <path class="cls-27" d="M21,25.2c3.5,1.5,3.1,4.7,3,7.6,0,.8-.4,1.5-1.4,1.4-2.8-.2-4.9,1.3-7,2.9-2,1.5-4,.4-5.4-1.4-2.6-3.2-2-7.2,1.5-10.5,3.5,3.6,5.3,3.6,9.3,0Z"/>
      <path class="cls-5" d="M68.8,38.7c.5,.8,1.1,1.4,2,1.6,3,2.9,3.3,6.6,.8,9.9-2.3,3.1-7,4.5-9.9,3-1.2-.6-1.8-1.6-1.8-3,0-2.1-.1-4.2,0-6.3,.1-.3,.3-.8,.6-.8,3.5,0,4.8-2.6,5.9-5.3,1.1-.6,1.8,0,2.4,.9Z"/>
      <path class="cls-21" d="M60.8,43.5c0,1.7,0,3.5,0,5.2,0,3.6,1,4.6,4.6,4.2,6-.6,8.4-6.1,5.5-12.6,.4,0,.9-.2,1.3-.2,1.6,.2,2,1.4,2.6,2.6,.6,2.2,.5,4.5-.7,6.5-1.1,1.8-.6,2.9,.9,4-1.2,1.4-3.2,0-4.4,1.2-2.4-.4-4.6,0-6.8,.9-.2,1.7-2,2-2.8,3.1-.3,.7-.2,2.1-1.5,.8-.3-.3-.2-1-.2-1.4,0-11.3,0-22.5,.1-33.8,1.3,1.3-.1,3.3,1.3,4.6,1.5,3,4.5,6,7.8,7.7,.2,.1,.4,.3,.5,.5,0,.7,0,1.4,0,2.1-.8-.2-1.7-.4-2.5-.7-3.6,.1-4.9,2.5-5.5,5.5Z"/>
      <path class="cls-23" d="M68.8,36.5c-2.5-.3-5.6,0-7.4-1.2-1.9-1.4-.1-4.6-.9-7,0,0,.3,.1,.3,.1,1.3-.5,2.2,1,3.4,.9,3.6-.2,4.3-2.7,4.7-5.6,3.2,.2,5.2,2.1,6.2,5,1.4,4-.1,6.5-4.2,7-.7,0-1.5,0-2,.8Z"/>
      <path class="cls-22" d="M26.1,37.2c3,1.7,4.3,4.3,3.4,7.7-.8,3.1-4.3,5.5-7.3,5.2-1.7-.2-3.2-.7-2.8-3,.4-2.6-.8-4.8-1.9-7,2.8-1.3,6.1-1,8.7-2.9Z"/>
      <path class="cls-23" d="M74.8,53.1c-2.8,.2-4.6,0-2.1-3.4,1.6-2.1,1.4-4.7,1.2-7.1,.3-1.8,1.1-3.4,2.2-4.8,3.6,1.2,5.4,3.9,5.3,7.5-.1,4.2-2.7,6.7-6.7,7.8Z"/>
      <path class="cls-13" d="M30.7,40.7c.4,3.4,2.4,.8,3.7,1.1,4.7,1.1,9.4,.6,14.1,.6,1.1,0,2.2-.1,3.3-.4,1.6-.3,3.1-.5,3.5,1.6,.4,2.2-.8,3.5-2.8,3.5-3.5,.2-7,0-10.5,0-3.9,0-7.8,.5-11.4-1.6,0-1.6,0-3.2,0-4.8Z"/>
      <path class="cls-17" d="M68.8,23.8c1.3,2.5,.7,4.5-1.9,5.7-2.3,1.1-4.6,2.1-6.2-1,1.4-4,3.3-5.1,8.1-4.7Z"/>
      <path class="cls-7" d="M35.9,18.7c-.5,1.9-2.2,1.5-3.4,1.6-3.4,.6-4.3,2.4-4.4,5.7,0,3.2,.9,6.6-.7,9.7-1.4-.5-1.4-1.6-1.4-2.7,0-1.7,0-3.5,0-5.2,0-7.5,2.1-9.4,9.8-9Z"/>
      <path class="cls-14" d="M21,25.2c-.3,3.1-2.4,3.9-5,3.7-2.1-.2-4.7-.3-4.3-3.6,3.5-2.5,6-2.5,9.3,0Z"/>
      <path class="cls-6" d="M40.2,68.8c0,5.3-3.2,2-5.2,2.1-.6-1.8-.8-3.5,0-5.3,.5-1.2,.9-2.5,2.4-2.4,1.4,0,1.8,1.4,2.5,2.5,.6,1-.3,2.2,.4,3.2Z"/>
      <path class="cls-16" d="M26.1,37.2c-1.9,4-5.4,3.2-8.7,2.9-1.5-1.1-.4-2,.4-2.6,2.7-2,5.4-2.9,8.3-.3Z"/>
      <path class="cls-19" d="M13.4,39.5c-2.7,4.4-7.1,5.1-9.1,1.5,2.7-2.6,5.7-3.5,9.1-1.5Z"/>
      <path class="cls-8" d="M56.8,8.8c-2.4-1.5-3.2-3.9-3.7-6.9,4,1,6,3.4,7.3,6.6,.4,1.1,0,1.6-1.2,1.6-.8-.5-1.8-.5-2.3-1.4Z"/>
      <path class="cls-25" d="M26.7,10.2c-3.3-2.1-.2-3.6,.7-4.9,2.2-3.1,3.7-3.4,5.3-1.9-.6,3.6-2.5,5.9-6,6.8Z"/>
      <path class="cls-26" d="M29.7,62c-.9,1-2,.7-3,.1-3.6-2.1-6.4-4.9-7.7-9-.3-1-.4-1.7,.9-1.7,1.9,4.8,4.9,8.6,9.8,10.6Z"/>
      <path class="cls-15" d="M40.2,68.8c-1.4-1.5-.4-5.7-3.2-4.9-2.4,.7-2.2,4.3-2,7-1-.3-.6-1.6-1.3-2.1,0-.6,0-1.2,.1-1.8,.5-2.1,1.1-4.6,3.6-4.6,2.5,0,3.3,2.5,3.5,4.9-.2,.5-.4,1-.6,1.5Z"/>
      <path class="cls-3" d="M76.1,37.8c.4,2.1-.9,3.5-2.2,4.8-.6-.8-1.2-1.7-1.8-2.5-.5-.8-1-1.6-1.7-2.7,2.2-.2,4-.7,5.7,.4Z"/>
      <path class="cls-24" d="M26.8,50.6c1,2.7,1.8,5.4,.8,8.4-2.7-2.6-1.5-5.5-.8-8.4Z"/>
      <path class="cls-29" d="M26.7,10.2c2.7-1.7,4.5-4.1,6-6.8,.3,.3,.6,.6,1,.9-.8,3-2.8,5-5.5,6.5-.5-.2-1-.4-1.5-.7Z"/>
      <path class="cls-1" d="M47,71.6c.5-1.6,.5-3.4,2.5-3.3,1.1,0,1.8,1.4,1.4,2.2-.8,1.6-2.4,1.2-4,1.1Z"/>
      <path class="cls-31" d="M56.8,8.8c.8,.5,1.5,.9,2.3,1.4-.6,0-1.2,.1-1.5,.7-.3-.2-.5-.4-.8-.6,0-.5,0-1,0-1.5Z"/>
      <path class="cls-11" d="M46.2,33.4c.2-1.5-.3-3.9,1.6-4,2.1,0,2,2.4,2,4,0,1.7,.1,4.2-1.9,4.2-2,0-1.6-2.6-1.8-4.2Z"/>
      <path class="cls-12" d="M39.7,33.6c0,1-.1,1.8-.2,2.5-.2,.9-.5,1.8-1.6,1.7-.8,0-1.2-.8-1.4-1.5-.1-.8-.2-1.7-.2-2.6,.1-1.6-.5-4.3,1.5-4.3,2.3,0,1.5,2.8,1.8,4.2Z"/>
      <path class="cls-18" d="M60.7,58.2c0-1.8,2-2,2.8-3.1,.9,0,1.6,.3,.6,1.2-.9,.9-2,1.8-3.4,1.9Z"/>
      <path class="cls-20" d="M60.8,43.5c-.2-6,.5-6.7,5.5-5.5,.3,4.4-1.5,6.2-5.5,5.5Z"/>
      <path class="cls-4" d="M43.3,46.1c-2.6,0-5.2,0-7.9,0-1.2,0-2.4-.8-2.3-2,.1-1.4,1.6-.9,2.5-.8,5.3,.3,10.6,.2,16,0,.9,0,2.4-.6,2.5,.8,.2,1.5-1.2,2.1-2.5,2.1-2.7,0-5.5,0-8.2,0,0,0,0,0,0,0Z"/>
      <path class="cls-2" d="M48.1,31.1c.5,1.2,.8,2.1,0,2.6-.6,.3-.9-.5-.7-1.2,0-.3,.3-.6,.7-1.4Z"/>
      <path class="cls-30" d="M37.9,34.1c-.9-1.1-.6-1.9-.2-3,1.2,1,1,1.8,.2,3Z"/>
    </g>
  </g>
</svg>