<?xml version="1.0" encoding="UTF-8"?>
<svg id="Capa_2" data-name="Capa 2" xmlns="http://www.w3.org/2000/svg" viewBox="0 0 77.7 75.1">
  <defs>
    <style>
      .cls-1 {
        fill: #dfd8d6;
      }

      .cls-2 {
        fill: #d5cdcd;
      }

      .cls-3 {
        fill: #4c3c3c;
      }

      .cls-4 {
        fill: #523e3d;
      }

      .cls-5 {
        fill: #ca3040;
      }

      .cls-6 {
        fill: #d65671;
      }

      .cls-7 {
        fill: #27313a;
      }

      .cls-8 {
        fill: #122c32;
      }

      .cls-9 {
        fill: #d9928f;
      }

      .cls-10 {
        fill: #2c3a42;
      }

      .cls-11 {
        fill: #14a1c9;
      }

      .cls-12 {
        fill: #8aa2ac;
      }

      .cls-13 {
        fill: #582f3b;
      }

      .cls-14 {
        fill: #07a1d2;
      }

      .cls-15 {
        fill: #3c2826;
      }

      .cls-16 {
        fill: #8ecef3;
      }

      .cls-17 {
        fill: #96cfde;
      }

      .cls-18 {
        fill: #e2dada;
      }

      .cls-19 {
        fill: #613c41;
      }

      .cls-20 {
        fill: #249bc4;
      }

      .cls-21 {
        fill: #10a4c6;
      }

      .cls-22 {
        fill: #3a4e5f;
      }

      .cls-23 {
        fill: #352727;
      }

      .cls-24 {
        fill: #97d0e0;
      }

      .cls-25 {
        fill: #cc8786;
      }

      .cls-26 {
        fill: #97c1ce;
      }

      .cls-27 {
        fill: #f9ecf2;
      }

      .cls-28 {
        fill: #4d1b21;
      }

      .cls-29 {
        fill: #90c9dd;
      }

      .cls-30 {
        fill: #e56f7f;
      }

      .cls-31 {
        fill: #3f4040;
      }

      .cls-32 {
        fill: #272c2c;
      }

      .cls-33 {
        fill: #201819;
      }

      .cls-34 {
        fill: #cd3141;
      }

      .cls-35 {
        fill: #122d36;
      }

      .cls-36 {
        fill: #fcfbfc;
      }

      .cls-37 {
        fill: #23313a;
      }

      .cls-38 {
        fill: #2893c2;
      }

      .cls-39 {
        fill: #352323;
      }

      .cls-40 {
        fill: #cba195;
      }

      .cls-41 {
        fill: #2a626a;
      }

      .cls-42 {
        fill: #2d3132;
      }

      .cls-43 {
        fill: #a22547;
      }

      .cls-44 {
        fill: #f19b9c;
      }

      .cls-45 {
        fill: #3a1117;
      }

      .cls-46 {
        fill: #5e6c64;
      }

      .cls-47 {
        fill: #de9b96;
      }

      .cls-48 {
        fill: #3e3b40;
      }

      .cls-49 {
        fill: #985552;
      }

      .cls-50 {
        fill: #158c98;
      }

      .cls-51 {
        fill: #e4dfdf;
      }

      .cls-52 {
        fill: #00a2d5;
      }

      .cls-53 {
        fill: #2a3031;
      }

      .cls-54 {
        fill: #5c6b64;
      }

      .cls-55 {
        fill: #bdbcbf;
      }

      .cls-56 {
        fill: #bd5264;
      }

      .cls-57 {
        fill: #f2eff0;
      }

      .cls-58 {
        fill: #ed818e;
      }

      .cls-59 {
        fill: #eea49d;
      }

      .cls-60 {
        fill: #f1efee;
      }

      .cls-61 {
        fill: #d23444;
      }

      .cls-62 {
        fill: #126c8e;
      }
    </style>
  </defs>
  <g id="Capa_1-2" data-name="Capa 1">
    <g>
      <path class="cls-33" d="M62.5,40.4c.2-.7,.3-1.5,.6-2.2,.4-1.2,0-3.2,1.8-3.2,1.7,0,3.6-.4,5.1,1.5,2.6,3.3,3.1,2.9,5.1-.8,3.6-6.7,3.4-12.9-1-19.1-3.8-5.3-9.5-7.4-15.4-4.8-3,1.3-5,.6-6.8-1.6-1.6-1.9-3.2-3.9-4.8-5.8-4.5-5.4-9.1-6-14.5-1.6-1.2,1-2.1,.8-3.3,.4-6.4-2.1-11-.6-15.1,4.8-2.5,3.3-4.3,7.1-5.1,11.1-.9,4.5-2.7,8.4-6.3,11.5-2.4,2-2.7,4.4-.4,6.8,1.4,1.5,1.6,2.9,.2,4.6-.7,.9-1.1,1.9-1.6,2.9-1.8,3.8-1.5,5.1,2.5,6.4,2.9,1,4,2.4,3.5,5.4-.4,2.8,.9,4.6,3.8,4.9,6.3,.6,12,2.8,17.7,5.4,2.1,1,3.9,2.1,5.7,3.4,8.8,6.2,17.8,5.7,26.7,.7,3.8-2.1,6.2-5.3,6-10,0-2.4,1.6-4.4,2.1-6.7,.5-2.2,0-3.4-2.6-3-1.1,.2-2.4,1.7-3.4,.2-1.2-2.1-3.7-3.6-3.5-6.4,0-1.1,.3-2.2,.5-3.3-.2-.8-.7-1.5-1.5-1.4-1.7,.2-2.8-.1-3-2.1-.2-1.8-1.9-1.6-3.3-1.7,2.4-1.5,3.7-.1,4.9,1.5,1.3,1.7,2.7,3.3,5.2,2.1Z"/>
      <path class="cls-24" d="M63.2,32.1c2,.9,4.1,1.2,6.2,.8,5.3-.8,7.5-4.2,5.7-9.3-1-2.9-2.4-5.7-4.7-7.9-3.3-3.1-7.1-3.5-11.6-1.3-.6,.8-1.1,1.6-1.2,2.6,0,.8,.6,1.3,.7,2.1-6.2,.2-12-1-17.1-4.7-.9-.7-1.7-1.4-2.9-1.6-1.3,0-2.2,.3-2.6,1.7-.2,3.6,1.9,5.9,4.5,8,4.1,3.2,4,4-.5,6.7-1.4,.8-2.9,1.4-4.4,1.8-6.2,2.5-12,.4-17.8-1.5-1.7-.6-2.2-1.9-1.5-3.6,.8-2,1.9-3.8,3.3-5.4,1.6-1.8,2.6-3.9,3.1-6.3,.4-2.1,1.3-4,3.1-5.3,1.1-.6,2.3-.3,3.5-.6,1-.3,2.2-.5,1.5-2.1-6.6-3.1-11-2.2-14.6,4-6.8,11.7-9.6,24.1-4.9,37.4,.3,.8,.5,1.7,1.4,2.1,3,1.6,6,2.9,9.4,3.3,.8-.3,.9-1.1,.8-1.8-.1-1.2,.6-1,1.3-.8,6.2,2.1,11.1,5.6,14.8,11.3,3.9,6.2,9,11.1,17.4,9.8,.5,0,1.1,0,1.4-.6,.3-.5,.4-1.1,.2-1.7-1.6-1.7-4.2-.5-5.9-2-.7-.3-1.3-.4-2-.5-1,0-1.8-.2-2.3-1.2-1-1.3-2.3-2.4-3.3-3.7-4.2-4.9-6.9-10.7-9.8-16.3-.8-1.6-1.5-3.2-3.1-4.1-.8-.8-1.6-1.6-2.4-2.4-1.5-.2-2.7-1.6-4.1-1.4,1.3,.5,2.8-.8,4.2,0,7.9-.6,15.9-.7,23.2-4.2,3.4-3.5,7.2-2.9,11.1-1.1Z"/>
      <path class="cls-59" d="M60.2,63.6c0-2.5,0-4.9,0-7.4-.4-2.7-1-5.2-3.5-6.7-4.5-2.3-8.7-5.4-13.4-7.3-3.3-1.4-6.5-3.1-10.3-2.5-.5,.6-.5,1.4-.5,2.1,1.3,2.4,1.1,6.2,5.5,5.8,.8,0,.7,.9,.7,1.5-.1,1-.3,2-.3,3,0,2.1,.7,3.6,3.1,2.5,2.8-1.3,2.8,.3,2.8,2.3,0,1.5-.8,2.9-.3,4.4,.9,1.7,1.9,3.3,4.1,3.5,2-.6,3.3-3.6,5.2-3.1,2.2,.6,1.1,3.7,2,5.5,.2,.3,.5,.6,.8,.8,3.9,1,3.7-1.9,4.1-4.3Z"/>
      <path class="cls-52" d="M56,71.3c-7.9-.3-13.4-4.6-17.3-11.1-3.5-5.8-8.6-9.3-15.2-10.6-1.1,1.9-.2,3.3,1,4.7,2.2,.7,1.8,2.6,1.9,4.2,.3,2.7,1.6,4.6,3.9,5.9,7.2,7.3,15.5,10.6,25.7,6.9Z"/>
      <path class="cls-17" d="M58,17.2c.5-.9,.9-1.8,.8-2.8-4.2,1.8-8,.7-11.7-1.3-.7-.4-2-.7-1.5-1.8,.6-1.5,1.8-.2,2.4,.1,.8,.4,1.4,.9,2.4,.3-1.9-2.3-3.6-4.7-5.7-6.8-4-4.1-8-3.6-11.3,1.1,1,2.5,2.9,4,5.1,5.1,.5,.1,1,.2,1.5,.2,1.5,0,2.9,0,3.3,1.9,.2,.3,.4,.6,.7,.8,4.4,2.2,8.9,4,14,3.1Z"/>
      <path class="cls-14" d="M22.1,52.4c-3.4-.6-6.2-3-9.8-2.8,3.1,6.7,7.7,11.7,15.1,13.6-.9-4-1.9-7.9-5.3-10.7Z"/>
      <path class="cls-25" d="M33.3,39.6c7.2,2,13.9,5,20.1,9.2,.9,.6,2,.9,3,1.3-.8-4.3-4.4-6-7.5-8.2-.7-.3-1.2-.7-1.2-1.6,.2-.9-.2-1.4-1.1-1.5-1.4-1.6-3-1.6-4.9-1.2-2.8,.5-5.6,.8-8.4,1.2-.2,.2-.3,.3-.2,.5,0,.2,.1,.3,.2,.3Z"/>
      <path class="cls-23" d="M44.5,61.3c.2-2,.5-3.9,.7-5.9,0-1,.5-2.2-.4-2.8-1.1-.8-2.1,.2-3,.8-.7,.5-1.4,1-2.4,.8-.6-2.1,.4-4.1,.5-6.2,0-.9,.1-3.1-1.4-2.1-3.3,2.4-3.6-.3-4.5-2.1-.3-.5-.5-1.1-.8-1.7-.2-.5-.5-.9-1.1-1-.3,0-.6,0-.9,0,3.3,6.5,6.5,13,10.5,19.2,.6,.9,1.5,1.1,2.1,1.8,.7,.1,1.2,0,.8-.9Z"/>
      <path class="cls-8" d="M38.7,10.5c-1.8-1.5-3.6-3-5.4-4.5-.8,0-1.7,0-2.5,.1,1.7,3.3,4.8,5.2,7.6,7.4,5.5,5.4,12.7,6.2,19.9,7.1,1,.1,2.7,.3,1.2-1.7-1.9-1.3-4.2-1.4-6.4-1.7-3.9-.5-7.5-1.9-10.7-4-1.5-.6-2.4-1.9-3.7-2.7Z"/>
      <path class="cls-39" d="M48.9,42c2,3.2,5.6,4.9,7.5,8.2,2,1.5,2.8,3.9,3.8,6.1,0-1.2,2-2.4,0-3.7-.7-.9-1.2-1.9-1.4-3-.7-.4-.9-1-1-1.8-2.6-1.1-.3-2.9-.5-4.3-2.5,.5-3.1-1.3-3.7-3.1-1,.6-1.2,2.8-3.1,1.5-.6,0-1.1,0-1.7,0Z"/>
      <path class="cls-35" d="M22.1,52.4c1.8,3.6,3.5,7.2,5.3,10.7,.3,2.1,1.9,1,3,1.3-.9-2-3.1-3.3-3.1-5.8-.9-1.5-.5-3.6-2.2-4.6-.8-1.4-1.6-2.7-1.5-4.4-.8-.3-.6-1.9-1.8-1.5-1,.4-.4,1.5-.3,2.2,.1,.7,.4,1.4,.6,2.1Z"/>
      <path class="cls-26" d="M38.4,13.5c-2-3-4.7-5.4-7.6-7.4-.2,0-.4,0-.5,0-.3,1.6-1.5,1.3-2.6,1.3-1.2,0-2.5-.4-3.4,.8,1.7,1.6,4.2,.5,5.9,1.9,1.6,1,2.8,2.3,3.9,3.8,.5,.7,1.1,1.4,2.1,1.2,0-1.4,1-1.8,2.2-1.7Z"/>
      <path class="cls-57" d="M67.2,54.4c-2.9,.7-7,0-5.8,4.8,.2,.9,.7,1.8,1.5,2,.9,.2,1.5-.7,1.8-1.5,.8-1.8,1.6-3.5,2.5-5.3Z"/>
      <path class="cls-5" d="M10.8,52.4c-1.4-3.7-2.8-7.5-4.2-11.2-3.3,5.1-3.3,5.4-.7,8.2,.8,.8,2.1,.8,2.7,1.9,.2,.2,.5,.3,.7,.5,1,.8-.3,2.4,1,3.1,1.3-.6,1-1.5,.5-2.5Z"/>
      <path class="cls-34" d="M10.8,52.4c0,.8,.1,1.7-.6,2.3-1,1.2-.5,2.3,0,3.5,.9,1.4,2.7,.9,3.8,1.9,.9,.5,1.8,.8,2.9,0-2-2.6-4-5.1-6-7.7Z"/>
      <path class="cls-20" d="M63.2,32.1c-5.1-3.4-7.9-3.9-11.1,1.1,3.7-.6,7.3-1.8,11.1-1.1Z"/>
      <path class="cls-47" d="M6.4,49.1c-3.5-2.7,0-5.3,.2-8-2.6,1.2-3.5,3.8-4,6.1-.6,2.7,2.5,1.8,3.7,2.9,.4-.3,.4-.7,.1-1.1Z"/>
      <path class="cls-32" d="M60.2,63.6c-.8,2.1-1.3,4.6-4.5,3.8-.3-.4-.7-.6-1.2-.8-.8-.2-1.6-.4-2.4-.3-.5,.2-.8,.5-.9,1,1.4,2.8,4.1,.8,6,1.6,1.1,.5,2.1,0,3.1-.5,.8-.5,1.7-.7,1.8-1.8,0-1.2-1.3-1-1.9-1.7,0-.5,0-.9,0-1.4Z"/>
      <path class="cls-37" d="M28.8,37.4c-2.4-.5-4.9-1-7.3-1.5,1.9,2.7,4.6,2.6,7.2,2.9,.1-.5-2.2-1.1,0-1.4Z"/>
      <path class="cls-60" d="M60.7,37.9c.5-1.6,1.9-3,.8-4.2-.8-.9-2.5-.7-3.8,.3,1,1.2,1.9,2.4,3,3.9Z"/>
      <path class="cls-2" d="M57.4,43.5c-.9,1.5-4,2.7-.7,4.8,.2,.1,.8-.3,1.2-.5-.5-1.4,.8-3-.5-4.3Z"/>
      <path class="cls-18" d="M50.5,41.9c.5,.9,1.1,1.9,2.3,2,1-1.1,.3-2.4,.8-3.5-1.8-1-2.1,1.1-3.1,1.5Z"/>
      <path class="cls-19" d="M60.2,65c.5,.5,1,1,1.6,1.5,.9,.7,1.2-.4,1.8-.6,.6-1,.6-2-.4-2.4-1.4-.6-2,.9-2.9,1.5Z"/>
      <path class="cls-61" d="M5.6,37.8c1.8-.8,.2-2.4,.9-3.4,0-1.1,1.4-2.9-1.2-3.1-.3,0-.4,.2-.4,.5-1.2,2.2-.2,4.1,.8,6Z"/>
      <path class="cls-44" d="M10.8,58.5c-.8-1.2-.7-2.5-.6-3.9-.5-.9,.2-2.2-.9-2.9,0,1.8,0,3.6,0,5.4,0,1.1-.1,2.3,1.6,2.2,.2-.2,.3-.3,.2-.5,0-.2-.1-.3-.2-.3Z"/>
      <path class="cls-29" d="M60.1,68c-.9,.3-1.9,.6-2.8,.9,0,.6,0,1.1,.1,1.7,1.4-.2,2.6-.9,3.5-1.9,.1-.7,0-1-.8-.7Z"/>
      <path class="cls-9" d="M5.6,37.8c-.4-2-.9-4-.8-6-3.1,2.4-.9,4.2,.8,6Z"/>
      <path class="cls-1" d="M73.5,33.4c-.9,.3-2.4,0-2.2,1.4,0,.4,.6,1.1,.8,1,1.6,0,.8-1.6,1.4-2.4Z"/>
      <path class="cls-49" d="M5.2,31.3c1.5,.6,.9,2,1.2,3.1,.9-.9,.4-2,.5-3.1,0-.5,.5-1.3-.4-1.4-.8,0-1,.8-1.3,1.4Z"/>
      <path class="cls-40" d="M32.1,41.1c.4,.3,.7,.7,1.1,1,0-.8,0-1.6,0-2.4,0-.3,0-.5,0-.8-2.5-.4-2.2,.7-1.2,2.2Z"/>
      <path class="cls-41" d="M46.6,38.9c.4,.5,.7,1,1.1,1.5,.6-.1,1.5,.8,1.8,0,.3-.7-.6-1.2-1.2-1.6-.5-.4-1-.4-1.6,0,0,0-.2,0-.2,0Z"/>
      <path class="cls-12" d="M60.1,68c.3,.2,.5,.5,.8,.7,1.4-.5,2.3-1.4,2.7-2.8-.6,.2-1.2,.4-1.8,.6-.6,.5-1.1,1-1.7,1.6Z"/>
      <path class="cls-50" d="M46.8,38.9c.5,0,1,0,1.6,0-.2-.9-.3-1.9-1.5-2.1,0,.7,0,1.4,0,2Z"/>
      <path class="cls-58" d="M10.8,58.5c0,.3,0,.5,0,.8,.9,.9,2.1,.5,3.1,.7-.5-1.7-2.3-.6-3.1-1.5Z"/>
      <path class="cls-30" d="M6.4,49.1c0,.4,0,.7-.1,1.1,.5,.9,1.5,.8,2.3,1-.2-1.3-1.2-1.7-2.1-2.1Z"/>
      <path class="cls-62" d="M58.9,49.5c-.3,1.4,0,2.4,1.4,3,.2-1.3-.6-2.1-1.4-3Z"/>
      <path class="cls-42" d="M21.4,13.5c-.2,2.8-1.9,4.7-3.5,6.8-5.6,7.2-4.8,9.5,4,11.6,4.6,1.1,9.3,2,13.8-.3-.1-.5-.4-.9-.8-1.1-1.2-.6-.8-1.9-1.2-2.9-.3-.6-.6-1.2-1.3-1.5-1.3,.2-1.3,1.3-1.5,2.2-.3,1.6-1.3,2.2-2.9,2-.7,0-1.4,0-2.1,0-2.7-.7-2.5-3.1-2.9-5.1-.6-3.6,.3-7.2-.4-10.8-.2-.5-.6-1-1.3-.9Z"/>
      <path class="cls-53" d="M34.8,30.9c.3,.2,.6,.4,.9,.7,.6-.1,1.2-.1,1.8-.4,8.4-3.7,8.7-5.1,1.6-10.7-1.8-1.5-2.4-3.3-3-5.3-.5-.6-1-1.1-1.6-1.7-.8,0-.9,.5-1,1.1,2.1,5.3,3.4,10.6,1.2,16.3Z"/>
      <path class="cls-11" d="M41.3,13.5c5.3,4.3,11.7,5,18.2,5.4-.5-.6-1-1.2-1.5-1.7-4.8-.9-9.6-1.9-14.2-3.7-.8-.6-1.7-.7-2.5,0Z"/>
      <path class="cls-15" d="M51.2,67.4l.8-.6c.2-.9-1.9-1.9,0-2.7,1.5-.6,1.3,1,1.5,1.8,.2,.5,.3,.9,.6,1.3,.5,0,1.1,0,1.6,0,0-.2-.1-.5-.1-.7-.2-2.3,.8-5.8-1.5-6.6-2.4-.8-4.1,2.4-5.9,4.2-.4,.4-.6,.9-.5,1.5,.2,.8,.8,1.2,1.5,1.5,.7,0,1.3,0,2,0Z"/>
      <path class="cls-10" d="M21.4,13.5c.2,.3,.5,.6,.7,.9,.5,0,1-.3,1.2-.8,1.1-3.5,3.5-4,6.7-2.9,.6-.1,.9-.5,1.1-1.1-2-1.8-4.3-2-6.8-1.5-1.4,1.5-2.6,3.1-2.8,5.3Z"/>
      <path class="cls-48" d="M48.1,66.2c0-.6,0-1.2,0-1.9-1.8-.3-2.5-2-3.7-3-.3,.3-.5,.6-.8,.9,.4,1.8,2.3,2.2,3.1,3.5,.3,.6,.7,.7,1.3,.5Z"/>
      <path class="cls-22" d="M65.4,27.7c-.2-1.6-.9-2.1-2.2-2.2,0,1.7,.9,2,2.2,2.2Z"/>
      <path class="cls-29" d="M48.1,66.2c-.4-.2-.9-.3-1.3-.5,0,1.8,1.1,1.7,2.4,1.6-.4-.4-.7-.8-1.1-1.2Z"/>
      <path class="cls-21" d="M25,54c.5,1.7,.7,3.4,2.2,4.6-.5-1.7,1.7-4.6-2.2-4.6Z"/>
      <path class="cls-38" d="M41.3,13.5c.8,0,1.7,0,2.5,0,0-.2,0-.4,0-.6-.8-1.5-2.6-1.5-3.8-2.3-.4,0-.8,0-1.2,0,.5,1.4,1.1,2.6,2.7,3Z"/>
      <path class="cls-16" d="M39.9,10.5c.9,1.3,2.4,1.9,3.8,2.3,.2-3.3-2.2-2.1-3.8-2.3Z"/>
      <path class="cls-55" d="M42.8,59.3c1.1-1.6,1-3.1,.9-4.6-3.9,.9-3.9,1-.9,4.6Z"/>
      <path class="cls-7" d="M31,9.7c-.3,.2-.5,.4-.8,.6,.7,1.8,1.5,3.5,3.7,3.8,.2-.2,.4-.4,.6-.7-.8-1.7-1.9-3-3.6-3.8Z"/>
      <path class="cls-51" d="M54.1,67.3c-.4-1.7,.4-3.5-.8-5.2-1.7,.7-2.7,2-4,3.3,1,.5,1.9,1,2.7,1.5,.7,.2,1.4,.3,2.1,.5Z"/>
      <path class="cls-36" d="M34,14.1c-1.2-1.3-2.5-2.5-3.7-3.8-5.1-2.1-5.5-2-8.1,4.1-.2,4.6-.4,9.1,.4,13.7,.5,2.6,1.7,3.3,3.9,3.3,1.4-2.7-.4-5.2-.7-7.8-.4-3.1-.3-6.1,.6-9,.5-1.8,1.5-1.7,2.7-.6,1.1,1,1.7,2.4,2.2,3.7,.6,1.5,1.1,3,1,4.7-.2,1.8,.5,3.5,.9,5.3,1.4,.7-3,4.3,1.6,3.2,2.2-.7,1.9-2.7,2-4.3,.5-4.4-.7-8.5-2.8-12.4Z"/>
      <path class="cls-46" d="M20.2,19.2c-1.6,2.4-2.8,4.1-3.8,5.9-.6,1.1-.8,2.5,.3,3.4,1.2,1,2.8,1.9,4.1,1.4,1.2-.5,.5-2.3,.2-3.4-.7-2.1-.2-4.2-.8-7.3Z"/>
      <path class="cls-6" d="M27.8,30.7c2.3,1.3,3.8,1.1,4-2,0-.9,.4-1.8,.6-2.8,.2-.2,.3-.4,.3-.6,0-.2,0-.3,0-.3-.3-1.2,.2-2.5-.8-3.5-.8-.3-1.4,.1-1.9,.7-.9,1.2-.3,3.1-2,3.9-.6,.4-1.1,.9-1.3,1.6-.3,1.2,.2,2.2,1.1,3Z"/>
      <path class="cls-3" d="M27.8,30.7c-.2-1-.5-1.9-.7-2.9,.3-2.1-.4-4.2-.3-6.3,0-1.3,0-2.7,0-4,.1-1.3,.7-2.7,0-4-.3-.3-.7-.4-1,0-2.2,5.3-1.2,10.6,.2,15.9,.2,.7,.8,1.2,.5,2.1,.5-.2,.9-.4,1.4-.6Z"/>
      <path class="cls-45" d="M32.4,25.7s0,.3,0,.3c.2,.6,.5,1.1,.7,1.7,.4-2,.3-4,0-5.9-2,1-.7,2.6-.7,3.9Z"/>
      <path class="cls-54" d="M37.9,20.8c0,2.1,0,3.4,0,4.6,.1,1.2-.7,2.8,.6,3.4,1.1,.5,2-1.1,3.2-1.5,1.5-.6,1.3-1.6,.3-2.5-1.1-1.1-2.3-2.2-4.1-3.9Z"/>
      <path class="cls-4" d="M32.4,25.7c.4-1.3-.4-2.8,.7-3.9,0-1.7-.4-3.3-1.3-4.8-.8,.6-1,1.5-1,2.4,0,.9,.1,1.8,.9,2.5,.2,1.3,.5,2.6,.7,3.9Z"/>
      <path class="cls-13" d="M31.7,19.5c0-.9,0-1.7,.1-2.6,0-1.5-1-2.5-2-3.6-.4-.1-.7-.1-1.1-.1-.2,.3-.4,.6-.4,1,.9,1.9,.8,4.3,3.3,5.3Z"/>
      <path class="cls-31" d="M28.7,13.5c.4,0,.8,0,1.2-.1-1.4-1.8-2.9-2.9-4.2,.1,.3,0,.6,0,.9,0,.7,.1,1.4,.2,2.1,0Z"/>
      <path class="cls-43" d="M31.7,19.5c-.9-1.8-1.9-3.5-2.8-5.3-1.2,.7-.9,3.1-3.1,2.7,0,1.6,0,3.2,0,4.9,.6,.8,.9,1.9,2.3,1.4,.5-1,1.5-.5,2.2-.7,.4-.2,.9-.5,1.3-.7,0-.8,0-1.5,0-2.3Z"/>
      <path class="cls-28" d="M30.4,22.5c-1-.4-.5-2.2-1.6-2-1.3,.3-.7,1.8-.9,2.7-.8,1.6-.9,2.9,1.2,3.5,1.6-1,.8-2.9,1.3-4.2Z"/>
      <path class="cls-56" d="M29,26.7c-.9-1-1-2.3-1.2-3.5-.7-.5-1.3-.9-2-1.4-.2,2.1,.2,4.2,1.2,6.1,.4-.8,1.2-1,2-1.2Z"/>
      <path class="cls-27" d="M25.8,16.9c.6,.5,.7,2,1.7,1.5,1.7-.8,1.3-2.6,1.3-4.2,0-.3-.1-.5-.2-.8-.7-.7-1.4-.8-2.1,0-.3,1.2-.5,2.3-.8,3.5Z"/>
    </g>
  </g>
</svg>