<?xml version="1.0" encoding="UTF-8"?>
<svg id="Capa_2" data-name="Capa 2" xmlns="http://www.w3.org/2000/svg" viewBox="0 0 76.5 76.8">
  <defs>
    <style>
      .cls-1 {
        fill: #bdcd81;
      }

      .cls-2 {
        fill: #3c4624;
      }

      .cls-3 {
        fill: #bccc8e;
      }

      .cls-4 {
        fill: #ebe2e0;
      }

      .cls-5 {
        fill: #77942e;
      }

      .cls-6 {
        fill: #211916;
      }

      .cls-7 {
        fill: #bac294;
      }

      .cls-8 {
        fill: #6e6e20;
      }

      .cls-9 {
        fill: #4a4e35;
      }

      .cls-10 {
        fill: #4d3030;
      }

      .cls-11 {
        fill: #f1e7e7;
      }

      .cls-12 {
        fill: #c2d399;
      }

      .cls-13 {
        fill: #4e4e43;
      }

      .cls-14 {
        fill: #c7c599;
      }

      .cls-15 {
        fill: #77892a;
      }

      .cls-16 {
        fill: #f0a29c;
      }

      .cls-17 {
        fill: #bdd185;
      }

      .cls-18 {
        fill: #fbf3ef;
      }

      .cls-19 {
        fill: #c4bcbc;
      }

      .cls-20 {
        fill: #393728;
      }

      .cls-21 {
        fill: #7c1721;
      }

      .cls-22 {
        fill: #3d4124;
      }

      .cls-23 {
        fill: #4e181c;
      }

      .cls-24 {
        fill: #4e503a;
      }

      .cls-25 {
        fill: #b6cc6f;
      }

      .cls-26 {
        fill: #831825;
      }

      .cls-27 {
        fill: #788e2b;
      }

      .cls-28 {
        fill: #ca9290;
      }

      .cls-29 {
        fill: #7c932c;
      }

      .cls-30 {
        fill: #2f2c22;
      }

      .cls-31 {
        fill: #7b952b;
      }

      .cls-32 {
        fill: #fcfbfb;
      }

      .cls-33 {
        fill: #bec79b;
      }

      .cls-34 {
        fill: #c97268;
      }

      .cls-35 {
        fill: #343a22;
      }

      .cls-36 {
        fill: #c0d38b;
      }

      .cls-37 {
        fill: #7c912d;
      }

      .cls-38 {
        fill: #e9e3dd;
      }

      .cls-39 {
        fill: #ebe7e8;
      }
    </style>
  </defs>
  <g id="Capa_1-2" data-name="Capa 1">
    <g>
      <path class="cls-6" d="M13.9,14.7c7.8-4.2,14.9-8.6,22.7-11.5C40.9,1.6,45.2,.5,49.7,0c1.2-.1,2.4-.2,3,.9,.6,1-.2,1.9-.7,2.8-1.3,2.4-2.6,4.7-3.9,7.1,6.8,0,13.3,0,19.7,0,1.1,0,2.3-.5,3,.8,.6,1.3-.4,2.1-1.1,3-2.3,2.8-4.5,5.7-6.8,8.4-1.2,1.4-1.1,2.1,.6,2.9,3.3,1.5,6.5,3.1,9.7,4.7,4.2,2,4.2,2.8,.3,5.6-2.2,1.6-4.5,3.2-6.7,4.7-1.6,1.1-1.8,2.2-.2,3.6,2.2,2,4.4,4.1,6.6,6.1,3.2,2.9,3.1,3.6-.6,5.5-1.3,.7-2.7,1.4-4,2-4.7,2.1-8.7,4.9-12.4,8.6-10.1,10.4-22.6,12.3-36.2,7.9-2.4-.8-4.3-2.3-4.2-5.1,0-2.6-1.4-3.5-3.6-4.5-6.2-2.6-8.2-6.1-7.5-11.8,.2-1.4,.7-2.5,2.1-1.5,4,2.9,3.5-2,5.1-3,2-1.3-.1-2.4-1-3.4-.6-.6-1.3-1.2-1.8-1.9-1.7-1.8-3-2.8-3.8,.7-.4,1.9-1.6,2.4-3.1,.4C0,41.8-.6,38.7,.6,35.2,3.6,26.9,7.6,19.1,10.3,10.7c.3-1.1,.8-2.8,2.3-2.5,1.9,.3,1.2,2.1,1.3,3.4,0,.9,0,1.7,0,3.1Z"/>
      <path class="cls-12" d="M14.7,59.8c5,0,8.9-2.4,12.8-5,4-2.6,6.7-5.8,7.2-10.7,.2,.1,.4,.3,.7,.3,.3,0,.5,.6,.8,.1,0,0-.2-.4-.3-.6-3-3.4-6.9-4.9-11.2-5.1-4.7-.2-9.4,.1-14.2,.2q-7.3,.3-6.1-7c0-.6,0-1.2,.3-1.8,4.4-10.3,13.3-15.7,22.8-20.4,5.8-2.9,11.7-5.5,18.1-6.9,2.3-.5,2.8-.2,2.8,1.4-1.8,1.8-3.4,3.9-5.8,5.1-1.6,.3-1.7,1.7-2,2.9-.4,1-1.1,1.8-2.2,2.3-2.1,0-4.1-.2-5.9-.1,1.5,.5,3.6-.9,5.1,1,.5,1.8-.5,2.9-1.6,4.1-2.3,1.6-5.1,2.2-7.6,3.4-3,1.1-5.9,2.4-8.7,3.9-1.3,.8-2.6,1.5-3.7,2.6,4.3,.5,8.5,.1,12.7,.2,1.4,0,2.3-.8,3-1.9,.9-1.3,2-2.6,2.7-4,2.6-5.2,7.1-6.7,12.5-6.6,1.8-.1,3.5-.4,5-2.1-1.8-.1-3.5-.2-5.3-.3-.6,0-1-.3-.2-.8,.3-.1,.7,0,1.1,0,3.3-.6,6.6-.4,10,0,2,.2,3,1,2.9,3-.2,1.9-1.4,2.9-3.1,3.5-.9,.2-1.7-.1-2.4-.7,1.4,1.3,2.9,2.6,3.3,4.7,2.6,3.7,3.6,8.1,5.3,12.2,1.3,.6,1.4,1.6,.8,2.8-.9,5-1.7,10.1-2.6,15.1,1.7,1.7,.3,2.9-.6,4.2-1.8,.8-3,2.1-4.1,3.6-2.8,3.7-2.8,3.6-5.7,.5-.8,1.7,2.2,3.3,0,5-1.5-1.3-.8-4.1-3.3-4.5-2.5-.3-4.2,1.3-5.9,2.7-2.5,2-4.9,4.2-7.3,6.3-1.3,.5-2.5,.3-3.6-.4-.7-1.3-1.8-1.5-3.2-1.1-1.8-.2-3.2-1.2-4.4-2.5-2.1-2.2-4.4-4.2-7.1-5.8-1-.6-2.2-1.3-1.7-2.9Z"/>
      <path class="cls-31" d="M14.7,59.8c4.6,3.3,8.4,7.6,13.4,10.4,1,.6,2.3,.3,3.1,1.3,1.2,.3,2.4,.6,3.6,.9-2.4,2.9-10,2.8-11.4-.5-2.1-4.6-5.1-7.8-10.1-9-1.7-.4-3.1-1.4-4.8-3.1h6.2Z"/>
      <path class="cls-16" d="M30.7,49.3c-2.4,3.4-6,5.3-9.5,7.3-.6,.4-1.2,0-1.5-.6-1.1-.7-1.5-2-2.6-2.7-.4-.4-.6-.9-.6-1.4,.9-2.5,2.8-4,5.1-5.1,3.5-1,6.9-1.6,9,2.4Z"/>
      <path class="cls-26" d="M14.6,50.7q1.7-4-4.1-9.6c3.5-1.4,4-1.2,7.9,4.2,1.4-1.4,.2-4.4,2.5-4.9,2.8-.6,5.6-.3,8.5,1.3-.6,1.1-1.6,1.5-2.6,1.6-3.3,1.9-6.7,3.6-9.2,6.7-.7,.9-1.7,1.6-2.9,.7Z"/>
      <path class="cls-34" d="M30.7,49.3c-2.8-2.5-6-2.5-9.4-1.7,1-3,3.6-3.2,6.1-3.6,.4,0,.7,0,1.1,0,1.3,0,3.2-1.6,3.8,.3,.6,1.6,.5,3.9-1.6,5Z"/>
      <path class="cls-20" d="M28,22.2c2.6-1,5.1-2,7.7-3,3.2-2.2,6.6-3.3,10.5-2.8,.3,.3,.6,.5,.9,.8-7.1,.8-11.2,5.3-14.5,11.1-.7,.1-.9-.3-1-.9,0-1.9,1.5-3.1,2.3-5-1.8,0-3.2,1.2-4.8,.9-.5-.2-.9-.6-1-1.1Z"/>
      <path class="cls-27" d="M42.4,8.8c2.1-1.4,3.4-3.8,6-4.5-1.4,3.5-3,6.9-5.4,9.8-1.5,.3-3.1,1.4-4.5-.3,.5-.7,1-1.4,1.5-2.1,.8-1,.9-2.5,2.4-3Z"/>
      <path class="cls-3" d="M63.4,52.9c.3-2,0-4.9,1.7-5.6,1.5-.6,3.1,1.9,4.4,3.4,.7,.8,3.5,.9,1.5,3.1-2.7,.7-5.3,.9-7.6-.9Z"/>
      <path class="cls-23" d="M27.3,44c-1.9,1.4-4.5,1.6-6.1,3.6-1.7,1.3-3.3,2.7-4.3,4.6-.7,2.1-1.2,4.4-3.6,5.4,0-.3,0-.6-.1-1-1.8-2.6,.9-4,1.5-6,0,0,0,0,0,0,2.7-.5,3.6-3.2,5.6-4.6,2-1.4,3.8-3,6.5-2.8,.2,.2,.4,.4,.6,.7Z"/>
      <path class="cls-36" d="M59.7,18c.2-2-.5-3-2.7-3.5-3.2-.7-6.4-.1-9.5-.5,5.8-1.1,11.7-.5,17.6-.8,1.3,0,2,.3,.7,1.5-1.9,1.3-3.2,3.9-6.1,3.2Z"/>
      <path class="cls-37" d="M63.4,52.9c2.5,.3,5.1,.6,7.6,.9-3.1,2.1-6.6,3.4-9.9,5,.2-1.4,.4-2.8,.6-4.2,.6-.5,1.2-1.1,1.7-1.6Z"/>
      <path class="cls-5" d="M64.3,39.4c-.3-.9-.6-1.9-.8-2.8,1.6-.4,.5-1.7,.8-2.5,2.6-1.6,5.3-1.9,8.1-.6-2.1,2.7-5.3,4.1-8,5.9Z"/>
      <path class="cls-29" d="M59.7,18c2.3-.5,3.6-3,6.1-3.2-.9,2.5-3.1,4.1-4.6,6.2-1,.3-1,1.5-1.7,2h0c-2,.1-3.1-.8-3-2.9,1.1-.5,2.4-.8,3.1-2Z"/>
      <path class="cls-15" d="M4.8,30.2c0,.7,.1,1.5,.1,2.2q0,6.1,5.6,6.6c-.1,0-.2,.2-.3,.2-2.7,0-6.6,1.4-7.6-.5-1.3-2.4,.7-5.8,2.2-8.5Z"/>
      <path class="cls-33" d="M46.1,16.3c-3.5,.9-7,1.9-10.5,2.8,.2-1.3,2-2,1.5-3.6,1.5-1.1,3-1,4.6-.2,1.5,.1,2.9,.3,4.4,.4,0,0,.2,.1,.2,.2,0,.1-.1,.2-.2,.3Z"/>
      <path class="cls-21" d="M14.6,50.7c.6,2.3-2.1,3.7-1.5,6-.9,.3-1.3,2.2-2.6,1.1-.8-.7-.5-1.9,0-2.7,1.1-1.7,1.9-3.7,4-4.4Z"/>
      <path class="cls-1" d="M72.3,33.5c-2.7,.2-5.4,.4-8.1,.6,0-.5-.1-.9-.2-1.4,1-2.1,2.6-2.5,4.6-1.5,1.3,.6,2.9,.7,3.7,2.2Z"/>
      <path class="cls-24" d="M41.7,15.4c-1.5,0-3,.1-4.6,.2-2.5-1.6-5.8,.3-8.2-2,3.2,.1,6.5,.5,9.7,.3,1.5,0,3,.2,4.5,.3-.5,.4-.9,.8-1.4,1.3Z"/>
      <path class="cls-35" d="M56.6,20c.8,1.2,1.7,2.3,3,3-.5,.5-1,1-1.4,1.4-1.9-2.1-3.8-4.2-6.2-6.9,2.8-.2,3.4,1.6,4.6,2.4Z"/>
      <path class="cls-7" d="M68.6,31.3c-1.9-.6-3,1.2-4.6,1.5-.6-1.4-1.2-2.8-2-4.6,2.7,.8,4.7,1.8,6.6,3.1Z"/>
      <path class="cls-28" d="M13.3,57.7c1.2-1.8,1.9-4,3.6-5.4,.2,.2,.4,.5,.7,.7,.7,1.7-.2,2.7-1.5,3.6-1,.3-1,2.9-2.8,1.1Z"/>
      <path class="cls-10" d="M16.1,56.5c0-1.4,1-2.4,1.5-3.6,2.2,0,1.6,2,2.1,3.1-.2,.3-.5,.6-.7,.9-1.4-1.8-1.7,1.3-2.8,.7,0-.4,0-.7-.1-1.1Z"/>
      <path class="cls-14" d="M9.7,18.9c.3-2.1,.7-3.6,1.8-5.2,.5,2.1,.9,3.9-1.8,5.2Z"/>
      <path class="cls-22" d="M35.9,43.9c1.4,.3,1.9,1.4,2.6,2.9-2.1-.1-2.8-1.6-3.8-2.7,.4,0,.8-.1,1.2-.2Z"/>
      <path class="cls-4" d="M16.2,57.6c.9-.2,1-4,2.8-.7-.7,1.1-1.6,1.8-2.8,.7Z"/>
      <path class="cls-38" d="M17.2,40.2c.8,0,1.5,0,1.2,1.1,0,.3-.2,.6-.3,.9-.5-.4-1.2-.8-1.6-1.3-.4-.6,.2-.7,.7-.7Z"/>
      <path class="cls-18" d="M7.8,55.3c.5,.6,1.3,1.2,.6,2.1-.3,.4-.8,.9-1.3,.1-.3-.9-1.1-2,.7-2.2Z"/>
      <path class="cls-19" d="M7.8,55.3c-1,.5-.4,1.5-.7,2.2-.8-.8-1.1-1.9-.5-2.8,.3-.5,1,0,1.2,.6Z"/>
      <path class="cls-8" d="M59.5,22.9c0-1.1,.2-2.2,1.7-2-.2,1-.7,1.7-1.7,2Z"/>
      <path class="cls-11" d="M4.2,42.3c-.2,.2,0,.9-.5,.6-.5-.3-.7-.9-1-1.4,.3-.2,.5-.4,.8-.5,1,0,.8,.7,.7,1.3Z"/>
      <path class="cls-30" d="M28,22.2c.3,.2,.6,.4,.9,.7-2.1,1.8-3.9,3.9-4.7,6.6-1.1,1-2.3,.8-3.6,.4-.6-.4-1-1-1.3-1.7-.3-.6-.5-1.3-.2-2,2.8-1.6,5.6-3.2,8.8-4Z"/>
      <path class="cls-9" d="M20.5,28.8c1.1,1.3,2.1,1.3,3.2,0,2.6-1.3,5.4-1,8.1-1.4,.2,.2,.4,.5,.7,.7-.5,1.9-1.8,2.3-3.7,2.3-5.1,0-10.2-.3-15.2,.8-.1-1.4,.7-1.9,1.6-2.4,.6-.3,1.3-.2,1.9-.2,1.1,.1,2.3-.5,3.4,.1Z"/>
      <path class="cls-13" d="M17.1,29.7c-.6-.2-1.3-.5-1.9-.7,1.1-1.2,2.4-2.2,4-2.7,.2,.4,.5,.9,.7,1.3-.7,.9-1.8,1.5-2.8,2.1Z"/>
      <path class="cls-17" d="M31.1,71.6c-1.2,0-2.2-.5-3.1-1.3,1.5-.7,3.4-2.2,3.1,1.3Z"/>
      <path class="cls-25" d="M42.4,8.8c-.6,1.1-1.1,2.4-2.4,3,0-1.6,0-3.3,2.4-3Z"/>
      <path class="cls-2" d="M9.7,34.2c-1.2,1.6-2.2,2.6-4,2.1,.9-1.3,1.9-2,4-2.1Z"/>
      <path class="cls-32" d="M31.8,27.5c-2.3,2.7-5.3,1.3-8.1,1.4,0-3.5,2-5.3,5.1-6.1,2.2-.7,4.4-1.4,7.3-2.4-1.7,2.8-3,4.9-4.3,7.1Z"/>
      <path class="cls-39" d="M17.1,29.7c.5-1.3,1.4-2,2.8-2.1,.2,.4,.4,.9,.6,1.3-1.2,.2-2.1,1.1-3.4,.8Z"/>
    </g>
  </g>
</svg>