<?xml version="1.0" encoding="UTF-8"?>
<svg id="Capa_2" data-name="Capa 2" xmlns="http://www.w3.org/2000/svg" viewBox="0 0 79.7 77.6">
  <defs>
    <style>
      .cls-1 {
        fill: #594d34;
      }

      .cls-2 {
        fill: #126442;
      }

      .cls-3 {
        fill: #077847;
      }

      .cls-4 {
        fill: #dba61d;
      }

      .cls-5 {
        fill: #f4ecba;
      }

      .cls-6 {
        fill: #241915;
      }

      .cls-7 {
        fill: #ccaa19;
      }

      .cls-8 {
        fill: #f9bf05;
      }

      .cls-9 {
        fill: #f1eab9;
      }

      .cls-10 {
        fill: #bc9b25;
      }

      .cls-11 {
        fill: #e8e6e7;
      }

      .cls-12 {
        fill: #483417;
      }

      .cls-13 {
        fill: #fbfbfb;
      }

      .cls-14 {
        fill: #dea61a;
      }

      .cls-15 {
        fill: #fab835;
      }

      .cls-16 {
        fill: #57412a;
      }

      .cls-17 {
        fill: #d6a51e;
      }

      .cls-18 {
        fill: #f4bb10;
      }

      .cls-19 {
        fill: #d5d3d3;
      }

      .cls-20 {
        fill: #734915;
      }

      .cls-21 {
        fill: #484646;
      }

      .cls-22 {
        fill: #704a15;
      }

      .cls-23 {
        fill: #272019;
      }

      .cls-24 {
        fill: #f9f8f9;
      }
    </style>
  </defs>
  <g id="Capa_1-2" data-name="Capa 1">
    <g>
      <path class="cls-6" d="M32.8,77.6c-7.9-.3-14.3-2.3-19.8-6.5-5.8-4.4-8.9-10.4-7.4-17.6,1-5-.3-9.9,.4-14.9,.8-6.1,2.9-11.5,6.6-16.5,.6-.8,1.9-1.6,1-2.9-.7-1-1.9-1.1-3-1.2C1.8,17.9-2.3,11.1,1.3,3,2.1,1.2,3.4-.4,5.6,0c2.4,.5,2.3,2.6,1.9,4.5-.2,1.2-.3,2.5-.3,3.7,0,2.3,1,3.5,3.5,3.1,3.1-.5,5.7,.3,7.8,2.7,.6,.6,1,1.4,2.1,.7,4.1-2.8,9.2-3.7,12.2-8.6,4.5-7.2,6.3-7.1,10.9,.3,2.7,4.3,6.9,5.4,10.8,7.4,.7,.4,1.5,.3,2.1-.2,3.2-2.5,6.8-2.6,10.6-2.1,5.5,.7,6.1-.1,5.4-5.6-.3-2-.3-3.9,2.1-4.4,2.5-.5,3.6,1.2,4.2,3.3,2.8,9.4-1.6,14.7-11.3,13.7-1.8-.2-4.3-1.2-5.3,.3-1.1,1.6,1.5,2.7,2.5,4,7.5,10.5,9,21.8,3.9,33.6-5.2,12-14.6,18.6-27.7,19.8-3.1,.3-6.1,1.6-8.2,1.3Z"/>
      <path class="cls-8" d="M15.9,22.1c3.4-4.3,8.1-6.7,13.2-8.5,.9-.3,1.6-.3,2.4,.1,3.3,1.6,7.1,1.9,10.2,.6,4.6-1.9,8.1,.1,11.8,1.7,.5,.7,.4,1.4,0,2.1-.6,1.2-.8,2.3,.3,3.3,1.3,1.2,2.4,.6,3.6-.3,.4-.3,.9-.3,1.4-.5,10.8,8.5,13.5,26.2,5.7,38.1-1.4,1.1-2.8,2.4-4.6,2.8-1.5,.3-3.5,.7-2.8-2.1,0-.8,.3-1.7-.7-2.3-2.5-1.2-4,.4-5.4,1.9-3.6,3.8-7.5,7.2-12.4,9.2-2.4,1-4.8,1.9-7.5,1.3-.3-2.5-1.3-.6-2-.3-2.5,1.3-5.1,1-7.5-.1-1.3-.7-2-2.9-4.1-1.6-6.1-2-10-8.7-9.1-15.7,0-1.7,.5-3.4,1.7-4.4,5.5-4.2,3-9.8,1.7-14.3-1.1-3.7-.1-5.8,1.8-8.2,1.2-.6,1.8-1.8,2.3-3Z"/>
      <path class="cls-14" d="M8.4,52c0,6.4,3.4,11,8.2,14.8,.4,.3,1.2,.2,1.8,.3,1.5-.4,1.9,1.4,3.1,1.5,2.7,.6,5.3,1.3,8,0,.6,.2,1.1,.7,1.7,.7,7.8-.8,13.9-4.8,19-10.5,1-1.1,2.1-2.2,3.3-2.9,1.4-.9,2.6-.5,3,1.3-.8,.2-1.1,.9-1.4,1.6-5.5,15.3-27.8,23-43.3,7.5-4-4-5.1-9-3.4-14.4Z"/>
      <path class="cls-5" d="M55.7,17c3.4-3.2,7.2-4.2,11.9-3.3,5.9,1.1,8-1.3,7.1-7.2-.1-.9-1-2.5,.6-2.8,1.4-.2,1.3,1.5,1.6,2.5,2,6.9-1.2,11.4-8.6,10.2-4-.6-8-.9-10.5,3.4-.4,1.5-1.2,2.4-2.9,2.2-.9-.1-1.6-.7-1.7-1.7,0-1.7,.9-2.7,2.4-3.3Z"/>
      <path class="cls-9" d="M5.2,2.1c.9,1.8-.1,3.6-.1,5.4,0,4.8,1.4,6.4,6.2,5.9,2.3-.2,4.1,.6,5.7,2.1,.7,.7,1.2,1.5,.2,2.5-1,1-1.5,.3-2.1-.4-1.5-1.7-3.5-1.7-5.5-1.5-3.3,.4-5.5-1-6.7-4.1-1.3-3.5-.2-8.1,2.3-10Z"/>
      <path class="cls-17" d="M57.1,59.6c.4,2,1.7,1.9,3,1.1,1.4-.9,2.9-1.3,4.4-1.8-3,5.6-7.4,9.6-13.3,12.1-1.4,0-1.2-.7-.8-1.6,2.9-2.8,5.2-6.1,6.7-9.8Z"/>
      <path class="cls-18" d="M36.9,4.7c.2-.6,.5-1.2,1.2-1.2,1.1,0,6.7,6.9,6.3,7.8-.8,1.8-2.6,1.9-4.4,1.8-4-1.7-4.7-3.5-3.1-8.4Z"/>
      <path class="cls-4" d="M36.9,4.7c.1,3.1-.4,6.5,3.1,8.4-2.7,.3-6.5,.9-7.6-1.4-1.1-2.3,2.2-4.5,3.9-6.6,.2-.2,.4-.3,.6-.4Z"/>
      <path class="cls-12" d="M55.7,17c-.1,.2-.2,.4-.3,.6-.5,1.1-2.4,1.9-1.1,3.3,1.6,1.7,2.4-.5,3.5-1.1,.3,.3,.7,.7,1,1-2.7,3.2-5.1,3.3-6.6,.5-1.2-2.2,1.4-3.3,1.3-5.1,.7,.3,1.4,.5,2.1,.8Z"/>
      <path class="cls-11" d="M11.5,35.3c0,2.1-.3,3.2-1.7,3.2-.9,0-1.4-1.1-1.1-1.9,.3-1.1,.1-2.9,1.7-2.8,.9,0,1.1,1.4,1.1,1.6Z"/>
      <path class="cls-10" d="M50.4,69.4c0,.7,.2,1.2,.8,1.6-1.2,.9-2.5,1.4-4.9,1.4,1.8-1.3,2.9-2.1,4.1-3Z"/>
      <path class="cls-7" d="M15.9,22.1c.2,1.7,.1,3.3-2.3,3,.2-1.4,1.2-2.3,2.3-3Z"/>
      <path class="cls-2" d="M9.4,43.8c0,.2,.4,.7,.3,1.1,0,.4-.5,1-1,.7-.3-.2-.2-.9-.2-1.3,0-.3,0-.8,.9-.4Z"/>
      <path class="cls-23" d="M51.3,29.7c2.4,.8,3.1,2.9,3.5,4.9,.7,4,1.1,8.1,1.1,12.3,0,1.7-.7,2.5-2.2,2.8-3.1,.6-6.1,1.2-9.2,1.8-1,.7-2,.7-3-.1-.1-.5-.2-1-.3-1.4,.1-.1,.2-.2,.3-.4,.3-.1,.6-.3,.9-.4,1.6-1,1-2.6,1-4,.1-2.7,0-5.4,1.4-7.8,.9-.9,1.6,0,2.4,.1,1.5,.2,3,.1,3.5-1.7,.5-1.8-1.1-2.1-2.2-2.8-1.2-2.1,1.6-1.8,1.8-3.1,.2-.4,.5-.7,1-.3Z"/>
      <path class="cls-16" d="M51.3,29.7c-.3,.2-.5,.4-.8,.7-4.1,1.1-6.3,3.8-6.8,8-.3,1.3-.6,2.6-.8,3.9-.9,2.5,.5,5.4-1.3,7.7,0,0-.3,0-.3,0-1.7-6.4-.3-12.5,2.6-18.2,1.5-2.9,4.3-3.9,7.5-2.1Z"/>
      <path class="cls-22" d="M31.1,69.4c-.4,.4-.8,1-1.4,.5-.3-.2-.2-.8-.3-1.2,.9-1,1.3-2.6,3.2-2.5,.5,1.7-1.6,1.9-1.5,3.2Z"/>
      <path class="cls-15" d="M41.5,51.4c1,0,2,0,3,.1,0,1,0,2-1.4,2.1-1.6,0-1.6-1.1-1.6-2.2Z"/>
      <path class="cls-20" d="M21.4,68.6c-2.3,2.1-1.6-1.8-3.1-1.5-.1-1.8,.8-1.7,1.7-.7,.6,.6,.9,1.5,1.4,2.2Z"/>
      <path class="cls-3" d="M46.6,41q4.4,6.5,8,4.3c.3,1.6,.5,3-1.7,3.3-2.2,.4-5.4,2.1-6.5,.6-1.5-2-1.1-5.3,.1-8.2Z"/>
      <path class="cls-24" d="M42.1,41.7c.2-1.3,.1-2.6,.9-3.8,.8-.7,.2-3.5,2.6-1.7,0,.4,0,.7-.2,1-1,3.5-1,7.1-.8,10.7,0,1.9-.1,3-2.4,1.9-.5-2.7-.4-5.5,0-8.2Z"/>
      <path class="cls-13" d="M48.2,33c1.8-.7,3.5-.8,4,1.6,.4,2.2-.7,3.5-2.8,4-.8,.2-1.7,0-2.6,0-.9-1.8-1.2-3.5,.3-5.2,.3-.3,.7-.4,1.1-.4Z"/>
      <path class="cls-19" d="M48.2,33v.3s-.3,.1-.3,.1c-1.6,.4-.9,2.8-2.6,3.1-1.7-1.1-1.3,1.2-2.3,1.4,.8-5.9,2.7-7.8,7.4-7.6,.5,2-2.5,1-2.3,2.7Z"/>
      <path class="cls-1" d="M42.1,41.7c0,2.7,0,5.5,0,8.2-.2,0-.4,0-.6,0,.2-2.7-.8-5.6,.6-8.3Z"/>
      <path class="cls-21" d="M45.3,36.5c1.1-.8,.4-3.2,2.6-3.1-.7,1.7-2,3.2-1.1,5.2-.5-.5-.9-.9-1.4-1.4,0-.2-.1-.5,0-.7Z"/>
    </g>
  </g>
</svg>